<svg xmlns="http://www.w3.org/2000/svg" xmlns:xlink="http://www.w3.org/1999/xlink" width="98" height="98" viewBox="0 0 98 98">
  <defs>
    <clipPath id="clip-path">
      <rect id="Rectángulo_456277" data-name="Rectángulo 456277" width="98" height="98" transform="translate(0.31 0.309)" fill="#d35560"/>
    </clipPath>
  </defs>
  <g id="Grupo_1180340" data-name="Grupo 1180340" transform="translate(13435.691 12680.69)">
    <g id="Grupo_1179924" data-name="Grupo 1179924" transform="translate(-13436.001 -12681)">
      <g id="Grupo_1179923" data-name="Grupo 1179923" transform="translate(0 0)" clip-path="url(#clip-path)">
        <path id="Trazado_1004716" data-name="Trazado 1004716" d="M48.95,97.9c-1.59,0-3.077-1.816-4.627-1.968-1.579-.154-3.391,1.337-4.922,1.033-1.554-.309-2.657-2.381-4.153-2.835-1.513-.46-3.582.647-5.028.045s-2.134-2.855-3.515-3.6-3.636-.066-4.94-.94-1.533-3.214-2.747-4.212-3.552-.768-4.664-1.88-.88-3.448-1.88-4.664-3.335-1.438-4.212-2.747-.194-3.55-.94-4.94-2.99-2.057-3.6-3.515.505-3.515.046-5.028c-.455-1.5-2.527-2.6-2.835-4.153-.3-1.531,1.187-3.343,1.033-4.921C1.816,52.028,0,50.54,0,48.95s1.816-3.077,1.968-4.627C2.122,42.744.631,40.932.935,39.4c.308-1.554,2.38-2.657,2.835-4.153.46-1.513-.646-3.583-.045-5.029s2.855-2.133,3.6-3.515.066-3.636.94-4.94,3.214-1.533,4.212-2.747.768-3.552,1.881-4.664,3.448-.88,4.664-1.88,1.438-3.335,2.747-4.212,3.55-.194,4.94-.94,2.057-2.99,3.515-3.6,3.515.505,5.029.045c1.5-.454,2.6-2.527,4.153-2.835,1.531-.3,3.343,1.187,4.921,1.033C45.873,1.816,47.36,0,48.95,0s3.077,1.816,4.627,1.968C55.157,2.122,56.969.631,58.5.935c1.554.309,2.657,2.381,4.154,2.835,1.513.46,3.582-.647,5.028-.045s2.134,2.855,3.515,3.6,3.636.066,4.94.94,1.533,3.214,2.747,4.212,3.552.768,4.664,1.881.88,3.448,1.88,4.664,3.335,1.438,4.212,2.747.194,3.55.94,4.94,2.99,2.057,3.6,3.515-.505,3.515-.045,5.028c.455,1.5,2.527,2.6,2.835,4.153.3,1.531-1.187,3.343-1.033,4.922.152,1.551,1.968,3.038,1.968,4.627s-1.816,3.077-1.968,4.628c-.154,1.579,1.337,3.39,1.033,4.921-.308,1.554-2.38,2.657-2.835,4.154-.46,1.513.646,3.582.045,5.028s-2.855,2.134-3.6,3.515-.066,3.636-.94,4.94-3.214,1.533-4.212,2.747-.768,3.552-1.881,4.664-3.448.88-4.664,1.88-1.438,3.335-2.747,4.212-3.55.194-4.94.94-2.057,2.99-3.515,3.6-3.515-.505-5.028-.045c-1.5.454-2.6,2.527-4.153,2.835-1.531.3-3.343-1.187-4.921-1.033-1.551.151-3.038,1.968-4.628,1.968" transform="translate(0.359 0.359)" fill="#d35560"/>
        <path id="Trazado_1004717" data-name="Trazado 1004717" d="M14,58.32a44.32,44.32,0,1,1,44.32,44.32A44.32,44.32,0,0,1,14,58.32" transform="translate(-9.01 -9.011)" fill="#a2cbcf"/>
        <path id="Trazado_1021102" data-name="Trazado 1021102" d="M14,55.014A41.014,41.014,0,1,1,55.014,96.029,41.015,41.015,0,0,1,14,55.014" transform="translate(-5.706 -5.705)" fill="#952d36"/>
      </g>
    </g>
    <g id="Grupo_1180053" data-name="Grupo 1180053" transform="translate(-13413.503 -12658.826)">
      <rect id="Rectángulo_401104" data-name="Rectángulo 401104" width="53.625" height="54.271" transform="translate(0 0)" fill="none"/>
    </g>
    <g id="Grupo_1180499" data-name="Grupo 1180499" transform="translate(-13436.776 -12659.241)">
      <path id="Trazado_1022150" data-name="Trazado 1022150" d="M213.622,340.063q.5.033.984.033a10.091,10.091,0,0,0,6.573-2.019,3.632,3.632,0,0,0,1.3-2.565c.106-2.848-3.6-5.33-8.43-5.651a14.29,14.29,0,0,0-3.2.137.807.807,0,0,0,.256,1.594,12.69,12.69,0,0,1,2.84-.12,11.206,11.206,0,0,1,5.119,1.5,3.157,3.157,0,0,1,1.8,2.476,2.039,2.039,0,0,1-.768,1.426c-1.272,1.147-3.713,1.751-6.369,1.574a11.2,11.2,0,0,1-5.119-1.5,3.157,3.157,0,0,1-1.8-2.476,2.584,2.584,0,0,1,1.456-1.926.807.807,0,0,0-.824-1.388,4.063,4.063,0,0,0-2.246,3.254C205.085,337.261,208.788,339.743,213.622,340.063Z" transform="translate(-160.572 -294.332)" fill="#fff"/>
      <path id="Trazado_1022151" data-name="Trazado 1022151" d="M74.625,34.461a.808.808,0,0,0-.668-.169c-.607.119-1.222.226-1.836.321V31.465a.807.807,0,0,0-.962-.792,45.907,45.907,0,0,1-17.74,0,47.632,47.632,0,0,0-10.088-.886l2.313-4.007a3.919,3.919,0,0,0,.882.1,4.32,4.32,0,0,0,.63-.046,2.794,2.794,0,0,0,2.1-1.25l.223-.389a10.666,10.666,0,0,0,1.2,1.038,2.418,2.418,0,0,0,1.161,2.579l1.864,1.076a2.4,2.4,0,0,0,1.207.324,2.431,2.431,0,0,0,1.73-.724,6.582,6.582,0,0,0,1.014.08A5.193,5.193,0,0,0,59,28.4c1.968-.527,4.2-4.162,4.832-5.264s2.67-4.848,2.142-6.817a5.835,5.835,0,0,0-1.1-2.077,2.441,2.441,0,0,0,0-1.323,2.343,2.343,0,0,0-1.136-1.427L61.89,10.425a2.34,2.34,0,0,0-1.8-.27,2.43,2.43,0,0,0-1.019.549,17.143,17.143,0,0,0-3.224-.931,12.576,12.576,0,0,1-3.374-1.06,12.578,12.578,0,0,1-2.605-2.392,17.157,17.157,0,0,0-2.417-2.326,2.432,2.432,0,0,0-.036-1.158A2.343,2.343,0,0,0,46.275,1.41L44.427.343a2.343,2.343,0,0,0-1.8-.27,2.44,2.44,0,0,0-1.14.666A5.844,5.844,0,0,0,39.13.824c-1.968.527-4.2,4.162-4.832,5.264s-2.67,4.848-2.142,6.817a5.838,5.838,0,0,0,1.1,2.08,2.416,2.416,0,0,0,1.121,2.743L36.244,18.8a2.407,2.407,0,0,0,1.207.324,2.434,2.434,0,0,0,1.608-.607,10.668,10.668,0,0,0,1.5.519l-.224.39a2.793,2.793,0,0,0-.029,2.445,4.121,4.121,0,0,0,.8,1.284l-4.148,7.184q-.949.147-1.9.332a.807.807,0,0,0-.652.792v3.216c-1.539,2.118-7.8,10.752-8.613,12.166a4.036,4.036,0,1,0,6.99,4.036c.235-.408.779-1.531,1.623-3.352V49.8a.807.807,0,0,0,.962.792q.917-.18,1.836-.321v3.148a.807.807,0,0,0,.962.792,45.9,45.9,0,0,1,17.74,0,47.524,47.524,0,0,0,18.361,0,.807.807,0,0,0,.652-.792V35.084A.806.806,0,0,0,74.625,34.461Zm-7.982,15.2a5.689,5.689,0,0,1,3.864-4.137v3.6q-1.927.349-3.864.534Zm5.478-8.555a6.3,6.3,0,0,0,1.184.116v6.247a7.137,7.137,0,0,0-1.184.395Zm1.184-5.051v3.551a4.576,4.576,0,0,1-1.184-.157v-3.2C72.516,36.186,72.911,36.124,73.305,36.055Zm-2.8-.065a4.082,4.082,0,0,1-2.721-.972,3.579,3.579,0,0,1-1.165-2.064q1.947-.179,3.886-.518Zm-17.4-3.732A47.554,47.554,0,0,0,65,33.074a5.18,5.18,0,0,0,1.721,3.159A5.759,5.759,0,0,0,70.507,37.6v6.249a7.334,7.334,0,0,0-5.517,5.937A45.943,45.943,0,0,1,53.418,49a47.689,47.689,0,0,0-9.181-.9c-.9,0-1.81.029-2.714.08A5.181,5.181,0,0,0,39.8,45.028a5.761,5.761,0,0,0-3.783-1.368V37.41a7.335,7.335,0,0,0,5.517-5.938,45.939,45.939,0,0,1,11.571.785Zm9.322-9.928c-1.56,2.7-3.119,4.315-3.852,4.512a3.61,3.61,0,0,1-.959.112l6.409-11.1a3.6,3.6,0,0,1,.383.886C64.607,17.471,63.99,19.627,62.43,22.329Zm-1.946-10.61a.757.757,0,0,1,.185-.023.734.734,0,0,1,.388.112l.018.011,1.864,1.076.018.01a.73.73,0,0,1,.364.452.836.836,0,0,1-.086.64L55.616,27.192a.808.808,0,0,1-1.1.3L52.65,26.411a.807.807,0,0,1-.3-1.1l7.618-13.194h0a.837.837,0,0,1,.511-.394ZM51.662,10.11a12.153,12.153,0,0,0,3.387,1.14l-1.82,3.171a.807.807,0,1,0,1.4.8l2.066-3.6a11.99,11.99,0,0,1,1.441.439l-6.743,11.68a11.845,11.845,0,0,1-1.078-1L53.039,18a.807.807,0,1,0-1.4-.8L49.166,21.5a12.249,12.249,0,0,0-2.7-2.387,12.287,12.287,0,0,0-3.432-1.15l5.9-10.274a12.386,12.386,0,0,0,2.733,2.421Zm-14.611,7.3-1.864-1.076a.807.807,0,0,1-.3-1.1l2.065-3.577a.807.807,0,1,0-1.4-.807l-1.46,2.53a3.6,3.6,0,0,1-.383-.886c-.2-.733.421-2.889,1.981-5.592s3.119-4.315,3.852-4.511a3.605,3.605,0,0,1,.958-.111L37.124,8.131a.807.807,0,1,0,1.4.807L42.51,2.032a.837.837,0,0,1,.512-.395.73.73,0,0,1,.573.089l.018.011,1.864,1.076.018.01a.73.73,0,0,1,.363.452.836.836,0,0,1-.086.64L38.154,17.11a.808.808,0,0,1-1.1.3Zm2.938-.246L46.733,5.48a11.665,11.665,0,0,1,1.046.971L41.387,17.588A11.8,11.8,0,0,1,39.989,17.16Zm2.294,2.292a12.577,12.577,0,0,1,3.374,1.06A12.579,12.579,0,0,1,48.262,22.9l.061.066-.463.807a2.022,2.022,0,0,1-2.173.314l-3.145-1.816a2.022,2.022,0,0,1-.813-2.041l.461-.8.093.02Zm.151,4.625,1.747,1.009-2.758,4.776q-1.226.073-2.451.21ZM39.883,31.6a5.689,5.689,0,0,1-3.864,4.137v-3.6Q37.947,31.785,39.883,31.6Zm-8.5,18.475a2.421,2.421,0,1,1-4.194-2.421c.624-1.081,4.894-7.014,7.215-10.222v6.221c-2.089,4.6-2.8,6.033-3.021,6.422Zm4.635-4.8a4.082,4.082,0,0,1,2.721.972,3.579,3.579,0,0,1,1.165,2.065q-1.947.179-3.886.516Zm2.8,4.774q1.326-.158,2.655-.239a3.551,3.551,0,0,1,1.232,2.12q-1.947.179-3.887.518v-2.4Zm17.4,2.577a47.56,47.56,0,0,0-11.9-.817,5.3,5.3,0,0,0-.783-2.077,46.028,46.028,0,0,1,9.572.859,47.689,47.689,0,0,0,9.181.9,47.472,47.472,0,0,0,6.275-.418,6.468,6.468,0,0,0-.778,2.342,45.935,45.935,0,0,1-11.57-.784Zm13.227.656a5.357,5.357,0,0,1,1.373-2.569q.326-.059.652-.123a.807.807,0,0,0,.652-.792v-.123a5.8,5.8,0,0,1,1.184-.529v3.6Q71.379,53.1,69.444,53.279Z" transform="translate(0 0)" fill="#fff"/>
    </g>
  </g>
</svg>
