<svg xmlns="http://www.w3.org/2000/svg" xmlns:xlink="http://www.w3.org/1999/xlink" width="292" height="235.978" viewBox="0 0 292 235.978">
  <defs>
    <clipPath id="clip-path">
      <rect id="Rectángulo_457033" data-name="Rectángulo 457033" width="265.688" height="177.379" fill="none"/>
    </clipPath>
  </defs>
  <g id="Grupo_1180789" data-name="Grupo 1180789" transform="translate(-186 -7875)">
    <rect id="Rectángulo_456623" data-name="Rectángulo 456623" width="292" height="235.978" rx="10" transform="translate(186 7875)" fill="#eeadb6"/>
    <g id="Grupo_1180788" data-name="Grupo 1180788" transform="translate(197.156 7901.288)">
      <g id="Grupo_1180787" data-name="Grupo 1180787" clip-path="url(#clip-path)">
        <path id="Trazado_1023833" data-name="Trazado 1023833" d="M1025.245,19.868a.213.213,0,0,1-.213-.213V.677l-22.324,19.068a.213.213,0,0,1-.277-.325L1025.106.052a.213.213,0,0,1,.352.162V19.655a.213.213,0,0,1-.214.213" transform="translate(-905.199 -0.001)"/>
        <path id="Trazado_1023834" data-name="Trazado 1023834" d="M1259.908,19.868a.213.213,0,0,1-.214-.213V.677L1237.37,19.745a.213.213,0,0,1-.277-.325L1259.769.052a.213.213,0,0,1,.352.162V19.655a.213.213,0,0,1-.213.213" transform="translate(-1117.116 -0.001)"/>
        <path id="Trazado_1023835" data-name="Trazado 1023835" d="M1494.572,19.868a.213.213,0,0,1-.213-.213V.677l-22.324,19.068a.214.214,0,0,1-.277-.325L1494.433.052a.213.213,0,0,1,.352.162V19.655a.213.213,0,0,1-.213.213" transform="translate(-1329.035 -0.001)"/>
        <path id="Trazado_1023836" data-name="Trazado 1023836" d="M1729.235,19.868a.213.213,0,0,1-.213-.213V.677L1706.7,19.745a.214.214,0,0,1-.277-.325L1729.1.052a.214.214,0,0,1,.352.162V19.655a.213.213,0,0,1-.214.213" transform="translate(-1540.952 -0.001)"/>
        <path id="Trazado_1023837" data-name="Trazado 1023837" d="M86.59,19.868a.213.213,0,0,1-.213-.213V.677L64.052,19.745a.213.213,0,0,1-.277-.325L86.451.052A.213.213,0,0,1,86.8.214V19.655a.213.213,0,0,1-.213.213" transform="translate(-57.526 -0.001)"/>
        <path id="Trazado_1023838" data-name="Trazado 1023838" d="M321.254,19.868a.213.213,0,0,1-.213-.213V.677L298.716,19.745a.213.213,0,0,1-.277-.325L321.115.052a.214.214,0,0,1,.352.162V19.655a.213.213,0,0,1-.213.213" transform="translate(-269.444 -0.001)"/>
        <path id="Trazado_1023839" data-name="Trazado 1023839" d="M555.917,19.868a.213.213,0,0,1-.214-.213V.677L533.379,19.745a.213.213,0,0,1-.277-.325L555.778.052a.213.213,0,0,1,.352.162V19.655a.213.213,0,0,1-.213.213" transform="translate(-481.362 -0.001)"/>
        <path id="Trazado_1023840" data-name="Trazado 1023840" d="M790.581,19.868a.213.213,0,0,1-.213-.213V.677L768.043,19.745a.213.213,0,0,1-.277-.325L790.442.052a.213.213,0,0,1,.352.162V19.655a.213.213,0,0,1-.214.213" transform="translate(-693.28 -0.001)"/>
        <path id="Trazado_1023841" data-name="Trazado 1023841" d="M1963.9,19.868a.213.213,0,0,1-.214-.213V.677l-22.324,19.068a.214.214,0,0,1-.277-.325L1963.76.052a.213.213,0,0,1,.352.162V19.655a.213.213,0,0,1-.213.213" transform="translate(-1752.87 -0.001)"/>
        <path id="Trazado_1023842" data-name="Trazado 1023842" d="M2198.563,19.868a.214.214,0,0,1-.214-.213V.677l-22.323,19.068a.214.214,0,0,1-.277-.325L2198.425.052a.213.213,0,0,1,.352.162V19.655a.213.213,0,0,1-.213.213" transform="translate(-1964.79 -0.001)"/>
        <path id="Trazado_1023843" data-name="Trazado 1023843" d="M313.975,19.8H63.913a.213.213,0,1,1,0-.427H313.4L291.221.427H63.913a.213.213,0,1,1,0-.427H291.3a.214.214,0,0,1,.139.051l22.676,19.368a.214.214,0,0,1-.139.376" transform="translate(-57.526 0)"/>
        <path id="Trazado_1023844" data-name="Trazado 1023844" d="M2136.1,325.574v0Z" transform="translate(-1929.049 -282.987)" fill="#fff"/>
        <path id="Trazado_1023845" data-name="Trazado 1023845" d="M2134.108,323.8a.213.213,0,0,1-.213-.213V311.372a.213.213,0,1,1,.427,0v12.213a.213.213,0,0,1-.213.213" transform="translate(-1927.06 -280.999)"/>
        <path id="Trazado_1023846" data-name="Trazado 1023846" d="M2344.573,325.574v0Z" transform="translate(-2117.317 -282.987)" fill="#fff"/>
        <path id="Trazado_1023847" data-name="Trazado 1023847" d="M2342.584,323.8a.213.213,0,0,1-.213-.213V311.372a.213.213,0,1,1,.427,0v12.213a.213.213,0,0,1-.213.213" transform="translate(-2115.328 -280.999)"/>
        <path id="Trazado_1023848" data-name="Trazado 1023848" d="M2344.573,325.574l1.973-12.213Z" transform="translate(-2117.318 -282.987)" fill="#fff"/>
        <path id="Trazado_1023849" data-name="Trazado 1023849" d="M2342.584,323.8l-.034,0a.213.213,0,0,1-.176-.245l1.973-12.213a.213.213,0,1,1,.421.068l-1.973,12.213a.214.214,0,0,1-.21.179" transform="translate(-2115.328 -280.998)"/>
        <path id="Trazado_1023850" data-name="Trazado 1023850" d="M2117.715,325.574l-1.973-12.213Z" transform="translate(-1910.667 -282.987)" fill="#fff"/>
        <path id="Trazado_1023851" data-name="Trazado 1023851" d="M2115.727,323.8a.214.214,0,0,1-.21-.179l-1.973-12.213a.213.213,0,0,1,.421-.068l1.973,12.213a.213.213,0,0,1-.177.245l-.034,0" transform="translate(-1908.679 -280.998)"/>
        <rect id="Rectángulo_457023" data-name="Rectángulo 457023" width="2.368" height="4.541" transform="translate(205.865 41.499)" fill="#fff"/>
        <path id="Trazado_1023852" data-name="Trazado 1023852" d="M2124.264,430.905H2121.9a.213.213,0,0,1-.213-.213v-4.541a.213.213,0,0,1,.213-.213h2.368a.213.213,0,0,1,.213.213v4.541a.213.213,0,0,1-.213.213m-2.154-.427h1.941v-4.114h-1.941Z" transform="translate(-1916.032 -384.653)"/>
        <rect id="Rectángulo_457024" data-name="Rectángulo 457024" width="2.368" height="4.541" transform="translate(226.072 41.499)" fill="#fff"/>
        <path id="Trazado_1023853" data-name="Trazado 1023853" d="M2332.739,430.905h-2.367a.214.214,0,0,1-.214-.213v-4.541a.213.213,0,0,1,.214-.213h2.367a.213.213,0,0,1,.213.213v4.541a.213.213,0,0,1-.213.213m-2.154-.427h1.941v-4.114h-1.941Z" transform="translate(-2104.3 -384.653)"/>
        <rect id="Rectángulo_457025" data-name="Rectángulo 457025" width="15.505" height="8.555" transform="translate(209.399 13.711)" fill="#fff"/>
        <path id="Trazado_1023854" data-name="Trazado 1023854" d="M2173.87,148.234h-15.5a.213.213,0,0,1-.213-.213v-8.555a.213.213,0,0,1,.213-.213h15.5a.213.213,0,0,1,.213.213v8.555a.213.213,0,0,1-.213.213m-15.291-.427h15.078V139.68h-15.078Z" transform="translate(-1948.966 -125.755)"/>
        <rect id="Rectángulo_457026" data-name="Rectángulo 457026" width="9.871" height="2.06" transform="translate(212.217 21.513)" fill="#e2eaff"/>
        <rect id="Rectángulo_457027" data-name="Rectángulo 457027" width="24.972" height="7.748" transform="translate(204.666 24.603)" fill="#fff"/>
        <path id="Trazado_1023855" data-name="Trazado 1023855" d="M2134.5,259.8H2109.53a.213.213,0,0,1-.213-.213v-7.748a.213.213,0,0,1,.213-.213H2134.5a.214.214,0,0,1,.214.213v7.748a.214.214,0,0,1-.214.213m-24.759-.427h24.545v-7.322h-24.545Z" transform="translate(-1904.864 -227.238)"/>
        <path id="Trazado_1023856" data-name="Trazado 1023856" d="M2078.231,454.344h-28.2l-4.814,2.691v.685h37.824v-.685Z" transform="translate(-1846.981 -410.305)" fill="#fff"/>
        <path id="Trazado_1023857" data-name="Trazado 1023857" d="M2081.057,455.944h-37.824a.213.213,0,0,1-.213-.213v-.685a.213.213,0,0,1,.109-.186l4.814-2.692a.215.215,0,0,1,.1-.027h28.2a.214.214,0,0,1,.1.027l4.814,2.692a.213.213,0,0,1,.109.186v.685a.213.213,0,0,1-.213.213m-37.611-.427h37.4v-.346l-4.656-2.6H2048.1l-4.656,2.6Z" transform="translate(-1844.993 -408.316)"/>
        <rect id="Rectángulo_457028" data-name="Rectángulo 457028" width="73.883" height="27.038" transform="translate(180.21 48.918)" fill="#5479f7"/>
        <path id="Trazado_1023858" data-name="Trazado 1023858" d="M1918.936,567.473a.213.213,0,0,1-.213-.213V549.245a.214.214,0,1,1,.427,0v18.015a.213.213,0,0,1-.214.213" transform="translate(-1732.744 -495.814)"/>
        <path id="Trazado_1023859" data-name="Trazado 1023859" d="M1977.01,567.473a.213.213,0,0,1-.214-.213V549.245a.214.214,0,1,1,.427,0v18.015a.213.213,0,0,1-.213.213" transform="translate(-1785.188 -495.814)"/>
        <path id="Trazado_1023860" data-name="Trazado 1023860" d="M2035.085,567.473a.213.213,0,0,1-.213-.213V549.245a.214.214,0,1,1,.427,0v18.015a.213.213,0,0,1-.214.213" transform="translate(-1837.635 -495.814)"/>
        <path id="Trazado_1023861" data-name="Trazado 1023861" d="M2093.16,567.473a.213.213,0,0,1-.213-.213V549.245a.214.214,0,1,1,.427,0v18.015a.214.214,0,0,1-.214.213" transform="translate(-1890.08 -495.814)"/>
        <path id="Trazado_1023862" data-name="Trazado 1023862" d="M2151.233,567.473a.213.213,0,0,1-.213-.213V549.245a.213.213,0,1,1,.427,0v18.015a.213.213,0,0,1-.213.213" transform="translate(-1942.525 -495.814)"/>
        <path id="Trazado_1023863" data-name="Trazado 1023863" d="M2209.309,567.473a.213.213,0,0,1-.214-.213V549.245a.214.214,0,1,1,.427,0v18.015a.213.213,0,0,1-.213.213" transform="translate(-1994.971 -495.814)"/>
        <path id="Trazado_1023864" data-name="Trazado 1023864" d="M2267.385,567.473a.213.213,0,0,1-.213-.213V549.245a.213.213,0,1,1,.427,0v18.015a.213.213,0,0,1-.213.213" transform="translate(-2047.418 -495.814)"/>
        <path id="Trazado_1023865" data-name="Trazado 1023865" d="M2325.458,567.473a.213.213,0,0,1-.213-.213V549.245a.214.214,0,1,1,.427,0v18.015a.213.213,0,0,1-.214.213" transform="translate(-2099.863 -495.814)"/>
        <path id="Trazado_1023866" data-name="Trazado 1023866" d="M2383.533,567.473a.213.213,0,0,1-.213-.213V549.245a.213.213,0,1,1,.427,0v18.015a.213.213,0,0,1-.213.213" transform="translate(-2152.308 -495.814)"/>
        <path id="Trazado_1023867" data-name="Trazado 1023867" d="M2441.608,567.473a.213.213,0,0,1-.213-.213V549.245a.213.213,0,1,1,.427,0v18.015a.213.213,0,0,1-.213.213" transform="translate(-2204.755 -495.814)"/>
        <path id="Trazado_1023868" data-name="Trazado 1023868" d="M2499.683,567.473a.213.213,0,0,1-.214-.213V549.245a.214.214,0,0,1,.427,0v18.015a.214.214,0,0,1-.214.213" transform="translate(-2257.199 -495.814)"/>
        <path id="Trazado_1023869" data-name="Trazado 1023869" d="M2557.758,567.473a.213.213,0,0,1-.213-.213V549.245a.213.213,0,1,1,.427,0v18.015a.213.213,0,0,1-.213.213" transform="translate(-2309.646 -495.814)"/>
        <rect id="Rectángulo_457029" data-name="Rectángulo 457029" width="35.293" height="23.946" transform="translate(180.415 80.835)" fill="#fff"/>
        <path id="Trazado_1023870" data-name="Trazado 1023870" d="M1894.633,856.136H1859.34a.213.213,0,0,1-.213-.213V831.976a.213.213,0,0,1,.213-.213h35.293a.213.213,0,0,1,.214.213v23.946a.213.213,0,0,1-.214.213m-35.079-.427h34.866V832.19h-34.866Z" transform="translate(-1678.925 -751.142)"/>
        <path id="Trazado_1023871" data-name="Trazado 1023871" d="M1904.068,876.46a.213.213,0,0,1-.213-.213V857.188a.213.213,0,1,1,.427,0v19.059a.213.213,0,0,1-.213.213" transform="translate(-1719.318 -773.909)"/>
        <path id="Trazado_1023872" data-name="Trazado 1023872" d="M1959,876.46a.213.213,0,0,1-.213-.213V857.188a.214.214,0,1,1,.427,0v19.059a.213.213,0,0,1-.214.213" transform="translate(-1768.924 -773.909)"/>
        <path id="Trazado_1023873" data-name="Trazado 1023873" d="M2013.931,876.46a.213.213,0,0,1-.213-.213V857.188a.213.213,0,1,1,.427,0v19.059a.213.213,0,0,1-.213.213" transform="translate(-1818.531 -773.909)"/>
        <path id="Trazado_1023874" data-name="Trazado 1023874" d="M2068.861,876.46a.213.213,0,0,1-.213-.213V857.188a.213.213,0,1,1,.427,0v19.059a.213.213,0,0,1-.213.213" transform="translate(-1868.137 -773.909)"/>
        <path id="Trazado_1023875" data-name="Trazado 1023875" d="M2123.793,876.46a.213.213,0,0,1-.213-.213V857.188a.213.213,0,1,1,.427,0v19.059a.213.213,0,0,1-.213.213" transform="translate(-1917.744 -773.909)"/>
        <path id="Trazado_1023876" data-name="Trazado 1023876" d="M2178.724,876.46a.213.213,0,0,1-.213-.213V857.188a.214.214,0,1,1,.427,0v19.059a.213.213,0,0,1-.214.213" transform="translate(-1967.352 -773.909)"/>
        <rect id="Rectángulo_457030" data-name="Rectángulo 457030" width="35.293" height="23.946" transform="translate(218.801 80.835)" fill="#fff"/>
        <path id="Trazado_1023877" data-name="Trazado 1023877" d="M2290.65,856.136h-35.293a.213.213,0,0,1-.213-.213V831.976a.213.213,0,0,1,.213-.213h35.293a.213.213,0,0,1,.214.213v23.946a.213.213,0,0,1-.214.213m-35.08-.427h34.866V832.19h-34.866Z" transform="translate(-2036.557 -751.142)"/>
        <path id="Trazado_1023878" data-name="Trazado 1023878" d="M2300.086,876.46a.213.213,0,0,1-.213-.213V857.188a.213.213,0,1,1,.427,0v19.059a.213.213,0,0,1-.213.213" transform="translate(-2076.95 -773.909)"/>
        <path id="Trazado_1023879" data-name="Trazado 1023879" d="M2355.016,876.46a.213.213,0,0,1-.214-.213V857.188a.214.214,0,0,1,.427,0v19.059a.214.214,0,0,1-.214.213" transform="translate(-2126.556 -773.909)"/>
        <path id="Trazado_1023880" data-name="Trazado 1023880" d="M2409.947,876.46a.213.213,0,0,1-.213-.213V857.188a.213.213,0,1,1,.427,0v19.059a.213.213,0,0,1-.213.213" transform="translate(-2176.162 -773.909)"/>
        <path id="Trazado_1023881" data-name="Trazado 1023881" d="M2464.879,876.46a.213.213,0,0,1-.213-.213V857.188a.213.213,0,1,1,.427,0v19.059a.213.213,0,0,1-.213.213" transform="translate(-2225.77 -773.909)"/>
        <path id="Trazado_1023882" data-name="Trazado 1023882" d="M2519.809,876.46a.213.213,0,0,1-.214-.213V857.188a.214.214,0,1,1,.427,0v19.059a.214.214,0,0,1-.213.213" transform="translate(-2275.375 -773.909)"/>
        <path id="Trazado_1023883" data-name="Trazado 1023883" d="M2574.739,876.46a.213.213,0,0,1-.213-.213V857.188a.213.213,0,1,1,.427,0v19.059a.213.213,0,0,1-.213.213" transform="translate(-2324.981 -773.909)"/>
        <path id="Trazado_1023884" data-name="Trazado 1023884" d="M1444.726,563.244h-5.75l-2.352,16.025h10.455Z" transform="translate(-1297.374 -508.649)" fill="#fff"/>
        <path id="Trazado_1023885" data-name="Trazado 1023885" d="M1445.09,577.494h-10.455a.214.214,0,0,1-.211-.244l2.353-16.025a.213.213,0,0,1,.211-.182h5.75a.213.213,0,0,1,.211.182l2.352,16.025a.213.213,0,0,1-.211.244m-10.208-.427h9.961l-2.29-15.6h-5.382Z" transform="translate(-1295.385 -506.661)"/>
        <rect id="Rectángulo_457031" data-name="Rectángulo 457031" width="32.215" height="11.406" transform="translate(137.369 69.429)" fill="#fff"/>
        <path id="Trazado_1023886" data-name="Trazado 1023886" d="M1447.446,725.922h-32.215a.213.213,0,0,1-.214-.213V714.3a.213.213,0,0,1,.214-.214h32.215a.213.213,0,0,1,.213.214v11.406a.213.213,0,0,1-.213.213m-32-.427h31.788V714.516h-31.788Z" transform="translate(-1277.862 -644.874)"/>
        <rect id="Rectángulo_457032" data-name="Rectángulo 457032" width="44.279" height="24.702" transform="translate(131.337 77.55)" fill="#fff"/>
        <path id="Trazado_1023887" data-name="Trazado 1023887" d="M1397.279,823.006H1353a.213.213,0,0,1-.214-.213v-24.7a.214.214,0,0,1,.214-.214h44.279a.214.214,0,0,1,.214.214v24.7a.213.213,0,0,1-.214.213m-44.065-.427h43.852V798.3h-43.852Z" transform="translate(-1221.663 -720.54)"/>
        <path id="Trazado_1023888" data-name="Trazado 1023888" d="M1395.313,700.939h-36.368l-3.955-6.645h44.279Z" transform="translate(-1223.652 -626.997)" fill="#fff"/>
        <path id="Trazado_1023889" data-name="Trazado 1023889" d="M1393.324,699.164h-36.368a.214.214,0,0,1-.183-.1l-3.955-6.645a.213.213,0,0,1,.183-.323h44.279a.213.213,0,0,1,.183.323l-3.955,6.645a.213.213,0,0,1-.183.1m-36.247-.427H1393.2l3.7-6.218h-43.528Z" transform="translate(-1221.664 -625.009)"/>
        <path id="Trazado_1023890" data-name="Trazado 1023890" d="M1345.513,968.993h-50.885v5.689h-98.9l7.76,15.019h126.1Z" transform="translate(-1079.825 -875.07)" fill="#5479f7"/>
        <path id="Trazado_1023891" data-name="Trazado 1023891" d="M1644.481,269.873a.214.214,0,0,1-.214-.213V227.724a.214.214,0,0,1,.427,0V269.66a.214.214,0,0,1-.214.213" transform="translate(-1484.892 -205.459)"/>
        <path id="Trazado_1023892" data-name="Trazado 1023892" d="M1751.443,269.873a.213.213,0,0,1-.213-.213V227.724a.213.213,0,1,1,.427,0V269.66a.213.213,0,0,1-.213.213" transform="translate(-1581.486 -205.459)"/>
        <path id="Trazado_1023893" data-name="Trazado 1023893" d="M1644.842,254.207a.213.213,0,0,1-.169-.343l10.333-13.538a.213.213,0,1,1,.339.259l-10.333,13.538a.214.214,0,0,1-.17.084" transform="translate(-1485.217 -216.956)"/>
        <path id="Trazado_1023894" data-name="Trazado 1023894" d="M1655.174,254.207a.213.213,0,0,1-.17-.084l-10.333-13.538a.213.213,0,1,1,.339-.259l10.333,13.538a.213.213,0,0,1-.17.343" transform="translate(-1485.217 -216.956)"/>
        <path id="Trazado_1023895" data-name="Trazado 1023895" d="M1655.174,394.388a.213.213,0,0,1-.17-.084l-5-6.546-5,6.546a.213.213,0,1,1-.339-.259l5.068-6.639-5.068-6.639a.213.213,0,0,1,.17-.343h10.333a.213.213,0,0,1,.17.343l-5.068,6.639,5.068,6.639a.213.213,0,0,1-.17.343m-9.9-13.537,4.735,6.2,4.735-6.2Z" transform="translate(-1485.217 -343.55)"/>
        <path id="Trazado_1023896" data-name="Trazado 1023896" d="M1655.174,534.052a.213.213,0,0,1-.17-.084l-5-6.546-5,6.546a.213.213,0,1,1-.339-.259l5.068-6.64-5.068-6.639a.213.213,0,0,1,.17-.343h10.333a.213.213,0,0,1,.17.343l-5.068,6.639,5.068,6.64a.213.213,0,0,1-.17.343m-9.9-13.538,4.735,6.2,4.735-6.2Z" transform="translate(-1485.217 -469.677)"/>
        <path id="Trazado_1023897" data-name="Trazado 1023897" d="M295.13,269.873a.213.213,0,0,1-.213-.213V227.724a.213.213,0,0,1,.427,0V269.66a.213.213,0,0,1-.213.213" transform="translate(-266.331 -205.459)"/>
        <path id="Trazado_1023898" data-name="Trazado 1023898" d="M402.093,269.873a.213.213,0,0,1-.213-.213V227.724a.213.213,0,1,1,.427,0V269.66a.213.213,0,0,1-.213.213" transform="translate(-362.926 -205.459)"/>
        <path id="Trazado_1023899" data-name="Trazado 1023899" d="M295.49,254.207a.213.213,0,0,1-.17-.343l10.333-13.538a.213.213,0,1,1,.339.259L295.66,254.123a.213.213,0,0,1-.17.084" transform="translate(-266.656 -216.956)"/>
        <path id="Trazado_1023900" data-name="Trazado 1023900" d="M305.824,254.207a.213.213,0,0,1-.17-.084l-10.333-13.538a.213.213,0,1,1,.339-.259l10.333,13.538a.213.213,0,0,1-.169.343" transform="translate(-266.657 -216.956)"/>
        <path id="Trazado_1023901" data-name="Trazado 1023901" d="M305.824,394.388a.213.213,0,0,1-.17-.084l-5-6.546-5,6.546a.213.213,0,1,1-.339-.259l5.068-6.639-5.068-6.639a.213.213,0,0,1,.17-.343h10.333a.213.213,0,0,1,.17.343l-5.068,6.639,5.068,6.639a.213.213,0,0,1-.169.343m-9.9-13.537,4.735,6.2,4.735-6.2Z" transform="translate(-266.657 -343.55)"/>
        <path id="Trazado_1023902" data-name="Trazado 1023902" d="M305.824,534.052a.213.213,0,0,1-.17-.084l-5-6.546-5,6.546a.213.213,0,1,1-.339-.259l5.068-6.64-5.068-6.639a.213.213,0,0,1,.17-.343h10.333a.213.213,0,0,1,.17.343l-5.068,6.639,5.068,6.64a.213.213,0,0,1-.169.343m-9.9-13.538,4.735,6.2,4.735-6.2Z" transform="translate(-266.657 -469.677)"/>
        <path id="Trazado_1023903" data-name="Trazado 1023903" d="M63.913,778.61a.213.213,0,0,1-.213-.213V692.682a.213.213,0,0,1,.213-.213H148.47a.213.213,0,0,1,0,.427H64.127v85.5a.213.213,0,0,1-.213.213" transform="translate(-57.526 -625.349)"/>
        <path id="Trazado_1023904" data-name="Trazado 1023904" d="M871.685,994.452c-4.592-2.395-7.5-7.09-9.694-11.78a83.053,83.053,0,0,1-7.637-35.417c.019-6.038.769-12.39,4.3-17.289,3.819-5.3,7.335-8.4,16.807-9.029,2.626-.173,32.722,1.38,38.285,4.782,2.78,1.7,4.419,4.779,6.131,7.552a133.518,133.518,0,0,1,12.472,27.087c1.139,3.335,2.192,6.82,1.829,10.325-.411,3.965-1.146,7.75-4.073,10.457-.947.876-2.633,2.319-2.633,2.319l4.9,25.334-63.182.028s6.16-12.459,2.5-14.368" transform="translate(-771.541 -831.66)" fill="#fff"/>
        <path id="Trazado_1023905" data-name="Trazado 1023905" d="M867.2,1007.034a.214.214,0,0,1-.191-.308c1.687-3.413,5.443-12.6,2.591-14.085-4.951-2.582-7.832-7.7-9.789-11.879a83.5,83.5,0,0,1-7.658-35.508c.017-5.327.525-12.12,4.338-17.414,4.011-5.569,7.737-8.509,16.966-9.117,2.86-.188,32.86,1.419,38.41,4.813a.213.213,0,0,1-.223.364c-5.491-3.358-35.31-4.94-38.159-4.751-9.114.6-12.63,3.362-16.648,8.941-3.742,5.2-4.241,11.9-4.258,17.165a83.067,83.067,0,0,0,7.617,35.325c1.928,4.114,4.762,9.159,9.6,11.682,3.515,1.833-1.3,12.353-2.257,14.344l62.583-.028L925.27,981.5a.214.214,0,0,1,.071-.2c.017-.014,1.694-1.45,2.627-2.313,3-2.771,3.639-6.781,4.005-10.322.36-3.475-.7-6.961-1.819-10.234a152.6,152.6,0,0,0-5.759-14.5.213.213,0,0,1,.388-.179,153.1,153.1,0,0,1,5.775,14.545c1.133,3.318,2.208,6.855,1.84,10.416-.374,3.618-1.034,7.719-4.14,10.592-.811.75-2.176,1.926-2.545,2.243l4.876,25.212a.213.213,0,0,1-.209.254Z" transform="translate(-769.553 -829.66)"/>
        <path id="Trazado_1023906" data-name="Trazado 1023906" d="M1092.2,1192.088a.214.214,0,0,1-.2-.149l-5.081-15.953a.213.213,0,1,1,.407-.13l5.08,15.953a.213.213,0,0,1-.2.278" transform="translate(-981.554 -1061.749)"/>
        <path id="Trazado_1023907" data-name="Trazado 1023907" d="M1519.328,1332.529a6.234,6.234,0,0,0,1.986,4.857c1.835,1.429,4.465,1.024,6.7.381,10.608-3.052,20.175-8.936,25.676-18.509.227-.4,2.245-5.235,1.419-6.327-.778-1.028-2.708.924-3.969,1.189a133.674,133.674,0,0,0-16.13,4.458q-4.068,1.4-8.041,3.067c-2.023.848-3.745,1.076-5.1,2.911a13.055,13.055,0,0,0-2.544,7.973" transform="translate(-1372.059 -1185.403)" fill="#fff"/>
        <path id="Trazado_1023908" data-name="Trazado 1023908" d="M1522.513,1336.592a5.269,5.269,0,0,1-3.318-1.014c-1.727-1.346-2.037-3.723-2.068-5.02a13.208,13.208,0,0,1,2.586-8.1,7.183,7.183,0,0,1,3.868-2.478c.425-.154.865-.313,1.318-.5,2.632-1.1,5.342-2.136,8.054-3.072a134.377,134.377,0,0,1,16.155-4.465,5.889,5.889,0,0,0,1.473-.7c.984-.571,2.1-1.217,2.71-.41.932,1.231-1.232,6.262-1.4,6.562-5.037,8.766-13.959,15.2-25.8,18.607a13.23,13.23,0,0,1-3.572.6m-4.959-6.044c.03,1.222.316,3.456,1.9,4.693,1.863,1.452,4.607.892,6.509.344,11.734-3.375,20.569-9.741,25.55-18.41.325-.565,2.133-5.169,1.434-6.092-.357-.472-1.085-.1-2.156.521a6.141,6.141,0,0,1-1.6.748,133.942,133.942,0,0,0-16.1,4.451c-2.7.933-5.4,1.963-8.028,3.062-.464.194-.908.355-1.338.511a6.85,6.85,0,0,0-3.669,2.33,12.783,12.783,0,0,0-2.5,7.841" transform="translate(-1370.071 -1183.427)"/>
        <path id="Trazado_1023909" data-name="Trazado 1023909" d="M1560.513,1129.786h-24.959a1.355,1.355,0,0,0-1.065.518l-21.06,28.771a1.356,1.356,0,0,0,1.065,2.193h24.284a1.354,1.354,0,0,0,1.048-.5L1561.561,1132a1.356,1.356,0,0,0-1.048-2.215" transform="translate(-1366.471 -1020.278)"/>
        <path id="Trazado_1023910" data-name="Trazado 1023910" d="M1724.213,1243.711c-.235-.215-.568-.426-.849-.275-.244.131-.289.456-.3.733q-.233,4.063-.466,8.127a10.232,10.232,0,0,0-2.165-6.775c-.386-.454-1.068-.882-1.525-.5a1.2,1.2,0,0,0-.28,1c.135,3.041,1.351,6.184.282,9.034a20.765,20.765,0,0,0-1.277-5.3,3.874,3.874,0,0,0-1.21-1.845,1.516,1.516,0,0,0-2.02.133c-.483.628-.184,1.524.081,2.271a17.12,17.12,0,0,1,.953,6.778c-.3-1.791-.663-3.723-2-4.952a2.433,2.433,0,0,0-1.4-.694,1.356,1.356,0,0,0-1.334.686,2.416,2.416,0,0,0,.125,1.708,11.8,11.8,0,0,1,0,6.67c-.474,1.621-2.505,3.8-.356,5.071a3.844,3.844,0,0,0,2.495.347,13.437,13.437,0,0,0,6.345-3.321,26.043,26.043,0,0,0,5.118-5.321,13.062,13.062,0,0,0,2.424-6.895,8.767,8.767,0,0,0-2.637-6.683" transform="translate(-1543.801 -1122.866)" fill="#fff"/>
        <path id="Trazado_1023911" data-name="Trazado 1023911" d="M1310.4,680.628a4.158,4.158,0,0,0-4.5-1.514A2.946,2.946,0,0,0,1302,674.7l1.2-1.008a12.219,12.219,0,0,0-5.927,11.3,5.679,5.679,0,0,0,1.645,3.9,5.862,5.862,0,0,0,3.74,1.169,10.371,10.371,0,0,0,4.923-.992,6.881,6.881,0,0,0,3.391-3.615,5.171,5.171,0,0,0-.579-4.83" transform="translate(-1171.5 -608.393)"/>
        <path id="Trazado_1023912" data-name="Trazado 1023912" d="M1185.331,740.439l-3.708,18.336s5.221,4.275,1.914,6.143c-5.735,3.24-16.088-2.895-15.716-7.22l5.1-17.87Z" transform="translate(-1054.618 -668.119)" fill="#fff"/>
        <path id="Trazado_1023913" data-name="Trazado 1023913" d="M1177.783,764.045a15.358,15.358,0,0,1-7.9-2.518c-2.786-1.79-4.419-4.028-4.263-5.839a.228.228,0,0,1,.007-.04l5.1-17.87a.209.209,0,0,1,.216-.155l12.408.61a.214.214,0,0,1,.2.255l-3.683,18.212c.555.474,3.149,2.8,2.983,4.735a2.113,2.113,0,0,1-1.2,1.676,7.813,7.813,0,0,1-3.874.933m-11.735-8.3c-.128,1.65,1.429,3.725,4.071,5.423,3.286,2.112,8.064,3.417,11.329,1.572a1.69,1.69,0,0,0,.983-1.341c.164-1.9-2.9-4.427-2.927-4.452a.213.213,0,0,1-.074-.207l3.659-18.093-11.991-.589Z" transform="translate(-1052.632 -666.127)"/>
        <path id="Trazado_1023914" data-name="Trazado 1023914" d="M1146.233,659.663s-3.367,17.168,3.858,19.256,14.04-3.573,15.045-11.542v-8.452Z" transform="translate(-1034.423 -595.056)" fill="#fff"/>
        <path id="Trazado_1023915" data-name="Trazado 1023915" d="M1150.965,677.578a11.1,11.1,0,0,1-3.086-.442c-7.328-2.118-4.147-18.794-4.008-19.5a.213.213,0,0,1,.2-.172l18.9-.738a.209.209,0,0,1,.156.059.213.213,0,0,1,.066.154v8.452a.215.215,0,0,1,0,.027,14.318,14.318,0,0,1-6.118,10.295,11.065,11.065,0,0,1-6.112,1.868m-6.706-19.7c-.318,1.764-2.844,16.943,3.739,18.845a10.542,10.542,0,0,0,8.845-1.372,14.079,14.079,0,0,0,5.928-9.979v-8.216Z" transform="translate(-1032.271 -593.068)"/>
        <path id="Trazado_1023916" data-name="Trazado 1023916" d="M1136.472,548.1s.978-13.387,10.73-14.292,12.635,6.619,11.995,14.292Z" transform="translate(-1026.316 -482.002)" fill="#5479f7"/>
        <path id="Trazado_1023917" data-name="Trazado 1023917" d="M1217.7,552.523l-.027,0a.214.214,0,0,1-.185-.235,21.592,21.592,0,0,1,6-12.694.213.213,0,0,1,.305.3,21.168,21.168,0,0,0-5.828,12.023.216.216,0,0,1,0,.073l-.053.354a.214.214,0,0,1-.211.182" transform="translate(-1099.477 -487.233)"/>
        <path id="Trazado_1023918" data-name="Trazado 1023918" d="M1088.678,661.394l.589-.866,4.374-1.6,22.395,2.232Z" transform="translate(-983.154 -595.056)" fill="#5479f7"/>
        <path id="Trazado_1023919" data-name="Trazado 1023919" d="M1310.42,672.648a3.942,3.942,0,0,0-1.652-2.249,3.243,3.243,0,0,0-3.866.934,5.021,5.021,0,0,0-1.044,2.258l.031-.353a3.652,3.652,0,1,0,6.46,3.41,5.154,5.154,0,0,0,.071-4" transform="translate(-1177.118 -605.137)" fill="#fff"/>
        <path id="Trazado_1023920" data-name="Trazado 1023920" d="M1308.964,676.867a.213.213,0,0,1-.009-.427,3.491,3.491,0,0,0,2.915-1.862,5.027,5.027,0,0,0,.059-3.833,3.674,3.674,0,0,0-1.554-2.132,3.043,3.043,0,0,0-3.6.886,4.8,4.8,0,0,0-1,2.163.213.213,0,1,1-.418-.087,5.22,5.22,0,0,1,1.09-2.352,3.48,3.48,0,0,1,4.132-.983,4.077,4.077,0,0,1,1.75,2.366,5.313,5.313,0,0,1-.083,4.168,3.925,3.925,0,0,1-3.278,2.093h-.009" transform="translate(-1178.83 -603.166)"/>
        <path id="Trazado_1023921" data-name="Trazado 1023921" d="M1313.23,717.083h-.024a.213.213,0,0,1-.188-.236,3.472,3.472,0,0,1,2.1-2.767.213.213,0,1,1,.159.4,3.036,3.036,0,0,0-1.838,2.418.213.213,0,0,1-.212.19" transform="translate(-1185.748 -644.851)"/>
        <path id="Trazado_1023922" data-name="Trazado 1023922" d="M1162.655,554.881a.2.2,0,0,1-.035,0,.213.213,0,0,1-.176-.245,22.125,22.125,0,0,1,5.472-11.248.214.214,0,0,1,.315.289,21.689,21.689,0,0,0-5.365,11.029.214.214,0,0,1-.21.179" transform="translate(-1049.768 -490.653)"/>
        <path id="Trazado_1023923" data-name="Trazado 1023923" d="M1267.529,904.8a23.005,23.005,0,0,0,6.865,6.617,34.669,34.669,0,0,0,9.1,4.021c.645.186,1.3.354,1.951.51,3.048-7.7,5.53-15.837,5.53-15.837,2.819-1.687,3.326-2.752,3.326-2.752,2.774-5.078-.4-5.724-.4-5.724,1.118-5.468-3.353-4.24-3.353-4.24.777-4.482-3.614-4.855-3.614-4.855,4.7-5.587,5.978-11.174,3.113-10.864-2.209.238-12.15,10.727-16.58,15.5a21.651,21.651,0,0,0-3.5,5.062l-4.378,8.788a19.662,19.662,0,0,0,1.939,3.773" transform="translate(-1142.919 -787.175)" fill="#fff"/>
        <path id="Trazado_1023924" data-name="Trazado 1023924" d="M1366.814,1007.219a13.9,13.9,0,0,1-1.789-.116.213.213,0,1,1,.055-.423,13.512,13.512,0,0,0,6.857-.9c.822-.342,2.22-1.1,2.331-2.345a2.367,2.367,0,0,0-1.376-2.16,5.856,5.856,0,0,0-2.8-.475,19.579,19.579,0,0,0-8.209,2,.213.213,0,1,1-.189-.383,20.008,20.008,0,0,1,8.389-2.047,6.23,6.23,0,0,1,3,.523,2.783,2.783,0,0,1,1.605,2.577c-.124,1.395-1.479,2.239-2.594,2.7a13.939,13.939,0,0,1-5.286,1.041" transform="translate(-1229.603 -903.408)"/>
        <path id="Trazado_1023925" data-name="Trazado 1023925" d="M1422.232,1047.715a1.782,1.782,0,0,1-1.325-.591,2.3,2.3,0,0,1-.369-1.559,7.564,7.564,0,0,1,1.917-4.6.213.213,0,1,1,.317.285,7.135,7.135,0,0,0-1.808,4.339,1.917,1.917,0,0,0,.269,1.262,1.355,1.355,0,0,0,1.134.432,3.425,3.425,0,0,0,1.312-.413,12.205,12.205,0,0,0,6.5-8.461.213.213,0,1,1,.418.087,12.625,12.625,0,0,1-6.723,8.751,3.835,3.835,0,0,1-1.467.461,1.694,1.694,0,0,1-.179.009" transform="translate(-1282.841 -937.602)"/>
        <path id="Trazado_1023926" data-name="Trazado 1023926" d="M1461.394,1086.792a3.011,3.011,0,0,1-.474-.037,2.493,2.493,0,0,1-1.6-.991,1.826,1.826,0,0,1-.346-1.373.213.213,0,0,1,.421.072,1.4,1.4,0,0,0,.273,1.052,2.089,2.089,0,0,0,1.324.819,4.055,4.055,0,0,0,2.748-.784,10.721,10.721,0,0,0,4.366-5.477.213.213,0,1,1,.4.142,11.152,11.152,0,0,1-4.542,5.7,4.91,4.91,0,0,1-2.568.881" transform="translate(-1317.533 -975.254)"/>
        <path id="Trazado_1023927" data-name="Trazado 1023927" d="M1294.735,897.652a2,2,0,0,1-1.289-.412,1.819,1.819,0,0,1-.423-2.01.213.213,0,0,1,.376.2,1.4,1.4,0,0,0,.313,1.475,1.945,1.945,0,0,0,1.557.275c1.628-.25,5.527-3.143,5.341-6.58a1.6,1.6,0,0,0-1.3-1.7.213.213,0,0,1-.172-.209c0-.208.008-.424.016-.646a4.611,4.611,0,0,0-.4-2.607,2.272,2.272,0,0,0-2.735-.831.213.213,0,0,1-.308-.226,4.008,4.008,0,0,0-.672-3.13,3.928,3.928,0,0,0-2.764-1.486.213.213,0,0,1-.146-.342,33.675,33.675,0,0,0,4.068-6.412c.748-2.249.64-3.611-.33-4.165-.314-.157-.66.015-1.061.215a33.474,33.474,0,0,0-5.406,4.471c-.559.533-1.137,1.084-1.719,1.613-1.172,1.256-2.375,2.475-3.538,3.655-1.739,1.763-3.538,3.586-5.3,5.6-2.538,3.045-4.1,6.471-5.753,10.1-.377.826-.766,1.68-1.164,2.519a.214.214,0,0,1-.386-.183c.4-.836.785-1.689,1.161-2.513a43.779,43.779,0,0,1,5.817-10.2c1.778-2.031,3.581-3.859,5.325-5.626,1.162-1.177,2.363-2.395,3.543-3.659.591-.538,1.167-1.087,1.724-1.618a33.753,33.753,0,0,1,5.49-4.533l.02-.011a1.579,1.579,0,0,1,1.452-.209c1.758,1,.834,3.776.53,4.687a.211.211,0,0,1-.008.021,33.033,33.033,0,0,1-3.9,6.217,4.275,4.275,0,0,1,2.692,1.6,4.349,4.349,0,0,1,.8,3.087,2.8,2.8,0,0,1,2.92,1.109l.012.018a4.987,4.987,0,0,1,.469,2.853c-.006.157-.012.311-.015.462a2.041,2.041,0,0,1,1.473,2.055c.2,3.733-3.913,6.751-5.7,7.025a4.161,4.161,0,0,1-.6.048" transform="translate(-1148.264 -784.192)"/>
        <path id="Trazado_1023928" data-name="Trazado 1023928" d="M1470.944,1177.748a.211.211,0,0,1-.078-.015.214.214,0,0,1-.12-.277c.5-1.262,1.07-2.635,1.675-4.089,1.409-3.383,2.867-6.881,3.745-9.811a.213.213,0,0,1,.409.123c-.885,2.951-2.347,6.459-3.76,9.852-.6,1.452-1.176,2.823-1.672,4.082a.214.214,0,0,1-.2.135" transform="translate(-1328.176 -1050.638)"/>
        <path id="Trazado_1023929" data-name="Trazado 1023929" d="M31.06,921.9a413.663,413.663,0,0,1,47.094-12.785,19.113,19.113,0,0,1,19.674,7.966l18.963,27.825,6.544-13.145s5.534,11.525,21.953,11.565c0,0-5.513,15.392-11.941,29.167a17.547,17.547,0,0,1-25.678,7.2A53.444,53.444,0,0,1,89.308,959.02L79.5,997.976H15.161A15.15,15.15,0,0,1,1.007,977.429l16.009-42.012A22.848,22.848,0,0,1,31.06,921.9" transform="translate(0 -820.638)" fill="#5479f7"/>
        <path id="Trazado_1023930" data-name="Trazado 1023930" d="M409.46,1302.6a.209.209,0,0,1-.079-.015.213.213,0,0,1-.119-.277l6.949-17.327a.213.213,0,0,1,.4.159l-6.949,17.327a.213.213,0,0,1-.2.134" transform="translate(-369.579 -1160.305)"/>
        <path id="Trazado_1023931" data-name="Trazado 1023931" d="M1139.5,1291.534a.214.214,0,0,1-.187-.316L1145.46,1280a.213.213,0,1,1,.374.205l-6.147,11.223a.213.213,0,0,1-.187.111" transform="translate(-1028.857 -1155.827)"/>
        <path id="Trazado_1023932" data-name="Trazado 1023932" d="M664.441,1233.912h-61.27l20.818-52.88h61.27Z" transform="translate(-544.707 -1066.556)" fill="#e2eaff"/>
        <path id="Trazado_1023933" data-name="Trazado 1023933" d="M712.093,1263.647h-52.9a.32.32,0,0,1-.3-.437l17.751-45.089a.32.32,0,0,1,.3-.2h52.9a.32.32,0,0,1,.3.437l-17.751,45.089a.32.32,0,0,1-.3.2m-52.428-.64h52.211l17.5-44.449H677.163Z" transform="translate(-595.011 -1099.867)" fill="#fff"/>
        <path id="Trazado_1023934" data-name="Trazado 1023934" d="M511.666,1353.6s3.8-.861,3.819-1.879-4.659-2.757-17.79-1.1c-5.282.666-12.053,3.7-17.507,6.653,0,.06,0,.12.005.18.039,1.063.09,2.124.2,3.183a16.942,16.942,0,0,0,1.44,5.511,21.616,21.616,0,0,0,6.69,8.176c.59.435,1.189.857,1.778,1.292,3.332-2.726,6.467-5.426,9.06-7.891,0,0,14.7-1.446,14.7-3.289s-6.72-2.395-6.72-2.395,11.3.792,11.31-1.08-8.746-3.332-8.746-3.332,8.634.029,9.164-1.67-7.4-2.358-7.4-2.358" transform="translate(-433.644 -1219.089)" fill="#fff"/>
        <path id="Trazado_1023935" data-name="Trazado 1023935" d="M221.312,1442.26a.213.213,0,0,1-.126-.386,249.606,249.606,0,0,1,24.7-15.595.213.213,0,1,1,.2.376,249.191,249.191,0,0,0-24.653,15.564.213.213,0,0,1-.125.041" transform="translate(-199.668 -1288.009)"/>
        <path id="Trazado_1023936" data-name="Trazado 1023936" d="M202.955,1633.6a.213.213,0,0,1-.024-.426,42.863,42.863,0,0,0,20.6-8.085c6.126-4.519,11.536-8.694,16.079-12.411a.213.213,0,0,1,.27.331c-4.549,3.722-9.964,7.9-16.1,12.424a43.294,43.294,0,0,1-20.809,8.166h-.024" transform="translate(-183.09 -1456.323)"/>
        <path id="Trazado_1023937" data-name="Trazado 1023937" d="M724.582,1426.038a.213.213,0,0,1-.025-.425,38.275,38.275,0,0,1,5.275-.278.213.213,0,1,1-.02.426,37.852,37.852,0,0,0-5.205.275h-.025" transform="translate(-654.157 -1287.166)"/>
        <path id="Trazado_1023938" data-name="Trazado 1023938" d="M715.869,1474.125a.213.213,0,0,1-.025-.425,33.979,33.979,0,0,1,4.716-.248.213.213,0,1,1-.02.426,33.881,33.881,0,0,0-4.647.246l-.025,0" transform="translate(-646.288 -1330.62)"/>
        <path id="Trazado_1023939" data-name="Trazado 1023939" d="M724.581,1385.346a.213.213,0,0,1-.021-.426,58.776,58.776,0,0,1,7.149-.285.213.213,0,0,1,0,.427h0a57.977,57.977,0,0,0-7.1.283h-.022" transform="translate(-654.156 -1250.413)"/>
        <path id="Trazado_1023940" data-name="Trazado 1023940" d="M460.705,1042.416a.214.214,0,0,1-.2-.288,73.331,73.331,0,0,0,3.951-15.683c.525-3.834.918-8.825-.722-13.433s-5.334-8.046-9.4-8.733a.213.213,0,0,1,.071-.421c4.218.712,8.038,4.249,9.733,9.011,1.671,4.695,1.275,9.753.743,13.634a73.759,73.759,0,0,1-3.974,15.774.213.213,0,0,1-.2.139" transform="translate(-410.133 -906.554)"/>
        <path id="Trazado_1023941" data-name="Trazado 1023941" d="M786.854,940.146a.213.213,0,0,1-.209-.259,51.934,51.934,0,0,0,1.479-9.835,17.21,17.21,0,0,0-2.274-9.472,10.34,10.34,0,0,0-7.956-5.044.213.213,0,0,1-.2-.224.216.216,0,0,1,.224-.2,10.772,10.772,0,0,1,8.3,5.244,17.633,17.633,0,0,1,2.339,9.707,52.284,52.284,0,0,1-1.488,9.917.214.214,0,0,1-.208.168" transform="translate(-702.311 -826.41)"/>
        <path id="Trazado_1023942" data-name="Trazado 1023942" d="M567.633,1138.573a.213.213,0,0,1-.075-.413L597.15,1127.1a.213.213,0,1,1,.149.4l-29.592,11.058a.214.214,0,0,1-.075.014" transform="translate(-512.421 -1017.841)"/>
        <path id="Trazado_1023943" data-name="Trazado 1023943" d="M563.3,744.286l-7.7,22.144s2.124,4.536,13.492,8.8,7.513-7.224,3.251-9.833l2.59-10.915Z" transform="translate(-501.75 -672.144)" fill="#fff"/>
        <path id="Trazado_1023944" data-name="Trazado 1023944" d="M553.615,764.656a.213.213,0,0,1-.2-.283l7.7-22.144a.213.213,0,0,1,.342-.091l11.635,10.194a.213.213,0,0,1,.067.21l-1.847,7.783a.213.213,0,0,1-.415-.1l1.817-7.658-11.3-9.9-7.594,21.845a.213.213,0,0,1-.2.143" transform="translate(-499.762 -670.155)"/>
        <path id="Trazado_1023945" data-name="Trazado 1023945" d="M550.708,515.559s-5.166-8-4.026-10.107,2.4-2.39,2.4-2.39,9.354-16.283,14.06-9.594a15.645,15.645,0,0,1,6.177,5.646s3.9,4.416,1.579,6.933.524,8.285,2.31,8.993c0,0,5.153,11.937-.04,15.26s-15.4,3.89-18.179-9.069Z" transform="translate(-493.544 -444.18)"/>
        <path id="Trazado_1023946" data-name="Trazado 1023946" d="M562.17,717.336l1.019,4.908s-5.063,1.48-7.06-2.51c-1.831-3.66,1.435-7.048,4.9-4.271a3.244,3.244,0,0,1,1.14,1.873" transform="translate(-501.75 -645.193)" fill="#fff"/>
        <path id="Trazado_1023947" data-name="Trazado 1023947" d="M559.164,720.749a5.39,5.39,0,0,1-5.143-2.887,3.99,3.99,0,0,1,.676-4.946c.971-.784,2.675-1.088,4.548.413a3.462,3.462,0,0,1,1.216,2l1.019,4.908a.213.213,0,0,1-.149.248,8.69,8.69,0,0,1-2.167.268m-2.611-8.056a2.483,2.483,0,0,0-1.588.555,3.549,3.549,0,0,0-.563,4.424c1.68,3.358,5.7,2.659,6.618,2.448l-.978-4.707a3.034,3.034,0,0,0-1.065-1.75,3.958,3.958,0,0,0-2.425-.969" transform="translate(-499.832 -643.226)"/>
        <path id="Trazado_1023948" data-name="Trazado 1023948" d="M586.682,758.417a.214.214,0,0,1-.183-.1,3.687,3.687,0,0,0-3.072-1.752.213.213,0,0,1,0-.427h0a4.122,4.122,0,0,1,3.435,1.959.213.213,0,0,1-.183.323" transform="translate(-526.685 -682.844)"/>
        <path id="Trazado_1023949" data-name="Trazado 1023949" d="M686.348,619.851s-7.358.925-10.193,2.909a4.232,4.232,0,0,0-1.642,4.632,47.684,47.684,0,0,0,1.849,5.444,2.528,2.528,0,0,0,2.754,1.481c2.356-.412,6.521-1.39,9.337-3.462Z" transform="translate(-608.985 -559.77)" fill="#fff"/>
        <path id="Trazado_1023950" data-name="Trazado 1023950" d="M676.689,632.583a2.733,2.733,0,0,1-2.509-1.648,48.5,48.5,0,0,1-1.859-5.47,4.448,4.448,0,0,1,1.725-4.865c2.846-1.992,9.986-2.908,10.289-2.946a.215.215,0,0,1,.236.172l2.1,11a.214.214,0,0,1-.083.212c-2.874,2.115-7.14,3.1-9.427,3.5a2.778,2.778,0,0,1-.477.042m7.5-14.479c-1.19.165-7.4,1.095-9.9,2.846a4.022,4.022,0,0,0-1.559,4.4,48.148,48.148,0,0,0,1.84,5.417,2.307,2.307,0,0,0,2.521,1.356c2.221-.388,6.337-1.336,9.139-3.345Z" transform="translate(-607 -557.784)"/>
        <path id="Trazado_1023951" data-name="Trazado 1023951" d="M554.869,604.967l29.452-9.069-4.891-1.183L554.916,602.8Z" transform="translate(-501.087 -537.07)" fill="#5479f7"/>
        <path id="Trazado_1023952" data-name="Trazado 1023952" d="M560.333,495.837l1.867-2.573s-4.711-13.747-16.835-10.349c-15.3,4.287-7.679,18.436-7.679,18.436Z" transform="translate(-483.856 -435.619)" fill="#5479f7"/>
        <path id="Trazado_1023953" data-name="Trazado 1023953" d="M637.695,507.874a.213.213,0,0,1-.2-.136,20.171,20.171,0,0,0-9.7-10.633.213.213,0,0,1,.19-.382,20.621,20.621,0,0,1,9.662,10.27.212.212,0,0,1,.066.094l.177.5a.213.213,0,0,1-.127.271.209.209,0,0,1-.074.013" transform="translate(-566.842 -448.556)"/>
        <path id="Trazado_1023954" data-name="Trazado 1023954" d="M703.337,500.9a.213.213,0,0,1-.2-.136,18.243,18.243,0,0,0-8.946-9.694.213.213,0,1,1,.186-.384,18.672,18.672,0,0,1,9.157,9.923.213.213,0,0,1-.121.276.21.21,0,0,1-.077.015" transform="translate(-626.797 -443.106)"/>
        <path id="Trazado_1023955" data-name="Trazado 1023955" d="M820.031,1333.208a.213.213,0,1,1,0-.427l112.134-.011V1280.1a.213.213,0,0,1,.427,0v52.884a.213.213,0,0,1-.214.213Z" transform="translate(-740.354 -1155.83)"/>
      </g>
    </g>
  </g>
</svg>
