<svg xmlns="http://www.w3.org/2000/svg" width="84" height="84" viewBox="0 0 84 84">
  <g id="Grupo_1180443" data-name="Grupo 1180443" transform="translate(-497.84 -8020)">
    <rect id="Rectángulo_456625" data-name="Rectángulo 456625" width="84" height="84" transform="translate(497.84 8020)" fill="#f2a4ab"/>
    <g id="Grupo_1180442" data-name="Grupo 1180442" transform="translate(431.84 7935.28)">
      <path id="Trazado_1021871" data-name="Trazado 1021871" d="M482.9,704.93v2.231l-.863-.271a.944.944,0,0,0-.572,0l-.863.273V704.93Z" transform="translate(-373.099 -566.525)" fill="#f57f17"/>
      <path id="Trazado_1021872" data-name="Trazado 1021872" d="M281.21,704.93v2.231l-.864-.271a.944.944,0,0,0-.572,0l-.863.273V704.93Z" transform="translate(-183.36 -566.525)" fill="#f57f17"/>
      <path id="Trazado_1021873" data-name="Trazado 1021873" d="M281.21,452.58v2.231l-.864-.273a.944.944,0,0,0-.572,0l-.863.273V452.58Z" transform="translate(-183.36 -329.129)" fill="#f57f17"/>
      <path id="Trazado_1021874" data-name="Trazado 1021874" d="M221.544,452.58v3.526a.948.948,0,0,1-1.234.9l-1.812-.574-1.811.574a.948.948,0,0,1-1.234-.9V452.58H213.47v9.5h10.055v-9.5Zm-.253,7.944H215.7a.948.948,0,0,1,0-1.9h5.587a.948.948,0,1,1,0,1.9Z" transform="translate(-121.798 -329.129)" fill="#fcb64d"/>
      <path id="Trazado_1021875" data-name="Trazado 1021875" d="M624.914,452.58v3.526a.948.948,0,0,1-1.234.9l-1.811-.574-1.812.574a.948.948,0,0,1-1.234-.9V452.58H616.84v9.5H626.9v-9.5Zm-.252,7.944h-5.587a.948.948,0,1,1,0-1.9h5.587a.948.948,0,1,1,0,1.9Z" transform="translate(-501.266 -329.129)" fill="#fcb64d"/>
      <path id="Trazado_1021876" data-name="Trazado 1021876" d="M684.58,452.58v2.231l-.863-.273a.944.944,0,0,0-.572,0l-.864.273V452.58Z" transform="translate(-562.828 -329.129)" fill="#f57f17"/>
      <path id="Trazado_1021877" data-name="Trazado 1021877" d="M482.9,452.58v2.231l-.863-.273a.944.944,0,0,0-.572,0l-.863.273V452.58Z" transform="translate(-373.099 -329.129)" fill="#f57f17"/>
      <path id="Trazado_1021878" data-name="Trazado 1021878" d="M423.233,452.58v3.526a.948.948,0,0,1-1.234.9l-1.811-.574-1.811.574a.948.948,0,0,1-1.234-.9V452.58H415.16v9.5h10.055v-9.5Zm-.252,7.944h-5.587a.948.948,0,1,1,0-1.9h5.587a.948.948,0,0,1,0,1.9Z" transform="translate(-311.537 -329.129)" fill="#fcb64d"/>
      <path id="Trazado_1021879" data-name="Trazado 1021879" d="M684.58,704.93v2.231l-.863-.271a.944.944,0,0,0-.572,0l-.864.273V704.93Z" transform="translate(-562.828 -566.525)" fill="#f57f17"/>
      <path id="Trazado_1021880" data-name="Trazado 1021880" d="M624.914,704.921v3.526a.948.948,0,0,1-1.234.9l-1.811-.574-1.812.574a.948.948,0,0,1-1.234-.9V704.92H616.84v9.5H626.9v-9.5Zm-.252,7.945h-5.587a.948.948,0,0,1,0-1.9h5.587a.948.948,0,0,1,0,1.9Z" transform="translate(-501.266 -566.516)" fill="#fcb64d"/>
      <path id="Trazado_1021881" data-name="Trazado 1021881" d="M423.233,704.921v3.526a.948.948,0,0,1-1.234.9l-1.811-.574-1.811.574a.948.948,0,0,1-1.234-.9V704.92H415.16v9.5h10.055v-9.5Zm-.252,7.945h-5.587a.948.948,0,0,1,0-1.9h5.587a.948.948,0,0,1,0,1.9Z" transform="translate(-311.537 -566.516)" fill="#fcb64d"/>
      <path id="Trazado_1021882" data-name="Trazado 1021882" d="M221.544,704.921v3.526a.948.948,0,0,1-1.234.9l-1.812-.574-1.811.574a.948.948,0,0,1-1.234-.9V704.92H213.47v9.5h10.055v-9.5Zm-.253,7.945H215.7a.948.948,0,0,1,0-1.9h5.587a.948.948,0,0,1,0,1.9Z" transform="translate(-121.798 -566.516)" fill="#fcb64d"/>
      <path id="Trazado_1021883" data-name="Trazado 1021883" d="M161.509,644.93v12.045a1.013,1.013,0,0,1-1.012,1.012h-2.867v-10.45a.948.948,0,0,0-.948-.948H120.828a.948.948,0,0,0-.948.948v10.45h-2.867A1.013,1.013,0,0,1,116,656.975V644.93Z" transform="translate(-30.104 -510.081)" fill="#ff3d00"/>
      <path id="Trazado_1021884" data-name="Trazado 1021884" d="M161.509,392.58v13.057h-3.879v-10.45a.948.948,0,0,0-.948-.948H120.828a.948.948,0,0,0-.948.948v10.45H116V392.58Z" transform="translate(-30.104 -272.684)" fill="#ff3d00"/>
      <path id="Trazado_1021885" data-name="Trazado 1021885" d="M281.21,200.23v2.232l-.864-.274a.953.953,0,0,0-.572,0l-.863.274V200.23Z" transform="translate(-183.36 -91.732)" fill="#f57f17"/>
      <path id="Trazado_1021886" data-name="Trazado 1021886" d="M221.544,200.23v3.526a.948.948,0,0,1-1.234.9l-1.812-.574-1.811.574a.948.948,0,0,1-1.234-.9v-3.526H213.47v9.5h10.055v-9.5Zm-.253,7.944H215.7a.948.948,0,0,1,0-1.9h5.587a.948.948,0,1,1,0,1.9Z" transform="translate(-121.798 -91.732)" fill="#fcb64d"/>
      <path id="Trazado_1021887" data-name="Trazado 1021887" d="M423.233,200.23v3.526a.948.948,0,0,1-1.234.9l-1.811-.574-1.811.574a.948.948,0,0,1-1.234-.9v-3.526H415.16v9.5h10.055v-9.5Zm-.252,7.944h-5.587a.948.948,0,0,1,0-1.9h5.587a.948.948,0,0,1,0,1.9Z" transform="translate(-311.537 -91.732)" fill="#fcb64d"/>
      <path id="Trazado_1021888" data-name="Trazado 1021888" d="M482.9,200.23v2.232l-.863-.274a.953.953,0,0,0-.572,0l-.863.274V200.23Z" transform="translate(-373.099 -91.732)" fill="#f57f17"/>
      <path id="Trazado_1021889" data-name="Trazado 1021889" d="M684.58,200.23v2.232l-.863-.274a.953.953,0,0,0-.572,0l-.864.274V200.23Z" transform="translate(-562.828 -91.732)" fill="#f57f17"/>
      <path id="Trazado_1021890" data-name="Trazado 1021890" d="M624.914,200.23v3.526a.948.948,0,0,1-1.234.9l-1.811-.574-1.812.574a.948.948,0,0,1-1.234-.9v-3.526H616.84v9.5H626.9v-9.5Zm-.252,7.944h-5.587a.948.948,0,1,1,0-1.9h5.587a.948.948,0,1,1,0,1.9Z" transform="translate(-501.266 -91.732)" fill="#fcb64d"/>
      <path id="Trazado_1021891" data-name="Trazado 1021891" d="M161.509,135.732V148.1h-3.879v-10.45a.948.948,0,0,0-.948-.948H120.828a.948.948,0,0,0-.948.948V148.1H116V135.732a1.013,1.013,0,0,1,1.012-1.012H160.5A1.013,1.013,0,0,1,161.509,135.732Z" transform="translate(-30.104 -30.104)" fill="#ff3d00"/>
      <g id="Grupo_1180440" data-name="Grupo 1180440" transform="translate(85.304 105.209)" opacity="0.5">
        <path id="Trazado_1021892" data-name="Trazado 1021892" d="M472.9,714.93v2.231l-.863-.271a.944.944,0,0,0-.572,0l-.863.273V714.93Z" transform="translate(-448.995 -681.142)" fill="#fff"/>
        <path id="Trazado_1021893" data-name="Trazado 1021893" d="M271.21,714.93v2.231l-.864-.271a.944.944,0,0,0-.572,0l-.863.273V714.93Z" transform="translate(-259.257 -681.142)" fill="#fff"/>
        <path id="Trazado_1021894" data-name="Trazado 1021894" d="M271.21,462.58v2.231l-.864-.273a.944.944,0,0,0-.572,0l-.863.273V462.58Z" transform="translate(-259.257 -443.745)" fill="#fff"/>
        <path id="Trazado_1021895" data-name="Trazado 1021895" d="M211.544,462.58v3.526a.948.948,0,0,1-1.234.9l-1.812-.574-1.811.574a.948.948,0,0,1-1.234-.9V462.58H203.47v9.5h10.055v-9.5Zm-.253,7.944H205.7a.948.948,0,0,1,0-1.9h5.587a.948.948,0,1,1,0,1.9Z" transform="translate(-197.694 -443.745)" fill="#fff"/>
        <path id="Trazado_1021896" data-name="Trazado 1021896" d="M614.914,462.58v3.526a.948.948,0,0,1-1.234.9l-1.811-.574-1.812.574a.948.948,0,0,1-1.234-.9V462.58H606.84v9.5H616.9v-9.5Zm-.252,7.944h-5.587a.948.948,0,1,1,0-1.9h5.587a.948.948,0,1,1,0,1.9Z" transform="translate(-577.162 -443.745)" fill="#fff"/>
        <path id="Trazado_1021897" data-name="Trazado 1021897" d="M674.58,462.58v2.231l-.863-.273a.944.944,0,0,0-.572,0l-.864.273V462.58Z" transform="translate(-638.724 -443.745)" fill="#fff"/>
        <path id="Trazado_1021898" data-name="Trazado 1021898" d="M472.9,462.58v2.231l-.863-.273a.944.944,0,0,0-.572,0l-.863.273V462.58Z" transform="translate(-448.995 -443.745)" fill="#fff"/>
        <path id="Trazado_1021899" data-name="Trazado 1021899" d="M413.233,462.58v3.526a.948.948,0,0,1-1.234.9l-1.811-.574-1.811.574a.948.948,0,0,1-1.234-.9V462.58H405.16v9.5h10.055v-9.5Zm-.252,7.944h-5.587a.948.948,0,1,1,0-1.9h5.587a.948.948,0,0,1,0,1.9Z" transform="translate(-387.433 -443.745)" fill="#fff"/>
        <path id="Trazado_1021900" data-name="Trazado 1021900" d="M674.58,714.93v2.231l-.863-.271a.944.944,0,0,0-.572,0l-.864.273V714.93Z" transform="translate(-638.724 -681.142)" fill="#fff"/>
        <path id="Trazado_1021901" data-name="Trazado 1021901" d="M614.914,714.921v3.526a.948.948,0,0,1-1.234.9l-1.811-.574-1.812.574a.948.948,0,0,1-1.234-.9V714.92H606.84v9.5H616.9v-9.5Zm-.252,7.944h-5.587a.948.948,0,1,1,0-1.9h5.587a.948.948,0,1,1,0,1.9Z" transform="translate(-577.162 -681.132)" fill="#fff"/>
        <path id="Trazado_1021902" data-name="Trazado 1021902" d="M413.233,714.921v3.526a.948.948,0,0,1-1.234.9l-1.811-.574-1.811.574a.948.948,0,0,1-1.234-.9V714.92H405.16v9.5h10.055v-9.5Zm-.252,7.944h-5.587a.948.948,0,1,1,0-1.9h5.587a.948.948,0,1,1,0,1.9Z" transform="translate(-387.433 -681.132)" fill="#fff"/>
        <path id="Trazado_1021903" data-name="Trazado 1021903" d="M211.544,714.921v3.526a.948.948,0,0,1-1.234.9l-1.812-.574-1.811.574a.948.948,0,0,1-1.234-.9V714.92H203.47v9.5h10.055v-9.5Zm-.253,7.944H205.7a.948.948,0,1,1,0-1.9h5.587a.948.948,0,1,1,0,1.9Z" transform="translate(-197.694 -681.132)" fill="#fff"/>
        <path id="Trazado_1021904" data-name="Trazado 1021904" d="M151.509,654.93v12.045a1.013,1.013,0,0,1-1.012,1.012h-2.867v-10.45a.948.948,0,0,0-.948-.948H110.828a.948.948,0,0,0-.948.948v10.45h-2.867A1.013,1.013,0,0,1,106,666.975V654.93Z" transform="translate(-106 -624.697)" fill="#fff"/>
        <path id="Trazado_1021905" data-name="Trazado 1021905" d="M151.509,402.58v13.057h-3.88v-10.45a.948.948,0,0,0-.948-.948H110.828a.948.948,0,0,0-.948.948v10.45H106V402.58Z" transform="translate(-106 -387.3)" fill="#fff"/>
        <path id="Trazado_1021906" data-name="Trazado 1021906" d="M271.21,210.23v2.232l-.864-.274a.953.953,0,0,0-.572,0l-.863.274V210.23Z" transform="translate(-259.257 -206.348)" fill="#fff"/>
        <path id="Trazado_1021907" data-name="Trazado 1021907" d="M211.544,210.23v3.526a.948.948,0,0,1-1.234.9l-1.812-.574-1.811.574a.948.948,0,0,1-1.234-.9v-3.526H203.47v9.5h10.055v-9.5Zm-.253,7.944H205.7a.948.948,0,0,1,0-1.9h5.587a.948.948,0,0,1,0,1.9Z" transform="translate(-197.694 -206.348)" fill="#fff"/>
        <path id="Trazado_1021908" data-name="Trazado 1021908" d="M413.233,210.23v3.526a.948.948,0,0,1-1.234.9l-1.811-.574-1.811.574a.948.948,0,0,1-1.234-.9v-3.526H405.16v9.5h10.055v-9.5Zm-.252,7.944h-5.587a.948.948,0,0,1,0-1.9h5.587a.948.948,0,0,1,0,1.9Z" transform="translate(-387.433 -206.348)" fill="#fff"/>
        <path id="Trazado_1021909" data-name="Trazado 1021909" d="M472.9,210.23v2.232l-.863-.274a.953.953,0,0,0-.572,0l-.863.274V210.23Z" transform="translate(-448.995 -206.348)" fill="#fff"/>
        <path id="Trazado_1021910" data-name="Trazado 1021910" d="M674.58,210.23v2.232l-.863-.274a.953.953,0,0,0-.572,0l-.864.274V210.23Z" transform="translate(-638.724 -206.348)" fill="#fff"/>
        <path id="Trazado_1021911" data-name="Trazado 1021911" d="M614.914,210.23v3.526a.948.948,0,0,1-1.234.9l-1.811-.574-1.812.574a.948.948,0,0,1-1.234-.9v-3.526H606.84v9.5H616.9v-9.5Zm-.252,7.944h-5.587a.948.948,0,1,1,0-1.9h5.587a.948.948,0,1,1,0,1.9Z" transform="translate(-577.162 -206.348)" fill="#fff"/>
        <path id="Trazado_1021912" data-name="Trazado 1021912" d="M151.509,145.732V158.1h-3.88v-10.45a.948.948,0,0,0-.948-.948H110.828a.948.948,0,0,0-.948.948V158.1H106V145.732a1.013,1.013,0,0,1,1.012-1.012H150.5A1.013,1.013,0,0,1,151.509,145.732Z" transform="translate(-106 -144.72)" fill="#fff"/>
      </g>
      <g id="Grupo_1180441" data-name="Grupo 1180441" transform="translate(84 102.72)">
        <path id="Trazado_1021913" data-name="Trazado 1021913" d="M194.369,168.23H182.418a.948.948,0,0,0-.948.948v11.4a.948.948,0,0,0,.948.948h11.951a.948.948,0,0,0,.948-.948v-11.4A.948.948,0,0,0,194.369,168.23Zm-11,11.4v-9.5h10.055v9.5Z" transform="translate(-175.694 -164.348)" fill="#413b32"/>
        <path id="Trazado_1021914" data-name="Trazado 1021914" d="M253,169.178v4.474a.948.948,0,0,1-1.234.9l-1.812-.574-1.811.574a.948.948,0,0,1-1.234-.9v-4.474a.948.948,0,1,1,1.9,0v3.18l.863-.274a.953.953,0,0,1,.572,0l.864.274v-3.18a.948.948,0,1,1,1.9,0Z" transform="translate(-237.257 -164.348)" fill="#413b32"/>
        <path id="Trazado_1021915" data-name="Trazado 1021915" d="M242.653,303.248a.948.948,0,0,1-.948.948h-5.587a.948.948,0,0,1,0-1.9H241.7A.948.948,0,0,1,242.653,303.248Z" transform="translate(-226.212 -290.474)" fill="#413b32"/>
        <path id="Trazado_1021916" data-name="Trazado 1021916" d="M396.059,168.23H384.108a.948.948,0,0,0-.948.948v11.4a.948.948,0,0,0,.948.948h11.951a.948.948,0,0,0,.948-.948v-11.4A.948.948,0,0,0,396.059,168.23Zm-11,11.4v-9.5h10.055v9.5Z" transform="translate(-365.433 -164.348)" fill="#413b32"/>
        <path id="Trazado_1021917" data-name="Trazado 1021917" d="M454.692,169.178v4.474a.948.948,0,0,1-1.234.9l-1.811-.574-1.811.574a.948.948,0,0,1-1.234-.9v-4.474a.948.948,0,1,1,1.9,0v3.18l.863-.274a.953.953,0,0,1,.572,0l.863.274v-3.18a.948.948,0,1,1,1.9,0Z" transform="translate(-426.995 -164.348)" fill="#413b32"/>
        <path id="Trazado_1021918" data-name="Trazado 1021918" d="M444.343,303.248a.948.948,0,0,1-.948.948h-5.587a.948.948,0,0,1,0-1.9h5.587A.948.948,0,0,1,444.343,303.248Z" transform="translate(-415.951 -290.474)" fill="#413b32"/>
        <path id="Trazado_1021919" data-name="Trazado 1021919" d="M597.74,168.23H585.788a.948.948,0,0,0-.948.948v11.4a.948.948,0,0,0,.948.948H597.74a.948.948,0,0,0,.948-.948v-11.4A.948.948,0,0,0,597.74,168.23Zm-11,11.4v-9.5h10.055v9.5Z" transform="translate(-555.162 -164.348)" fill="#413b32"/>
        <path id="Trazado_1021920" data-name="Trazado 1021920" d="M656.372,169.178v4.474a.948.948,0,0,1-1.234.9l-1.811-.574-1.812.574a.948.948,0,0,1-1.234-.9v-4.474a.948.948,0,0,1,1.9,0v3.18l.864-.274a.953.953,0,0,1,.572,0l.863.274v-3.18a.948.948,0,0,1,1.9,0Z" transform="translate(-616.724 -164.348)" fill="#413b32"/>
        <path id="Trazado_1021921" data-name="Trazado 1021921" d="M646.033,303.248a.948.948,0,0,1-.948.948H639.5a.948.948,0,1,1,0-1.9h5.587A.948.948,0,0,1,646.033,303.248Z" transform="translate(-605.69 -290.474)" fill="#413b32"/>
        <path id="Trazado_1021922" data-name="Trazado 1021922" d="M194.369,420.58H182.418a.948.948,0,0,0-.948.948v11.4a.948.948,0,0,0,.948.948h11.951a.948.948,0,0,0,.948-.948v-11.4A.948.948,0,0,0,194.369,420.58Zm-11,11.4v-9.5h10.055v9.5Z" transform="translate(-175.694 -401.745)" fill="#413b32"/>
        <path id="Trazado_1021923" data-name="Trazado 1021923" d="M253,421.528V426a.948.948,0,0,1-1.234.9l-1.812-.574-1.811.574a.948.948,0,0,1-1.234-.9v-4.474a.948.948,0,0,1,1.9,0v3.179l.863-.273a.944.944,0,0,1,.572,0l.864.273v-3.179a.948.948,0,0,1,1.9,0Z" transform="translate(-237.257 -401.745)" fill="#413b32"/>
        <path id="Trazado_1021924" data-name="Trazado 1021924" d="M242.653,555.6a.948.948,0,0,1-.948.948h-5.587a.948.948,0,1,1,0-1.9H241.7A.948.948,0,0,1,242.653,555.6Z" transform="translate(-226.212 -527.87)" fill="#413b32"/>
        <path id="Trazado_1021925" data-name="Trazado 1021925" d="M396.059,420.58H384.108a.948.948,0,0,0-.948.948v11.4a.948.948,0,0,0,.948.948h11.951a.948.948,0,0,0,.948-.948v-11.4A.948.948,0,0,0,396.059,420.58Zm-11,11.4v-9.5h10.055v9.5Z" transform="translate(-365.433 -401.745)" fill="#413b32"/>
        <path id="Trazado_1021926" data-name="Trazado 1021926" d="M454.692,421.528V426a.948.948,0,0,1-1.234.9l-1.811-.574-1.811.574a.948.948,0,0,1-1.234-.9v-4.474a.948.948,0,0,1,1.9,0v3.179l.863-.273a.944.944,0,0,1,.572,0l.863.273v-3.179a.948.948,0,1,1,1.9,0Z" transform="translate(-426.995 -401.745)" fill="#413b32"/>
        <path id="Trazado_1021927" data-name="Trazado 1021927" d="M444.343,555.6a.948.948,0,0,1-.948.948h-5.587a.948.948,0,1,1,0-1.9h5.587A.948.948,0,0,1,444.343,555.6Z" transform="translate(-415.951 -527.87)" fill="#413b32"/>
        <path id="Trazado_1021928" data-name="Trazado 1021928" d="M597.74,420.58H585.788a.948.948,0,0,0-.948.948v11.4a.948.948,0,0,0,.948.948H597.74a.948.948,0,0,0,.948-.948v-11.4A.948.948,0,0,0,597.74,420.58Zm-11,11.4v-9.5h10.055v9.5Z" transform="translate(-555.162 -401.745)" fill="#413b32"/>
        <path id="Trazado_1021929" data-name="Trazado 1021929" d="M656.372,421.528V426a.948.948,0,0,1-1.234.9l-1.811-.574-1.812.574a.948.948,0,0,1-1.234-.9v-4.474a.948.948,0,0,1,1.9,0v3.179l.864-.273a.944.944,0,0,1,.572,0l.863.273v-3.179a.948.948,0,0,1,1.9,0Z" transform="translate(-616.724 -401.745)" fill="#413b32"/>
        <path id="Trazado_1021930" data-name="Trazado 1021930" d="M646.033,555.6a.948.948,0,0,1-.948.948H639.5a.948.948,0,1,1,0-1.9h5.587A.948.948,0,0,1,646.033,555.6Z" transform="translate(-605.69 -527.87)" fill="#413b32"/>
        <path id="Trazado_1021931" data-name="Trazado 1021931" d="M194.369,672.93H182.418a.948.948,0,0,0-.948.948v11.4a.948.948,0,0,0,.948.948h11.951a.948.948,0,0,0,.948-.948v-11.4A.948.948,0,0,0,194.369,672.93Zm-11,11.4v-9.5h10.055v9.5Z" transform="translate(-175.694 -639.142)" fill="#413b32"/>
        <path id="Trazado_1021932" data-name="Trazado 1021932" d="M253,673.869v4.474a.948.948,0,0,1-1.234.9l-1.812-.574-1.811.574a.948.948,0,0,1-1.234-.9v-4.474a.948.948,0,0,1,1.9,0v3.179l.863-.271a.944.944,0,0,1,.572,0l.864.273v-3.181a.948.948,0,1,1,1.9,0Z" transform="translate(-237.257 -639.132)" fill="#413b32"/>
        <path id="Trazado_1021933" data-name="Trazado 1021933" d="M242.653,807.948a.948.948,0,0,1-.948.948h-5.587a.948.948,0,0,1,0-1.9H241.7A.948.948,0,0,1,242.653,807.948Z" transform="translate(-226.212 -765.267)" fill="#413b32"/>
        <path id="Trazado_1021934" data-name="Trazado 1021934" d="M396.059,672.93H384.108a.948.948,0,0,0-.948.948v11.4a.948.948,0,0,0,.948.948h11.951a.948.948,0,0,0,.948-.948v-11.4A.948.948,0,0,0,396.059,672.93Zm-11,11.4v-9.5h10.055v9.5Z" transform="translate(-365.433 -639.142)" fill="#413b32"/>
        <path id="Trazado_1021935" data-name="Trazado 1021935" d="M454.692,673.869v4.474a.948.948,0,0,1-1.234.9l-1.811-.574-1.811.574a.948.948,0,0,1-1.234-.9v-4.474a.948.948,0,0,1,1.9,0v3.179l.863-.271a.944.944,0,0,1,.572,0l.863.273v-3.181a.948.948,0,1,1,1.9,0Z" transform="translate(-426.995 -639.132)" fill="#413b32"/>
        <path id="Trazado_1021936" data-name="Trazado 1021936" d="M444.343,807.948a.948.948,0,0,1-.948.948h-5.587a.948.948,0,0,1,0-1.9h5.587A.948.948,0,0,1,444.343,807.948Z" transform="translate(-415.951 -765.267)" fill="#413b32"/>
        <path id="Trazado_1021937" data-name="Trazado 1021937" d="M597.74,672.93H585.788a.948.948,0,0,0-.948.948v11.4a.948.948,0,0,0,.948.948H597.74a.948.948,0,0,0,.948-.948v-11.4A.948.948,0,0,0,597.74,672.93Zm-11,11.4v-9.5h10.055v9.5Z" transform="translate(-555.162 -639.142)" fill="#413b32"/>
        <path id="Trazado_1021938" data-name="Trazado 1021938" d="M656.372,673.869v4.474a.948.948,0,0,1-1.234.9l-1.811-.574-1.812.574a.948.948,0,0,1-1.234-.9v-4.474a.948.948,0,0,1,1.9,0v3.179l.864-.271a.944.944,0,0,1,.572,0l.863.273v-3.181a.948.948,0,0,1,1.9,0Z" transform="translate(-616.724 -639.132)" fill="#413b32"/>
        <path id="Trazado_1021939" data-name="Trazado 1021939" d="M646.033,807.948a.948.948,0,0,1-.948.948H639.5a.948.948,0,0,1,0-1.9h5.587A.948.948,0,0,1,646.033,807.948Z" transform="translate(-605.69 -765.267)" fill="#413b32"/>
        <path id="Trazado_1021940" data-name="Trazado 1021940" d="M130.393,102.72H86.908A2.912,2.912,0,0,0,84,105.628v41.266a2.912,2.912,0,0,0,2.908,2.908h43.484a2.912,2.912,0,0,0,2.908-2.908V105.628A2.912,2.912,0,0,0,130.393,102.72Zm1.012,44.174a1.013,1.013,0,0,1-1.012,1.012H86.908a1.013,1.013,0,0,1-1.012-1.012V105.628a1.013,1.013,0,0,1,1.012-1.012h43.484a1.013,1.013,0,0,1,1.012,1.012Z" transform="translate(-84 -102.72)" fill="#413b32"/>
        <path id="Trazado_1021941" data-name="Trazado 1021941" d="M133.3,361.528a.948.948,0,0,1-.948.948h-47.4a.948.948,0,0,1,0-1.9h47.4A.948.948,0,0,1,133.3,361.528Z" transform="translate(-84 -345.3)" fill="#413b32"/>
        <path id="Trazado_1021942" data-name="Trazado 1021942" d="M133.3,613.878a.948.948,0,0,1-.948.948h-47.4a.948.948,0,1,1,0-1.9h47.4A.948.948,0,0,1,133.3,613.878Z" transform="translate(-84 -582.697)" fill="#413b32"/>
      </g>
    </g>
  </g>
</svg>
