<svg xmlns="http://www.w3.org/2000/svg" xmlns:xlink="http://www.w3.org/1999/xlink" width="83" height="83" viewBox="0 0 83 83">
  <defs>
    <clipPath id="clip-path">
      <rect id="Rectángulo_456277" data-name="Rectángulo 456277" width="83" height="83" transform="translate(0.001 0)" fill="#d35560"/>
    </clipPath>
  </defs>
  <g id="Grupo_1180336" data-name="Grupo 1180336" transform="translate(-413.59 -9435.531)">
    <g id="Grupo_1180081" data-name="Grupo 1180081" transform="translate(413.589 9435.531)">
      <g id="Grupo_1179924" data-name="Grupo 1179924" transform="translate(0 0)">
        <g id="Grupo_1179923" data-name="Grupo 1179923" transform="translate(0 0)" clip-path="url(#clip-path)">
          <path id="Trazado_1004716" data-name="Trazado 1004716" d="M41.621,83.242c-1.352,0-2.616-1.544-3.935-1.673-1.343-.131-2.883,1.137-4.185.878-1.321-.262-2.259-2.024-3.532-2.411s-3.046.55-4.275.039-1.814-2.427-2.989-3.057-3.092-.056-4.2-.8-1.3-2.733-2.336-3.581-3.02-.653-3.966-1.6-.749-2.932-1.6-3.966S7.77,65.849,7.024,64.736s-.165-3.019-.8-4.2-2.542-1.749-3.058-2.989.43-2.989.039-4.275S1.057,51.061.8,49.74c-.258-1.3,1.009-2.842.878-4.185C1.544,44.237,0,42.973,0,41.621S1.544,39,1.673,37.686C1.8,36.343.537,34.8.8,33.5c.262-1.321,2.024-2.259,2.411-3.531s-.55-3.046-.039-4.276,2.427-1.814,3.058-2.989.056-3.091.8-4.2,2.733-1.3,3.581-2.336.653-3.02,1.6-3.966,2.931-.749,3.966-1.6,1.223-2.836,2.336-3.581,3.019-.165,4.2-.8,1.749-2.542,2.989-3.058,2.989.429,4.276.039S32.18,1.057,33.5.8c1.3-.258,2.842,1.01,4.185.878C39,1.544,40.269,0,41.621,0s2.616,1.544,3.935,1.673C46.9,1.8,48.438.537,49.74.8c1.321.262,2.259,2.024,3.532,2.411s3.046-.55,4.275-.039,1.814,2.427,2.989,3.058,3.092.056,4.2.8,1.3,2.733,2.336,3.581,3.02.653,3.966,1.6.749,2.932,1.6,3.966,2.836,1.223,3.581,2.336.165,3.019.8,4.2,2.542,1.749,3.057,2.989-.429,2.989-.039,4.275,2.149,2.21,2.411,3.531c.258,1.3-1.009,2.842-.878,4.185.129,1.318,1.674,2.583,1.674,3.935s-1.544,2.616-1.674,3.935c-.131,1.343,1.137,2.883.878,4.185-.262,1.321-2.024,2.259-2.411,3.532s.55,3.046.039,4.275-2.427,1.814-3.058,2.989-.056,3.091-.8,4.2-2.733,1.3-3.581,2.336-.653,3.02-1.6,3.965-2.932.749-3.965,1.6-1.223,2.835-2.336,3.581-3.019.165-4.2.8-1.749,2.543-2.989,3.058-2.989-.429-4.275-.039-2.21,2.148-3.531,2.411c-1.3.258-2.842-1.01-4.185-.878-1.319.129-2.583,1.673-3.935,1.673" transform="translate(0.007 0.006)" fill="#d35560"/>
          <path id="Trazado_1004717" data-name="Trazado 1004717" d="M14,51.684A37.684,37.684,0,1,1,51.684,89.367,37.684,37.684,0,0,1,14,51.684" transform="translate(-10.056 -10.057)" fill="#4d787e"/>
          <path id="Trazado_1004718" data-name="Trazado 1004718" d="M131.066,267.538c-.1-.423-.194-.861-.284-1.29l-1.317-.168q.59-.313,1.156-.631-.125-.645-.236-1.289c.3.3.61.6.928.892q.555-.345,1.086-.691-.235.608-.486,1.215c.329.282.665.569,1.009.849l-1.323-.1q-.259.607-.533,1.211" transform="translate(-93.05 -189.867)" fill="#ffffc5"/>
          <path id="Trazado_1004719" data-name="Trazado 1004719" d="M112.708,264.037c-.036-.432-.063-.88-.087-1.317l-1.277-.364q.63-.221,1.238-.45-.027-.657-.04-1.31c.254.337.513.686.783,1.021q.6-.257,1.176-.52-.324.566-.661,1.128c.283.327.571.665.871.989-.433-.09-.863-.2-1.294-.294q-.347.561-.708,1.117" transform="translate(-80.024 -187.305)" fill="#ffffc5"/>
          <path id="Trazado_1004720" data-name="Trazado 1004720" d="M95.144,257.928c.033-.44.071-.881.113-1.318l-1.209-.549c.437-.082.868-.17,1.292-.261q.072-.652.156-1.3c.2.372.406.749.621,1.128q.632-.165,1.242-.339-.4.511-.824,1.017c.23.366.467.74.713,1.109l-1.235-.486q-.427.5-.868,1" transform="translate(-67.592 -182.924)" fill="#ffffc5"/>
          <path id="Trazado_1004721" data-name="Trazado 1004721" d="M78.777,249.35q.148-.647.308-1.286c-.37-.242-.75-.47-1.112-.724.437,0,.884-.038,1.315-.063q.168-.634.348-1.26.214.6.448,1.2c.427-.037.859-.1,1.278-.148q-.477.445-.968.884.26.595.54,1.2l-1.15-.662c-.332.288-.67.578-1.005.854" transform="translate(-56.037 -176.825)" fill="#ffffc5"/>
          <path id="Trazado_1004722" data-name="Trazado 1004722" d="M63.959,238.515q.241-.617.494-1.224c-.331-.294-.678-.57-.991-.883.429.064.874.1,1.307.135q.259-.6.529-1.193.126.619.269,1.254c.421.035.861.036,1.283.046q-.539.37-1.089.732.17.625.359,1.264l-1.043-.821c-.373.239-.74.463-1.116.691" transform="translate(-45.607 -169.158)" fill="#ffffc5"/>
          <path id="Trazado_1004723" data-name="Trazado 1004723" d="M51.005,225.675q.329-.574.667-1.136l-.434-.5c-.144-.168-.276-.346-.414-.519l.629.177.641.152q.344-.556.7-1.1.035.629.085,1.276l.625.131.635.106q-.588.288-1.187.564.078.641.172,1.3c-.3-.321-.614-.637-.913-.964q-.6.264-1.2.517" transform="translate(-36.524 -160.099)" fill="#ffffc5"/>
          <path id="Trazado_1004724" data-name="Trazado 1004724" d="M39.841,211.108q.409-.518.827-1.024c-.118-.187-.242-.37-.355-.561l-.331-.575c.4.18.791.361,1.205.515.283-.333.562-.658.855-.986-.044.421-.073.842-.1,1.273.4.15.8.3,1.208.423-.416.132-.838.26-1.258.383-.012.431-.016.865-.018,1.308-.252-.364-.524-.713-.758-1.089q-.631.173-1.269.334" transform="translate(-28.63 -149.843)" fill="#ffffc5"/>
          <path id="Trazado_1004725" data-name="Trazado 1004725" d="M30.615,195.13q.481-.451.968-.889c-.191-.4-.343-.816-.507-1.226.374.237.731.473,1.112.69.325-.285.659-.569,1-.849-.118.414-.2.821-.295,1.244.381.206.74.414,1.129.6-.434.069-.867.133-1.3.189-.089.43-.146.853-.215,1.291-.2-.395-.412-.783-.586-1.19q-.65.077-1.307.141" transform="translate(-21.998 -138.615)" fill="#ffffc5"/>
          <path id="Trazado_1004726" data-name="Trazado 1004726" d="M24.019,177.688q.543-.373,1.089-.733c-.131-.423-.21-.859-.316-1.289.334.291.656.576.994.85.363-.233.744-.465,1.116-.69-.182.393-.323.783-.48,1.185.344.262.677.519,1.024.762-.442,0-.869,0-1.306-.009-.158.414-.275.823-.408,1.245-.145-.418-.287-.837-.4-1.265q-.655-.021-1.314-.056" transform="translate(-17.257 -126.259)" fill="#ffffc5"/>
          <path id="Trazado_1004727" data-name="Trazado 1004727" d="M20.215,159.173q.593-.288,1.187-.561c-.066-.438-.08-.881-.119-1.322.286.338.561.668.855.99.394-.176.8-.348,1.207-.515-.239.361-.436.726-.652,1.1.3.31.593.614.9.908-.436-.062-.858-.132-1.289-.205-.219.385-.4.772-.591,1.17l-.117-.653c-.037-.218-.058-.439-.088-.658q-.645-.119-1.291-.253" transform="translate(-14.523 -113.05)" fill="#ffffc5"/>
          <path id="Trazado_1004728" data-name="Trazado 1004728" d="M19.269,140.414q.629-.2,1.258-.379c0-.443.041-.884.075-1.325.235.376.447.744.7,1.105.419-.116.836-.226,1.264-.332-.28.322-.535.654-.8.992.253.352.487.7.755,1.031q-.633-.19-1.248-.394c-.27.348-.5.7-.755,1.069-.01-.442-.031-.884-.01-1.327q-.619-.213-1.238-.441" transform="translate(-13.843 -99.696)" fill="#ffffc5"/>
          <path id="Trazado_1004729" data-name="Trazado 1004729" d="M21.174,121.821q.652-.1,1.3-.187c.041-.217.073-.437.122-.652l.149-.647c.174.407.332.8.531,1.2.434-.051.858-.1,1.3-.139-.32.278-.626.566-.942.861.2.385.375.759.6,1.132-.394-.187-.8-.38-1.18-.575-.309.306-.6.622-.9.945.062-.438.1-.88.186-1.314q-.58-.3-1.157-.62" transform="translate(-15.212 -86.487)" fill="#ffffc5"/>
          <path id="Trazado_1004730" data-name="Trazado 1004730" d="M25.928,103.813q.66,0,1.315.01c.134-.422.3-.832.464-1.243.113.429.207.843.344,1.264.435.014.866.032,1.306.058-.363.225-.7.465-1.062.709.138.411.256.807.419,1.208-.362-.244-.728-.495-1.079-.746-.353.256-.688.525-1.036.8.126-.424.23-.855.382-1.271q-.528-.386-1.051-.787" transform="translate(-18.629 -73.726)" fill="#ffffc5"/>
          <path id="Trazado_1004731" data-name="Trazado 1004731" d="M33.429,86.8q.652.1,1.3.206c.193-.4.429-.773.646-1.159.046.44.087.869.149,1.3.425.077.859.165,1.287.255-.4.163-.768.354-1.159.541.075.427.139.839.231,1.257-.325-.3-.64-.6-.951-.9-.4.2-.76.415-1.146.633.183-.4.359-.809.569-1.2q-.465-.461-.923-.936" transform="translate(-24.021 -61.7)" fill="#ffffc5"/>
          <path id="Trazado_1004732" data-name="Trazado 1004732" d="M43.489,71.162q.629.192,1.251.4c.257-.36.542-.7.812-1.05q-.03.663-.046,1.307.623.217,1.238.446c-.418.1-.822.229-1.229.361q.013.648.039,1.276-.406-.508-.8-1.026c-.42.135-.821.292-1.23.454l.359-.559.384-.541q-.391-.526-.775-1.064" transform="translate(-31.252 -50.674)" fill="#ffffc5"/>
          <path id="Trazado_1004733" data-name="Trazado 1004733" d="M55.127,57.229q.594.282,1.177.575l.96-.917q-.126.653-.235,1.29.584.306,1.157.622c-.424.047-.854.1-1.271.173q-.081.644-.147,1.271-.326-.562-.643-1.135l-.648.12c-.214.044-.424.095-.638.144.283-.34.594-.656.9-.976q-.31-.579-.611-1.169" transform="translate(-39.41 -40.884)" fill="#ffffc5"/>
          <path id="Trazado_1004734" data-name="Trazado 1004734" d="M68.74,45.3c.362.244.722.49,1.082.747l1.082-.77q-.22.63-.42,1.246.531.388,1.051.785c-.421-.01-.861-.033-1.285-.019q-.174.627-.329,1.24-.24-.6-.469-1.219c-.432.018-.882.025-1.313.069.33-.3.691-.553,1.034-.831q-.222-.62-.432-1.248" transform="translate(-48.969 -32.539)" fill="#ffffc5"/>
          <path id="Trazado_1004735" data-name="Trazado 1004735" d="M84.114,34.886c.322.295.646.6.962.906l1.181-.606q-.31.592-.6,1.174.467.462.922.93c-.416-.074-.841-.15-1.269-.213q-.264.6-.507,1.182-.148-.635-.284-1.277c-.43-.047-.872-.1-1.311-.13.378-.23.765-.444,1.148-.667q-.128-.646-.243-1.3" transform="translate(-59.802 -25.069)" fill="#ffffc5"/>
          <path id="Trazado_1004736" data-name="Trazado 1004736" d="M100.926,26.946q.415.518.816,1.041c.42-.14.837-.288,1.258-.422-.265.353-.519.717-.768,1.071q.392.526.771,1.057-.6-.2-1.222-.4c-.235.363-.459.733-.677,1.094q-.052-.65-.091-1.307-.627-.167-1.277-.325l1.235-.488c-.02-.438-.037-.883-.045-1.321" transform="translate(-71.682 -19.362)" fill="#ffffc5"/>
          <path id="Trazado_1004737" data-name="Trazado 1004737" d="M118.8,21.733q.332.574.65,1.152c.436-.076.87-.161,1.308-.229-.316.307-.621.63-.92.943q.309.579.6,1.16-.562-.291-1.148-.578c-.288.319-.564.656-.834.979q.046-.651.106-1.306-.595-.258-1.213-.511l1.293-.3c.046-.436.1-.881.154-1.31" transform="translate(-84.346 -15.615)" fill="#ffffc5"/>
          <path id="Trazado_1004738" data-name="Trazado 1004738" d="M137.334,19.35q.243.618.471,1.237l1.327-.033q-.537.4-1.05.8.22.619.425,1.238-.513-.372-1.05-.746c-.332.278-.656.565-.971.845q.143-.637.3-1.275-.55-.345-1.123-.688l1.323-.1c.111-.424.227-.855.348-1.275" transform="translate(-97.504 -13.902)" fill="#ffffc5"/>
          <path id="Trazado_1004739" data-name="Trazado 1004739" d="M156.1,19.831c.1.424.194.861.284,1.29l1.317.168q-.59.313-1.156.631.125.645.236,1.289c-.3-.3-.61-.6-.927-.892q-.555.345-1.086.691.235-.608.485-1.215c-.328-.282-.665-.569-1.009-.849l1.324.1q.259-.607.533-1.211" transform="translate(-110.858 -14.248)" fill="#ffffc5"/>
          <path id="Trazado_1004740" data-name="Trazado 1004740" d="M174.686,23.17c.036.433.063.88.087,1.317l1.277.364q-.63.221-1.238.45.027.657.04,1.31c-.254-.337-.512-.686-.783-1.021q-.6.257-1.176.52.324-.566.661-1.128c-.283-.327-.571-.665-.871-.988.433.09.863.2,1.294.294q.347-.561.708-1.117" transform="translate(-124.114 -16.648)" fill="#ffffc5"/>
          <path id="Trazado_1004741" data-name="Trazado 1004741" d="M192.393,29.313c-.033.44-.071.881-.113,1.318l1.209.549c-.437.082-.868.171-1.292.261q-.072.653-.156,1.3c-.2-.372-.406-.749-.621-1.128q-.632.165-1.242.339.4-.511.824-1.017c-.23-.366-.466-.74-.712-1.109l1.235.486q.427-.5.868-1" transform="translate(-136.689 -21.063)" fill="#ffffc5"/>
          <path id="Trazado_1004742" data-name="Trazado 1004742" d="M208.563,38.133q-.148.647-.308,1.286c.37.242.75.47,1.112.724-.437,0-.884.038-1.315.063q-.168.634-.348,1.26-.214-.6-.448-1.2c-.427.037-.859.1-1.278.148q.478-.445.968-.884-.26-.595-.54-1.2l1.15.662c.332-.288.67-.578,1.005-.854" transform="translate(-148.047 -27.403)" fill="#ffffc5"/>
          <path id="Trazado_1004743" data-name="Trazado 1004743" d="M223.38,49.066q-.241.617-.493,1.224c.331.294.678.57.991.882-.429-.064-.874-.1-1.307-.135q-.259.6-.529,1.194-.126-.619-.269-1.253c-.421-.036-.861-.036-1.284-.046q.539-.37,1.089-.732-.17-.625-.359-1.264l1.043.82c.373-.239.74-.463,1.116-.691" transform="translate(-158.476 -35.168)" fill="#ffffc5"/>
          <path id="Trazado_1004744" data-name="Trazado 1004744" d="M236.527,61.7q-.329.574-.667,1.136l.434.5c.144.168.275.346.414.519l-.63-.177-.641-.152q-.344.556-.7,1.1-.035-.629-.085-1.276l-.625-.131-.635-.106q.588-.288,1.187-.564-.078-.641-.172-1.3c.3.321.614.637.913.964q.6-.264,1.2-.517" transform="translate(-167.752 -44.019)" fill="#ffffc5"/>
          <path id="Trazado_1004745" data-name="Trazado 1004745" d="M247.713,76.239q-.409.518-.826,1.024c.118.187.242.37.355.561l.331.575c-.4-.18-.791-.361-1.205-.515-.283.333-.562.658-.855.986.044-.421.073-.842.1-1.273-.4-.15-.8-.3-1.208-.423.416-.132.838-.261,1.258-.383.012-.431.017-.865.018-1.307.252.364.524.713.758,1.089q.631-.173,1.269-.334" transform="translate(-175.669 -54.249)" fill="#ffffc5"/>
          <path id="Trazado_1004746" data-name="Trazado 1004746" d="M256.684,92.378q-.481.451-.968.889c.191.4.343.816.507,1.226-.374-.237-.731-.473-1.112-.69-.325.285-.659.569-1,.849.118-.414.2-.821.3-1.244-.381-.206-.74-.414-1.129-.6.434-.069.867-.133,1.3-.189.089-.43.146-.853.215-1.291.2.395.412.783.586,1.191q.65-.077,1.307-.141" transform="translate(-182.045 -65.638)" fill="#ffffc5"/>
          <path id="Trazado_1004747" data-name="Trazado 1004747" d="M263.22,109.767q-.543.374-1.089.733c.131.423.21.859.316,1.289-.334-.291-.656-.577-.994-.85-.363.233-.744.465-1.117.69.182-.393.323-.783.48-1.185-.344-.262-.677-.519-1.024-.762.441,0,.869,0,1.306.009.158-.414.275-.823.408-1.245.145.418.287.837.4,1.265q.655.021,1.314.056" transform="translate(-186.726 -77.942)" fill="#ffffc5"/>
          <path id="Trazado_1004748" data-name="Trazado 1004748" d="M267.158,128.019q-.593.288-1.187.561c.066.438.08.881.119,1.322-.286-.338-.561-.668-.855-.99-.394.176-.8.348-1.207.515.239-.361.436-.726.652-1.1-.3-.31-.593-.614-.9-.908.436.062.858.132,1.289.205.219-.385.4-.772.591-1.169l.117.653c.037.218.058.439.088.658q.645.119,1.291.253" transform="translate(-189.594 -90.887)" fill="#ffffc5"/>
          <path id="Trazado_1004749" data-name="Trazado 1004749" d="M268.294,146.713q-.629.2-1.258.379c0,.443-.041.884-.075,1.325-.235-.376-.447-.744-.7-1.105-.419.116-.836.226-1.264.332.28-.322.535-.654.8-.992-.253-.352-.487-.7-.755-1.031q.633.19,1.248.394c.27-.348.5-.7.755-1.069.01.442.031.884.01,1.327q.619.213,1.238.441" transform="translate(-190.465 -104.177)" fill="#ffffc5"/>
          <path id="Trazado_1004750" data-name="Trazado 1004750" d="M266.131,165.436q-.653.1-1.3.187c-.041.217-.073.437-.122.652l-.149.647c-.174-.407-.332-.8-.531-1.2-.434.051-.858.1-1.3.139.32-.278.626-.566.942-.861-.2-.385-.375-.759-.6-1.132.394.187.8.38,1.18.575.309-.306.6-.622.9-.945-.062.438-.1.88-.186,1.314q.58.3,1.158.62" transform="translate(-188.837 -117.515)" fill="#ffffc5"/>
          <path id="Trazado_1004751" data-name="Trazado 1004751" d="M261.308,183.774q-.66,0-1.315-.01c-.134.422-.3.832-.464,1.243-.113-.429-.207-.843-.344-1.264-.435-.014-.866-.031-1.306-.058.363-.225.7-.465,1.062-.709-.138-.41-.256-.807-.419-1.208.362.244.728.495,1.079.746.353-.256.688-.525,1.036-.8-.126.424-.23.855-.382,1.271q.528.386,1.051.787" transform="translate(-185.351 -130.607)" fill="#ffffc5"/>
          <path id="Trazado_1004752" data-name="Trazado 1004752" d="M253.934,200.63q-.652-.1-1.3-.206c-.193.4-.429.773-.646,1.159-.046-.44-.086-.869-.149-1.3-.425-.077-.859-.165-1.287-.255.4-.163.768-.354,1.159-.541-.075-.427-.138-.839-.231-1.257.325.3.639.6.951.9.4-.2.76-.415,1.146-.633-.183.4-.359.809-.569,1.2q.464.461.923.936" transform="translate(-180.086 -142.477)" fill="#ffffc5"/>
          <path id="Trazado_1004753" data-name="Trazado 1004753" d="M244.192,216.174q-.629-.192-1.251-.4c-.257.36-.542.7-.812,1.05q.03-.663.046-1.307-.623-.217-1.238-.446c.418-.1.822-.229,1.229-.361q-.013-.647-.039-1.276.406.508.8,1.026c.42-.135.821-.292,1.23-.454l-.359.559-.384.541q.391.526.775,1.064" transform="translate(-173.174 -153.408)" fill="#ffffc5"/>
          <path id="Trazado_1004754" data-name="Trazado 1004754" d="M232.318,230.192q-.594-.283-1.177-.575l-.96.917q.126-.653.235-1.29-.584-.306-1.157-.622c.423-.047.854-.1,1.271-.173q.081-.644.147-1.271.326.562.643,1.135l.648-.12c.214-.044.424-.095.638-.144-.283.34-.594.656-.9.976q.31.579.611,1.169" transform="translate(-164.78 -163.283)" fill="#ffffc5"/>
          <path id="Trazado_1004755" data-name="Trazado 1004755" d="M218.578,242.388c-.363-.244-.722-.49-1.082-.747l-1.081.77q.219-.63.42-1.246-.531-.388-1.051-.785c.421.01.861.033,1.285.019q.174-.628.329-1.24.24.6.47,1.219c.432-.018.882-.025,1.313-.069-.33.3-.691.553-1.034.831q.222.62.432,1.248" transform="translate(-155.093 -171.896)" fill="#ffffc5"/>
          <path id="Trazado_1004756" data-name="Trazado 1004756" d="M203.269,252.492c-.322-.294-.646-.6-.962-.905l-1.181.606q.31-.592.6-1.174-.467-.462-.922-.931c.416.074.841.15,1.269.213q.264-.6.507-1.182.148.635.285,1.277c.43.046.871.1,1.31.129-.378.23-.765.444-1.148.667q.128.646.243,1.3" transform="translate(-144.326 -179.054)" fill="#ffffc5"/>
          <path id="Trazado_1004757" data-name="Trazado 1004757" d="M186.721,260.262q-.415-.518-.816-1.041c-.42.14-.837.288-1.258.422.266-.353.519-.717.768-1.071q-.392-.526-.771-1.057.6.2,1.222.4c.235-.363.459-.733.677-1.094q.052.65.091,1.307.627.167,1.277.325l-1.235.488c.02.438.037.883.045,1.321" transform="translate(-132.71 -184.592)" fill="#ffffc5"/>
          <path id="Trazado_1004758" data-name="Trazado 1004758" d="M168.491,265.508q-.332-.574-.65-1.152c-.436.076-.87.161-1.308.229.316-.307.621-.631.92-.943q-.309-.579-.6-1.16.562.291,1.148.578c.288-.319.564-.656.834-.979q-.046.651-.106,1.306.595.258,1.213.511l-1.293.3c-.046.436-.1.88-.154,1.31" transform="translate(-119.693 -188.372)" fill="#ffffc5"/>
          <path id="Trazado_1004759" data-name="Trazado 1004759" d="M149.8,268.115q-.243-.618-.471-1.237l-1.327.033q.537-.4,1.05-.8-.22-.619-.425-1.238.513.372,1.05.745c.332-.278.656-.565.971-.845q-.143.637-.3,1.275.55.345,1.123.688l-1.323.1c-.111.424-.227.855-.348,1.275" transform="translate(-106.372 -190.309)" fill="#ffffc5"/>
          <path id="Trazado_1004760" data-name="Trazado 1004760" d="M66.94,98.654A31.715,31.715,0,1,1,98.654,66.94,31.75,31.75,0,0,1,66.94,98.654" transform="translate(-25.312 -25.313)" fill="#d35560"/>
        </g>
      </g>
      <g id="Grupo_1180053" data-name="Grupo 1180053" transform="translate(21.809 21.57)">
        <rect id="Rectángulo_401104" data-name="Rectángulo 401104" width="39.638" height="40.116" transform="translate(0)" fill="#d35560"/>
      </g>
    </g>
    <g id="Grupo_1180431" data-name="Grupo 1180431" transform="translate(349.076 9348.656)">
      <path id="Trazado_1021788" data-name="Trazado 1021788" d="M188.993,842.54v.335a.611.611,0,0,1-.61.61H186.96a.611.611,0,0,1-.61-.61v-.335Z" transform="translate(-96.934 -696.039)" fill="#757575"/>
      <path id="Trazado_1021789" data-name="Trazado 1021789" d="M763.812,842.54v.335a.61.61,0,0,1-.61.61h-1.423a.61.61,0,0,1-.61-.61v-.335Z" transform="translate(-641.336 -696.039)" fill="#757575"/>
      <rect id="Rectángulo_456630" data-name="Rectángulo 456630" width="40.506" height="3.24" rx="1.62" transform="translate(85.693 141.568)" fill="#455a64"/>
      <path id="Trazado_1021790" data-name="Trazado 1021790" d="M405.709,245.34v2.04l-.794-.251a.851.851,0,0,0-.511,0l-.794.251v-2.04Z" transform="translate(-302.697 -130.442)" fill="#f57f17"/>
      <path id="Trazado_1021791" data-name="Trazado 1021791" d="M316.227,245.34v3.2a.847.847,0,0,1-1.1.808l-1.64-.519-1.64.519a.847.847,0,0,1-1.1-.807v-3.2h-3.4v11.642h12.289V245.341Zm1.217,9.988h-7.921a.847.847,0,1,1,0-1.693h7.922a.847.847,0,0,1,0,1.693Z" transform="translate(-211.521 -130.442)" fill="#fcb64d"/>
      <path id="Trazado_1021792" data-name="Trazado 1021792" d="M537.819,497.33v2.04l-.794-.251a.843.843,0,0,0-.511,0l-.794.251v-2.04Z" transform="translate(-427.816 -369.097)" fill="#f57f17"/>
      <path id="Trazado_1021793" data-name="Trazado 1021793" d="M448.336,497.33v3.2a.847.847,0,0,1-1.1.808l-1.64-.52-1.64.52a.847.847,0,0,1-1.1-.808v-3.2h-3.4v11.642h12.289V497.331Zm1.217,9.988h-7.921a.847.847,0,1,1,0-1.693h7.922a.847.847,0,0,1,0,1.693Zm0-2.972h-7.921a.847.847,0,1,1,0-1.693h7.922a.847.847,0,0,1,0,1.693Z" transform="translate(-336.64 -369.097)" fill="#fcb64d"/>
      <path id="Trazado_1021794" data-name="Trazado 1021794" d="M273.6,497.33v2.04l-.794-.251a.843.843,0,0,0-.511,0l-.794.251v-2.04Z" transform="translate(-177.578 -369.097)" fill="#f57f17"/>
      <path id="Trazado_1021795" data-name="Trazado 1021795" d="M184.116,497.33v3.2a.847.847,0,0,1-1.1.808l-1.64-.52-1.64.52a.847.847,0,0,1-1.1-.808v-3.2h-3.4v11.642h12.289V497.331Zm1.217,9.988h-7.921a.847.847,0,1,1,0-1.693h7.922a.847.847,0,0,1,0,1.693Zm0-2.972h-7.921a.847.847,0,0,1,0-1.693h7.922a.847.847,0,0,1,0,1.693Z" transform="translate(-86.402 -369.097)" fill="#fcb64d"/>
      <path id="Trazado_1021796" data-name="Trazado 1021796" d="M710.51,139.61v4.382h9.181V139.61Zm2.037,3.037h-.476a.847.847,0,0,1,0-1.693h.476a.847.847,0,0,1,0,1.693Zm2.792,0h-.48a.847.847,0,0,1,0-1.693h.48a.847.847,0,0,1,0,1.693Zm2.792,0h-.48a.847.847,0,0,1,0-1.693h.48a.847.847,0,0,1,0,1.693Z" transform="translate(-593.357 -30.307)" fill="#0288d1"/>
      <path id="Trazado_1021797" data-name="Trazado 1021797" d="M772.29,254.42h2.642v24.5H772.29Z" transform="translate(-651.867 -139.041)" fill="#455a64"/>
      <g id="Grupo_1180429" data-name="Grupo 1180429" transform="translate(85.164 109.833)" opacity="0.5">
        <path id="Trazado_1021798" data-name="Trazado 1021798" d="M178.993,852.54v.335a.611.611,0,0,1-.61.61H176.96a.611.611,0,0,1-.61-.61v-.335Z" transform="translate(-172.627 -815.342)" fill="#fff"/>
        <path id="Trazado_1021799" data-name="Trazado 1021799" d="M753.812,852.54v.335a.61.61,0,0,1-.61.61h-1.423a.61.61,0,0,1-.61-.61v-.335Z" transform="translate(-717.029 -815.342)" fill="#fff"/>
        <rect id="Rectángulo_456631" data-name="Rectángulo 456631" width="40.506" height="3.24" rx="1.62" transform="translate(0 32.264)" fill="#fff"/>
        <path id="Trazado_1021800" data-name="Trazado 1021800" d="M395.709,255.34v2.04l-.794-.251a.851.851,0,0,0-.511,0l-.794.251v-2.04Z" transform="translate(-378.39 -249.745)" fill="#fff"/>
        <path id="Trazado_1021801" data-name="Trazado 1021801" d="M306.227,255.34v3.2a.847.847,0,0,1-1.1.807l-1.64-.519-1.64.519a.847.847,0,0,1-1.1-.807v-3.2h-3.4v11.642h12.289V255.341Zm1.217,9.988h-7.921a.847.847,0,1,1,0-1.693h7.922a.847.847,0,0,1,0,1.693Z" transform="translate(-287.215 -249.745)" fill="#fff"/>
        <path id="Trazado_1021802" data-name="Trazado 1021802" d="M527.819,507.33v2.04l-.794-.251a.843.843,0,0,0-.511,0l-.794.251v-2.04Z" transform="translate(-503.509 -488.4)" fill="#fff"/>
        <path id="Trazado_1021803" data-name="Trazado 1021803" d="M438.336,507.33v3.2a.847.847,0,0,1-1.1.808l-1.64-.52-1.64.52a.847.847,0,0,1-1.1-.808v-3.2h-3.4v11.642h12.289V507.331Zm1.217,9.988h-7.921a.847.847,0,0,1,0-1.693h7.922a.847.847,0,0,1,0,1.693Zm0-2.972h-7.921a.847.847,0,0,1,0-1.693h7.922a.847.847,0,0,1,0,1.693Z" transform="translate(-412.334 -488.4)" fill="#fff"/>
        <path id="Trazado_1021804" data-name="Trazado 1021804" d="M263.6,507.33v2.04l-.794-.251a.843.843,0,0,0-.511,0l-.794.251v-2.04Z" transform="translate(-253.271 -488.4)" fill="#fff"/>
        <path id="Trazado_1021805" data-name="Trazado 1021805" d="M174.116,507.33v3.2a.847.847,0,0,1-1.1.808l-1.64-.52-1.64.52a.847.847,0,0,1-1.1-.808v-3.2h-3.4v11.642h12.289V507.331Zm1.217,9.988h-7.921a.847.847,0,0,1,0-1.693h7.922a.847.847,0,1,1,0,1.693Zm0-2.972h-7.921a.847.847,0,0,1,0-1.693h7.922a.847.847,0,1,1,0,1.693Z" transform="translate(-162.096 -488.4)" fill="#fff"/>
        <path id="Trazado_1021806" data-name="Trazado 1021806" d="M700.51,149.61v4.382h9.181V149.61Zm2.037,3.037h-.476a.847.847,0,0,1,0-1.693h.476a.847.847,0,1,1,0,1.693Zm2.792,0h-.48a.847.847,0,0,1,0-1.693h.48a.847.847,0,0,1,0,1.693Zm2.792,0h-.48a.847.847,0,0,1,0-1.693h.48a.847.847,0,0,1,0,1.693Z" transform="translate(-669.05 -149.61)" fill="#fff"/>
        <path id="Trazado_1021807" data-name="Trazado 1021807" d="M762.29,264.42h2.642v24.5H762.29Z" transform="translate(-727.561 -258.345)" fill="#fff"/>
      </g>
      <g id="Grupo_1180430" data-name="Grupo 1180430" transform="translate(84 107.61)">
        <path id="Trazado_1021808" data-name="Trazado 1021808" d="M735.2,811.4v1.181a2.306,2.306,0,0,1-2.3,2.3h-1.423a2.306,2.306,0,0,1-2.3-2.3V811.4a.847.847,0,0,1,1.693,0v1.181a.61.61,0,0,0,.61.61H732.9a.61.61,0,0,0,.61-.61V811.4a.847.847,0,0,1,1.693,0Z" transform="translate(-695.029 -773.352)" fill="#413b32"/>
        <path id="Trazado_1021809" data-name="Trazado 1021809" d="M160.379,811.4v1.181a2.306,2.306,0,0,1-2.3,2.3h-1.423a2.306,2.306,0,0,1-2.3-2.3V811.4a.847.847,0,0,1,1.693,0v1.181a.611.611,0,0,0,.61.61h1.423a.611.611,0,0,0,.61-.61V811.4a.847.847,0,0,1,1.693,0Z" transform="translate(-150.627 -773.352)" fill="#413b32"/>
        <path id="Trazado_1021810" data-name="Trazado 1021810" d="M125.779,717.32H86.114A2.117,2.117,0,0,0,84,719.434v2.4a2.117,2.117,0,0,0,2.114,2.114h39.666a2.117,2.117,0,0,0,2.114-2.114v-2.4A2.117,2.117,0,0,0,125.779,717.32Zm.42,4.513a.423.423,0,0,1-.42.42H86.114a.423.423,0,0,1-.42-.42v-2.4a.423.423,0,0,1,.42-.42h39.666a.423.423,0,0,1,.42.42Z" transform="translate(-84 -685.056)" fill="#413b32"/>
        <path id="Trazado_1021811" data-name="Trazado 1021811" d="M290.169,213.34H276.187a.847.847,0,0,0-.847.847v13.335a.847.847,0,0,0,.847.847h13.982a.847.847,0,0,0,.847-.847V214.187A.847.847,0,0,0,290.169,213.34Zm-13.135,1.693h12.289v11.642H277.033Z" transform="translate(-265.215 -207.745)" fill="#413b32"/>
        <path id="Trazado_1021812" data-name="Trazado 1021812" d="M377.1,214.187v4.043a.847.847,0,0,1-1.1.808l-1.64-.519-1.64.519a.847.847,0,0,1-1.1-.807v-4.043a.847.847,0,1,1,1.693,0v2.887l.794-.251a.851.851,0,0,1,.511,0l.794.251v-2.887a.847.847,0,0,1,1.693,0Z" transform="translate(-356.39 -207.745)" fill="#413b32"/>
        <path id="Trazado_1021813" data-name="Trazado 1021813" d="M342.206,402.927a.847.847,0,0,1-.847.847h-7.922a.847.847,0,0,1,0-1.693h7.922A.847.847,0,0,1,342.206,402.927Z" transform="translate(-319.435 -386.497)" fill="#413b32"/>
        <path id="Trazado_1021814" data-name="Trazado 1021814" d="M422.279,465.32H408.3a.847.847,0,0,0-.847.847V479.5a.847.847,0,0,0,.847.847h13.982a.847.847,0,0,0,.847-.847V466.167a.847.847,0,0,0-.847-.846Zm-13.135,13.335V467.013h12.289v11.642Z" transform="translate(-390.334 -446.391)" fill="#413b32"/>
        <path id="Trazado_1021815" data-name="Trazado 1021815" d="M509.205,466.177v4.043a.847.847,0,0,1-1.1.808l-1.64-.52-1.64.52a.847.847,0,0,1-1.1-.807v-4.043a.847.847,0,0,1,1.693,0v2.887l.794-.251a.843.843,0,0,1,.511,0l.794.251v-2.887a.847.847,0,1,1,1.693,0Z" transform="translate(-481.509 -446.4)" fill="#413b32"/>
        <path id="Trazado_1021816" data-name="Trazado 1021816" d="M474.316,598.747a.847.847,0,0,1-.847.847h-7.922a.847.847,0,0,1,0-1.693h7.922A.847.847,0,0,1,474.316,598.747Z" transform="translate(-444.554 -571.955)" fill="#413b32"/>
        <path id="Trazado_1021817" data-name="Trazado 1021817" d="M474.316,654.917a.847.847,0,0,1-.847.847h-7.922a.847.847,0,0,1,0-1.693h7.922A.847.847,0,0,1,474.316,654.917Z" transform="translate(-444.554 -625.153)" fill="#413b32"/>
        <path id="Trazado_1021818" data-name="Trazado 1021818" d="M158.059,465.33H144.077a.847.847,0,0,0-.847.847v13.335a.847.847,0,0,0,.847.847h13.982a.847.847,0,0,0,.847-.847V466.177A.847.847,0,0,0,158.059,465.33Zm-13.135,13.335V467.023h12.289v11.642Z" transform="translate(-140.096 -446.4)" fill="#413b32"/>
        <path id="Trazado_1021819" data-name="Trazado 1021819" d="M244.985,466.177v4.043a.847.847,0,0,1-1.1.808l-1.64-.52-1.64.52a.847.847,0,0,1-1.1-.807v-4.043a.847.847,0,0,1,1.693,0v2.887l.794-.251a.843.843,0,0,1,.511,0l.794.251v-2.887a.847.847,0,0,1,1.693,0Z" transform="translate(-231.271 -446.4)" fill="#413b32"/>
        <path id="Trazado_1021820" data-name="Trazado 1021820" d="M210.1,598.747a.847.847,0,0,1-.847.847h-7.922a.847.847,0,1,1,0-1.693h7.922A.847.847,0,0,1,210.1,598.747Z" transform="translate(-194.316 -571.955)" fill="#413b32"/>
        <path id="Trazado_1021821" data-name="Trazado 1021821" d="M210.1,654.917a.847.847,0,0,1-.847.847h-7.922a.847.847,0,1,1,0-1.693h7.922A.847.847,0,0,1,210.1,654.917Z" transform="translate(-194.316 -625.153)" fill="#413b32"/>
        <path id="Trazado_1021822" data-name="Trazado 1021822" d="M746.319,223.267v26.188a.847.847,0,1,1-1.693,0V224.113h-2.642v25.342a.847.847,0,1,1-1.693,0V223.267a.847.847,0,0,1,.847-.847h4.336A.847.847,0,0,1,746.319,223.267Z" transform="translate(-705.561 -216.344)" fill="#413b32"/>
        <path id="Trazado_1021823" data-name="Trazado 1021823" d="M690.231,107.61H679.357a.847.847,0,0,0-.847.847v6.075a.847.847,0,0,0,.847.847h10.874a.847.847,0,0,0,.847-.847v-6.075A.847.847,0,0,0,690.231,107.61Zm-.847,6.075H680.2V109.3h9.181Z" transform="translate(-647.05 -107.61)" fill="#413b32"/>
        <path id="Trazado_1021824" data-name="Trazado 1021824" d="M726.17,165.847a.847.847,0,0,1-.847.847h-.476a.847.847,0,0,1,0-1.693h.476A.847.847,0,0,1,726.17,165.847Z" transform="translate(-690.133 -161.963)" fill="#413b32"/>
        <path id="Trazado_1021825" data-name="Trazado 1021825" d="M778.893,165.847a.847.847,0,0,1-.847.847h-.48a.847.847,0,0,1,0-1.693h.48A.847.847,0,0,1,778.893,165.847Z" transform="translate(-740.063 -161.963)" fill="#413b32"/>
        <path id="Trazado_1021826" data-name="Trazado 1021826" d="M831.653,165.847a.847.847,0,0,1-.847.847h-.48a.847.847,0,0,1,0-1.693h.48A.847.847,0,0,1,831.653,165.847Z" transform="translate(-790.031 -161.963)" fill="#413b32"/>
      </g>
    </g>
  </g>
</svg>
