<svg xmlns="http://www.w3.org/2000/svg" width="70" height="70" viewBox="0 0 70 70">
  <g id="Grupo_1180361" data-name="Grupo 1180361" transform="translate(-209.711 -467)">
    <rect id="Rectángulo_456474" data-name="Rectángulo 456474" width="70" height="70" transform="translate(209.711 467)" fill="#fee7bd"/>
    <g id="filled_outline" data-name="filled outline" transform="translate(189.479 425.82)">
      <path id="Trazado_1021176" data-name="Trazado 1021176" d="M254.709,70.7H248V66.514L251.356,64l3.352,2.514Z" transform="translate(-193.334 -7.162)" fill="#cb2527"/>
      <path id="Trazado_1021177" data-name="Trazado 1021177" d="M254.709,78.343H248V75.514L251.356,73l3.352,2.514Z" transform="translate(-193.334 -15.219)" fill="#eae9e4"/>
      <path id="Trazado_1021178" data-name="Trazado 1021178" d="M272.838,100.191a.838.838,0,0,1-.838-.838V96.838a.838.838,0,0,1,1.676,0v2.514A.838.838,0,0,1,272.838,100.191Z" transform="translate(-214.816 -35.809)" fill="#cb2527"/>
      <circle id="Elipse_13685" data-name="Elipse 13685" cx="13.41" cy="13.41" r="13.41" transform="translate(44.613 63.543)" fill="#a6deff"/>
      <path id="Trazado_1021179" data-name="Trazado 1021179" d="M92.107,378.381l-4.49-2.127v-5.41l4.49,2.127Z" transform="translate(-49.75 -281.86)" fill="#a3612d"/>
      <path id="Trazado_1021180" data-name="Trazado 1021180" d="M134.966,376.254l-4.49,2.127v-5.41l4.49-2.127Z" transform="translate(-88.119 -281.86)" fill="#7a4922"/>
      <path id="Trazado_1021181" data-name="Trazado 1021181" d="M96.6,354.689l-4.49-1.891-4.49,1.891L92.1,356.9Z" transform="translate(-49.75 -265.705)" fill="#915628"/>
      <path id="Trazado_1021182" data-name="Trazado 1021182" d="M77.8,60.334c-1.054-1.489-3.227-1.951-6.457-1.372a37.84,37.84,0,0,0-9.129,3.2V59.352a.838.838,0,0,0-.335-.67l-3.352-2.514a.838.838,0,0,0-1.006,0l-3.352,2.514a.838.838,0,0,0-.336.67v3.982a14.3,14.3,0,0,0-9.76,10.717h0A53.052,53.052,0,0,0,34.343,84.4c-2.309,3.467-2.891,6.2-1.687,7.9.76,1.072,2.107,1.611,4.014,1.611.117,0,.237,0,.358-.007v.486a.838.838,0,0,0,.479.757L42,97.278a.834.834,0,0,0,.712,0l.005,0,4.49-2.127a.838.838,0,0,0,.479-.757V90.737q1.512-.7,3.078-1.53A14.247,14.247,0,0,0,71.838,73.469c1-1.048,1.9-2.083,2.706-3.094,3.588-4.51,4.713-7.983,3.255-10.042ZM68.073,84.5H63.7q.407-1.664.655-3.352h5.52A12.559,12.559,0,0,1,68.073,84.5Zm-9.213,5V86.172h2.633q-.5,1.587-1.147,3.136a12.539,12.539,0,0,1-1.486.188ZM55.7,89.308q-.5-1.182-.9-2.389.606-.367,1.212-.747h1.178V89.5a12.537,12.537,0,0,1-1.486-.188Zm-7.726-19.9h3.938q-.308,1.669-.457,3.352H46.17A12.556,12.556,0,0,1,47.971,69.41Zm9.212-5v3.324h-3.2q.365-1.485.865-2.946A12.516,12.516,0,0,1,57.184,64.41Zm4.012.377q.5,1.46.865,2.946h-3.2V64.41a12.515,12.515,0,0,1,2.336.377ZM54.075,84.5q-.428-1.663-.688-3.352h3.8V83.41q-.832.556-1.665,1.086ZM53.021,74.438h4.162v5.029H53.171a34.255,34.255,0,0,1-.15-5.029Zm.115-1.676q.157-1.683.48-3.352h3.567v3.352Zm5.723,8.381h1.565c-.389.285-1.436,1.029-1.565,1.119Zm0,3.157c.452-.309,2.948-2.088,3.72-2.671q-.242,1.442-.611,2.867H58.86Zm4.033-5.029-.25.2H58.86V74.438h4.163a34.263,34.263,0,0,1-.129,4.834ZM64.7,74.438h3.8c-1.184,1.128-2.462,2.262-3.818,3.388Q64.773,76.134,64.7,74.438ZM58.86,72.762V69.41h3.568q.323,1.668.48,3.352Zm-6.6-5.029H49.485a12.616,12.616,0,0,1,3.375-2.243Q52.523,66.605,52.26,67.733Zm-.917,6.7a35.944,35.944,0,0,0,.142,5.029H45.7a12.63,12.63,0,0,1,0-5.029Zm.347,6.7q.247,1.687.655,3.352H47.971a12.556,12.556,0,0,1-1.8-3.352Zm1.086,5.029q-.973.569-1.936,1.093a12.675,12.675,0,0,1-1.355-1.093Zm10.47,0H66.56a12.593,12.593,0,0,1-4.184,2.575q.484-1.275.87-2.575Zm2.082-6.7c1.845-1.512,3.557-3.044,5.1-4.561a12.618,12.618,0,0,1-.086,4.561Zm-.735-6.7q-.149-1.682-.457-3.352h3.937a12.559,12.559,0,0,1,1.8,3.352Zm-.808-5.029q-.264-1.128-.6-2.243a12.616,12.616,0,0,1,3.375,2.243Zm-5.764-9.848,2.514,1.886v3.156a14.225,14.225,0,0,0-1.676-.2v-1.7a.838.838,0,0,0-1.676,0v1.7a14.226,14.226,0,0,0-1.676.2V59.771Zm-15.665,32.3L39.92,89.029,42.357,88l2.437,1.027ZM41.519,95.2l-2.814-1.333V90.308l2.814,1.333Zm1.676,0V91.641l2.76-1.307a.836.836,0,0,0,.054.2v3.326Zm4.484-6.309a.837.837,0,0,0-.384-.611c-.036-.023-4.613-1.955-4.613-1.955a.838.838,0,0,0-.65,0s-4.579,1.933-4.613,1.955a.838.838,0,0,0-.39.708v3.247c-1.878.077-2.671-.428-3-.9-.748-1.056-.124-3.245,1.714-6a49.019,49.019,0,0,1,8.043-8.807c0,.143-.007.286-.007.43A14.23,14.23,0,0,0,49.2,88.133Q48.433,88.525,47.679,88.887Zm5.642-1.095q.167.479.348.955a12.523,12.523,0,0,1-1.154-.495Q52.917,88.026,53.321,87.792ZM71.246,71.649a14.325,14.325,0,0,0-8.2-8.029,35.93,35.93,0,0,1,8.592-3.008c2.463-.441,4.166-.2,4.794.691.546.772.264,2.013-.07,2.919a19.912,19.912,0,0,1-3.129,5.111q-.906,1.139-1.987,2.317Z" transform="translate(0)"/>
    </g>
  </g>
</svg>
