<svg xmlns="http://www.w3.org/2000/svg" width="84" height="84" viewBox="0 0 84 84">
  <g id="Grupo_1180378" data-name="Grupo 1180378" transform="translate(-185.711 -5855)">
    <rect id="Rectángulo_456493" data-name="Rectángulo 456493" width="84" height="84" rx="10" transform="translate(185.711 5855)" fill="#f2a4ab"/>
    <g id="Grupo_1180377" data-name="Grupo 1180377" transform="translate(91.301 5785.99)">
      <path id="Trazado_1021286" data-name="Trazado 1021286" d="M168.481,133.464l-9.34-8.219a3.858,3.858,0,0,0-5.085,0l-9.34,8.219a3.851,3.851,0,0,0-1.306,2.891v32.9a3.855,3.855,0,0,0,3.848,3.849h18.678a3.855,3.855,0,0,0,3.849-3.849V166.54a.349.349,0,0,1,0-.037V139.1a.349.349,0,0,1,0-.037v-2.714a3.85,3.85,0,0,0-1.3-2.889ZM156.6,129.545a4.965,4.965,0,0,1,4.069,7.812.978.978,0,0,1-.091.128,4.966,4.966,0,1,1-3.978-7.937Zm9.471,38.809a1.028,1.028,0,0,1-1.028,1.028H148.156a1.028,1.028,0,0,1-1.028-1.028V143.772a1.028,1.028,0,0,1,.764-.994,1.07,1.07,0,0,1,.3-.034h16.827a1.028,1.028,0,0,1,1.054,1.028Z" transform="translate(-29.944 -37.691)" fill="#ff3d00"/>
      <path id="Trazado_1021287" data-name="Trazado 1021287" d="M233.27,443.52v22.528H248.1V443.52Zm7.359,10.231h.018a1.881,1.881,0,0,0,.209.014h.048a.283.283,0,0,1,.064.005,4.133,4.133,0,0,1,.745,8.05v.544a1.028,1.028,0,1,1-2.056,0v-.436a4.15,4.15,0,0,1-2.763-1.992,1.028,1.028,0,1,1,1.781-1.028,2.085,2.085,0,0,0,1.8,1.045h.159a2.078,2.078,0,0,0,.132-4.13c-.118,0-.235-.012-.351-.025H240.4a4.133,4.133,0,0,1-.747-8.05V447.2a1.028,1.028,0,0,1,2.056,0v.44a4.146,4.146,0,0,1,2.763,1.992,1.028,1.028,0,1,1-1.783,1.024,2.085,2.085,0,0,0-1.8-1.045,1.49,1.49,0,0,0-.152.005,2.077,2.077,0,0,0-.108,4.133Z" transform="translate(-114.03 -336.411)" fill="#388e3c"/>
      <path id="Trazado_1021288" data-name="Trazado 1021288" d="M587.477,581.445h0c-.037.021-.073.041-.115.061a2.07,2.07,0,0,1-1.428.153v-4.029a2.077,2.077,0,0,1,1.547,3.815Z" transform="translate(-444.031 -461.844)" fill="#388e3c"/>
      <path id="Trazado_1021289" data-name="Trazado 1021289" d="M447.091,161.057a3.821,3.821,0,0,1-1.937,2.218l-15.709,7.785a5.869,5.869,0,0,0,.459-2.282v-2.1l12.8-6.34a1.028,1.028,0,0,0,.465-1.378l-10.906-22.009c0-.006-.006-.012-.009-.018a.989.989,0,0,0-.12-.188.953.953,0,0,0-.1-.1c-.018-.017-.035-.032-.054-.047s-.037-.03-.057-.043l-.059-.039a.51.51,0,0,0-.064-.034c-.024-.011-.042-.021-.064-.03a.963.963,0,0,0-.27-.076c-.023,0-.046-.006-.07-.007s-.046,0-.069,0h-.064a.2.2,0,0,0-.055.005l-.035.005a.321.321,0,0,0-.049.009l-.039.008a.44.44,0,0,0-.052.013l-.034.011-.031.011-.021.008-.037.016a.453.453,0,0,0-.047.022l-.017.008-.94.466v-1.075a5.907,5.907,0,0,0-2-4.433l-8.7-7.664,10.642,2.85a3.844,3.844,0,0,1,2.453,2.009l14.608,29.479A3.822,3.822,0,0,1,447.091,161.057Z" transform="translate(-288.004 -37.215)" fill="#ffc400"/>
      <path id="Trazado_1021290" data-name="Trazado 1021290" d="M596.892,377.285l-10.962,5.431v-5.269a4.068,4.068,0,0,0,.508.031,4.143,4.143,0,0,0,1.06-.138l.193.393a1.028,1.028,0,1,0,1.843-.911l-.242-.488a4.135,4.135,0,0,0-3.36-7.091v-3.185a1.028,1.028,0,0,0,.428-1.872,4.155,4.155,0,0,0-.428-.251v-6.361l.959-.475Z" transform="translate(-444.031 -255.543)" fill="#388e3c"/>
      <g id="Grupo_1180375" data-name="Grupo 1180375" transform="translate(112.824 87.208)" opacity="0.5">
        <path id="Trazado_1021291" data-name="Trazado 1021291" d="M158.481,143.464l-9.34-8.219a3.858,3.858,0,0,0-5.085,0l-9.34,8.219a3.851,3.851,0,0,0-1.306,2.891v32.9a3.855,3.855,0,0,0,3.848,3.849h18.678a3.855,3.855,0,0,0,3.849-3.849V176.54a.349.349,0,0,1,0-.037V149.1a.349.349,0,0,1,0-.037v-2.714a3.85,3.85,0,0,0-1.3-2.889ZM146.6,139.545a4.965,4.965,0,0,1,4.069,7.812.979.979,0,0,1-.091.129,4.966,4.966,0,1,1-3.978-7.937Zm9.471,38.809a1.028,1.028,0,0,1-1.028,1.028H138.156a1.028,1.028,0,0,1-1.028-1.028V153.772a1.028,1.028,0,0,1,.764-.994,1.07,1.07,0,0,1,.3-.034h16.827a1.028,1.028,0,0,1,1.054,1.028Z" transform="translate(-133.41 -134.256)" fill="#fff"/>
        <path id="Trazado_1021292" data-name="Trazado 1021292" d="M223.27,453.52v22.528H238.1V453.52Zm7.359,10.231h.018a1.9,1.9,0,0,0,.209.013h.048a.283.283,0,0,1,.064.005,4.133,4.133,0,0,1,.745,8.05v.544a1.028,1.028,0,1,1-2.056,0v-.436a4.15,4.15,0,0,1-2.763-1.992,1.028,1.028,0,1,1,1.781-1.028,2.085,2.085,0,0,0,1.8,1.045h.159a2.078,2.078,0,0,0,.132-4.13c-.118,0-.235-.012-.351-.025H230.4a4.133,4.133,0,0,1-.747-8.05V457.2a1.028,1.028,0,0,1,2.056,0v.44a4.146,4.146,0,0,1,2.763,1.992,1.028,1.028,0,1,1-1.783,1.024,2.085,2.085,0,0,0-1.8-1.045,1.5,1.5,0,0,0-.152.005,2.077,2.077,0,0,0-.108,4.133Z" transform="translate(-217.496 -432.976)" fill="#fff"/>
        <path id="Trazado_1021293" data-name="Trazado 1021293" d="M577.477,591.445h0c-.037.021-.073.04-.115.061a2.07,2.07,0,0,1-1.428.153v-4.029a2.077,2.077,0,0,1,1.547,3.815Z" transform="translate(-547.497 -558.409)" fill="#fff"/>
        <path id="Trazado_1021294" data-name="Trazado 1021294" d="M437.091,171.057a3.821,3.821,0,0,1-1.937,2.218l-15.709,7.785a5.869,5.869,0,0,0,.459-2.282v-2.1l12.8-6.34a1.028,1.028,0,0,0,.465-1.378l-10.906-22.009c0-.006-.006-.012-.009-.018a.987.987,0,0,0-.12-.188.951.951,0,0,0-.1-.1c-.018-.017-.035-.032-.054-.047s-.037-.03-.057-.043l-.059-.039a.5.5,0,0,0-.064-.034c-.024-.011-.042-.021-.064-.03a.963.963,0,0,0-.27-.076c-.023,0-.046-.006-.07-.007s-.046,0-.069,0h-.064a.2.2,0,0,0-.055.005l-.035.005a.324.324,0,0,0-.049.009l-.039.008a.443.443,0,0,0-.052.013l-.034.011-.031.011-.021.008-.037.016a.45.45,0,0,0-.047.022l-.017.008-.94.466v-1.075a5.907,5.907,0,0,0-2-4.433l-8.7-7.664,10.642,2.85a3.844,3.844,0,0,1,2.453,2.009l14.608,29.479A3.822,3.822,0,0,1,437.091,171.057Z" transform="translate(-391.47 -133.78)" fill="#fff"/>
        <path id="Trazado_1021295" data-name="Trazado 1021295" d="M586.892,387.285l-10.962,5.431v-5.269a4.056,4.056,0,0,0,.508.031,4.142,4.142,0,0,0,1.06-.138l.193.393a1.028,1.028,0,1,0,1.843-.911l-.242-.488a4.135,4.135,0,0,0-3.36-7.091v-3.185a1.028,1.028,0,0,0,.428-1.872,4.142,4.142,0,0,0-.428-.251v-6.361l.959-.475Z" transform="translate(-547.497 -352.109)" fill="#fff"/>
      </g>
      <g id="Grupo_1180376" data-name="Grupo 1180376" transform="translate(111.41 84.01)">
        <path id="Trazado_1021296" data-name="Trazado 1021296" d="M295.375,516.719a4.134,4.134,0,0,1-7.719,2.058,1.029,1.029,0,1,1,1.782-1.03,2.085,2.085,0,0,0,1.8,1.045h.159a2.078,2.078,0,0,0,.132-4.13c-.118,0-.235-.012-.351-.025h-.017a4.133,4.133,0,0,1,.486-8.238,4.079,4.079,0,0,1,.823.084,4.146,4.146,0,0,1,2.763,1.992,1.028,1.028,0,1,1-1.783,1.024,2.085,2.085,0,0,0-1.8-1.045,1.5,1.5,0,0,0-.152.005,2.077,2.077,0,0,0-.108,4.133h.018a1.881,1.881,0,0,0,.209.014h.048a.283.283,0,0,1,.064.005A4.132,4.132,0,0,1,295.375,516.719Z" transform="translate(-276.203 -479.26)" fill="#413b32"/>
        <path id="Trazado_1021297" data-name="Trazado 1021297" d="M334.726,700.294v1.391a1.028,1.028,0,1,1-2.056,0v-1.391a1.028,1.028,0,0,1,.929-1.024h.1A1.028,1.028,0,0,1,334.726,700.294Z" transform="translate(-318.453 -659.738)" fill="#413b32"/>
        <path id="Trazado_1021298" data-name="Trazado 1021298" d="M334.726,485.828v1.391a1.028,1.028,0,0,1-.975,1.028H333.7a1.028,1.028,0,0,1-1.028-1.028v-1.391a1.028,1.028,0,0,1,2.056,0Z" transform="translate(-318.453 -459.048)" fill="#413b32"/>
        <path id="Trazado_1021299" data-name="Trazado 1021299" d="M141.754,118.288a1.028,1.028,0,0,1-.571-.174,2.064,2.064,0,0,0-.589-.272,1.028,1.028,0,0,1-.75-.937v19.67a1.028,1.028,0,0,1,.571-.9l1.485-.736V118.277A.916.916,0,0,1,141.754,118.288Zm0,5.3c-.105.049-.215.094-.328.134l-.015.006c-.089.031-.177.06-.262.084a1.028,1.028,0,0,1-1.268-.707,1.041,1.041,0,0,1-.039-.263v5.4a1.028,1.028,0,0,1,1.535-.872,2.062,2.062,0,0,0,.521.209v-4.029a1.364,1.364,0,0,0-.143.04Zm0,0c-.105.049-.215.094-.328.134l-.015.006c-.089.031-.177.06-.262.084a1.028,1.028,0,0,1-1.268-.707,1.041,1.041,0,0,1-.039-.263v5.4a1.028,1.028,0,0,1,1.535-.872,2.062,2.062,0,0,0,.521.209v-4.029a1.364,1.364,0,0,0-.143.04Zm-1.863-21.6-8.7-7.665-.63-.555a5.917,5.917,0,0,0-7.8,0l-9.34,8.219a5.906,5.906,0,0,0-2,4.433v32.9a5.911,5.911,0,0,0,5.9,5.907h18.678a5.875,5.875,0,0,0,2.7-.656,5.945,5.945,0,0,0,2.742-2.967,5.869,5.869,0,0,0,.459-2.282v-32.9a5.907,5.907,0,0,0-2-4.435Zm-22.576,41.181a3.855,3.855,0,0,1-3.848-3.849v-32.9a3.851,3.851,0,0,1,1.306-2.891l9.34-8.22a3.858,3.858,0,0,1,5.085,0l9.34,8.219a3.85,3.85,0,0,1,1.306,2.891v32.9a3.855,3.855,0,0,1-3.851,3.849Zm24.441-19.58c-.105.049-.215.094-.328.134l-.015.006c-.089.031-.177.06-.262.084a1.028,1.028,0,0,1-1.268-.707,1.042,1.042,0,0,1-.039-.263v5.4a1.028,1.028,0,0,1,1.535-.872,2.062,2.062,0,0,0,.521.209v-4.029A1.3,1.3,0,0,0,141.755,123.593Zm0,0c-.105.049-.215.094-.328.134l-.015.006c-.089.031-.177.06-.262.084a1.028,1.028,0,0,1-1.268-.707,1.042,1.042,0,0,1-.039-.263v5.4a1.028,1.028,0,0,1,1.535-.872,2.062,2.062,0,0,0,.521.209v-4.029A1.3,1.3,0,0,0,141.755,123.593Z" transform="translate(-111.41 -91.772)" fill="#413b32"/>
        <path id="Trazado_1021300" data-name="Trazado 1021300" d="M219.39,411.536a1.021,1.021,0,0,0-.232-.021H202.331a1.067,1.067,0,0,0-.3.034,1.028,1.028,0,0,0-.764.994v24.584a1.028,1.028,0,0,0,1.028,1.028h16.886a1.028,1.028,0,0,0,1.028-1.028V412.543A1.028,1.028,0,0,0,219.39,411.536ZM218.156,436.1H203.326V413.571h14.829Z" transform="translate(-195.496 -390.471)" fill="#413b32"/>
        <path id="Trazado_1021301" data-name="Trazado 1021301" d="M276.29,206.1a4.967,4.967,0,1,0,3.978,7.937,1.485,1.485,0,0,0,.091-.129,4.965,4.965,0,0,0-4.07-7.81Zm0,7.877a2.911,2.911,0,1,1,2.913-2.911A2.911,2.911,0,0,1,276.29,213.979Z" transform="translate(-261.045 -198.255)" fill="#413b32"/>
        <path id="Trazado_1021302" data-name="Trazado 1021302" d="M559.32,552.8a4.1,4.1,0,0,1-.782.587c-.078.046-.161.09-.244.128a4.106,4.106,0,0,1-1.829.428,4.056,4.056,0,0,1-.508-.031,4.135,4.135,0,0,1-1.538-.506,1.028,1.028,0,0,1-.52-.872v-.044a1.028,1.028,0,0,1,1.535-.872,2.08,2.08,0,0,0,1.949.056c.042-.021.078-.04.115-.061h0a2.077,2.077,0,0,0-1.547-3.812c-.048.012-.1.026-.144.042-.105.049-.215.094-.328.134l-.015.006c-.089.031-.177.06-.262.084a1.028,1.028,0,0,1-1.268-.707,1.043,1.043,0,0,1-.039-.263v-.059a1.028,1.028,0,0,1,.75-.949c.037-.01.077-.023.118-.037l.015-.005a1.953,1.953,0,0,0,.189-.079,1.074,1.074,0,0,1,.108-.046,4.133,4.133,0,0,1,4.241,6.882Z" transform="translate(-525.469 -516.016)" fill="#413b32"/>
        <path id="Trazado_1021303" data-name="Trazado 1021303" d="M556.716,460.349a1.028,1.028,0,0,1-.71.445.911.911,0,0,1-.145.011,1.028,1.028,0,0,1-.571-.174,2.063,2.063,0,0,0-.589-.272,1.028,1.028,0,0,1-.75-.937v-.087a1,1,0,0,1,.037-.243,1.028,1.028,0,0,1,1.268-.713,4.093,4.093,0,0,1,.751.293,4.154,4.154,0,0,1,.428.251A1.028,1.028,0,0,1,556.716,460.349Z" transform="translate(-525.516 -434.289)" fill="#413b32"/>
        <path id="Trazado_1021304" data-name="Trazado 1021304" d="M604.2,638.986a1.028,1.028,0,0,1-1.378-.465l-.193-.393-.423-.854a1.028,1.028,0,0,1,.4-1.342h0a.687.687,0,0,1,.064-.033,1.028,1.028,0,0,1,1.378.465l.376.759.242.488A1.028,1.028,0,0,1,604.2,638.986Z" transform="translate(-570.576 -600.339)" fill="#413b32"/>
        <path id="Trazado_1021305" data-name="Trazado 1021305" d="M367.337,124.5a5.864,5.864,0,0,1-2.974,3.405L347.626,136.2a5.924,5.924,0,0,1-2.624.615c-.1,0-.2,0-.3-.008a1.029,1.029,0,0,1,.107-2.056,3.86,3.86,0,0,0,1.908-.4l1.028-.51,15.707-7.782a3.849,3.849,0,0,0,1.739-5.157L350.582,91.424a3.844,3.844,0,0,0-2.453-2.009l-10.643-2.85-1.376-.368a3.844,3.844,0,0,0-2.74.287,1.028,1.028,0,1,1-.932-1.833c.069-.035.139-.069.209-.1a5.887,5.887,0,0,1,3.995-.34l12.015,3.218a5.9,5.9,0,0,1,3.764,3.084l14.609,29.477A5.866,5.866,0,0,1,367.337,124.5Z" transform="translate(-317.711 -84.01)" fill="#413b32"/>
        <path id="Trazado_1021306" data-name="Trazado 1021306" d="M569.271,343.062a1.028,1.028,0,0,1-.518.592l-12.8,6.34-.574.283a1.028,1.028,0,0,1-1.484-.9v-.037a1.028,1.028,0,0,1,.571-.9l1.485-.736,10.961-5.431-10-20.188-.457-.921a1.028,1.028,0,0,1,.455-1.372.46.46,0,0,1,.047-.022l.037-.016.021-.008.031-.011.034-.011a.435.435,0,0,1,.052-.013.267.267,0,0,1,.039-.008.32.32,0,0,1,.049-.009l.035-.005c.018,0,.037,0,.055-.005h.134l.07.007a1.027,1.027,0,0,1,.27.076c.022.009.043.019.064.03l.064.034a.5.5,0,0,1,.059.039c.019.013.038.028.057.043s.036.03.054.047a.952.952,0,0,1,.1.105.983.983,0,0,1,.12.188l.009.018,10.9,22.01A1.028,1.028,0,0,1,569.271,343.062Z" transform="translate(-525.469 -304.537)" fill="#413b32"/>
        <path id="Trazado_1021307" data-name="Trazado 1021307" d="M558.409,320.734a1.028,1.028,0,0,1-.572.921l-.921.456-.959.475-.574.284a1.028,1.028,0,0,1-1.484-.9v-.037a1.028,1.028,0,0,1,.571-.9l1.485-.736.94-.466.017-.008a.452.452,0,0,1,.047-.022l.037-.016.021-.008.031-.011.034-.011a.438.438,0,0,1,.052-.013l.039-.008a.321.321,0,0,1,.049-.009l.035-.005c.018,0,.037,0,.055-.005h.134l.07.007a.964.964,0,0,1,.27.076c.022.009.043.019.064.03l.064.034a.5.5,0,0,1,.059.039c.019.014.038.028.057.043s.036.03.054.047a.958.958,0,0,1,.1.105.988.988,0,0,1,.12.188l.009.018A1.018,1.018,0,0,1,558.409,320.734Z" transform="translate(-525.469 -304.566)" fill="#413b32"/>
        <path id="Trazado_1021308" data-name="Trazado 1021308" d="M384.394,304.427a1.028,1.028,0,0,1-.148.533.982.982,0,0,1-.091.129,1.028,1.028,0,1,1,.24-.66Z" transform="translate(-364.932 -289.304)" fill="#413b32"/>
      </g>
    </g>
  </g>
</svg>
