<svg xmlns="http://www.w3.org/2000/svg" width="84" height="84" viewBox="0 0 84 84">
  <g id="Grupo_1180560" data-name="Grupo 1180560" transform="translate(-215.711 -7084)">
    <rect id="Rectángulo_456498" data-name="Rectángulo 456498" width="84" height="84" transform="translate(215.711 7084)" fill="#f2a4ab"/>
    <g id="Grupo_1180559" data-name="Grupo 1180559" transform="translate(212.711 7081)">
      <path id="Trazado_1022686" data-name="Trazado 1022686" d="M92.585,46.278a22.292,22.292,0,0,1-44.585,0q0-.98.084-1.938a22.293,22.293,0,0,1,44.5,1.938Z" transform="translate(-28.123 -7.016)" fill="#9ce6ed"/>
      <path id="Trazado_1022687" data-name="Trazado 1022687" d="M247.262,86.983a22.277,22.277,0,0,1-10.591,18.978l-4.916-5.408V92.8h-3.877L224,86.983l3.877-2.908h4.846l2.908-3.877-1.938-4.846,6.064-5.052A22.24,22.24,0,0,1,247.262,86.983Z" transform="translate(-182.8 -47.721)" fill="#02c26a"/>
      <rect id="Rectángulo_456658" data-name="Rectángulo 456658" width="8.052" height="9.663" transform="translate(49.908 62.792)" fill="#4367e0"/>
      <rect id="Rectángulo_456659" data-name="Rectángulo 456659" width="7.247" height="17.715" transform="translate(57.961 54.74)" fill="#4976f2"/>
      <rect id="Rectángulo_456660" data-name="Rectángulo 456660" width="8.052" height="27.378" transform="translate(65.208 45.077)" fill="#548aff"/>
      <path id="Trazado_1022688" data-name="Trazado 1022688" d="M116.913,25.813l-6.9,6.9V38.53L104.2,42.407,100.32,38.53H95.474V34.653L90.99,31.962a22.312,22.312,0,0,1,25.923-6.149Z" transform="translate(-65.905 -7.022)" fill="#02c26a"/>
      <path id="Trazado_1022689" data-name="Trazado 1022689" d="M67.385,200.723l-3.877,2.908v11.548A22.3,22.3,0,0,1,48,193.938q0-.98.084-1.938h5.732l2.908,3.877h7.754Z" transform="translate(-28.123 -154.677)" fill="#02c26a"/>
      <path id="Trazado_1022690" data-name="Trazado 1022690" d="M33.692,257.938c0-1.071-2.17-1.938-4.846-1.938S24,256.868,24,257.938v24.231c0,1.071,2.17,1.939,4.846,1.939s4.846-.868,4.846-1.939Z" transform="translate(-7.031 -210.923)" fill="#ffc431"/>
      <ellipse id="Elipse_13699" data-name="Elipse 13699" cx="4.831" cy="2.013" rx="4.831" ry="2.013" transform="translate(16.894 45.077)" fill="#ffd873"/>
      <path id="Trazado_1022691" data-name="Trazado 1022691" d="M113.692,337.938c0-1.071-2.17-1.938-4.846-1.938s-4.846.868-4.846,1.938v14.539c0,1.071,2.17,1.938,4.846,1.938s4.846-.868,4.846-1.938Z" transform="translate(-77.338 -281.231)" fill="#ffc431"/>
      <ellipse id="Elipse_13700" data-name="Elipse 13700" cx="4.831" cy="2.013" rx="4.831" ry="2.013" transform="translate(26.557 54.74)" fill="#ffd873"/>
      <path id="Trazado_1022692" data-name="Trazado 1022692" d="M193.692,377.938c0-1.071-2.17-1.938-4.846-1.938s-4.846.868-4.846,1.938v9.692c0,1.071,2.17,1.938,4.846,1.938s4.846-.868,4.846-1.938Z" transform="translate(-147.646 -316.384)" fill="#ffc431"/>
      <ellipse id="Elipse_13701" data-name="Elipse 13701" cx="4.831" cy="2.013" rx="4.831" ry="2.013" transform="translate(36.219 59.571)" fill="#ffd873"/>
      <path id="Trazado_1022693" data-name="Trazado 1022693" d="M73.185,248H65.431a.969.969,0,0,0-.969.969v8.723H57.677a.969.969,0,0,0-.969.969v6.785H49.923a.969.969,0,0,0-.969.969v8.723H47.016v-9.692c0-.545-.264-1.565-2.029-2.271a11.571,11.571,0,0,0-7.573,0l-.09.038V260.6c0-.545-.264-1.565-2.029-2.271a10.516,10.516,0,0,0-3.787-.637,10.517,10.517,0,0,0-3.787.637l-.09.038v-7.459c0-.545-.264-1.565-2.029-2.271A10.517,10.517,0,0,0,21.815,248a10.517,10.517,0,0,0-3.787.637c-1.765.706-2.029,1.726-2.029,2.271v24.231c0,.545.264,1.565,2.029,2.271a10.517,10.517,0,0,0,3.787.637,10.517,10.517,0,0,0,3.787-.637,4.67,4.67,0,0,0,1.059-.574,4.67,4.67,0,0,0,1.059.574,10.517,10.517,0,0,0,3.787.637,10.517,10.517,0,0,0,3.787-.637,4.67,4.67,0,0,0,1.059-.574,4.67,4.67,0,0,0,1.059.574,11.571,11.571,0,0,0,7.573,0,5.276,5.276,0,0,0,.689-.332H73.185a.969.969,0,0,0,.969-.969V248.969A.969.969,0,0,0,73.185,248ZM17.938,267.679l.09.038a10.516,10.516,0,0,0,3.787.637,10.518,10.518,0,0,0,3.787-.637l.09-.038v2.576c-.168.3-1.509,1.006-3.877,1.006s-3.709-.706-3.877-1.006Zm0-4.846.09.038a10.516,10.516,0,0,0,3.787.637,10.518,10.518,0,0,0,3.787-.637l.09-.038v2.576c-.168.3-1.509,1.006-3.877,1.006s-3.709-.706-3.877-1.006Zm0-4.846.09.038a10.516,10.516,0,0,0,3.787.637,10.518,10.518,0,0,0,3.787-.637l.09-.038v2.576c-.168.3-1.509,1.006-3.877,1.006s-3.709-.706-3.877-1.006Zm0-4.846.09.038a10.516,10.516,0,0,0,3.787.637,10.517,10.517,0,0,0,3.787-.637l.09-.038v2.576c-.168.3-1.509,1.006-3.877,1.006s-3.709-.706-3.877-1.006Zm13.569,13.275c-2.368,0-3.709-.706-3.877-1.006v-2.577l.09.038a10.516,10.516,0,0,0,3.787.637,10.518,10.518,0,0,0,3.787-.637l.09-.038v2.576C35.216,265.71,33.875,266.416,31.508,266.416Zm-3.877,1.264.09.038a10.517,10.517,0,0,0,3.787.637,10.518,10.518,0,0,0,3.787-.637l.09-.038v2.576c-.168.3-1.509,1.006-3.877,1.006s-3.709-.706-3.877-1.006Zm9.692,0,.09.038a11.572,11.572,0,0,0,7.573,0l.09-.038v2.576c-.168.3-1.509,1.006-3.877,1.006s-3.709-.706-3.877-1.006Zm3.877-3.2c2.281,0,3.606.654,3.851.971-.252.318-1.579.968-3.851.968s-3.6-.65-3.851-.968C37.594,265.131,38.919,264.477,41.2,264.477Zm-9.692-4.846c2.281,0,3.606.654,3.851.971-.252.318-1.579.968-3.851.968s-3.6-.652-3.852-.969C27.9,260.283,29.232,259.631,31.508,259.631Zm-9.692-9.692c2.281,0,3.606.654,3.851.971-.252.318-1.579.968-3.851.968s-3.6-.65-3.851-.968C18.209,250.593,19.535,249.938,21.815,249.938Zm0,26.169c-2.363,0-3.7-.7-3.877-1v-2.578l.09.038a10.516,10.516,0,0,0,3.787.637,10.517,10.517,0,0,0,3.787-.637l.09-.038V275.1C25.52,275.4,24.179,276.108,21.815,276.108Zm9.692,0c-2.368,0-3.709-.706-3.877-1.006v-2.577l.09.038a10.516,10.516,0,0,0,3.787.637,10.517,10.517,0,0,0,3.787-.637l.09-.038V275.1C35.213,275.4,33.871,276.108,31.508,276.108Zm9.692,0c-2.363,0-3.7-.7-3.877-1v-2.578l.09.038a11.572,11.572,0,0,0,7.573,0l.09-.038V275.1C44.9,275.4,43.564,276.108,41.2,276.108Zm9.692-8.723h5.815v7.754H50.893Zm7.754-7.754h5.815v15.508H58.646ZM66.4,275.139v-25.2h5.815v25.2Z" transform="translate(0 -203.892)"/>
      <rect id="Rectángulo_456661" data-name="Rectángulo 456661" width="2.416" height="1.61" transform="translate(41.051 54.74)"/>
      <path id="Trazado_1022694" data-name="Trazado 1022694" d="M256,181.323v1.938h4.846a.969.969,0,0,0,.685-.284L281.2,163.309v1.537h1.938v-3.877a.969.969,0,0,0-.969-.969h-3.877v1.938h1.537l-19.385,19.385Z" transform="translate(-210.923 -126.554)"/>
      <path id="Trazado_1022695" data-name="Trazado 1022695" d="M79.027,22.157A23.262,23.262,0,0,0,40,39.262a23.561,23.561,0,0,0,.2,3.033l1.922-.25a21.616,21.616,0,0,1-.18-2.783c0-.325.009-.648.023-.969H46.3l2.617,3.489a.969.969,0,0,0,.775.388H56.9L59.073,45.8,55.9,48.179a.969.969,0,0,0-.388.775v2.908h1.938V49.439l3.489-2.617a.969.969,0,0,0,.25-1.274L58.277,40.7a.969.969,0,0,0-.831-.471H50.177L47.56,36.742a.969.969,0,0,0-.775-.388H42.138a21.222,21.222,0,0,1,4.273-10.143l3.281,1.969v3.328a.969.969,0,0,0,.969.969h4.445L58.7,36.07a.969.969,0,0,0,1.223.121l5.815-3.877a.969.969,0,0,0,.432-.806V26.094l6.143-6.143a21.274,21.274,0,0,1,4.225,2.625l-5.174,4.311a.969.969,0,0,0-.279,1.1l1.736,4.341-2.29,3.053H66.169a.97.97,0,0,0-.581.194l-3.877,2.908a.969.969,0,0,0-.225,1.313l3.877,5.815a.969.969,0,0,0,.806.432h2.908v5.815h1.938V45.077a.969.969,0,0,0-.969-.969H66.688l-3.081-4.621,2.885-2.164h4.523a.969.969,0,0,0,.775-.388L74.7,33.058a.969.969,0,0,0,.125-.941l-1.677-4.192,4.869-4.057a21.244,21.244,0,0,1,6.49,13.539l1.931-.166a23.186,23.186,0,0,0-7.41-15.083Zm-14.512,2.85a.969.969,0,0,0-.284.685v5.3l-4.723,3.148-3.315-3.315a.969.969,0,0,0-.685-.284H51.631V27.631a.969.969,0,0,0-.471-.831l-3.474-2.084a21.314,21.314,0,0,1,22.682-5.561Z" transform="translate(-21.092 0)"/>
    </g>
  </g>
</svg>
