<svg xmlns="http://www.w3.org/2000/svg" width="84" height="84" viewBox="0 0 84 84">
  <g id="Grupo_1180382" data-name="Grupo 1180382" transform="translate(-497.711 -7941)">
    <rect id="Rectángulo_456503" data-name="Rectángulo 456503" width="84" height="84" transform="translate(497.711 7941)" fill="#f2a4ab"/>
    <g id="Grupo_1180381" data-name="Grupo 1180381" transform="translate(426.711 7834.742)">
      <path id="Trazado_1021309" data-name="Trazado 1021309" d="M383.388,462.42a8.748,8.748,0,0,0-8.738,8.738q0,.366.03.724a8.738,8.738,0,0,0,17.417,0q.031-.358.03-.724A8.748,8.748,0,0,0,383.388,462.42Zm0,15.01a6.274,6.274,0,1,1,6.274-6.274A6.274,6.274,0,0,1,383.388,477.43Z" transform="translate(-270.388 -316.782)" fill="#ffc400"/>
      <path id="Trazado_1021310" data-name="Trazado 1021310" d="M450.087,533.813a4.043,4.043,0,1,1-4.043-4.043A4.043,4.043,0,0,1,450.087,533.813Z" transform="translate(-333.043 -379.437)" fill="#ffea00"/>
      <path id="Trazado_1021311" data-name="Trazado 1021311" d="M218.535,213.9h-39.9A3.935,3.935,0,0,1,176,216.538v20.513a3.933,3.933,0,0,1,2.638,2.638h8.983a10.969,10.969,0,0,1,21.931,0h8.983a3.933,3.933,0,0,1,2.638-2.638V216.538a3.935,3.935,0,0,1-2.638-2.638Zm-29.162,1.819H207.8a1.115,1.115,0,1,1,0,2.231H189.373a1.115,1.115,0,1,1,0-2.231Zm-2.634,4.609h23.7a1.115,1.115,0,1,1,0,2.231h-23.7a1.115,1.115,0,1,1,0-2.231Zm26.329,6.84H184.1a1.115,1.115,0,1,1,0-2.231h28.964a1.115,1.115,0,1,1,0,2.231Z" transform="translate(-85.587 -85.587)" fill="#90caf9"/>
      <path id="Trazado_1021312" data-name="Trazado 1021312" d="M169.538,153.9v34.151H153.017a10.835,10.835,0,0,0,.544-1.952h10.108a1.115,1.115,0,0,0,1.115-1.115,1.686,1.686,0,0,1,1.686-1.684,1.115,1.115,0,0,0,1.115-1.115V159.767a1.115,1.115,0,0,0-1.115-1.115,1.686,1.686,0,0,1-1.684-1.684,1.115,1.115,0,0,0-1.115-1.115h-41.8a1.115,1.115,0,0,0-1.115,1.115,1.686,1.686,0,0,1-1.684,1.684,1.115,1.115,0,0,0-1.115,1.115v22.417a1.115,1.115,0,0,0,1.115,1.115,1.686,1.686,0,0,1,1.684,1.684,1.115,1.115,0,0,0,1.115,1.115h10.108a10.835,10.835,0,0,0,.544,1.952H116V153.9Z" transform="translate(-29.769 -29.769)" fill="#ff8f00"/>
      <path id="Trazado_1021313" data-name="Trazado 1021313" d="M381.734,718.241l-2.231,5.925-.57-1.1a1.115,1.115,0,0,0-1.394-.524l-1.159.45,2.344-6.229A10.932,10.932,0,0,0,381.734,718.241Z" transform="translate(-271.998 -553.391)" fill="#26c6da"/>
      <path id="Trazado_1021314" data-name="Trazado 1021314" d="M552.146,722.989l-1.159-.45a1.115,1.115,0,0,0-1.394.524l-.572,1.1-2.231-5.925a10.93,10.93,0,0,0,3.012-1.481Z" transform="translate(-430.528 -553.391)" fill="#26c6da"/>
      <g id="Grupo_1180379" data-name="Grupo 1180379" transform="translate(85.534 124.828)" opacity="0.5">
        <path id="Trazado_1021315" data-name="Trazado 1021315" d="M373.388,472.42a8.748,8.748,0,0,0-8.738,8.738q0,.366.03.724a8.738,8.738,0,0,0,17.417,0q.031-.358.03-.724a8.748,8.748,0,0,0-8.738-8.738Zm0,15.01a6.274,6.274,0,1,1,6.274-6.274A6.274,6.274,0,0,1,373.388,487.43Z" transform="translate(-346.619 -450.913)" fill="#fff"/>
        <path id="Trazado_1021316" data-name="Trazado 1021316" d="M440.087,543.813a4.043,4.043,0,1,1-4.043-4.043A4.043,4.043,0,0,1,440.087,543.813Z" transform="translate(-409.274 -513.568)" fill="#fff"/>
        <path id="Trazado_1021317" data-name="Trazado 1021317" d="M208.535,223.9h-39.9A3.935,3.935,0,0,1,166,226.538v20.513a3.933,3.933,0,0,1,2.638,2.638h8.983a10.969,10.969,0,0,1,21.931,0h8.983a3.933,3.933,0,0,1,2.638-2.638V226.538a3.935,3.935,0,0,1-2.638-2.638Zm-29.162,1.819H197.8a1.115,1.115,0,0,1,0,2.231H179.373a1.115,1.115,0,1,1,0-2.231Zm-2.634,4.609h23.7a1.115,1.115,0,1,1,0,2.231h-23.7a1.115,1.115,0,1,1,0-2.231Zm26.329,6.84H174.1a1.115,1.115,0,0,1,0-2.231h28.964a1.115,1.115,0,0,1,0,2.231Z" transform="translate(-161.817 -219.717)" fill="#fff"/>
        <path id="Trazado_1021318" data-name="Trazado 1021318" d="M159.538,163.9v34.151H143.017a10.835,10.835,0,0,0,.544-1.952h10.108a1.115,1.115,0,0,0,1.115-1.115,1.686,1.686,0,0,1,1.686-1.684,1.115,1.115,0,0,0,1.115-1.115V169.767a1.115,1.115,0,0,0-1.115-1.115,1.686,1.686,0,0,1-1.684-1.684,1.115,1.115,0,0,0-1.115-1.115h-41.8a1.115,1.115,0,0,0-1.115,1.115,1.686,1.686,0,0,1-1.684,1.684,1.115,1.115,0,0,0-1.115,1.115v22.417a1.115,1.115,0,0,0,1.115,1.115,1.686,1.686,0,0,1,1.684,1.684,1.115,1.115,0,0,0,1.115,1.115h10.108a10.835,10.835,0,0,0,.544,1.952H106V163.9Z" transform="translate(-106 -163.9)" fill="#fff"/>
        <path id="Trazado_1021319" data-name="Trazado 1021319" d="M371.734,728.241l-2.231,5.925-.57-1.1a1.115,1.115,0,0,0-1.394-.524l-1.159.45,2.344-6.229A10.935,10.935,0,0,0,371.734,728.241Z" transform="translate(-348.229 -687.522)" fill="#fff"/>
        <path id="Trazado_1021320" data-name="Trazado 1021320" d="M542.146,732.989l-1.159-.45a1.115,1.115,0,0,0-1.394.524l-.572,1.1-2.231-5.925a10.932,10.932,0,0,0,3.012-1.481Z" transform="translate(-506.759 -687.522)" fill="#fff"/>
      </g>
      <g id="Grupo_1180380" data-name="Grupo 1180380" transform="translate(84 121.9)">
        <path id="Trazado_1021321" data-name="Trazado 1021321" d="M142,123.015V159.4a1.115,1.115,0,0,1-1.115,1.115h-19.4a1.115,1.115,0,1,1,0-2.231h18.289V124.131H86.231v34.151H104.52a1.115,1.115,0,1,1,0,2.231h-19.4A1.115,1.115,0,0,1,84,159.4V123.015a1.115,1.115,0,0,1,1.115-1.115h55.769A1.115,1.115,0,0,1,142,123.015Z" transform="translate(-84 -121.9)" fill="#413b32"/>
        <path id="Trazado_1021322" data-name="Trazado 1021322" d="M193.635,185.815v22.417a1.115,1.115,0,0,1-1.115,1.115,1.686,1.686,0,0,0-1.684,1.684,1.115,1.115,0,0,1-1.115,1.115H178.636a1.115,1.115,0,0,1-1.115-1.115.779.779,0,0,1,.006-.114,1.115,1.115,0,0,1,1.11-1h10.13a3.933,3.933,0,0,1,2.638-2.634V186.769a3.934,3.934,0,0,1-2.638-2.638h-39.9a3.935,3.935,0,0,1-2.638,2.638v20.513a3.933,3.933,0,0,1,2.638,2.638H159a1.115,1.115,0,0,1,1.11,1c0,.038.006.076.006.114A1.115,1.115,0,0,1,159,212.151H147.915a1.115,1.115,0,0,1-1.115-1.115,1.686,1.686,0,0,0-1.684-1.688A1.115,1.115,0,0,1,144,208.232V185.815a1.115,1.115,0,0,1,1.115-1.115,1.686,1.686,0,0,0,1.684-1.684,1.115,1.115,0,0,1,1.115-1.115h41.8a1.115,1.115,0,0,1,1.115,1.115,1.686,1.686,0,0,0,1.684,1.684,1.115,1.115,0,0,1,1.115,1.115Z" transform="translate(-139.817 -177.717)" fill="#413b32"/>
        <path id="Trazado_1021323" data-name="Trazado 1021323" d="M372.488,241.115a1.115,1.115,0,0,1-1.115,1.115H352.945a1.115,1.115,0,1,1,0-2.231h18.428A1.115,1.115,0,0,1,372.488,241.115Z" transform="translate(-333.159 -231.767)" fill="#413b32"/>
        <path id="Trazado_1021324" data-name="Trazado 1021324" d="M339.979,307.275a1.115,1.115,0,0,1-1.115,1.115h-23.7a1.115,1.115,0,1,1,0-2.231h23.7A1.115,1.115,0,0,1,339.979,307.275Z" transform="translate(-298.013 -293.315)" fill="#413b32"/>
        <path id="Trazado_1021325" data-name="Trazado 1021325" d="M307.454,373.4a1.115,1.115,0,0,1-1.115,1.115H277.375a1.115,1.115,0,0,1,0-2.231h28.964A1.115,1.115,0,0,1,307.454,373.4Z" transform="translate(-262.857 -354.826)" fill="#413b32"/>
        <path id="Trazado_1021326" data-name="Trazado 1021326" d="M416.274,497.8a6.274,6.274,0,1,0,6.274,6.274A6.274,6.274,0,0,0,416.274,497.8Zm0,10.312a4.043,4.043,0,1,1,4.043-4.043A4.043,4.043,0,0,1,416.274,508.112Z" transform="translate(-387.274 -471.595)" fill="#413b32"/>
        <path id="Trazado_1021327" data-name="Trazado 1021327" d="M364.585,441.112a10.969,10.969,0,0,0-21.931,0c0,.093,0,.185,0,.279a10.98,10.98,0,0,0,9.923,10.918q.518.049,1.046.049t1.046-.049a10.9,10.9,0,0,0,5.228-1.927,11.02,11.02,0,0,0,3.974-5.089,10.836,10.836,0,0,0,.544-1.952,11.006,11.006,0,0,0,.174-1.952C364.588,441.3,364.587,441.2,364.585,441.112Zm-10.966,9.015a8.75,8.75,0,0,1-8.708-8.017q-.03-.358-.03-.724a8.738,8.738,0,0,1,17.477,0q0,.366-.03.724A8.75,8.75,0,0,1,353.619,450.127Z" transform="translate(-324.619 -408.913)" fill="#413b32"/>
        <path id="Trazado_1021328" data-name="Trazado 1021328" d="M343.7,678.4l-.311.833-3.238,8.6a1.115,1.115,0,0,1-.976.72h-.07a1.115,1.115,0,0,1-.989-.6l-1.267-2.428-2.554.991a1.115,1.115,0,0,1-1.447-1.433l3.516-9.346.249-.662a1.117,1.117,0,0,1,2.091.786l-.544,1.447-2.343,6.229,1.158-.45a1.115,1.115,0,0,1,1.394.524l.572,1.1,2.231-5.926.441-1.173a1.115,1.115,0,0,1,2.088.786Z" transform="translate(-315.433 -635.835)" fill="#413b32"/>
        <path id="Trazado_1021329" data-name="Trazado 1021329" d="M520.135,686.279a1.115,1.115,0,0,1-1.185.247l-2.554-.991-1.269,2.428a1.115,1.115,0,0,1-.989.6h-.07a1.115,1.115,0,0,1-.976-.72l-3.236-8.6-.314-.833a1.115,1.115,0,0,1,2.088-.786l.444,1.173,2.231,5.925.57-1.1a1.116,1.116,0,0,1,1.394-.524l1.159.45-2.344-6.229-.543-1.447a1.115,1.115,0,1,1,2.088-.786l.249.662,3.516,9.346A1.115,1.115,0,0,1,520.135,686.279Z" transform="translate(-479.81 -635.848)" fill="#413b32"/>
      </g>
    </g>
  </g>
</svg>
