<svg xmlns="http://www.w3.org/2000/svg" xmlns:xlink="http://www.w3.org/1999/xlink" width="238.74" height="155" viewBox="0 0 238.74 155">
  <defs>
    <linearGradient id="linear-gradient" x1="-1.552" y1="28.095" x2="-1.564" y2="28.515" gradientUnits="objectBoundingBox">
      <stop offset="0" stop-color="#fd6143"/>
      <stop offset="1" stop-color="#ffad88"/>
    </linearGradient>
    <linearGradient id="linear-gradient-2" x1="-35.471" y1="-1.178" x2="-36.1" y2="-1.15" gradientUnits="objectBoundingBox">
      <stop offset="0" stop-color="#40a7da"/>
      <stop offset="1" stop-color="#7acae7"/>
    </linearGradient>
    <linearGradient id="linear-gradient-3" x1="-3.064" y1="7.013" x2="-3.518" y2="7.314" gradientUnits="objectBoundingBox">
      <stop offset="0" stop-color="#f8ae89"/>
      <stop offset="1" stop-color="#ffecd0"/>
    </linearGradient>
  </defs>
  <g id="Grupo_1180561" data-name="Grupo 1180561" transform="translate(-1046.202 -9107)">
    <rect id="Rectángulo_456523" data-name="Rectángulo 456523" width="238.74" height="155" rx="10" transform="translate(1046.202 9107)" fill="#f2a4ab"/>
    <g id="_385947377_b784a7f3-3ab5-4afe-9ae9-5cea3edcb82d" data-name="385947377_b784a7f3-3ab5-4afe-9ae9-5cea3edcb82d" transform="translate(1021.434 8769.318)">
      <path id="Trazado_1022698" data-name="Trazado 1022698" d="M32.408,1074.13a1.307,1.307,0,0,1,1.064.414c.176.25.122.379.054.645a1.391,1.391,0,0,1-.843.462,1.277,1.277,0,0,1-.993-.439c-.18-.255-.129-.388-.066-.664A1.28,1.28,0,0,1,32.408,1074.13Z" transform="translate(0 -651.914)" fill="#1b2e36"/>
      <path id="Trazado_1022699" data-name="Trazado 1022699" d="M2009.94,1622.842a1.9,1.9,0,0,1,1.05.1.8.8,0,0,1,.443.576,1.58,1.58,0,0,1-.273.944,1.929,1.929,0,0,1-.945-.046.89.89,0,0,1-.517-.5A1.234,1.234,0,0,1,2009.94,1622.842Z" transform="translate(-1761.828 -1140.617)" fill="#1b2e36"/>
      <path id="Trazado_1022700" data-name="Trazado 1022700" d="M1970.609,1622.726a1.433,1.433,0,0,1,1.2.224.652.652,0,0,1,.2.441,1.378,1.378,0,0,1-.532,1.049,1.305,1.305,0,0,1-.953-.155.843.843,0,0,1-.34-.674A1.355,1.355,0,0,1,1970.609,1622.726Z" transform="translate(-1726.682 -1140.509)" fill="#1b2e36"/>
      <path id="Trazado_1022701" data-name="Trazado 1022701" d="M42.916,1622.657a1.575,1.575,0,0,1,1.233.272.785.785,0,0,1,.308.672,1.17,1.17,0,0,1-.5.76,1.665,1.665,0,0,1-.825-.024.8.8,0,0,1-.5-.565A1.484,1.484,0,0,1,42.916,1622.657Z" transform="translate(-9.83 -1140.462)" fill="#1b2e36"/>
      <path id="Trazado_1022702" data-name="Trazado 1022702" d="M81.227,1622.06a1.572,1.572,0,0,1,.988.419.841.841,0,0,1,.13.488c-.068.505-.4.717-.779,1-.034,0-.069-.007-.1-.013a1.254,1.254,0,0,1-.849-.542.828.828,0,0,1-.07-.744C80.683,1622.321,80.911,1622.215,81.227,1622.06Z" transform="translate(-43.572 -1139.942)" fill="#1b2e36"/>
      <path id="Trazado_1022703" data-name="Trazado 1022703" d="M1729.42,618.265a3.013,3.013,0,0,1,1.478.625c1.3.86,4.61,3.343,4.939,4.9-.614-.214-2.541-2.357-3.163-2.891C1731.711,620.069,1730.153,619.26,1729.42,618.265Z" transform="translate(-1512.235 -245.887)" fill="#8cbbe5"/>
      <path id="Trazado_1022704" data-name="Trazado 1022704" d="M1804.75,688.364l.335.129a14.988,14.988,0,0,1,2.922,7.292l-.245-.108a21.075,21.075,0,0,1-.831-2.66C1806.28,691.5,1804.976,690.019,1804.75,688.364Z" transform="translate(-1579.33 -308.322)" fill="#8cbbe5"/>
      <path id="Trazado_1022710" data-name="Trazado 1022710" d="M1618.692,476.086a1.108,1.108,0,0,1,.28.095c.236.152.226.291.252.54-.358.97-2.859,3.148-3.772,3.849a.839.839,0,0,1-.509-.2c-.073-.174-.122-.2-.073-.4C1615.1,479.072,1617.862,476.618,1618.692,476.086Z" transform="translate(-1410.192 -119.252)" fill="#fc654d"/>
      <path id="Trazado_1022712" data-name="Trazado 1022712" d="M1555.406,434.633a2.875,2.875,0,0,1,.7.323,1.737,1.737,0,0,1,.168.939c.013.734.169,3.926-.1,4.388a1.81,1.81,0,0,1-.285.3,1.276,1.276,0,0,1-.706-.394C1555.007,438.991,1554.794,435.645,1555.406,434.633Z" transform="translate(-1356.883 -82.33)" fill="#fc654d"/>
      <path id="Trazado_1022714" data-name="Trazado 1022714" d="M1466.209,475.975a1.46,1.46,0,0,1,.514.09c.633.3,3.54,3.219,3.635,3.834a1.039,1.039,0,0,1-.212.781,20.291,20.291,0,0,1-4.147-3.914A1.076,1.076,0,0,1,1466.209,475.975Z" transform="translate(-1277.606 -119.153)" fill="#fc654d"/>
      <path id="Trazado_1022717" data-name="Trazado 1022717" d="M792.139,626.831c.917.022,1.842-.052,2.754-.017a1.84,1.84,0,0,1,1.279.547.678.678,0,0,1,.1.6,1.207,1.207,0,0,1-.6.367c-1.089,0-3.374.343-4.186-.4a.736.736,0,0,1,.036-.667C791.681,626.976,791.864,626.934,792.139,626.831Z" transform="translate(-676.791 -253.492)" fill="#1b2e36"/>
      <path id="Trazado_1022721" data-name="Trazado 1022721" d="M1640.463,561.242c-.647.6-2.787.394-3.718.368a2.137,2.137,0,0,1-1.616-.574.6.6,0,0,1-.086-.586c.648-.5,4.243-.19,5.271-.178A1.39,1.39,0,0,1,1640.463,561.242Z" transform="translate(-1428.143 -194.14)" fill="#fc654d"/>
      <path id="Trazado_1022722" data-name="Trazado 1022722" d="M1426.506,775.272a4.3,4.3,0,0,1,2.2.11c.26.16.257.214.314.494-.488,1.218-3.089.724-4.223,1.4-1.4.835-2.832,3.657-3.742,4a.374.374,0,0,1-.392-.1,6.622,6.622,0,0,1-.7-.933,7.891,7.891,0,0,0-2.531-2.161c-1-.439-2.346-.442-3.027-1.342-.015-.179-.075-.277.07-.421a1.84,1.84,0,0,1,1.248-.311c2.111.073,4.09,1.526,5.458,3.021.208-.346.417-.7.646-1.028A6.829,6.829,0,0,1,1426.506,775.272Z" transform="translate(-1231.634 -385.651)" fill="#1b2e36"/>
      <path id="Trazado_1022723" data-name="Trazado 1022723" d="M1683.56,560.48a3.391,3.391,0,0,1,2.552.623c1.752.958,3.507,1.867,5.173,2.976,5.515,3.673,10.007,8.912,11.857,15.349a14.756,14.756,0,0,1,.768,4.132,10.311,10.311,0,0,0-1.616-.376c-.419-4.032-2.944-8.913-5.575-12.008a36.7,36.7,0,0,0-7.913-6.779c-1.334-.856-3.515-1.413-4.6-2.471-.165-.161-.334-.317-.5-.476A1.4,1.4,0,0,0,1683.56,560.48Z" transform="translate(-1471.389 -194.349)" fill="#8cbbe5"/>
      <path id="Trazado_1022724" data-name="Trazado 1022724" d="M278.592,758.487a2.166,2.166,0,0,1,.4.013c.345.055,10.067,6.536,10.332,6.905.029.04.055.081.082.121a34.473,34.473,0,0,1,1.868,3.37q1,1.836,2.06,3.643c1.241,2.127,2.829,4.15,3.888,6.364a20.529,20.529,0,0,1-2.453.207,4.914,4.914,0,0,1-.441-1.368c-.291-1.51-1.857-3.531-2.656-4.9-1.07-1.838-2.246-4.708-3.454-6.3-1.13-1.491-7.444-4.979-9.436-6.269-.692.067-8.438,5.391-9.665,6.174a61.072,61.072,0,0,1-4.813,9.94c-.559.85-1.9,2.968-3.035,3.051a.624.624,0,0,1-.6-.2.814.814,0,0,1-.036-.309c.033-.271,2.473-3.593,2.921-4.349a40.676,40.676,0,0,0,2.451-4.83,37.019,37.019,0,0,1,1.613-3.57,4.488,4.488,0,0,1,1.053-1.265,28.226,28.226,0,0,1,2.56-1.772C273.643,761.534,276.137,760.036,278.592,758.487Z" transform="translate(-204.017 -370.777)" fill="#1b2e36"/>
      <path id="Trazado_1022725" data-name="Trazado 1022725" d="M593.864,981.064a4.053,4.053,0,0,1,2.876-.835,1.82,1.82,0,0,1,1.192.9,8.075,8.075,0,0,1,.594,1.945c.048-.034.094-.069.144-.1a1.9,1.9,0,0,1,1.45-.034,2.4,2.4,0,0,1,1.585,1.3,3.86,3.86,0,0,1,.561,2.583,1.3,1.3,0,0,1-.669.782c-1.7.9-4.3-.1-6.122-.062a5.049,5.049,0,0,1,.892-.976c-.078-.232-.011-.127-.222-.3-.548-.049-1.922,1.165-2.44,1.5a11.978,11.978,0,0,0,.1-1.356,1.374,1.374,0,0,0-.413-1l-.175.032a3.1,3.1,0,0,0-.382,2.206c-.741-.519-1.4-1.176-2.166-1.655a.745.745,0,0,0-.668-.152.935.935,0,0,0-.017.72,3.523,3.523,0,0,1,1.306,1.046c-1.453.107-3.924.609-5.164-.375a1,1,0,0,1-.39-.76,1.039,1.039,0,0,1,.394-.888c.275-.3.212-1.258.431-1.695a2.166,2.166,0,0,1,1.393-.879,8.842,8.842,0,0,0,.963-.149l.059-.267a3.731,3.731,0,0,1,2.044-2.031,3.25,3.25,0,0,1,2.562.331C593.676,980.947,593.77,981.006,593.864,981.064Z" transform="translate(-493.579 -568.232)" fill="#8cbbe5"/>
      <path id="Trazado_1022726" data-name="Trazado 1022726" d="M105.606,987.842c-.016-.325-.04-.659-.025-.984a3.129,3.129,0,0,1,.94-2.117c1.083-.931,2.188-.5,3.417-.477.031,0,.241-.008.247-.012.165-.11.583-1.2.947-1.528a4.733,4.733,0,0,1,3.551-1.158,4.227,4.227,0,0,1,3.17,1.745,7.6,7.6,0,0,1,1.211-.378,2.55,2.55,0,0,1,1.99.25,3.711,3.711,0,0,1,1.213,2.7,1.586,1.586,0,0,1,.86.418,2.751,2.751,0,0,1,.945,1.882,1.325,1.325,0,0,1-.646.925,5.775,5.775,0,0,1-4.269.487,2.34,2.34,0,0,0-.555-.52,2.9,2.9,0,0,0-1.016.33l-.218-.466c-.738.359-1.455.747-2.171,1.149l0-1.506a1.323,1.323,0,0,0-.87-.065,3.409,3.409,0,0,0-.155,1.688,17.588,17.588,0,0,0-2.764-1.6l-.169.181a3.248,3.248,0,0,0,.282.908c-1.4-.381-2.866.076-4.223-.328A2.771,2.771,0,0,1,105.606,987.842Z" transform="translate(-65.919 -569.459)" fill="#8cbbe5"/>
      <path id="Trazado_1022732" data-name="Trazado 1022732" d="M225.653,508.34a9.965,9.965,0,0,1,4.431.435,11.292,11.292,0,0,1,6.6,5.884l.1-.035a10.547,10.547,0,0,1,8.215.2,9.927,9.927,0,0,1,5.192,6.3,12.721,12.721,0,0,1,4.151-.326,8.062,8.062,0,0,1,5.61,3.086c2.2,2.794,2.282,5.943,1.869,9.315l-20.709.011-37.445-.021-.043-1.537c1.334-.025,2.672-.012,4.006-.016-.29-2.949-.266-5.5,1.678-7.936,1.629-2.04,3.763-2.7,6.273-2.969a12.315,12.315,0,0,1,2.25-8.127A11.412,11.412,0,0,1,225.653,508.34Z" transform="translate(-153.24 -147.898)" fill="#1b2e36"/>
      <path id="Trazado_1022733" data-name="Trazado 1022733" d="M269.447,522.21a9.239,9.239,0,0,1,2.909.32c3.786,1.1,5.044,3.429,6.816,6.627,2.205-1.059,4.131-1.7,6.6-1.123a8.337,8.337,0,0,1,5.567,4.653,21.63,21.63,0,0,0,1.07,2.457c.628.346,3.048-.538,4.02-.462a7.406,7.406,0,0,1,5.28,2.5c1.725,2,2.048,4.354,1.84,6.9H287.839l-35.421-.026a7.519,7.519,0,0,1,.367-5.82,6.6,6.6,0,0,1,4.834-3.32,15.235,15.235,0,0,0,2.717-.291,5.383,5.383,0,0,0-.066-1.786,9.638,9.638,0,0,1,2.075-7.148A10.02,10.02,0,0,1,269.447,522.21Z" transform="translate(-196.341 -160.327)" fill="#fefefe"/>
      <path id="Trazado_1022734" data-name="Trazado 1022734" d="M893.866,422.909q.191-.017.383-.031a11.56,11.56,0,0,1,8.648,3.031c2.78,2.427,3.814,5.275,4.061,8.891a3.96,3.96,0,0,1,2.76.245,3.906,3.906,0,0,1,1.669,2.39,11.354,11.354,0,0,1,4.152-2.246c3.079-.857,5.862.042,8.554,1.556a9.071,9.071,0,0,1,2.614-3.668,7.62,7.62,0,0,1,5.5-1.383,7.311,7.311,0,0,1,4.9,2.766c2.422,3.222,2.49,6.794,1.957,10.581a4.816,4.816,0,0,1,3.5.041,6.724,6.724,0,0,1,3.523,3.484,5.382,5.382,0,0,1-.031,4.292c-3.814.193-7.725.014-11.547.011l-22.534-.031h-9.524c-1.575,0-3.222.1-4.789-.031a1.269,1.269,0,0,1-.812-.237,3.292,3.292,0,0,1-.192-1.434c.087-1.972,1.077-3.171,2.478-4.417-10.822-.153-21.665-.038-32.489-.045h-7.846a21.382,21.382,0,0,1-3.768-.037.936.936,0,0,1-.779-.5l.072.209-.071-.244a.875.875,0,0,1,.291-.474,1.849,1.849,0,0,1,1.017-.423,19.971,19.971,0,0,1,2.139.03H863.1a6.1,6.1,0,0,1,1.875-3.763c1.578-1.369,3.472-1.438,5.437-1.277a10.82,10.82,0,0,1,1.112-4.694q.107-.2.224-.389t.243-.377q.126-.185.262-.365t.279-.351q.144-.172.3-.337t.313-.322q.16-.157.328-.306t.343-.29q.175-.141.357-.272t.37-.254q.188-.123.382-.236t.393-.217q.2-.1.4-.2t.413-.177q.209-.083.421-.156t.428-.135a9.167,9.167,0,0,1,7.132.922,12.221,12.221,0,0,1,2.061-4.711A11.075,11.075,0,0,1,893.866,422.909Z" transform="translate(-732.736 -71.832)" fill="#1b2e36"/>
      <path id="Trazado_1022735" data-name="Trazado 1022735" d="M1505.56,520.9a6.316,6.316,0,0,1,1.267-2.467,5.627,5.627,0,0,1,4.151-2.065,3.061,3.061,0,0,1-.035,1.377,5.848,5.848,0,0,1-1.809.967c-1.336.652-1.912,2.739-2.216,4.074A15.745,15.745,0,0,1,1505.56,520.9Z" transform="translate(-1312.849 -155.131)" fill="#fcba93"/>
      <path id="Trazado_1022736" data-name="Trazado 1022736" d="M1522.051,516.37a8.374,8.374,0,0,1,3.442.677c1.628.815,2.345,2.42,2.9,4.07a15.6,15.6,0,0,1,.756,5.373,7.562,7.562,0,0,0-4.7-3.325,9.561,9.561,0,0,0-5.558.912l-.126-.043-.194-.286a7.176,7.176,0,0,1-.586-.961c.3-1.335.88-3.422,2.216-4.074a5.852,5.852,0,0,0,1.809-.967A3.085,3.085,0,0,0,1522.051,516.37Z" transform="translate(-1323.92 -155.131)" fill="#fc654d"/>
      <path id="Trazado_1022737" data-name="Trazado 1022737" d="M1522.9,538.634a4.671,4.671,0,0,1,.139-2.091,5.7,5.7,0,0,1,2.585-3.2,2.032,2.032,0,0,1,1.644-.141c-1.6,1.075-3.152,1.9-3.747,3.893-.178.6-.254,1.228-.428,1.829Z" transform="translate(-1328.244 -170.017)" fill="#fcba93"/>
      <path id="Trazado_1022738" data-name="Trazado 1022738" d="M1273.487,546.067q.129-.012.258-.02c.1-.007.2-.012.3-.016s.2-.005.3-.005.2,0,.3,0,.2.008.3.015.2.015.3.025.2.022.295.036.2.029.294.046.194.036.292.056.194.042.29.066.192.049.287.076.19.055.284.086.188.062.281.1.186.068.278.105.183.075.274.115.181.081.27.124.178.087.265.133.175.094.261.142.171.1.256.151.168.105.25.16.164.111.244.169.16.117.239.177.156.122.232.185.152.127.226.193.147.133.219.2.143.137.212.208.138.142.2.215.133.147.2.222.127.151.189.229.122.156.181.235.117.16.173.241.111.164.165.247.105.167.156.253a10.554,10.554,0,0,0,1.423,2.438l-.037-.1c.056.04.1.1.168.121.135.041.764-.386.894-.465a7.186,7.186,0,0,1,3.365-1.271,5.519,5.519,0,0,1,5.6,3.406,6.005,6.005,0,0,0,1.2,2.391,9.833,9.833,0,0,1,2.42-.86,3.448,3.448,0,0,1,2.588.865,5.786,5.786,0,0,1,1.817,4.349l-16.69.007q-15.175.08-30.351,0a5.946,5.946,0,0,1,.3-1.479c1.557-3.857,5.8-3.174,9.158-3.13a6.449,6.449,0,0,0,2.557-.242c.4-.522,0-1.861-.082-2.526a6.358,6.358,0,0,1,1.553-4.461A8.386,8.386,0,0,1,1273.487,546.067Z" transform="translate(-1088.911 -181.545)" fill="#fefefe"/>
      <path id="Trazado_1022739" data-name="Trazado 1022739" d="M978.079,436.454a7.005,7.005,0,0,1,1.211.013,10.555,10.555,0,0,1,9.389,7.663c.22.849,0,3.764.5,4.2.517.449,1.684-.067,2.288-.145a1.654,1.654,0,0,1,1.353.324c1.621,1.42-.295,3.9-.665,5.445a12.819,12.819,0,0,0-.151,3.344l-30.742.037-13.311-.066a5.545,5.545,0,0,1,2.013-2.868c1.98-1.3,3.033-.249,4.944.045a.784.784,0,0,0,.67-.15c.206-.961-.168-2.118-.085-3.141q.016-.179.04-.357t.057-.354q.033-.176.074-.351t.092-.347q.05-.173.108-.342t.125-.337q.067-.167.141-.33t.157-.323q.083-.16.173-.315t.188-.306q.1-.151.2-.3t.217-.286q.112-.14.23-.275t.244-.264q.125-.129.256-.251t.268-.238a7.24,7.24,0,0,1,7.5-1.217c.938.429,1.831,1.293,2.882,1.375a.614.614,0,0,0,.33-.419,11.986,11.986,0,0,0,.311-1.745,9.037,9.037,0,0,1,1.871-4.191A10.1,10.1,0,0,1,978.079,436.454Z" transform="translate(-816.203 -83.934)" fill="#fefefe"/>
      <path id="Trazado_1022740" data-name="Trazado 1022740" d="M156.834,719.724c.757-1.1,2.778-5.424,3.61-5.881.738-.405,6.391-.276,7.263-.011a2.642,2.642,0,0,1,1.3.86,55.053,55.053,0,0,1,2.822,5,19.15,19.15,0,0,1,7.282,2.093,3.016,3.016,0,0,1,1.578,1.752,1.724,1.724,0,0,1-.3,1.379c-1.244,1.748-4.551,2.364-6.533,2.759.1,1.249.413,3.03-.438,4.076a1.835,1.835,0,0,1-1.357.66l-.113.01a10.592,10.592,0,0,0-.806,2.08,13.511,13.511,0,0,1-1.593,2.8,7.532,7.532,0,0,0,.387,2.42,46.655,46.655,0,0,1,5.307,2.426A23.662,23.662,0,0,1,184.36,753.1a12.215,12.215,0,0,1,.168,9.279,25.211,25.211,0,0,1-7.424,8.959q.032,3.81-.122,7.616c2.531.118,5.11.005,7.646,0a17.127,17.127,0,0,1,2.551,0,1.562,1.562,0,0,1,.94.433c-.322.364-.489.325-.966.352-1.256.07-9.643-.175-10.1.092l-.119.2a52.2,52.2,0,0,1,.126,6.688l-.1,16.587,1.2-.115-1.083,1.43-.036,1.891a9.466,9.466,0,0,1,4.575,2.374,4.762,4.762,0,0,1,1.3,3.78l11.989.016c.176-2.11.081-4.223.16-6.337a24.466,24.466,0,0,0-1.815-1.9c-1.963-2.026-2.455-3.833-2.706-6.594-2.345-2.192-4.28-1.525-7.136-1.608a2.675,2.675,0,0,1-.992-.743c-.471-.657-1.315-2.521-1.134-3.353.295-1.361,2.536-1.4,3.614-1.757a8.269,8.269,0,0,0,1.47-.76,4.674,4.674,0,0,1,.65-1.342c.2-.246.926-.836.978-1.12.165-.885.016-1.415.6-2.231a1.754,1.754,0,0,1,1.214-.748c1.185-.144,2.173.79,3.027,1.47a6.273,6.273,0,0,1,1.883-1.279l.2.1a5.732,5.732,0,0,1,2.354,2.387,1.53,1.53,0,0,1,.028,1.263c-.32.719-1.058.948-1.734,1.213a5.429,5.429,0,0,0,3.317,2.07,14.5,14.5,0,0,0,3.626.095c3.034-.13,7.672-.724,10.5.292a9.975,9.975,0,0,1,5.406,5.557c1.632,3.544-1.885,4.24-2.313,7.274-.334,2.366,1.523,2.066.093,5.778a8.82,8.82,0,0,0-.462,2.145l1.808-.007a22.547,22.547,0,0,0,1.6-3.45c.913-2.868.8-7.579.907-10.637-1.536-2.424-1.745-5.66-2.545-8.4-.732-.353-1.472-.7-2.166-1.122-6.668-4.058-10.5-16.609-12.268-23.892a18.782,18.782,0,0,1-7.437-.194,11.567,11.567,0,0,1-1.757.725,5.235,5.235,0,0,1-3.841-.278,5.775,5.775,0,0,1-2.267-3.187,3.707,3.707,0,0,1,.155-2.463c.921-2.063,4.982-5.128,6.629-6.95a21.518,21.518,0,0,0,2.074-3.238,9.456,9.456,0,0,1-3.655-1.151,2.733,2.733,0,0,1-1.238-1.792.943.943,0,0,1,.186-.8,1.179,1.179,0,0,1,.684-.341,16.536,16.536,0,0,1,2.5-.016l5.594.026.091-.1c.047-.048.1-.094.143-.142.443-.456,1.071-.535,1.471-.933.5-.5.746-1.255,1.286-1.738a3.935,3.935,0,0,1,2.671-.841,3.587,3.587,0,0,1,2.521,1.177,3.333,3.333,0,0,1,.864,2.438,1.453,1.453,0,0,0,.041.6c1.243.475,4.165-.016,5.493-.3.781-.165,1.81-.445,2.512.058a1.171,1.171,0,0,1,.477.774,3.256,3.256,0,0,1-.767,2.233c-1.274,1.761-3.239,1.623-5.2,1.9a22.671,22.671,0,0,0,2.845,2.637,83.132,83.132,0,0,0,8.981.193c5.787-.029,11.628-.22,17.41.007a30.355,30.355,0,0,0-2.242-5.08,19.284,19.284,0,0,1-1.471-3.02c-.5-1.562.894-2.349.8-3.779-.084-1.243-.912-2.46-1.3-3.638-.852-2.618-.1-5.494.167-8.14-1.167,2.558-.683,5.062-1.106,7.764a7.864,7.864,0,0,1,.845,1.844c.493,1.817-.5,5.373-1.47,6.959a1.217,1.217,0,0,1-.816.657c-.831-.757.961-4.132,1.174-5.189a7.667,7.667,0,0,0-.062-2.659c-.3.582-.6,1.171-.925,1.744a1.8,1.8,0,0,1-1.106,1.006,1.627,1.627,0,0,1-.761-.576c.5-1.363,1.608-2.4,1.936-3.854.534-2.36-.42-4.712.633-7.057,3.339-7.435,11.3-4.177,17.419-4.327a15.617,15.617,0,0,0,5.211-1.111q-.137-.055-.273-.112c-.715-.3-1.8-.792-2.029-1.6a1.027,1.027,0,0,1,.147-.82,2.568,2.568,0,0,1,1.541-.967,2.39,2.39,0,0,1,2.075.4c.228-.3.456-.606.713-.883a4.39,4.39,0,0,1,3.364-1.3,10.313,10.313,0,0,1,1.616.376,6.539,6.539,0,0,1,2.049,1.644,2.744,2.744,0,0,1,2.487.076,2.963,2.963,0,0,1,1.476,1.259.93.93,0,0,1-.013.792c-.332.773-1.75,1.3-2.5,1.521a7.11,7.11,0,0,1-1.134.2c-.046,3.892-1.05,3.858-1.759,7.038-.588,2.636-.524,5.268-1.608,7.813a18.057,18.057,0,0,1-2.7,4.047c-2.348,2.98-2,5.682-.5,8.937,7.112-.013,14.286-.223,21.389.043l-.026,1.482q-21.273.117-42.545-.014c-7.718,0-15.442.283-23.157.178,7.05,5.224,15.388,5.3,23.788,5.28q6.085-.027,12.168-.173a52.962,52.962,0,0,1,8.489,0c1.551.22,2.678,1.221,4.128,1.578.858.211,1.766.123,2.617.406,4.128,1.374,6.1,4.84,6.713,8.978a63.594,63.594,0,0,1,.394,7.935,21.071,21.071,0,0,0,.161,3.38c.336,1.736,1.9,2.872,2.021,4.742a4.938,4.938,0,0,1-.046,1.005c-.118.827-.388,1.629-.55,2.448a18.858,18.858,0,0,0-.2,1.892,1.852,1.852,0,0,1-.149.573c-.163.047-.208.1-.374.018-.9-.435-1.641-2.22-2.076-3.1a5.145,5.145,0,0,1-.191,1.914c-.268.085-.345.145-.609,0-.866-.461-1.522-2.587-1.666-3.522a8.587,8.587,0,0,1,1.219-5.484c-.377-3.643-.21-7.422-1.058-10.985a34.519,34.519,0,0,1-.313,4.528c-.6,3.179-1.478,4.445-1.451,7.938a13.131,13.131,0,0,0,1.35,6.309,11.759,11.759,0,0,1,1.758,3.713c.192,1.343-.766,2.408-1.082,3.633a12.58,12.58,0,0,0-.229,2.665c-.057,1.659.048,6.315-.423,7.685a2.312,2.312,0,0,1-.706.964,6.524,6.524,0,0,1-.86.609c-.1.908-.129,1.808-.15,2.721.993.009,3.595-.251,4.315.22a1.645,1.645,0,0,1,.206,1.2,1.007,1.007,0,0,1-.223.506,2.678,2.678,0,0,1-1.242.2c-7.238.11-14.508.007-21.749,0l-42.424-.055-105.422-.062a8.271,8.271,0,0,1-6.5,1.559,8.943,8.943,0,0,1-3.775-1.581l-12.336.039c-1.762,0-3.648.195-5.391.035a1.155,1.155,0,0,1-.706-.248,1.345,1.345,0,0,1-.084-1.117,1.247,1.247,0,0,1,.266-.524l3.372-.048a58.513,58.513,0,0,0-1.3-9.309c-.18-.954-.46-1.929-.569-2.891-.156-1.375.908-2.529.888-3.884a55.974,55.974,0,0,0-.744-6.052c-.327-2.57-.527-5.165-.915-7.726-.506,3.355-.8,6.738-1.326,10.09l.086.085a5.878,5.878,0,0,1,1.4,4.048c-.008,1.233-.817,4.062-1.713,4.89a.68.68,0,0,1-.558.205c-.585-.1-1-.857-1.29-1.332a6.508,6.508,0,0,1-1.051-4.493c.43-1.678,1.651-2.908,1.985-4.633,1.458-7.523-.33-15.64,7.494-20.149q.544-.308,1.117-.56a12.456,12.456,0,0,1,1.168-.445,12.327,12.327,0,0,1,1.206-.325,12.477,12.477,0,0,1,1.233-.2A46.117,46.117,0,0,1,90.342,770l9.122-.01,9.984.006c1.636,0,3.3-.072,4.931.011a9.248,9.248,0,0,1,2.145.331c2.6.776,11.92,10.609,13.469,10.725l-.009-.08a6.316,6.316,0,0,1-1.455-1c-.015-.208-.061-.225.085-.4a.739.739,0,0,1,.676-.3c.983.01,2.614,1.36,3.336,1.972l-.059-.151c-.684-1.72-2.11-2.894-1.278-4.926a1.178,1.178,0,0,1,.452-.585.9.9,0,0,1,.8.185,11.651,11.651,0,0,1,1.988,2.652c.288-.841.609-2.29,1.476-2.7a.8.8,0,0,1,.476-.029,1.969,1.969,0,0,1,.855,1.335,4.856,4.856,0,0,1-.276,3.484,10.352,10.352,0,0,0,1.458.823,27.221,27.221,0,0,0,4.91-.4,25.118,25.118,0,0,0,2.452-.949c.379-.146,1.071-.427,1.407-.033a.725.725,0,0,1,.084.686,5.543,5.543,0,0,1-2.764,3.059,8.728,8.728,0,0,1-3.475.475c.711.73,1.563,1.457,1.533,2.568a5.437,5.437,0,0,1-.495,1.775c.618,1.642,1.354,3.247,2.093,4.839a17.255,17.255,0,0,1,1.688,4.119,3.282,3.282,0,0,1-.236,1.88,5.7,5.7,0,0,1-2.881,2.909,4.433,4.433,0,0,1-3.335-.178c-1.075-.528-1.667-1.668-2.61-2.376-2.14-1.608-4.963-2.583-6.888-4.424a26.441,26.441,0,0,1-8.354,2.128c-1.669,7.062-2.451,8.168.038,15.2l14.11-.009c3.147.01,6.308.086,9.454.005,0-1.736.109-3.141,1.407-4.451a6.965,6.965,0,0,1,3.677-1.793,10.449,10.449,0,0,0-.192-1.611,9.738,9.738,0,0,1-.371-1.554,2.975,2.975,0,0,1,.56-.109c.306-.483.012-7.574.01-8.771-.017-7.879,0-15.835.414-23.7-3.37-4.108-7.394-6.913-6.766-12.931a17.293,17.293,0,0,1,.759-3.286l-48.174.091c-9.264-.022-18.587-.276-27.843.013.078-.5.172-1.006.218-1.511,1.606.009,11.525.274,12.2-.16.053-.21.1-.217-.007-.417-.816-.449-1.665-.875-2.432-1.4a3.251,3.251,0,0,1-.282-.908l.169-.181a17.579,17.579,0,0,1,2.764,1.6,3.41,3.41,0,0,1,.155-1.688,1.324,1.324,0,0,1,.87.065l0,1.506c.716-.4,1.433-.789,2.171-1.149l.218.466c-.532.443-1.1.8-1.659,1.211a1.258,1.258,0,0,0-.619.843l.139.159c3.508.229,7.119.076,10.635.08l.025-9.979a32.44,32.44,0,0,1,.107-5.038c.076-.449.5-.657.843-.906a22.359,22.359,0,0,1,1.843-2.936,62.346,62.346,0,0,0,2.849-6.586l1.358-.936c.936-1.15,5.878-3.836,7.548-5.243a10.28,10.28,0,0,1,1.056.864c1.129.95,5.81,4.276,7.073,4.615a2.751,2.751,0,0,1,.691.8c1.148,1.9,2.026,3.961,3.175,5.868.44.729,1.535,2.114,1.612,2.939a.961.961,0,0,1,0,.106,9.338,9.338,0,0,0,1.344,1.58c.05.3.115.464-.051.743-.026.044-.191.214-.221.246a1.142,1.142,0,0,0-.3.4,16.21,16.21,0,0,0-.03,3.151l.018,10.26c3.309.25,6.739.086,10.061.094l-.008-1.76c-.5-.372-.988-.739-1.449-1.157a3.52,3.52,0,0,0-1.306-1.046.935.935,0,0,1,.017-.72.746.746,0,0,1,.668.152c.765.479,1.425,1.136,2.166,1.655a3.1,3.1,0,0,1,.382-2.206l.175-.032a1.374,1.374,0,0,1,.413,1,12.009,12.009,0,0,1-.1,1.356c.517-.336,1.892-1.549,2.44-1.5.211.176.144.071.222.3a5.045,5.045,0,0,0-.892.976q-.881.683-1.782,1.339c.092.541.127,1.088.17,1.635,3.9-.127,7.822-.05,11.723-.08,2.24-4.016,3.6-7.94,7.83-10.436a40.326,40.326,0,0,0,5.482-3.39,12.87,12.87,0,0,1,.3-1.84,9.365,9.365,0,0,1-1.942-4.794,5.051,5.051,0,0,1-.778-.074,2.144,2.144,0,0,1-1.372-.95c-.7-1.085-.35-2.755-.057-3.929a12.906,12.906,0,0,1-5.881-1.719,3.175,3.175,0,0,1-1.49-1.8,1.4,1.4,0,0,1,.355-1.132C149.461,720.595,154.042,720.034,156.834,719.724Z" transform="translate(-33.098 -330.785)" fill="#1b2e36"/>
      <path id="Trazado_1022741" data-name="Trazado 1022741" d="M505.13,1593.978a8.607,8.607,0,0,1-.371-1.121.745.745,0,0,1,.128-.65l.456-.073A2.761,2.761,0,0,1,505.13,1593.978Z" transform="translate(-421.439 -1113.287)" fill="#fc654d"/>
      <path id="Trazado_1022742" data-name="Trazado 1022742" d="M402.238,1603.67l.1.134a3.1,3.1,0,0,1-.028,1.7c-.075.163-.4.187-.565.232l-.17-.145C401.417,1605.049,402,1604.163,402.238,1603.67Z" transform="translate(-329.533 -1123.562)" fill="#f8fcfc"/>
      <path id="Trazado_1022743" data-name="Trazado 1022743" d="M1109.08,1428.722a3.544,3.544,0,0,1,2.354-.733,2.891,2.891,0,0,1-.083.722C1110.6,1428.681,1109.835,1428.712,1109.08,1428.722Z" transform="translate(-959.714 -967.087)" fill="#f8fcfc"/>
      <path id="Trazado_1022744" data-name="Trazado 1022744" d="M1662.922,987.96a18.5,18.5,0,0,0-.962,3.423l-.276.053a2,2,0,0,1,.236-1.858C1662.235,989.028,1662.583,988.494,1662.922,987.96Z" transform="translate(-1451.792 -575.165)" fill="#fefefe"/>
      <path id="Trazado_1022745" data-name="Trazado 1022745" d="M781.448,1605.1a3.72,3.72,0,0,0,1.062-.116l.288.141c-.161.136-.207.109-.219.335a3.261,3.261,0,0,0,.053.688,1.126,1.126,0,0,1-.613.431.924.924,0,0,1-.334-.19A2.216,2.216,0,0,1,781.448,1605.1Z" transform="translate(-667.9 -1124.736)" fill="#b8685a"/>
      <path id="Trazado_1022746" data-name="Trazado 1022746" d="M478.757,1484.531a13.492,13.492,0,0,1,2.835.059l-.054.113-.7.2a5.392,5.392,0,0,1-2.236.367C478.506,1484.954,478.635,1484.819,478.757,1484.531Z" transform="translate(-398.133 -1017.406)" fill="#fefefe"/>
      <path id="Trazado_1022747" data-name="Trazado 1022747" d="M973.817,1544.19a5.318,5.318,0,0,1,1.456,1.982c-.527-.015-1.053-.06-1.579-.1A13.023,13.023,0,0,1,973.817,1544.19Z" transform="translate(-839.129 -1070.585)" fill="#f8fcfc"/>
      <path id="Trazado_1022748" data-name="Trazado 1022748" d="M249.393,1593.5c.071-.347.119-.873.427-1.091a.783.783,0,0,1,.662-.177,1.033,1.033,0,0,1,.6.527,2.9,2.9,0,0,1,.188.863A4.142,4.142,0,0,0,249.393,1593.5Z" transform="translate(-194.013 -1113.358)" fill="#cc3c37"/>
      <path id="Trazado_1022749" data-name="Trazado 1022749" d="M1872.133,788.413a3.735,3.735,0,0,1,.65,2.683,2.288,2.288,0,0,1-.147.466l-.824-.564A11.635,11.635,0,0,0,1872.133,788.413Z" transform="translate(-1639.059 -397.433)" fill="#8cbbe5"/>
      <path id="Trazado_1022750" data-name="Trazado 1022750" d="M976.8,1578.745a23.561,23.561,0,0,1-.017-4.831c.042,1.023.024,2.044.056,3.067,0,.313-.055.375.155.6a4.086,4.086,0,0,0,1.126-.009l.1.059a6.768,6.768,0,0,1,.465.933Z" transform="translate(-841.773 -1097.06)" fill="#8e686b"/>
      <path id="Trazado_1022751" data-name="Trazado 1022751" d="M716.764,1367.34c-.137-.155-.28-.31-.4-.476a.7.7,0,0,1-.192-.65,3.136,3.136,0,0,0,.463-.675c.032-.067.063-.135.095-.2.015.039.03.078.046.117.321.783,1.384,1.234,1.535,2a.408.408,0,0,1-.436.156A4.967,4.967,0,0,1,716.764,1367.34Z" transform="translate(-609.745 -911.283)" fill="#f8fcfc"/>
      <path id="Trazado_1022752" data-name="Trazado 1022752" d="M725.827,1335.44a3.578,3.578,0,0,1-2.368,1.5,4.322,4.322,0,0,1-2.839-.114,2.471,2.471,0,0,1-.309-.286A10.753,10.753,0,0,0,725.827,1335.44Z" transform="translate(-613.447 -884.656)" fill="#fc654d"/>
      <path id="Trazado_1022753" data-name="Trazado 1022753" d="M1942.912,1260.76c.145,1.468.442,7.024.161,8.25a57.018,57.018,0,0,1-.483-7.308.661.661,0,0,0,.07-.048C1942.905,1261.427,1942.87,1261.076,1942.912,1260.76Z" transform="translate(-1702.099 -818.141)" fill="#f8fcfc"/>
      <path id="Trazado_1022754" data-name="Trazado 1022754" d="M437.091,1592.753l1.394-.014c.109.687.571,2.349.334,2.948l-.176.086C438.107,1595.45,437.5,1593.457,437.091,1592.753Z" transform="translate(-361.19 -1113.826)" fill="#fc654d"/>
      <path id="Trazado_1022755" data-name="Trazado 1022755" d="M791.984,1606.28l.5.049c2.009.788,5.257.1,7.563.68-1.531.019-7.139-.385-8.231.295a3.26,3.26,0,0,1-.053-.687C791.778,1606.389,791.824,1606.416,791.984,1606.28Z" transform="translate(-677.087 -1125.887)" fill="#674d59"/>
      <path id="Trazado_1022756" data-name="Trazado 1022756" d="M1305.49,983.116a1.816,1.816,0,0,1,.391-.528,2.484,2.484,0,0,1,1.83-.675,2.386,2.386,0,0,1,1.856,1,9.445,9.445,0,0,0-1.678-.06A9.71,9.71,0,0,1,1305.49,983.116Z" transform="translate(-1134.651 -569.776)" fill="#8cbbe5"/>
      <path id="Trazado_1022757" data-name="Trazado 1022757" d="M1006.723,1138.96a6.055,6.055,0,0,1,.877,1.087,10.554,10.554,0,0,1-.087,2.59,1.879,1.879,0,0,1-.664-.3C1006.368,1141.441,1006.633,1139.95,1006.723,1138.96Z" transform="translate(-868.41 -709.657)" fill="#236d95"/>
      <path id="Trazado_1022758" data-name="Trazado 1022758" d="M177.406,1557.126a1.57,1.57,0,0,1,1.056.149,6.862,6.862,0,0,1,.377,2.3l-1.335.016A22.643,22.643,0,0,0,177.406,1557.126Z" transform="translate(-129.896 -1082.09)" fill="#fc654d"/>
      <path id="Trazado_1022759" data-name="Trazado 1022759" d="M1793.522,793.847a2.62,2.62,0,0,1,.977.135,1.15,1.15,0,0,1,.441.891.962.962,0,0,1-.348.7c-.144.106-.44.019-.615,0a7.074,7.074,0,0,1-1.224-.542c-.219-.145-.222-.185-.268-.426A2.422,2.422,0,0,1,1793.522,793.847Z" transform="translate(-1568.406 -402.273)" fill="#fc654d"/>
      <path id="Trazado_1022760" data-name="Trazado 1022760" d="M1890.684,794.877a2.469,2.469,0,0,1,1.65.345.651.651,0,0,1,.32.55,1.425,1.425,0,0,1-.689.584,2.5,2.5,0,0,1-.978.155,1.2,1.2,0,0,1-.726-.439.782.782,0,0,1-.131-.71C1890.238,795.024,1890.385,795.006,1890.684,794.877Z" transform="translate(-1655.344 -403.177)" fill="#fc654d"/>
      <path id="Trazado_1022761" data-name="Trazado 1022761" d="M418.708,1556.467l1.266-.02a3.762,3.762,0,0,1-.473,2.882c-.176-.014-.35-.041-.525-.065a1.712,1.712,0,0,1-.258-1.2C418.741,1557.532,418.723,1557,418.708,1556.467Z" transform="translate(-344.817 -1081.502)" fill="#fcba93"/>
      <path id="Trazado_1022762" data-name="Trazado 1022762" d="M1678.63,988.346c.274-.644.7-2.836.961-3.1l.43.061c.448.1,1.139.15,1.441.524a3.2,3.2,0,0,0-.951.661l-.092.1C1679.868,987.211,1679.512,988.241,1678.63,988.346Z" transform="translate(-1466.998 -572.747)" fill="#fcba93"/>
      <path id="Trazado_1022763" data-name="Trazado 1022763" d="M826.407,1543.44c.744,1.415,2.369,1.741,2.468,1.948-.216.037-.43.077-.649.1-.843.022-1.688.023-2.531.034.007-.538-.224-1.464.1-1.906C825.91,1543.463,826.224,1543.471,826.407,1543.44Z" transform="translate(-707.245 -1069.917)" fill="#f8fcfc"/>
      <path id="Trazado_1022764" data-name="Trazado 1022764" d="M247.69,1603.5a4.138,4.138,0,0,1,1.88.122l.505,1.5c-.633-.024-1.288.015-1.915-.03a.836.836,0,0,1-.635-.378A2.1,2.1,0,0,1,247.69,1603.5Z" transform="translate(-192.309 -1123.361)" fill="#8b2f30"/>
      <path id="Trazado_1022765" data-name="Trazado 1022765" d="M246.41,1557.56a1.405,1.405,0,0,1,.709.032c.138.062.166.186.22.317a2.908,2.908,0,0,1-.072,2.028l-.363.1a3.52,3.52,0,0,1-.88-.033c-.074-.253-.148-.506-.207-.763a2.281,2.281,0,0,1,.074-1.588Z" transform="translate(-190.733 -1082.467)" fill="#fcba93"/>
      <path id="Trazado_1022766" data-name="Trazado 1022766" d="M714.72,1334.145c1.055-.062,2.119-.113,3.167-.253a15.149,15.149,0,0,1,2.98-.447l-.02.21a10.768,10.768,0,0,1-5.516,1.1Z" transform="translate(-608.467 -882.87)" fill="#f8fcfc"/>
      <path id="Trazado_1022767" data-name="Trazado 1022767" d="M1011.839,840.217a2.5,2.5,0,0,1-.2-1,.62.62,0,0,1,.323-.549,1.094,1.094,0,0,1,.712.273,4.81,4.81,0,0,1,.09,3.129,1.263,1.263,0,0,1-.592.642l-.253-.047a.776.776,0,0,1-.141-.617,6.934,6.934,0,0,1,.33-1.011Z" transform="translate(-872.923 -442.195)" fill="#fcba93"/>
      <path id="Trazado_1022768" data-name="Trazado 1022768" d="M979.919,1118a12.343,12.343,0,0,1,2.361-.112,1.523,1.523,0,0,1,.243.848c-.019.042-.035.084-.056.125a1.655,1.655,0,0,1-1.137.9,1.447,1.447,0,0,1-1.191-.214,1.66,1.66,0,0,1-.24-.979Z" transform="translate(-844.655 -690.887)" fill="#8cbbe5"/>
      <path id="Trazado_1022769" data-name="Trazado 1022769" d="M1210.658,1373.85a4.3,4.3,0,0,1,1.441,1.3.984.984,0,0,1,.168.821,1.393,1.393,0,0,1-.886.389,5.358,5.358,0,0,1-.729-.214c-.486-.187-.877-.325-1.1-.814a1.19,1.19,0,0,1,.437-.888C1210.219,1374.247,1210.439,1374.057,1210.658,1373.85Z" transform="translate(-1049.201 -918.867)" fill="#f8fcfc"/>
      <path id="Trazado_1022770" data-name="Trazado 1022770" d="M160.033,1557.3l1.9-.023a22.64,22.64,0,0,1,.1,2.462l-1.727.009A15.488,15.488,0,0,1,160.033,1557.3Z" transform="translate(-114.422 -1082.244)" fill="#fcba93"/>
      <path id="Trazado_1022771" data-name="Trazado 1022771" d="M895.632,910.867a8.8,8.8,0,0,1,.949-.395c-.031.038-.059.077-.092.113a3.977,3.977,0,0,1-.626.524c.053.051.108.1.16.153.4.4.382,1.312.441,1.863l-.2.313c.39.324,1.418.254,1.522.694-.165-.029-.326-.062-.488-.1-.551-.14-1.241-.245-1.547-.756a14.209,14.209,0,0,1-2.019-2.221l.4-.377A3.223,3.223,0,0,0,895.632,910.867Z" transform="translate(-767.904 -506.148)" fill="#fcba93"/>
      <path id="Trazado_1022772" data-name="Trazado 1022772" d="M1510.141,1595.84l1.244.026a6,6,0,0,1-.233,2.378c-.294.24-.455.192-.828.211l-1.531-.044C1509.2,1597.535,1509.684,1596.689,1510.141,1595.84Z" transform="translate(-1315.728 -1116.588)" fill="#236d95"/>
      <path id="Trazado_1022773" data-name="Trazado 1022773" d="M426.428,1556.45h1.659l.052,2.864-2.185.017A3.763,3.763,0,0,0,426.428,1556.45Z" transform="translate(-351.272 -1081.504)" fill="#fc654d"/>
      <path id="Trazado_1022774" data-name="Trazado 1022774" d="M554.669,1336.65a20.308,20.308,0,0,0,6.919,1.374,3.627,3.627,0,0,1-2.39.619,16.78,16.78,0,0,1-3.517-.572C555.313,1337.619,554.995,1337.133,554.669,1336.65Z" transform="translate(-465.914 -885.734)" fill="#f8fcfc"/>
      <path id="Trazado_1022775" data-name="Trazado 1022775" d="M973.766,1147.51l1.8.04a4.251,4.251,0,0,1-.1,1.832,1.509,1.509,0,0,1-.927.331,6.024,6.024,0,0,1-1.09,0,.731.731,0,0,1-.576-.341A4.543,4.543,0,0,1,973.766,1147.51Z" transform="translate(-838.401 -717.272)" fill="#4ea7d1"/>
      <path id="Trazado_1022776" data-name="Trazado 1022776" d="M1244.567,1578.48a.755.755,0,0,1,.067.105,9.39,9.39,0,0,1,.351,4.233,2.685,2.685,0,0,1-1.182.124,1.7,1.7,0,0,1-.611-.094C1243.01,1582.231,1244.285,1579.258,1244.567,1578.48Z" transform="translate(-1079.149 -1101.126)" fill="#f8fcfc"/>
      <path id="Trazado_1022777" data-name="Trazado 1022777" d="M781.448,1578.025a3.668,3.668,0,0,1,1.117-2.257,5.4,5.4,0,0,1,4.1-1.178c-1.053.9-4,1.811-4.153,3.319A3.677,3.677,0,0,1,781.448,1578.025Z" transform="translate(-667.9 -1097.657)" fill="#fefefe"/>
      <path id="Trazado_1022778" data-name="Trazado 1022778" d="M1170.157,1371.821c.031-.051.063-.1.1-.15.219-.327.42-.627.852-.66a2.077,2.077,0,0,1,1.274.571,8.223,8.223,0,0,1,1.462,2.315c-1.027-.334-2.915-.533-3.687-1.256A.888.888,0,0,1,1170.157,1371.821Z" transform="translate(-1014.023 -916.336)" fill="#fc654d"/>
      <path id="Trazado_1022779" data-name="Trazado 1022779" d="M1170.99,1371.821c.031-.051.063-.1.1-.15.219-.327.42-.627.852-.66a2.075,2.075,0,0,1,1.274.571c0,.251.007.5.021.75l-.052.076A6.359,6.359,0,0,1,1170.99,1371.821Z" transform="translate(-1014.856 -916.336)" fill="#f8fcfc"/>
      <path id="Trazado_1022780" data-name="Trazado 1022780" d="M953.791,960.715a13.5,13.5,0,0,0,1.5-1.142c.656-.6,1.448-1.754,2.227-2.1.122.116.4.31.413.48.056,1.05-2.861,3.331-2.334,3.969l-.037.08-.119.027A13.066,13.066,0,0,0,953.791,960.715Z" transform="translate(-821.402 -548.013)" fill="#fc654d"/>
      <path id="Trazado_1022781" data-name="Trazado 1022781" d="M861,840.487a.855.855,0,0,0-.131-.007c-.312.034-.357.123-.544.353-.19.789.118,1.18.312,1.909-.143.25-.145.228-.423.313a1.171,1.171,0,0,1-.692-.278,1.664,1.664,0,0,1-.5-1.155,3.635,3.635,0,0,1,.651-2.408c.515-.49,1.286-.36,1.932-.318C861.321,839.414,861.255,839.973,861,840.487Z" transform="translate(-736.99 -442.355)" fill="#fcba93"/>
      <path id="Trazado_1022782" data-name="Trazado 1022782" d="M1789.251,1593.41a6.635,6.635,0,0,0,2.218.384c-.268.736-.506,1.483-.763,2.223l-.357.048c-.352.28-1.76.148-2.243.148A18.444,18.444,0,0,1,1789.251,1593.41Z" transform="translate(-1564.504 -1114.424)" fill="#4ea7d1"/>
      <path id="Trazado_1022783" data-name="Trazado 1022783" d="M1206.78,1015.978c2.1-.124,4.284.022,6.392.046-.277.283-.585.535-.886.793a3.737,3.737,0,0,1-2.583.543A4.444,4.444,0,0,1,1206.78,1015.978Z" transform="translate(-1046.733 -600.076)" fill="#fefefe"/>
      <path id="Trazado_1022784" data-name="Trazado 1022784" d="M1867.048,1594.12a18.228,18.228,0,0,0,1.841.259c-.056.662.072,1.923-.379,2.43-.132.149-.441.106-.633.117l-2.1.007Q1866.4,1595.523,1867.048,1594.12Z" transform="translate(-1633.685 -1115.056)" fill="#4ea7d1"/>
      <path id="Trazado_1022785" data-name="Trazado 1022785" d="M1861.033,812.061l.824.564c-.21.332-.063.787-.056,1.163a23.006,23.006,0,0,1-.661,4.543,5.032,5.032,0,0,1-.379-.768,7.576,7.576,0,0,0,.027-2.181,1.815,1.815,0,0,0-1.078-1.368,1.4,1.4,0,0,0,.312-.541,4.084,4.084,0,0,1-.172-.534l.223-.208.265.286Z" transform="translate(-1628.281 -418.496)" fill="#8cbbe5"/>
      <path id="Trazado_1022786" data-name="Trazado 1022786" d="M1866.091,812.061l.824.564c-.21.332-.063.787-.056,1.163-.3-.055-.438-.036-.659-.259l.113-.266-.063-.084a1.4,1.4,0,0,1-.861.037l.007-.2Z" transform="translate(-1633.339 -418.496)" fill="#236d95"/>
      <path id="Trazado_1022787" data-name="Trazado 1022787" d="M809.707,1605.378a1.528,1.528,0,0,1-.068.875,35.087,35.087,0,0,1-3.691-.072c-2.306-.577-5.554.109-7.563-.68C802.121,1605.251,805.959,1605.394,809.707,1605.378Z" transform="translate(-682.986 -1125.06)" fill="#8b2f30"/>
      <path id="Trazado_1022788" data-name="Trazado 1022788" d="M889.242,728.784a29.139,29.139,0,0,1,2.417-4.745,2.546,2.546,0,0,1,1.165-.19c.071.52-1.676,4.018-1.924,4.895Z" transform="translate(-763.91 -339.928)" fill="#fcba93"/>
      <path id="Trazado_1022789" data-name="Trazado 1022789" d="M1837.191,864.256l-.136-.125a1.4,1.4,0,0,1,.126-.854,2.194,2.194,0,0,1,1.209-1.195,1.024,1.024,0,0,1,.86.049,2.162,2.162,0,0,1,.836,1.314,1.256,1.256,0,0,1-.246,1.117,1.5,1.5,0,0,1-1.142.4,2.178,2.178,0,0,1-1.459-.643C1837.222,864.3,1837.207,864.277,1837.191,864.256Z" transform="translate(-1608.083 -462.986)" fill="#fefefe"/>
      <path id="Trazado_1022790" data-name="Trazado 1022790" d="M1841.6,869.361l-.123-.344a.909.909,0,0,1,.336-.652,1.592,1.592,0,0,1,1.285-.215c.41.1.584.428.79.761-.142.331-.189.468-.527.618A2.3,2.3,0,0,1,1841.6,869.361Z" transform="translate(-1612.044 -468.41)" fill="#1b2e36"/>
      <path id="Trazado_1022791" data-name="Trazado 1022791" d="M1440.738,1593.52a8.8,8.8,0,0,0,1.857.224q-.1,1.34-.241,2.676l-1.564.025-1.675.057Q1439.942,1595.019,1440.738,1593.52Z" transform="translate(-1253.668 -1114.522)" fill="#8cbbe5"/>
      <path id="Trazado_1022792" data-name="Trazado 1022792" d="M1380.872,1578.19a10.33,10.33,0,0,0,1.381,1.623,7.376,7.376,0,0,1-.475,2.768c-.1.141-.273.112-.434.135l-1.739.021Q1380.207,1580.454,1380.872,1578.19Z" transform="translate(-1200.664 -1100.868)" fill="#f8fcfc"/>
      <path id="Trazado_1022793" data-name="Trazado 1022793" d="M883.077,958.691a21.41,21.41,0,0,0,2.129,1.728c.682.439,1.454.733,2.091,1.234-.334.389-.675.773-1,1.172l-.186.127c-.686-.143-3.312-2.895-3.988-3.573Z" transform="translate(-757.57 -549.096)" fill="#fc654d"/>
      <path id="Trazado_1022794" data-name="Trazado 1022794" d="M419,1591.73c.665.026,1.308.157,1.978.125.409.7,1.016,2.7,1.552,3.019a12.6,12.6,0,0,0-3.289-.077C419.1,1593.781,419.061,1592.753,419,1591.73Z" transform="translate(-345.077 -1112.927)" fill="#cc3c37"/>
      <path id="Trazado_1022795" data-name="Trazado 1022795" d="M569.831,1349.21c.606,0,1.208.062,1.812.112a3.8,3.8,0,0,1-2.656,1.7,6.091,6.091,0,0,1-4.544-1.27,3.523,3.523,0,0,1-.519-.494,16.781,16.781,0,0,0,3.517.572A3.619,3.619,0,0,0,569.831,1349.21Z" transform="translate(-474.157 -896.921)" fill="#fc654d"/>
      <path id="Trazado_1022796" data-name="Trazado 1022796" d="M1485.975,1575.47c.088.1.058.043.093.192a8.142,8.142,0,0,1,.441,1.976c0,.05-.006.1-.008.151a7.568,7.568,0,0,1-.681,2.36l-1.258.016a.988.988,0,0,1-.513-.084,5.284,5.284,0,0,1,.12-2.648A4.377,4.377,0,0,0,1485.975,1575.47Z" transform="translate(-1293.561 -1098.445)" fill="#f8fcfc"/>
      <path id="Trazado_1022797" data-name="Trazado 1022797" d="M1889.85,1169.14a8.771,8.771,0,0,1,2.694,1.5c2.415,2.145,3.222,5.421,3.394,8.52-.041.316-.006.667-.252.894a.586.586,0,0,1-.07.048c-.38-3.08-1.011-6.255-3.267-8.553a31.751,31.751,0,0,1-2.413-2.294C1889.906,1169.214,1889.878,1169.176,1889.85,1169.14Z" transform="translate(-1655.126 -736.537)" fill="#fefefe"/>
      <path id="Trazado_1022798" data-name="Trazado 1022798" d="M499.766,1556.4q1.311,0,2.621-.036a21.7,21.7,0,0,0,.28,2.874,13.732,13.732,0,0,1-2.152,0l-.588-.052c-.12-.727-.705-2-.5-2.677Z" transform="translate(-416.671 -1081.429)" fill="#fc654d"/>
      <path id="Trazado_1022799" data-name="Trazado 1022799" d="M499.927,1559.479c-.12-.727-.705-2-.5-2.676l.342-.111c.376.767,1.021,1.739.872,2.607C500.4,1559.518,500.235,1559.462,499.927,1559.479Z" transform="translate(-416.671 -1081.72)" fill="#f8fcfc"/>
      <path id="Trazado_1022800" data-name="Trazado 1022800" d="M1304.613,990.62a9.713,9.713,0,0,0,2.4-.267,9.446,9.446,0,0,1,1.678.06,1.976,1.976,0,0,1,.339,1.43c-.716.556-2.289-.013-3.991,1.054A2.467,2.467,0,0,1,1304.613,990.62Z" transform="translate(-1133.775 -577.28)" fill="#fefefe"/>
      <path id="Trazado_1022801" data-name="Trazado 1022801" d="M508.56,1592.14a14.011,14.011,0,0,0,2.467.088,22.891,22.891,0,0,1,.9,2.854l-3.185-.027-.393-1.071A2.76,2.76,0,0,0,508.56,1592.14Z" transform="translate(-424.655 -1113.293)" fill="#cc3c37"/>
      <path id="Trazado_1022802" data-name="Trazado 1022802" d="M101.423,1449.2l.024.026a5.155,5.155,0,0,1,.992,3.47,1.146,1.146,0,0,1-.3.832c-.215-.13-.423-.267-.631-.407l-.129.094a9.712,9.712,0,0,0-.093,2.28l-.095.073-.189-.084a6.09,6.09,0,0,1-.852-2.524A5.162,5.162,0,0,1,101.423,1449.2Z" transform="translate(-61.056 -985.979)" fill="#fcba93"/>
      <path id="Trazado_1022803" data-name="Trazado 1022803" d="M1311.448,1020.786a3.147,3.147,0,0,1-.285-1.855,1.781,1.781,0,0,1,.861-1.212,3.253,3.253,0,0,1,2.521-.124,3.33,3.33,0,0,1,.613,1.2l-.115.207C1313.827,1019.51,1312.64,1020.2,1311.448,1020.786Z" transform="translate(-1139.665 -601.388)" fill="#f8fcfc"/>
      <path id="Trazado_1022804" data-name="Trazado 1022804" d="M1639.46,1011.22l.12-.535a2.144,2.144,0,0,1,.108-.41c.132-.3.58-.381.865-.471a21.211,21.211,0,0,0,2.872,7.048c-.469-.036-.955-.049-1.419-.131A24.267,24.267,0,0,1,1639.46,1011.22Z" transform="translate(-1432.11 -594.621)" fill="#fc654d"/>
      <path id="Trazado_1022805" data-name="Trazado 1022805" d="M1371.772,1015.507a3.505,3.505,0,0,1,.488.015l.1.186a2.2,2.2,0,0,1-.687,1.337c-1,1.08-3.4.91-4.787.988a3.024,3.024,0,0,0-.488-1.549,1.582,1.582,0,0,1-.282-.331,18.067,18.067,0,0,1,2.1.032A13.6,13.6,0,0,0,1371.772,1015.507Z" transform="translate(-1188.645 -599.697)" fill="#fefefe"/>
      <path id="Trazado_1022806" data-name="Trazado 1022806" d="M334.452,1489.912c2.443.026,4.827-.071,7.265-.142a13.457,13.457,0,0,1,.363,3.143,1.278,1.278,0,0,1-.976-.025c-2.07-1.071-2.637-2.373-5.412-2.685A2.938,2.938,0,0,1,334.452,1489.912Z" transform="translate(-269.772 -1022.114)" fill="#fefefe"/>
      <path id="Trazado_1022807" data-name="Trazado 1022807" d="M855.185,976.069c.19.716.114,12.972-.012,14.094a1.448,1.448,0,0,1-.787.274c-.077-.771-.016-13.238.082-13.7C854.542,976.391,854.909,976.256,855.185,976.069Z" transform="translate(-732.833 -564.574)" fill="#fefefe"/>
      <path id="Trazado_1022808" data-name="Trazado 1022808" d="M1008.782,972.712a1.146,1.146,0,0,1,.508.472c.229,1.544.39,13.472.047,14.08-.25-.028-.5-.067-.748-.1C1008.271,986.482,1008.758,974.331,1008.782,972.712Z" transform="translate(-870.113 -561.584)" fill="#fefefe"/>
      <path id="Trazado_1022809" data-name="Trazado 1022809" d="M848.524,1118.65c1.88.179,3.871.061,5.762.063,2.723,0,5.465.068,8.186-.033l-.021.565-.621.005a32.718,32.718,0,0,0-4.422,0l-8.366.033q-.057,2.882,0,5.765l.1.059-.185-.033.011.1a.837.837,0,0,1-.037.536h-.048c-.124-.812-.631-1.518-.786-2.316C847.86,1122.164,848.357,1119.954,848.524,1118.65Z" transform="translate(-727.207 -691.567)" fill="#fefefe"/>
      <path id="Trazado_1022810" data-name="Trazado 1022810" d="M163.882,1591.151c.76-.016,1.518.01,2.277.033a22.738,22.738,0,0,1,1.065,3.075l-1.27.03-3.222.01a12.884,12.884,0,0,0-.3-3.113Z" transform="translate(-116.559 -1112.408)" fill="#cc3c37"/>
      <path id="Trazado_1022811" data-name="Trazado 1022811" d="M1317.223,1019.16a2.532,2.532,0,0,1,1.963,1.015c.081.1.162.206.237.312a2.085,2.085,0,0,1,.082,1.746,2.2,2.2,0,0,1-1.275,1.195,3.882,3.882,0,0,1-3.021-.189,3,3,0,0,1-1.083-.888c1.192-.582,2.379-1.275,3.6-1.788l.115-.207A3.335,3.335,0,0,0,1317.223,1019.16Z" transform="translate(-1142.342 -602.954)" fill="#fc654d"/>
      <path id="Trazado_1022812" data-name="Trazado 1022812" d="M878.373,806.321c.167.407-.117.983-.257,1.4a9.327,9.327,0,0,1,.818,1.114l.158.016q.156-.389.319-.776c.191-.071.115-.078.222-.057l-.408,1.024c-.767,1.31.028,3.9.093,5.3.033.7-.3,1.213-.136,1.964.008.037.019.074.029.111a3.882,3.882,0,0,0,.181,1.495l-.4.378c-1.17-2.135-1.3-4.436-1.808-6.771.25-.514.317-1.073.6-1.591A10.556,10.556,0,0,1,878.373,806.321Z" transform="translate(-753.174 -413.383)" fill="#f8fcfc"/>
      <path id="Trazado_1022813" data-name="Trazado 1022813" d="M1938.413,1347.55c.113.12.054.048.17.246.407.706.855,1.387,1.222,2.116.971,1.929.788,3.238.14,5.226a18.944,18.944,0,0,1-.74-1.883q-.177-.718-.384-1.428a8.721,8.721,0,0,0-1.274,2.6C1936.991,1351.6,1937.372,1350.182,1938.413,1347.55Z" transform="translate(-1697.381 -895.443)" fill="#fc654d"/>
      <path id="Trazado_1022814" data-name="Trazado 1022814" d="M1474.28,1494.06a53.762,53.762,0,0,1-.008,8.606,3.541,3.541,0,0,1-1.284,1.135c-1.335-1.8.919-7.5-.047-9.026-.2-.313-.372-.339-.693-.459A8.616,8.616,0,0,0,1474.28,1494.06Z" transform="translate(-1283.178 -1025.935)" fill="#8cbbe5"/>
      <path id="Trazado_1022815" data-name="Trazado 1022815" d="M832.8,1543.176q3.975.051,7.949-.032l-.052,2.115c-2.019-.01-4.061-.087-6.078-.034.218-.024.432-.064.648-.1C835.168,1544.918,833.544,1544.591,832.8,1543.176Z" transform="translate(-713.638 -1069.653)" fill="#fc654d"/>
      <path id="Trazado_1022816" data-name="Trazado 1022816" d="M642.819,1340.881a4.394,4.394,0,0,1,2.881-2.126,4.453,4.453,0,0,1,3.6.712,6.692,6.692,0,0,1,1.647,1.6c-.085-.021-.251-.061-.325-.086a6.882,6.882,0,0,0-3.6-.244c-.913.24-2.713,1.585-3.576,1.171A1.359,1.359,0,0,1,642.819,1340.881Z" transform="translate(-544.427 -887.506)" fill="#fefefe"/>
      <path id="Trazado_1022817" data-name="Trazado 1022817" d="M800.7,782.735a1.6,1.6,0,0,1,.583-.943c3.548-2.936,18.1-2.591,22.773-2.157l.122.316c-.116.189-.074.177-.3.268-1.627-.161-13.655-.313-14.587,0A19.651,19.651,0,0,0,800.7,782.735Z" transform="translate(-685.048 -389.36)" fill="url(#linear-gradient)"/>
      <path id="Trazado_1022818" data-name="Trazado 1022818" d="M974.824,1542.8c1.914-.354,5.793-.041,7.972-.081l0,2.179a37.968,37.968,0,0,1-6.518-.117A5.323,5.323,0,0,0,974.824,1542.8Z" transform="translate(-840.135 -1069.196)" fill="#fc654d"/>
      <path id="Trazado_1022819" data-name="Trazado 1022819" d="M1666.344,991.249a3.2,3.2,0,0,1,.951-.661c-.8,1.32-2.209,2.61-1.786,4.281a6.066,6.066,0,0,0,3.544,5.287l-2.174.021a7.661,7.661,0,0,0-.895-1.221l-1.022-.351q-.467-.787-.92-1.582a16.227,16.227,0,0,1-1.319-3.245l.276-.053.251.575c.591-.159.878-.721,1.211-1.194.883-.1,1.238-1.134,1.79-1.754Z" transform="translate(-1452.831 -577.505)" fill="#fc654d"/>
      <path id="Trazado_1022820" data-name="Trazado 1022820" d="M1674.79,1047.317a6.912,6.912,0,0,1,.844-.26l.04.132a7.033,7.033,0,0,1,.25,1.419c.228.094.113.072.341.078.31.185.315.233.467.565l-1.022-.351Q1675.244,1048.112,1674.79,1047.317Z" transform="translate(-1463.577 -627.801)" fill="#fcba93"/>
      <path id="Trazado_1022821" data-name="Trazado 1022821" d="M1788.641,992.337l.035-.008c.162-.272-.235-1.626-.279-2.063a20.6,20.6,0,0,1,2.594-1.6c.042,2,.281,7.512-.747,9.047-.124.063-.195.149-.336.091a.881.881,0,0,1-.468-.535C1789.293,996.843,1788.718,993.053,1788.641,992.337Z" transform="translate(-1564.764 -575.79)" fill="#fc654d"/>
      <path id="Trazado_1022822" data-name="Trazado 1022822" d="M1823.737,898.563a13.183,13.183,0,0,0,1.352-.017c-.88,5.694-.877,5.994-4.386,10.649a23.445,23.445,0,0,1,.011-3.176,1.61,1.61,0,0,1,.011.548l-.031.215.32.061-.2.051a9.069,9.069,0,0,0,.743-2.078c.5-1.275,1.243-2.475,1.658-3.778.246-.771.285-1.6.49-2.38Z" transform="translate(-1593.494 -495.525)" fill="#8cbbe5"/>
      <path id="Trazado_1022823" data-name="Trazado 1022823" d="M1458.024,1492.63l.928.412c.322.121.5.146.694.459.965,1.522-1.289,7.225.046,9.026a5.03,5.03,0,0,1-2.372-.017A65.969,65.969,0,0,0,1458.024,1492.63Z" transform="translate(-1269.882 -1024.661)" fill="#f8fcfc"/>
      <path id="Trazado_1022824" data-name="Trazado 1022824" d="M315.427,952.753c1.21-.016,2.436-.074,3.643.022-.806.037-1.607.043-2.414.034.053,4.38.124,8.783.036,13.164l-1.493.016Q315.364,959.372,315.427,952.753Z" transform="translate(-252.624 -543.778)" fill="#fcba93"/>
      <path id="Trazado_1022825" data-name="Trazado 1022825" d="M1027.092,979.442a2.376,2.376,0,0,1,.517.244c.281.225.3.859.332,1.2.214,2.024.233,4.082.4,6.112a57.955,57.955,0,0,0,.92,6.216l-2.226-.007C1027.038,988.651,1026.815,983.984,1027.092,979.442Z" transform="translate(-886.565 -567.578)" fill="#fc654d"/>
      <path id="Trazado_1022826" data-name="Trazado 1022826" d="M958.526,1171.08c2.5,1.717,3.309,1.121,6,1.264l.786.79c-2.2,2.266-2.992,2.689-6.225,2.779C958.95,1174.3,958.722,1172.687,958.526,1171.08Z" transform="translate(-825.619 -738.265)" fill="#4ea7d1"/>
      <path id="Trazado_1022827" data-name="Trazado 1022827" d="M999.885,1584.85a6.1,6.1,0,0,1,2.044,1.728l.187.585c-.5.464-3.062.187-3.82.175q-4.1.041-8.2.035l-.1-.059a8.256,8.256,0,0,0,.031-1.01,3.015,3.015,0,0,1,.153-.436c.915-.481,6.692-.018,8.368-.281A1.741,1.741,0,0,0,999.885,1584.85Z" transform="translate(-853.652 -1106.799)" fill="#fc654d"/>
      <path id="Trazado_1022828" data-name="Trazado 1022828" d="M1012.871,781.97c1.325.149,6.187,1.15,6.984,2.241a.771.771,0,0,1,.16.668c-.64,1.189-2.711,1.6-3.923,1.963q-1.072.327-2.157.606c.254-1.363.451-3.082-.382-4.3a1.576,1.576,0,0,0-.862-.6c.228-.092.186-.08.3-.269Z" transform="translate(-873.862 -391.695)" fill="#cc3c37"/>
      <path id="Trazado_1022829" data-name="Trazado 1022829" d="M1076.3,1045.69c1.936,2.769,3.327,6.509,2.748,9.93-.451,2.666-2.422,5.438-4.349,7.252l-1.047-1.127c.729-1.4,2.25-2.347,3.008-3.874,1.714-3.451,1.357-6.271.174-9.8a6.557,6.557,0,0,1-.553-2.2C1076.282,1045.808,1076.29,1045.749,1076.3,1045.69Z" transform="translate(-928.156 -626.583)" fill="#cc3c37"/>
      <path id="Trazado_1022830" data-name="Trazado 1022830" d="M1001.69,1116.714a26.507,26.507,0,0,1,5.291-.02,1.789,1.789,0,0,1,.069,1.458,13.216,13.216,0,0,1-2.475,4.979c-.471-.138-.946-.268-1.408-.437a10.56,10.56,0,0,0,.087-2.59,6.06,6.06,0,0,0-.877-1.087,6.91,6.91,0,0,1-.445-1.456A1.52,1.52,0,0,0,1001.69,1116.714Z" transform="translate(-864.064 -689.714)" fill="#4ea7d1"/>
      <path id="Trazado_1022831" data-name="Trazado 1022831" d="M977.773,1573.733c1.712-.058,3.434.016,5.147.038a18.969,18.969,0,0,1,3.485.132,9.694,9.694,0,0,1,2.589,1.025,1.742,1.742,0,0,1-1.333.737c-1.676.263-7.453-.2-8.368.281a2.976,2.976,0,0,0-.153.436,8.209,8.209,0,0,1-.031,1.01,4.076,4.076,0,0,1-1.126.009c-.209-.226-.157-.289-.155-.6C977.8,1575.777,977.816,1574.756,977.773,1573.733Z" transform="translate(-842.762 -1096.879)" fill="#fcba93"/>
      <path id="Trazado_1022832" data-name="Trazado 1022832" d="M977.773,1573.91a2,2,0,0,1,1.211.262,3.292,3.292,0,0,1,.129,1.864c-.9.247-.655.469-1.285.941C977.8,1575.954,977.816,1574.933,977.773,1573.91Z" transform="translate(-842.762 -1097.056)" fill="#f8fcfc"/>
      <path id="Trazado_1022833" data-name="Trazado 1022833" d="M896.533,938.364a5.528,5.528,0,0,1,.3-1.2c.3.086.414.28.625.507a6.048,6.048,0,0,0,2.84,1.356c2.181.388,3.716-.434,5.427-1.633.01.482,0,.97.051,1.45-1.006.738-3.3,2.437-3.814,3.507.094.228.016.15.22.25l.159.4-.411-.038a1.091,1.091,0,0,0-.8.009l-.129.133c-.275.12-.556.176-.829.285.043-.325.054-.664.079-.991-.172-1.543-3.3-2.125-3.888-3.648Z" transform="translate(-770.25 -529.918)" fill="#fcba93"/>
      <path id="Trazado_1022834" data-name="Trazado 1022834" d="M800.7,789.811a19.649,19.649,0,0,1,8.589-2.518,6.271,6.271,0,0,0-1.265,4.8C805.621,791.964,802.561,791.482,800.7,789.811Z" transform="translate(-685.048 -396.436)" fill="#cc3c37"/>
      <path id="Trazado_1022835" data-name="Trazado 1022835" d="M774.848,1011.6a2.013,2.013,0,0,1-.357.19c-.847-.414-2.3-2.836-2.752-3.728-1.634-3.193-1.1-6.228-.035-9.524a19.549,19.549,0,0,1,5.071-8.439,7.146,7.146,0,0,1,1.676-1.357c.214-.1.116-.085.351-.01v.354a21.469,21.469,0,0,0-3.122,3.941c-1.506,2.405-4.156,8.05-4.193,10.9C771.452,1006.529,773.169,1009.7,774.848,1011.6Z" transform="translate(-658.329 -575.8)" fill="#fefefe"/>
      <path id="Trazado_1022836" data-name="Trazado 1022836" d="M224.544,1482.49c.465.063.926.126,1.386.218,2.1.219,4.19.334,6.3.461a31.933,31.933,0,0,1,3.432.259,2.946,2.946,0,0,0,1.239.292,8.746,8.746,0,0,0-5.855,1.9c-2.282-.077-4.569.156-6.858.05a8.724,8.724,0,0,1-.652-1.847C223.886,1483.4,224.211,1482.939,224.544,1482.49Z" transform="translate(-170.977 -1015.63)" fill="#fc654d"/>
      <path id="Trazado_1022837" data-name="Trazado 1022837" d="M1830.4,1485.79a.723.723,0,0,1,.281.672c.119,3.139-.567,6.273-.641,9.393a1.114,1.114,0,0,0,.134.712l.16.074c.268.844-1.015,3-1.407,3.821l-3.285-.009c.242-.9.458-1.78.616-2.695a7.231,7.231,0,0,0,.908-.423,1.467,1.467,0,0,0,.685-.757,30.23,30.23,0,0,0,1.045-4.526C1829.35,1489.952,1829.875,1487.874,1830.4,1485.79Z" transform="translate(-1597.936 -1018.569)" fill="#f8fcfc"/>
      <path id="Trazado_1022838" data-name="Trazado 1022838" d="M945.417,1329.65c.421.12.776.2,1.007.608a12.6,12.6,0,0,1,.877,3.4c.654,3.367,1.064,6.772,1.614,10.156.321,1.973,1.226,6.264,1.166,8.061a5.392,5.392,0,0,1-1.237,0c-.547-2.29-.707-4.778-1.087-7.113C946.941,1339.741,945.982,1334.7,945.417,1329.65Z" transform="translate(-813.943 -879.499)" fill="#fefefe"/>
      <path id="Trazado_1022839" data-name="Trazado 1022839" d="M1001.65,1188.138a12.815,12.815,0,0,1,2.414-3.123c.568-.687,1.1-1.418,1.639-2.126a12.445,12.445,0,0,1,1.893,1.138,14.056,14.056,0,0,1,2.148,2.1,29.881,29.881,0,0,1-5.782,4.5,3.561,3.561,0,0,0-.573-1.309l-.432-.345-.164.039-.256.458c-.022-.025-.047-.049-.068-.077-.312-.407-.067-1.126.014-1.6l-.088-.112a1.878,1.878,0,0,0-.734.588Z" transform="translate(-864.029 -748.783)" fill="#fcba93"/>
      <path id="Trazado_1022840" data-name="Trazado 1022840" d="M920.9,881.5a11.56,11.56,0,0,0,2.089-1.352,7.175,7.175,0,0,1-1.829,4.573,6.546,6.546,0,0,1-4.471,2.511,6.345,6.345,0,0,1-1.506-.11c-.1-.44-1.133-.37-1.523-.694l.2-.313c-.059-.551-.041-1.464-.441-1.863-.052-.052-.107-.1-.16-.153a3.96,3.96,0,0,0,.627-.524c.032-.036.061-.075.092-.112l.2-.125a11.268,11.268,0,0,1,4.495-.187,2.742,2.742,0,0,1,.472.277,1.588,1.588,0,0,0,.5.084,1.238,1.238,0,0,0,.752-.437A2.123,2.123,0,0,0,920.9,881.5Z" transform="translate(-785.306 -479.142)" fill="#fc654d"/>
      <path id="Trazado_1022841" data-name="Trazado 1022841" d="M931.21,913.163c0,.034,0,.067,0,.1a1.289,1.289,0,0,1-.448.892,1.231,1.231,0,0,1-.964.23,1.809,1.809,0,0,1-1.244-.734.785.785,0,0,1-.138-.724,2.524,2.524,0,0,0,1.818.6A4.283,4.283,0,0,0,931.21,913.163Z" transform="translate(-798.775 -508.336)" fill="#1b2e36"/>
      <path id="Trazado_1022842" data-name="Trazado 1022842" d="M921.673,906.554a11.27,11.27,0,0,1,4.495-.187,2.764,2.764,0,0,1,.472.277,4.74,4.74,0,0,1-1.409.538,4.292,4.292,0,0,1-.974.364,2.524,2.524,0,0,1-1.818-.6.617.617,0,0,1-.128.008A.783.783,0,0,1,921.673,906.554Z" transform="translate(-792.795 -502.355)" fill="#f8fcfc"/>
      <path id="Trazado_1022843" data-name="Trazado 1022843" d="M201.022,1505.54c.63.4,1.755,4.821,1.955,5.721a16.7,16.7,0,0,0,.921,3.835,6.745,6.745,0,0,0-.244,1.6,2.605,2.605,0,0,1-.105,1.217,2.079,2.079,0,0,1-1.192.133,2.237,2.237,0,0,1-.575-.057,19.217,19.217,0,0,0-2.109-4.537C199.522,1510.3,199.11,1508.292,201.022,1505.54Z" transform="translate(-149.6 -1036.16)" fill="#fefefe"/>
      <path id="Trazado_1022844" data-name="Trazado 1022844" d="M457.947,1505.66a52.246,52.246,0,0,1,1.627,5.861c.464,2.173.622,4.682,1.648,6.668l-1.509.029c-.751.011-1.5-.015-2.252-.033-.325-1.386-.828-2.747-1.093-4.143C455.851,1511.325,457.138,1508.223,457.947,1505.66Z" transform="translate(-378.254 -1036.267)" fill="#fefefe"/>
      <path id="Trazado_1022845" data-name="Trazado 1022845" d="M341.354,983.792c1.152.958,3.042,4.272,3.968,5.637.954,1.406,1.975,2.764,2.929,4.17q-3.453.047-6.907.046Z" transform="translate(-275.911 -571.452)" fill="#8cbbe5"/>
      <path id="Trazado_1022846" data-name="Trazado 1022846" d="M1805.83,1482.56q.1.087.2.171a3.838,3.838,0,0,0,3.195.85c-.285,1.491-1.614,8.981-2.353,9.71a7.361,7.361,0,0,1-3.134.61C1804.25,1490.13,1805.606,1486.366,1805.83,1482.56Z" transform="translate(-1578.43 -1015.692)" fill="#8cbbe5"/>
      <path id="Trazado_1022847" data-name="Trazado 1022847" d="M812.573,1186.726a14.512,14.512,0,0,1,3.695-2.716,24.466,24.466,0,0,0,2.562,2.37,24.167,24.167,0,0,1,1.92,1.985l.031.177c0,.046,0,.092.012.136a1.694,1.694,0,0,0,.321.646c-.386.009-.961-.27-1.279-.124a4.31,4.31,0,0,0,.66.828l.411-.11.132.11-.048.162a1.087,1.087,0,0,1-.8.052l-.039.03a1.439,1.439,0,0,1,.138.146,1.129,1.129,0,0,1,.128.314l-.136-.056c-.442-.191-.733-.592-1.218-.695-.069.2-.079.118.006.312a2.916,2.916,0,0,0,.625.767l-.008.225a2.853,2.853,0,0,1-.419.3,2.072,2.072,0,0,0-1.212-.739l-.075.121c.033.362.274.554.51.8l.117.122-.036.137a1.425,1.425,0,0,1-.553.08C816.8,1192.057,813.483,1187.739,812.573,1186.726Z" transform="translate(-695.623 -749.782)" fill="#fcba93"/>
      <path id="Trazado_1022848" data-name="Trazado 1022848" d="M795.313,1574.4c2.64-.039,5.312-.059,7.949.1,0,1.094-.029,2.194.011,3.287-3.749.017-7.586-.126-11.323.124l-.5-.048-.288-.141C791.31,1576.216,794.26,1575.308,795.313,1574.4Z" transform="translate(-676.551 -1097.471)" fill="#fc654d"/>
      <path id="Trazado_1022849" data-name="Trazado 1022849" d="M454.065,979.9a17.184,17.184,0,0,1,0,3.809l-.044,6.394-7.1.05C446.913,990.09,453.49,980.712,454.065,979.9Z" transform="translate(-369.947 -567.987)" fill="#8cbbe5"/>
      <path id="Trazado_1022850" data-name="Trazado 1022850" d="M906.332,722.236a10.2,10.2,0,0,1,3.278-.131c.728.019,1.468.013,2.193.079a17.554,17.554,0,0,1,2.942,4.988c-3.033-.042-5.9-.714-8.932-.155a12.087,12.087,0,0,1-1.406.114C904.656,726.254,906.4,722.756,906.332,722.236Z" transform="translate(-777.417 -338.315)" fill="#fc654d"/>
      <path id="Trazado_1022851" data-name="Trazado 1022851" d="M1282.771,1572.43l.095.018a38.166,38.166,0,0,1,.221,5.146l-9.675,0a.727.727,0,0,1-.038-.245,7.957,7.957,0,0,1,1.781-4.215A11.268,11.268,0,0,0,1282.771,1572.43Z" transform="translate(-1106.046 -1095.737)" fill="#fefefe"/>
      <path id="Trazado_1022852" data-name="Trazado 1022852" d="M1824.583,786.626a21.716,21.716,0,0,1-.721-6.917,3.434,3.434,0,0,1,1.241-2.453,3.186,3.186,0,0,1,2.384-.546,2.815,2.815,0,0,1,1.878,1.239,11.639,11.639,0,0,1-.322,2.585l-.7.956-.265-.286-.223.208a4.121,4.121,0,0,0,.172.534,1.4,1.4,0,0,1-.312.541,1.815,1.815,0,0,1,1.078,1.368,7.568,7.568,0,0,1-.027,2.182,4.937,4.937,0,0,0-.677-.621,2.092,2.092,0,0,0-1.615-.374A3.1,3.1,0,0,0,1824.583,786.626Z" transform="translate(-1596.292 -386.969)" fill="#fefefe"/>
      <path id="Trazado_1022853" data-name="Trazado 1022853" d="M1830.18,812.42a1.035,1.035,0,0,1,.49.611.97.97,0,0,1-.391.637,1.1,1.1,0,0,1-.468-.484A1.138,1.138,0,0,1,1830.18,812.42Z" transform="translate(-1601.651 -418.816)" fill="#4ea7d1"/>
      <path id="Trazado_1022854" data-name="Trazado 1022854" d="M1847.248,813.87a1.987,1.987,0,0,1,.038-.536c.089-.258.185-.289.414-.38a1.346,1.346,0,0,1,.743.43,1.193,1.193,0,0,1-.576.584Z" transform="translate(-1617.181 -419.29)" fill="#236d95"/>
      <path id="Trazado_1022855" data-name="Trazado 1022855" d="M1843.345,821.339l.618.1-.447.107-.035.1a1.234,1.234,0,0,1,.585.623,2.59,2.59,0,0,1-.307.239c-.244.132-.4.031-.634-.051a.623.623,0,0,1,.22-1.118Z" transform="translate(-1613.278 -426.76)" fill="#8cbbe5"/>
      <path id="Trazado_1022856" data-name="Trazado 1022856" d="M1849.559,816.891l.53.143-.223.208a4.064,4.064,0,0,0,.172.534,1.4,1.4,0,0,1-.312.541.176.176,0,0,1-.024,0,3.993,3.993,0,0,0-.616-.012,1.237,1.237,0,0,0-.585-.623l.035-.1.447-.107A1.2,1.2,0,0,0,1849.559,816.891Z" transform="translate(-1618.297 -422.798)" fill="#f8fcfc"/>
      <path id="Trazado_1022857" data-name="Trazado 1022857" d="M829.263,1250.22a10.633,10.633,0,0,0,1.357,1.179q-.248,14.831-.285,29.663l-1.359.015Q829,1265.647,829.263,1250.22Z" transform="translate(-710.232 -808.753)" fill="#fefefe"/>
      <path id="Trazado_1022858" data-name="Trazado 1022858" d="M432.294,967.706q4.027-.016,8.053.012a76.083,76.083,0,0,0-4.626,6.448c-1.182,1.617-2.277,3.3-3.392,4.961Z" transform="translate(-356.918 -557.12)" fill="#8cbbe5"/>
      <path id="Trazado_1022859" data-name="Trazado 1022859" d="M346.235,967.515q4.021-.01,8.042.042l-.007,7.162a36.891,36.891,0,0,1-.065,4.135C353.522,978.265,347.065,968.826,346.235,967.515Z" transform="translate(-280.267 -556.954)" fill="#8cbbe5"/>
      <path id="Trazado_1022860" data-name="Trazado 1022860" d="M1502.484,1425.32c.793.343,1.568.721,2.344,1.1a18.21,18.21,0,0,0-.7,4.929c.044,1.64,1.623,9.935,1.4,10.507-.2.5-.659.665-1.112.887-.041.013-.082.028-.124.039a2.015,2.015,0,0,1-1.55-.022c-.334-.234-1.77-9.5-1.995-10.653C1501.78,1430.022,1501.95,1427.575,1502.484,1425.32Z" transform="translate(-1308.563 -964.71)" fill="#8cbbe5"/>
      <path id="Trazado_1022861" data-name="Trazado 1022861" d="M305.212,931.946a6,6,0,0,1,1.126.481,1.922,1.922,0,0,0,1,.358,54.965,54.965,0,0,0,6.28.1c4.81.018,9.647-.065,14.453.086.54-.018,1.849-.192,2.244.156-.057,3.475.065,6.953.011,10.432-.02,1.3.009,2.62-.128,3.914-.223-.009-.443-.029-.665-.049a.88.88,0,0,1-.135-.142c-.123-.206.037-11.72.042-13.017q-9.643.053-19.286,0c-1.207-.1-2.433-.039-3.643-.022q-.063,6.619-.228,13.236a2.623,2.623,0,0,1-.845-.08C305.089,946.885,305.215,933.888,305.212,931.946Z" transform="translate(-243.712 -525.275)" fill="#fefefe"/>
      <path id="Trazado_1022862" data-name="Trazado 1022862" d="M879.12,1315.47a19.747,19.747,0,0,0,2.532.751c-.853,5.8-1.86,11.552-2.489,17.381-.2,1.825-.468,3.741-.514,5.575l-2.8-.011C877.026,1331.313,876.879,1323.135,879.12,1315.47Z" transform="translate(-751.978 -866.87)" fill="#4ea7d1"/>
      <path id="Trazado_1022863" data-name="Trazado 1022863" d="M1701.794,993.092a25.474,25.474,0,0,0,5.5.216,92.073,92.073,0,0,1,1.435,9.152l-2.468.018-2.814.005a7.21,7.21,0,0,0-2.805-2.332,24.438,24.438,0,0,1-1.34-3.844C1700.219,995.285,1700.77,994.041,1701.794,993.092Z" transform="translate(-1485.406 -579.736)" fill="#fefefe"/>
      <path id="Trazado_1022864" data-name="Trazado 1022864" d="M785.185,992.467c-.145,5.053.385,11.724-.851,16.5a13.651,13.651,0,0,1-1.181-3.911,12.507,12.507,0,0,1,.062-2.474c.1-.909.654-2.267.337-3.127l-.2-.085c-.439.247-.527.651-.654,1.114a13.09,13.09,0,0,0-.44,5.014,7.906,7.906,0,0,0-2.99,1.473c-.188.582-.381,1.16-.523,1.756,1.333-.366,2.363-1.184,3.634-1.647.778,1.714,1.853,3.245,2.641,4.937-1.223,1.046-2.518,1.979-3.788,2.964-1.679-1.9-3.4-5.073-3.361-7.671.038-2.852,2.688-8.5,4.193-10.9a21.475,21.475,0,0,1,3.122-3.941Z" transform="translate(-664.713 -579.179)" fill="#fc654d"/>
      <path id="Trazado_1022865" data-name="Trazado 1022865" d="M1045.471,992.912a19.975,19.975,0,0,1,5.511,5.77c-.007.059-.015.119-.019.178a6.557,6.557,0,0,0,.553,2.2c1.183,3.533,1.54,6.354-.174,9.805-.759,1.527-2.279,2.472-3.008,3.874A8.633,8.633,0,0,0,1047,1013.7a9.22,9.22,0,0,1-1.679-.953c-.061-.064-.064-.163-.1-.245a11.48,11.48,0,0,1,1.246-2.37c.317-.622.592-1.271.874-1.91.807-.214,2.286-.453,2.843-1.118.141-.167.1-.088.076-.328a.865.865,0,0,0-.1-.056c-.754-.319-2.149.248-2.893.508-.284-.91-.449-1.872-.65-2.8A56.659,56.659,0,0,1,1045.471,992.912Z" transform="translate(-902.841 -579.576)" fill="#fc654d"/>
      <path id="Trazado_1022866" data-name="Trazado 1022866" d="M872.188,1223c1.426-.37,3.344.366,4.812.543a18.7,18.7,0,0,0,5.811-.135c.355,3.008,1,5.939,1.631,8.9a15.411,15.411,0,0,0-2.042-.019c-2.967-.007-6.629,0-9.246-1.574a6.028,6.028,0,0,1-2.829-3.724,3.171,3.171,0,0,0,.723-.195c.5-.231.66-.727.866-1.193a1.222,1.222,0,0,0,.169,0,1.05,1.05,0,0,0,.814-.531,1.565,1.565,0,0,0,.109-1.294,1.9,1.9,0,0,0-.787-.6Z" transform="translate(-747.061 -784.422)" fill="#8cbbe5"/>
      <path id="Trazado_1022867" data-name="Trazado 1022867" d="M1544.825,1426.294c5.055,1.482,12.508,1.372,17.688.33a52.29,52.29,0,0,0,6.68-1.943q1.683,2.326,3.544,4.511c.3.325.508.5.508.974a10.674,10.674,0,0,1-.156,1.389c-1.642-.272-2.383-2.089-3.768-2.22s-3.047.932-4.479,1.118a51.265,51.265,0,0,1-18.059-1.424c-1.145,1.131-.978,1.9-2.716,2.54-.023-.434-.021-.863-.014-1.3A11.133,11.133,0,0,1,1544.825,1426.294Z" transform="translate(-1347.128 -964.141)" fill="#8cbbe5"/>
      <path id="Trazado_1022868" data-name="Trazado 1022868" d="M916.358,1366.69a33.557,33.557,0,0,1,.908,5.076q1.054,6.566,1.995,13.148l-1.3.072a10.373,10.373,0,0,0,.931,1.2,17.74,17.74,0,0,0,.024,2.947,1.355,1.355,0,0,1,.453.206,34.046,34.046,0,0,1,0,4.926l-2.639.011-2.841.015c0-1.454-.238-3.495.193-4.894a11.868,11.868,0,0,0,.191-3.264,2.866,2.866,0,0,0,.831-.981c.062-.173.051-.122-.03-.276a5.888,5.888,0,0,1-.969,0l-.132-.166a107.574,107.574,0,0,1,1.249-11.612A48.343,48.343,0,0,1,916.358,1366.69Z" transform="translate(-785.797 -912.49)" fill="#fefefe"/>
      <path id="Trazado_1022869" data-name="Trazado 1022869" d="M945.071,1315.891a2.4,2.4,0,0,1-.043-.49.631.631,0,0,1,.12-.128,16.027,16.027,0,0,1,2.682-.373,20.746,20.746,0,0,0,3.226-.7c.848,5.141,1.272,10.362,1.712,15.551.233,2.74.606,5.553.639,8.3-1.219,0-2.459-.046-3.674.061.06-1.8-.845-6.088-1.166-8.061-.55-3.384-.96-6.79-1.614-10.156a12.6,12.6,0,0,0-.877-3.4C945.847,1316.088,945.491,1316.011,945.071,1315.891Z" transform="translate(-813.597 -865.74)" fill="#8cbbe5"/>
      <path id="Trazado_1022870" data-name="Trazado 1022870" d="M855.955,1123.463l8.366-.033a32.758,32.758,0,0,1,4.422,0,10.5,10.5,0,0,0-.018,1.949l-.073.128c-.434.745-2.052,1.8-1.8,2.658a1.172,1.172,0,0,0,.174.4c.2,1.607.424,3.219.557,4.832a16.408,16.408,0,0,1-8.864-1.861c-.952-.433-1.936-.843-2.851-1.35l-.073-.3h.048a.837.837,0,0,0,.037-.536l-.011-.1.185.033-.1-.059Q855.9,1126.346,855.955,1123.463Z" transform="translate(-734.121 -695.749)" fill="#8cbbe5"/>
      <path id="Trazado_1022871" data-name="Trazado 1022871" d="M138.009,1250.034a7,7,0,0,1,1.74-5.253,11.436,11.436,0,0,1,7.974-3.981c1.819-.159,3.713-.057,5.54-.052l9.706.012,8.646-.011a33.683,33.683,0,0,1,5.182.134,5.642,5.642,0,0,1,2.832,1.355c1.231,1.035,2.416,2.133,3.637,3.181,1.754,1.5,5.168,3.953,6.264,5.86-3.434-.746-7.689-5.864-11-7.612a5.657,5.657,0,0,0-2.3-.637c-1.549-.132-3.156-.062-4.712-.064l-8.146-.019-9.943-.021c-2.106,0-4.24-.064-6.341.069a10.275,10.275,0,0,0-2.514.464C141.279,1244.488,139.543,1247.133,138.009,1250.034Z" transform="translate(-94.776 -800.285)" fill="#fefefe"/>
      <path id="Trazado_1022872" data-name="Trazado 1022872" d="M1859.732,1365.15c-.426-.619-1.547-2.146-1.273-2.9a22.192,22.192,0,0,1,1.826-2.868,47.427,47.427,0,0,0,2.45-4.7,19.656,19.656,0,0,0,1.564,7.821c.441.9,1.394,1.727,1.564,2.732.219,1.292-.867,2.6-1.1,3.838-.369,1.931.027,9.086-.862,10.129a2.686,2.686,0,0,1-2.1.608c-.266,0-.534-.025-.8-.046a3.426,3.426,0,0,1-.773-.18,1.116,1.116,0,0,0-.7.282l-.16-.074a1.113,1.113,0,0,1-.134-.712c.074-3.119.759-6.254.641-9.393a.723.723,0,0,0-.281-.672,4.065,4.065,0,0,1,.3-1.136c.013-.027.029-.053.04-.081A4.037,4.037,0,0,0,1859.732,1365.15Z" transform="translate(-1627.129 -901.793)" fill="#8cbbe5"/>
      <path id="Trazado_1022873" data-name="Trazado 1022873" d="M1866.345,1450.45a4.922,4.922,0,0,1,1.945,2.88c.952,3.237-.262,8.356-.675,11.732a3.424,3.424,0,0,1-.773-.18,1.118,1.118,0,0,0-.7.282l-.16-.074a1.115,1.115,0,0,1-.135-.712c.074-3.119.759-6.254.641-9.393a.722.722,0,0,0-.281-.672,4.081,4.081,0,0,1,.3-1.136c.013-.027.029-.053.04-.081A4.037,4.037,0,0,0,1866.345,1450.45Z" transform="translate(-1633.741 -987.093)" fill="url(#linear-gradient-2)"/>
      <path id="Trazado_1022874" data-name="Trazado 1022874" d="M1866.5,1475.39a4.174,4.174,0,0,1,.951,3.01,60.106,60.106,0,0,1-.612,8.7,1.117,1.117,0,0,0-.7.282l-.16-.074a1.117,1.117,0,0,1-.134-.713c.074-3.119.759-6.253.641-9.393a.723.723,0,0,0-.281-.672A4.111,4.111,0,0,1,1866.5,1475.39Z" transform="translate(-1633.735 -1009.306)" fill="#8cbbe5"/>
      <path id="Trazado_1022875" data-name="Trazado 1022875" d="M1214.661,1053.87a27.722,27.722,0,0,0,6.03,5.752c.663.491,1.511.873,2.114,1.415a.656.656,0,0,0-.221.521,6.336,6.336,0,0,0-.348,1.486c-.052-.05-.1-.1-.155-.15a3.152,3.152,0,0,1-.43-.573c-.927-1.46-4.632-4.935-6.2-5.3a.867.867,0,0,0-.417.021,15.464,15.464,0,0,0,.265,3.289c.346,3.9-.84,8.112-4.473,10.144-.61.342-1.288.534-1.886.861a26.288,26.288,0,0,1-.951-3.64,15.756,15.756,0,0,0,2.454-1.475,7.41,7.41,0,0,0,3.013-4.914,3.828,3.828,0,0,0-.409-2.594,9.88,9.88,0,0,0-.495,2.192,7.778,7.778,0,0,1-3.79,4.872c-2.867,1.577-7.056,1.6-10.14.713a4.017,4.017,0,0,1-3.074,1.073q.215-.444.411-.9c.809-1.866.512-2.793-.2-4.591a6.316,6.316,0,0,0,1.262.921c.214.081.114.071.352-.029l-.083-.1.132-.007.166-.428a3.48,3.48,0,0,0,.476.821,4.02,4.02,0,0,0,2.989,1.284c2.7.192,6.321-.276,8.416-2.159,1.906-1.713,2.164-4.26,2.3-6.654A3.858,3.858,0,0,0,1214.661,1053.87Z" transform="translate(-1036.729 -633.869)" fill="#8cbbe5"/>
      <path id="Trazado_1022876" data-name="Trazado 1022876" d="M981.181,1226.283a3.1,3.1,0,0,1,1.272-.126l.119.157q-.117.276-.229.554l.133.082c.167-.072.29-.178.443-.256a1.1,1.1,0,0,1,.134-.047l.012.13c-.236.27-.329.313-.357.68a5.988,5.988,0,0,0,.918,1.319l.365-.409a1.306,1.306,0,0,0,.471,1.139c.273.261.541.524.807.792a15.314,15.314,0,0,0,2.809-1.639l-.125,18.614c-.01,4.1.052,8.218-.049,12.319l-2.66.013c-.034-2.747-.407-5.56-.64-8.3-.441-5.189-.864-10.409-1.712-15.551l.2-.246-.1-.167a11.6,11.6,0,0,0-2.224-.179,15.411,15.411,0,0,1,2.042.019C982.179,1232.222,981.537,1229.29,981.181,1226.283Z" transform="translate(-845.432 -787.292)" fill="#4ea7d1"/>
      <path id="Trazado_1022877" data-name="Trazado 1022877" d="M841.69,1261.01a6.826,6.826,0,0,1,1.712,1.765,10.926,10.926,0,0,0,5.042,4.19c-2.242,7.665-2.094,15.843-3.274,23.695q-1.883,0-3.765.014Q841.442,1275.839,841.69,1261.01Z" transform="translate(-721.302 -818.363)" fill="#8cbbe5"/>
      <path id="Trazado_1022878" data-name="Trazado 1022878" d="M885.926,799.738a1.838,1.838,0,0,1,.47-.744,2.68,2.68,0,0,1,1.393.1c2.4.556,7.7.182,10.335.189a9.736,9.736,0,0,1,.95,3.228c-1.064,1.382.2,3.614-.663,5.3a11.57,11.57,0,0,1-2.089,1.352,2.124,2.124,0,0,1-.5,1.576,1.238,1.238,0,0,1-.752.437,1.59,1.59,0,0,1-.5-.084,2.755,2.755,0,0,0-.472-.277,11.269,11.269,0,0,0-4.495.187l-.2.125a8.749,8.749,0,0,0-.949.395,3.225,3.225,0,0,1-1.508-.193,3.883,3.883,0,0,1-.181-1.495c-.01-.037-.021-.073-.029-.11-.161-.751.168-1.264.136-1.964-.065-1.4-.86-3.99-.093-5.3l.408-1.024c-.107-.021-.031-.015-.222.057q-.164.387-.319.776l-.158-.016a9.328,9.328,0,0,0-.819-1.114C885.809,800.722,886.093,800.145,885.926,799.738Z" transform="translate(-760.727 -406.801)" fill="url(#linear-gradient-3)"/>
      <path id="Trazado_1022879" data-name="Trazado 1022879" d="M960.457,841.077a1.463,1.463,0,0,1,1.2.376.89.89,0,0,1,.137.523,1.805,1.805,0,0,1-.729,1.084c-.074.006-.148.015-.222.019a.984.984,0,0,1-1.065-1.109C959.828,841.5,960.1,841.318,960.457,841.077Z" transform="translate(-826.725 -444.339)" fill="#1b2e36"/>
      <path id="Trazado_1022880" data-name="Trazado 1022880" d="M907.6,858.247a1.605,1.605,0,0,1,.81.648,1.052,1.052,0,0,1-.341.806,1.19,1.19,0,0,1-.1.09,1.3,1.3,0,0,1-.108.079,1.235,1.235,0,0,1-.238.12,1.285,1.285,0,0,1-.127.04,1.218,1.218,0,0,1-.131.026,1.2,1.2,0,0,1-.266.009,1.305,1.305,0,0,1-.847-.4,1.571,1.571,0,0,1-.3-1.284l.089.048-.076-.154.037-.014.188.1a1.184,1.184,0,0,0,.525.157A9.226,9.226,0,0,0,907.6,858.247Z" transform="translate(-778.784 -459.633)" fill="#f8fcfc"/>
      <path id="Trazado_1022881" data-name="Trazado 1022881" d="M905.477,843.217a2.425,2.425,0,0,1-.843-.944.773.773,0,0,1-.023-.644.994.994,0,0,1,.605-.481,1.367,1.367,0,0,1,1.141.093.839.839,0,0,1,.347.547,1.663,1.663,0,0,1-.343,1.158A9.124,9.124,0,0,1,905.477,843.217Z" transform="translate(-777.545 -444.331)" fill="#1b2e36"/>
      <path id="Trazado_1022882" data-name="Trazado 1022882" d="M896.236,816.049a3.432,3.432,0,0,1,2.693-.638,1.551,1.551,0,0,1,.838.445l.069.2c-.126.229-.159.3-.441.366a3.468,3.468,0,0,1-.848-.019c-1.031-.068-1.755.635-2.72.667Z" transform="translate(-769.776 -421.418)" fill="#1b2e36"/>
      <path id="Trazado_1022883" data-name="Trazado 1022883" d="M951.823,816.025a4.325,4.325,0,0,1,1.343.056,2.479,2.479,0,0,1,1.438.989c.1.192.058.178,0,.365a1.579,1.579,0,0,1-.9-.167,10.435,10.435,0,0,0-3.131-.178l-.126-.131c-.017-.163-.067-.237.044-.375A2.082,2.082,0,0,1,951.823,816.025Z" transform="translate(-818.397 -422.004)" fill="#1b2e36"/>
      <path id="Trazado_1022884" data-name="Trazado 1022884" d="M901.85,859.537a8.107,8.107,0,0,1-.147-1.685l.089-.01a10.57,10.57,0,0,1,1.254,2.946c.179.195.072.148.282.171a3.613,3.613,0,0,1,1.869.673,2.123,2.123,0,0,1-.5,1.576,1.237,1.237,0,0,1-.752.437,1.587,1.587,0,0,1-.5-.084,2.774,2.774,0,0,0-.472-.277,11.269,11.269,0,0,0-4.495.187l-.2.125a8.735,8.735,0,0,0-.949.395,3.225,3.225,0,0,1-1.508-.193,3.88,3.88,0,0,1-.18-1.495,3.522,3.522,0,0,1,.406-.617c.667-.754,1.9-.678,2.811-.679a5.784,5.784,0,0,1,.634-1.56c.14-.2.191-.206.416-.245l.219.211c-.017.238.019.176-.087.348a5.288,5.288,0,0,0-.5.957l-.042.113a8.744,8.744,0,0,0,2.847-.092.771.771,0,0,0-.081-.711A4.886,4.886,0,0,0,901.85,859.537Z" transform="translate(-769.602 -459.272)" fill="#1b2e36"/>
      <path id="Trazado_1022885" data-name="Trazado 1022885" d="M273.353,1515.66a10.23,10.23,0,0,1-.127-1.9,7.208,7.208,0,0,1,2.361-5.088,7.592,7.592,0,0,1,5.692-1.854q.193.038.383.085t.378.1q.188.057.373.123t.366.141q.181.075.359.159t.35.177q.173.093.341.194t.331.211q.162.11.32.228t.308.243q.151.126.3.259t.282.273q.138.14.268.286c.087.1.172.2.254.3s.161.206.238.312.151.214.222.323a8.052,8.052,0,0,1,.86,5.684,7.4,7.4,0,0,1-3.114,4.458,7.781,7.781,0,0,1-5.833.792,6.878,6.878,0,0,1-4.143-3.345,7.664,7.664,0,0,1-.739-2.064Z" transform="translate(-215.233 -1037.281)" fill="#8cbbe5"/>
      <path id="Trazado_1022886" data-name="Trazado 1022886" d="M298.835,1539.359a5.239,5.239,0,0,1-.167-.791,4.489,4.489,0,0,1,1-3.459q.07-.082.145-.16c.05-.052.1-.1.153-.152s.106-.1.161-.144.111-.092.168-.136.115-.086.174-.127.12-.08.181-.118.123-.074.187-.108.127-.067.192-.1.13-.061.2-.089.133-.054.2-.078.136-.047.205-.068.138-.04.208-.057.14-.033.211-.047.142-.025.213-.035.143-.018.215-.024.143-.011.215-.013a4.563,4.563,0,0,1,3.455,1.583l.265.39a4.835,4.835,0,0,1,.581,3.89,4.173,4.173,0,0,1-2.142,2.594,4.253,4.253,0,0,1-3.034.279A5.253,5.253,0,0,1,298.835,1539.359Z" transform="translate(-237.868 -1061.198)" fill="#1b2e36"/>
      <path id="Trazado_1022887" data-name="Trazado 1022887" d="M310.3,1554.878a3.456,3.456,0,0,1-.321-2.128,2.879,2.879,0,0,1,1.285-1.931l.069.233.217.077a2.9,2.9,0,0,0-1.115,2.06,3.119,3.119,0,0,0,.28,1.513Z" transform="translate(-247.926 -1076.489)" fill="#f8fcfc"/>
      <path id="Trazado_1022888" data-name="Trazado 1022888" d="M322.174,1546.3a3.054,3.054,0,0,1,2.43-.466,2.965,2.965,0,0,1,1.34.82,1.055,1.055,0,0,1-.477.394,3.271,3.271,0,0,0-.519-.421,1.44,1.44,0,0,0-1.171-.117,3.149,3.149,0,0,1-.8.081l-.109,0-.4.023-.217-.077Z" transform="translate(-258.837 -1071.969)" fill="#fefefe"/>
      <path id="Trazado_1022889" data-name="Trazado 1022889" d="M317.84,1585.57a2.231,2.231,0,0,0,.134,1.294l-.1.063a3.321,3.321,0,0,1-2.641.513,3.122,3.122,0,0,1-1.87-1.61l.414-.176a5.869,5.869,0,0,0,.994.9,2.267,2.267,0,0,0,1.446.3A2.646,2.646,0,0,0,317.84,1585.57Z" transform="translate(-250.988 -1107.441)" fill="#fefefe"/>
      <path id="Trazado_1022890" data-name="Trazado 1022890" d="M352.769,1554.06a3.336,3.336,0,0,1,.716,3.662,2.449,2.449,0,0,1-.838,1.077,2.231,2.231,0,0,1-.134-1.293c.1-.423.145-.857.206-1.286a7.66,7.66,0,0,0-.428-1.766A1.065,1.065,0,0,0,352.769,1554.06Z" transform="translate(-285.662 -1079.376)" fill="#fcba93"/>
      <path id="Trazado_1022891" data-name="Trazado 1022891" d="M315.64,1553.475l.4-.023a36.952,36.952,0,0,0-.244,4.5,5.863,5.863,0,0,1-.994-.9,3.121,3.121,0,0,1-.28-1.513A2.9,2.9,0,0,1,315.64,1553.475Z" transform="translate(-252.017 -1078.834)" fill="#1b2e36"/>
      <path id="Trazado_1022892" data-name="Trazado 1022892" d="M326.484,1552.248l.109,0a3.16,3.16,0,0,0,.8-.081,1.441,1.441,0,0,1,1.171.117,3.287,3.287,0,0,1,.519.421,7.669,7.669,0,0,1,.428,1.766c-.061.429-.109.863-.206,1.286a2.648,2.648,0,0,1-1.624,1.286,2.264,2.264,0,0,1-1.446-.3A36.964,36.964,0,0,1,326.484,1552.248Z" transform="translate(-262.458 -1077.63)" fill="#fc654d"/>
      <path id="Trazado_1022893" data-name="Trazado 1022893" d="M1170.8,1028.331a3.542,3.542,0,0,1-1.424-.465,3.727,3.727,0,0,1-1.591-2.435,2.4,2.4,0,0,1,.443-1.755,9.79,9.79,0,0,1,1.154-1.259,69.894,69.894,0,0,0,5.032-5.117c1.011-1.285,1.6-2.8,2.794-3.972,1.258-1.239,3.017-2.01,4.105-3.382l.1-.124c.321.388.6.806.925,1.191q-.031.448-.055.9a4.1,4.1,0,0,0,1,3.238,5.06,5.06,0,0,0,3.745,1.348c-.14,2.394-.4,4.941-2.3,6.654-2.1,1.883-5.718,2.35-8.416,2.159a4.023,4.023,0,0,1-2.989-1.284,3.488,3.488,0,0,1-.476-.821l-.166.428-.132.007.083.1c-.238.1-.139.111-.353.029a6.329,6.329,0,0,1-1.262-.921c.709,1.8,1.007,2.725.2,4.591Q1171.013,1027.888,1170.8,1028.331Z" transform="translate(-1011.979 -594.637)" fill="#fefefe"/>
      <path id="Trazado_1022894" data-name="Trazado 1022894" d="M1262.481,1081.567a2.671,2.671,0,0,0,1.012-.181,1.529,1.529,0,0,1,.56.8c-.087.3-.1.383-.382.557a3.125,3.125,0,0,1-1.639.266l-.463-.11c-.205-.212-.193-.2-.2-.5a2.787,2.787,0,0,1,.717-.924Z" transform="translate(-1095.351 -658.377)" fill="#8cbbe5"/>
      <path id="Trazado_1022895" data-name="Trazado 1022895" d="M1263.681,1068.1a2.943,2.943,0,0,1-.345-.346.988.988,0,0,1-.146-.837.654.654,0,0,1,.325-.544.83.83,0,0,1,.472.291.871.871,0,0,0,.4.27,3.019,3.019,0,0,1,.523-.432c.25-.127.377-.041.617.046.091.132.186.207.181.375a1.466,1.466,0,0,1-.615,1.091,2.676,2.676,0,0,1-1.012.181Z" transform="translate(-1096.948 -645.001)" fill="#1b2e36"/>
      <path id="Trazado_1022896" data-name="Trazado 1022896" d="M1175.96,1137.19a1.271,1.271,0,0,1,.744.358,1.407,1.407,0,0,1,.353,1,1.526,1.526,0,0,1-.642,1.217,2.055,2.055,0,0,1-.852-.289,1.116,1.116,0,0,1-.458-.934A1.9,1.9,0,0,1,1175.96,1137.19Z" transform="translate(-1018.52 -708.08)" fill="#1b2e36"/>
      <path id="Trazado_1022897" data-name="Trazado 1022897" d="M872.354,983.933l.021-9.21a42.052,42.052,0,0,1,.065-5.121.9.9,0,0,1,.239-.585c1.034.279,3.791,4.424,4.727,4.076a1.86,1.86,0,0,0,.357-.25,1.791,1.791,0,0,1-.19-.97c.323-.4.664-.783,1-1.171l.272-.087c-.025.328-.035.666-.079.991.273-.109.554-.165.829-.285l.129-.133a1.091,1.091,0,0,1,.8-.009l.411.038-.159-.395.457.024a13.066,13.066,0,0,1,1.645,1.317l.119-.027.037-.08a5.55,5.55,0,0,1,.369.759c.9-1.334,1.992-2.6,2.817-3.966.051,3.311-.073,6.606-.2,9.914-.065,1.718-.062,3.471-.21,5.182C881.347,983.947,876.813,984.116,872.354,983.933Z" transform="translate(-748.845 -558.143)" fill="#fc654d"/>
      <path id="Trazado_1022898" data-name="Trazado 1022898" d="M921.278,985.078l.272-.088c-.025.328-.035.666-.079.991-.324.415-.637.857-1,1.238a1.79,1.79,0,0,1-.19-.97C920.6,985.851,920.944,985.466,921.278,985.078Z" transform="translate(-791.551 -572.519)" fill="#236d95"/>
      <path id="Trazado_1022899" data-name="Trazado 1022899" d="M949.608,986.884l.457.024a13.066,13.066,0,0,1,1.645,1.318l.119-.027.037-.08a5.571,5.571,0,0,1,.369.759c-.046.055-.087.114-.137.164-.1.1-.226.233-.381.209-.7-.107-1.531-1.446-1.95-1.972Z" transform="translate(-817.676 -574.206)" fill="#236d95"/>
      <path id="Trazado_1022900" data-name="Trazado 1022900" d="M938.787,989.7l.129-.133a1.091,1.091,0,0,1,.8-.009c0,1.047.268,3.339-.385,4.1l-.194.007C938.6,993.018,938.974,990.733,938.787,989.7Z" transform="translate(-808.038 -576.525)" fill="#1b2e36"/>
      <path id="Trazado_1022901" data-name="Trazado 1022901" d="M308.118,790.329c.936-1.15,5.878-3.836,7.548-5.243a10.285,10.285,0,0,1,1.055.864c1.129.95,5.81,4.276,7.073,4.616a2.75,2.75,0,0,1,.691.8c1.148,1.9,2.026,3.961,3.175,5.868.44.729,1.535,2.114,1.612,2.939a.947.947,0,0,1,0,.106c-.317-.245-.492-.428-.9-.377.218,3.949.174,7.91.2,11.864a25.083,25.083,0,0,1-.06,4.8,2.456,2.456,0,0,1-1.092.11c.137-1.294.107-2.614.128-3.914.054-3.479-.068-6.956-.011-10.432-.4-.348-1.7-.175-2.244-.156-4.807-.151-9.643-.068-14.453-.086a54.965,54.965,0,0,1-6.28-.1,1.923,1.923,0,0,1-1-.358,5.993,5.993,0,0,0-1.126-.481,1.882,1.882,0,0,0-.361-.355,22.346,22.346,0,0,1,1.843-2.936,62.321,62.321,0,0,0,2.849-6.586Z" transform="translate(-240.929 -394.47)" fill="#fcba93"/>
      <path id="Trazado_1022902" data-name="Trazado 1022902" d="M514.5,934.627a1.57,1.57,0,0,1,1.125-.809,1,1,0,0,1,.864.233,1.03,1.03,0,0,1,.254.733C516.35,934.435,515.042,934.609,514.5,934.627Z" transform="translate(-430.138 -526.926)" fill="#f8fcfc"/>
      <path id="Trazado_1022903" data-name="Trazado 1022903" d="M400.525,842.564c1.51-.02,4.072-.272,5.442.094a1.939,1.939,0,0,1,.293,1.247,28.873,28.873,0,0,1-.128,4.51c-.036.092-.134.145-.2.218a25.465,25.465,0,0,1-5.417-.048c-.521-.793-.365-4.418-.292-5.394A.686.686,0,0,1,400.525,842.564Z" transform="translate(-328.282 -445.572)" fill="#1b2e36"/>
      <path id="Trazado_1022904" data-name="Trazado 1022904" d="M408.111,874.933l1.693.01q.022.943.034,1.886l-1.762-.031A10.658,10.658,0,0,1,408.111,874.933Z" transform="translate(-335.327 -474.494)" fill="#f8fcfc"/>
      <path id="Trazado_1022905" data-name="Trazado 1022905" d="M408.315,850.6l1.724-.006.013,2.066-1.731-.016Z" transform="translate(-335.56 -452.819)" fill="#fefefe"/>
      <path id="Trazado_1022906" data-name="Trazado 1022906" d="M430.681,850.414l1.858-.021a10.815,10.815,0,0,1-.087,2.1l-1.867-.037A9.888,9.888,0,0,0,430.681,850.414Z" transform="translate(-355.396 -452.637)" fill="#f8fcfc"/>
      <path id="Trazado_1022907" data-name="Trazado 1022907" d="M429.581,869.221l1.867.037a4.861,4.861,0,0,0-.033.589c.088.484.279,1.194-.056,1.619a.885.885,0,0,1-.744.344,6.993,6.993,0,0,1-.809-.109l-.174-.226A4.6,4.6,0,0,1,429.581,869.221Z" transform="translate(-354.391 -469.407)" fill="#fefefe"/>
      <path id="Trazado_1022908" data-name="Trazado 1022908" d="M429.581,869.221l1.867.037a4.861,4.861,0,0,0-.033.589l-1.722.03a13.323,13.323,0,0,1-.06,1.6A4.6,4.6,0,0,1,429.581,869.221Z" transform="translate(-354.391 -469.407)" fill="#236d95"/>
      <path id="Trazado_1022909" data-name="Trazado 1022909" d="M1555.115,1220.768a2.806,2.806,0,0,1,.144-2.273.8.8,0,0,1,.565-.435c.644-.063,1.465.71,1.916,1.134a11.953,11.953,0,0,1,2.281,3.06c.427.8,1.125,2.9,1.763,3.44-.76,3.31-3.54,8.956-5.311,11.9-.519.864-1.407,1.393-1.741,2.385-.763,2.263,3.092,5.115.675,6.673a1.411,1.411,0,0,1-1.171.162c-1.247-.363-3.907-3.816-4.732-4.935a23.341,23.341,0,0,0-2.111-2.835,65.122,65.122,0,0,1-7.255,2.11c-6.07,1.261-14.635,1.533-20.256-1.286q-.484-.249-.955-.526a20.5,20.5,0,0,0,.7-4.853c1.481.482,2.841,1.316,4.35,1.759,5.547,1.629,12.5,1.182,18.016-.353,2-.557,4.064-1.693,6.015-2.1.927-.192,1.571.394,2.314.867,2.062-1.774,2.715-3.933,3.832-6.3l.09-.189C1554.8,1226.63,1554.949,1222.6,1555.115,1220.768Z" transform="translate(-1324.752 -780.106)" fill="#8cbbe5"/>
      <path id="Trazado_1022910" data-name="Trazado 1022910" d="M1842.866,1238.139c.12-.273.127-.429.4-.58a.677.677,0,0,1,.284.592,28.354,28.354,0,0,1-.79,7.695l-.2.126a1.508,1.508,0,0,1-.565-.421C1842.551,1244,1842.7,1239.967,1842.866,1238.139Z" transform="translate(-1612.503 -797.476)" fill="#1b2e36"/>
      <path id="Trazado_1022911" data-name="Trazado 1022911" d="M1635.273,824.3l1.349-.64c.344,2.755,1.243,4.6,2.1,7.144a4.424,4.424,0,0,0,2.107,1.06l-.026.1c-.206.784-.245,1.609-.491,2.38-.415,1.3-1.159,2.5-1.658,3.778a9.047,9.047,0,0,1-.743,2.078l.195-.051-.32-.061.031-.215a1.6,1.6,0,0,0-.011-.548c-.012-.356.059-.56-.2-.82-.3-.016-.358-.079-.612.108a13.548,13.548,0,0,0-.183,3.091,20.627,20.627,0,0,0-2.595,1.6c.045.436.442,1.791.28,2.063l-.035.008c-.273-1.307-1.223-6.963-1.543-7.587a.626.626,0,0,0-.56-.31.35.35,0,0,0-.338.155c-.368.686.074,2.716.241,3.467a27.168,27.168,0,0,1-9.885-1.448,1.707,1.707,0,0,0,.179-1.1.906.906,0,0,0-.555-.4c-.446.268-2.743,5.147-2.973,5.856-.285.09-.733.171-.865.471a2.091,2.091,0,0,0-.108.41l-.12.535a15.177,15.177,0,0,1-1.341-2.455c-.279-1.2.972-2.315.853-3.606a6.926,6.926,0,0,0-.583-1.755,14.677,14.677,0,0,1-1.26-4.574c-.089-1.531.858-3.975.4-5.187-.277-.255-.335-.208-.707-.237a1.062,1.062,0,0,1,.118-.268c.711-1.255,2.532-1.877,3.827-2.238a21.765,21.765,0,0,1,6.116-.232c1.292.1,2.6.223,3.893.26A20.4,20.4,0,0,0,1635.273,824.3Z" transform="translate(-1410.587 -428.827)" fill="#fefefe"/>
      <path id="Trazado_1022912" data-name="Trazado 1022912" d="M1741.958,830.35a20.392,20.392,0,0,0,6.023-.836,7.4,7.4,0,0,1,.23,5.624,5.221,5.221,0,0,1-2.781,2.942,1.906,1.906,0,0,1-1.592.046,3.723,3.723,0,0,1-1.612-2.345A14.818,14.818,0,0,1,1741.958,830.35Z" transform="translate(-1523.294 -434.041)" fill="#fc654d"/>
      <path id="Trazado_1022913" data-name="Trazado 1022913" d="M1650.144,834.023a21.761,21.761,0,0,1,6.116-.232l.067.168c.169.417.46.773.588,1.208a31.425,31.425,0,0,1,.687,4.012c.242,1.566.557,3.1.934,4.636-2.16.253-4.616.48-6.435-.979a6.275,6.275,0,0,1-2.062-4.51A29.311,29.311,0,0,1,1650.144,834.023Z" transform="translate(-1441.49 -437.743)" fill="#fc654d"/>
      <path id="Trazado_1022914" data-name="Trazado 1022914" d="M1114.251,1398.358a1.668,1.668,0,0,1,.5-.463,3.858,3.858,0,0,1,2.394.229,1.886,1.886,0,0,1,1.181,1.046,2.41,2.41,0,0,0,.7-.716c1.926.83,2.736,2.332,4.72,3.262,5.3,1.652,11.4-1.312,16.321,1.308a8.017,8.017,0,0,1,3.61,4.738q.116.416.209.838c-.018.036-.035.073-.054.109-.468.92-1.125,1.741-1.682,2.609-1.507,2.353-.8,4.486-.352,7.018-.538-.712-1.667-2.609-2.593-2.726-.187-.024-.263.078-.411.174-.6.984-.961,3.312-1.339,4.522-.034-3.227.636-3.683-1.027-6.81-.876-1.74-.251-3.755-.51-5.627a1.225,1.225,0,0,0-.806.16,7.183,7.183,0,0,0-.183,4.673,14.4,14.4,0,0,0,1.205,2.771,12.547,12.547,0,0,1-4.17,1.264c-2.333.14-4.132-1.495-5.439,1.347l-.168.605-.114.059a12.569,12.569,0,0,1-.3-2.293,21.81,21.81,0,0,0-.77-3.981.766.766,0,0,0-.649-.273c-.291.034-.323.1-.465.323.024.692.322,1.383.315,2.055-.011,1.034-1.505,4.808-1.958,5.949-.022-1.63.595-3.984-.017-5.48a4.189,4.189,0,0,0-.832-1.156l-.038-.063a2.685,2.685,0,0,1-.676-.4c-2.01-1.634-2.552-3.887-2.8-6.339a4.746,4.746,0,0,0-.692-.914c-2.076-2.164-4.875-1.749-7.551-1.751-.075-.071-.148-.143-.217-.219-.181-.2-.4-.389-.393-.663a2.389,2.389,0,0,0,1.312-.16.934.934,0,0,0,.272-.637l-.171-.188a4.548,4.548,0,0,0-1.412.105c-.257-.162-.238-.18-.328-.474l-.216-.109.046-.273c.755-.009,1.518-.041,2.272-.01a2.87,2.87,0,0,0,.083-.723,10.626,10.626,0,0,0,1.074-.326l.793-.625A14.077,14.077,0,0,0,1114.251,1398.358Z" transform="translate(-959.341 -940.167)" fill="#fc654d"/>
      <path id="Trazado_1022915" data-name="Trazado 1022915" d="M1168.129,1405.347a.8.8,0,0,1,.756-.263,2.945,2.945,0,0,1,1.162.319l-.133.436-.173.106c.247.143.645.282.75.546a7.8,7.8,0,0,1-2.371.1l.093-.252A3.441,3.441,0,0,0,1168.129,1405.347Z" transform="translate(-1012.299 -946.683)" fill="#1b2e36"/>
      <path id="Trazado_1022916" data-name="Trazado 1022916" d="M1194.6,1483.03a5.775,5.775,0,0,0,1.655.064,14.936,14.936,0,0,0,.986,4.94,11.475,11.475,0,0,1,.835,1.739,2.668,2.668,0,0,1-.675-.4C1195.389,1487.734,1194.848,1485.482,1194.6,1483.03Z" transform="translate(-1035.884 -1016.111)" fill="#fefefe"/>
      <path id="Trazado_1022917" data-name="Trazado 1022917" d="M1133.134,1398.358a1.668,1.668,0,0,1,.5-.463,3.858,3.858,0,0,1,2.394.229.81.81,0,0,0,.032.588l-.092.174a2.937,2.937,0,0,0-1.162-.319.8.8,0,0,0-.756.263,3.483,3.483,0,0,1,.084,1l-.093.252a6.506,6.506,0,0,0,.226,1.007l-.9.909a10,10,0,0,1-1.93-.072q-.789-.055-1.576-.133a2.893,2.893,0,0,0,.083-.723,10.649,10.649,0,0,0,1.074-.326l.793-.625A14.12,14.12,0,0,0,1133.134,1398.358Z" transform="translate(-978.224 -940.167)" fill="#fcba93"/>
      <path id="Trazado_1022918" data-name="Trazado 1022918" d="M1142.757,1414.59a1.348,1.348,0,0,1-.082.94c-.473.276-1.083.013-1.6.24l-.635-.042.793-.625a.686.686,0,0,0,.179.061C1141.884,1415.235,1142.389,1414.832,1142.757,1414.59Z" transform="translate(-987.649 -955.153)" fill="#fc654d"/>
      <path id="Trazado_1022919" data-name="Trazado 1022919" d="M1546.932,1464.45a51.263,51.263,0,0,0,18.059,1.424c1.432-.186,3.088-1.25,4.479-1.118s2.126,1.948,3.769,2.22c-.244,1.049-.357,2.147-.544,3.209a60.194,60.194,0,0,1-1.9,8.51,26.91,26.91,0,0,1-1.217,2.721c-8.4.183-16.826-.067-25.227-.073l-.011-2.767.98-.657a3.213,3.213,0,0,0,.425-1.334,24.467,24.467,0,0,0-.874-5.276q-.433-2.144-.656-4.32C1545.954,1466.352,1545.787,1465.582,1546.932,1464.45Z" transform="translate(-1347.278 -999.562)" fill="#f2a4ab"/>
      <path id="Trazado_1022920" data-name="Trazado 1022920" d="M138.281,1267.935c1.534-2.9,3.27-5.546,6.561-6.575a10.244,10.244,0,0,1,2.514-.464c2.1-.133,4.235-.072,6.341-.069l9.943.021,8.146.019c1.556,0,3.162-.068,4.712.064a5.661,5.661,0,0,1,2.3.637c3.313,1.748,7.567,6.866,11,7.612l-.13.018a8.742,8.742,0,0,1-4.715-.656,6.358,6.358,0,0,0-1.382-.635.661.661,0,0,0-.771.27,2.961,2.961,0,0,0,.513,2.2,6.561,6.561,0,0,0,4.048,3.017,5.634,5.634,0,0,0,4.447-.462,7.736,7.736,0,0,0,1.626-1.378,1.357,1.357,0,0,0,.627,1.024c.862.415,2.662-.931,3.576-1.171a6.88,6.88,0,0,1,3.6.244c.074.025.24.064.325.086a5.3,5.3,0,0,1,.467.495c-.032.068-.063.136-.095.2a3.136,3.136,0,0,1-.463.675.694.694,0,0,0,.192.65c.123.166.266.321.4.476.727,2.169,1.719,4.2,2.635,6.291.575,1.315,1.071,2.707,1.7,3.991a1.964,1.964,0,0,1,.22,1.308c-.185.147-.21.18-.461.139-.847-.137-1.48-.813-2.38-.5a1.042,1.042,0,0,0-.381.6,1.517,1.517,0,0,0,.818,1.059c.423.266.872.487,1.3.75a3.518,3.518,0,0,1-2.772.766c-1.348-.308-1.988-1.734-3.028-2.509-1.775-1.323-3.916-2.158-5.68-3.484a3.988,3.988,0,0,1-1.166-1.221,2.724,2.724,0,0,0-.659-1.049,1.1,1.1,0,0,0-.669.1.615.615,0,0,0-.105.477.741.741,0,0,1-.176.6c-.469.564-1.725.771-2.421.952a57.677,57.677,0,0,1-11.808,1.7,2.587,2.587,0,0,1-.907-.076q.563-1.746,1.147-3.484l.03-.257a1.164,1.164,0,0,0-.676-.369c-.321.094-.392.23-.55.521-1.143,2.109-2.045,5.7-3.01,8.073q-2.242.014-4.485,0c-.112-1.173-.772-9.484-.991-9.755a1.526,1.526,0,0,0-.831-.075l-.229.146c-.225,1.5.29,3.967.361,5.577a83.39,83.39,0,0,1-9.946.043c-1.871-.119-3.736-.393-5.608-.48-.63-.035-1.271-.148-1.9-.23,1.925-2.947,4.025-5.47,4.887-8.978a18.116,18.116,0,0,0,.117-7.244,5.074,5.074,0,0,0-.549-2.038.7.7,0,0,0-.568-.325c-.368.306-.278.982-.224,1.421.132,1.094.384,2.185.466,3.283.308,4.095-1.232,7.5-3.452,10.817a60.567,60.567,0,0,1-5.569,7.2,16.833,16.833,0,0,1-3.092,0H139.43c.239-1.165.594-2.3.936-3.434-.047-2.209-.526-4.574-.8-6.78C139.165,1274.506,138.9,1271.167,138.281,1267.935Z" transform="translate(-95.048 -818.186)" fill="#fc654d"/>
      <path id="Trazado_1022921" data-name="Trazado 1022921" d="M665.014,1378.178a5.455,5.455,0,0,1-2.083-.354l-.174-.291.077-.208a3.841,3.841,0,0,1,2.6.168c.548.213,1.976.71,2.248,1.223a1.412,1.412,0,0,1-.728-.09,15.241,15.241,0,0,0-2.166-.745,3.469,3.469,0,0,0-1.1-.31A4.48,4.48,0,0,0,665.014,1378.178Z" transform="translate(-562.185 -921.815)" fill="#fefefe"/>
      <path id="Trazado_1022922" data-name="Trazado 1022922" d="M149.73,1465.036a12.881,12.881,0,0,1,1.584-1.587,12.46,12.46,0,0,0-1.093,3.995l.6,1.027h-2.023C149.033,1467.3,149.389,1466.174,149.73,1465.036Z" transform="translate(-104.412 -998.671)" fill="#f8fcfc"/>
      <path id="Trazado_1022923" data-name="Trazado 1022923" d="M668.486,1383.77a15.282,15.282,0,0,1,2.166.745,2.058,2.058,0,0,1,.345.743,2.022,2.022,0,0,1-.514,1.021,1.852,1.852,0,0,1-1.3.657,2.128,2.128,0,0,1-1.434-.618,2.981,2.981,0,0,1-.845-1.723c.475-.565,1.477.12,2.1-.174l-.015-.207a4.576,4.576,0,0,0-.372-.339Z" transform="translate(-565.879 -927.703)" fill="#1b2e36"/>
      <path id="Trazado_1022924" data-name="Trazado 1022924" d="M1318.03,1096.86c.6-.328,1.275-.52,1.886-.862,3.633-2.032,4.818-6.241,4.473-10.144a15.478,15.478,0,0,1-.265-3.289.861.861,0,0,1,.417-.021c1.569.365,5.273,3.839,6.2,5.3a3.111,3.111,0,0,0,.43.573c.051.051.1.1.155.15a6.344,6.344,0,0,1,.349-1.486.657.657,0,0,1,.221-.521,36.435,36.435,0,0,0,7.322,2.711c7.874,1.938,17.417,1.5,25.462.99,2.865-.182,7.268-.774,9.987-.062a12.087,12.087,0,0,1,7.935,7.653,12.319,12.319,0,0,1,.25,7.128c-.638-.543-1.336-2.641-1.763-3.439a11.95,11.95,0,0,0-2.281-3.061c-.451-.424-1.272-1.2-1.916-1.134a.8.8,0,0,0-.565.435,2.8,2.8,0,0,0-.144,2.273c-.165,1.828-.314,5.863-.87,7.412l-.09.188c-1.117,2.366-1.77,4.525-3.832,6.3-.743-.473-1.388-1.059-2.315-.867-1.951.4-4.014,1.54-6.015,2.1-5.512,1.534-12.469,1.981-18.016.352-1.509-.443-2.869-1.277-4.35-1.759a1.571,1.571,0,0,0-.384-1.317.586.586,0,0,0-.584-.012,1.5,1.5,0,0,0-.446.833c-.168.9-.067,1.9-.177,2.825-.226,1.883-.678,3.736-1.084,5.587a31.722,31.722,0,0,1-.769,3.285,1.667,1.667,0,0,1-.866,1.176,2.931,2.931,0,0,1-2.048.133,2.363,2.363,0,0,1-1.265-1.292,18.889,18.889,0,0,1-.925-3.839,41.6,41.6,0,0,0-2.078-7.388c-.392-.938-.938-2.548-1.943-2.961-.262.023-.288.009-.48.183-.062.917,1.794,4.746,2.168,5.983l-.2-.106a13.063,13.063,0,0,1-3.392-2.511C1322.182,1110.119,1319.715,1102.4,1318.03,1096.86Z" transform="translate(-1145.82 -659.393)" fill="#fefefe"/>
      <path id="Trazado_1022925" data-name="Trazado 1022925" d="M1424.942,1125.676a6.315,6.315,0,0,1,.349-1.486c6.786,4.394,18.532,4.535,26.449,4.258,2.794-.1,5.6-.383,8.393-.411a6.429,6.429,0,0,1-.243,4.757,3.938,3.938,0,0,1-2.524,1.827,9.306,9.306,0,0,1-1.272.2c.478,1.679,1.04,3.557.1,5.2-.823,1.44-2.679,1.851-3.6,3.242-1.222,1.843.114,4.021-1.459,5.829a3.084,3.084,0,0,1-1.557.979,6.428,6.428,0,0,1-4.631-.961,9.216,9.216,0,0,1-2.534-2.57,3.7,3.7,0,0,1-2.792.06c-1.931-.887-2.085-3.768-3.185-5.4-2.444-1.148-2.885-1.747-3.9-4.18-2.319.633-4.337.8-6.5-.442a5.51,5.51,0,0,1-2.686-3.467C1422.426,1129.529,1424.807,1128.382,1424.942,1125.676Z" transform="translate(-1239.436 -696.501)" fill="#1b2e36"/>
    </g>
  </g>
</svg>
