<svg xmlns="http://www.w3.org/2000/svg" xmlns:xlink="http://www.w3.org/1999/xlink" width="83" height="83" viewBox="0 0 83 83">
  <defs>
    <clipPath id="clip-path">
      <rect id="Rectángulo_456277" data-name="Rectángulo 456277" width="83" height="83" transform="translate(0.001 0)" fill="#d35560"/>
    </clipPath>
  </defs>
  <g id="Grupo_1180306" data-name="Grupo 1180306" transform="translate(-413.59 -9435.531)">
    <g id="Grupo_1180081" data-name="Grupo 1180081" transform="translate(413.589 9435.531)">
      <g id="Grupo_1179924" data-name="Grupo 1179924" transform="translate(0 0)">
        <g id="Grupo_1179923" data-name="Grupo 1179923" transform="translate(0 0)" clip-path="url(#clip-path)">
          <path id="Trazado_1004716" data-name="Trazado 1004716" d="M41.621,83.242c-1.352,0-2.616-1.544-3.935-1.673-1.343-.131-2.883,1.137-4.185.878-1.321-.262-2.259-2.024-3.532-2.411s-3.046.55-4.275.039-1.814-2.427-2.989-3.057-3.092-.056-4.2-.8-1.3-2.733-2.336-3.581-3.02-.653-3.966-1.6-.749-2.932-1.6-3.966S7.77,65.849,7.024,64.736s-.165-3.019-.8-4.2-2.542-1.749-3.058-2.989.43-2.989.039-4.275S1.057,51.061.8,49.74c-.258-1.3,1.009-2.842.878-4.185C1.544,44.237,0,42.973,0,41.621S1.544,39,1.673,37.686C1.8,36.343.537,34.8.8,33.5c.262-1.321,2.024-2.259,2.411-3.531s-.55-3.046-.039-4.276,2.427-1.814,3.058-2.989.056-3.091.8-4.2,2.733-1.3,3.581-2.336.653-3.02,1.6-3.966,2.931-.749,3.966-1.6,1.223-2.836,2.336-3.581,3.019-.165,4.2-.8,1.749-2.542,2.989-3.058,2.989.429,4.276.039S32.18,1.057,33.5.8c1.3-.258,2.842,1.01,4.185.878C39,1.544,40.269,0,41.621,0s2.616,1.544,3.935,1.673C46.9,1.8,48.438.537,49.74.8c1.321.262,2.259,2.024,3.532,2.411s3.046-.55,4.275-.039,1.814,2.427,2.989,3.058,3.092.056,4.2.8,1.3,2.733,2.336,3.581,3.02.653,3.966,1.6.749,2.932,1.6,3.966,2.836,1.223,3.581,2.336.165,3.019.8,4.2,2.542,1.749,3.057,2.989-.429,2.989-.039,4.275,2.149,2.21,2.411,3.531c.258,1.3-1.009,2.842-.878,4.185.129,1.318,1.674,2.583,1.674,3.935s-1.544,2.616-1.674,3.935c-.131,1.343,1.137,2.883.878,4.185-.262,1.321-2.024,2.259-2.411,3.532s.55,3.046.039,4.275-2.427,1.814-3.058,2.989-.056,3.091-.8,4.2-2.733,1.3-3.581,2.336-.653,3.02-1.6,3.965-2.932.749-3.965,1.6-1.223,2.835-2.336,3.581-3.019.165-4.2.8-1.749,2.543-2.989,3.058-2.989-.429-4.275-.039-2.21,2.148-3.531,2.411c-1.3.258-2.842-1.01-4.185-.878-1.319.129-2.583,1.673-3.935,1.673" transform="translate(0.007 0.006)" fill="#d35560"/>
          <path id="Trazado_1004717" data-name="Trazado 1004717" d="M14,51.684A37.684,37.684,0,1,1,51.684,89.367,37.684,37.684,0,0,1,14,51.684" transform="translate(-10.056 -10.057)" fill="#4d787e"/>
          <path id="Trazado_1004718" data-name="Trazado 1004718" d="M131.066,267.538c-.1-.423-.194-.861-.284-1.29l-1.317-.168q.59-.313,1.156-.631-.125-.645-.236-1.289c.3.3.61.6.928.892q.555-.345,1.086-.691-.235.608-.486,1.215c.329.282.665.569,1.009.849l-1.323-.1q-.259.607-.533,1.211" transform="translate(-93.05 -189.867)" fill="#ffffc5"/>
          <path id="Trazado_1004719" data-name="Trazado 1004719" d="M112.708,264.037c-.036-.432-.063-.88-.087-1.317l-1.277-.364q.63-.221,1.238-.45-.027-.657-.04-1.31c.254.337.513.686.783,1.021q.6-.257,1.176-.52-.324.566-.661,1.128c.283.327.571.665.871.989-.433-.09-.863-.2-1.294-.294q-.347.561-.708,1.117" transform="translate(-80.024 -187.305)" fill="#ffffc5"/>
          <path id="Trazado_1004720" data-name="Trazado 1004720" d="M95.144,257.928c.033-.44.071-.881.113-1.318l-1.209-.549c.437-.082.868-.17,1.292-.261q.072-.652.156-1.3c.2.372.406.749.621,1.128q.632-.165,1.242-.339-.4.511-.824,1.017c.23.366.467.74.713,1.109l-1.235-.486q-.427.5-.868,1" transform="translate(-67.592 -182.924)" fill="#ffffc5"/>
          <path id="Trazado_1004721" data-name="Trazado 1004721" d="M78.777,249.35q.148-.647.308-1.286c-.37-.242-.75-.47-1.112-.724.437,0,.884-.038,1.315-.063q.168-.634.348-1.26.214.6.448,1.2c.427-.037.859-.1,1.278-.148q-.477.445-.968.884.26.595.54,1.2l-1.15-.662c-.332.288-.67.578-1.005.854" transform="translate(-56.037 -176.825)" fill="#ffffc5"/>
          <path id="Trazado_1004722" data-name="Trazado 1004722" d="M63.959,238.515q.241-.617.494-1.224c-.331-.294-.678-.57-.991-.883.429.064.874.1,1.307.135q.259-.6.529-1.193.126.619.269,1.254c.421.035.861.036,1.283.046q-.539.37-1.089.732.17.625.359,1.264l-1.043-.821c-.373.239-.74.463-1.116.691" transform="translate(-45.607 -169.158)" fill="#ffffc5"/>
          <path id="Trazado_1004723" data-name="Trazado 1004723" d="M51.005,225.675q.329-.574.667-1.136l-.434-.5c-.144-.168-.276-.346-.414-.519l.629.177.641.152q.344-.556.7-1.1.035.629.085,1.276l.625.131.635.106q-.588.288-1.187.564.078.641.172,1.3c-.3-.321-.614-.637-.913-.964q-.6.264-1.2.517" transform="translate(-36.524 -160.099)" fill="#ffffc5"/>
          <path id="Trazado_1004724" data-name="Trazado 1004724" d="M39.841,211.108q.409-.518.827-1.024c-.118-.187-.242-.37-.355-.561l-.331-.575c.4.18.791.361,1.205.515.283-.333.562-.658.855-.986-.044.421-.073.842-.1,1.273.4.15.8.3,1.208.423-.416.132-.838.26-1.258.383-.012.431-.016.865-.018,1.308-.252-.364-.524-.713-.758-1.089q-.631.173-1.269.334" transform="translate(-28.63 -149.843)" fill="#ffffc5"/>
          <path id="Trazado_1004725" data-name="Trazado 1004725" d="M30.615,195.13q.481-.451.968-.889c-.191-.4-.343-.816-.507-1.226.374.237.731.473,1.112.69.325-.285.659-.569,1-.849-.118.414-.2.821-.295,1.244.381.206.74.414,1.129.6-.434.069-.867.133-1.3.189-.089.43-.146.853-.215,1.291-.2-.395-.412-.783-.586-1.19q-.65.077-1.307.141" transform="translate(-21.998 -138.615)" fill="#ffffc5"/>
          <path id="Trazado_1004726" data-name="Trazado 1004726" d="M24.019,177.688q.543-.373,1.089-.733c-.131-.423-.21-.859-.316-1.289.334.291.656.576.994.85.363-.233.744-.465,1.116-.69-.182.393-.323.783-.48,1.185.344.262.677.519,1.024.762-.442,0-.869,0-1.306-.009-.158.414-.275.823-.408,1.245-.145-.418-.287-.837-.4-1.265q-.655-.021-1.314-.056" transform="translate(-17.257 -126.259)" fill="#ffffc5"/>
          <path id="Trazado_1004727" data-name="Trazado 1004727" d="M20.215,159.173q.593-.288,1.187-.561c-.066-.438-.08-.881-.119-1.322.286.338.561.668.855.99.394-.176.8-.348,1.207-.515-.239.361-.436.726-.652,1.1.3.31.593.614.9.908-.436-.062-.858-.132-1.289-.205-.219.385-.4.772-.591,1.17l-.117-.653c-.037-.218-.058-.439-.088-.658q-.645-.119-1.291-.253" transform="translate(-14.523 -113.05)" fill="#ffffc5"/>
          <path id="Trazado_1004728" data-name="Trazado 1004728" d="M19.269,140.414q.629-.2,1.258-.379c0-.443.041-.884.075-1.325.235.376.447.744.7,1.105.419-.116.836-.226,1.264-.332-.28.322-.535.654-.8.992.253.352.487.7.755,1.031q-.633-.19-1.248-.394c-.27.348-.5.7-.755,1.069-.01-.442-.031-.884-.01-1.327q-.619-.213-1.238-.441" transform="translate(-13.843 -99.696)" fill="#ffffc5"/>
          <path id="Trazado_1004729" data-name="Trazado 1004729" d="M21.174,121.821q.652-.1,1.3-.187c.041-.217.073-.437.122-.652l.149-.647c.174.407.332.8.531,1.2.434-.051.858-.1,1.3-.139-.32.278-.626.566-.942.861.2.385.375.759.6,1.132-.394-.187-.8-.38-1.18-.575-.309.306-.6.622-.9.945.062-.438.1-.88.186-1.314q-.58-.3-1.157-.62" transform="translate(-15.212 -86.487)" fill="#ffffc5"/>
          <path id="Trazado_1004730" data-name="Trazado 1004730" d="M25.928,103.813q.66,0,1.315.01c.134-.422.3-.832.464-1.243.113.429.207.843.344,1.264.435.014.866.032,1.306.058-.363.225-.7.465-1.062.709.138.411.256.807.419,1.208-.362-.244-.728-.495-1.079-.746-.353.256-.688.525-1.036.8.126-.424.23-.855.382-1.271q-.528-.386-1.051-.787" transform="translate(-18.629 -73.726)" fill="#ffffc5"/>
          <path id="Trazado_1004731" data-name="Trazado 1004731" d="M33.429,86.8q.652.1,1.3.206c.193-.4.429-.773.646-1.159.046.44.087.869.149,1.3.425.077.859.165,1.287.255-.4.163-.768.354-1.159.541.075.427.139.839.231,1.257-.325-.3-.64-.6-.951-.9-.4.2-.76.415-1.146.633.183-.4.359-.809.569-1.2q-.465-.461-.923-.936" transform="translate(-24.021 -61.7)" fill="#ffffc5"/>
          <path id="Trazado_1004732" data-name="Trazado 1004732" d="M43.489,71.162q.629.192,1.251.4c.257-.36.542-.7.812-1.05q-.03.663-.046,1.307.623.217,1.238.446c-.418.1-.822.229-1.229.361q.013.648.039,1.276-.406-.508-.8-1.026c-.42.135-.821.292-1.23.454l.359-.559.384-.541q-.391-.526-.775-1.064" transform="translate(-31.252 -50.674)" fill="#ffffc5"/>
          <path id="Trazado_1004733" data-name="Trazado 1004733" d="M55.127,57.229q.594.282,1.177.575l.96-.917q-.126.653-.235,1.29.584.306,1.157.622c-.424.047-.854.1-1.271.173q-.081.644-.147,1.271-.326-.562-.643-1.135l-.648.12c-.214.044-.424.095-.638.144.283-.34.594-.656.9-.976q-.31-.579-.611-1.169" transform="translate(-39.41 -40.884)" fill="#ffffc5"/>
          <path id="Trazado_1004734" data-name="Trazado 1004734" d="M68.74,45.3c.362.244.722.49,1.082.747l1.082-.77q-.22.63-.42,1.246.531.388,1.051.785c-.421-.01-.861-.033-1.285-.019q-.174.627-.329,1.24-.24-.6-.469-1.219c-.432.018-.882.025-1.313.069.33-.3.691-.553,1.034-.831q-.222-.62-.432-1.248" transform="translate(-48.969 -32.539)" fill="#ffffc5"/>
          <path id="Trazado_1004735" data-name="Trazado 1004735" d="M84.114,34.886c.322.295.646.6.962.906l1.181-.606q-.31.592-.6,1.174.467.462.922.93c-.416-.074-.841-.15-1.269-.213q-.264.6-.507,1.182-.148-.635-.284-1.277c-.43-.047-.872-.1-1.311-.13.378-.23.765-.444,1.148-.667q-.128-.646-.243-1.3" transform="translate(-59.802 -25.069)" fill="#ffffc5"/>
          <path id="Trazado_1004736" data-name="Trazado 1004736" d="M100.926,26.946q.415.518.816,1.041c.42-.14.837-.288,1.258-.422-.265.353-.519.717-.768,1.071q.392.526.771,1.057-.6-.2-1.222-.4c-.235.363-.459.733-.677,1.094q-.052-.65-.091-1.307-.627-.167-1.277-.325l1.235-.488c-.02-.438-.037-.883-.045-1.321" transform="translate(-71.682 -19.362)" fill="#ffffc5"/>
          <path id="Trazado_1004737" data-name="Trazado 1004737" d="M118.8,21.733q.332.574.65,1.152c.436-.076.87-.161,1.308-.229-.316.307-.621.63-.92.943q.309.579.6,1.16-.562-.291-1.148-.578c-.288.319-.564.656-.834.979q.046-.651.106-1.306-.595-.258-1.213-.511l1.293-.3c.046-.436.1-.881.154-1.31" transform="translate(-84.346 -15.615)" fill="#ffffc5"/>
          <path id="Trazado_1004738" data-name="Trazado 1004738" d="M137.334,19.35q.243.618.471,1.237l1.327-.033q-.537.4-1.05.8.22.619.425,1.238-.513-.372-1.05-.746c-.332.278-.656.565-.971.845q.143-.637.3-1.275-.55-.345-1.123-.688l1.323-.1c.111-.424.227-.855.348-1.275" transform="translate(-97.504 -13.902)" fill="#ffffc5"/>
          <path id="Trazado_1004739" data-name="Trazado 1004739" d="M156.1,19.831c.1.424.194.861.284,1.29l1.317.168q-.59.313-1.156.631.125.645.236,1.289c-.3-.3-.61-.6-.927-.892q-.555.345-1.086.691.235-.608.485-1.215c-.328-.282-.665-.569-1.009-.849l1.324.1q.259-.607.533-1.211" transform="translate(-110.858 -14.248)" fill="#ffffc5"/>
          <path id="Trazado_1004740" data-name="Trazado 1004740" d="M174.686,23.17c.036.433.063.88.087,1.317l1.277.364q-.63.221-1.238.45.027.657.04,1.31c-.254-.337-.512-.686-.783-1.021q-.6.257-1.176.52.324-.566.661-1.128c-.283-.327-.571-.665-.871-.988.433.09.863.2,1.294.294q.347-.561.708-1.117" transform="translate(-124.114 -16.648)" fill="#ffffc5"/>
          <path id="Trazado_1004741" data-name="Trazado 1004741" d="M192.393,29.313c-.033.44-.071.881-.113,1.318l1.209.549c-.437.082-.868.171-1.292.261q-.072.653-.156,1.3c-.2-.372-.406-.749-.621-1.128q-.632.165-1.242.339.4-.511.824-1.017c-.23-.366-.466-.74-.712-1.109l1.235.486q.427-.5.868-1" transform="translate(-136.689 -21.063)" fill="#ffffc5"/>
          <path id="Trazado_1004742" data-name="Trazado 1004742" d="M208.563,38.133q-.148.647-.308,1.286c.37.242.75.47,1.112.724-.437,0-.884.038-1.315.063q-.168.634-.348,1.26-.214-.6-.448-1.2c-.427.037-.859.1-1.278.148q.478-.445.968-.884-.26-.595-.54-1.2l1.15.662c.332-.288.67-.578,1.005-.854" transform="translate(-148.047 -27.403)" fill="#ffffc5"/>
          <path id="Trazado_1004743" data-name="Trazado 1004743" d="M223.38,49.066q-.241.617-.493,1.224c.331.294.678.57.991.882-.429-.064-.874-.1-1.307-.135q-.259.6-.529,1.194-.126-.619-.269-1.253c-.421-.036-.861-.036-1.284-.046q.539-.37,1.089-.732-.17-.625-.359-1.264l1.043.82c.373-.239.74-.463,1.116-.691" transform="translate(-158.476 -35.168)" fill="#ffffc5"/>
          <path id="Trazado_1004744" data-name="Trazado 1004744" d="M236.527,61.7q-.329.574-.667,1.136l.434.5c.144.168.275.346.414.519l-.63-.177-.641-.152q-.344.556-.7,1.1-.035-.629-.085-1.276l-.625-.131-.635-.106q.588-.288,1.187-.564-.078-.641-.172-1.3c.3.321.614.637.913.964q.6-.264,1.2-.517" transform="translate(-167.752 -44.019)" fill="#ffffc5"/>
          <path id="Trazado_1004745" data-name="Trazado 1004745" d="M247.713,76.239q-.409.518-.826,1.024c.118.187.242.37.355.561l.331.575c-.4-.18-.791-.361-1.205-.515-.283.333-.562.658-.855.986.044-.421.073-.842.1-1.273-.4-.15-.8-.3-1.208-.423.416-.132.838-.261,1.258-.383.012-.431.017-.865.018-1.307.252.364.524.713.758,1.089q.631-.173,1.269-.334" transform="translate(-175.669 -54.249)" fill="#ffffc5"/>
          <path id="Trazado_1004746" data-name="Trazado 1004746" d="M256.684,92.378q-.481.451-.968.889c.191.4.343.816.507,1.226-.374-.237-.731-.473-1.112-.69-.325.285-.659.569-1,.849.118-.414.2-.821.3-1.244-.381-.206-.74-.414-1.129-.6.434-.069.867-.133,1.3-.189.089-.43.146-.853.215-1.291.2.395.412.783.586,1.191q.65-.077,1.307-.141" transform="translate(-182.045 -65.638)" fill="#ffffc5"/>
          <path id="Trazado_1004747" data-name="Trazado 1004747" d="M263.22,109.767q-.543.374-1.089.733c.131.423.21.859.316,1.289-.334-.291-.656-.577-.994-.85-.363.233-.744.465-1.117.69.182-.393.323-.783.48-1.185-.344-.262-.677-.519-1.024-.762.441,0,.869,0,1.306.009.158-.414.275-.823.408-1.245.145.418.287.837.4,1.265q.655.021,1.314.056" transform="translate(-186.726 -77.942)" fill="#ffffc5"/>
          <path id="Trazado_1004748" data-name="Trazado 1004748" d="M267.158,128.019q-.593.288-1.187.561c.066.438.08.881.119,1.322-.286-.338-.561-.668-.855-.99-.394.176-.8.348-1.207.515.239-.361.436-.726.652-1.1-.3-.31-.593-.614-.9-.908.436.062.858.132,1.289.205.219-.385.4-.772.591-1.169l.117.653c.037.218.058.439.088.658q.645.119,1.291.253" transform="translate(-189.594 -90.887)" fill="#ffffc5"/>
          <path id="Trazado_1004749" data-name="Trazado 1004749" d="M268.294,146.713q-.629.2-1.258.379c0,.443-.041.884-.075,1.325-.235-.376-.447-.744-.7-1.105-.419.116-.836.226-1.264.332.28-.322.535-.654.8-.992-.253-.352-.487-.7-.755-1.031q.633.19,1.248.394c.27-.348.5-.7.755-1.069.01.442.031.884.01,1.327q.619.213,1.238.441" transform="translate(-190.465 -104.177)" fill="#ffffc5"/>
          <path id="Trazado_1004750" data-name="Trazado 1004750" d="M266.131,165.436q-.653.1-1.3.187c-.041.217-.073.437-.122.652l-.149.647c-.174-.407-.332-.8-.531-1.2-.434.051-.858.1-1.3.139.32-.278.626-.566.942-.861-.2-.385-.375-.759-.6-1.132.394.187.8.38,1.18.575.309-.306.6-.622.9-.945-.062.438-.1.88-.186,1.314q.58.3,1.158.62" transform="translate(-188.837 -117.515)" fill="#ffffc5"/>
          <path id="Trazado_1004751" data-name="Trazado 1004751" d="M261.308,183.774q-.66,0-1.315-.01c-.134.422-.3.832-.464,1.243-.113-.429-.207-.843-.344-1.264-.435-.014-.866-.031-1.306-.058.363-.225.7-.465,1.062-.709-.138-.41-.256-.807-.419-1.208.362.244.728.495,1.079.746.353-.256.688-.525,1.036-.8-.126.424-.23.855-.382,1.271q.528.386,1.051.787" transform="translate(-185.351 -130.607)" fill="#ffffc5"/>
          <path id="Trazado_1004752" data-name="Trazado 1004752" d="M253.934,200.63q-.652-.1-1.3-.206c-.193.4-.429.773-.646,1.159-.046-.44-.086-.869-.149-1.3-.425-.077-.859-.165-1.287-.255.4-.163.768-.354,1.159-.541-.075-.427-.138-.839-.231-1.257.325.3.639.6.951.9.4-.2.76-.415,1.146-.633-.183.4-.359.809-.569,1.2q.464.461.923.936" transform="translate(-180.086 -142.477)" fill="#ffffc5"/>
          <path id="Trazado_1004753" data-name="Trazado 1004753" d="M244.192,216.174q-.629-.192-1.251-.4c-.257.36-.542.7-.812,1.05q.03-.663.046-1.307-.623-.217-1.238-.446c.418-.1.822-.229,1.229-.361q-.013-.647-.039-1.276.406.508.8,1.026c.42-.135.821-.292,1.23-.454l-.359.559-.384.541q.391.526.775,1.064" transform="translate(-173.174 -153.408)" fill="#ffffc5"/>
          <path id="Trazado_1004754" data-name="Trazado 1004754" d="M232.318,230.192q-.594-.283-1.177-.575l-.96.917q.126-.653.235-1.29-.584-.306-1.157-.622c.423-.047.854-.1,1.271-.173q.081-.644.147-1.271.326.562.643,1.135l.648-.12c.214-.044.424-.095.638-.144-.283.34-.594.656-.9.976q.31.579.611,1.169" transform="translate(-164.78 -163.283)" fill="#ffffc5"/>
          <path id="Trazado_1004755" data-name="Trazado 1004755" d="M218.578,242.388c-.363-.244-.722-.49-1.082-.747l-1.081.77q.219-.63.42-1.246-.531-.388-1.051-.785c.421.01.861.033,1.285.019q.174-.628.329-1.24.24.6.47,1.219c.432-.018.882-.025,1.313-.069-.33.3-.691.553-1.034.831q.222.62.432,1.248" transform="translate(-155.093 -171.896)" fill="#ffffc5"/>
          <path id="Trazado_1004756" data-name="Trazado 1004756" d="M203.269,252.492c-.322-.294-.646-.6-.962-.905l-1.181.606q.31-.592.6-1.174-.467-.462-.922-.931c.416.074.841.15,1.269.213q.264-.6.507-1.182.148.635.285,1.277c.43.046.871.1,1.31.129-.378.23-.765.444-1.148.667q.128.646.243,1.3" transform="translate(-144.326 -179.054)" fill="#ffffc5"/>
          <path id="Trazado_1004757" data-name="Trazado 1004757" d="M186.721,260.262q-.415-.518-.816-1.041c-.42.14-.837.288-1.258.422.266-.353.519-.717.768-1.071q-.392-.526-.771-1.057.6.2,1.222.4c.235-.363.459-.733.677-1.094q.052.65.091,1.307.627.167,1.277.325l-1.235.488c.02.438.037.883.045,1.321" transform="translate(-132.71 -184.592)" fill="#ffffc5"/>
          <path id="Trazado_1004758" data-name="Trazado 1004758" d="M168.491,265.508q-.332-.574-.65-1.152c-.436.076-.87.161-1.308.229.316-.307.621-.631.92-.943q-.309-.579-.6-1.16.562.291,1.148.578c.288-.319.564-.656.834-.979q-.046.651-.106,1.306.595.258,1.213.511l-1.293.3c-.046.436-.1.88-.154,1.31" transform="translate(-119.693 -188.372)" fill="#ffffc5"/>
          <path id="Trazado_1004759" data-name="Trazado 1004759" d="M149.8,268.115q-.243-.618-.471-1.237l-1.327.033q.537-.4,1.05-.8-.22-.619-.425-1.238.513.372,1.05.745c.332-.278.656-.565.971-.845q-.143.637-.3,1.275.55.345,1.123.688l-1.323.1c-.111.424-.227.855-.348,1.275" transform="translate(-106.372 -190.309)" fill="#ffffc5"/>
          <path id="Trazado_1004760" data-name="Trazado 1004760" d="M66.94,98.654A31.715,31.715,0,1,1,98.654,66.94,31.75,31.75,0,0,1,66.94,98.654" transform="translate(-25.312 -25.313)" fill="#d35560"/>
        </g>
      </g>
      <g id="Grupo_1180053" data-name="Grupo 1180053" transform="translate(21.809 21.57)">
        <rect id="Rectángulo_401104" data-name="Rectángulo 401104" width="39.638" height="40.116" transform="translate(0)" fill="#d35560"/>
      </g>
    </g>
    <g id="Grupo_1180388" data-name="Grupo 1180388" transform="translate(325.026 9372.013)">
      <path id="Trazado_1021358" data-name="Trazado 1021358" d="M151.348,117.043a5.7,5.7,0,0,0-6.573,0,5.632,5.632,0,0,0-1.492,7.511l3.021,4.932.027.043,1.731,2.828,1.739-2.837,3.041-4.966A5.635,5.635,0,0,0,151.348,117.043Zm-3.286,8.832a4.29,4.29,0,1,1,4.29-4.29A4.29,4.29,0,0,1,148.062,125.875Z" transform="translate(-30.444 -30.377)" fill="#ff3d00"/>
      <path id="Trazado_1021359" data-name="Trazado 1021359" d="M748.953,566.205h-4.592a.739.739,0,0,1-.7-.771v-1.053a.739.739,0,0,1,.7-.771h4.086Z" transform="translate(-601.29 -455.379)" fill="#b3e5fc"/>
      <path id="Trazado_1021360" data-name="Trazado 1021360" d="M713.787,784.744v.015a2.564,2.564,0,0,1-5.127,0v-.015a2.564,2.564,0,0,1,5.127,0Z" transform="translate(-568.057 -662.91)" fill="#757575"/>
      <path id="Trazado_1021361" data-name="Trazado 1021361" d="M234.832,784.9a2.564,2.564,0,1,1-5.127,0v-.015a2.564,2.564,0,1,1,5.127.015Z" transform="translate(-113.292 -663.052)" fill="#757575"/>
      <path id="Trazado_1021362" data-name="Trazado 1021362" d="M671.133,521.925l-.123-.628H666.1a2.356,2.356,0,0,1-2.317-2.387v-1.053a2.355,2.355,0,0,1,2.317-2.387h3.77a1.068,1.068,0,0,0-1.045-.859h-6.886a.7.7,0,0,0-.7.7v14.567h.859a4.18,4.18,0,0,1,8.2,0h.5a.365.365,0,0,0,.365-.365v-7.337A1.359,1.359,0,0,0,671.133,521.925Zm-6.925,2.916h-1.1a.808.808,0,0,1,0-1.616h1.1a.808.808,0,0,1,0,1.616Z" transform="translate(-523.032 -408.854)" fill="#4dd0e1"/>
      <path id="Trazado_1021363" data-name="Trazado 1021363" d="M171.439,408H159.147l-1.552,2.533a1.559,1.559,0,0,1-2.66,0L153.384,408h-1.753a.541.541,0,0,0-.541.541v19.985a.128.128,0,0,0,.128.128h2.308a4.18,4.18,0,0,1,8.2,0h13.517V411.8A3.805,3.805,0,0,0,171.439,408Zm-2.875,13.443a.808.808,0,0,1-.808.808h-9.183a.808.808,0,0,1-.808-.808v-8.758a.808.808,0,0,1,.808-.808h9.183a.808.808,0,0,1,.808.808Z" transform="translate(-38.648 -307.628)" fill="#4dd0e1"/>
      <path id="Trazado_1021364" data-name="Trazado 1021364" d="M375.848,516.75v1.528l-.559-.179a.812.812,0,0,0-.488,0l-.561.179V516.75Z" transform="translate(-250.528 -410.886)" fill="#f57f17"/>
      <path id="Trazado_1021365" data-name="Trazado 1021365" d="M321.444,516.75v2.63a.808.808,0,0,1-1.052.77l-1.368-.433-1.368.433a.808.808,0,0,1-1.052-.77v-2.63H315.24v7.142h7.567V516.75Zm-.071,6.055h-4.7a.808.808,0,0,1,0-1.616h4.7a.808.808,0,0,1,0,1.616Z" transform="translate(-194.507 -410.886)" fill="#fcb64d"/>
      <g id="Grupo_1180386" data-name="Grupo 1180386" transform="translate(111.501 86.129)" opacity="0.5">
        <path id="Trazado_1021366" data-name="Trazado 1021366" d="M141.348,127.043a5.7,5.7,0,0,0-6.573,0,5.632,5.632,0,0,0-1.492,7.511l3.021,4.932.027.043,1.731,2.828,1.739-2.837,3.041-4.966A5.635,5.635,0,0,0,141.348,127.043Zm-3.286,8.832a4.29,4.29,0,1,1,4.29-4.29A4.29,4.29,0,0,1,138.062,135.875Z" transform="translate(-132.45 -126.001)" fill="#fff"/>
        <path id="Trazado_1021367" data-name="Trazado 1021367" d="M738.953,576.205h-4.592a.739.739,0,0,1-.7-.771v-1.053a.739.739,0,0,1,.7-.771h4.086Z" transform="translate(-703.296 -551.003)" fill="#fff"/>
        <path id="Trazado_1021368" data-name="Trazado 1021368" d="M703.787,794.744v.015a2.564,2.564,0,1,1-5.127,0v-.015a2.564,2.564,0,1,1,5.127,0Z" transform="translate(-670.063 -758.534)" fill="#fff"/>
        <path id="Trazado_1021369" data-name="Trazado 1021369" d="M224.832,794.9a2.564,2.564,0,1,1-5.127,0v-.015a2.564,2.564,0,1,1,5.127.015Z" transform="translate(-215.298 -758.677)" fill="#fff"/>
        <path id="Trazado_1021370" data-name="Trazado 1021370" d="M661.133,531.925l-.123-.628H656.1a2.356,2.356,0,0,1-2.317-2.387v-1.053a2.355,2.355,0,0,1,2.317-2.387h3.77a1.068,1.068,0,0,0-1.045-.859h-6.886a.7.7,0,0,0-.7.7v14.567h.859a4.18,4.18,0,0,1,8.2,0h.5a.365.365,0,0,0,.365-.365v-7.337a1.354,1.354,0,0,0-.023-.253Zm-6.925,2.916h-1.1a.808.808,0,0,1,0-1.616h1.1a.808.808,0,1,1,0,1.616Z" transform="translate(-625.038 -504.478)" fill="#fff"/>
        <path id="Trazado_1021371" data-name="Trazado 1021371" d="M161.439,418H149.147l-1.552,2.533a1.559,1.559,0,0,1-2.66,0L143.384,418h-1.753a.541.541,0,0,0-.541.541v19.985a.128.128,0,0,0,.128.128h2.308a4.18,4.18,0,0,1,8.2,0h13.517V421.8A3.805,3.805,0,0,0,161.439,418Zm-2.875,13.443a.808.808,0,0,1-.808.808h-9.183a.808.808,0,0,1-.808-.808v-8.758a.808.808,0,0,1,.808-.808h9.183a.808.808,0,0,1,.808.808Z" transform="translate(-140.654 -403.252)" fill="#fff"/>
        <path id="Trazado_1021372" data-name="Trazado 1021372" d="M365.848,526.75v1.528l-.559-.179a.812.812,0,0,0-.488,0l-.561.179V526.75Z" transform="translate(-352.533 -506.51)" fill="#fff"/>
        <path id="Trazado_1021373" data-name="Trazado 1021373" d="M311.444,526.75v2.63a.808.808,0,0,1-1.052.77l-1.368-.433-1.368.433a.808.808,0,0,1-1.052-.77v-2.63H305.24v7.142h7.567V526.75Zm-.071,6.055h-4.7a.808.808,0,1,1,0-1.616h4.7a.808.808,0,1,1,0,1.616Z" transform="translate(-296.513 -506.51)" fill="#fff"/>
      </g>
      <g id="Grupo_1180387" data-name="Grupo 1180387" transform="translate(110.386 84.008)">
        <path id="Trazado_1021374" data-name="Trazado 1021374" d="M124.71,89.8a7.148,7.148,0,0,0-2.868-4.454,7.323,7.323,0,0,0-8.45,0,7.148,7.148,0,0,0-2.868,4.454,7.269,7.269,0,0,0,.935,5.218l2.285,3.734.99,1.616,1.551,2.533a1.559,1.559,0,0,0,2.66,0l1.552-2.533.99-1.616,2.286-3.732A7.269,7.269,0,0,0,124.71,89.8ZM122.4,94.177l-3.04,4.966-1.738,2.837-1.731-2.828-.027-.043-3.021-4.933a5.632,5.632,0,0,1,1.492-7.511,5.7,5.7,0,0,1,6.573,0,5.635,5.635,0,0,1,1.491,7.512Z" transform="translate(-110.386 -84.008)" fill="#413b32"/>
        <path id="Trazado_1021375" data-name="Trazado 1021375" d="M172.91,141.62a4.29,4.29,0,1,0,4.29,4.29A4.29,4.29,0,0,0,172.91,141.62Zm0,6.964a2.674,2.674,0,1,1,2.674-2.674A2.674,2.674,0,0,1,172.91,148.584Z" transform="translate(-165.679 -138.71)" fill="#413b32"/>
        <path id="Trazado_1021376" data-name="Trazado 1021376" d="M293.232,484.75h-9.183a.808.808,0,0,0-.808.808v8.758a.808.808,0,0,0,.808.808h9.183a.808.808,0,0,0,.808-.808v-8.758A.808.808,0,0,0,293.232,484.75Zm-.808,8.758h-7.567v-7.142h7.567Z" transform="translate(-274.51 -464.51)" fill="#413b32"/>
        <path id="Trazado_1021377" data-name="Trazado 1021377" d="M347.08,485.558V489a.808.808,0,0,1-1.052.77l-1.368-.433-1.368.433a.808.808,0,0,1-1.052-.77v-3.438a.808.808,0,0,1,1.616,0v2.336l.56-.177a.812.812,0,0,1,.488,0l.56.177v-2.336a.808.808,0,0,1,1.616,0Z" transform="translate(-330.53 -464.51)" fill="#413b32"/>
        <path id="Trazado_1021378" data-name="Trazado 1021378" d="M333.983,605.448a.808.808,0,0,1-.808.808h-4.7a.808.808,0,1,1,0-1.616h4.7A.808.808,0,0,1,333.983,605.448Z" transform="translate(-316.696 -578.345)" fill="#413b32"/>
        <path id="Trazado_1021379" data-name="Trazado 1021379" d="M642.39,491.8v7.337a1.983,1.983,0,0,1-1.981,1.981h-1.223a.808.808,0,1,1,0-1.616h1.223a.365.365,0,0,0,.365-.365V491.8a1.359,1.359,0,0,0-.025-.253l-.123-.629-.315-1.616-.505-2.594-.316-1.613v0a1.068,1.068,0,0,0-1.045-.859h-6.887a.7.7,0,0,0-.7.7V499.5h1.587a.808.808,0,0,1,0,1.616h-2.4a.808.808,0,0,1-.808-.808V484.938a2.323,2.323,0,0,1,1.616-2.209,2.292,2.292,0,0,1,.7-.109h6.886a2.688,2.688,0,0,1,2.633,2.172l.184.944a.127.127,0,0,0,0,.02l.817,4.192,0,.015.253,1.284A2.941,2.941,0,0,1,642.39,491.8Z" transform="translate(-603.035 -462.488)" fill="#413b32"/>
        <path id="Trazado_1021380" data-name="Trazado 1021380" d="M720.357,536.63a.808.808,0,0,1-.808.808h-5.572a2.356,2.356,0,0,1-2.317-2.387V534a2.355,2.355,0,0,1,2.317-2.387h4.751a.808.808,0,0,1,.79.64.127.127,0,0,0,0,.02.808.808,0,0,1-.794.957h-4.751a.739.739,0,0,0-.7.771v1.052a.739.739,0,0,0,.7.771h5.572a.808.808,0,0,1,.79.64l0,.015A.816.816,0,0,1,720.357,536.63Z" transform="translate(-681.292 -509.004)" fill="#413b32"/>
        <path id="Trazado_1021381" data-name="Trazado 1021381" d="M684.965,685.978a.808.808,0,0,1-.808.808h-1.1a.808.808,0,0,1,0-1.616h1.1A.808.808,0,0,1,684.965,685.978Z" transform="translate(-653.368 -654.808)" fill="#413b32"/>
        <path id="Trazado_1021382" data-name="Trazado 1021382" d="M684.938,753.78a4.181,4.181,0,1,0,.006,1.616,4.18,4.18,0,0,0-.006-1.616Zm-1.535.823a2.564,2.564,0,0,1-5.127,0v-.015a2.564,2.564,0,0,1,5.127,0Z" transform="translate(-648.06 -716.763)" fill="#413b32"/>
        <path id="Trazado_1021383" data-name="Trazado 1021383" d="M205.988,753.827a4.18,4.18,0,1,0,.006,1.616A4.18,4.18,0,0,0,205.988,753.827Zm-4.1,3.387a2.566,2.566,0,0,1-2.563-2.564v-.015a2.564,2.564,0,1,1,2.563,2.579Z" transform="translate(-193.3 -716.81)" fill="#413b32"/>
        <path id="Trazado_1021384" data-name="Trazado 1021384" d="M304.619,381.415v17.663a.808.808,0,0,1-.808.808H288.761a.808.808,0,1,1,0-1.616H303V381.415a3.805,3.805,0,0,0-3.8-3.8H286.458a.808.808,0,1,1,0-1.616H299.2A5.423,5.423,0,0,1,304.619,381.415Z" transform="translate(-276.798 -361.253)" fill="#413b32"/>
        <path id="Trazado_1021385" data-name="Trazado 1021385" d="M124.677,399.078a.808.808,0,0,1-.808.808h-3.035a1.746,1.746,0,0,1-1.744-1.744V378.156A2.16,2.16,0,0,1,121.247,376h2.206a.808.808,0,0,1,.67.354l.027.043a.808.808,0,0,1-.7,1.217h-2.206a.541.541,0,0,0-.541.541v19.988a.128.128,0,0,0,.128.128h3.035A.808.808,0,0,1,124.677,399.078Z" transform="translate(-118.65 -361.253)" fill="#413b32"/>
      </g>
    </g>
  </g>
</svg>
