<svg xmlns="http://www.w3.org/2000/svg" width="84" height="84" viewBox="0 0 84 84">
  <g id="Grupo_1180404" data-name="Grupo 1180404" transform="translate(-319.711 -3502)">
    <rect id="Rectángulo_456542" data-name="Rectángulo 456542" width="84" height="84" rx="10" transform="translate(319.711 3502)" fill="#f2a4ab"/>
    <g id="Grupo_1180403" data-name="Grupo 1180403" transform="translate(251.711 3416.359)">
      <path id="Trazado_1021486" data-name="Trazado 1021486" d="M717.874,696.776l-2.458,2.458-1.176-1.175L716.7,695.6Z" transform="translate(-591.099 -556.134)" fill="#616161"/>
      <path id="Trazado_1021487" data-name="Trazado 1021487" d="M763.762,743.383a1.739,1.739,0,0,1-2.967,1.229l-4.994-4.994,2.458-2.458,4.995,4.994A1.726,1.726,0,0,1,763.762,743.383Z" transform="translate(-630.078 -595.113)" fill="#616161"/>
      <path id="Trazado_1021488" data-name="Trazado 1021488" d="M678.84,658.9l-1.283,1.283L676,658.623a12.507,12.507,0,0,0,1.283-1.283Z" transform="translate(-555.234 -520.25)" fill="#78909c"/>
      <path id="Trazado_1021489" data-name="Trazado 1021489" d="M389.287,360.27a10.377,10.377,0,1,0,10.378,10.378A10.391,10.391,0,0,0,389.287,360.27Zm0,19.1a8.727,8.727,0,1,1,8.727-8.727A8.735,8.735,0,0,1,389.287,379.375Z" transform="translate(-276.595 -241.63)" fill="#78909c"/>
      <path id="Trazado_1021490" data-name="Trazado 1021490" d="M444.229,418.85a6.74,6.74,0,1,0,6.74,6.74A6.739,6.739,0,0,0,444.229,418.85Zm4.223,5.06-4.764,4.762a.994.994,0,0,1-1.405,0l-2.277-2.272a.994.994,0,1,1,1.406-1.4l1.571,1.571,4.061-4.06a.995.995,0,0,1,1.409,1.4Z" transform="translate(-331.537 -296.572)" fill="#b3e5fc"/>
      <path id="Trazado_1021491" data-name="Trazado 1021491" d="M142.347,146.718V135.849a1.161,1.161,0,0,0-1.159-1.159H117.159A1.16,1.16,0,0,0,116,135.846v37.085a1.16,1.16,0,0,0,1.159,1.159h24.029a1.161,1.161,0,0,0,1.159-1.159v-1.495a12.364,12.364,0,0,1,0-24.718ZM119.7,136.924a.994.994,0,0,1,.994-.994H137.65a.994.994,0,0,1,.994.994v3.3a.994.994,0,0,1-.994.994H120.7a.994.994,0,0,1-.994-.994Zm-.9,7.688h18.383a.994.994,0,1,1,0,1.987H118.8a.994.994,0,1,1,0-1.987ZM128.616,156H118.8a.994.994,0,1,1,0-1.987h9.813a.994.994,0,1,1,0,1.987Zm1.091,8.411a.994.994,0,0,1-.994.994H118.8a.994.994,0,1,1,0-1.987h9.909a.994.994,0,0,1,.994.994Zm-10.9-5.7h9.013a.994.994,0,1,1,0,1.987H118.8a.994.994,0,0,1,0-1.987Zm13.282,9.4a.994.994,0,0,1,0,1.987H118.8a.994.994,0,1,1,0-1.987Zm-1.173-16.82H118.8a.994.994,0,0,1,0-1.987h12.11a.994.994,0,0,1,0,1.987Z" transform="translate(-30.013 -30.06)" fill="#90caf9"/>
      <path id="Trazado_1021492" data-name="Trazado 1021492" d="M207.61,186.67h14.968v1.309H207.61Z" transform="translate(-115.933 -78.811)" fill="#ffc400"/>
      <g id="Grupo_1180401" data-name="Grupo 1180401" transform="translate(85.366 105.251)" opacity="0.5">
        <path id="Trazado_1021493" data-name="Trazado 1021493" d="M707.874,706.776l-2.458,2.458-1.176-1.175L706.7,705.6Z" transform="translate(-667.086 -670.765)" fill="#fff"/>
        <path id="Trazado_1021494" data-name="Trazado 1021494" d="M753.762,753.383a1.739,1.739,0,0,1-2.967,1.229l-4.994-4.995,2.458-2.458,4.994,4.995A1.726,1.726,0,0,1,753.762,753.383Z" transform="translate(-706.065 -709.744)" fill="#fff"/>
        <path id="Trazado_1021495" data-name="Trazado 1021495" d="M668.84,668.9l-1.283,1.283L666,668.623a12.518,12.518,0,0,0,1.283-1.283Z" transform="translate(-631.221 -634.881)" fill="#fff"/>
        <path id="Trazado_1021496" data-name="Trazado 1021496" d="M379.287,370.27a10.377,10.377,0,1,0,10.378,10.378A10.391,10.391,0,0,0,379.287,370.27Zm0,19.1a8.727,8.727,0,1,1,8.727-8.727A8.735,8.735,0,0,1,379.287,389.375Z" transform="translate(-352.582 -356.26)" fill="#fff"/>
        <path id="Trazado_1021497" data-name="Trazado 1021497" d="M434.229,428.85a6.74,6.74,0,1,0,6.74,6.74A6.739,6.739,0,0,0,434.229,428.85Zm4.223,5.06-4.764,4.762a.994.994,0,0,1-1.405,0l-2.277-2.272a.994.994,0,1,1,1.405-1.4l1.571,1.571,4.061-4.06a.995.995,0,1,1,1.409,1.4Z" transform="translate(-407.524 -411.202)" fill="#fff"/>
        <path id="Trazado_1021498" data-name="Trazado 1021498" d="M132.347,156.718V145.849a1.161,1.161,0,0,0-1.16-1.159H107.159A1.16,1.16,0,0,0,106,145.846v37.085a1.16,1.16,0,0,0,1.159,1.159h24.029a1.161,1.161,0,0,0,1.16-1.159v-1.495a12.364,12.364,0,0,1,0-24.718ZM109.7,146.925a.994.994,0,0,1,.994-.994H127.65a.994.994,0,0,1,.994.994v3.3a.994.994,0,0,1-.994.994H110.7a.994.994,0,0,1-.994-.994Zm-.9,7.688h18.383a.994.994,0,0,1,0,1.987H108.8a.994.994,0,0,1,0-1.987ZM118.616,166H108.8a.994.994,0,0,1,0-1.987h9.813a.994.994,0,1,1,0,1.987Zm1.091,8.411a.994.994,0,0,1-.994.994H108.8a.994.994,0,0,1,0-1.987h9.909a.994.994,0,0,1,.994.994Zm-10.9-5.7h9.013a.994.994,0,0,1,0,1.987H108.8a.994.994,0,1,1,0-1.987Zm13.282,9.4a.994.994,0,1,1,0,1.987H108.8a.994.994,0,0,1,0-1.987Zm-1.173-16.82H108.8a.994.994,0,1,1,0-1.987h12.11a.994.994,0,0,1,0,1.987Z" transform="translate(-106 -144.69)" fill="#fff"/>
        <path id="Trazado_1021499" data-name="Trazado 1021499" d="M197.61,196.67h14.968v1.309H197.61Z" transform="translate(-191.921 -193.442)" fill="#fff"/>
      </g>
      <g id="Grupo_1180402" data-name="Grupo 1180402" transform="translate(84 102.64)">
        <path id="Trazado_1021500" data-name="Trazado 1021500" d="M114.322,105.787v11.877a.994.994,0,0,1-1.987,0V105.787a1.161,1.161,0,0,0-1.159-1.159H87.146a1.16,1.16,0,0,0-1.159,1.159v37.085a1.16,1.16,0,0,0,1.159,1.159h24.029a1.161,1.161,0,0,0,1.159-1.159v-2.5a.994.994,0,0,1,1.987,0v2.5a3.15,3.15,0,0,1-3.147,3.146H87.146A3.15,3.15,0,0,1,84,142.871V105.787a3.15,3.15,0,0,1,3.146-3.147h24.029a3.151,3.151,0,0,1,3.147,3.147Z" transform="translate(-84 -102.64)" fill="#413b32"/>
        <path id="Trazado_1021501" data-name="Trazado 1021501" d="M193.568,154.67H176.614a.994.994,0,0,0-.994.994v3.3a.994.994,0,0,0,.994.994h16.955a.994.994,0,0,0,.994-.994v-3.3A.994.994,0,0,0,193.568,154.67Zm-.994,3.3H177.607v-1.309h14.967Z" transform="translate(-169.93 -151.439)" fill="#413b32"/>
        <path id="Trazado_1021502" data-name="Trazado 1021502" d="M165.48,295.454a.994.994,0,0,1-.994.994H146.1a.994.994,0,0,1,0-1.987h18.383A.994.994,0,0,1,165.48,295.454Z" transform="translate(-141.315 -282.547)" fill="#413b32"/>
        <path id="Trazado_1021503" data-name="Trazado 1021503" d="M159.218,371.164a.994.994,0,0,1-.994.994h-12.11a.994.994,0,0,1,0-1.987h12.11A.994.994,0,0,1,159.218,371.164Z" transform="translate(-141.324 -353.555)" fill="#413b32"/>
        <path id="Trazado_1021504" data-name="Trazado 1021504" d="M156.93,446.874a.994.994,0,0,1-.994.994h-9.813a.994.994,0,1,1,0-1.987h9.813A.994.994,0,0,1,156.93,446.874Z" transform="translate(-141.334 -424.563)" fill="#413b32"/>
        <path id="Trazado_1021505" data-name="Trazado 1021505" d="M156.13,522.584a.994.994,0,0,1-.994.994h-9.013a.994.994,0,1,1,0-1.987h9.013A.994.994,0,0,1,156.13,522.584Z" transform="translate(-141.334 -495.571)" fill="#413b32"/>
        <path id="Trazado_1021506" data-name="Trazado 1021506" d="M157.036,598.3a.994.994,0,0,1-.994.994h-9.909a.994.994,0,1,1,0-1.987h9.909A.994.994,0,0,1,157.036,598.3Z" transform="translate(-141.343 -566.589)" fill="#413b32"/>
        <path id="Trazado_1021507" data-name="Trazado 1021507" d="M160.409,673.994a.994.994,0,0,1-.994.994H146.134a.994.994,0,1,1,0-1.987h13.282A.994.994,0,0,1,160.409,673.994Z" transform="translate(-141.343 -637.578)" fill="#413b32"/>
        <path id="Trazado_1021508" data-name="Trazado 1021508" d="M644.58,622.283a.994.994,0,0,1-.291.7l-.114.115-2.459,2.459-.115.112a.994.994,0,0,1-1.406,0l-.574-.574-1.9-1.9-.514-.514a.994.994,0,0,1,1.405-1.405l.731.732,1.556,1.556,1.283-1.283-1.556-1.553-.732-.732a.994.994,0,1,1,1.407-1.4l.514.514,1.9,1.9.574.574A.994.994,0,0,1,644.58,622.283Z" transform="translate(-602.575 -586.275)" fill="#413b32"/>
        <path id="Trazado_1021509" data-name="Trazado 1021509" d="M687.315,663.391l-2.178-2.179a1.561,1.561,0,0,0-2.21,0l-3.059,3.059a1.563,1.563,0,0,0,0,2.21l2.178,2.178.011.011a.994.994,0,0,0,1.394-.011l.7-.7,2.458-2.458.7-.7a.994.994,0,0,0,0-1.4Zm-3.283-.473,1.175,1.176-2.458,2.458-1.176-1.175Z" transform="translate(-642.433 -626.093)" fill="#413b32"/>
        <path id="Trazado_1021510" data-name="Trazado 1021510" d="M728.434,704.575l-5.7-5.7a.994.994,0,0,0-1.4,0l-3.864,3.864a.994.994,0,0,0,0,1.4l.011.011,5.686,5.686a3.726,3.726,0,1,0,5.269-5.269Zm-1.028,3.3a1.739,1.739,0,0,1-2.836.563l-4.994-5,2.458-2.458,4.995,4.995a1.739,1.739,0,0,1,.378,1.895Z" transform="translate(-677.854 -661.576)" fill="#413b32"/>
        <path id="Trazado_1021511" data-name="Trazado 1021511" d="M414.207,386.85a8.727,8.727,0,1,0,8.727,8.727A8.735,8.735,0,0,0,414.207,386.85Zm0,15.464a6.74,6.74,0,1,1,6.74-6.737,6.739,6.739,0,0,1-6.74,6.737Z" transform="translate(-385.515 -369.199)" fill="#413b32"/>
        <path id="Trazado_1021512" data-name="Trazado 1021512" d="M360.9,328.377a12.468,12.468,0,0,0-1.63-.107c-.12,0-.239,0-.358.006a12.364,12.364,0,0,0,0,24.718c.119,0,.238.006.358.006a12.481,12.481,0,0,0,1.629-.107,12.274,12.274,0,0,0,4.822-1.713,12.444,12.444,0,0,0,4.094-4.094,12.359,12.359,0,0,0-8.915-18.708Zm-1.63,22.635a10.377,10.377,0,1,1,10.378-10.377A10.391,10.391,0,0,1,359.274,351.012Z" transform="translate(-330.582 -314.257)" fill="#413b32"/>
        <path id="Trazado_1021513" data-name="Trazado 1021513" d="M482.052,474.7l-4.764,4.762a.994.994,0,0,1-1.405,0l-2.277-2.272a.994.994,0,1,1,1.406-1.4l1.571,1.571,4.061-4.06a.995.995,0,1,1,1.409,1.4Z" transform="translate(-449.137 -450.003)" fill="#413b32"/>
      </g>
    </g>
  </g>
</svg>
