<svg xmlns="http://www.w3.org/2000/svg" xmlns:xlink="http://www.w3.org/1999/xlink" width="83" height="83" viewBox="0 0 83 83">
  <defs>
    <clipPath id="clip-path">
      <rect id="Rectángulo_456277" data-name="Rectángulo 456277" width="83" height="83" transform="translate(0.001 0)" fill="#d35560"/>
    </clipPath>
  </defs>
  <g id="Grupo_1180311" data-name="Grupo 1180311" transform="translate(-413.59 -9435.531)">
    <g id="Grupo_1180081" data-name="Grupo 1180081" transform="translate(413.589 9435.531)">
      <g id="Grupo_1179924" data-name="Grupo 1179924" transform="translate(0 0)">
        <g id="Grupo_1179923" data-name="Grupo 1179923" transform="translate(0 0)" clip-path="url(#clip-path)">
          <path id="Trazado_1004716" data-name="Trazado 1004716" d="M41.621,83.242c-1.352,0-2.616-1.544-3.935-1.673-1.343-.131-2.883,1.137-4.185.878-1.321-.262-2.259-2.024-3.532-2.411s-3.046.55-4.275.039-1.814-2.427-2.989-3.057-3.092-.056-4.2-.8-1.3-2.733-2.336-3.581-3.02-.653-3.966-1.6-.749-2.932-1.6-3.966S7.77,65.849,7.024,64.736s-.165-3.019-.8-4.2-2.542-1.749-3.058-2.989.43-2.989.039-4.275S1.057,51.061.8,49.74c-.258-1.3,1.009-2.842.878-4.185C1.544,44.237,0,42.973,0,41.621S1.544,39,1.673,37.686C1.8,36.343.537,34.8.8,33.5c.262-1.321,2.024-2.259,2.411-3.531s-.55-3.046-.039-4.276,2.427-1.814,3.058-2.989.056-3.091.8-4.2,2.733-1.3,3.581-2.336.653-3.02,1.6-3.966,2.931-.749,3.966-1.6,1.223-2.836,2.336-3.581,3.019-.165,4.2-.8,1.749-2.542,2.989-3.058,2.989.429,4.276.039S32.18,1.057,33.5.8c1.3-.258,2.842,1.01,4.185.878C39,1.544,40.269,0,41.621,0s2.616,1.544,3.935,1.673C46.9,1.8,48.438.537,49.74.8c1.321.262,2.259,2.024,3.532,2.411s3.046-.55,4.275-.039,1.814,2.427,2.989,3.058,3.092.056,4.2.8,1.3,2.733,2.336,3.581,3.02.653,3.966,1.6.749,2.932,1.6,3.966,2.836,1.223,3.581,2.336.165,3.019.8,4.2,2.542,1.749,3.057,2.989-.429,2.989-.039,4.275,2.149,2.21,2.411,3.531c.258,1.3-1.009,2.842-.878,4.185.129,1.318,1.674,2.583,1.674,3.935s-1.544,2.616-1.674,3.935c-.131,1.343,1.137,2.883.878,4.185-.262,1.321-2.024,2.259-2.411,3.532s.55,3.046.039,4.275-2.427,1.814-3.058,2.989-.056,3.091-.8,4.2-2.733,1.3-3.581,2.336-.653,3.02-1.6,3.965-2.932.749-3.965,1.6-1.223,2.835-2.336,3.581-3.019.165-4.2.8-1.749,2.543-2.989,3.058-2.989-.429-4.275-.039-2.21,2.148-3.531,2.411c-1.3.258-2.842-1.01-4.185-.878-1.319.129-2.583,1.673-3.935,1.673" transform="translate(0.007 0.006)" fill="#d35560"/>
          <path id="Trazado_1004717" data-name="Trazado 1004717" d="M14,51.684A37.684,37.684,0,1,1,51.684,89.367,37.684,37.684,0,0,1,14,51.684" transform="translate(-10.056 -10.057)" fill="#4d787e"/>
          <path id="Trazado_1004718" data-name="Trazado 1004718" d="M131.066,267.538c-.1-.423-.194-.861-.284-1.29l-1.317-.168q.59-.313,1.156-.631-.125-.645-.236-1.289c.3.3.61.6.928.892q.555-.345,1.086-.691-.235.608-.486,1.215c.329.282.665.569,1.009.849l-1.323-.1q-.259.607-.533,1.211" transform="translate(-93.05 -189.867)" fill="#ffffc5"/>
          <path id="Trazado_1004719" data-name="Trazado 1004719" d="M112.708,264.037c-.036-.432-.063-.88-.087-1.317l-1.277-.364q.63-.221,1.238-.45-.027-.657-.04-1.31c.254.337.513.686.783,1.021q.6-.257,1.176-.52-.324.566-.661,1.128c.283.327.571.665.871.989-.433-.09-.863-.2-1.294-.294q-.347.561-.708,1.117" transform="translate(-80.024 -187.305)" fill="#ffffc5"/>
          <path id="Trazado_1004720" data-name="Trazado 1004720" d="M95.144,257.928c.033-.44.071-.881.113-1.318l-1.209-.549c.437-.082.868-.17,1.292-.261q.072-.652.156-1.3c.2.372.406.749.621,1.128q.632-.165,1.242-.339-.4.511-.824,1.017c.23.366.467.74.713,1.109l-1.235-.486q-.427.5-.868,1" transform="translate(-67.592 -182.924)" fill="#ffffc5"/>
          <path id="Trazado_1004721" data-name="Trazado 1004721" d="M78.777,249.35q.148-.647.308-1.286c-.37-.242-.75-.47-1.112-.724.437,0,.884-.038,1.315-.063q.168-.634.348-1.26.214.6.448,1.2c.427-.037.859-.1,1.278-.148q-.477.445-.968.884.26.595.54,1.2l-1.15-.662c-.332.288-.67.578-1.005.854" transform="translate(-56.037 -176.825)" fill="#ffffc5"/>
          <path id="Trazado_1004722" data-name="Trazado 1004722" d="M63.959,238.515q.241-.617.494-1.224c-.331-.294-.678-.57-.991-.883.429.064.874.1,1.307.135q.259-.6.529-1.193.126.619.269,1.254c.421.035.861.036,1.283.046q-.539.37-1.089.732.17.625.359,1.264l-1.043-.821c-.373.239-.74.463-1.116.691" transform="translate(-45.607 -169.158)" fill="#ffffc5"/>
          <path id="Trazado_1004723" data-name="Trazado 1004723" d="M51.005,225.675q.329-.574.667-1.136l-.434-.5c-.144-.168-.276-.346-.414-.519l.629.177.641.152q.344-.556.7-1.1.035.629.085,1.276l.625.131.635.106q-.588.288-1.187.564.078.641.172,1.3c-.3-.321-.614-.637-.913-.964q-.6.264-1.2.517" transform="translate(-36.524 -160.099)" fill="#ffffc5"/>
          <path id="Trazado_1004724" data-name="Trazado 1004724" d="M39.841,211.108q.409-.518.827-1.024c-.118-.187-.242-.37-.355-.561l-.331-.575c.4.18.791.361,1.205.515.283-.333.562-.658.855-.986-.044.421-.073.842-.1,1.273.4.15.8.3,1.208.423-.416.132-.838.26-1.258.383-.012.431-.016.865-.018,1.308-.252-.364-.524-.713-.758-1.089q-.631.173-1.269.334" transform="translate(-28.63 -149.843)" fill="#ffffc5"/>
          <path id="Trazado_1004725" data-name="Trazado 1004725" d="M30.615,195.13q.481-.451.968-.889c-.191-.4-.343-.816-.507-1.226.374.237.731.473,1.112.69.325-.285.659-.569,1-.849-.118.414-.2.821-.295,1.244.381.206.74.414,1.129.6-.434.069-.867.133-1.3.189-.089.43-.146.853-.215,1.291-.2-.395-.412-.783-.586-1.19q-.65.077-1.307.141" transform="translate(-21.998 -138.615)" fill="#ffffc5"/>
          <path id="Trazado_1004726" data-name="Trazado 1004726" d="M24.019,177.688q.543-.373,1.089-.733c-.131-.423-.21-.859-.316-1.289.334.291.656.576.994.85.363-.233.744-.465,1.116-.69-.182.393-.323.783-.48,1.185.344.262.677.519,1.024.762-.442,0-.869,0-1.306-.009-.158.414-.275.823-.408,1.245-.145-.418-.287-.837-.4-1.265q-.655-.021-1.314-.056" transform="translate(-17.257 -126.259)" fill="#ffffc5"/>
          <path id="Trazado_1004727" data-name="Trazado 1004727" d="M20.215,159.173q.593-.288,1.187-.561c-.066-.438-.08-.881-.119-1.322.286.338.561.668.855.99.394-.176.8-.348,1.207-.515-.239.361-.436.726-.652,1.1.3.31.593.614.9.908-.436-.062-.858-.132-1.289-.205-.219.385-.4.772-.591,1.17l-.117-.653c-.037-.218-.058-.439-.088-.658q-.645-.119-1.291-.253" transform="translate(-14.523 -113.05)" fill="#ffffc5"/>
          <path id="Trazado_1004728" data-name="Trazado 1004728" d="M19.269,140.414q.629-.2,1.258-.379c0-.443.041-.884.075-1.325.235.376.447.744.7,1.105.419-.116.836-.226,1.264-.332-.28.322-.535.654-.8.992.253.352.487.7.755,1.031q-.633-.19-1.248-.394c-.27.348-.5.7-.755,1.069-.01-.442-.031-.884-.01-1.327q-.619-.213-1.238-.441" transform="translate(-13.843 -99.696)" fill="#ffffc5"/>
          <path id="Trazado_1004729" data-name="Trazado 1004729" d="M21.174,121.821q.652-.1,1.3-.187c.041-.217.073-.437.122-.652l.149-.647c.174.407.332.8.531,1.2.434-.051.858-.1,1.3-.139-.32.278-.626.566-.942.861.2.385.375.759.6,1.132-.394-.187-.8-.38-1.18-.575-.309.306-.6.622-.9.945.062-.438.1-.88.186-1.314q-.58-.3-1.157-.62" transform="translate(-15.212 -86.487)" fill="#ffffc5"/>
          <path id="Trazado_1004730" data-name="Trazado 1004730" d="M25.928,103.813q.66,0,1.315.01c.134-.422.3-.832.464-1.243.113.429.207.843.344,1.264.435.014.866.032,1.306.058-.363.225-.7.465-1.062.709.138.411.256.807.419,1.208-.362-.244-.728-.495-1.079-.746-.353.256-.688.525-1.036.8.126-.424.23-.855.382-1.271q-.528-.386-1.051-.787" transform="translate(-18.629 -73.726)" fill="#ffffc5"/>
          <path id="Trazado_1004731" data-name="Trazado 1004731" d="M33.429,86.8q.652.1,1.3.206c.193-.4.429-.773.646-1.159.046.44.087.869.149,1.3.425.077.859.165,1.287.255-.4.163-.768.354-1.159.541.075.427.139.839.231,1.257-.325-.3-.64-.6-.951-.9-.4.2-.76.415-1.146.633.183-.4.359-.809.569-1.2q-.465-.461-.923-.936" transform="translate(-24.021 -61.7)" fill="#ffffc5"/>
          <path id="Trazado_1004732" data-name="Trazado 1004732" d="M43.489,71.162q.629.192,1.251.4c.257-.36.542-.7.812-1.05q-.03.663-.046,1.307.623.217,1.238.446c-.418.1-.822.229-1.229.361q.013.648.039,1.276-.406-.508-.8-1.026c-.42.135-.821.292-1.23.454l.359-.559.384-.541q-.391-.526-.775-1.064" transform="translate(-31.252 -50.674)" fill="#ffffc5"/>
          <path id="Trazado_1004733" data-name="Trazado 1004733" d="M55.127,57.229q.594.282,1.177.575l.96-.917q-.126.653-.235,1.29.584.306,1.157.622c-.424.047-.854.1-1.271.173q-.081.644-.147,1.271-.326-.562-.643-1.135l-.648.12c-.214.044-.424.095-.638.144.283-.34.594-.656.9-.976q-.31-.579-.611-1.169" transform="translate(-39.41 -40.884)" fill="#ffffc5"/>
          <path id="Trazado_1004734" data-name="Trazado 1004734" d="M68.74,45.3c.362.244.722.49,1.082.747l1.082-.77q-.22.63-.42,1.246.531.388,1.051.785c-.421-.01-.861-.033-1.285-.019q-.174.627-.329,1.24-.24-.6-.469-1.219c-.432.018-.882.025-1.313.069.33-.3.691-.553,1.034-.831q-.222-.62-.432-1.248" transform="translate(-48.969 -32.539)" fill="#ffffc5"/>
          <path id="Trazado_1004735" data-name="Trazado 1004735" d="M84.114,34.886c.322.295.646.6.962.906l1.181-.606q-.31.592-.6,1.174.467.462.922.93c-.416-.074-.841-.15-1.269-.213q-.264.6-.507,1.182-.148-.635-.284-1.277c-.43-.047-.872-.1-1.311-.13.378-.23.765-.444,1.148-.667q-.128-.646-.243-1.3" transform="translate(-59.802 -25.069)" fill="#ffffc5"/>
          <path id="Trazado_1004736" data-name="Trazado 1004736" d="M100.926,26.946q.415.518.816,1.041c.42-.14.837-.288,1.258-.422-.265.353-.519.717-.768,1.071q.392.526.771,1.057-.6-.2-1.222-.4c-.235.363-.459.733-.677,1.094q-.052-.65-.091-1.307-.627-.167-1.277-.325l1.235-.488c-.02-.438-.037-.883-.045-1.321" transform="translate(-71.682 -19.362)" fill="#ffffc5"/>
          <path id="Trazado_1004737" data-name="Trazado 1004737" d="M118.8,21.733q.332.574.65,1.152c.436-.076.87-.161,1.308-.229-.316.307-.621.63-.92.943q.309.579.6,1.16-.562-.291-1.148-.578c-.288.319-.564.656-.834.979q.046-.651.106-1.306-.595-.258-1.213-.511l1.293-.3c.046-.436.1-.881.154-1.31" transform="translate(-84.346 -15.615)" fill="#ffffc5"/>
          <path id="Trazado_1004738" data-name="Trazado 1004738" d="M137.334,19.35q.243.618.471,1.237l1.327-.033q-.537.4-1.05.8.22.619.425,1.238-.513-.372-1.05-.746c-.332.278-.656.565-.971.845q.143-.637.3-1.275-.55-.345-1.123-.688l1.323-.1c.111-.424.227-.855.348-1.275" transform="translate(-97.504 -13.902)" fill="#ffffc5"/>
          <path id="Trazado_1004739" data-name="Trazado 1004739" d="M156.1,19.831c.1.424.194.861.284,1.29l1.317.168q-.59.313-1.156.631.125.645.236,1.289c-.3-.3-.61-.6-.927-.892q-.555.345-1.086.691.235-.608.485-1.215c-.328-.282-.665-.569-1.009-.849l1.324.1q.259-.607.533-1.211" transform="translate(-110.858 -14.248)" fill="#ffffc5"/>
          <path id="Trazado_1004740" data-name="Trazado 1004740" d="M174.686,23.17c.036.433.063.88.087,1.317l1.277.364q-.63.221-1.238.45.027.657.04,1.31c-.254-.337-.512-.686-.783-1.021q-.6.257-1.176.52.324-.566.661-1.128c-.283-.327-.571-.665-.871-.988.433.09.863.2,1.294.294q.347-.561.708-1.117" transform="translate(-124.114 -16.648)" fill="#ffffc5"/>
          <path id="Trazado_1004741" data-name="Trazado 1004741" d="M192.393,29.313c-.033.44-.071.881-.113,1.318l1.209.549c-.437.082-.868.171-1.292.261q-.072.653-.156,1.3c-.2-.372-.406-.749-.621-1.128q-.632.165-1.242.339.4-.511.824-1.017c-.23-.366-.466-.74-.712-1.109l1.235.486q.427-.5.868-1" transform="translate(-136.689 -21.063)" fill="#ffffc5"/>
          <path id="Trazado_1004742" data-name="Trazado 1004742" d="M208.563,38.133q-.148.647-.308,1.286c.37.242.75.47,1.112.724-.437,0-.884.038-1.315.063q-.168.634-.348,1.26-.214-.6-.448-1.2c-.427.037-.859.1-1.278.148q.478-.445.968-.884-.26-.595-.54-1.2l1.15.662c.332-.288.67-.578,1.005-.854" transform="translate(-148.047 -27.403)" fill="#ffffc5"/>
          <path id="Trazado_1004743" data-name="Trazado 1004743" d="M223.38,49.066q-.241.617-.493,1.224c.331.294.678.57.991.882-.429-.064-.874-.1-1.307-.135q-.259.6-.529,1.194-.126-.619-.269-1.253c-.421-.036-.861-.036-1.284-.046q.539-.37,1.089-.732-.17-.625-.359-1.264l1.043.82c.373-.239.74-.463,1.116-.691" transform="translate(-158.476 -35.168)" fill="#ffffc5"/>
          <path id="Trazado_1004744" data-name="Trazado 1004744" d="M236.527,61.7q-.329.574-.667,1.136l.434.5c.144.168.275.346.414.519l-.63-.177-.641-.152q-.344.556-.7,1.1-.035-.629-.085-1.276l-.625-.131-.635-.106q.588-.288,1.187-.564-.078-.641-.172-1.3c.3.321.614.637.913.964q.6-.264,1.2-.517" transform="translate(-167.752 -44.019)" fill="#ffffc5"/>
          <path id="Trazado_1004745" data-name="Trazado 1004745" d="M247.713,76.239q-.409.518-.826,1.024c.118.187.242.37.355.561l.331.575c-.4-.18-.791-.361-1.205-.515-.283.333-.562.658-.855.986.044-.421.073-.842.1-1.273-.4-.15-.8-.3-1.208-.423.416-.132.838-.261,1.258-.383.012-.431.017-.865.018-1.307.252.364.524.713.758,1.089q.631-.173,1.269-.334" transform="translate(-175.669 -54.249)" fill="#ffffc5"/>
          <path id="Trazado_1004746" data-name="Trazado 1004746" d="M256.684,92.378q-.481.451-.968.889c.191.4.343.816.507,1.226-.374-.237-.731-.473-1.112-.69-.325.285-.659.569-1,.849.118-.414.2-.821.3-1.244-.381-.206-.74-.414-1.129-.6.434-.069.867-.133,1.3-.189.089-.43.146-.853.215-1.291.2.395.412.783.586,1.191q.65-.077,1.307-.141" transform="translate(-182.045 -65.638)" fill="#ffffc5"/>
          <path id="Trazado_1004747" data-name="Trazado 1004747" d="M263.22,109.767q-.543.374-1.089.733c.131.423.21.859.316,1.289-.334-.291-.656-.577-.994-.85-.363.233-.744.465-1.117.69.182-.393.323-.783.48-1.185-.344-.262-.677-.519-1.024-.762.441,0,.869,0,1.306.009.158-.414.275-.823.408-1.245.145.418.287.837.4,1.265q.655.021,1.314.056" transform="translate(-186.726 -77.942)" fill="#ffffc5"/>
          <path id="Trazado_1004748" data-name="Trazado 1004748" d="M267.158,128.019q-.593.288-1.187.561c.066.438.08.881.119,1.322-.286-.338-.561-.668-.855-.99-.394.176-.8.348-1.207.515.239-.361.436-.726.652-1.1-.3-.31-.593-.614-.9-.908.436.062.858.132,1.289.205.219-.385.4-.772.591-1.169l.117.653c.037.218.058.439.088.658q.645.119,1.291.253" transform="translate(-189.594 -90.887)" fill="#ffffc5"/>
          <path id="Trazado_1004749" data-name="Trazado 1004749" d="M268.294,146.713q-.629.2-1.258.379c0,.443-.041.884-.075,1.325-.235-.376-.447-.744-.7-1.105-.419.116-.836.226-1.264.332.28-.322.535-.654.8-.992-.253-.352-.487-.7-.755-1.031q.633.19,1.248.394c.27-.348.5-.7.755-1.069.01.442.031.884.01,1.327q.619.213,1.238.441" transform="translate(-190.465 -104.177)" fill="#ffffc5"/>
          <path id="Trazado_1004750" data-name="Trazado 1004750" d="M266.131,165.436q-.653.1-1.3.187c-.041.217-.073.437-.122.652l-.149.647c-.174-.407-.332-.8-.531-1.2-.434.051-.858.1-1.3.139.32-.278.626-.566.942-.861-.2-.385-.375-.759-.6-1.132.394.187.8.38,1.18.575.309-.306.6-.622.9-.945-.062.438-.1.88-.186,1.314q.58.3,1.158.62" transform="translate(-188.837 -117.515)" fill="#ffffc5"/>
          <path id="Trazado_1004751" data-name="Trazado 1004751" d="M261.308,183.774q-.66,0-1.315-.01c-.134.422-.3.832-.464,1.243-.113-.429-.207-.843-.344-1.264-.435-.014-.866-.031-1.306-.058.363-.225.7-.465,1.062-.709-.138-.41-.256-.807-.419-1.208.362.244.728.495,1.079.746.353-.256.688-.525,1.036-.8-.126.424-.23.855-.382,1.271q.528.386,1.051.787" transform="translate(-185.351 -130.607)" fill="#ffffc5"/>
          <path id="Trazado_1004752" data-name="Trazado 1004752" d="M253.934,200.63q-.652-.1-1.3-.206c-.193.4-.429.773-.646,1.159-.046-.44-.086-.869-.149-1.3-.425-.077-.859-.165-1.287-.255.4-.163.768-.354,1.159-.541-.075-.427-.138-.839-.231-1.257.325.3.639.6.951.9.4-.2.76-.415,1.146-.633-.183.4-.359.809-.569,1.2q.464.461.923.936" transform="translate(-180.086 -142.477)" fill="#ffffc5"/>
          <path id="Trazado_1004753" data-name="Trazado 1004753" d="M244.192,216.174q-.629-.192-1.251-.4c-.257.36-.542.7-.812,1.05q.03-.663.046-1.307-.623-.217-1.238-.446c.418-.1.822-.229,1.229-.361q-.013-.647-.039-1.276.406.508.8,1.026c.42-.135.821-.292,1.23-.454l-.359.559-.384.541q.391.526.775,1.064" transform="translate(-173.174 -153.408)" fill="#ffffc5"/>
          <path id="Trazado_1004754" data-name="Trazado 1004754" d="M232.318,230.192q-.594-.283-1.177-.575l-.96.917q.126-.653.235-1.29-.584-.306-1.157-.622c.423-.047.854-.1,1.271-.173q.081-.644.147-1.271.326.562.643,1.135l.648-.12c.214-.044.424-.095.638-.144-.283.34-.594.656-.9.976q.31.579.611,1.169" transform="translate(-164.78 -163.283)" fill="#ffffc5"/>
          <path id="Trazado_1004755" data-name="Trazado 1004755" d="M218.578,242.388c-.363-.244-.722-.49-1.082-.747l-1.081.77q.219-.63.42-1.246-.531-.388-1.051-.785c.421.01.861.033,1.285.019q.174-.628.329-1.24.24.6.47,1.219c.432-.018.882-.025,1.313-.069-.33.3-.691.553-1.034.831q.222.62.432,1.248" transform="translate(-155.093 -171.896)" fill="#ffffc5"/>
          <path id="Trazado_1004756" data-name="Trazado 1004756" d="M203.269,252.492c-.322-.294-.646-.6-.962-.905l-1.181.606q.31-.592.6-1.174-.467-.462-.922-.931c.416.074.841.15,1.269.213q.264-.6.507-1.182.148.635.285,1.277c.43.046.871.1,1.31.129-.378.23-.765.444-1.148.667q.128.646.243,1.3" transform="translate(-144.326 -179.054)" fill="#ffffc5"/>
          <path id="Trazado_1004757" data-name="Trazado 1004757" d="M186.721,260.262q-.415-.518-.816-1.041c-.42.14-.837.288-1.258.422.266-.353.519-.717.768-1.071q-.392-.526-.771-1.057.6.2,1.222.4c.235-.363.459-.733.677-1.094q.052.65.091,1.307.627.167,1.277.325l-1.235.488c.02.438.037.883.045,1.321" transform="translate(-132.71 -184.592)" fill="#ffffc5"/>
          <path id="Trazado_1004758" data-name="Trazado 1004758" d="M168.491,265.508q-.332-.574-.65-1.152c-.436.076-.87.161-1.308.229.316-.307.621-.631.92-.943q-.309-.579-.6-1.16.562.291,1.148.578c.288-.319.564-.656.834-.979q-.046.651-.106,1.306.595.258,1.213.511l-1.293.3c-.046.436-.1.88-.154,1.31" transform="translate(-119.693 -188.372)" fill="#ffffc5"/>
          <path id="Trazado_1004759" data-name="Trazado 1004759" d="M149.8,268.115q-.243-.618-.471-1.237l-1.327.033q.537-.4,1.05-.8-.22-.619-.425-1.238.513.372,1.05.745c.332-.278.656-.565.971-.845q-.143.637-.3,1.275.55.345,1.123.688l-1.323.1c-.111.424-.227.855-.348,1.275" transform="translate(-106.372 -190.309)" fill="#ffffc5"/>
          <path id="Trazado_1004760" data-name="Trazado 1004760" d="M66.94,98.654A31.715,31.715,0,1,1,98.654,66.94,31.75,31.75,0,0,1,66.94,98.654" transform="translate(-25.312 -25.313)" fill="#d35560"/>
        </g>
      </g>
      <g id="Grupo_1180053" data-name="Grupo 1180053" transform="translate(21.809 21.57)">
        <rect id="Rectángulo_401104" data-name="Rectángulo 401104" width="39.638" height="40.116" transform="translate(0)" fill="#d35560"/>
      </g>
    </g>
    <g id="Grupo_1180407" data-name="Grupo 1180407" transform="translate(349.697 9364.07)">
      <path id="Trazado_1021514" data-name="Trazado 1021514" d="M473.59,124.05h3.11v7.027h-3.11Z" transform="translate(-369.553 -30.36)" fill="#039be5"/>
      <path id="Trazado_1021515" data-name="Trazado 1021515" d="M444.91,293.12l-3.37,5.837-3.371-5.837Z" transform="translate(-335.949 -190.763)" fill="#039be5"/>
      <path id="Trazado_1021516" data-name="Trazado 1021516" d="M216.2,598.661V612.3l-14.682-6.976V598.56l10.749,4.959.019.009.019.009.012.005.03.012.015.006.032.011.012,0,.033.009.011,0,.028.006.022,0h.014l.033,0a.26.26,0,0,1,.04,0h.047a.82.82,0,0,0,.7-.383Z" transform="translate(-111.43 -480.545)" fill="#ff8f00"/>
      <path id="Trazado_1021517" data-name="Trazado 1021517" d="M146.815,421.451l-3.5,5.558L128.77,419.7l3.225-5.293Z" transform="translate(-42.409 -305.835)" fill="#ff8f00"/>
      <path id="Trazado_1021518" data-name="Trazado 1021518" d="M545.009,419.561,530.542,427l-3.492-5.552,14.82-7.041Z" transform="translate(-420.273 -305.835)" fill="#ff8f00"/>
      <path id="Trazado_1021519" data-name="Trazado 1021519" d="M534.6,587.45v7.336l-14.681,6.976V588.121l2.871,4.562a.82.82,0,0,0,1.069.293Z" transform="translate(-413.508 -470.005)" fill="#ff8f00"/>
      <path id="Trazado_1021520" data-name="Trazado 1021520" d="M188.922,179.47v2.705h-1.6a.82.82,0,0,0-.82.8L176.363,187.8l-1.093-4.678,11.9-5.209,1.371,1.223Z" transform="translate(-86.526 -81.459)" fill="#ff8f00"/>
      <path id="Trazado_1021521" data-name="Trazado 1021521" d="M579.9,183.12l-1.093,4.678-10.143-4.819a.82.82,0,0,0-.82-.8h-1.6V179.47L568,177.91Z" transform="translate(-457.463 -81.459)" fill="#ff8f00"/>
      <path id="Trazado_1021522" data-name="Trazado 1021522" d="M251.639,310.111l-14.409,6.846-14.41-6.846,9.515-4.521,4.185,7.249a.82.82,0,0,0,1.42,0l4.185-7.249,1.179.564Z" transform="translate(-131.638 -202.593)" fill="#ff6f00"/>
      <g id="Grupo_1180405" data-name="Grupo 1180405" transform="translate(85.848 94.203)" opacity="0.5">
        <path id="Trazado_1021523" data-name="Trazado 1021523" d="M463.59,134.05h3.11v7.027h-3.11Z" transform="translate(-445.914 -134.05)" fill="#fff"/>
        <path id="Trazado_1021524" data-name="Trazado 1021524" d="M434.91,303.12l-3.37,5.837-3.37-5.837Z" transform="translate(-412.309 -294.453)" fill="#fff"/>
        <path id="Trazado_1021525" data-name="Trazado 1021525" d="M206.2,608.661V622.3l-14.682-6.976V608.56l10.749,4.959.019.009.019.009.012.005.03.012.015.006.032.011.012,0,.033.009.011,0,.028.006.022,0h.014l.033,0a.259.259,0,0,1,.04,0h.047a.82.82,0,0,0,.7-.383Z" transform="translate(-187.791 -584.236)" fill="#fff"/>
        <path id="Trazado_1021526" data-name="Trazado 1021526" d="M136.815,431.451l-3.5,5.558L118.77,429.7l3.225-5.293Z" transform="translate(-118.77 -409.526)" fill="#fff"/>
        <path id="Trazado_1021527" data-name="Trazado 1021527" d="M535.009,429.561,520.542,437l-3.492-5.552,14.82-7.041Z" transform="translate(-496.633 -409.526)" fill="#fff"/>
        <path id="Trazado_1021528" data-name="Trazado 1021528" d="M524.6,597.45v7.336l-14.681,6.976V598.121l2.871,4.562a.82.82,0,0,0,1.069.293Z" transform="translate(-489.869 -573.695)" fill="#fff"/>
        <path id="Trazado_1021529" data-name="Trazado 1021529" d="M178.922,189.47v2.705h-1.6a.82.82,0,0,0-.82.8L166.363,197.8l-1.093-4.678,11.9-5.209,1.371,1.223Z" transform="translate(-162.886 -185.149)" fill="#fff"/>
        <path id="Trazado_1021530" data-name="Trazado 1021530" d="M569.9,193.12l-1.093,4.678-10.143-4.819a.82.82,0,0,0-.82-.8h-1.6V189.47L558,187.91Z" transform="translate(-533.824 -185.149)" fill="#fff"/>
        <path id="Trazado_1021531" data-name="Trazado 1021531" d="M241.639,320.111l-14.409,6.846-14.41-6.846,9.515-4.521,4.185,7.249a.82.82,0,0,0,1.42,0l4.185-7.248,1.179.564Z" transform="translate(-207.999 -306.284)" fill="#fff"/>
      </g>
      <g id="Grupo_1180406" data-name="Grupo 1180406" transform="translate(84.069 92.05)">
        <path id="Trazado_1021532" data-name="Trazado 1021532" d="M443.228,167.3a.4.4,0,0,1-.005.055c0,.018-.006.036-.009.054a.443.443,0,0,1-.013.051c-.005.015-.01.035-.016.051s-.013.034-.02.051-.015.034-.024.051a.455.455,0,0,1-.023.041.027.027,0,0,1,0,.008l-.007.012a0,0,0,0,1,0,0c-.008.013-.017.026-.026.039s-.017.024-.027.036l0,0,0,.006-.012.014-.008.01,0,0-.019.021-.04.039-.007.006-.027.023-.006,0a.794.794,0,0,1-.118.078l-.023.012-.02.009a.814.814,0,0,1-.1.039.745.745,0,0,1-.082.022.807.807,0,0,1-.168.017h-.1l-.031,0h-.013c-.026,0-.051-.01-.077-.017l-.023-.007h-.005l-.025-.008-.031-.012-.055-.024c-.018-.009-.045-.023-.066-.036a.81.81,0,0,1-.124-.091l-.274-.244v2.705h1.64v-3.076C443.23,167.262,443.23,167.28,443.228,167.3Zm0,0a.4.4,0,0,1-.005.055c0,.018-.006.036-.009.054a.443.443,0,0,1-.013.051c-.005.015-.01.035-.016.051s-.013.034-.02.051-.015.034-.024.051a.455.455,0,0,1-.023.041.027.027,0,0,1,0,.008l-.007.012a0,0,0,0,1,0,0c-.008.013-.017.026-.026.039s-.017.024-.027.036l0,0,0,.006-.012.014-.008.01,0,0-.019.021-.04.039-.007.006-.027.023-.006,0a.794.794,0,0,1-.118.078l-.023.012-.02.009a.814.814,0,0,1-.1.039.745.745,0,0,1-.082.022.807.807,0,0,1-.168.017h-.1l-.031,0h-.013c-.026,0-.051-.01-.077-.017l-.023-.007h-.005l-.025-.008-.031-.012-.055-.024c-.018-.009-.045-.023-.066-.036a.81.81,0,0,1-.124-.091l-.274-.244v2.705h1.64v-3.076C443.23,167.262,443.23,167.28,443.228,167.3Zm3.386-.666a.817.817,0,0,0-.274.612v3.076h-3.11v-3.076a.82.82,0,0,0-.274-.615l-1.366-1.219v5.727a.82.82,0,0,0,.82.82h4.75a.82.82,0,0,0,.82-.82v-5.724Zm-3.386.666a.4.4,0,0,1-.005.055c0,.018-.006.036-.009.054a.443.443,0,0,1-.013.051c-.005.015-.01.035-.016.051s-.013.034-.02.051-.015.034-.024.051a.455.455,0,0,1-.023.041.027.027,0,0,1,0,.008l-.007.012a0,0,0,0,1,0,0c-.008.013-.017.026-.026.039s-.017.024-.027.036l0,0,0,.006-.012.014-.008.01,0,0-.019.021-.04.039-.007.006-.027.023-.006,0a.794.794,0,0,1-.118.078l-.023.012-.02.009a.814.814,0,0,1-.1.039.745.745,0,0,1-.082.022.807.807,0,0,1-.168.017h-.1l-.031,0h-.013c-.026,0-.051-.01-.077-.017l-.023-.007h-.005l-.025-.008-.031-.012-.055-.024c-.018-.009-.045-.023-.066-.036a.81.81,0,0,1-.124-.091l-.274-.244v2.705h1.64v-3.076C443.23,167.262,443.23,167.28,443.228,167.3Zm0,0a.4.4,0,0,1-.005.055c0,.018-.006.036-.009.054a.443.443,0,0,1-.013.051c-.005.015-.01.035-.016.051s-.013.034-.02.051-.015.034-.024.051a.455.455,0,0,1-.023.041.027.027,0,0,1,0,.008l-.007.012a0,0,0,0,1,0,0c-.008.013-.017.026-.026.039s-.017.024-.027.036l0,0,0,.006-.012.014-.008.01,0,0-.019.021-.04.039-.007.006-.027.023-.006,0a.794.794,0,0,1-.118.078l-.023.012-.02.009a.814.814,0,0,1-.1.039.745.745,0,0,1-.082.022.807.807,0,0,1-.168.017h-.1l-.031,0h-.013c-.026,0-.051-.01-.077-.017l-.023-.007h-.005l-.025-.008-.031-.012-.055-.024c-.018-.009-.045-.023-.066-.036a.81.81,0,0,1-.124-.091l-.274-.244v2.705h1.64v-3.076C443.23,167.262,443.23,167.28,443.228,167.3Z" transform="translate(-423.263 -161.649)" fill="#413b32"/>
        <path id="Trazado_1021533" data-name="Trazado 1021533" d="M447.98,92.87v2.942l-1.366,1.219a.817.817,0,0,0-.274.612V93.69h-3.11v3.954a.82.82,0,0,0-.274-.615l-1.366-1.219V92.87a.82.82,0,0,1,.82-.82h4.75A.82.82,0,0,1,447.98,92.87Z" transform="translate(-423.263 -92.05)" fill="#413b32"/>
        <path id="Trazado_1021534" data-name="Trazado 1021534" d="M405.678,261.923a.82.82,0,0,0-.82-.8h-9.581a.82.82,0,0,0-.71,1.23l.605,1.049,4.186,7.25a.82.82,0,0,0,1.42,0l4.185-7.248.606-1.049a.816.816,0,0,0,.11-.427Zm-5.611,6.675L396.7,262.76h6.74Z" transform="translate(-378.545 -252.453)" fill="#413b32"/>
        <path id="Trazado_1021535" data-name="Trazado 1021535" d="M187.482,387.645v17.785a.817.817,0,0,1-.469.741l-.026.012-.031.013-.019.007a.677.677,0,0,1-.094.027l-.055.01h-.02l-.039,0H186.6l-.04,0h-.017l-.033-.006-.022,0-.051-.012-.051-.016-.014-.005-.031-.012-.029-.013-16.32-7.757a.82.82,0,0,1-.469-.741v-8.566a.82.82,0,0,1,1.64,0v8.048l14.682,6.976V388.163l-.365-.174-14.82-7.041-.648-.308h0l-.015-.007-.01,0-.008,0h0l-.006,0-.006,0h0l0,0-.007,0-.005,0-.007,0-.012-.008h0l-.008-.005-.01-.006-.01-.006-.014-.01-.006,0h0l0,0,0,0-.01-.008-.012-.009-.013-.011-.032-.028-.008-.008-.006-.006-.024-.025,0,0,0,0-.013-.015-.015-.019c-.012-.015-.023-.03-.033-.045l-.008-.011,0-.008,0-.007-.006-.009h0l-.014-.025-.01-.018-.008-.015,0-.007a.032.032,0,0,1,0-.009v0l-.009-.017c0-.005,0-.01-.006-.014s-.01-.025-.015-.037a.013.013,0,0,0,0,0v0l0-.013a.061.061,0,0,0-.005-.015l-.005-.017,0-.012v0a.049.049,0,0,1,0-.008v0a.031.031,0,0,0,0-.016V380.1a.058.058,0,0,0,0-.009v-.008c0-.018-.007-.037-.009-.055l0-.029v-.1a.07.07,0,0,1,0-.01v-.01a.052.052,0,0,1,0-.012.012.012,0,0,1,0,0,.062.062,0,0,1,0-.01.022.022,0,0,1,0-.008c0-.006,0-.012,0-.018v0a.029.029,0,0,0,0-.007.053.053,0,0,1,0-.008.006.006,0,0,1,0,0s0,0,0-.005,0-.013,0-.019v-.007a0,0,0,0,1,0,0v0h0a.026.026,0,0,1,0-.007.012.012,0,0,1,0,0,.072.072,0,0,1,0-.01.052.052,0,0,1,0-.009v0a.024.024,0,0,1,0-.008.052.052,0,0,1,0-.009.075.075,0,0,1,0-.009c0-.017.01-.034.016-.051a.071.071,0,0,1,.009-.023.161.161,0,0,1,.012-.029c0-.007.006-.013.009-.02l.007-.012,0-.008,0-.006s0,0,0-.005l.005-.009,0-.008.006-.01,0-.006s0-.008.007-.012l.008-.012.006-.009.01-.014.006-.009a.3.3,0,0,1,.023-.03l.014-.018.01-.012.008-.009.006-.007.012-.013.011-.011,0,0,.006-.006,0,0h0l.01-.009.008-.008.015-.013.011-.009.008-.007.026-.02.006,0,0,0,0,0,0,0,0,0,.021-.013.01-.007h0l.016-.009.005,0h.013l.01-.005.012-.006.007,0,.022-.01.006,0,.006,0,.04-.016h0l.043-.014.015,0,.033-.008.023-.005.035-.006.016,0,.048-.005h.063a.82.82,0,0,1,.352.079l1.559.741,14.41,6.846.352.167.043.023.028.016.012.007.03.019a.817.817,0,0,1,.066.051l.022.019.026.025.022.023c.007.008.025.028.037.043s.015.019.022.029.019.027.028.041a.75.75,0,0,1,.051.093c.007.013.012.027.018.04s.011.03.016.045l.012.037c.006.022.012.043.016.065s.007.033.009.051.02.031.029.047Z" transform="translate(-165.14 -364.423)" fill="#413b32"/>
        <path id="Trazado_1021536" data-name="Trazado 1021536" d="M489.56,402.84l14.681-6.976v-8.048a.82.82,0,0,1,1.631-.128.871.871,0,0,1,.01.128v8.566a.82.82,0,0,1-.468.741l-16.322,7.755-.026.012-.031.013-.019.007a.673.673,0,0,1-.094.027l-.055.01h-.02l-.039,0h-.131l-.04,0h-.017l-.033-.006-.022,0-.051-.012-.051-.016-.014-.005-.031-.012-.029-.013a.817.817,0,0,1-.466-.738V386.3a.421.421,0,0,1,.006-.056c0-.019.005-.034.009-.051l0-.015c0-.013.006-.026.01-.038a.068.068,0,0,1,0-.01c0-.01.006-.019.009-.029l.008-.024,0-.009c.006-.016.013-.032.02-.047a.235.235,0,0,1,.012-.026.732.732,0,0,1,.046-.081c.009-.014.018-.028.028-.041l.031-.039a.631.631,0,0,1,.051-.055l.028-.027.012-.01.027-.023a.753.753,0,0,1,.094-.066l.025-.014.043-.023.352-.167,14.409-6.845,1.559-.741a.82.82,0,0,1,.352-.079h.057l.051.006.016,0,.036.007.02,0,.038.01.011,0,.04.013.014.005.033.013h.011l.008,0,.006,0,.006,0,.007,0,.011.005.008,0h.01l.014.009.012.007h0l.007,0,.012.008h.006l.008.006,0,0,.008.005.006,0,.009.007h0l0,0,0,0,.005,0,.006,0,0,0h0l0,0h0l.009.008,0,0,.007.006.008.009.005,0,0,0,.006.006.01.01,0,0,0,0,0,0,.009.01a.005.005,0,0,1,0,0v0h0l0,0,0,0,0,.005,0,0,.01.013,0,0h0l.008.01.006.008,0,.006.007.011v0l0,0a.008.008,0,0,1,0,0h0l0,0,0,0v0l0,.006v0l.006.011.006.011,0,.008a.01.01,0,0,1,0,0l.008.015.007.014v0l0,.006h0l0,.01a0,0,0,0,1,0,0h0v.009a.04.04,0,0,1,0,.007v0a.114.114,0,0,0,.006.014l0,.007h0v0a.035.035,0,0,1,0,.01h0a.015.015,0,0,0,0,.009.077.077,0,0,1,0,.014.073.073,0,0,0,.006.02v.007a.187.187,0,0,1,.006.024h0a.1.1,0,0,1,0,.012.02.02,0,0,1,0,.008h0a.041.041,0,0,1,0,.007l0,.026v0a.04.04,0,0,1,0,.011.07.07,0,0,1,0,.014.155.155,0,0,0,0,.031.015.015,0,0,1,0,0,.141.141,0,0,1,0,.014v.006a.048.048,0,0,1,0,.012.046.046,0,0,1,0,.008v.007a.058.058,0,0,1,0,.009v.042a.131.131,0,0,1,0,.014v.006a.026.026,0,0,1,0,.006v0h0v0a.022.022,0,0,0,0,.006v.011a.009.009,0,0,1,0,0v0a.015.015,0,0,1,0,0v0a.018.018,0,0,1,0,.005,0,0,0,0,1,0,0,0,0,0,0,1,0,0q0,.023-.008.045h0a.035.035,0,0,1,0,.016.178.178,0,0,1,0,.017h0a.007.007,0,0,0,0,0,.012.012,0,0,0,0,0v0a.03.03,0,0,1,0,.006.055.055,0,0,1-.006.018l0,.011v0a.025.025,0,0,1,0,.007h0a.18.18,0,0,1,0,.007h0l0,.006v.006a.015.015,0,0,1,0,.007.015.015,0,0,1,0,.005h0l0,.009h0v0h0a.024.024,0,0,1,0,.005h0l0,.008a.015.015,0,0,1,0,.005.01.01,0,0,1,0,.008l0,0v0a.012.012,0,0,1,0,.005l0,.006a.03.03,0,0,0,0,0v0l0,.008-.012.02-.016.025a.008.008,0,0,1,0,0l-.006.008,0,0-.008.011h0l0,.005v0l0,.006,0,0-.009.011h0l0,0,0,0,0,0,0,.006-.006.006,0,.005,0,0h0l-.006.006,0,0-.007.007-.015.014,0,0-.02.017,0,0h0l0,0-.005,0,0,0h0l-.007.006-.011.008-.007,0-.011.008,0,0,0,0-.007,0,0,0h0l0,0-.008,0-.01.006-.009.005-.01.006-.007,0-.007,0h0l0,0h-.005l-.011.005-.01,0-.007,0-.005,0-.009,0h-.005l-.628.3L489.926,386.7l-.366.174Z" transform="translate(-467.218 -363.133)" fill="#413b32"/>
        <path id="Trazado_1021537" data-name="Trazado 1021537" d="M590.67,275.346v.082h0v0a.029.029,0,0,0,0,.006v.011a.009.009,0,0,1,0,0,.04.04,0,0,1,0,.008v0a.018.018,0,0,1,0,.005,0,0,0,0,1,0,0,0,0,0,0,1,0,0v.005a.255.255,0,0,1-.007.039h0c0,.011-.005.023-.008.034v.005a.012.012,0,0,0,0,0v0a.034.034,0,0,1,0,.006.055.055,0,0,1-.006.018h0l0,.011a.081.081,0,0,1-.005.016.007.007,0,0,1,0,0,.007.007,0,0,0,0,0,0,0,0,0,1,0,0,.034.034,0,0,1,0,.009.015.015,0,0,1,0,.007h0a.014.014,0,0,1,0,.005h0a.035.035,0,0,1,0,.009h0a.029.029,0,0,1,0,.006h0l-.005.01a.018.018,0,0,0,0,.005v.009l0,.008,0,0h0a.024.024,0,0,1,0,.005l0,.006a.009.009,0,0,1,0,.007l-.015.027v0l0,0-.016.025-.006.008,0,0-.008.011h0l0,.005v0l0,.006,0,0-.01.013,0,0,0,0-.006.007-.006.007-.014.015h0l-.006.006,0,0-.007.007-.015.014,0,0-.015.014-.007.005,0,0-.005,0,0,0h0l-.007.006,0,0-.013.009-.011.008h0l0,0h-.007l0,0h0l0,0-.007.005-.01.006-.009.005-.015.009-.01,0h-.013l-.01.006h0l-.01,0-.007,0-.005,0-.009,0h-.005l-.007,0-.036.013-.006,0H590.2l-.043.013-.025.006-.012,0a.226.226,0,0,0-.031.006l-.02,0h-.014l-.051.006H589.8l-.041,0h-.049l-.027-.005-.025-.006h-.017l-.024-.007-.009,0h0l-.014,0-.008,0h0l-.008,0-.017-.006h0l-.033-.014h0l-.007,0-.007,0-1.56-.653L579.6,271.4l-1.179-.564-.166-.079-.518-.246-.054-.028a.754.754,0,0,1-.1-.066h0l-.036-.03,0,0,0,0-.011-.011-.021-.021-.019-.02-.007-.007-.007-.009-.022-.026a.822.822,0,0,1-.071-.1l-.008-.013,0-.007-.013-.026-.007-.015-.015-.033a.009.009,0,0,0,0,0,.386.386,0,0,1-.015-.037.026.026,0,0,1,0-.006c0-.013-.009-.027-.013-.04a.018.018,0,0,0,0,0l0-.017c0-.009,0-.018-.007-.027a.02.02,0,0,1,0-.008.068.068,0,0,1,0-.014.146.146,0,0,1,0-.021V269.9a.05.05,0,0,0,0-.02v-.016a.087.087,0,0,0,0-.011v-.2a.232.232,0,0,1,.009-.051.108.108,0,0,1,.007-.028l0-.018a.1.1,0,0,1,0-.01l0-.009a.054.054,0,0,1,.005-.017c0-.006,0-.011.005-.016a.9.9,0,0,1,.035-.086c.008-.016.016-.032.025-.047s.013-.024.021-.035l.007-.012a.412.412,0,0,1,.024-.035s0-.007.007-.01l.024-.03.012-.014a.24.24,0,0,1,.022-.025.094.094,0,0,1,.014-.014c.008-.009.017-.017.026-.026l.009-.008.031-.027.04-.031a.88.88,0,0,1,.1-.06.853.853,0,0,1,.1-.046c.016-.006.033-.011.051-.016h.006l.047-.012h.012l.048-.008h.011l.045,0h0a.813.813,0,0,1,.41.077l.7.331,10.143,4.819.889.423h0l.008,0,.051.024h0a.819.819,0,0,1,.144.1l.043.038.035.036.009.01.032.04.005.007.025.035v0l0,0a.007.007,0,0,1,0,0h0l0,.007.006.01.015.025.006.011,0,.008a.009.009,0,0,1,0,0l.008.015.007.014v0l0,.006s0,.008.006.013,0,0,0,0,0,.006,0,.009,0,.006,0,.01,0,0,0,0a.116.116,0,0,0,.006.014l0,.007h0a.054.054,0,0,0,0,.008.035.035,0,0,1,0,.01l0,.011a.079.079,0,0,1,0,.014.072.072,0,0,0,.006.02v.007a.182.182,0,0,1,.006.024h0a.166.166,0,0,0,0,.022l.005.03a.283.283,0,0,0,0,.03.163.163,0,0,0,0,.031c0,.01,0,.013,0,.019v.006a.048.048,0,0,1,0,.012c.013.018.013.023.013.028Z" transform="translate(-552.006 -259.889)" fill="#413b32"/>
        <path id="Trazado_1021538" data-name="Trazado 1021538" d="M183.318,270.189a.835.835,0,0,1-.24.172l-.683.325-9.515,4.521-1.559.741a.854.854,0,0,1-.085.034.781.781,0,0,1-.177.039.742.742,0,0,1-.089.005h-.059a.32.32,0,0,1-.051-.006l-.034-.005-.035-.007L170.76,276a.764.764,0,0,1-.119-.043h-.007l-.015-.007-.028-.014-.024-.013-.005,0-.026-.016-.021-.013-.007,0-.025-.017,0,0,0,0-.01-.008-.012-.009-.013-.011-.025-.022-.006-.006-.009-.009-.006-.005-.016-.017-.008-.008,0,0-.006-.007-.006-.007-.013-.015-.009-.011-.01-.013-.012-.016-.011-.015-.008-.011-.009-.014-.006-.009a.275.275,0,0,1-.015-.027.124.124,0,0,1-.01-.018l-.008-.015-.007-.015v0c-.005-.01-.01-.021-.014-.032l0-.011a.009.009,0,0,0,0,0l-.009-.024v-.007a.019.019,0,0,1,0,0,.057.057,0,0,0,0-.011s0-.01-.005-.015a.039.039,0,0,1,0-.008l0-.009v-.016a.049.049,0,0,1,0-.008.157.157,0,0,1-.005-.021v-.011a0,0,0,0,0,0,0v-.016a.126.126,0,0,0,0-.024.008.008,0,0,0,0,0,.052.052,0,0,0,0-.019l0-.029c0-.024,0-.048,0-.073v-.028a.012.012,0,0,1,0-.006.251.251,0,0,1,0-.051.117.117,0,0,1,0-.018l0-.022a.212.212,0,0,1,.006-.034.159.159,0,0,1,0-.023.433.433,0,0,1,.012-.051.056.056,0,0,1,0-.012c0-.013.008-.026.013-.038l.007-.018a.051.051,0,0,1,.008-.019.024.024,0,0,1,0-.008l.008-.019a.185.185,0,0,1,.01-.021l0-.008,0-.006.014-.026.031-.051a.918.918,0,0,1,.072-.093l.04-.042a.832.832,0,0,1,.129-.1h.007l.015-.009.03-.017a.052.052,0,0,1,.015-.008h0l.015-.007.022-.01.006,0,.006,0,.889-.423,10.143-4.819.666-.345a.82.82,0,0,1,1.092.389c.013.028.025.057.035.086A.82.82,0,0,1,183.318,270.189Z" transform="translate(-165.768 -259.74)" fill="#413b32"/>
        <path id="Trazado_1021539" data-name="Trazado 1021539" d="M106.4,386.239a.282.282,0,0,0-.009-.051c0-.018-.01-.043-.016-.065s-.008-.025-.012-.037l-.016-.045a.408.408,0,0,0-.018-.04.75.75,0,0,0-.051-.093c-.009-.014-.018-.028-.028-.041l-.022-.029c-.008-.009-.024-.029-.037-.043l-.022-.023-.026-.025-.022-.019a.81.81,0,0,0-.066-.051l-.03-.019-.012-.007-.028-.016-.043-.023-.352-.167L91.182,378.6l-1.559-.741a.82.82,0,0,0-.352-.079h-.063a.308.308,0,0,0-.048.005l-.016,0-.035.006-.023.005a.132.132,0,0,0-.033.008l-.015,0-.043.014h0l-.04.016-.006,0-.006,0-.022.01-.007,0-.012.006-.01.005h-.01l-.005,0-.01.006-.006,0h-.006l-.01.007-.021.013-.006,0-.005,0,0,0-.006,0-.026.02-.008.007-.014.013-.013.011-.006.006-.01.009h0l0,0-.01.01-.011.011-.012.013-.006.007,0,0,0,0-.01.012a.141.141,0,0,0-.014.018.3.3,0,0,0-.023.03l-.006.009-.01.014-.006.009-.008.012s-.005.008-.007.012l0,.006-.19.3-3.9,6.4-.308.508a.82.82,0,0,0,.359,1.172l3.907,1.8,1.64.757,10.749,4.959.019.009.019.009.012.005.03.012.015.006.032.011.012,0,.033.009.011,0,.028.006.022,0h.014l.033,0a.263.263,0,0,1,.04,0h.047a.82.82,0,0,0,.7-.383l2.871-4.562.82-1.3.694-1.1a.82.82,0,0,0,.126-.437.794.794,0,0,0-.014-.109Zm-5.494,6.018-.013.021-14.832-6.842.295-.484,3.225-5.293,14.821,7.041Z" transform="translate(-84.069 -363.133)" fill="#413b32"/>
        <path id="Trazado_1021540" data-name="Trazado 1021540" d="M112.12,386.239a.283.283,0,0,0-.009-.051c0-.018-.01-.043-.016-.065s-.008-.025-.012-.037l-.016-.045a.406.406,0,0,0-.018-.04.751.751,0,0,0-.051-.093c-.009-.014-.018-.028-.028-.041l-.022-.029c-.008-.009-.024-.029-.037-.043l-.022-.023-.026-.025-.022-.019a.808.808,0,0,0-.066-.051l-.03-.019-.012-.007-.028-.016-.043-.023-.352-.167L96.9,378.6l-1.559-.741a.82.82,0,0,0-.352-.079h-.063a.308.308,0,0,0-.048.005l-.016,0-.035.006-.023.005a.132.132,0,0,0-.033.008l-.015,0-.043.014h0l-.04.016-.006,0-.006,0-.022.01-.007,0-.012.006-.01.005h-.01l-.005,0-.01.006-.006,0h-.006l-.01.007-.021.013-.006,0-.005,0,0,0-.006,0-.026.02-.008.007-.014.013-.013.011-.006.006-.01.009h0l0,0-.01.01-.011.011-.012.013-.006.007,0,0,0,0-.01.012a.141.141,0,0,0-.014.018.3.3,0,0,0-.023.03l-.006.009-.01.014-.006.009-.008.012s-.005.008-.007.012l0,.006-.19.3-3.9,6.4a.82.82,0,0,0,.334,1.157l3.621,1.818,1.64.824,10.749,5.4.019.009.019.009.012.005.03.012.015.006.032.011.012,0,.033.009.011,0,.028.006.022,0h.014l.033,0a.263.263,0,0,1,.04,0h.047a.82.82,0,0,0,.7-.383l2.871-4.562.82-1.3.694-1.1a.82.82,0,0,0,.126-.437A.794.794,0,0,0,112.12,386.239Zm-5.494,6.018-14.549-7.306,3.225-5.293,14.82,7.041Z" transform="translate(-89.786 -363.133)" fill="#413b32"/>
        <path id="Trazado_1021541" data-name="Trazado 1021541" d="M157.737,146.128v.054s0,.036-.005.055-.006.036-.009.054a.44.44,0,0,1-.013.051c-.005.015-.01.035-.016.051s-.013.034-.02.051l-.024.051a.459.459,0,0,1-.023.041.026.026,0,0,1,0,.008l-.007.012a0,0,0,0,1,0,0c-.008.013-.017.026-.026.039s-.017.024-.027.036l0,0,0,.006-.012.014-.008.01,0,0-.019.021-.04.039-.007.006-.027.023-.006,0a.8.8,0,0,1-.118.078l-.023.012-.019.009a.815.815,0,0,1-.1.039.745.745,0,0,1-.082.022.808.808,0,0,1-.168.017h-.1l-.031,0h-.015c-.026,0-.051-.011-.077-.017l-.023-.007h-.005l-.025-.008-.031-.012c-.018-.007-.037-.015-.055-.024s-.045-.023-.066-.036a.813.813,0,0,1-.124-.091l-.274-.244-.378-.337-1.371-1.223-11.9,5.206,1.093,4.678L153.682,150l.694-.33.042-.019a.835.835,0,0,1,.265-.059.692.692,0,0,1,.08,0h.039l.032,0,.022,0h0l.022,0,.023,0h.009l.026.006h.008l.027.008h.006l.028.009.036.014.029.012.018.009.045.024a.258.258,0,0,1,.032.019l.031.021.016.011.031.024.026.022.008.007.025.024.028.029.017.019.016.02.014.017.033.046a.457.457,0,0,1,.026.043l0,0a.534.534,0,0,1,.027.051c.013.028.025.057.035.086s.009.028.013.043v.005c0,.013.007.027.01.04a.863.863,0,0,1,.015.089c0,.013,0,.027,0,.04v.107a.1.1,0,0,1,0,.028.286.286,0,0,1-.007.051c0,.017,0,.021-.006.03s-.006.027-.01.04a.016.016,0,0,1,0,.009c0,.013-.007.027-.011.039s-.009.025-.013.036l-.016.039-.012.026a.107.107,0,0,1-.008.013q-.015.031-.034.062l-.029.045v0c-.01.014-.021.028-.031.041l0,0h0l-.037.042-.018.018-.019.018a.677.677,0,0,1-.073.059l-.03.021-.009.006-.006,0-.025.015-.006,0-.051.028-.683.325L144.882,156l-1.559.741a.862.862,0,0,1-.085.034l-.033.01-.027.008-.01,0-.027.007-.033.006-.045.006a.736.736,0,0,1-.089.005h-.059a.32.32,0,0,1-.051-.006l-.034-.005-.035-.007-.032-.008a.761.761,0,0,1-.119-.043h0l-.015-.007-.011-.006-.016-.008-.011-.006,0,0-.007,0-.005,0-.007,0-.012-.008-.021-.013-.01-.006-.014-.01-.006,0h0l0,0,0,0-.01-.008-.012-.009-.013-.011-.032-.028-.008-.008-.006-.006-.006-.006-.011-.011-.012-.012,0,0-.013-.015-.015-.019c-.012-.015-.023-.03-.033-.045l-.012-.018,0-.007-.006-.009h0l-.014-.025-.01-.018-.008-.015,0-.007a.031.031,0,0,1,0-.009h0l-.01-.02a.068.068,0,0,1-.006-.014s-.01-.025-.015-.037a.027.027,0,0,0,0-.006v0l0-.013a.06.06,0,0,0-.005-.015l-.005-.017,0-.012a.006.006,0,0,1,0,0,.049.049,0,0,1,0-.008v0a.031.031,0,0,0,0-.016V156.2a.062.062,0,0,0,0-.009l-.072-.308-1.438-6.029a.808.808,0,0,1-.02-.234V149.6a.614.614,0,0,1,.012-.087.092.092,0,0,1,0-.02.7.7,0,0,1,.024-.085c0-.009.006-.018.01-.027l.011-.027a.612.612,0,0,1,.026-.056l.012-.024c.009-.017.019-.033.03-.051l.013-.02a.323.323,0,0,1,.02-.028l.018-.023.019-.023.02-.022.02-.021a.544.544,0,0,1,.044-.04l.023-.019.024-.018.025-.017.025-.016a.676.676,0,0,1,.08-.045h0l.025-.011.021-.009,12.978-5.68h0l.029-.012a.785.785,0,0,1,.18-.051.759.759,0,0,1,.076-.008.693.693,0,0,1,.086,0h.022a.118.118,0,0,1,.033,0h.02l.057.01.022,0,.044.012.021.007a.759.759,0,0,1,.075.029l.021.009a.814.814,0,0,1,.135.08l.031.024.029.025,1.049.936,1.366,1.219A.82.82,0,0,1,157.737,146.128Z" transform="translate(-137.77 -140.534)" fill="#413b32"/>
        <path id="Trazado_1021542" data-name="Trazado 1021542" d="M398.531,146.195v.054s0,.036-.005.055-.006.036-.009.054a.437.437,0,0,1-.013.051c-.005.015-.01.035-.016.051s-.013.034-.02.051l-.024.051a.455.455,0,0,1-.023.041.027.027,0,0,1,0,.008l-.008.012a0,0,0,0,1,0,0c-.008.013-.017.026-.026.039s-.017.024-.027.036l0,0-.005.006-.012.014-.008.01,0,0-.019.021-.04.039-.007.006-.027.023-.006,0a.794.794,0,0,1-.118.078l-.023.012-.019.009a.815.815,0,0,1-.1.039.745.745,0,0,1-.082.022.808.808,0,0,1-.168.017h-.1l-.031,0h-.014c-.026,0-.051-.011-.077-.017l-.023-.007h-.005l-.025-.008-.031-.012-.055-.024c-.018-.009-.045-.023-.066-.036a.811.811,0,0,1-.124-.091l-.274-.244-.378-.337-1.371-1.223-.393-.35a.82.82,0,0,1-.066-1.158.812.812,0,0,1,.272-.2h0l.029-.012a.786.786,0,0,1,.18-.051.756.756,0,0,1,.076-.008.687.687,0,0,1,.086,0h.022a.119.119,0,0,1,.033,0h.02l.057.01.022,0,.044.012.021.007a.754.754,0,0,1,.075.029l.02.009a.677.677,0,0,1,.074.039c.023.014.042.027.062.041l.031.024.029.025,1.049.936,1.366,1.219A.82.82,0,0,1,398.531,146.195Z" transform="translate(-378.564 -140.6)" fill="#413b32"/>
        <path id="Trazado_1021543" data-name="Trazado 1021543" d="M155.478,256.107a.7.7,0,0,1-.051.1.723.723,0,0,1-.066.092h0l-.037.042a.5.5,0,0,1-.038.036.677.677,0,0,1-.073.059l-.03.021-.009.006-.031.018a.6.6,0,0,1-.059.032l-.683.325-9.518,4.521-1.559.741a.862.862,0,0,1-.085.034.787.787,0,0,1-.132.033l-.045.006a.736.736,0,0,1-.089.005h-.059a.32.32,0,0,1-.051-.006l-.034-.005-.035-.007-.032-.008a.761.761,0,0,1-.119-.043h0l-.015-.007-.012-.006-.016-.008-.016-.009-.007,0-.005,0-.007,0-.012-.008h0l-.008-.005-.019-.012-.014-.01-.006,0-.005,0,0,0,0,0-.01-.008-.012-.009-.013-.011-.032-.028-.008-.008-.006-.006-.006-.006-.011-.011-.012-.013,0,0-.006-.007-.022-.027a.683.683,0,0,1-.046-.064l0-.007-.006-.009a.278.278,0,0,1-.015-.027.124.124,0,0,1-.01-.018l-.008-.015,0-.007a.031.031,0,0,1,0-.009l-.01-.022c0-.005,0-.01-.006-.014s-.01-.025-.015-.037v-.008l0-.013a.06.06,0,0,0-.005-.015.039.039,0,0,1,0-.008l0-.009,0-.012a.016.016,0,0,1,0,0,.046.046,0,0,1,0-.008.156.156,0,0,1-.005-.021v-.013a0,0,0,0,0,0,0l-.072-.308-1.434-6.023a.808.808,0,0,1-.02-.234v-.023a.614.614,0,0,1,.012-.087.092.092,0,0,1,0-.02.7.7,0,0,1,.024-.085c0-.009.006-.018.01-.027l.011-.027a.612.612,0,0,1,.026-.056l.012-.024c.009-.017.019-.033.03-.051l.013-.02a.325.325,0,0,1,.02-.028l.018-.023.019-.023.02-.022.02-.021a.544.544,0,0,1,.044-.04l.023-.019.024-.018.025-.017.025-.016a.678.678,0,0,1,.08-.045h0l.025-.011.021-.009a.8.8,0,0,1,.121-.038.82.82,0,0,1,.985.613l.154.666,1.093,4.678,10.143-4.819.7-.332a.816.816,0,0,1,.387-.078h.034l.037,0,.022,0,.026,0,.023,0h.009a.127.127,0,0,1,.033.008l.033.01.028.009.036.014.029.012.018.009.045.024a.256.256,0,0,1,.032.019l.031.021a.514.514,0,0,1,.047.035l.026.022.008.007.025.024a.364.364,0,0,1,.028.029l.017.019.016.02.014.017.033.046a.453.453,0,0,1,.026.043.018.018,0,0,1,0,.007.536.536,0,0,1,.027.051c.013.028.025.057.035.086a.685.685,0,0,1,.025.088.669.669,0,0,1,.015.089A.808.808,0,0,1,155.478,256.107Z" transform="translate(-137.77 -245.895)" fill="#413b32"/>
        <path id="Trazado_1021544" data-name="Trazado 1021544" d="M551.294,149.834l-1.4,6.005-.071.308h0a.035.035,0,0,1,0,.016.17.17,0,0,1,0,.017h0a.007.007,0,0,0,0,0,.015.015,0,0,0,0,0v0a.026.026,0,0,1,0,.006.064.064,0,0,1,0,.014.018.018,0,0,1,0,.005l0,.011a0,0,0,0,1,0,0l0,.007h0a.007.007,0,0,1,0,0,.007.007,0,0,1,0,0h0l0,.006v.006a.017.017,0,0,0,0,.012h0l0,.009h0v0h0a.024.024,0,0,1,0,.005h0l0,.008v0a.01.01,0,0,1,0,.008l0,0v0a.015.015,0,0,1,0,.005l0,.006s0,0,0,0v0l0,.008-.012.021-.016.025-.006.008,0,0-.008.011h0l0,.005v0l0,.006,0,0-.009.011-.011.013-.011.012,0,.005,0,.005h0l-.006.006,0,0-.007.007-.015.014,0,0-.022.019,0,0-.005,0,0,0h0l-.007.006-.011.008-.007,0-.011.008,0,0,0,0-.007,0,0,0h0l0,0-.008,0-.01.006-.009.005-.01.006-.007,0-.007,0h-.01l-.011.005-.01,0-.007,0-.005,0-.009,0h-.005l-.007,0-.036.013-.006,0h-.008l-.043.013h-.009l-.016,0-.012,0a.225.225,0,0,0-.031.006l-.019,0h-.014l-.051.006h-.218l-.041,0h-.049l-.027-.005-.025-.006h-.017l-.024-.007-.009,0h0l-.014,0-.008,0h-.012l-.017-.006h0l-.033-.014h0l-.007,0-.018-.009-1.549-.631-8.333-3.959-1.179-.564-.166-.079-.518-.246-.054-.028a.755.755,0,0,1-.1-.066l-.036-.03,0,0,0,0-.011-.011-.021-.02-.026-.027-.007-.009-.022-.026a.824.824,0,0,1-.071-.1l-.008-.013,0-.007-.013-.026-.007-.015-.015-.033a.007.007,0,0,0,0,0q-.008-.018-.015-.037v0a.435.435,0,0,1-.014-.044.012.012,0,0,0,0,0l0-.017a.3.3,0,0,1-.008-.029v-.006a.071.071,0,0,1,0-.014v-.01c0-.012,0-.024-.006-.036v-.016a.087.087,0,0,0,0-.011v-.036a.046.046,0,0,1,0-.008v-.157a.23.23,0,0,1,.009-.051c0-.015,0-.019.007-.028l0-.018a.1.1,0,0,1,0-.01v-.009a.054.054,0,0,1,.005-.017c0-.006,0-.011.005-.016a.894.894,0,0,1,.035-.086c.008-.016.016-.032.025-.047s.013-.024.021-.035l.007-.012q.011-.018.024-.035s0-.007.007-.01l.024-.03.012-.014a.239.239,0,0,1,.022-.025.092.092,0,0,1,.014-.014c.008-.009.017-.017.026-.026l.009-.008.031-.027.04-.031a.752.752,0,0,1,.1-.06.745.745,0,0,1,.1-.046c.016-.006.033-.011.051-.016h.006l.019-.005.028-.007h.012l.048-.008h.011l.045,0h0a.8.8,0,0,1,.235.017.856.856,0,0,1,.088.025.9.9,0,0,1,.086.035l.7.331,10.143,4.819,1.093-4.678-11.908-5.219-1.749,1.56-.274.245a.82.82,0,0,1-1.092-1.224l1.366-1.219,1.049-.936a.82.82,0,0,1,.875-.139l13.01,5.694a.82.82,0,0,1,.47.938Z" transform="translate(-511.172 -140.515)" fill="#413b32"/>
        <path id="Trazado_1021545" data-name="Trazado 1021545" d="M509.754,385.9l-3.808-6.25-.166-.272v0l0-.006v-.006l0,0,0,0h0a.008.008,0,0,0,0,0l0,0v0l-.007-.011,0-.006-.006-.008-.008-.01,0,0-.01-.013,0,0,0-.005,0,0,0,0h0v0a.005.005,0,0,0,0,0l-.009-.01,0,0,0,0,0,0-.01-.01-.006-.006,0,0-.005,0-.008-.009-.011-.009-.009-.008h0l0,0h0l0,0-.006,0-.005,0,0,0,0,0h0l-.009-.007-.006,0-.008-.005,0,0-.008-.006h-.006l-.012-.008-.007,0h0l-.012-.007-.014-.009h-.01l-.025-.012-.007,0-.006,0-.006,0h-.006l0,0h-.011l-.033-.013-.014-.005-.04-.013-.011,0-.038-.01-.019,0-.036-.007-.016,0-.051-.006c-.016,0-.038,0-.057,0a.82.82,0,0,0-.352.079l-1.63.676-14.409,6.847-.352.167-.043.023-.025.014a.753.753,0,0,0-.094.066l-.027.023-.012.01-.028.027a.636.636,0,0,0-.051.055l-.031.039c-.01.013-.019.027-.028.041a.743.743,0,0,0-.046.081.241.241,0,0,0-.012.026c-.007.015-.014.031-.02.047l0,.009-.008.024c0,.008-.007.019-.009.029l0,.01c0,.013-.007.026-.01.038l0,.015c0,.017-.007.034-.009.051s0,.037-.006.056v.057a.82.82,0,0,0,.126.437l.695,1.1.82,1.3,2.871,4.562a.82.82,0,0,0,1.069.293l10.74-5.525,1.631-.839,3.547-1.825a.82.82,0,0,0,.325-1.156Zm-16.327,7.543-3.492-5.552,14.82-7.041L507.895,386Z" transform="translate(-467.227 -364.32)" fill="#413b32"/>
        <path id="Trazado_1021546" data-name="Trazado 1021546" d="M183.188,269.953a.864.864,0,0,1-.051.1.821.821,0,0,1-.066.092h0l-.037.042a.512.512,0,0,1-.038.036.676.676,0,0,1-.073.059l-.03.021-.009.006-.031.018a.591.591,0,0,1-.059.032l-.683.324-9.518,4.521-1.559.741a.909.909,0,0,1-.084.035.874.874,0,0,1-.132.033l-.045.006a.852.852,0,0,1-.089,0,.82.82,0,0,1-.331-.07l-.042-.021-.014-.007-.043-.025-.047-.031-.027-.021-.012-.009-.013-.011-.032-.028-.008-.008-.006-.006-.007-.007-.011-.011-.012-.013c-.011-.012-.022-.025-.032-.037a.691.691,0,0,1-.046-.064c-.009-.014-.017-.028-.026-.042s-.017-.032-.026-.049v0c-.005-.01-.01-.021-.014-.032s-.01-.025-.015-.037a.027.027,0,0,0,0-.006v0l0-.013a.06.06,0,0,0-.005-.015l-.005-.017,0-.012h0c0-.011-.006-.022-.009-.033v-.007a.117.117,0,0,0,0-.017c0-.018-.007-.037-.009-.055l0-.029v-.1a.011.011,0,0,1,0-.006.007.007,0,0,1,0,0,.111.111,0,0,1,0-.023.069.069,0,0,1,0-.014.023.023,0,0,1,0-.008.12.12,0,0,1,0-.018v0a.031.031,0,0,0,0-.007.052.052,0,0,1,0-.008.006.006,0,0,1,0,0,.217.217,0,0,1,.006-.031v0a.007.007,0,0,1,0,0,.111.111,0,0,1,0-.018.131.131,0,0,1,.006-.024.024.024,0,0,1,0-.008.052.052,0,0,1,0-.009.083.083,0,0,1,0-.009c0-.017.01-.034.016-.051a.378.378,0,0,1,.015-.037.029.029,0,0,1,0-.008l0-.007.006-.011a.151.151,0,0,1,.01-.021l0-.008s0-.008.005-.011l.005-.009a.056.056,0,0,1,.007-.012.153.153,0,0,1,.013-.024l.008-.012a.074.074,0,0,1,.01-.014l.012-.018a.3.3,0,0,1,.023-.03.14.14,0,0,1,.014-.018l.01-.012,0,0,.011-.013.012-.013.011-.011,0,0,.01-.009h0l.01-.009.023-.021.011-.009.008-.007h0l.026-.02.006,0,0,0,.005,0,0,0,.031-.02h0l0,0h0l0,0,.021-.012.007,0,.009,0h0l.01-.005.012-.006.01-.006.92-.437,10.143-4.819.707-.348a.807.807,0,0,1,.388-.078h.034l.037,0,.022,0,.026,0,.023,0h.009a.127.127,0,0,1,.033.008l.033.01.028.009.036.014.029.012.018.009.045.024a.258.258,0,0,1,.032.019l.031.021a.509.509,0,0,1,.047.035l.026.022.008.007.025.024a.364.364,0,0,1,.028.029l.017.019.016.02.014.017.033.046a.45.45,0,0,1,.026.043.018.018,0,0,1,0,.007.534.534,0,0,1,.027.051c.013.028.025.057.035.086a.9.9,0,0,1,.025.088.866.866,0,0,1,.015.089A.82.82,0,0,1,183.188,269.953Z" transform="translate(-165.48 -259.74)" fill="#413b32"/>
        <path id="Trazado_1021547" data-name="Trazado 1021547" d="M590.479,275.289v.089h0v0a.029.029,0,0,0,0,.006v.011a.009.009,0,0,1,0,0v0a.015.015,0,0,1,0,0v0a.018.018,0,0,1,0,.005,0,0,0,0,1,0,0,0,0,0,0,1,0,0v.005a.206.206,0,0,1-.007.039h0a.081.081,0,0,1,0,.011.1.1,0,0,1,0,.021h0a.007.007,0,0,0,0,0,.012.012,0,0,0,0,0v.01l-.006.018,0,.012v0l0,.012v0a.007.007,0,0,0,0,0v.013a.008.008,0,0,1,0,.007.061.061,0,0,0,0,.007h0l0,.009h0v0l-.008.017a.024.024,0,0,0,0,.005v.005l-.009.018-.009.016-.005.009,0,.008-.012.021-.016.025-.019.027h0l0,.005v0l0,.006,0,0-.009.011-.014.016-.011.012-.009.01h0l-.008.008,0,0-.007.007-.015.014,0,0-.022.019,0,0-.01.008h0l-.007.006-.017.013-.011.008h0l0,0h-.007l0,0-.007,0-.008,0-.01.006-.009.005-.01.006-.007,0-.007,0-.01.005h-.005l-.011.005-.01,0-.007,0-.014.007h-.005l-.051.019h0l-.051.015c-.026.007-.051.012-.08.016a.779.779,0,0,1-.083.008h-.042a.816.816,0,0,1-.1-.006h-.015l-.025,0-.027-.005-.025-.006h-.008l-.033-.009-.009,0h0l-.014,0-.008,0h-.012l-.017-.006h0l-.033-.014h0l-.007,0-.036-.018-1.616-.656-8.333-3.959-1.179-.564-.166-.078-.518-.246-.054-.028a.882.882,0,0,1-.1-.066h0l-.036-.03,0,0,0,0-.011-.011-.021-.021-.026-.027-.007-.009-.022-.026a.824.824,0,0,1-.071-.1l-.008-.013,0-.007-.013-.026-.007-.015-.015-.033a.006.006,0,0,0,0,0c-.006-.014-.011-.028-.016-.043s-.009-.027-.013-.04a.012.012,0,0,0,0,0l0-.017c0-.009,0-.018-.007-.027s-.006-.028-.009-.042v-.006a.325.325,0,0,0-.006-.038.087.087,0,0,0,0-.011.855.855,0,0,1,0-.12v-.033a.926.926,0,0,1,.014-.1.108.108,0,0,1,.007-.028l0-.018a.071.071,0,0,1,.006-.019l.005-.017c0-.006,0-.011.005-.016a.9.9,0,0,1,.035-.086c.008-.016.016-.032.025-.047s.013-.024.021-.035l.007-.012a.412.412,0,0,1,.024-.035s0-.007.007-.01l.024-.03.012-.014a.24.24,0,0,1,.022-.025.092.092,0,0,1,.014-.014c.008-.009.017-.017.026-.026l.009-.008.031-.027.04-.031a.819.819,0,0,1,.2-.106c.016-.006.033-.011.051-.016h.006l.019-.005.028-.007h.012l.048-.008h.006a.47.47,0,0,1,.054-.006.808.808,0,0,1,.41.077l.7.33,10.143,4.819.9.428.013.006.006,0,.019.01.008,0h.01l.014.009.012.007h0l.007,0,.012.008.008.005.008.006,0,0,.008.005.006,0,.009.007h0l0,0,0,0,.005,0,0,0h0l0,0,0,0,0,0h0l.009.008,0,0,.015.014.005,0,0,0,.006.006.01.01,0,0,0,0,0,0,.009.01a.006.006,0,0,1,0,0,.007.007,0,0,1,0,0h0l0,0,.011.013.01.013,0,0,.008.01.006.008,0,.006.007.011v0l0,0a.009.009,0,0,1,0,0h0l0,0,0,0,0,.006,0,.006v0l.006.011.006.011,0,.008a.012.012,0,0,1,0,0l.008.015a.075.075,0,0,1,.007.014v0l0,.006.005.012v0l0,.008v0a.047.047,0,0,1,0,.007v0a.116.116,0,0,0,.006.014l0,.007h0a.04.04,0,0,0,0,.008.036.036,0,0,1,0,.01l0,.011a.079.079,0,0,1,0,.014.075.075,0,0,0,.006.02v.007a.182.182,0,0,1,.006.024h0a.1.1,0,0,1,0,.012.02.02,0,0,1,0,.008h0a.015.015,0,0,1,0,.006.039.039,0,0,1,0,.011.1.1,0,0,1,0,.012v.005a.04.04,0,0,1,0,.011.071.071,0,0,1,0,.014.159.159,0,0,0,0,.031v.025a.042.042,0,0,1,0,.012.059.059,0,0,1,.092.074Z" transform="translate(-551.815 -259.839)" fill="#413b32"/>
        <path id="Trazado_1021548" data-name="Trazado 1021548" d="M590.479,275.3v.042a.131.131,0,0,1,0,.014s0,.01,0,.015v0a.022.022,0,0,0,0,.006v.011a.009.009,0,0,1,0,0v.011a.018.018,0,0,1,0,.005,0,0,0,0,1,0,0,0,0,0,0,1,0,0v.005a.255.255,0,0,1-.007.039h0a.124.124,0,0,1-.008.033h0a.007.007,0,0,0,0,0,.012.012,0,0,0,0,0v0a.026.026,0,0,1,0,.006.067.067,0,0,1,0,.014.029.029,0,0,1,0,.006q0,.014-.009.028a.006.006,0,0,1,0,0,.024.024,0,0,1,0,.007l-.005.012a.015.015,0,0,1,0,.007h0a.016.016,0,0,1,0,.005h0l0,.009h0a.034.034,0,0,1,0,.006h0c0,.007-.006.013-.009.02s0,.007-.005.01l0,.008h0a.013.013,0,0,1,0,.005l0,.006a.009.009,0,0,1,0,.007l-.015.027v0l-.016.025-.006.008,0,0-.008.011h0l0,.005v0l0,.006,0,0-.01.013,0,0,0,0-.006.006,0,.006-.014.015h0l-.006.006,0,0-.007.007-.015.014,0,0-.02.017-.008.007,0,0-.005,0,0,0h0l-.007.006,0,0-.03.022,0,0-.007,0,0,0h0l0,0-.009.006-.034.02-.01,0h-.013l-.01.006h0l-.01,0-.007,0-.005,0-.009,0h-.005l-.007,0-.036.013-.006,0H590l-.043.013h-.009l-.016,0-.012,0a.226.226,0,0,0-.031.006l-.019,0h-.014l-.051.006h-.2l-.041,0h-.007l-.027,0h-.015l-.027-.005-.025-.006h-.017l-.024-.007-.009,0h0l-.014,0-.008,0h-.012l-.017-.006h0l-.033-.014h0l-.007,0-.036-.018-1.531-.644-8.333-3.959-1.179-.564-.166-.078-.518-.246-.054-.028a.871.871,0,0,1-.1-.066h0l-.036-.03,0,0,0,0-.011-.011-.021-.021-.026-.027-.007-.009-.022-.026a.824.824,0,0,1-.071-.1l-.008-.013,0-.007-.013-.026-.007-.015-.015-.033a.007.007,0,0,0,0,0c-.006-.014-.011-.028-.016-.043s-.009-.027-.013-.04a.012.012,0,0,0,0,0l0-.017c0-.009,0-.018-.007-.027s-.006-.028-.009-.042v-.006a.325.325,0,0,0-.006-.038.087.087,0,0,0,0-.011.855.855,0,0,1,0-.12v-.033a.941.941,0,0,1,.014-.1.108.108,0,0,1,.007-.028l0-.018a.071.071,0,0,1,.006-.02l.005-.017c0-.006,0-.011.005-.016a.9.9,0,0,1,.035-.086c.008-.016.016-.032.025-.047s.013-.024.021-.035l.007-.012a.422.422,0,0,1,.024-.035s0-.007.007-.01l.024-.03.012-.014a.245.245,0,0,1,.022-.025.093.093,0,0,1,.014-.014c.008-.009.017-.017.026-.026l.009-.008.031-.027.04-.031a.751.751,0,0,1,.1-.06.744.744,0,0,1,.1-.046c.016-.006.033-.011.051-.016h.006l.019-.005.028-.007h.012l.048-.008h.006a.476.476,0,0,1,.054-.006.808.808,0,0,1,.41.077l.7.33,10.143,4.819.9.428.013.006.006,0,.019.01.009.005h.01l.014.009.012.007h0l.007,0,.012.008h0l.005,0,.008.006,0,0,.008.005.006,0,.009.007h0l0,0,0,0,.005,0,0,0h0l0,0,0,0,0,0h0l.009.008,0,0,.015.014.005,0,0,0,.006.006.01.01,0,0,0,0,0,0,.009.01a0,0,0,0,1,0,0,.007.007,0,0,1,0,0h0l0,0,0,0,0,.006h0l.008.011,0,0,.008.01.006.008,0,.006.007.011v0l0,0a.007.007,0,0,1,0,0h0l0,0,0,0,0,.006,0,.006v0l.006.011.006.011,0,.008a.009.009,0,0,1,0,0l.008.015a.075.075,0,0,1,.007.014v0l0,.006h0l0,.01v0h0v.009a.035.035,0,0,1,0,.007v0a.108.108,0,0,0,.006.014l0,.007h0v0a.036.036,0,0,1,0,.01h0a.015.015,0,0,0,0,.009h0a.079.079,0,0,1,0,.014.072.072,0,0,0,.006.02v.007a.192.192,0,0,1,.006.024h0a.1.1,0,0,1,0,.012.02.02,0,0,1,0,.008h0a.015.015,0,0,1,0,.006.039.039,0,0,1,0,.011.072.072,0,0,1,0,.014v0a.04.04,0,0,1,0,.011.071.071,0,0,1,0,.014.155.155,0,0,0,0,.031.015.015,0,0,1,0,0,.141.141,0,0,1,0,.014v.006a.048.048,0,0,1,0,.012.046.046,0,0,1,0,.008v.007a.067.067,0,1,1,.1.092Z" transform="translate(-551.815 -259.839)" fill="#413b32"/>
      </g>
    </g>
  </g>
</svg>
