<svg xmlns="http://www.w3.org/2000/svg" width="292" height="163" viewBox="0 0 292 163">
  <g id="Grupo_1180776" data-name="Grupo 1180776" transform="translate(-1121.711 -7266)">
    <rect id="Rectángulo_456563" data-name="Rectángulo 456563" width="292" height="163" rx="10" transform="translate(1121.711 7266)" fill="#a2cbcf"/>
    <g id="_19962385_6206717" data-name="19962385_6206717" transform="translate(1098.819 7283.752)">
      <g id="OBJECTS" transform="translate(53.93 -7.955)">
        <g id="Grupo_1180775" data-name="Grupo 1180775" transform="translate(0)">
          <g id="Grupo_1180746" data-name="Grupo 1180746" transform="translate(18.059 17.27)">
            <path id="Trazado_1023594" data-name="Trazado 1023594" d="M278.872,198.612c.144-.476.3-.943.435-1.424a98.769,98.769,0,0,0,3.639-31.221c-1.251-29.647-15.393-59.731-40.278-77.676-29.409-21.209-72.118-21.639-103.2-4.114-39.891,22.491-56.907,73.012-44.757,114.436Z" transform="translate(-90.854 -71.657)" fill="#7db6f9"/>
            <g id="Grupo_1180745" data-name="Grupo 1180745" transform="translate(44.214 3.615)">
              <g id="Grupo_1180744" data-name="Grupo 1180744">
                <path id="Trazado_1023595" data-name="Trazado 1023595" d="M222.277,128.349a15.717,15.717,0,0,0,.635,2.363,1.339,1.339,0,0,1-.03,1.191c-.065.085-.149.154-.215.239-.369.478.015,1.175.476,1.564s1.048.734,1.182,1.323a3.2,3.2,0,0,1-.035.973,4.1,4.1,0,0,0,.867,2.7,12.214,12.214,0,0,0,2.043,2.042,1.331,1.331,0,0,0,.469-1.159,4.158,4.158,0,0,0-.349-1.251,49.452,49.452,0,0,1-2.483-8.564,6.326,6.326,0,0,1,.053-3.6c.105-.256.323-.538.593-.477a.5.5,0,0,1,.255.171,2.006,2.006,0,0,1,.363.872l.432,1.806a19.692,19.692,0,0,1,.4,1.949,14.575,14.575,0,0,0,.221,1.531,8.425,8.425,0,0,0,1.216,2.461l2.154,3.373a14,14,0,0,1,1.931,3.844,7.025,7.025,0,0,1-.041,3.728,4.276,4.276,0,0,0,1.09,4,11.707,11.707,0,0,0,3.666,2.445l7.031,3.5a4.038,4.038,0,0,0,1.126.426c1.144.188,2.227-.614,3.386-.667a4.6,4.6,0,0,1,3.362,1.8,11.669,11.669,0,0,0,2.847,2.694c1.369.725,3.006.634,4.53.914a5.192,5.192,0,0,1,4.077,2.9,1.517,1.517,0,0,0,.34.64c.365.321.923.121,1.4.056s1.141.3.932.735c-.26.546-.9.468-1.307.917a1.354,1.354,0,0,0,.25,1.793,2.135,2.135,0,0,0,1.014.543c.3.065.606.067.9.143,1.587.413,2.115,2.75,3.728,3.043a8.192,8.192,0,0,1,1.064.128,3.757,3.757,0,0,1,1.1.787,3.428,3.428,0,0,0,1.827.735.373.373,0,0,0,.328-.083.4.4,0,0,0,.056-.276,2.931,2.931,0,0,1,.662-2.155,1.936,1.936,0,0,1,2.277-.322,1.5,1.5,0,0,1,.767,1.606c-.056.208-.169.4-.21.612-.139.725.565,1.306.884,1.972a3.693,3.693,0,0,1,.28,1.348,23.15,23.15,0,0,1-.146,4.667,1.78,1.78,0,0,1-.33.955,2.152,2.152,0,0,1-.661.44A6.459,6.459,0,0,0,276.23,184a15.794,15.794,0,0,0-2.115,3.58,4.552,4.552,0,0,0,.493,4.024,1.226,1.226,0,0,1,.345.677.958.958,0,0,1-.235.547c-.74,1.006-1.833,1.937-1.815,3.186a3.165,3.165,0,0,0,.273,1.132,7.689,7.689,0,0,0,1.615,2.471,18.774,18.774,0,0,1,2.061,2.067,8.445,8.445,0,0,1,.972,2.106l.64,1.805h60.16c.035-.063.063-.13.1-.191a14.384,14.384,0,0,1,1.568-1.934,19.256,19.256,0,0,0,4.261-8.423,8.9,8.9,0,0,0,.257-2.6.737.737,0,0,0-.257-.6c-.2-.125-.459-.043-.7-.03a1.812,1.812,0,0,1-1.416-.8,11.79,11.79,0,0,0-1.027-1.341c-1.521-1.429-4.2-.494-5.924-1.673-1.1-.755-2.595-1.119-3.7-1.865a5.139,5.139,0,0,0-1.152-.667,6.841,6.841,0,0,0-1.809-.179,2,2,0,0,1-1.6-.731,2.851,2.851,0,0,1-.28-1.44,15.55,15.55,0,0,0-1.5-5.175,4.861,4.861,0,0,0-1.708-2.449,4.327,4.327,0,0,0-1.514-.478,21.067,21.067,0,0,0-5.526-.208,4.092,4.092,0,0,1-1.4-.013,3.505,3.505,0,0,1-1.124-.6,29.377,29.377,0,0,1-2.4-1.9,13.439,13.439,0,0,1-1.859-2.317,9.616,9.616,0,0,0-.968-1.27c-1.424-1.44-3.7-1.446-5.72-1.51a40.306,40.306,0,0,1-4.925-.459,4.318,4.318,0,0,1-.962-.23c-.811-.328-1.4-1.106-2.251-1.323a1.9,1.9,0,0,0-2.016.791c-.484.751-.476,1.891-1.278,2.286a1.267,1.267,0,0,1-1.685-1.012,9.678,9.678,0,0,1,.239-1.7c.031-.574-.419-1.272-.969-1.1-.313.1-.481.426-.717.654-.927.9-2.7.116-3.643,1a3.436,3.436,0,0,0-.622,1.012,11.432,11.432,0,0,1-2.221,2.756.836.836,0,0,1-.333.239.768.768,0,0,1-.454-.045,4.45,4.45,0,0,1-1.6-.944,4.546,4.546,0,0,0-3.563-.807,3.769,3.769,0,0,0-1.765.548c-.212.146-.4.327-.62.458a2.243,2.243,0,0,1-1.269.261,4.1,4.1,0,0,1-3.124-1.926,2.412,2.412,0,0,1-.375-.881,4.368,4.368,0,0,1,.055-1.189c.151-1.413-.183-2.842-.045-4.256.108-1.106.5-2.254.107-3.294a3.158,3.158,0,0,0-2.3-1.8,9.249,9.249,0,0,0-3.027-.035,9.475,9.475,0,0,1-3.028-.023,1.246,1.246,0,0,1-.609-.279.516.516,0,0,1-.119-.617c-.144-.68.343-1.268.775-1.813a7.208,7.208,0,0,0,1.484-3.491,5.338,5.338,0,0,1,.294-1.495c.186-.414.512-.754.7-1.168a1.962,1.962,0,0,0-.122-1.8,1.025,1.025,0,0,0-.31-.336,1.185,1.185,0,0,0-.546-.149,3.857,3.857,0,0,0-1.89.329,5.677,5.677,0,0,1-1.126.485c-.195.041-.4.046-.587.105a1.831,1.831,0,0,0-1.047,1.6,6.146,6.146,0,0,1-.359,1.979,2.565,2.565,0,0,1-1.44,1.179,7.637,7.637,0,0,1-1.867.35c-1.351.138-2.673.061-4.031.094a1.743,1.743,0,0,1-1.607-.638,6.24,6.24,0,0,1-1.856-2.443,5.972,5.972,0,0,1-.224-1.288,41.573,41.573,0,0,1-.21-6.267c1.067-1.244.731-3.269,1.246-4.824a6.9,6.9,0,0,1,4.6-4.277,7.769,7.769,0,0,1,2.932-.282c2.031.194,3.933,1.184,5.97,1.293q-.184-.635-.367-1.271a.627.627,0,0,1-.036-.3c.051-.234.331-.326.566-.368a25.049,25.049,0,0,1,4.027-.287,2.214,2.214,0,0,1,1.165.193c.288.168.486.458.764.643.807.538,1.951.029,2.84.419a2.1,2.1,0,0,1,.9.84c1,1.6.573,3.754,1.453,5.419a7.631,7.631,0,0,0,2.228,2.3.5.5,0,0,0,.222.118.445.445,0,0,0,.323-.125,3.217,3.217,0,0,0,.887-2.8,9.461,9.461,0,0,0-.351-1.977c-.323-1.113-.847-2.158-1.2-3.262a5.367,5.367,0,0,1-.135-3.411c.792-.616,1.507-1.259,2.3-1.875a22.779,22.779,0,0,1,2.329-1.659c1.177-.7,2.47-1.179,3.666-1.843a1.087,1.087,0,0,0,.615-.635,1.318,1.318,0,0,0-.3-.883,3.932,3.932,0,0,1-.507-1.535,1.131,1.131,0,0,1,.038-.529,1.575,1.575,0,0,1,.368-.481,3.985,3.985,0,0,0,1.043-2.163,2.884,2.884,0,0,1,.266-1.144,2.117,2.117,0,0,1,.927-.694,9.306,9.306,0,0,1,3.151-1.1.451.451,0,0,0,.408-.507c-.035-.254-.169-.485-.215-.737a1.487,1.487,0,0,1,.431-1.237,4.395,4.395,0,0,1,1.1-.781l3.173-1.787a2.535,2.535,0,0,1,1.453-.461,1.428,1.428,0,0,1-.389.964c-.2.294-.365.7-.158.988a.848.848,0,0,0,.893.2,13.723,13.723,0,0,0,2.714-1.438,8.7,8.7,0,0,1,1.771-.58,2.085,2.085,0,0,0,.681-.252.689.689,0,0,0,.334-.609c-.039-.375-.48-.584-.858-.558a9.27,9.27,0,0,0-1.1.278,3.884,3.884,0,0,1-1.47-.095,5.9,5.9,0,0,1-2.114-.7,1.645,1.645,0,0,1-.565-.562c-.457-.825.208-1.952-.269-2.766a1.143,1.143,0,0,0-1.226-.516,3.8,3.8,0,0,1-.676.2c-.235.013-.51-.171-.46-.4.04-.186.253-.27.438-.314,1.869-.451,3.875.04,5.735-.45a3.353,3.353,0,0,0,.921-.612c.357-.241.869-.473,1.176-.17a.962.962,0,0,1,.139.834q-.147,1.014-.294,2.029a1.558,1.558,0,0,0,.033.837,1.177,1.177,0,0,0,.724.586c1.015.357,2.15-.013,3.206.2a20.662,20.662,0,0,1,2.3.907,1,1,0,0,0,1.094-.142.8.8,0,0,0,.133-.62,1.9,1.9,0,0,0-.863-1.251,5.641,5.641,0,0,0-1.43-.623l-1.932-.637a.851.851,0,0,1-.634-.557l-.909-1.771a3.69,3.69,0,0,0-2.065-2.051l-1.546-.822a4.126,4.126,0,0,1-1.626-1.255,12.352,12.352,0,0,1-4.585-2.61c-.636-.529-1.217-1.121-1.825-1.683-.316-.293-.754-.6-1.142-.407a1.867,1.867,0,0,0-.426.386,1.872,1.872,0,0,1-1.765.348,6.568,6.568,0,0,1-1.678-.833,22.961,22.961,0,0,0-4.727-2.161,2.372,2.372,0,0,0-1.1-.164,1.69,1.69,0,0,0-1.193,1.036,4.994,4.994,0,0,0-.316,1.608,2.02,2.02,0,0,0,.006.578,1.77,1.77,0,0,0,.467.793,4.764,4.764,0,0,1,.957,1.235,1.117,1.117,0,0,1-.33,1.4,3.471,3.471,0,0,1-.738.207,1.448,1.448,0,0,0-1,1.163c-.08.58.2,1.208-.058,1.735a.991.991,0,0,1-1.576.191,4.8,4.8,0,0,1-.332-.571c-.446-.724-1.485-1.111-1.548-1.96a1.569,1.569,0,0,0-.055-.559.826.826,0,0,0-.66-.365c-1.024-.166-2.075-.06-3.107-.168a7.6,7.6,0,0,1-3.981-1.649,2.375,2.375,0,0,0-.669-.444,1.677,1.677,0,0,0-.688-.062,4.572,4.572,0,0,0-3.251,1.767c-.246.323-.48.7-.869.822s-.9-.292-.692-.639a12.184,12.184,0,0,1,2.895-1.714c.354-.148.757-.322.875-.687a1.042,1.042,0,0,0-.432-1.037,5.083,5.083,0,0,1-.9-.773.755.755,0,0,1,.078-1.058c1.249-.766,1.981-2.021,3.421-2.292a20.79,20.79,0,0,1,4.384-.2,1.333,1.333,0,0,0,.722-.116,1.737,1.737,0,0,0,.43-.458,2.8,2.8,0,0,1,2.311-1.038c.421-.446.024-1.339.515-1.705a1.07,1.07,0,0,1,.616-.147c1.932-.062,4.036-.044,5.561,1.144a.544.544,0,0,1,.259.388c0,.185-.169.318-.258.48-.253.462.183.993.6,1.315a12.778,12.778,0,0,0,7.05,2.636,1.415,1.415,0,0,0-.944-1.059,5.789,5.789,0,0,0-1.463-.261,1.455,1.455,0,0,1-.538-.14c-.583-.319-.534-1.159-.4-1.811a5.164,5.164,0,0,1,2.013.036c.2-.811-.566-1.554-1.348-1.848a10.857,10.857,0,0,1-2.357-.821c-.312-.21-.57-.493-.892-.687a4.528,4.528,0,0,0-2.313-.374,14.016,14.016,0,0,1-3.73-.555c-.531-.154-1.052-.34-1.588-.473a8.389,8.389,0,0,0-3.552-.1,2.243,2.243,0,0,0-.861.306c-.2.139-.363.332-.557.485a2.88,2.88,0,0,1-2.285.368A10.8,10.8,0,0,0,264.2,83.2a3.212,3.212,0,0,0-2.382,1.275,2.283,2.283,0,0,1-.46.541,1.776,1.776,0,0,1-1.274.135,20.482,20.482,0,0,0-4.592-.1c-1.126.1-2.386.264-3.276-.433a1.2,1.2,0,0,0-1.027-1.012,4.079,4.079,0,0,0-1.541.128,16.187,16.187,0,0,1-4.2.268c-.637-.043-1.392-.339-1.531-.962a89.82,89.82,0,0,0-14,5.448,4.16,4.16,0,0,1,1.252,3.2,9.92,9.92,0,0,1-.8,3.079l-1.916,5.039a20.254,20.254,0,0,1-2.572,5.2c-.621.814-1.363,1.531-1.97,2.355a18.166,18.166,0,0,0-1.463,2.51,16.13,16.13,0,0,0-1.952,5.212c-.329,2.589.609,5.152,1.53,7.594C222.726,124.528,222,126.394,222.277,128.349Z" transform="translate(-220.431 -82.251)" fill="#476b9e"/>
                <path id="Trazado_1023596" data-name="Trazado 1023596" d="M377.026,265.666a.548.548,0,0,0-.174-.412,2.977,2.977,0,0,0-1.628-.96,8.047,8.047,0,0,1-1.326-.25,4.07,4.07,0,0,1-.965-.639,10.474,10.474,0,0,0-4.019-1.925,6.74,6.74,0,0,1-1.059-.291c-.537-.223-.983-.623-1.511-.867a5.3,5.3,0,0,0-2.179-.355q-.907-.009-1.813.032a3.328,3.328,0,0,0-1.24.224,3.507,3.507,0,0,0-1.2,1.1l-.392.492c-.083.1-.168.258-.081.36a.28.28,0,0,0,.23.066c.73-.028,1.425-.183,2.172-.186a.6.6,0,0,1,.327.061,1.134,1.134,0,0,1,.225.26,1.069,1.069,0,0,0,.574.3c1.745.44,3.736-.512,5.327.329a5.219,5.219,0,0,1,.622.408l2.9,2.107a1.128,1.128,0,0,0,.8.311l3.7.167C376.6,266.008,376.983,265.95,377.026,265.666Z" transform="translate(-311.986 -199.326)" fill="#476b9e"/>
                <path id="Trazado_1023597" data-name="Trazado 1023597" d="M391.251,285.154c.192.949,1.307,1.137,2.1,1.227,1.912.215.485-1.535-.437-1.91C392.284,284.214,391.038,284.1,391.251,285.154Z" transform="translate(-332.948 -215.356)" fill="#476b9e"/>
                <path id="Trazado_1023598" data-name="Trazado 1023598" d="M425.662,279.9a12.669,12.669,0,0,0-1.625-.415,25.547,25.547,0,0,0-3.06-.894,8.813,8.813,0,0,0-1.227-.036c-.426.007-1.209.146-1.144.739.054.494.771.649.888,1.144.046.195-.005.4.037.6.083.387.483.6.818.814a5.529,5.529,0,0,0,.776.465,1.04,1.04,0,0,0,.876.013,4.95,4.95,0,0,0,.554-.474,2.2,2.2,0,0,1,1.512-.221,21.179,21.179,0,0,0,2.158.066.693.693,0,0,0,.578-.2.556.556,0,0,0,.032-.476A1.906,1.906,0,0,0,425.662,279.9Z" transform="translate(-350.982 -211.571)" fill="#476b9e"/>
              </g>
            </g>
          </g>
          <rect id="Rectángulo_456940" data-name="Rectángulo 456940" width="228.089" height="0.341" transform="translate(0.105 144.054)" fill="#162e4c"/>
          <path id="Trazado_1023599" data-name="Trazado 1023599" d="M49.314,464.775a1.96,1.96,0,0,1-1.252-.449,2.016,2.016,0,0,1-2.5,0,2.017,2.017,0,0,1-2.5,0,1.972,1.972,0,0,1-2.5,0,1.971,1.971,0,0,1-2.622-.107l.237-.245a1.629,1.629,0,0,0,2.266,0l.119-.115.119.115a1.629,1.629,0,0,0,2.266,0l.119-.115.119.115a1.629,1.629,0,0,0,2.266,0l.119-.115.119.115a1.629,1.629,0,0,0,2.266,0l.119-.115.119.115a1.629,1.629,0,0,0,2.266,0l.237.245A1.958,1.958,0,0,1,49.314,464.775Z" transform="translate(-37.93 -312.763)" fill="#7db6f9"/>
          <path id="Trazado_1023600" data-name="Trazado 1023600" d="M265.766,464.775a1.961,1.961,0,0,1-1.252-.449,2.017,2.017,0,0,1-2.5,0,5.607,5.607,0,0,0-3.755.448,1.972,1.972,0,0,0-2.5,0,1.962,1.962,0,0,1-1.371-.555l.237-.245a1.629,1.629,0,0,0,2.266,0l.119-.115.119.115a1.629,1.629,0,0,0,2.266,0l.119-.115.119.115a1.629,1.629,0,0,0,2.266,0l.119-.115.119.115a1.629,1.629,0,0,0,2.266,0l.119-.115.119.115a1.629,1.629,0,0,0,2.266,0l.237.246A1.96,1.96,0,0,1,265.766,464.775Z" transform="translate(-180.524 -312.763)" fill="#7db6f9"/>
          <path id="Trazado_1023601" data-name="Trazado 1023601" d="M194,454.887a1.959,1.959,0,0,1-1.252-.449,2.017,2.017,0,0,1-2.5,0,2.017,2.017,0,0,1-2.5,0,2.017,2.017,0,0,1-2.5,0,1.971,1.971,0,0,1-2.622-.106l.237-.246a1.629,1.629,0,0,0,2.266,0l.119-.114.119.114a1.629,1.629,0,0,0,2.266,0l.119-.114.119.114a1.629,1.629,0,0,0,2.266,0l.119-.115.119.115a1.63,1.63,0,0,0,2.266,0l.119-.115.119.115a1.63,1.63,0,0,0,2.266,0l.237.245A1.962,1.962,0,0,1,194,454.887Z" transform="translate(-133.249 -306.25)" fill="#7db6f9"/>
          <path id="Trazado_1023602" data-name="Trazado 1023602" d="M95.2,464.776a1.962,1.962,0,0,1-1.252-.449,1.97,1.97,0,0,1-2.5,0,1.97,1.97,0,0,1-2.622-.106l.237-.245a1.629,1.629,0,0,0,2.266,0l.119-.115.119.115a1.628,1.628,0,0,0,2.266,0l.119-.115.119.115a1.629,1.629,0,0,0,2.266,0l.237.245A1.958,1.958,0,0,1,95.2,464.776Z" transform="translate(-71.459 -312.764)" fill="#7db6f9"/>
          <path id="Trazado_1023603" data-name="Trazado 1023603" d="M76.585,454.887a1.959,1.959,0,0,1-1.252-.449,2.016,2.016,0,0,1-2.5,0,1.971,1.971,0,0,1-2.622-.106l.237-.246a1.629,1.629,0,0,0,2.266,0l.119-.115.119.115a1.63,1.63,0,0,0,2.266,0l.119-.115.119.115a1.63,1.63,0,0,0,2.266,0l.237.245A1.96,1.96,0,0,1,76.585,454.887Z" transform="translate(-59.194 -306.249)" fill="#7db6f9"/>
          <path id="Trazado_1023604" data-name="Trazado 1023604" d="M241.567,454.887a1.959,1.959,0,0,1-1.252-.449,2.017,2.017,0,0,1-2.5,0,1.971,1.971,0,0,1-2.622-.106l.237-.245a1.629,1.629,0,0,0,2.266,0l.119-.115.119.115a1.63,1.63,0,0,0,2.266,0l.119-.115.119.115a1.63,1.63,0,0,0,2.266,0l.237.245A1.962,1.962,0,0,1,241.567,454.887Z" transform="translate(-167.881 -306.25)" fill="#7db6f9"/>
          <path id="Trazado_1023605" data-name="Trazado 1023605" d="M166.987,464.776a1.962,1.962,0,0,1-1.252-.449,1.97,1.97,0,0,1-2.5,0,1.97,1.97,0,0,1-2.622-.106l.237-.245a1.629,1.629,0,0,0,2.266,0l.119-.115.119.115a1.628,1.628,0,0,0,2.266,0l.119-.115.119.115a1.629,1.629,0,0,0,2.266,0l.237.245A1.958,1.958,0,0,1,166.987,464.776Z" transform="translate(-118.749 -312.764)" fill="#7db6f9"/>
          <path id="Trazado_1023606" data-name="Trazado 1023606" d="M307.145,464.776a1.971,1.971,0,0,0-2.5,0,1.971,1.971,0,0,0-2.5,0,1.964,1.964,0,0,1-1.371-.555l.237-.246a1.628,1.628,0,0,0,2.266,0l.119-.115.119.115a1.629,1.629,0,0,0,2.266,0l.119-.115.119.115a1.629,1.629,0,0,0,2.266,0l.237.245A1.96,1.96,0,0,1,307.145,464.776Z" transform="translate(-211.082 -312.765)" fill="#7db6f9"/>
          <path id="Trazado_1023607" data-name="Trazado 1023607" d="M499.18,465.14h-.918V464.8h.918Zm-3.989,0H492.8V464.8h2.388Zm-5.46,0h-2.388V464.8h2.388Zm-5.459,0h-2.389V464.8h2.389Zm-5.459,0h-2.389V464.8h2.389Zm-5.46,0h-2.388V464.8h2.388Zm-5.459,0h-2.388V464.8h2.388Zm-5.459,0h-2.389V464.8h2.389Zm-5.46,0h-2.389V464.8h2.389Zm-5.46,0h-2.388V464.8h2.388Zm-5.459,0h-2.388V464.8h2.388Zm-5.46,0h-2.388V464.8H440.6Zm-5.459,0h-2.389V464.8h2.389Zm-5.46,0h-2.389V464.8h2.389Zm-5.46,0h-2.388V464.8h2.388Zm-5.459,0h-2.389V464.8h2.389Zm-5.459,0H410.91V464.8H413.3Zm-5.46,0H405.45V464.8h2.389Zm-5.459,0h-2.389V464.8h2.389Zm-5.459,0h-2.389V464.8h2.389Zm-5.46,0h-2.389V464.8h2.389Z" transform="translate(-269.256 -313.382)" fill="#7db6f9"/>
          <g id="Grupo_1180747" data-name="Grupo 1180747" transform="translate(19.584 17.824)">
            <path id="Trazado_1023608" data-name="Trazado 1023608" d="M251.825,144.668l-.34-.03.018-.195.34.032Zm.122-1.208-.339-.038q.058-.513.126-1.019l.338.045Q252,142.951,251.947,143.46Zm.271-2.022-.337-.052q.079-.51.17-1.014l.336.061Q252.3,140.933,252.218,141.438Zm.361-2.006-.334-.069q.1-.505.219-1l.333.077Q252.681,138.931,252.579,139.432Zm.459-1.986-.331-.085q.128-.5.27-.992l.328.094Q253.164,136.951,253.038,137.446Zm.562-1.959-.325-.1q.155-.49.324-.974l.322.113Q253.753,135,253.6,135.487Zm.67-1.919-.319-.121q.183-.481.382-.954l.315.132Q254.451,133.093,254.269,133.569Zm.785-1.876-.31-.141q.213-.468.441-.929l.306.151Q255.265,131.23,255.054,131.693Zm.9-1.823-.3-.161q.244-.453.5-.9l.3.171Q256.2,129.421,255.956,129.87Zm1.022-1.76-.289-.181q.272-.436.562-.864l.283.191Q257.248,127.679,256.978,128.109Zm1.139-1.688-.276-.2q.3-.416.62-.824l.269.21Q258.415,126.01,258.117,126.422Zm1.252-1.605-.261-.219q.329-.393.674-.778l.254.228Q259.7,124.428,259.369,124.816Zm1.359-1.515-.246-.236q.354-.369.725-.73l.238.244Q261.079,122.936,260.728,123.3Zm1.457-1.42-.23-.252q.378-.345.771-.681l.222.26Q262.56,121.54,262.186,121.882Zm1.547-1.323-.213-.266q.4-.319.812-.631l.205.273Q264.127,120.242,263.732,120.559Zm1.625-1.221-.192-.282q.422-.288.863-.563l.18.29Q265.775,119.054,265.358,119.338Zm43.99-1.018q-.444-.244-.9-.475l.155-.3q.46.233.909.48Zm-42.263-.057-.169-.3q.444-.253.9-.493l.158.3Q267.522,118.013,267.084,118.263Zm40.45-.865q-.459-.216-.927-.42l.136-.313q.471.206.935.424Zm-38.647-.079-.147-.307q.46-.221.935-.431l.138.312Q269.342,117.1,268.886,117.319Zm36.782-.735q-.471-.19-.949-.369l.119-.32q.482.18.958.372ZM270.75,116.5l-.129-.316q.473-.192.959-.373l.119.32Q271.218,116.306,270.75,116.5Zm33.011-.626q-.481-.165-.967-.319l.1-.325q.49.155.975.322Zm-31.1-.086-.11-.323q.483-.165.977-.319l.1.326Q273.138,115.621,272.659,115.785Zm29.159-.529q-.488-.141-.982-.272l.087-.33q.5.132.99.275Zm-27.214-.08-.093-.328q.491-.14.991-.27l.086.33Q275.092,115.036,274.6,115.176Zm25.244-.443q-.494-.119-.994-.228l.073-.334q.5.11,1,.229Zm-23.27-.07-.078-.332q.5-.117,1-.224l.071.334Q277.072,114.547,276.578,114.663Zm21.278-.364q-.5-.1-1-.184l.058-.336q.507.088,1.01.186Zm-19.282-.058-.063-.335c.334-.063.672-.123,1.011-.18l.056.336Q279.074,114.147,278.574,114.242Zm17.273-.29q-.5-.076-1.01-.143l.044-.338q.51.067,1.017.144Zm-15.26-.046-.049-.337q.507-.074,1.02-.138l.042.339C281.26,113.811,280.922,113.857,280.587,113.906Zm13.238-.219q-.507-.056-1.015-.1l.031-.34q.512.046,1.022.1Zm-11.21-.034-.035-.34q.511-.053,1.024-.1l.029.34Q283.122,113.6,282.614,113.653Zm9.178-.15q-.509-.036-1.018-.062l.017-.341q.513.027,1.025.062Zm-7.142-.021-.022-.341q.512-.033,1.027-.056l.015.341Q285.159,113.449,284.65,113.482Zm5.1-.083q-.51-.016-1.021-.023l0-.341q.513.007,1.027.023Zm-3.063-.009-.008-.341q.513-.013,1.028-.016l0,.341Q287.2,113.376,286.691,113.39Z" transform="translate(-198.2 -99.469)" fill="#fff"/>
            <path id="Trazado_1023609" data-name="Trazado 1023609" d="M286.064,184.753q-.213-.468-.42-.935l.312-.138q.206.466.419.932Zm-.832-1.874q-.2-.472-.4-.943l.315-.132q.2.47.4.94Zm-.793-1.891q-.195-.476-.382-.952l.317-.125q.187.474.381.948Zm34.542-1.768q-.11-.5-.223-1l.333-.076q.114.5.223,1Zm-35.3-.142q-.184-.481-.363-.962l.32-.119q.178.479.361.958Zm34.841-1.849q-.12-.5-.245-.992l.331-.084q.125.5.246,1Zm-35.555-.079q-.174-.485-.341-.97l.323-.111q.166.483.339.966Zm35.055-1.9q-.131-.5-.267-.986l.329-.091q.137.493.268.99Zm-35.726-.042q-.162-.489-.318-.978l.325-.1q.155.487.317.974Zm35.181-1.928q-.142-.492-.289-.98l.327-.1q.148.49.291.984Zm-35.805-.031q-.15-.492-.293-.985l.327-.1q.143.49.293.981Zm35.215-1.925q-.153-.489-.312-.972l.324-.106q.159.486.313.977Zm-35.79-.049q-.138-.5-.269-.992l.33-.087q.131.494.267.988Zm35.154-1.892q-.165-.485-.335-.965l.322-.114q.17.482.337.969Zm-35.679-.1q-.124-.5-.242-1l.332-.078q.117.5.241.994Zm35-1.83q-.178-.481-.36-.956l.319-.122q.183.477.361.96Zm-35.466-.171q-.111-.5-.214-1l.334-.069q.1.5.214,1Zm34.735-1.736q-.189-.476-.384-.947l.315-.13q.2.472.386.951Zm-35.15-.277q-.1-.505-.186-1.011l.336-.059q.089.5.185,1.006Zm34.371-1.611q-.2-.47-.409-.936l.312-.139q.208.467.41.94Zm-34.727-.413q-.081-.508-.155-1.016l.338-.049q.073.505.155,1.01Zm33.9-1.453q-.215-.465-.434-.925l.308-.147q.221.461.436.928Zm-34.192-.581q-.066-.51-.125-1.02l.339-.039q.058.507.124,1.015Zm33.311-1.262q-.227-.459-.46-.912l.3-.156q.233.455.462.916Zm-33.544-.779q-.05-.511-.092-1.023l.34-.028q.042.509.092,1.018Zm32.612-1.038q-.24-.452-.486-.9l.3-.164q.246.448.488.9Zm-32.779-1.01q-.033-.513-.059-1.025l.341-.017q.026.51.059,1.02Zm31.8-.779q-.253-.445-.512-.883l.294-.173q.26.441.515.888Zm-31.9-1.272q-.016-.513-.025-1.027l.341-.005q.008.51.025,1.021Zm30.86-.487q-.267-.437-.538-.867l.289-.182q.273.433.541.872Zm-30.551-1.566H278.5q0-.513.01-1.026l.341.006Q278.846,152.509,278.845,153.02Zm29.461-.16q-.279-.428-.565-.85l.283-.191q.287.424.568.855Zm-1.143-1.691q-.293-.419-.592-.832l.277-.2q.3.415.6.836Zm-28.28-.19-.341-.012q.018-.513.045-1.025l.341.018Q278.9,150.469,278.883,150.979Zm27.083-1.464q-.307-.409-.619-.812l.27-.209q.313.4.622.816Zm-26.976-.574-.341-.024q.036-.512.081-1.023l.34.03Q279.026,148.432,278.99,148.941Zm25.725-1.039q-.32-.4-.646-.791l.263-.218q.328.394.649.8Zm-25.546-.994-.339-.036q.054-.51.117-1.02l.338.042Q279.223,146.4,279.169,146.908Zm24.242-.576q-.333-.388-.672-.768l.255-.227q.341.382.676.773Zm-23.992-1.449-.338-.048q.072-.508.153-1.015l.337.054Q279.49,144.379,279.419,144.883Zm22.634-.074q-.347-.376-.7-.744l.247-.236q.354.371.7.748Zm-1.411-1.475q-.36-.363-.724-.718l.238-.245q.367.358.729.723Zm-20.9-.465-.336-.06q.09-.5.189-1.009l.334.066Q279.83,142.367,279.741,142.868Zm19.439-.958q-.373-.35-.75-.691l.229-.253q.38.344.754.7Zm-19.046-1.043-.334-.072q.108-.5.224-1l.333.077Q280.241,140.368,280.134,140.866Zm17.533-.326q-.385-.336-.775-.663l.219-.261q.393.33.78.667Zm-1.56-1.31q-.4-.32-.8-.632l.209-.269q.4.314.8.636ZM280.6,138.88l-.331-.084q.125-.5.259-.992l.329.089Q280.723,138.386,280.6,138.88Zm13.9-.9q-.408-.305-.821-.6l.2-.277q.416.3.826.605Zm-13.369-1.071-.328-.095q.142-.491.294-.983l.326.1Q281.273,136.423,281.132,136.911Zm11.716-.116q-.419-.289-.844-.57l.188-.285q.427.283.849.574Zm-1.7-1.124q-.43-.273-.865-.537l.177-.291q.438.266.871.541Zm-9.417-.709-.324-.106q.159-.486.328-.972l.322.112Q281.891,134.479,281.733,134.963Zm7.676-.349q-.441-.256-.887-.5l.166-.3q.448.249.892.507Zm-1.783-.99q-.45-.239-.906-.469l.154-.3q.458.232.912.472Zm-5.225-.588-.32-.117q.176-.48.36-.96l.319.123Q282.575,132.559,282.4,133.035Zm3.4-.332q-.459-.222-.924-.434l.142-.31q.467.213.93.436Zm-1.856-.849q-.468-.2-.941-.4l.13-.316q.476.2.947.4Z" transform="translate(-215.999 -111.398)" fill="#fff"/>
            <path id="Trazado_1023610" data-name="Trazado 1023610" d="M260.437,222.728q-.018-.511-.04-1.021l.341-.014q.022.511.04,1.024Zm-.086-2.041q-.025-.51-.053-1.019l.341-.019q.029.51.053,1.021Zm-.114-2.036q-.032-.509-.067-1.016l.341-.023q.035.509.067,1.019Zm-.141-2.036q-.038-.51-.08-1.019l.34-.028q.042.51.081,1.022Zm-.168-2.038q-.046-.51-.095-1.018l.34-.033q.049.51.094,1.02Zm-.195-2.036q-.053-.509-.108-1.017l.339-.037q.056.509.108,1.019Zm-.223-2.033q-.059-.508-.121-1.015l.339-.042q.062.508.122,1.018Zm-.25-2.03q-.066-.508-.135-1.013l.338-.046q.07.507.136,1.016Zm-.278-2.026q-.073-.507-.149-1.012l.337-.05q.076.506.149,1.014Zm-.3-2.023q-.079-.505-.162-1.009l.336-.055q.083.505.163,1.012Zm-.332-2.018q-.086-.5-.176-1.007l.336-.06q.09.5.177,1.01Zm-.359-2.013q-.094-.5-.19-1l.335-.064q.1.5.19,1.007Zm-.387-2.008q-.1-.5-.2-1l.334-.069q.1.5.2,1Zm-.414-2q-.107-.5-.217-1l.333-.074q.111.5.218,1Zm-.441-2q-.114-.5-.231-1l.332-.078q.118.5.231,1Zm-.469-1.99q-.12-.5-.244-.993l.331-.083q.124.5.245,1Zm-.5-1.984q-.128-.5-.258-.99l.33-.087q.131.495.259.992Zm-.523-1.977q-.135-.494-.272-.986l.329-.091q.137.493.272.988Zm-.55-1.969q-.141-.492-.285-.982l.327-.1q.145.491.286.984Zm-.577-1.961q-.148-.49-.3-.978l.326-.1q.151.489.3.98Zm-.6-1.954q-.155-.488-.313-.974l.325-.105q.158.487.313.976Zm-.632-1.945q-.161-.486-.326-.969l.323-.11q.165.485.327.971Zm-.659-1.935q-.169-.483-.34-.965l.321-.114q.172.482.341.966Zm-.686-1.926q-.176-.481-.353-.96l.32-.119q.179.48.354.962Zm-.713-1.916q-.183-.479-.367-.954l.318-.124q.186.477.368.956Zm-.742-1.906q-.188-.475-.381-.949l.316-.128q.193.474.382.951Zm-.768-1.894q-.2-.473-.395-.943l.315-.133q.2.471.4.946Zm-.8-1.884q-.2-.47-.408-.937l.313-.137q.206.468.409.94Zm-.824-1.871q-.21-.467-.422-.931l.31-.142q.213.465.423.933Zm-.852-1.859q-.216-.464-.436-.925l.308-.147q.221.462.437.927Zm-.879-1.846q-.223-.461-.45-.918l.306-.151q.227.459.451.921Zm-.907-1.832q-.23-.457-.464-.911l.3-.156q.234.455.465.913Zm-.935-1.818q-.237-.454-.478-.9l.3-.161q.241.451.479.906Zm-.963-1.8q-.244-.449-.492-.9l.3-.165q.248.448.493.9Zm-.991-1.788q-.251-.446-.506-.888l.3-.17q.255.444.507.891Zm-1.019-1.772q-.258-.442-.52-.88l.293-.175q.262.44.521.883Zm-1.048-1.756q-.266-.438-.534-.871l.29-.179q.269.435.536.874Zm-1.076-1.739q-.273-.433-.549-.863l.287-.184q.276.43.55.865Zm-1.1-1.72q-.28-.428-.563-.853l.284-.189q.284.426.565.856Zm-1.133-1.7q-.288-.424-.577-.843l.28-.194q.291.421.579.846Zm-1.161-1.682q-.294-.419-.591-.834l.277-.2q.3.416.593.836Zm-1.191-1.662q-.3-.414-.606-.823l.274-.2q.306.411.608.825Zm-1.219-1.641q-.309-.408-.621-.812l.27-.208q.313.405.623.814Zm-1.249-1.618q-.316-.4-.635-.8l.266-.213q.32.4.637.8Zm-1.278-1.6q-.324-.4-.65-.789l.263-.218q.328.394.652.791Zm-1.307-1.572q-.331-.391-.664-.776l.258-.223q.335.387.667.779Zm-1.337-1.546q-.338-.383-.679-.763l.254-.228q.342.381.681.766Zm-1.366-1.52q-.346-.377-.694-.75l.249-.233q.35.374.7.752Zm-1.4-1.493q-.353-.37-.709-.736l.245-.238q.357.366.711.738Zm-42.379-.654-.185-.287c.013-.008.317-.2.894-.528l.167.3C183.223,132.456,182.917,132.653,182.914,132.655Zm40.953-.81q-.36-.363-.723-.721l.239-.243q.365.359.727.724Zm-39.179-.191-.158-.3c.277-.144.583-.3.919-.463l.15.307C185.266,131.357,184.962,131.511,184.688,131.654Zm1.833-.9-.143-.31q.445-.2.939-.419l.136.313Q186.963,130.553,186.521,130.757Zm35.891-.347q-.368-.356-.739-.706l.235-.248q.372.351.742.708Zm-34.018-.465-.129-.316q.461-.188.955-.379l.122.319Q188.852,129.758,188.394,129.945Zm1.906-.733-.116-.321q.472-.17.97-.339l.109.323Q190.769,129.043,190.3,129.213Zm30.627-.206q-.375-.348-.754-.69l.229-.253q.379.343.757.692Zm-28.693-.448-.1-.325q.481-.152.983-.3l.1.327Q192.712,128.407,192.234,128.558Zm1.958-.576-.09-.329q.489-.133.994-.26l.083.331Q194.677,127.849,194.192,127.982Zm25.2-.154q-.5-.133-.988-.253l.081-.332q.5.121.995.255Zm-23.225-.344-.077-.333q.495-.114,1-.22l.069.334Q196.663,127.371,196.172,127.484Zm21.244-.142q-.5-.112-1-.211l.067-.334q.5.1,1.005.212Zm-19.247-.276-.063-.335q.5-.094,1.012-.179l.056.336Q198.665,126.974,198.169,127.067Zm17.247-.124q-.506-.09-1.006-.167l.053-.337q.5.078,1.013.169Zm-15.233-.212-.049-.337q.5-.074,1.018-.138l.042.338Q200.682,126.659,200.182,126.731Zm13.217-.1q-.508-.068-1.012-.124l.037-.339q.507.056,1.02.125Zm-11.193-.152-.036-.34q.507-.053,1.023-.1l.028.34Q202.71,126.426,202.206,126.479Zm9.166-.073q-.512-.046-1.017-.079l.023-.341q.509.034,1.024.08Zm-7.133-.095-.021-.341q.509-.032,1.026-.052l.013.341Q204.745,126.279,204.239,126.311Zm5.1-.042q-.513-.023-1.019-.035l.008-.341q.51.012,1.027.035Zm-3.059-.04-.007-.341q.453-.009.912-.009h.115v.341h-.114Q206.727,126.22,206.278,126.229Z" transform="translate(-152.904 -107.932)" fill="#fff"/>
            <path id="Trazado_1023611" data-name="Trazado 1023611" d="M291.259,93.158l-.331-.085c0-.015.1-.373.3-1l.324.108C291.353,92.795,291.26,93.154,291.259,93.158Zm.638-1.936-.32-.119c.11-.294.235-.616.376-.96l.316.13C292.129,90.613,292.005,90.931,291.9,91.222Zm.775-1.888-.312-.139q.2-.45.434-.935l.307.148Q292.869,88.887,292.671,89.334Zm.885-1.838-.3-.157q.231-.445.488-.907l.3.166Q293.784,87.055,293.556,87.5Zm.992-1.782-.293-.175q.259-.434.542-.876l.287.184Q294.8,85.284,294.548,85.714Zm1.1-1.717-.282-.192q.287-.419.6-.841l.275.2Q295.928,83.582,295.646,84Zm1.2-1.644-.269-.211q.314-.4.649-.8l.261.22Q297.159,81.956,296.849,82.353Zm1.31-1.559-.253-.228q.341-.379.7-.753l.245.237Q298.5,80.419,298.158,80.794Zm1.416-1.461-.236-.246q.368-.353.757-.7l.227.255Q299.939,78.984,299.575,79.333Zm1.521-1.35-.217-.263q.4-.324.809-.638l.206.272Q301.485,77.662,301.1,77.983Zm1.621-1.226-.194-.28q.42-.291.859-.57l.183.288Q303.13,76.47,302.717,76.757Zm1.715-1.089-.171-.3q.442-.256.9-.5l.159.3Q304.869,75.416,304.432,75.668Zm1.8-.941-.145-.309q.462-.217.941-.419l.133.315Q306.688,74.513,306.232,74.727Zm1.873-.787-.119-.32q.478-.178.973-.339l.105.325Q308.576,73.765,308.1,73.941Z" transform="translate(-224.184 -73.282)" fill="#fff"/>
            <path id="Trazado_1023612" data-name="Trazado 1023612" d="M95.664,231.594l-.341-.009q.012-.454.028-.908l.341.012Q95.677,231.141,95.664,231.594Zm.068-1.928-.341-.014q.022-.512.047-1.024l.341.017Q95.753,229.156,95.732,229.667Zm.1-2.042-.341-.019q.029-.512.061-1.023l.341.022Q95.859,227.114,95.831,227.624Zm.129-2.04-.341-.024q.036-.511.076-1.022l.34.026Q96,225.074,95.96,225.584Zm.158-2.038-.34-.029q.043-.51.09-1.02l.34.031Q96.161,223.037,96.118,223.547Zm.187-2.035-.34-.034q.051-.51.1-1.019l.339.036Q96.355,221,96.305,221.512Zm.215-2.031-.339-.038q.057-.509.119-1.017l.338.041Q96.577,218.973,96.521,219.481Zm.245-2.027-.338-.043q.065-.508.134-1.015l.338.046Q96.83,216.947,96.765,217.453Zm.274-2.024-.338-.048q.072-.507.148-1.012l.337.051Q97.11,214.925,97.039,215.43Zm.3-2.018L97,213.359q.079-.506.163-1.01l.336.055Q97.421,212.908,97.342,213.411Zm.332-2.014-.336-.058q.087-.5.177-1.007l.336.061Q97.761,210.9,97.674,211.4Zm.36-2.007-.335-.063q.094-.5.192-1l.335.065Q98.129,208.889,98.035,209.39Zm.391-2-.335-.068q.1-.5.207-1l.334.07Q98.527,206.889,98.426,207.388Zm.419-2-.333-.073q.109-.5.221-1l.333.075Q98.954,204.895,98.845,205.393Zm.45-1.988-.333-.078q.117-.5.236-.994l.332.08Q99.41,202.909,99.295,203.4Zm.478-1.981-.331-.083q.124-.5.251-.99l.331.085Q99.9,200.929,99.773,201.424Zm.509-1.973-.33-.088q.132-.494.266-.986l.329.09Q100.412,198.958,100.282,199.451Zm.539-1.964-.329-.092q.139-.492.281-.982l.328.1Q100.959,197,100.82,197.486Zm.569-1.955-.327-.1q.146-.489.3-.977l.326.1Q101.536,195.043,101.389,195.531Zm.6-1.946-.325-.1q.155-.489.313-.976l.324.106Q102.142,193.1,101.988,193.585Zm.633-1.944-.323-.109q.163-.486.329-.971l.322.111Q102.783,191.156,102.621,191.641Zm.664-1.934-.322-.114q.171-.484.345-.965l.321.116Q103.454,189.224,103.284,189.707Zm.7-1.923-.32-.119q.178-.481.36-.96l.319.121Q104.157,187.3,103.98,187.784Zm.727-1.911-.318-.124q.186-.478.377-.953l.317.127Q104.892,185.4,104.707,185.873Zm.759-1.9-.316-.13q.195-.474.393-.947l.315.132Q105.659,183.5,105.465,183.974Zm.791-1.886-.313-.135q.2-.471.408-.94l.313.137Q106.458,181.619,106.256,182.089Zm.823-1.871-.311-.14q.211-.468.425-.933l.31.143Q107.289,179.751,107.08,180.218Zm.856-1.856-.308-.146q.22-.464.442-.925l.307.148Q108.155,177.9,107.936,178.362Zm.889-1.841-.306-.151q.228-.46.459-.917l.3.154Q109.052,176.062,108.825,176.521Zm.923-1.824-.3-.157q.236-.456.476-.908l.3.16Q109.983,174.242,109.748,174.7Zm.956-1.807-.3-.163q.245-.451.492-.9l.3.165Q110.948,172.441,110.7,172.89Zm.991-1.788-.3-.168q.253-.447.51-.89l.3.171Q111.948,170.658,111.7,171.1Zm1.025-1.769-.293-.174q.262-.442.527-.88l.292.177Q112.981,168.894,112.72,169.334Zm1.06-1.748-.29-.179q.27-.437.545-.869l.288.183Q114.049,167.151,113.78,167.586Zm1.095-1.726-.287-.186q.279-.43.562-.857l.285.189Q115.152,165.431,114.874,165.86Zm1.129-1.7-.283-.191q.288-.425.58-.846l.28.194Q116.29,163.733,116,164.156Zm1.165-1.679-.278-.2q.3-.419.6-.833l.276.2Q117.464,162.06,117.168,162.477Zm1.2-1.654-.274-.2q.306-.412.616-.82l.272.206Q118.673,160.413,118.368,160.823ZM119.6,159.2l-.269-.209q.314-.405.634-.806l.267.212Q119.917,158.793,119.6,159.2Zm1.272-1.6-.264-.215q.323-.4.652-.792l.262.219Q121.2,157.2,120.876,157.6Zm1.308-1.57-.26-.221q.333-.391.67-.777l.257.224Q122.515,155.638,122.183,156.027Zm1.344-1.539-.255-.227q.342-.383.688-.761l.252.231Q123.868,154.107,123.527,154.488Zm1.38-1.507-.249-.233q.351-.375.706-.744l.246.236Q125.257,152.608,124.907,152.981Zm1.416-1.473-.243-.24q.36-.365.724-.726l.24.243Q126.682,151.144,126.323,151.508Zm1.451-1.437-.237-.245q.37-.357.742-.708l.234.248Q128.142,149.716,127.774,150.071Zm1.484-1.4-.231-.251q.376-.345.757-.686l.227.254Q129.633,148.329,129.258,148.673Zm1.516-1.357-.224-.257q.385-.336.775-.667l.22.26Q131.158,146.982,130.774,147.317ZM132.326,146l-.217-.263q.394-.326.792-.647l.214.266Q132.718,145.675,132.326,146Zm1.587-1.277-.211-.269q.4-.316.81-.625l.206.272Q134.314,144.408,133.913,144.722Zm1.621-1.234-.2-.274q.411-.3.827-.6l.2.277Q135.943,143.184,135.534,143.488Zm1.655-1.19-.2-.28q.42-.293.844-.581l.191.282Q137.607,142.006,137.189,142.3Zm1.688-1.145-.187-.285q.428-.282.861-.558l.183.288Q139.3,140.873,138.877,141.153Zm1.721-1.1-.179-.29q.437-.27.877-.533l.175.293Q141.033,139.787,140.6,140.056Zm1.754-1.049-.171-.3q.444-.257.892-.508l.167.3Q142.794,138.751,142.352,139.007Zm1.784-1-.163-.3q.451-.245.908-.483l.158.3Q144.585,137.765,144.135,138.008Zm1.813-.947-.153-.3q.459-.231.922-.456l.149.307Q146.405,136.831,145.949,137.061Zm1.842-.895-.145-.309q.465-.218.936-.43l.14.311Q148.254,135.949,147.791,136.166Zm1.869-.841-.135-.313q.47-.2.944-.4l.131.315Q150.128,135.122,149.66,135.325Zm1.886-.783-.126-.317q.476-.189.956-.372l.121.319Q152.019,134.354,151.546,134.542Zm1.908-.726-.117-.32q.481-.175.967-.344l.112.322Q153.933,133.642,153.453,133.816Zm1.929-.67-.107-.324q.487-.161.976-.315l.1.326Q155.866,132.986,155.382,133.146Zm1.948-.613-.1-.327q.491-.147.985-.286l.092.328Q157.818,132.387,157.33,132.533Zm1.964-.555-.088-.33q.494-.133.993-.258l.083.331Q159.786,131.845,159.294,131.977Zm1.98-.5-.078-.332q.5-.118,1-.229l.074.333Q161.77,131.362,161.274,131.479Z" transform="translate(-95.323 -111.252)" fill="#fff"/>
            <path id="Trazado_1023613" data-name="Trazado 1023613" d="M208.265,321.712l-.341-.016q.025-.515.055-1.024l.341.02Q208.289,321.2,208.265,321.712Zm.123-2.038-.341-.025q.038-.514.082-1.023l.34.029Q208.424,319.161,208.387,319.674Zm.175-2.035-.339-.034q.051-.513.109-1.02l.339.039Q208.613,317.128,208.563,317.639Zm.23-2.029-.338-.043q.065-.512.137-1.016l.338.048Q208.858,315.1,208.793,315.61Zm.287-2.022-.337-.053q.08-.51.165-1.012l.336.058Q209.159,313.081,209.08,313.588Zm68.355-1.623-.339-.036q.025-.23.051-.457l-.3.1q-.161-.487-.325-.969l.323-.11q.157.46.31.925c.02-.171.043-.341.066-.51l.338.046Q277.489,311.454,277.434,311.965Zm-68.01-.389-.335-.062q.094-.507.195-1.007l.334.067Q209.518,311.071,209.424,311.576Zm68.285-1.629-.336-.057q.086-.512.187-1.012l.334.068Q277.794,309.441,277.709,309.947Zm-1.525-.31q-.171-.484-.346-.962l.32-.117q.176.48.347.965Zm-66.357-.063-.333-.073q.11-.5.225-1l.333.077Q209.936,309.074,209.828,309.575Zm68.287-1.621-.332-.08q.122-.5.26-1l.329.092Q278.235,307.455,278.114,307.954Zm-2.631-.235q-.181-.48-.367-.953l.318-.124q.186.475.368.957Zm-65.192-.131-.331-.083q.125-.5.256-.994l.33.088Q210.415,307.089,210.291,307.587ZM278.668,306l-.324-.107q.162-.493.343-.972l.319.121Q278.828,305.512,278.668,306Zm-3.93-.182q-.193-.475-.39-.944l.315-.132q.2.471.391.948Zm-63.921-.2-.329-.093q.141-.5.288-.985l.327.1Q210.957,305.121,210.817,305.614Zm68.572-1.514-.313-.136c.137-.317.284-.632.434-.936l.306.151C279.667,303.479,279.523,303.788,279.388,304.1Zm-5.441-.167q-.2-.47-.412-.934l.311-.14q.209.466.414.938Zm-62.543-.273-.325-.1q.157-.492.319-.975l.323.109Q211.559,303.17,211.4,303.659Zm68.886-1.375-.3-.168c.169-.3.348-.6.533-.886l.287.184C280.631,301.7,280.455,301.99,280.29,302.284Zm-7.18-.215q-.216-.465-.436-.924l.307-.148q.222.461.438.927Zm-61.055-.345-.322-.114q.172-.487.351-.965l.319.12Q212.226,301.241,212.054,301.725Zm69.329-1.149-.277-.2c.2-.28.415-.555.631-.818l.264.216C281.79,300.032,281.582,300.3,281.384,300.576Zm-9.159-.347q-.227-.459-.461-.911l.3-.156q.234.455.463.915Zm-59.456-.416-.317-.125q.189-.48.383-.952l.315.13Q212.956,299.336,212.769,299.813Zm69.9-.8-.25-.232c.232-.25.476-.5.724-.736l.236.246C283.132,298.523,282.893,298.766,282.666,299.012Zm-11.374-.6q-.24-.453-.486-.9l.3-.164q.246.448.488.9Zm-57.745-.486-.313-.136q.2-.474.416-.939l.311.141Q213.75,297.455,213.546,297.926Zm70.581-.315-.22-.26c.261-.221.532-.438.806-.645l.205.273C284.649,297.182,284.383,297.395,284.127,297.612Zm-13.82-.989q-.253-.445-.511-.884l.294-.173q.26.441.514.889Zm15.437-.229-.189-.284c.284-.189.578-.374.875-.548l.173.294C286.312,296.027,286.023,296.208,285.745,296.394Zm-71.356-.327-.308-.146q.222-.467.448-.924l.306.152Q214.609,295.6,214.389,296.067Zm73.1-.7-.158-.3c.3-.156.611-.308.926-.453l.143.31C288.091,295.06,287.784,295.21,287.49,295.363Zm-18.218-.5q-.267-.437-.537-.868l.289-.182q.272.433.539.872Zm20.06-.347-.128-.316q.471-.19.964-.365l.114.321Q289.8,294.327,289.333,294.515Zm-74.038-.277-.3-.157q.237-.459.48-.908l.3.162Q215.53,293.782,215.295,294.238Zm75.953-.4-.1-.326q.29-.089.587-.173l.009-.17.341.016-.023.416-.118.033Q291.59,293.731,291.248,293.836Zm-23.062-.7q-.278-.429-.562-.851l.283-.19q.286.425.566.856Zm-51.922-.691-.3-.167q.253-.45.511-.89l.294.173Q216.516,291.994,216.264,292.442Zm75.861-.285-.341-.01q.015-.513.018-1.02l.341,0Q292.14,291.64,292.125,292.157Zm-25.078-.717q-.292-.42-.59-.833l.277-.2q.3.416.592.838Zm-49.75-.758-.291-.178q.269-.441.543-.872l.288.183Q217.564,290.244,217.3,290.682Zm74.5-.574q-.009-.512-.031-1.018l.341-.015q.022.51.031,1.027Zm-25.94-.325q-.306-.411-.616-.814l.271-.208q.312.406.619.818Zm-47.465-.824-.285-.188q.285-.431.574-.852l.281.193Q218.674,288.53,218.391,288.959Zm46.219-.794q-.319-.4-.643-.793l.263-.217q.326.4.646.8Zm27.1-.093q-.036-.511-.086-1.015l.34-.034q.05.509.087,1.025Zm-72.16-.8-.278-.2q.3-.421.6-.831l.274.2Q219.844,286.857,219.546,287.276Zm140.195-.283-.123-.137.253-.229.126.139Zm-96.43-.4q-.331-.389-.669-.77l.256-.226q.339.384.673.775Zm95.616-.486q-.348-.374-.7-.742l.246-.236q.356.37.706.746Zm-67.423-.058q-.067-.507-.148-1.007l.336-.055q.082.505.15,1.018Zm-70.743-.41-.271-.208q.315-.41.633-.808l.267.213Q221.074,285.228,220.761,285.636Zm41.2-.575q-.345-.377-.7-.747l.248-.235q.353.372.7.751Zm95.551-.43q-.359-.363-.725-.721l.238-.244q.367.36.729.725Zm-135.478-.59-.263-.218q.331-.4.662-.785l.259.222Q222.361,283.643,222.033,284.04Zm69.14,0q-.1-.5-.217-.994l.332-.079q.119.5.219,1.006Zm-30.613-.457q-.356-.364-.718-.72l.239-.243q.364.359.723.724Zm95.491-.381q-.371-.352-.746-.7l.231-.25q.378.349.75.7Zm-132.688-.708-.255-.227q.345-.387.69-.761l.25.232Q223.706,282.106,223.363,282.491Zm35.746-.339q-.37-.351-.744-.695l.231-.251q.377.346.749.7Zm31.593-.093q-.137-.491-.291-.974l.325-.1q.158.489.3.987Zm63.845-.249q-.38-.341-.766-.678l.225-.257q.387.338.769.681Zm-129.8-.82-.247-.236q.359-.375.717-.735l.243.24Q225.105,280.618,224.748,280.991Zm32.861-.215q-.382-.338-.769-.668l.221-.26q.39.333.774.672Zm95.4-.31q-.39-.331-.785-.656l.217-.263q.4.327.788.659Zm-62.927-.343q-.177-.479-.372-.947l.315-.132q.2.475.377.961Zm-63.894-.582-.238-.245q.373-.362.743-.709l.233.249Q226.556,279.182,226.186,279.542Zm29.873-.089q-.394-.324-.793-.641l.212-.267q.4.319.8.645Zm95.368-.287q-.4-.32-.8-.634l.209-.269q.406.316.807.637Zm-62.132-.918c-.143-.3-.3-.609-.453-.908l.3-.159c.16.3.315.613.46.922Zm-34.834-.063q-.405-.31-.817-.612l.2-.275q.414.3.821.616Zm-26.785-.04-.229-.253q.386-.349.768-.682l.224.257Q228.06,277.8,227.676,278.145Zm122.137-.236q-.407-.308-.82-.612l.2-.275q.415.305.824.615Zm-97-.934q-.416-.3-.838-.583l.193-.282q.424.29.843.587Zm-23.6-.171-.219-.261q.4-.336.793-.654l.215.265Q229.613,276.47,229.215,276.8Zm118.949-.107q-.416-.3-.836-.59l.2-.28q.421.294.839.592Zm-59.817-.241c-.169-.287-.349-.577-.535-.862l.286-.187c.189.289.372.584.544.876Zm-37.217-.633q-.427-.281-.859-.554l.182-.289q.436.275.864.557Zm95.355-.3q-.424-.287-.851-.568l.187-.285q.429.283.855.57ZM230.8,275.519l-.21-.269q.414-.322.817-.624l.2.273Q231.215,275.2,230.8,275.519Zm56.434-.762c-.2-.272-.4-.543-.614-.808l.267-.213c.214.268.424.545.624.821ZM249.4,274.73q-.437-.266-.879-.524l.172-.294q.445.259.884.527Zm95.374-.328q-.432-.276-.865-.546l.18-.29q.436.271.869.548Zm-112.339-.108-.2-.277q.428-.308.84-.593l.194.28Q232.864,273.988,232.437,274.294Zm15.2-.6q-.445-.25-.9-.493l.162-.3q.453.244.9.5Zm95.4-.377q-.437-.265-.879-.524l.173-.294q.442.261.882.526Zm-57.067-.149c-.219-.25-.45-.5-.686-.748l.246-.236c.24.25.475.505.7.759Zm-51.854-.039-.189-.285q.444-.294.863-.559l.183.288Q234.56,272.84,234.118,273.133Zm11.715-.405q-.453-.234-.911-.461l.151-.306q.461.228.916.463Zm95.442-.444q-.444-.254-.892-.5l.166-.3q.449.249.895.5Zm-105.43-.244-.177-.292q.466-.282.888-.522l.17.3Q236.307,271.761,235.845,272.039Zm8.16-.219q-.46-.219-.925-.431l.141-.311q.468.213.931.433Zm40.561-.113q-.365-.347-.75-.683l.224-.257q.392.341.762.694Zm54.921-.417q-.45-.243-.9-.48l.159-.3q.455.238.907.482Zm-101.869-.268-.163-.3c.34-.184.646-.343.914-.479l.154.3C238.258,270.683,237.955,270.841,237.618,271.023Zm4.528-.048q-.466-.2-.939-.4l.131-.315q.474.2.944.4Zm40.889-.6q-.393-.314-.806-.619l.2-.275q.419.309.817.627Zm54.639-.032q-.456-.232-.914-.459l.151-.306q.461.227.918.46Zm-97.412-.151q-.267-.106-.537-.211c-.056.024-.15.066-.281.125l-.142-.31c.417-.191.418-.191.5-.151.187.072.389.15.59.231Zm95.578-.755q-.461-.221-.925-.436l.144-.31q.466.217.928.438Zm-54.441-.268q-.417-.283-.852-.555l.181-.289q.441.276.862.562Zm52.587-.595q-.466-.21-.935-.415l.136-.313q.47.205.938.416Zm-54.309-.485q-.436-.252-.889-.5l.161-.3q.459.246.9.5Zm52.435-.333q-.471-.2-.944-.393l.129-.316q.475.194.947.394Zm-54.228-.627q-.451-.223-.919-.438l.143-.31q.472.217.928.442Zm52.336-.147q-.475-.188-.952-.371l.122-.319q.479.183.956.372Zm-54.187-.7q-.463-.2-.943-.386l.125-.317q.483.191.951.39Zm52.278-.029q-.479-.177-.96-.349l.115-.321q.483.173.964.35Zm-1.924-.687q-.484-.166-.968-.327l.107-.324q.487.161.972.328Zm-52.249-.032q-.473-.173-.962-.339l.11-.323q.491.167.969.342Zm50.309-.611q-.486-.155-.975-.305l.1-.326q.49.15.979.306Zm-51.1-.074-.12-.319q.48-.18.964-.352l.114.321Q273.821,264.665,273.345,264.844Zm49.148-.525q-.49-.145-.981-.283l.092-.328q.493.14.985.284Zm-47.226-.158-.109-.323q.486-.163.975-.318l.1.325Q275.75,264,275.267,264.161Zm45.261-.4q-.494-.133-.988-.261l.085-.33q.5.128.991.262Zm-43.316-.219-.1-.327q.491-.147.985-.286l.092.329Q277.7,263.4,277.211,263.544Zm41.339-.291q-.5-.122-.992-.239l.078-.332q.5.117,1,.24Zm-39.375-.262-.087-.33q.5-.131.993-.254l.082.331Q279.668,262.861,279.175,262.991Zm37.388-.2q-.5-.111-1-.216l.071-.334q.5.105,1,.217Zm-35.407-.287-.077-.333q.5-.115,1-.223l.072.334Q281.652,262.386,281.156,262.5Zm33.41-.134q-.5-.1-1-.193l.063-.335q.5.094,1.006.194Zm-31.415-.294-.067-.334q.5-.1,1.007-.193l.061.335Q283.65,261.973,283.15,262.072Zm29.41-.081q-.5-.088-1.006-.17l.055-.337q.5.083,1.009.171Zm-27.4-.288-.057-.336q.5-.085,1.012-.163l.052.337Q285.66,261.619,285.157,261.7Zm25.39-.042q-.5-.077-1.009-.147l.047-.338q.507.071,1.013.148Zm-23.373-.268-.047-.338q.507-.071,1.017-.134l.042.339Q287.679,261.323,287.174,261.393Zm21.353-.015q-.506-.065-1.012-.124l.039-.339q.508.059,1.016.125Zm-2.025-.236q-.507-.053-1.014-.1l.031-.34q.509.048,1.018.1Zm-17.3,0-.037-.339q.509-.056,1.02-.106l.033.339Q289.706,261.085,289.2,261.141Zm15.273-.187q-.508-.041-1.016-.076l.023-.341q.51.035,1.02.076Zm-13.241-.009-.028-.34q.51-.042,1.022-.078l.023.341Q291.739,260.9,291.231,260.944Zm11.208-.131q-.509-.029-1.017-.051l.015-.341q.51.023,1.021.052Zm-9.172-.011-.019-.341q.511-.029,1.024-.051l.015.341Q293.776,260.774,293.268,260.8Zm7.137-.08q-.509-.016-1.018-.027l.007-.341q.511.01,1.023.027Zm-5.1-.008-.011-.341q.512-.015,1.025-.024l.006.341Q295.817,260.7,295.307,260.715Zm3.06-.034-.642,0h-.377l0-.341h.379l.645,0Z" transform="translate(-169.502 -196.51)" fill="#fff"/>
            <path id="Trazado_1023614" data-name="Trazado 1023614" d="M325.822,340.954q-.024-.327-.05-.652l.34-.028q.027.327.05.655Zm-.139-1.669c-.032-.339-.065-.676-.1-1.013l.339-.037q.054.508.1,1.018Zm-.216-2.029q-.06-.508-.127-1.013l.339-.044q.066.508.127,1.017Zm-.266-2.025q-.073-.506-.152-1.01l.337-.053q.079.506.153,1.014Zm-.318-2.018q-.086-.5-.178-1.006l.336-.062q.093.5.179,1.01Zm-.37-2.009q-.1-.5-.2-1l.334-.071q.105.5.2,1Zm-.421-1.992q-.112-.5-.23-.992l.332-.079q.119.5.231,1Zm-.473-1.981q-.124-.494-.256-.986l.33-.088q.132.494.257.991Zm-.524-1.969c-.091-.327-.186-.654-.281-.979l.327-.1q.145.491.283.984Zm-.576-1.955q-.151-.487-.307-.972l.324-.105q.158.487.309.977Zm-.628-1.94q-.163-.483-.333-.964l.322-.114q.17.483.334.968Zm-.68-1.924q-.176-.479-.358-.955l.319-.122q.183.479.36.96Zm-.729-1.906q-.189-.475-.384-.946l.315-.13q.2.474.386.95Zm-.779-1.887q-.2-.469-.408-.937l.312-.138q.208.469.41.94Zm-.828-1.868q-.213-.465-.433-.926l.308-.146q.22.464.434.93ZM318,311.935q-.225-.459-.456-.915l.3-.154q.232.458.458.919Zm-.923-1.825q-.236-.453-.478-.9l.3-.162q.244.453.48.908Zm-.968-1.8q-.247-.447-.5-.892l.3-.169q.254.447.5.9Zm-1.013-1.779q-.258-.441-.523-.88l.292-.176q.265.441.525.884Zm-1.056-1.754q-.268-.435-.544-.868l.288-.183q.276.435.546.871Zm-1.1-1.73q-.279-.428-.564-.855l.284-.19q.286.428.566.859Zm-1.137-1.7q-.289-.422-.584-.843l.279-.2q.3.422.586.846Zm-1.176-1.679q-.3-.416-.6-.83l.275-.2q.305.416.6.833Zm-1.214-1.653q-.307-.408-.618-.813l.271-.208q.313.407.62.817Zm-1.245-1.62q-.315-.4-.635-.8l.266-.214q.321.4.638.8Zm-1.279-1.595q-.323-.395-.651-.787l.262-.219q.33.394.653.79Zm-1.311-1.568q-.331-.389-.667-.774l.257-.224q.337.387.669.777Zm-1.341-1.542q-.339-.382-.682-.761l.253-.229q.344.381.684.764Zm-1.372-1.516q-.346-.375-.7-.748l.248-.234q.352.374.7.75Zm-1.4-1.49q-.353-.368-.71-.735l.245-.238q.358.367.712.737Z" transform="translate(-230.658 -214.541)" fill="#fff"/>
            <path id="Trazado_1023615" data-name="Trazado 1023615" d="M473.34,386.6q-.159-.489-.323-.968l.322-.111q.165.481.325.973Zm-41.456-.045q-.023-.472-.038-.94l.341-.011q.015.466.037.935Zm40.792-1.884q-.177-.483-.359-.955l.319-.123q.183.475.361.961Zm-40.855-.082q-.009-.515-.009-1.026h.341q0,.508.009,1.021Zm40.121-1.821q-.195-.477-.394-.941l.313-.135q.2.467.4.947Zm-39.781-.226-.341-.005q.008-.515.025-1.026l.341.011Q432.168,382.026,432.16,382.538Zm38.975-1.647q-.213-.468-.432-.924l.308-.148q.22.459.434.931Zm-38.907-.392-.341-.017q.026-.515.061-1.025l.341.023Q432.253,379.986,432.227,380.5Zm38.026-1.446q-.232-.459-.47-.9l.3-.161q.24.449.473.911Zm-37.886-.59-.34-.03q.045-.513.1-1.022l.339.036Q432.412,377.952,432.368,378.462Zm36.928-1.21q-.251-.448-.508-.883l.294-.174q.259.438.513.89Zm-36.711-.82-.338-.043q.064-.512.138-1.018l.338.05Q432.648,375.925,432.584,376.432Zm35.675-.936q-.271-.437-.548-.859l.286-.187q.278.426.552.866Zm-35.38-1.083-.336-.056q.085-.509.18-1.011l.335.064Q432.963,373.909,432.879,374.414Zm34.263-.622q-.291-.423-.588-.832l.277-.2q.3.412.593.839Zm-33.886-1.383-.334-.07q.105-.5.221-1l.333.077Q433.361,371.91,433.256,372.409Zm32.69-.267q-.311-.408-.628-.8l.266-.214q.319.4.633.809Zm-1.276-1.588q-.332-.393-.668-.769l.255-.227q.339.38.674.776Zm-30.953-.127-.331-.084q.127-.5.264-.991l.329.092Q433.843,369.932,433.717,370.426Zm29.6-1.394q-.352-.375-.707-.734l.243-.24q.358.362.713.74Zm-29.051-.567-.327-.1q.149-.492.309-.978l.324.106Q434.411,367.977,434.264,368.465Zm27.619-.882q-.37-.356-.744-.7l.23-.252q.376.343.751.7ZM434.9,366.53l-.322-.114q.171-.485.353-.964l.319.121Q435.069,366.05,434.9,366.53Zm25.476-.319q-.389-.336-.78-.655l.216-.264q.395.322.787.661Zm-1.577-1.289q-.408-.315-.815-.613l.2-.275q.411.3.822.618Zm-23.176-.3-.316-.129q.193-.476.4-.947l.313.136Q435.814,364.154,435.622,364.626Zm21.531-.907q-.424-.293-.846-.568l.187-.286q.425.277.854.573Zm-20.718-.962-.309-.144q.216-.466.443-.927l.306.15Q436.649,362.295,436.434,362.758Zm19.011-.15q-.439-.27-.876-.521l.171-.3q.44.254.884.526Zm-1.765-1.019q-.454-.246-.9-.473l.155-.3q.453.23.911.478Zm-16.344-.66-.3-.158q.238-.456.487-.905l.3.165Q437.571,360.478,437.335,360.929Zm14.527-.263q-.468-.222-.927-.425l.138-.312q.463.2.935.428ZM450,359.842q-.481-.2-.949-.375l.121-.319q.472.179.957.378Zm-11.675-.7-.294-.172q.259-.444.529-.881l.291.179Q438.579,358.7,438.322,359.145Zm9.768-.026q-.492-.172-.967-.323l.1-.325q.479.153.976.326Zm-1.943-.62q-.506-.146-.984-.27l.086-.33c.321.084.653.174.993.273Zm-1.975-.513q-.522-.12-1-.214l.067-.334q.48.1,1.008.216Zm-2-.4c-.368-.062-.706-.112-1.009-.152l.045-.338c.306.041.648.091,1.021.154Zm-2.777-.178-.286-.187.194-.3.094,0c.011,0,.284.007.782.052l-.031.34c-.32-.029-.547-.042-.665-.047Z" transform="translate(-316.995 -260.142)" fill="#fff"/>
          </g>
          <g id="Grupo_1180755" data-name="Grupo 1180755" transform="translate(68.686 11.557)">
            <g id="Grupo_1180748" data-name="Grupo 1180748" transform="translate(53.646)">
              <path id="Trazado_1023616" data-name="Trazado 1023616" d="M413.407,63.4c0,5.758-7.312,16.488-8.481,16.488s-8.481-10.472-8.481-16.488a8.481,8.481,0,1,1,16.961,0Z" transform="translate(-396.446 -54.915)" fill="#e8615b"/>
              <circle id="Elipse_13712" data-name="Elipse 13712" cx="4.224" cy="4.224" r="4.224" transform="translate(3.405 11.726) rotate(-76.714)" fill="#fff"/>
              <path id="Trazado_1023617" data-name="Trazado 1023617" d="M412.815,75.964a4.395,4.395,0,1,1,0-8.789v.341a4.053,4.053,0,1,0,4.053,4.053h.341A4.4,4.4,0,0,1,412.815,75.964Z" transform="translate(-404.334 -62.992)" fill="#162e4c"/>
            </g>
            <g id="Grupo_1180749" data-name="Grupo 1180749" transform="translate(12.637 54.583)">
              <path id="Trazado_1023618" data-name="Trazado 1023618" d="M293.222,223.36c0,5.758-7.312,16.488-8.481,16.488s-8.481-10.472-8.481-16.488a8.481,8.481,0,0,1,16.961,0Z" transform="translate(-276.261 -214.879)" fill="#e8615b"/>
              <circle id="Elipse_13713" data-name="Elipse 13713" cx="4.224" cy="4.224" r="4.224" transform="translate(3.4 11.726) rotate(-76.714)" fill="#fff"/>
              <path id="Trazado_1023619" data-name="Trazado 1023619" d="M292.631,235.928a4.395,4.395,0,0,1,0-8.789v.341a4.053,4.053,0,1,0,4.054,4.053h.341A4.4,4.4,0,0,1,292.631,235.928Z" transform="translate(-284.15 -222.956)" fill="#162e4c"/>
            </g>
            <g id="Grupo_1180750" data-name="Grupo 1180750" transform="translate(66.61 83.548)">
              <path id="Trazado_1023620" data-name="Trazado 1023620" d="M447.8,306.45c0,4.538-5.762,12.994-6.683,12.994s-6.683-8.253-6.683-12.994a6.683,6.683,0,0,1,13.366,0Z" transform="translate(-434.438 -299.767)" fill="#e8615b"/>
              <circle id="Elipse_13714" data-name="Elipse 13714" cx="3.329" cy="3.329" r="3.329" transform="translate(3.354 3.431)" fill="#fff"/>
              <path id="Trazado_1023621" data-name="Trazado 1023621" d="M447.268,316.32a3.5,3.5,0,1,1,0-7v.341a3.158,3.158,0,1,0,3.158,3.158h.341A3.5,3.5,0,0,1,447.268,316.32Z" transform="translate(-440.584 -306.061)" fill="#162e4c"/>
            </g>
            <g id="Grupo_1180751" data-name="Grupo 1180751" transform="translate(11.124 6.423)">
              <path id="Trazado_1023622" data-name="Trazado 1023622" d="M285.193,80.423c0,4.538-5.762,12.994-6.683,12.994s-6.683-8.253-6.683-12.994a6.683,6.683,0,1,1,13.366,0Z" transform="translate(-271.827 -73.74)" fill="#e8615b"/>
              <circle id="Elipse_13715" data-name="Elipse 13715" cx="3.329" cy="3.329" r="3.329" transform="translate(3.354 3.431)" fill="#fff"/>
              <path id="Trazado_1023623" data-name="Trazado 1023623" d="M284.658,90.294a3.5,3.5,0,1,1,0-7v.341a3.158,3.158,0,1,0,3.158,3.158h.341A3.5,3.5,0,0,1,284.658,90.294Z" transform="translate(-277.974 -80.035)" fill="#162e4c"/>
            </g>
            <g id="Grupo_1180752" data-name="Grupo 1180752" transform="translate(0 38.637)">
              <path id="Trazado_1023624" data-name="Trazado 1023624" d="M247.932,172.5c0,2.955-3.753,8.463-4.353,8.463s-4.353-5.375-4.353-8.463a4.353,4.353,0,1,1,8.705,0Z" transform="translate(-239.227 -168.147)" fill="#e8615b"/>
              <path id="Trazado_1023625" data-name="Trazado 1023625" d="M249.964,176.863A2.168,2.168,0,1,1,247.8,174.7,2.168,2.168,0,0,1,249.964,176.863Z" transform="translate(-243.444 -172.461)" fill="#fff"/>
              <path id="Trazado_1023626" data-name="Trazado 1023626" d="M247.468,178.871a2.339,2.339,0,0,1,0-4.677v.341a2,2,0,1,0,2,2h.341A2.341,2.341,0,0,1,247.468,178.871Z" transform="translate(-243.115 -172.131)" fill="#162e4c"/>
            </g>
            <g id="Grupo_1180753" data-name="Grupo 1180753" transform="translate(49.819 61.82)">
              <path id="Trazado_1023627" data-name="Trazado 1023627" d="M393.934,240.441c0,2.955-3.753,8.463-4.353,8.463s-4.353-5.375-4.353-8.463a4.353,4.353,0,1,1,8.705,0Z" transform="translate(-385.229 -236.088)" fill="#e8615b"/>
              <circle id="Elipse_13716" data-name="Elipse 13716" cx="2.168" cy="2.168" r="2.168" transform="translate(2.184 2.234)" fill="#fff"/>
              <path id="Trazado_1023628" data-name="Trazado 1023628" d="M393.47,246.812a2.339,2.339,0,0,1,0-4.677v.341a2,2,0,1,0,2,2h.341A2.341,2.341,0,0,1,393.47,246.812Z" transform="translate(-389.118 -240.072)" fill="#162e4c"/>
            </g>
            <g id="Grupo_1180754" data-name="Grupo 1180754" transform="translate(54.278 109.167)">
              <path id="Trazado_1023629" data-name="Trazado 1023629" d="M407,379.2c0,2.955-3.753,8.463-4.353,8.463s-4.353-5.375-4.353-8.463a4.353,4.353,0,1,1,8.705,0Z" transform="translate(-398.299 -374.848)" fill="#e8615b"/>
              <circle id="Elipse_13717" data-name="Elipse 13717" cx="2.168" cy="2.168" r="2.168" transform="translate(2.184 2.234)" fill="#fff"/>
              <path id="Trazado_1023630" data-name="Trazado 1023630" d="M406.539,385.574a2.339,2.339,0,0,1,0-4.677v.341a2,2,0,1,0,2,2h.341A2.342,2.342,0,0,1,406.539,385.574Z" transform="translate(-402.187 -378.833)" fill="#162e4c"/>
            </g>
          </g>
          <g id="Grupo_1180772" data-name="Grupo 1180772" transform="translate(4.483 37.657)">
            <g id="Grupo_1180763" data-name="Grupo 1180763" transform="translate(132.615 72.659)">
              <rect id="Rectángulo_456941" data-name="Rectángulo 456941" width="59.583" height="3.067" transform="translate(81.91 29.466) rotate(180)" fill="#fff"/>
              <path id="Trazado_1023631" data-name="Trazado 1023631" d="M496.746,371.383H559.6a1.348,1.348,0,0,0,1.349-1.349V345.7a1.348,1.348,0,0,0-1.349-1.348H496.746A1.348,1.348,0,0,0,495.4,345.7v24.339A1.349,1.349,0,0,0,496.746,371.383Z" transform="translate(-476.399 -344.347)" fill="#2f4a7f"/>
              <g id="Grupo_1180758" data-name="Grupo 1180758" transform="translate(0 11.715)">
                <path id="Trazado_1023632" data-name="Trazado 1023632" d="M452.033,386.151h6.33a.5.5,0,0,1,.5.5v6.408a.5.5,0,0,1-.5.5h-11.4a.5.5,0,0,1-.474-.647,15.979,15.979,0,0,1,2.959-5.552A3.366,3.366,0,0,1,452.033,386.151Z" transform="translate(-444.165 -383.602)" fill="#fff"/>
                <g id="Grupo_1180756" data-name="Grupo 1180756" transform="translate(2.759 2.087)">
                  <path id="Trazado_1023633" data-name="Trazado 1023633" d="M462.428,384.8,457.6,393.18h-3.442l4.828-8.383Z" transform="translate(-451.99 -384.797)" fill="#d9ebff"/>
                  <path id="Trazado_1023634" data-name="Trazado 1023634" d="M452.631,384.8h1.006l-4.828,8.383H447.8Z" transform="translate(-447.803 -384.797)" fill="#d9ebff"/>
                  <path id="Trazado_1023635" data-name="Trazado 1023635" d="M474.675,384.8h1.006l-4.828,8.383h-1.006Z" transform="translate(-462.325 -384.797)" fill="#d9ebff"/>
                </g>
                <path id="Trazado_1023636" data-name="Trazado 1023636" d="M440.461,397.483h17.27V378.689c-4.989-.095-9.288.508-11.247,1.742C444.126,381.882,440.453,387.615,440.461,397.483Zm2.073-9.5a15.973,15.973,0,0,1,2.96-5.552,3.365,3.365,0,0,1,2.581-1.2h6.33a.5.5,0,0,1,.5.5v6.408a.5.5,0,0,1-.5.5h-11.4A.5.5,0,0,1,442.534,387.984Z" transform="translate(-440.207 -378.68)" fill="#efac37"/>
                <rect id="Rectángulo_456942" data-name="Rectángulo 456942" width="11.461" height="0.341" transform="translate(6.063 1.701)" fill="#162e4c"/>
                <rect id="Rectángulo_456943" data-name="Rectángulo 456943" width="0.341" height="7.401" transform="translate(11.972 2.549)" fill="#162e4c"/>
                <rect id="Rectángulo_456944" data-name="Rectángulo 456944" width="2.83" height="2.83" transform="translate(2.83 19.166) rotate(180)" fill="#162e4c"/>
                <path id="Trazado_1023637" data-name="Trazado 1023637" d="M455.338,416.169H455a5.547,5.547,0,0,1,5.54-5.54h3.769v-3.585h.341v3.926h-4.111A5.205,5.205,0,0,0,455.338,416.169Z" transform="translate(-449.783 -397.366)" fill="#162e4c"/>
                <path id="Trazado_1023638" data-name="Trazado 1023638" d="M474.252,410.282h-1.6a.434.434,0,1,1,0-.867h1.6a.434.434,0,0,1,0,.867Zm-1.6-.526a.092.092,0,0,0,0,.185h1.6a.092.092,0,0,0,0-.185Z" transform="translate(-461.131 -398.928)" fill="#162e4c"/>
                <path id="Trazado_1023639" data-name="Trazado 1023639" d="M440.759,419.706h.308a.3.3,0,0,0,.3-.3v-1.273a.3.3,0,0,0-.3-.3h-.308a.3.3,0,0,0-.3.3v1.273A.3.3,0,0,0,440.759,419.706Z" transform="translate(-440.207 -404.476)" fill="#e8615b"/>
                <path id="Trazado_1023640" data-name="Trazado 1023640" d="M456.972,425.245a4.117,4.117,0,0,1,3.11-4.356,4.219,4.219,0,0,1,4.74,3.59,4.99,4.99,0,0,1,.09.766h-7.94Z" transform="translate(-451.082 -406.442)" fill="#ce7602"/>
                <g id="Grupo_1180757" data-name="Grupo 1180757" transform="translate(6.141 14.795)">
                  <ellipse id="Elipse_13718" data-name="Elipse 13718" cx="3.102" cy="3.483" rx="3.102" ry="3.483" transform="matrix(0.981, -0.194, 0.194, 0.981, 0, 1.201)" fill="#162e4c"/>
                  <path id="Trazado_1023641" data-name="Trazado 1023641" d="M464.9,431.288a1.28,1.28,0,1,0,.971-1.646A1.356,1.356,0,0,0,464.9,431.288Z" transform="translate(-462.429 -427.033)" fill="#fff"/>
                  <path id="Trazado_1023642" data-name="Trazado 1023642" d="M466.59,432.7a1.15,1.15,0,0,1-1.083-.964h0a1.234,1.234,0,0,1,.14-.866,1,1,0,0,1,1.489-.294,1.232,1.232,0,0,1,.459.748,1.125,1.125,0,0,1-.817,1.358A.978.978,0,0,1,466.59,432.7Zm-.077-2a.621.621,0,0,0-.123.012.673.673,0,0,0-.449.33.893.893,0,0,0-.1.627h0a.73.73,0,1,0,1.418-.28.893.893,0,0,0-.33-.542A.692.692,0,0,0,466.513,430.7Z" transform="translate(-462.832 -427.518)" fill="#162e4c"/>
                </g>
              </g>
              <rect id="Rectángulo_456945" data-name="Rectángulo 456945" width="1.475" height="10.268" transform="translate(18.999 25.439) rotate(180)" fill="#162e4c"/>
              <path id="Trazado_1023643" data-name="Trazado 1023643" d="M609.546,425.37H597.159v-1.789h.341v1.448h11.7v-1.448h.341Z" transform="translate(-543.437 -396.545)" fill="#162e4c"/>
              <rect id="Rectángulo_456946" data-name="Rectángulo 456946" width="17.077" height="0.773" transform="translate(49.176 27.809) rotate(180)" fill="#162e4c"/>
              <g id="Grupo_1180759" data-name="Grupo 1180759" transform="translate(21.301 3.378)">
                <rect id="Rectángulo_456947" data-name="Rectángulo 456947" width="0.341" height="20.279" transform="translate(60.61)" fill="#162e4c"/>
                <rect id="Rectángulo_456948" data-name="Rectángulo 456948" width="0.341" height="20.279" transform="translate(55.1)" fill="#162e4c"/>
                <rect id="Rectángulo_456949" data-name="Rectángulo 456949" width="0.341" height="20.279" transform="translate(49.59)" fill="#162e4c"/>
                <rect id="Rectángulo_456950" data-name="Rectángulo 456950" width="0.341" height="20.279" transform="translate(44.08)" fill="#162e4c"/>
                <rect id="Rectángulo_456951" data-name="Rectángulo 456951" width="0.341" height="20.279" transform="translate(38.57)" fill="#162e4c"/>
                <rect id="Rectángulo_456952" data-name="Rectángulo 456952" width="0.341" height="20.279" transform="translate(33.06)" fill="#162e4c"/>
                <rect id="Rectángulo_456953" data-name="Rectángulo 456953" width="0.341" height="20.279" transform="translate(27.55)" fill="#162e4c"/>
                <rect id="Rectángulo_456954" data-name="Rectángulo 456954" width="0.341" height="20.279" transform="translate(22.04)" fill="#162e4c"/>
                <rect id="Rectángulo_456955" data-name="Rectángulo 456955" width="0.341" height="20.279" transform="translate(16.53)" fill="#162e4c"/>
                <rect id="Rectángulo_456956" data-name="Rectángulo 456956" width="0.341" height="20.279" transform="translate(11.02)" fill="#162e4c"/>
                <rect id="Rectángulo_456957" data-name="Rectángulo 456957" width="0.341" height="20.279" transform="translate(5.51)" fill="#162e4c"/>
                <rect id="Rectángulo_456958" data-name="Rectángulo 456958" width="0.341" height="20.279" fill="#162e4c"/>
              </g>
              <path id="Trazado_1023644" data-name="Trazado 1023644" d="M564.573,426.182H504.649v-2.6h.341v2.26h59.242v-2.26h.341Z" transform="translate(-482.493 -396.545)" fill="#162e4c"/>
              <g id="Grupo_1180760" data-name="Grupo 1180760" transform="translate(23.649 27.048)">
                <path id="Trazado_1023645" data-name="Trazado 1023645" d="M509.1,427.688a3.123,3.123,0,1,0,2.369-4.018A3.309,3.309,0,0,0,509.1,427.688Z" transform="translate(-509.026 -423.617)" fill="#162e4c"/>
                <path id="Trazado_1023646" data-name="Trazado 1023646" d="M514.451,431.288a1.28,1.28,0,1,0,.971-1.646A1.356,1.356,0,0,0,514.451,431.288Z" transform="translate(-512.58 -427.572)" fill="#fff"/>
                <path id="Trazado_1023647" data-name="Trazado 1023647" d="M516.141,432.7a1.15,1.15,0,0,1-1.083-.964,1.233,1.233,0,0,1,.14-.866,1,1,0,0,1,1.49-.294,1.231,1.231,0,0,1,.458.748,1.125,1.125,0,0,1-.817,1.358A.974.974,0,0,1,516.141,432.7Zm-.078-2a.621.621,0,0,0-.123.012.673.673,0,0,0-.449.33.893.893,0,0,0-.1.627h0a.73.73,0,1,0,1.418-.28.893.893,0,0,0-.33-.542A.691.691,0,0,0,516.063,430.7Z" transform="translate(-512.983 -428.057)" fill="#162e4c"/>
              </g>
              <g id="Grupo_1180761" data-name="Grupo 1180761" transform="translate(67.18 26.512)">
                <ellipse id="Elipse_13719" data-name="Elipse 13719" cx="3.102" cy="3.483" rx="3.102" ry="3.483" transform="matrix(0.981, -0.194, 0.194, 0.981, 0, 1.201)" fill="#162e4c"/>
                <path id="Trazado_1023648" data-name="Trazado 1023648" d="M643.781,431.288a1.28,1.28,0,1,0,.971-1.646A1.356,1.356,0,0,0,643.781,431.288Z" transform="translate(-641.311 -427.036)" fill="#fff"/>
                <path id="Trazado_1023649" data-name="Trazado 1023649" d="M645.471,432.7a1.15,1.15,0,0,1-1.083-.964h0a1.125,1.125,0,0,1,.817-1.358,1.011,1.011,0,0,1,.813.2,1.232,1.232,0,0,1,.459.748,1.124,1.124,0,0,1-.817,1.358A.981.981,0,0,1,645.471,432.7Zm-.749-1.03a.73.73,0,1,0,1.419-.28.893.893,0,0,0-.33-.542.671.671,0,0,0-.541-.134.785.785,0,0,0-.548.957Z" transform="translate(-641.714 -427.52)" fill="#162e4c"/>
              </g>
              <g id="Grupo_1180762" data-name="Grupo 1180762" transform="translate(74.009 26.512)">
                <ellipse id="Elipse_13720" data-name="Elipse 13720" cx="3.102" cy="3.483" rx="3.102" ry="3.483" transform="matrix(0.981, -0.194, 0.194, 0.981, 0, 1.201)" fill="#162e4c"/>
                <path id="Trazado_1023650" data-name="Trazado 1023650" d="M663.793,431.288a1.28,1.28,0,1,0,.971-1.646A1.356,1.356,0,0,0,663.793,431.288Z" transform="translate(-661.323 -427.036)" fill="#fff"/>
                <path id="Trazado_1023651" data-name="Trazado 1023651" d="M665.483,432.7a1.15,1.15,0,0,1-1.083-.964h0a1.234,1.234,0,0,1,.14-.866,1,1,0,0,1,1.49-.294,1.231,1.231,0,0,1,.458.748,1.124,1.124,0,0,1-.816,1.358A.977.977,0,0,1,665.483,432.7Zm-.078-2a.622.622,0,0,0-.123.012.673.673,0,0,0-.449.33.893.893,0,0,0-.1.627h0a.73.73,0,1,0,1.419-.28.891.891,0,0,0-.33-.542A.693.693,0,0,0,665.406,430.7Z" transform="translate(-661.727 -427.521)" fill="#162e4c"/>
              </g>
            </g>
            <g id="Grupo_1180769" data-name="Grupo 1180769" transform="translate(0 53.451)">
              <g id="Grupo_1180764" data-name="Grupo 1180764" transform="translate(4.665)">
                <path id="Trazado_1023652" data-name="Trazado 1023652" d="M91.8,339.142V326H89.276v-8.566H86.5v-8.27H87.51v-2.3H68.539v2.3h.912v29.98Z" transform="translate(-67.243 -300.445)" fill="#fff"/>
                <rect id="Rectángulo_456959" data-name="Rectángulo 456959" width="17.05" height="0.341" transform="translate(2.209 8.547)" fill="#162e4c"/>
                <rect id="Rectángulo_456960" data-name="Rectángulo 456960" width="17.05" height="0.341" transform="translate(2.209 16.817)" fill="#162e4c"/>
                <rect id="Rectángulo_456961" data-name="Rectángulo 456961" width="20.223" height="0.341" transform="translate(2.209 25.385)" fill="#162e4c"/>
                <rect id="Rectángulo_456962" data-name="Rectángulo 456962" width="3.448" height="1.925" transform="translate(18.083 13.241) rotate(180)" fill="#2f4a7f"/>
                <rect id="Rectángulo_456963" data-name="Rectángulo 456963" width="0.906" height="1.925" transform="translate(20.495 21.345) rotate(180)" fill="#2f4a7f"/>
                <rect id="Rectángulo_456964" data-name="Rectángulo 456964" width="0.906" height="1.925" transform="translate(4.29 21.345) rotate(180)" fill="#2f4a7f"/>
                <rect id="Rectángulo_456965" data-name="Rectángulo 456965" width="0.906" height="1.925" transform="translate(10.772 21.345) rotate(180)" fill="#2f4a7f"/>
                <rect id="Rectángulo_456966" data-name="Rectángulo 456966" width="0.906" height="1.925" transform="translate(7.531 21.345) rotate(180)" fill="#2f4a7f"/>
                <rect id="Rectángulo_456967" data-name="Rectángulo 456967" width="0.906" height="1.184" transform="translate(4.29 28.655) rotate(180)" fill="#2f4a7f"/>
                <rect id="Rectángulo_456968" data-name="Rectángulo 456968" width="1.914" height="2.746" transform="translate(6.361 38.697) rotate(180)" fill="#2f4a7f"/>
                <rect id="Rectángulo_456969" data-name="Rectángulo 456969" width="0.906" height="1.184" transform="translate(7.531 28.655) rotate(180)" fill="#2f4a7f"/>
                <rect id="Rectángulo_456970" data-name="Rectángulo 456970" width="0.906" height="1.184" transform="translate(10.772 28.655) rotate(180)" fill="#2f4a7f"/>
                <rect id="Rectángulo_456971" data-name="Rectángulo 456971" width="0.906" height="1.184" transform="translate(14.013 28.655) rotate(180)" fill="#2f4a7f"/>
                <rect id="Rectángulo_456972" data-name="Rectángulo 456972" width="0.906" height="1.184" transform="translate(17.254 28.655) rotate(180)" fill="#2f4a7f"/>
                <rect id="Rectángulo_456973" data-name="Rectángulo 456973" width="0.906" height="1.184" transform="translate(20.495 28.655) rotate(180)" fill="#2f4a7f"/>
                <rect id="Rectángulo_456974" data-name="Rectángulo 456974" width="0.906" height="1.925" transform="translate(17.254 21.345) rotate(180)" fill="#2f4a7f"/>
                <rect id="Rectángulo_456975" data-name="Rectángulo 456975" width="0.906" height="1.925" transform="translate(14.013 21.345) rotate(180)" fill="#2f4a7f"/>
                <rect id="Rectángulo_456976" data-name="Rectángulo 456976" width="3.448" height="1.925" transform="translate(12.457 13.241) rotate(180)" fill="#2f4a7f"/>
                <rect id="Rectángulo_456977" data-name="Rectángulo 456977" width="3.448" height="1.925" transform="translate(6.831 13.241) rotate(180)" fill="#2f4a7f"/>
                <path id="Trazado_1023653" data-name="Trazado 1023653" d="M65.081,363.506H64.74V343.847h2.209v.341H65.081Z" transform="translate(-64.74 -324.809)" fill="#162e4c"/>
                <path id="Trazado_1023654" data-name="Trazado 1023654" d="M84.984,304.349h-.341v-.961H78.326v.961h-.341v-1.3h7Z" transform="translate(-73.466 -297.931)" fill="#162e4c"/>
                <rect id="Rectángulo_456978" data-name="Rectángulo 456978" width="0.341" height="6.418" transform="translate(15.657)" fill="#162e4c"/>
                <path id="Trazado_1023655" data-name="Trazado 1023655" d="M69.293,338.813h-.341V309h-.912v-2.64H80.11v.341H68.38v1.958h.912Z" transform="translate(-66.913 -300.116)" fill="#162e4c"/>
              </g>
              <g id="Grupo_1180765" data-name="Grupo 1180765" transform="translate(89.183 22.76)">
                <rect id="Rectángulo_456979" data-name="Rectángulo 456979" width="7.35" height="2.496" transform="translate(7.35 9.543) rotate(180)" fill="#fff"/>
                <path id="Trazado_1023656" data-name="Trazado 1023656" d="M317.471,361.8h3.912l-1.295-7.048h-2.617Z" transform="translate(-315.752 -354.757)" fill="#fff"/>
                <rect id="Rectángulo_456980" data-name="Rectángulo 456980" width="4.092" height="0.341" transform="translate(1.629 6.877)" fill="#162e4c"/>
              </g>
              <g id="Grupo_1180767" data-name="Grupo 1180767" transform="translate(15.272 13.138)">
                <g id="Grupo_1180766" data-name="Grupo 1180766" transform="translate(17.206 11.13)">
                  <rect id="Rectángulo_456981" data-name="Rectángulo 456981" width="51.619" height="16.877" fill="#efac37"/>
                </g>
                <rect id="Rectángulo_456982" data-name="Rectángulo 456982" width="17.206" height="5.561" transform="translate(68.825 16.69) rotate(180)" fill="#e8615b"/>
                <rect id="Rectángulo_456983" data-name="Rectángulo 456983" width="17.206" height="5.561" transform="translate(34.412 11.129) rotate(180)" fill="#e8615b"/>
                <rect id="Rectángulo_456984" data-name="Rectángulo 456984" width="17.206" height="5.561" transform="translate(51.619 11.129) rotate(180)" fill="#e8615b"/>
                <rect id="Rectángulo_456985" data-name="Rectángulo 456985" width="17.206" height="5.561" transform="translate(17.206 27.697) rotate(180)" fill="#e8615b"/>
                <rect id="Rectángulo_456986" data-name="Rectángulo 456986" width="17.206" height="5.561" transform="translate(41.923 5.561) rotate(180)" fill="#efac37"/>
                <rect id="Rectángulo_456987" data-name="Rectángulo 456987" width="17.206" height="5.561" transform="translate(17.206 22.194) rotate(180)" fill="#efac37"/>
                <rect id="Rectángulo_456988" data-name="Rectángulo 456988" width="17.206" height="5.447" transform="translate(34.412 22.137) rotate(180)" fill="#e8615b"/>
                <rect id="Rectángulo_456989" data-name="Rectángulo 456989" width="51.619" height="0.341" transform="translate(17.206 16.519)" fill="#162e4c"/>
                <rect id="Rectángulo_456990" data-name="Rectángulo 456990" width="34.412" height="0.341" transform="translate(17.207 11.09)" fill="#162e4c"/>
                <rect id="Rectángulo_456991" data-name="Rectángulo 456991" width="68.825" height="0.341" transform="translate(0 21.966)" fill="#162e4c"/>
                <rect id="Rectángulo_456992" data-name="Rectángulo 456992" width="0.341" height="16.506" transform="translate(51.448 11.129)" fill="#162e4c"/>
                <rect id="Rectángulo_456993" data-name="Rectángulo 456993" width="0.341" height="22.074" transform="translate(34.242 5.561)" fill="#162e4c"/>
                <rect id="Rectángulo_456994" data-name="Rectángulo 456994" width="17.206" height="0.341" transform="translate(24.717 5.39)" fill="#162e4c"/>
              </g>
              <g id="Grupo_1180768" data-name="Grupo 1180768" transform="translate(0 32.304)">
                <path id="Trazado_1023657" data-name="Trazado 1023657" d="M127.7,385.4l-1.7,1.568a15.242,15.242,0,0,1-10.347,4.05H70.681a1.229,1.229,0,0,1-1.141-.773l-.187-.466a2.067,2.067,0,0,0-1.919-1.3H51.067l6.684,15.06h81.473l14.044-20.813H134.532A10.059,10.059,0,0,0,127.7,385.4Z" transform="translate(-51.067 -382.726)" fill="#2f4a7f"/>
                <path id="Trazado_1023658" data-name="Trazado 1023658" d="M59.647,418.918l.828,1.866h88.852l1.26-1.866Z" transform="translate(-56.719 -406.569)" fill="#e8615b"/>
                <rect id="Rectángulo_456995" data-name="Rectángulo 456995" width="22.295" height="0.341" transform="translate(66.116 8.044)" fill="#162e4c"/>
              </g>
              <rect id="Rectángulo_456996" data-name="Rectángulo 456996" width="4.086" height="0.341" transform="translate(18.45 2.76)" fill="#162e4c"/>
              <rect id="Rectángulo_456997" data-name="Rectángulo 456997" width="4.086" height="0.341" transform="translate(18.45 3.698)" fill="#162e4c"/>
              <rect id="Rectángulo_456998" data-name="Rectángulo 456998" width="4.086" height="0.341" transform="translate(18.45 4.749)" fill="#162e4c"/>
            </g>
            <g id="Grupo_1180771" data-name="Grupo 1180771" transform="translate(111.545)">
              <path id="Trazado_1023659" data-name="Trazado 1023659" d="M430.357,190.71l-5.54,13.911a1.1,1.1,0,0,0,.641,1.443l2.672.994a2.318,2.318,0,0,0,2.262-.367l13.993-11.268Z" transform="translate(-408.78 -170.475)" fill="#2f4a7f"/>
              <path id="Trazado_1023660" data-name="Trazado 1023660" d="M538.1,174.176l6.953-8.572c.978-1.174,2.434-.671,4.082-.008l-.92,13.541Z" transform="translate(-483.462 -153.471)" fill="#fff"/>
              <path id="Trazado_1023661" data-name="Trazado 1023661" d="M535.666,218.973l-1.483,2.455,2.774.824,5.383-3.787Z" transform="translate(-480.88 -188.759)" fill="#2f4a7f"/>
              <path id="Trazado_1023662" data-name="Trazado 1023662" d="M443.341,173.257a1.171,1.171,0,0,0,.967-1.269c-.254-2.174-2.281-3.845-5.785-5.1l-44.491-15.215c-4.979-1.47-9.086-1.128-12.8.865-3.68.069-5.163,4.518.494,6.33l42.294,14.212C428.966,175.019,436.226,174.531,443.341,173.257Z" transform="translate(-377.97 -144.162)" fill="#fff"/>
              <path id="Trazado_1023663" data-name="Trazado 1023663" d="M546.318,195.045a17.059,17.059,0,0,0-2.467-1.087l-5.911-2.021.11-.323,5.913,2.022a17.428,17.428,0,0,1,2.519,1.11Z" transform="translate(-483.355 -171.07)" fill="#162e4c"/>
              <g id="Grupo_1180770" data-name="Grupo 1180770" transform="translate(15.387 9.036)">
                <path id="Trazado_1023664" data-name="Trazado 1023664" d="M423.329,158.4a.255.255,0,0,1-.079-.013.263.263,0,0,1-.172-.326.249.249,0,0,1,.315-.167l.016.005a.256.256,0,0,1-.079.5Z" transform="translate(-423.065 -157.887)" fill="#162e4c"/>
                <path id="Trazado_1023665" data-name="Trazado 1023665" d="M465.581,172.719a.262.262,0,0,1-.082-.013l-.033-.011a.256.256,0,0,1,.163-.485l.033.011a.256.256,0,0,1-.082.5Zm-1.009-.342a.261.261,0,0,1-.082-.013l-.033-.011a.256.256,0,0,1,.163-.485l.033.011a.256.256,0,0,1-.082.5Zm-1.009-.342a.262.262,0,0,1-.082-.013l-.033-.011a.256.256,0,1,1,.163-.485l.033.011a.256.256,0,0,1-.082.5Zm-1.009-.342a.258.258,0,0,1-.083-.014l-.033-.011a.256.256,0,1,1,.165-.484l.033.011a.256.256,0,0,1-.083.5Zm-1.009-.342a.262.262,0,0,1-.082-.013l-.033-.011a.256.256,0,0,1,.163-.485l.033.011a.256.256,0,0,1-.082.5Zm-1.009-.342a.261.261,0,0,1-.081-.013l-.033-.011a.256.256,0,1,1,.163-.485l.033.011a.256.256,0,0,1-.082.5Zm-1.009-.342a.262.262,0,0,1-.082-.013l-.033-.011a.256.256,0,1,1,.163-.485l.033.011a.256.256,0,0,1-.082.5Zm-1.009-.342a.262.262,0,0,1-.082-.013l-.033-.011a.256.256,0,0,1,.163-.485l.033.011a.256.256,0,0,1-.082.5Zm-1.009-.342a.262.262,0,0,1-.082-.013l-.033-.011a.256.256,0,0,1,.163-.485l.033.011a.256.256,0,0,1-.082.5Zm-1.009-.342a.262.262,0,0,1-.082-.013l-.033-.011a.256.256,0,1,1,.163-.485l.033.011a.256.256,0,0,1-.082.5Zm-1.009-.341a.261.261,0,0,1-.082-.013l-.033-.011a.256.256,0,1,1,.163-.485l.033.011a.256.256,0,0,1-.082.5Zm-1.009-.342a.262.262,0,0,1-.082-.013l-.033-.011a.256.256,0,1,1,.163-.485l.033.011a.256.256,0,0,1-.082.5Zm-1.009-.342a.256.256,0,0,1-.082-.014l-.032-.011a.256.256,0,1,1,.165-.485l.032.011a.256.256,0,0,1-.082.5Zm-1.009-.342a.262.262,0,0,1-.082-.013l-.033-.011a.256.256,0,1,1,.163-.485l.033.011a.256.256,0,0,1-.082.5Zm-1.009-.342a.256.256,0,0,1-.084-.014l-.032-.011a.256.256,0,0,1,.167-.484l.032.011a.256.256,0,0,1-.084.5Zm-1.009-.342a.261.261,0,0,1-.082-.013l-.033-.011a.256.256,0,0,1,.163-.485l.033.011a.256.256,0,0,1-.082.5Zm-1.009-.342a.256.256,0,0,1-.084-.014l-.032-.011a.256.256,0,0,1,.167-.484l.032.011a.256.256,0,0,1-.084.5Zm-1.009-.342a.262.262,0,0,1-.082-.013l-.033-.011a.256.256,0,0,1,.163-.485l.033.011a.256.256,0,0,1-.082.5Zm-1.009-.342a.257.257,0,0,1-.082-.014l-.032-.011a.256.256,0,1,1,.164-.485l.032.011a.256.256,0,0,1-.082.5Zm-1.009-.342a.261.261,0,0,1-.082-.013l-.033-.011a.256.256,0,1,1,.163-.485l.033.011a.256.256,0,0,1-.082.5Zm-1.009-.342a.257.257,0,0,1-.082-.014l-.032-.011a.256.256,0,1,1,.164-.485l.032.011a.256.256,0,0,1-.082.5Zm-1.009-.342a.261.261,0,0,1-.082-.013l-.033-.011a.256.256,0,0,1,.163-.485l.033.011a.256.256,0,0,1-.082.5Zm-1.009-.342a.256.256,0,0,1-.082-.014l-.032-.011a.256.256,0,1,1,.164-.485l.032.011a.256.256,0,0,1-.082.5Zm-1.009-.342a.262.262,0,0,1-.082-.013l-.033-.011a.256.256,0,1,1,.163-.485l.033.011a.256.256,0,0,1-.082.5Zm-1.009-.342a.257.257,0,0,1-.082-.014l-.032-.011a.256.256,0,1,1,.164-.485l.032.011a.256.256,0,0,1-.082.5Zm-1.009-.342a.262.262,0,0,1-.082-.013l-.033-.011a.256.256,0,1,1,.163-.485l.033.011a.256.256,0,0,1-.082.5Zm-1.009-.342a.256.256,0,0,1-.082-.014l-.032-.011a.256.256,0,1,1,.164-.485l.032.011a.256.256,0,0,1-.082.5Zm-1.009-.342a.25.25,0,0,1-.083-.014l-.033-.011a.256.256,0,1,1,.165-.484l.033.011a.256.256,0,0,1-.083.5Zm-1.009-.342a.257.257,0,0,1-.082-.014l-.032-.011a.256.256,0,1,1,.164-.485l.032.011a.256.256,0,0,1-.082.5Zm-1.009-.342a.259.259,0,0,1-.083-.014l-.033-.011a.256.256,0,1,1,.165-.484l.033.011a.256.256,0,0,1-.083.5Zm-1.009-.342a.257.257,0,0,1-.082-.014l-.032-.011a.256.256,0,1,1,.164-.484l.032.011a.256.256,0,0,1-.082.5Zm-1.009-.342a.262.262,0,0,1-.082-.013l-.033-.011a.256.256,0,0,1,.163-.485l.033.011a.256.256,0,0,1-.082.5Zm-1.009-.342a.256.256,0,0,1-.082-.014l-.032-.011a.256.256,0,1,1,.164-.485l.032.011a.256.256,0,0,1-.082.5Zm-1.009-.342a.262.262,0,0,1-.082-.013l-.033-.011a.256.256,0,0,1,.163-.485l.033.011a.256.256,0,0,1-.082.5Zm-1.009-.342a.257.257,0,0,1-.082-.014l-.032-.011a.256.256,0,1,1,.164-.485l.032.011a.256.256,0,0,1-.082.5Zm-1.009-.342a.261.261,0,0,1-.082-.013l-.033-.011a.256.256,0,0,1,.163-.485l.033.011a.256.256,0,0,1-.082.5Zm-1.009-.342a.256.256,0,0,1-.082-.014l-.032-.011a.256.256,0,1,1,.164-.485l.032.011a.256.256,0,0,1-.082.5Zm-1.009-.342a.261.261,0,0,1-.082-.013l-.033-.011a.256.256,0,1,1,.163-.485l.033.011a.256.256,0,0,1-.082.5Zm-1.009-.342a.257.257,0,0,1-.082-.014l-.032-.011a.256.256,0,1,1,.164-.485l.032.011a.256.256,0,0,1-.082.5Zm-1.009-.342a.262.262,0,0,1-.082-.013l-.033-.011a.256.256,0,0,1,.163-.485l.033.011a.256.256,0,0,1-.082.5Z" transform="translate(-424.964 -158.536)" fill="#162e4c"/>
                <path id="Trazado_1023666" data-name="Trazado 1023666" d="M544.5,199.438a.26.26,0,0,1-.079-.013.264.264,0,0,1-.172-.326.249.249,0,0,1,.315-.167l.016.005a.256.256,0,0,1-.079.5Z" transform="translate(-502.89 -184.919)" fill="#162e4c"/>
              </g>
              <path id="Trazado_1023667" data-name="Trazado 1023667" d="M552.133,197.68l-7-2.527,13.21-5.108,4.065,1.345Z" transform="translate(-488.091 -170.037)" fill="#2f4a7f"/>
              <path id="Trazado_1023668" data-name="Trazado 1023668" d="M387.535,154.119a25.011,25.011,0,0,1,5.424.346l-.543-1.085a11.964,11.964,0,0,0-2.82-.181A13.474,13.474,0,0,0,387.535,154.119Z" transform="translate(-384.271 -145.742)" fill="#162e4c"/>
              <path id="Trazado_1023669" data-name="Trazado 1023669" d="M461.863,146.75l35.507-15.1a2.906,2.906,0,0,1,2.2-.048l3.592,1.376a.643.643,0,0,1,.122,1.139l-26.848,17.527Z" transform="translate(-433.237 -131.407)" fill="#2f4a7f"/>
              <rect id="Rectángulo_456999" data-name="Rectángulo 456999" width="0.341" height="60.6" transform="matrix(0.321, -0.947, 0.947, 0.321, 8.232, 8.567)" fill="#162e4c"/>
              <path id="Trazado_1023670" data-name="Trazado 1023670" d="M433.484,202.628l4.655,9.5-1.406,1.133-4.789-6.763Z" transform="translate(-413.526 -178.326)" fill="#efac37"/>
              <path id="Trazado_1023671" data-name="Trazado 1023671" d="M521.407,146.025l13.356,1.063,2.244-1.465-9.487-2.2Z" transform="translate(-472.464 -139.324)" fill="#efac37"/>
              <path id="Trazado_1023672" data-name="Trazado 1023672" d="M547.217,170.261l7.539.939.394-5.8-1.585-.494a2.776,2.776,0,0,0-3.042.978Z" transform="translate(-489.467 -153.39)" fill="#efac37"/>
              <path id="Trazado_1023673" data-name="Trazado 1023673" d="M547.217,178.5l7.436,2.453.1-1.514-6.621-2.154Z" transform="translate(-489.467 -161.633)" fill="#2f4a7f"/>
            </g>
          </g>
          <g id="Grupo_1180774" data-name="Grupo 1180774" transform="translate(1.247)">
            <g id="Grupo_1180773" data-name="Grupo 1180773" transform="translate(3.304 47.309)">
              <path id="Trazado_1023674" data-name="Trazado 1023674" d="M91.049,166.694c-4.127-8.592-12.922-8.93-16.034-2.909-11.163-2.706-12.448,5.954-12.448,5.954s-6.71-3.4-11.3,1.962h54.055C101.23,165.788,95.562,164.282,91.049,166.694Z" transform="translate(-51.269 -159.692)" fill="#d9ebff"/>
            </g>
            <path id="Trazado_1023675" data-name="Trazado 1023675" d="M547.723,63.718c1.637-9.056,14.837-10.309,19.076-3.137,11.951-2.9,13.914,3.989,13.914,3.989s7.184-3.64,12.1,2.1H534.938C538.121,61.984,542.892,61.136,547.723,63.718Z" transform="translate(-366.597 -44.042)" fill="#d9ebff"/>
            <path id="Trazado_1023676" data-name="Trazado 1023676" d="M121.618,33.507h73.37c-5.585-3.586-11.435-5.081-14.964-2.551-6.47-5.623-11.819-7.481-14.613-3.914-4.488-8.153-13.038-7.739-17.176-.292-1.1-1.793-6.015-4.917-12.964,3.448C132.917,27.534,128.092,29.108,121.618,33.507Z" transform="translate(-94.309 -21.045)" fill="#d9ebff"/>
            <path id="Trazado_1023677" data-name="Trazado 1023677" d="M51.212,47.282c3.126-2.034,8.137-3.794,13.761,2.253H41.585C45.224,46.041,48.959,45.09,51.212,47.282Z" transform="translate(-41.585 -37.074)" fill="#d9ebff"/>
          </g>
        </g>
      </g>
    </g>
  </g>
</svg>
