<svg xmlns="http://www.w3.org/2000/svg" xmlns:xlink="http://www.w3.org/1999/xlink" width="292" height="322" viewBox="0 0 292 322">
  <defs>
    <clipPath id="clip-path">
      <rect id="Rectángulo_456277" data-name="Rectángulo 456277" width="257" height="257" transform="translate(0 0)" fill="#d35560"/>
    </clipPath>
    <clipPath id="clip-path-2">
      <path id="Trazado_1023678" data-name="Trazado 1023678" d="M3.045,128.56,69.951,79.08l40.779,48.572,67.228-41.935,64.39,99.659L87.3,264.455Z" transform="translate(-3.045 -79.08)" fill="none"/>
    </clipPath>
    <linearGradient id="linear-gradient" x1="0.075" y1="0.81" x2="0.075" y2="0.81" gradientUnits="objectBoundingBox">
      <stop offset="0" stop-color="#fff"/>
      <stop offset="0.18" stop-color="#fff"/>
      <stop offset="1" stop-color="#b8d4fd"/>
    </linearGradient>
    <clipPath id="clip-path-3">
      <rect id="Rectángulo_457008" data-name="Rectángulo 457008" width="240.052" height="199.304" fill="none"/>
    </clipPath>
  </defs>
  <g id="Grupo_1180782" data-name="Grupo 1180782" transform="translate(-1121.711 -9566)">
    <rect id="Rectángulo_456575" data-name="Rectángulo 456575" width="292" height="322" rx="10" transform="translate(1121.711 9566)" fill="#a2cbcf"/>
    <g id="Grupo_1180081" data-name="Grupo 1180081" transform="translate(1139.713 9598.001)">
      <g id="Grupo_1179924" data-name="Grupo 1179924" transform="translate(-0.002 -0.001)">
        <g id="Grupo_1179923" data-name="Grupo 1179923" transform="translate(0 0)" clip-path="url(#clip-path)">
          <path id="Trazado_1004716" data-name="Trazado 1004716" d="M128.47,256.94c-4.173,0-8.075-4.767-12.145-5.165-4.145-.405-8.9,3.509-12.917,2.711-4.077-.81-6.974-6.248-10.9-7.442-3.97-1.207-9.4,1.7-13.2.119-3.826-1.59-5.6-7.492-9.226-9.437-3.648-1.957-9.543-.174-12.965-2.467S53.1,226.824,49.91,224.2s-9.322-2.016-12.241-4.935-2.311-9.049-4.934-12.241-8.752-3.775-11.055-7.21-.51-9.318-2.466-12.964c-1.946-3.627-7.847-5.4-9.438-9.226-1.577-3.8,1.326-9.226.12-13.2-1.194-3.926-6.632-6.823-7.441-10.9-.8-4.018,3.115-8.772,2.71-12.916C4.767,136.546,0,132.643,0,128.47s4.767-8.075,5.165-12.145c.405-4.145-3.509-8.9-2.71-12.917.809-4.077,6.247-6.974,7.441-10.9,1.207-3.971-1.7-9.4-.119-13.2,1.591-3.826,7.492-5.6,9.438-9.226,1.957-3.648.173-9.542,2.467-12.965s8.435-4.024,11.054-7.21,2.016-9.322,4.936-12.241,9.048-2.311,12.24-4.934,3.775-8.752,7.21-11.055,9.318-.51,12.965-2.466c3.626-1.946,5.4-7.847,9.225-9.438,3.8-1.577,9.226,1.325,13.2.119,3.926-1.193,6.822-6.631,10.9-7.441,4.018-.8,8.772,3.116,12.916,2.711C120.395,4.767,124.3,0,128.47,0s8.075,4.767,12.145,5.165c4.145.405,8.9-3.509,12.917-2.711,4.077.81,6.974,6.248,10.9,7.442,3.97,1.207,9.4-1.7,13.2-.119,3.826,1.59,5.6,7.492,9.226,9.438,3.648,1.957,9.543.173,12.965,2.467s4.024,8.435,7.21,11.054,9.322,2.016,12.241,4.936,2.311,9.049,4.934,12.24,8.752,3.775,11.054,7.21.51,9.318,2.466,12.965c1.946,3.627,7.847,5.4,9.437,9.226,1.578,3.8-1.326,9.226-.119,13.2,1.194,3.926,6.632,6.823,7.441,10.9.8,4.018-3.115,8.772-2.711,12.917.4,4.069,5.166,7.973,5.166,12.145s-4.767,8.075-5.166,12.146c-.4,4.144,3.509,8.9,2.711,12.916-.809,4.077-6.247,6.974-7.441,10.9-1.207,3.97,1.7,9.4.119,13.2-1.591,3.827-7.492,5.6-9.438,9.226-1.957,3.647-.173,9.542-2.467,12.965s-8.435,4.024-11.054,7.21-2.016,9.321-4.936,12.24-9.049,2.311-12.24,4.935-3.775,8.752-7.21,11.054-9.318.51-12.965,2.466c-3.626,1.946-5.4,7.848-9.226,9.438-3.8,1.577-9.226-1.326-13.2-.119-3.926,1.193-6.822,6.631-10.9,7.441-4.018.8-8.772-3.116-12.916-2.711-4.07.4-7.973,5.165-12.146,5.165" transform="translate(0.023 0.019)" fill="#d35560"/>
          <path id="Trazado_1004717" data-name="Trazado 1004717" d="M14,130.318A116.318,116.318,0,1,1,130.318,246.635,116.318,116.318,0,0,1,14,130.318" transform="translate(-1.825 -1.828)" fill="#4d787e"/>
          <path id="Trazado_1004718" data-name="Trazado 1004718" d="M134.406,274.584c-.309-1.307-.6-2.658-.876-3.982l-4.064-.518q1.82-.967,3.569-1.946-.387-1.991-.729-3.977c.931.913,1.883,1.854,2.864,2.753q1.712-1.064,3.351-2.134-.726,1.878-1.5,3.751c1.015.871,2.052,1.755,3.115,2.62l-4.085-.305q-.8,1.872-1.644,3.739" transform="translate(-17.061 -34.839)" fill="#ffffc5"/>
          <path id="Trazado_1004719" data-name="Trazado 1004719" d="M115.555,271.216c-.111-1.335-.194-2.716-.27-4.066l-3.941-1.122q1.945-.683,3.821-1.388-.085-2.027-.124-4.042c.783,1.041,1.582,2.117,2.418,3.15q1.851-.794,3.63-1.6-1,1.746-2.042,3.483c.872,1.01,1.763,2.054,2.688,3.051-1.337-.278-2.663-.608-3.995-.909q-1.07,1.73-2.186,3.449" transform="translate(-14.67 -34.368)" fill="#ffffc5"/>
          <path id="Trazado_1004720" data-name="Trazado 1004720" d="M97.431,265.08c.1-1.359.218-2.719.348-4.069l-3.731-1.694c1.348-.252,2.681-.526,3.988-.8q.221-2.014.483-4.011c.617,1.149,1.254,2.313,1.917,3.481q1.95-.51,3.832-1.048-1.25,1.578-2.543,3.139c.711,1.131,1.44,2.283,2.2,3.423L100.11,262q-1.319,1.551-2.68,3.083" transform="translate(-12.388 -33.564)" fill="#ffffc5"/>
          <path id="Trazado_1004721" data-name="Trazado 1004721" d="M80.455,256.3q.456-2,.95-3.969c-1.142-.747-2.314-1.452-3.433-2.235,1.348-.014,2.727-.118,4.058-.194q.518-1.957,1.073-3.89.661,1.839,1.383,3.718c1.319-.113,2.652-.3,3.943-.457q-1.474,1.375-2.987,2.727.8,1.836,1.667,3.707l-3.551-2.044c-1.023.89-2.068,1.785-3.1,2.636" transform="translate(-10.266 -32.445)" fill="#ffffc5"/>
          <path id="Trazado_1004722" data-name="Trazado 1004722" d="M65,245.119q.745-1.9,1.523-3.779c-1.022-.906-2.092-1.759-3.06-2.724,1.325.2,2.7.3,4.035.418q.8-1.857,1.633-3.684.388,1.91.829,3.87c1.3.109,2.658.111,3.961.141q-1.663,1.143-3.362,2.259.525,1.928,1.108,3.9l-3.22-2.533c-1.152.739-2.286,1.43-3.446,2.132" transform="translate(-8.352 -31.037)" fill="#ffffc5"/>
          <path id="Trazado_1004723" data-name="Trazado 1004723" d="M51.383,231.786q1.014-1.771,2.059-3.508L52.1,226.729c-.444-.518-.851-1.068-1.277-1.6l1.943.545,1.978.47q1.062-1.716,2.154-3.4.108,1.941.261,3.938l1.931.4,1.959.328q-1.816.888-3.664,1.742.241,1.978.532,4.009c-.938-.992-1.9-1.967-2.817-2.975q-1.844.814-3.718,1.595" transform="translate(-6.684 -29.374)" fill="#ffffc5"/>
          <path id="Trazado_1004724" data-name="Trazado 1004724" d="M39.841,216.6q1.263-1.6,2.551-3.161c-.365-.578-.748-1.143-1.1-1.731l-1.023-1.775c1.247.555,2.44,1.113,3.72,1.59.872-1.028,1.733-2.031,2.638-3.043-.136,1.3-.226,2.6-.321,3.93,1.245.464,2.454.921,3.73,1.3-1.286.406-2.586.8-3.884,1.181-.038,1.33-.05,2.671-.056,4.036-.777-1.123-1.618-2.2-2.341-3.362q-1.947.534-3.918,1.029" transform="translate(-5.235 -27.491)" fill="#ffffc5"/>
          <path id="Trazado_1004725" data-name="Trazado 1004725" d="M30.615,199.874q1.484-1.392,2.989-2.743c-.59-1.233-1.057-2.518-1.566-3.785,1.155.732,2.255,1.461,3.431,2.131,1-.88,2.035-1.756,3.078-2.621-.365,1.279-.613,2.535-.911,3.839,1.176.637,2.286,1.279,3.485,1.85-1.339.214-2.676.41-4,.582-.274,1.327-.451,2.634-.664,3.985-.616-1.218-1.273-2.417-1.81-3.674q-2.006.238-4.033.436" transform="translate(-4.017 -25.43)" fill="#ffffc5"/>
          <path id="Trazado_1004726" data-name="Trazado 1004726" d="M24.019,181.906q1.676-1.152,3.363-2.262c-.405-1.306-.649-2.653-.976-3.978,1.029.9,2.026,1.779,3.067,2.624,1.121-.719,2.3-1.436,3.446-2.131-.562,1.212-1,2.417-1.481,3.659,1.063.807,2.089,1.6,3.161,2.353-1.363.013-2.682,0-4.03-.028-.489,1.277-.848,2.539-1.259,3.843-.446-1.292-.886-2.584-1.235-3.906q-2.022-.065-4.056-.174" transform="translate(-3.147 -23.161)" fill="#ffffc5"/>
          <path id="Trazado_1004727" data-name="Trazado 1004727" d="M20.215,163.1q1.829-.888,3.664-1.732c-.2-1.352-.247-2.72-.368-4.08.883,1.043,1.732,2.063,2.638,3.055,1.215-.542,2.483-1.075,3.727-1.591-.739,1.115-1.345,2.24-2.012,3.4.929.957,1.829,1.895,2.77,2.8-1.345-.193-2.648-.408-3.977-.634-.674,1.189-1.225,2.384-1.823,3.61l-.361-2.016c-.113-.674-.18-1.354-.273-2.03q-1.99-.368-3.984-.78" transform="translate(-2.645 -20.736)" fill="#ffffc5"/>
          <path id="Trazado_1004728" data-name="Trazado 1004728" d="M19.269,143.969q1.943-.607,3.884-1.17c.007-1.366.127-2.727.232-4.089.726,1.161,1.378,2.3,2.168,3.411,1.293-.357,2.581-.7,3.9-1.024-.865.995-1.651,2.018-2.483,3.063.78,1.085,1.5,2.147,2.33,3.183q-1.953-.586-3.852-1.216c-.832,1.075-1.55,2.175-2.331,3.3-.031-1.365-.095-2.73-.031-4.1q-1.91-.658-3.82-1.361" transform="translate(-2.52 -18.285)" fill="#ffffc5"/>
          <path id="Trazado_1004729" data-name="Trazado 1004729" d="M21.174,124.922q2.013-.311,4.019-.578c.127-.671.227-1.348.376-2.014l.461-2c.537,1.256,1.024,2.476,1.638,3.7,1.34-.158,2.649-.306,4.005-.431-.988.857-1.932,1.748-2.908,2.658.608,1.188,1.157,2.343,1.839,3.493-1.215-.577-2.456-1.173-3.641-1.776-.953.944-1.855,1.921-2.789,2.918.191-1.352.3-2.716.573-4.056q-1.789-.935-3.572-1.915" transform="translate(-2.771 -15.86)" fill="#ffffc5"/>
          <path id="Trazado_1004730" data-name="Trazado 1004730" d="M25.928,106.386q2.036-.006,4.059.031c.412-1.3.928-2.568,1.432-3.838.349,1.325.638,2.6,1.061,3.9,1.342.043,2.673.1,4.031.179-1.12.694-2.175,1.437-3.279,2.189.426,1.267.792,2.49,1.293,3.729-1.118-.754-2.247-1.528-3.331-2.3-1.09.789-2.123,1.621-3.2,2.466.389-1.31.709-2.64,1.178-3.924q-1.63-1.193-3.246-2.43" transform="translate(-3.399 -13.517)" fill="#ffffc5"/>
          <path id="Trazado_1004731" data-name="Trazado 1004731" d="M33.429,88.79q2.013.3,4,.637c.6-1.23,1.325-2.387,1.994-3.578.143,1.359.267,2.681.46,4.012,1.311.239,2.652.51,3.971.787-1.237.5-2.371,1.093-3.577,1.669.23,1.317.428,2.59.714,3.879-1-.918-1.974-1.838-2.937-2.77-1.221.6-2.345,1.282-3.537,1.954.563-1.244,1.108-2.5,1.757-3.7q-1.435-1.424-2.849-2.891" transform="translate(-4.389 -11.309)" fill="#ffffc5"/>
          <path id="Trazado_1004732" data-name="Trazado 1004732" d="M43.489,72.525q1.943.594,3.86,1.223c.794-1.111,1.674-2.158,2.507-3.24q-.094,2.046-.143,4.035,1.924.671,3.821,1.376c-1.29.322-2.537.707-3.793,1.115q.04,2,.121,3.938Q48.607,79.4,47.385,77.8c-1.3.416-2.534.9-3.8,1.4l1.107-1.724,1.186-1.67q-1.208-1.624-2.391-3.286" transform="translate(-5.716 -9.285)" fill="#ffffc5"/>
          <path id="Trazado_1004733" data-name="Trazado 1004733" d="M55.729,57.942q1.832.871,3.632,1.775l2.963-2.829q-.389,2.016-.726,3.983,1.8.944,3.571,1.92c-1.307.144-2.635.3-3.924.535q-.251,1.988-.452,3.924-1.008-1.736-1.984-3.5l-2,.371c-.661.135-1.309.293-1.97.445.874-1.05,1.832-2.024,2.774-3.014q-.958-1.788-1.885-3.608" transform="translate(-7.214 -7.487)" fill="#ffffc5"/>
          <path id="Trazado_1004734" data-name="Trazado 1004734" d="M70,45.348c1.119.752,2.227,1.514,3.34,2.307l3.338-2.376q-.678,1.944-1.3,3.846,1.639,1.2,3.244,2.422c-1.3-.031-2.659-.1-3.966-.06q-.536,1.936-1.016,3.828-.742-1.867-1.449-3.762c-1.332.056-2.724.077-4.054.213,1.019-.911,2.132-1.707,3.193-2.566Q70.646,47.287,70,45.348" transform="translate(-8.969 -5.956)" fill="#ffffc5"/>
          <path id="Trazado_1004735" data-name="Trazado 1004735" d="M86,34.886c.995.91,1.994,1.857,2.97,2.8l3.646-1.87q-.956,1.828-1.847,3.624,1.443,1.426,2.845,2.871c-1.283-.228-2.6-.464-3.917-.657q-.814,1.842-1.564,3.649-.458-1.96-.878-3.941c-1.326-.144-2.691-.3-4.046-.4,1.166-.71,2.363-1.371,3.542-2.059q-.4-1.995-.751-4.013" transform="translate(-10.958 -4.584)" fill="#ffffc5"/>
          <path id="Trazado_1004736" data-name="Trazado 1004736" d="M103.408,26.946q1.281,1.6,2.52,3.213c1.3-.433,2.583-.89,3.884-1.3-.819,1.089-1.6,2.212-2.37,3.3q1.211,1.624,2.38,3.261-1.852-.629-3.773-1.236c-.725,1.121-1.416,2.262-2.09,3.378q-.161-2.008-.28-4.033-1.936-.514-3.942-1l3.811-1.506c-.061-1.352-.113-2.727-.14-4.076" transform="translate(-13.139 -3.536)" fill="#ffffc5"/>
          <path id="Trazado_1004737" data-name="Trazado 1004737" d="M121.824,21.733q1.026,1.772,2.008,3.555c1.345-.233,2.687-.5,4.036-.706-.975.947-1.918,1.946-2.84,2.911q.954,1.786,1.864,3.582-1.736-.9-3.544-1.786c-.888.984-1.74,2.023-2.574,3.023q.141-2.01.327-4.031-1.836-.8-3.745-1.578l3.992-.924c.143-1.346.3-2.718.476-4.045" transform="translate(-15.463 -2.848)" fill="#ffffc5"/>
          <path id="Trazado_1004738" data-name="Trazado 1004738" d="M140.822,19.35q.75,1.909,1.455,3.817l4.1-.1q-1.656,1.232-3.241,2.464.678,1.911,1.311,3.822-1.584-1.15-3.241-2.3c-1.024.857-2.023,1.743-3,2.609q.441-1.966.928-3.936-1.7-1.066-3.467-2.125l4.085-.311c.343-1.31.7-2.639,1.074-3.937" transform="translate(-17.879 -2.534)" fill="#ffffc5"/>
          <path id="Trazado_1004739" data-name="Trazado 1004739" d="M159.971,19.831c.309,1.307.6,2.658.876,3.982l4.064.518q-1.82.967-3.569,1.946.387,1.991.728,3.977c-.93-.913-1.882-1.854-2.863-2.753q-1.712,1.064-3.351,2.134.727-1.878,1.5-3.751c-1.014-.871-2.051-1.756-3.115-2.62l4.086.306q.8-1.872,1.644-3.739" transform="translate(-20.331 -2.597)" fill="#ffffc5"/>
          <path id="Trazado_1004740" data-name="Trazado 1004740" d="M178.864,23.17c.111,1.335.194,2.716.27,4.066l3.941,1.122q-1.945.684-3.821,1.388.085,2.027.124,4.042c-.783-1.041-1.582-2.117-2.418-3.15q-1.851.794-3.63,1.605,1-1.746,2.042-3.483c-.872-1.01-1.763-2.054-2.688-3.05,1.337.277,2.663.607,3.995.908q1.072-1.73,2.186-3.449" transform="translate(-22.764 -3.038)" fill="#ffffc5"/>
          <path id="Trazado_1004741" data-name="Trazado 1004741" d="M197.015,29.313c-.1,1.359-.218,2.719-.348,4.069l3.731,1.694c-1.348.253-2.68.527-3.988.8q-.221,2.014-.483,4.011c-.617-1.149-1.254-2.313-1.917-3.481q-1.95.51-3.832,1.048,1.25-1.578,2.542-3.139c-.71-1.131-1.439-2.283-2.2-3.423l3.813,1.5q1.319-1.551,2.68-3.083" transform="translate(-25.073 -3.849)" fill="#ffffc5"/>
          <path id="Trazado_1004742" data-name="Trazado 1004742" d="M213.954,38.133q-.456,2-.95,3.969c1.142.747,2.314,1.452,3.433,2.235-1.348.014-2.728.118-4.058.194q-.518,1.957-1.073,3.89-.661-1.837-1.383-3.718c-1.319.113-2.652.3-3.944.457q1.474-1.375,2.987-2.727-.8-1.836-1.667-3.707l3.551,2.044c1.023-.89,2.067-1.785,3.1-2.636" transform="translate(-27.158 -5.013)" fill="#ffffc5"/>
          <path id="Trazado_1004743" data-name="Trazado 1004743" d="M229.412,49.336q-.745,1.9-1.523,3.779c1.022.906,2.092,1.759,3.06,2.724-1.325-.2-2.7-.3-4.035-.418q-.8,1.857-1.633,3.684-.388-1.91-.829-3.869c-1.3-.11-2.658-.112-3.962-.142q1.664-1.143,3.363-2.259-.525-1.928-1.108-3.9l3.22,2.532c1.152-.739,2.285-1.43,3.446-2.132" transform="translate(-29.073 -6.438)" fill="#ffffc5"/>
          <path id="Trazado_1004744" data-name="Trazado 1004744" d="M243.062,62.63Q242.047,64.4,241,66.138l1.341,1.549c.445.518.85,1.068,1.278,1.6l-1.944-.545-1.978-.47q-1.062,1.716-2.154,3.4-.108-1.941-.261-3.937l-1.931-.4L233.4,67q1.816-.888,3.664-1.742-.241-1.978-.532-4.009c.938.992,1.9,1.967,2.817,2.975q1.844-.814,3.718-1.595" transform="translate(-30.776 -8.063)" fill="#ffffc5"/>
          <path id="Trazado_1004745" data-name="Trazado 1004745" d="M254.608,77.815q-1.263,1.6-2.55,3.161c.364.577.747,1.143,1.1,1.731l1.022,1.775c-1.247-.555-2.44-1.113-3.72-1.59-.872,1.028-1.733,2.031-2.638,3.043.136-1.3.226-2.6.321-3.93-1.245-.464-2.454-.921-3.73-1.3,1.286-.406,2.586-.8,3.884-1.182.038-1.329.051-2.67.056-4.036.777,1.123,1.618,2.2,2.341,3.362q1.947-.534,3.918-1.029" transform="translate(-32.229 -9.941)" fill="#ffffc5"/>
          <path id="Trazado_1004746" data-name="Trazado 1004746" d="M263.787,94.568q-1.484,1.392-2.989,2.743c.59,1.233,1.057,2.518,1.566,3.785-1.155-.732-2.255-1.461-3.431-2.131-1,.88-2.035,1.756-3.078,2.621.365-1.279.613-2.535.911-3.838-1.176-.637-2.286-1.279-3.485-1.85,1.339-.214,2.676-.41,4-.583.274-1.327.451-2.634.664-3.986.616,1.219,1.273,2.418,1.81,3.675q2.007-.238,4.033-.436" transform="translate(-33.4 -12.032)" fill="#ffffc5"/>
          <path id="Trazado_1004747" data-name="Trazado 1004747" d="M270.373,112.525q-1.676,1.154-3.363,2.262c.405,1.306.649,2.653.976,3.978-1.03-.9-2.026-1.779-3.067-2.624-1.121.719-2.3,1.436-3.447,2.131.562-1.212,1-2.416,1.482-3.659-1.063-.807-2.088-1.6-3.161-2.353,1.363-.012,2.682,0,4.03.028.489-1.277.848-2.539,1.259-3.843.446,1.292.886,2.585,1.235,3.906q2.022.065,4.056.174" transform="translate(-34.259 -14.291)" fill="#ffffc5"/>
          <path id="Trazado_1004748" data-name="Trazado 1004748" d="M274.2,131.282q-1.829.888-3.664,1.732c.2,1.352.247,2.72.368,4.08-.883-1.042-1.732-2.063-2.638-3.055-1.215.542-2.483,1.076-3.727,1.591.739-1.115,1.344-2.24,2.012-3.4-.929-.957-1.829-1.895-2.77-2.8,1.345.193,2.648.408,3.977.633.674-1.188,1.225-2.383,1.823-3.609l.361,2.016c.113.674.181,1.354.273,2.03q1.989.369,3.984.78" transform="translate(-34.786 -16.667)" fill="#ffffc5"/>
          <path id="Trazado_1004749" data-name="Trazado 1004749" d="M275.181,150.4q-1.943.607-3.885,1.17c-.007,1.366-.127,2.727-.232,4.089-.726-1.161-1.379-2.3-2.168-3.411-1.293.357-2.581.7-3.9,1.024.866-.995,1.651-2.018,2.483-3.063-.78-1.085-1.5-2.147-2.33-3.183q1.953.586,3.852,1.216c.832-1.076,1.55-2.175,2.331-3.3.031,1.365.095,2.73.031,4.1q1.91.659,3.82,1.361" transform="translate(-34.945 -19.107)" fill="#ffffc5"/>
          <path id="Trazado_1004750" data-name="Trazado 1004750" d="M273.23,169.472q-2.014.311-4.02.578c-.127.671-.227,1.348-.376,2.014l-.461,2c-.537-1.256-1.024-2.476-1.638-3.7-1.34.158-2.649.306-4.006.431.989-.857,1.933-1.748,2.909-2.658-.608-1.188-1.157-2.343-1.839-3.493,1.215.577,2.456,1.173,3.641,1.776.953-.944,1.855-1.921,2.789-2.918-.191,1.352-.3,2.716-.573,4.056q1.789.933,3.573,1.914" transform="translate(-34.647 -21.556)" fill="#ffffc5"/>
          <path id="Trazado_1004751" data-name="Trazado 1004751" d="M268.462,188.069q-2.036.007-4.059-.031c-.413,1.3-.929,2.568-1.432,3.838-.349-1.325-.638-2.6-1.061-3.9-1.342-.043-2.673-.1-4.031-.179,1.12-.694,2.175-1.437,3.279-2.189-.426-1.266-.792-2.49-1.292-3.728,1.118.753,2.247,1.527,3.331,2.3,1.09-.789,2.123-1.621,3.2-2.465-.389,1.309-.709,2.639-1.178,3.924q1.63,1.193,3.246,2.43" transform="translate(-34.007 -23.96)" fill="#ffffc5"/>
          <path id="Trazado_1004752" data-name="Trazado 1004752" d="M260.984,205.637q-2.013-.3-4-.637c-.6,1.23-1.326,2.387-1.994,3.578-.143-1.359-.266-2.681-.46-4.012-1.311-.239-2.652-.51-3.971-.787,1.237-.5,2.371-1.093,3.577-1.669-.23-1.317-.427-2.59-.714-3.879,1,.918,1.974,1.838,2.937,2.77,1.222-.6,2.345-1.282,3.537-1.954-.563,1.244-1.109,2.5-1.756,3.7q1.434,1.424,2.848,2.891" transform="translate(-33.04 -26.139)" fill="#ffffc5"/>
          <path id="Trazado_1004753" data-name="Trazado 1004753" d="M250.983,221.884q-1.943-.592-3.86-1.223c-.794,1.111-1.674,2.158-2.507,3.24q.094-2.046.143-4.035-1.924-.67-3.821-1.376c1.29-.322,2.537-.707,3.793-1.115q-.04-2-.121-3.938,1.254,1.568,2.477,3.167c1.3-.416,2.534-.9,3.8-1.4l-1.107,1.724-1.186,1.67q1.208,1.625,2.391,3.286" transform="translate(-31.771 -28.145)" fill="#ffffc5"/>
          <path id="Trazado_1004754" data-name="Trazado 1004754" d="M238.7,236.484q-1.832-.872-3.632-1.776l-2.963,2.83q.39-2.016.726-3.983-1.8-.944-3.571-1.92c1.307-.144,2.635-.3,3.924-.535q.251-1.988.452-3.924,1.008,1.734,1.984,3.5l2-.371c.661-.135,1.309-.293,1.97-.445-.874,1.05-1.832,2.024-2.774,3.014q.958,1.788,1.885,3.608" transform="translate(-30.23 -29.958)" fill="#ffffc5"/>
          <path id="Trazado_1004755" data-name="Trazado 1004755" d="M224.409,249.127c-1.119-.752-2.227-1.514-3.34-2.307l-3.338,2.376q.677-1.944,1.3-3.846-1.639-1.2-3.244-2.422c1.3.031,2.659.1,3.966.06q.536-1.938,1.016-3.828.742,1.867,1.45,3.762c1.332-.056,2.723-.077,4.053-.213-1.018.911-2.132,1.707-3.193,2.566q.685,1.913,1.334,3.852" transform="translate(-28.452 -31.54)" fill="#ffffc5"/>
          <path id="Trazado_1004756" data-name="Trazado 1004756" d="M208.416,259.531c-.995-.909-1.994-1.857-2.97-2.794l-3.646,1.87q.956-1.828,1.847-3.624-1.443-1.427-2.845-2.872c1.283.228,2.6.464,3.917.657q.814-1.841,1.564-3.649.458,1.961.879,3.943c1.326.143,2.69.3,4.045.4-1.166.711-2.362,1.372-3.543,2.06q.4,1.993.751,4.012" transform="translate(-26.475 -32.854)" fill="#ffffc5"/>
          <path id="Trazado_1004757" data-name="Trazado 1004757" d="M191.058,267.44q-1.281-1.6-2.52-3.214c-1.3.433-2.583.89-3.885,1.3.82-1.088,1.6-2.212,2.37-3.3q-1.211-1.624-2.38-3.261,1.851.629,3.773,1.236c.725-1.121,1.416-2.262,2.09-3.378q.161,2.008.28,4.033,1.936.514,3.942,1l-3.811,1.506c.061,1.352.113,2.726.14,4.076" transform="translate(-24.343 -33.87)" fill="#ffffc5"/>
          <path id="Trazado_1004758" data-name="Trazado 1004758" d="M172.577,272.659q-1.026-1.772-2.008-3.555c-1.346.234-2.687.5-4.036.706.975-.947,1.917-1.946,2.84-2.911q-.954-1.786-1.864-3.582,1.736.9,3.544,1.786c.888-.984,1.74-2.024,2.575-3.023q-.142,2.01-.328,4.031,1.836.8,3.745,1.578l-3.992.924c-.143,1.346-.3,2.718-.476,4.045" transform="translate(-21.953 -34.564)" fill="#ffffc5"/>
          <path id="Trazado_1004759" data-name="Trazado 1004759" d="M153.55,275.083q-.75-1.908-1.455-3.817l-4.1.1q1.656-1.232,3.241-2.464-.678-1.91-1.311-3.821,1.585,1.15,3.241,2.3c1.024-.857,2.023-1.743,3-2.609q-.441,1.966-.928,3.936,1.7,1.065,3.467,2.124l-4.085.312c-.343,1.31-.7,2.639-1.074,3.936" transform="translate(-19.507 -34.92)" fill="#ffffc5"/>
          <path id="Trazado_1004760" data-name="Trazado 1004760" d="M133.118,231.012a97.893,97.893,0,1,1,97.893-97.893,98,98,0,0,1-97.893,97.893" transform="translate(-4.626 -4.629)" fill="#d35560"/>
        </g>
      </g>
      <g id="Grupo_1180053" data-name="Grupo 1180053" transform="translate(67.315 66.578)">
        <rect id="Rectángulo_401104" data-name="Rectángulo 401104" width="122.351" height="123.825" transform="translate(0)" fill="#d35560"/>
      </g>
    </g>
    <g id="Grupo_1180778" data-name="Grupo 1180778" transform="translate(1147.965 9627.477)">
      <g id="Grupo_1180779" data-name="Grupo 1180779" transform="translate(0.517 13.42)">
        <g id="Grupo_1180778-2" data-name="Grupo 1180778" clip-path="url(#clip-path-2)">
          <rect id="Rectángulo_457003" data-name="Rectángulo 457003" width="282.678" height="300.768" transform="matrix(0.519, -0.855, 0.855, 0.519, -82.258, 135.401)" fill="url(#linear-gradient)"/>
        </g>
      </g>
      <g id="Grupo_1180781" data-name="Grupo 1180781">
        <g id="Grupo_1180780" data-name="Grupo 1180780" clip-path="url(#clip-path-3)">
          <path id="Trazado_1023679" data-name="Trazado 1023679" d="M84.772,262.474a.51.51,0,0,1-.249-.064.5.5,0,0,1-.186-.176L.077,126.343a.509.509,0,0,1,.129-.679L67.121,76.181a.509.509,0,0,1,.692.081L108.308,124.5,175.16,82.8l.538.864-67.226,41.935a.509.509,0,0,1-.66-.105L67.342,77.284,1.2,126.2,84.957,261.3l154.632-78.865.463.906L85,262.42a.518.518,0,0,1-.231.054" transform="translate(0 -63.17)" fill="#0736bd"/>
          <path id="Trazado_1023680" data-name="Trazado 1023680" d="M1092.842,212.612l-.46-.713.849-.552.46.713Zm-3.224-4.988-.462-.713.849-.553.462.713Zm-3.224-4.989-.46-.713.849-.553.46.713Zm-3.224-4.989-.462-.713.849-.552.462.713Zm-3.224-4.989-.46-.713.849-.552.46.713Zm-3.224-4.988-.46-.713.849-.553.46.713Zm-3.224-4.989-.46-.713.848-.553.46.713Zm-3.224-4.989-.46-.713.849-.552.46.713Zm-3.224-4.989-.462-.713.849-.552.462.713Zm-3.224-4.988-.46-.713.848-.553.46.713Zm-3.224-4.989-.462-.713.849-.553.462.713Zm-3.224-4.989-.46-.713.849-.552.46.711Zm-3.224-4.989-.46-.713.849-.552.46.713Zm-3.224-4.988-.462-.713.849-.553.46.713Zm-3.224-4.989-.46-.713.849-.553.46.713Zm-3.224-4.989-.462-.713.849-.552.462.713Zm-3.224-4.989-.46-.713.849-.552.46.713Zm-3.224-4.988-.462-.713.848-.553.462.713Zm-3.224-4.989-.46-.713.849-.553.46.713Zm-3.224-4.989-.46-.713.849-.553.46.713Z" transform="translate(-856.138 -96.78)" fill="#0736bd"/>
          <path id="Trazado_1023681" data-name="Trazado 1023681" d="M701.661,366.173a62.169,62.169,0,0,1,9.277,42.312s-16.065,2.941-19.231,6.109-10.384,16.066-37.662,10.182l2.364-59.516,30.232,8.6Z" transform="translate(-543.053 -303.275)" fill="#5396fa"/>
          <path id="Trazado_1023682" data-name="Trazado 1023682" d="M1236.864,764.826h-13.3a.51.51,0,0,1-.509-.509V751.009a.51.51,0,0,1,.509-.509h13.3a.507.507,0,0,1,.509.509v13.308a.507.507,0,0,1-.509.509m-12.8-1.018h12.29v-12.29h-12.286Z" transform="translate(-1015.497 -623.139)" fill="#0736bd"/>
          <path id="Trazado_1023683" data-name="Trazado 1023683" d="M148.975,791.758a244.991,244.991,0,0,1-33.72-2.423,224.067,224.067,0,0,1-43.912-10.547c-15.017-5.354-31.261-7.338-42.242-8.059a181.842,181.842,0,0,0-20.459-.283.509.509,0,0,1-.326-.923l62.9-45.027a.51.51,0,0,1,.368-.09l133.856,19.024a.5.5,0,0,1,.258.117.488.488,0,0,1,.156.238.51.51,0,0,1-.143.526L153.54,791.578a.508.508,0,0,1-.331.131q-1.94.048-4.234.049m-133.2-22.489c3.506,0,8.107.1,13.378.441,11.053.725,27.4,2.715,42.536,8.118C106.394,790.2,139.973,790.962,153,790.7l51.229-46.417L71.646,725.447,10.3,769.347c1.237-.034,3.106-.078,5.473-.078" transform="translate(-6.728 -601.469)" fill="#0736bd"/>
          <rect id="Rectángulo_457004" data-name="Rectángulo 457004" width="41.974" height="1.019" transform="translate(38.909 160.368) rotate(-37.74)" fill="#5396fa"/>
          <rect id="Rectángulo_457005" data-name="Rectángulo 457005" width="17.16" height="1.018" transform="translate(38.831 151.536) rotate(-37.75)" fill="#5396fa"/>
          <rect id="Rectángulo_457006" data-name="Rectángulo 457006" width="40.131" height="1.018" transform="matrix(0.759, -0.651, 0.651, 0.759, 49.367, 162.501)" fill="#5396fa"/>
          <path id="Trazado_1023684" data-name="Trazado 1023684" d="M849.922,1017.11l-10.183,8.9.67.767,10.183-8.9Z" transform="translate(-697.234 -844.505)" fill="#5396fa"/>
          <path id="Trazado_1023685" data-name="Trazado 1023685" d="M516.327,819.041c18.182,0,32.922-7.446,32.922-16.631s-14.74-16.631-32.922-16.631-32.922,7.446-32.922,16.631,14.74,16.631,32.922,16.631" transform="translate(-401.371 -652.432)" fill="#5396fa"/>
          <path id="Trazado_1023686" data-name="Trazado 1023686" d="M513.886,817.06c-8.874,0-17.221-1.75-23.51-4.921-6.4-3.224-9.921-7.57-9.921-12.219s3.523-8.982,9.921-12.218c6.289-3.177,14.637-4.921,23.51-4.921s17.219,1.748,23.509,4.921c6.4,3.233,9.922,7.57,9.922,12.218s-3.525,8.981-9.922,12.219c-6.3,3.172-14.643,4.921-23.509,4.921m0-33.261c-17.873,0-32.413,7.231-32.413,16.122s14.54,16.122,32.413,16.122S546.3,808.809,546.3,799.92,531.75,783.8,513.886,783.8" transform="translate(-398.921 -649.941)" fill="#0736bd"/>
          <path id="Trazado_1023687" data-name="Trazado 1023687" d="M534.369,795.531c16.146,0,29.234-7.446,29.234-16.631s-13.089-16.631-29.234-16.631-29.234,7.446-29.234,16.631,13.089,16.631,29.234,16.631" transform="translate(-419.413 -632.912)" fill="#fff"/>
          <path id="Trazado_1023688" data-name="Trazado 1023688" d="M531.9,793.54c-7.9,0-15.327-1.755-20.924-4.938-5.688-3.234-8.824-7.569-8.824-12.2s3.131-8.967,8.824-12.2c5.59-3.182,13.021-4.937,20.924-4.937s15.326,1.753,20.922,4.937c5.688,3.236,8.824,7.57,8.824,12.2s-3.131,8.967-8.824,12.2c-5.6,3.185-13.035,4.938-20.922,4.938m0-33.261c-15.84,0-28.725,7.231-28.725,16.122s12.885,16.122,28.725,16.122,28.724-7.233,28.724-16.122-12.892-16.122-28.724-16.122" transform="translate(-416.939 -630.413)" fill="#0736bd"/>
          <path id="Trazado_1023689" data-name="Trazado 1023689" d="M615.473,781.791c6.991,0,12.658-2.763,12.658-6.17s-5.667-6.17-12.658-6.17-12.658,2.763-12.658,6.17,5.667,6.17,12.658,6.17" transform="translate(-500.517 -638.874)" fill="#01227c"/>
          <path id="Trazado_1023690" data-name="Trazado 1023690" d="M613.032,779.811c-7.384,0-13.167-2.934-13.167-6.681s5.783-6.679,13.167-6.679,13.165,2.934,13.165,6.679-5.79,6.681-13.165,6.681m0-12.342c-6.586,0-12.149,2.593-12.149,5.661s5.563,5.663,12.149,5.663,12.147-2.593,12.147-5.663-5.57-5.661-12.147-5.661" transform="translate(-498.067 -636.383)" fill="#01227c"/>
          <path id="Trazado_1023691" data-name="Trazado 1023691" d="M628.037,265.75h16.755v83.038a6.942,6.942,0,0,1-6.943,6.942h-2.871a6.942,6.942,0,0,1-6.943-6.942V265.75Z" transform="translate(-521.457 -220.652)" fill="#c7dbfd"/>
          <path id="Trazado_1023692" data-name="Trazado 1023692" d="M635.368,353.747h-2.873a7.467,7.467,0,0,1-7.45-7.45V263.259a.509.509,0,0,1,.509-.509h16.755a.509.509,0,0,1,.509.509V346.3a7.467,7.467,0,0,1-7.45,7.45m-9.3-89.979V346.3a6.438,6.438,0,0,0,6.432,6.432h2.873A6.438,6.438,0,0,0,641.8,346.3V263.768Z" transform="translate(-518.974 -218.161)" fill="#0736bd"/>
          <path id="Trazado_1023693" data-name="Trazado 1023693" d="M763.755,515.141h-.55a23.954,23.954,0,0,1-6.89-1.018l.339-.96c.1.036,10.352,3.5,22.214-3l.49.893a32.54,32.54,0,0,1-15.6,4.088" transform="translate(-627.968 -423.585)" fill="#0736bd"/>
          <path id="Trazado_1023694" data-name="Trazado 1023694" d="M488.321,303.1s-24.659,6.926-26.872,17.649a9.15,9.15,0,0,0,3.47,9.6,7.907,7.907,0,0,0-4.529,7.272c-.02,6.549,5.736,9.373,5.736,9.373a8.639,8.639,0,0,0-3.319,7.241,11.107,11.107,0,0,0,4.224,8.146s-2.262,2.111-1.358,6.335,4.979,5.8,8.3,6.634a42.848,42.848,0,0,0,11.709.9c2.871-.207,10.925-3.167,11.37-7.088s-3.4-5.894-3.4-5.894,8.533-4.439,9.288-8.315-1.207-6.449-3.168-6.676c0,0,5.43-3.7,2.715-7.847s-7.806-3.25-7.806-3.25,6.917-1.347,6.152-6.023-4.09-5.924-10.119-6.639-13.878-2.564-13.878-2.564l11.394-6.788Z" transform="translate(-382.261 -251.664)" fill="#5396fa"/>
          <path id="Trazado_1023695" data-name="Trazado 1023695" d="M883.575,596.854l-.889-.494c1.045-1.882.849-5.8.849-5.834l1.018-.056c0,.173.212,4.244-.977,6.384" transform="translate(-732.893 -490.267)" fill="#0736bd"/>
          <path id="Trazado_1023696" data-name="Trazado 1023696" d="M505.351,470.977a6.426,6.426,0,0,1-2-.256c-13.087-4.422-17.988-8.409-18.189-8.577l.65-.784c.049.041,4.989,4.046,17.864,8.4,2.518.849,9.978-1.151,12.641-1.994l.307.971c-.339.109-7.136,2.243-11.277,2.243" transform="translate(-402.832 -383.067)" fill="#0736bd"/>
          <path id="Trazado_1023697" data-name="Trazado 1023697" d="M512.413,564.812c-.124,0-.239,0-.35-.01-3.64-.227-18.063-4.733-18.667-4.921l.305-.971c.148.046,14.915,4.66,18.433,4.879,3.479.217,14.778-3.564,14.891-3.594l.324.966c-.475.149-10.961,3.652-14.937,3.652" transform="translate(-409.666 -464.062)" fill="#0736bd"/>
          <path id="Trazado_1023698" data-name="Trazado 1023698" d="M518.68,652.747c-4.027,0-18.906-2.191-19.575-2.291l.148-1.006c5.979.882,17.834,2.493,19.931,2.26a50.684,50.684,0,0,0,6.472-1.358l.273.981a51.686,51.686,0,0,1-6.632,1.383,5.689,5.689,0,0,1-.618.031" transform="translate(-414.406 -539.238)" fill="#0736bd"/>
          <path id="Trazado_1023699" data-name="Trazado 1023699" d="M656.539,517.69s-9.649.762-9.654,4.653c0,4.784,8.711,3.224,8.711,3.224,1.952-.4,4.553-4.933.944-7.878" transform="translate(-537.108 -429.837)" fill="#fff"/>
          <path id="Trazado_1023700" data-name="Trazado 1023700" d="M646.9,448.4s-8.88.72-8.887,4.4c0,4.519,8.685,2.968,8.685,2.968s4.022-2.654.2-7.363" transform="translate(-529.744 -372.306)" fill="#fff"/>
          <path id="Trazado_1023701" data-name="Trazado 1023701" d="M636.9,668.26s-7.083,1.9-6.549,4.8c.655,3.564,6.936,1.188,6.936,1.188s2.758-2.6-.387-5.99" transform="translate(-523.359 -554.856)" fill="#fff"/>
          <path id="Trazado_1023702" data-name="Trazado 1023702" d="M668.669,579.07s-8.519,2.408-7.71,6.216c.86,4.024,7.136,1.239,7.136,1.239s3.808-3.652.574-7.455" transform="translate(-548.749 -480.801)" fill="#fff"/>
          <path id="Trazado_1023703" data-name="Trazado 1023703" d="M588.531,464.771a9.335,9.335,0,0,1-.012-5.261l.974.294-.487-.146.489.146a8.4,8.4,0,0,0-.014,4.6Z" transform="translate(-488.322 -381.531)" fill="#0736bd"/>
          <path id="Trazado_1023704" data-name="Trazado 1023704" d="M594.071,542.771a9.336,9.336,0,0,1-.012-5.261l.974.294-.487-.146.487.146a8.5,8.5,0,0,0-.012,4.6Z" transform="translate(-492.922 -446.294)" fill="#0736bd"/>
          <path id="Trazado_1023705" data-name="Trazado 1023705" d="M595.159,616.521a9.344,9.344,0,0,1-.014-5.261l.976.292-.487-.146.487.146a8.5,8.5,0,0,0-.012,4.6Z" transform="translate(-493.824 -507.529)" fill="#0736bd"/>
          <path id="Trazado_1023706" data-name="Trazado 1023706" d="M596.245,683.521a9.352,9.352,0,0,1-.012-5.261l.976.294-.489-.146.489.146a8.391,8.391,0,0,0-.012,4.6Z" transform="translate(-494.727 -563.159)" fill="#0736bd"/>
          <path id="Trazado_1023707" data-name="Trazado 1023707" d="M995.462,32.35H969.7a.515.515,0,0,1-.241-.06.506.506,0,0,1-.182-.166.481.481,0,0,1-.083-.232.5.5,0,0,1,.036-.244L982.111.316a.51.51,0,0,1,.942,0l12.879,31.332a.543.543,0,0,1,.036.244.5.5,0,0,1-.085.232.5.5,0,0,1-.182.166.514.514,0,0,1-.239.06m-25-1.018h24.232L982.575,1.85Z" transform="translate(-804.721 0)" fill="#01227c"/>
          <path id="Trazado_1023708" data-name="Trazado 1023708" d="M602.825,187.63v10.88c0,3.409,5.666,6.172,12.656,6.172s12.658-2.763,12.658-6.172V187.63Z" transform="translate(-500.525 -155.789)" fill="#c7dbfd"/>
          <path id="Trazado_1023709" data-name="Trazado 1023709" d="M613.032,202.7c-7.384,0-13.167-2.934-13.167-6.681v-10.88a.509.509,0,0,1,.509-.509h25.307a.509.509,0,0,1,.509.509v10.88c0,3.747-5.783,6.681-13.159,6.681m-12.156-17.052v10.37c0,3.07,5.563,5.663,12.149,5.663s12.147-2.593,12.147-5.663v-10.37Z" transform="translate(-498.067 -153.298)" fill="#0736bd"/>
          <path id="Trazado_1023710" data-name="Trazado 1023710" d="M582.67,308.4c-2.262,1.716-6.561,6.014-10.182,3.978s-7.616-8.1-11.991-9.729-19.007-4.3-21.27-4.073-21.063,14.635-26.041,18.029c0,0,5.588,10.983,26.947-1.738l27.831,13.576,16.743-10.416Z" transform="translate(-426.098 -247.894)" fill="#5396fa"/>
          <path id="Trazado_1023711" data-name="Trazado 1023711" d="M520.325,398.809a14.646,14.646,0,0,1-4.086-.55,9.293,9.293,0,0,1-5.722-4.144l.908-.462-.455.231.453-.232a8.453,8.453,0,0,0,5.139,3.642c3.618,1.03,10.209.9,21.1-5.585a.51.51,0,0,1,.484-.02l12.066,5.885-.446.916-11.818-5.77c-6.858,4.052-12.76,6.089-17.618,6.089" transform="translate(-423.881 -325.176)" fill="#0736bd"/>
          <path id="Trazado_1023712" data-name="Trazado 1023712" d="M512.069,314.5l-.574-.848c1.478-1.008,4.19-3,7.329-5.3,9.758-7.163,17.349-12.655,18.949-12.814,2.337-.236,17.087,2.459,21.5,4.1,2.59.964,4.972,3.341,7.277,5.639a25.721,25.721,0,0,0,4.787,4.124c2.819,1.585,6.279-1.232,8.565-3.1.38-.309.74-.6,1.059-.849l.616.811c-.305.231-.658.518-1.032.821-2.5,2.036-6.279,5.12-9.709,3.2a26.373,26.373,0,0,1-5.006-4.29c-2.228-2.221-4.531-4.519-6.914-5.407-4.232-1.578-18.862-4.261-21.043-4.044-1.448.146-12.09,7.956-18.447,12.622-3.146,2.322-5.863,4.315-7.357,5.334" transform="translate(-424.694 -245.374)" fill="#fff"/>
          <path id="Trazado_1023713" data-name="Trazado 1023713" d="M890.745,300.942a123.3,123.3,0,0,1,12.8,54.713v7.319l12.672-2.462,4.826-8.962,9.654-2.413s9.956-27.756-10.257-56.717Z" transform="translate(-739.585 -242.796)" fill="#01227c"/>
          <path id="Trazado_1023714" data-name="Trazado 1023714" d="M1088.754,562.547h-.025a.508.508,0,0,1-.463-.365l-1.806-6.092.976-.29,1.4,4.7,3.526-8.7.943.382-4.073,10.048a.514.514,0,0,1-.19.232.506.506,0,0,1-.285.086" transform="translate(-902.087 -458.159)" fill="#fff"/>
          <path id="Trazado_1023715" data-name="Trazado 1023715" d="M518.165,365.26c2.169,1.61,3.964,6.413-4.538,10.673,0,0-3.98-1.251-4.7-4.147Z" transform="translate(-422.56 -303.275)" fill="#fff"/>
          <path id="Trazado_1023716" data-name="Trazado 1023716" d="M615.473,163.611c6.991,0,12.658-2.763,12.658-6.17s-5.667-6.17-12.658-6.17-12.658,2.763-12.658,6.17,5.667,6.17,12.658,6.17" transform="translate(-500.517 -125.599)" fill="#01227c"/>
          <path id="Trazado_1023717" data-name="Trazado 1023717" d="M613.032,161.622c-7.384,0-13.167-2.934-13.167-6.681s5.777-6.681,13.167-6.681,13.165,2.934,13.165,6.679-5.79,6.683-13.165,6.683m0-12.344c-6.586,0-12.149,2.593-12.149,5.661s5.563,5.663,12.149,5.663,12.147-2.593,12.147-5.663-5.57-5.661-12.147-5.661" transform="translate(-498.067 -123.1)" fill="#01227c"/>
          <rect id="Rectángulo_457007" data-name="Rectángulo 457007" width="113.727" height="1.018" transform="matrix(0.784, -0.621, 0.621, 0.784, 1.045, 75.269)" fill="#5396fa"/>
          <path id="Trazado_1023718" data-name="Trazado 1023718" d="M75.487,101.109l-.742-.7.584-.616.74.7Zm4.073-4.317-.74-.7.582-.616.742.7Zm4.073-4.317-.74-.7.582-.618.74.7Zm4.073-4.317-.74-.7.584-.618.74.7Zm4.073-4.317-.74-.7.582-.618.742.7Zm4.073-4.317-.74-.7.582-.618.74.7ZM99.924,75.2l-.74-.7.584-.616.74.7ZM104,70.887l-.74-.7.582-.616.74.7Zm4.073-4.317-.742-.7.584-.616.74.7Zm4.073-4.317-.74-.7.584-.616.74.7Zm4.073-4.317-.74-.7.582-.618.74.7Zm4.073-4.317-.742-.7.584-.618.74.7ZM124.36,49.3l-.74-.7.582-.618.742.7Zm4.073-4.319-.74-.7.582-.616.74.7Zm4.073-4.317-.74-.7.584-.616.74.7Zm4.073-4.317-.648-.694.582-.616.74.7Zm4.073-4.317-.74-.7.582-.616.74.7Zm4.073-4.317-.74-.7.584-.616.74.7ZM148.8,23.4l-.621-.7.582-.618.74.7Zm4.073-4.317-.621-.7.584-.618.74.7Zm4.073-4.317-.621-.7.582-.618.742.7Zm4.073-4.317-.74-.7.582-.616.74.7Zm4.073-4.319-.742-.7.584-.616.74.7Zm4.073-4.317-.74-.7.509-.529.74.7Z" transform="translate(-62.061 -0.482)" fill="#0736bd"/>
        </g>
      </g>
    </g>
  </g>
</svg>
