<svg xmlns="http://www.w3.org/2000/svg" width="84" height="84" viewBox="0 0 84 84">
  <g id="Grupo_1185913" data-name="Grupo 1185913" transform="translate(-319.711 -1162)">
    <rect id="Rectángulo_456534" data-name="Rectángulo 456534" width="84" height="84" rx="10" transform="translate(319.711 1162)" fill="#f2a4ab"/>
    <g id="Grupo_1180395" data-name="Grupo 1180395" transform="translate(185.885 1091.171)">
      <path id="Trazado_1021431" data-name="Trazado 1021431" d="M463.8,116v5.926l-2.568-.813a1.1,1.1,0,0,0-.667,0l-2.568.813V116Z" transform="translate(-284.769 -29.789)" fill="#f57f17"/>
      <path id="Trazado_1021432" data-name="Trazado 1021432" d="M321.016,116v7.435a1.105,1.105,0,0,1-1.439,1.054l-3.673-1.163-3.671,1.163a1.105,1.105,0,0,1-1.442-1.054V116H302.24v25.958h27.326V116Zm3.258,21.1H307.535a1.105,1.105,0,0,1,0-2.211h16.736a1.105,1.105,0,0,1,0,2.211Zm0-6.279H307.535a1.105,1.105,0,0,1,0-2.211h16.736a1.105,1.105,0,0,1,0,2.211Z" transform="translate(-139.771 -29.789)" fill="#fcb64d"/>
      <path id="Trazado_1021433" data-name="Trazado 1021433" d="M582.019,519.149l-2.087,8.567c-.024.1-.04.184-.054.26v.012a4.142,4.142,0,0,1-1.23,1.781c-.22.231-.447.47-.664.724-.285.334-.589.688-.9,1.021l-3.819,4.159a.882.882,0,0,0-.069.085,3.8,3.8,0,0,0-.746,1.97l-.053.655-7.738-1.295a19.7,19.7,0,0,1,4.791-12.129l1.152-1.333a1.054,1.054,0,0,1,1.611,1.354l-2.073,2.547a2.392,2.392,0,0,0,.546,3.275,3.02,3.02,0,0,0,3.3.578,2.033,2.033,0,0,0,.771-.562l2.322-2.845a4.383,4.383,0,0,0,.87-1.774l.026-.109c.04-.174.077-.338.12-.495l1.888-6.935c.009-.032.016-.066.022-.1a1.549,1.549,0,0,1,1.057-.268,1.375,1.375,0,0,1,.953.853Z" transform="translate(-384.06 -404.284)" fill="#ffccbc"/>
      <path id="Trazado_1021434" data-name="Trazado 1021434" d="M549.224,821.338l-.469,2.8-9.736-1.627.468-2.8Z" transform="translate(-360.192 -684.88)" fill="#26c6da"/>
      <path id="Trazado_1021435" data-name="Trazado 1021435" d="M201.485,537.1l-7.738,1.295-.053-.655a3.8,3.8,0,0,0-.746-1.97c-.022-.029-.046-.058-.069-.085l-3.819-4.159c-.306-.334-.61-.691-.895-1.021-.217-.254-.444-.493-.664-.724a4.145,4.145,0,0,1-1.23-1.78v-.012c-.014-.077-.03-.164-.053-.26l-2.088-8.567a1.391,1.391,0,0,1,.951-.854,1.551,1.551,0,0,1,1.057.268.992.992,0,0,0,.022.1l1.885,6.93c.043.158.08.321.12.5l.026.109a4.382,4.382,0,0,0,.87,1.773l2.322,2.845a2.038,2.038,0,0,0,.77.562,3.022,3.022,0,0,0,3.3-.578,2.392,2.392,0,0,0,.546-3.276l-2.073-2.546a1.054,1.054,0,1,1,1.614-1.354l1.152,1.336A19.7,19.7,0,0,1,201.485,537.1Z" transform="translate(-29.821 -404.296)" fill="#ffccbc"/>
      <path id="Trazado_1021436" data-name="Trazado 1021436" d="M323.484,822.51l-9.736,1.627-.468-2.8,9.737-1.628Z" transform="translate(-150.048 -684.88)" fill="#26c6da"/>
      <g id="Grupo_1180393" data-name="Grupo 1180393" transform="translate(153.618 86.902)" opacity="0.5">
        <path id="Trazado_1021437" data-name="Trazado 1021437" d="M453.8,126v5.926l-2.568-.813a1.1,1.1,0,0,0-.667,0l-2.568.813V126Z" transform="translate(-429.078 -126)" fill="#fff"/>
        <path id="Trazado_1021438" data-name="Trazado 1021438" d="M311.016,126v7.435a1.106,1.106,0,0,1-1.439,1.054l-3.674-1.163-3.671,1.163a1.105,1.105,0,0,1-1.442-1.054V126h-8.55v25.958h27.326V126Zm3.258,21.1H297.535a1.105,1.105,0,1,1,0-2.211h16.736a1.105,1.105,0,1,1,0,2.211Zm0-6.279H297.535a1.105,1.105,0,1,1,0-2.211h16.736a1.105,1.105,0,1,1,0,2.211Z" transform="translate(-284.08 -126)" fill="#fff"/>
        <path id="Trazado_1021439" data-name="Trazado 1021439" d="M572.019,529.149l-2.087,8.567c-.024.1-.04.184-.054.26v.012a4.141,4.141,0,0,1-1.23,1.78c-.22.231-.447.47-.664.724-.285.334-.589.688-.9,1.021l-3.819,4.158a.9.9,0,0,0-.069.085,3.8,3.8,0,0,0-.746,1.97l-.053.655-7.738-1.295a19.7,19.7,0,0,1,4.791-12.129l1.152-1.333a1.054,1.054,0,0,1,1.611,1.354l-2.073,2.547a2.393,2.393,0,0,0,.546,3.276,3.02,3.02,0,0,0,3.3.578,2.035,2.035,0,0,0,.771-.562l2.322-2.845a4.384,4.384,0,0,0,.87-1.773l.025-.109c.04-.174.077-.338.12-.495l1.888-6.935c.009-.032.016-.066.022-.1a1.548,1.548,0,0,1,1.057-.268A1.376,1.376,0,0,1,572.019,529.149Z" transform="translate(-528.369 -500.495)" fill="#fff"/>
        <path id="Trazado_1021440" data-name="Trazado 1021440" d="M539.224,831.338l-.468,2.8-9.736-1.627.468-2.8Z" transform="translate(-504.501 -781.091)" fill="#fff"/>
        <path id="Trazado_1021441" data-name="Trazado 1021441" d="M191.485,547.1l-7.738,1.295-.053-.655a3.8,3.8,0,0,0-.746-1.97c-.022-.029-.046-.058-.069-.085l-3.819-4.159c-.306-.334-.61-.691-.895-1.021-.217-.254-.444-.493-.664-.724a4.145,4.145,0,0,1-1.23-1.781v-.012c-.014-.077-.03-.164-.053-.26l-2.088-8.567a1.391,1.391,0,0,1,.951-.854,1.551,1.551,0,0,1,1.057.268.973.973,0,0,0,.022.1l1.885,6.93c.043.158.08.321.12.5l.026.109a4.383,4.383,0,0,0,.87,1.774l2.322,2.845a2.038,2.038,0,0,0,.77.562,3.022,3.022,0,0,0,3.3-.578,2.392,2.392,0,0,0,.546-3.276l-2.073-2.546a1.054,1.054,0,1,1,1.614-1.354l1.152,1.336A19.7,19.7,0,0,1,191.485,547.1Z" transform="translate(-174.13 -500.507)" fill="#fff"/>
        <path id="Trazado_1021442" data-name="Trazado 1021442" d="M313.484,832.51l-9.736,1.627-.468-2.8,9.737-1.628Z" transform="translate(-294.357 -781.091)" fill="#fff"/>
      </g>
      <g id="Grupo_1180394" data-name="Grupo 1180394" transform="translate(152.096 84)">
        <path id="Trazado_1021443" data-name="Trazado 1021443" d="M300.883,84H271.345a1.105,1.105,0,0,0-1.105,1.105v28.169a1.105,1.105,0,0,0,1.105,1.105h29.537a1.105,1.105,0,0,0,1.105-1.105V85.105A1.105,1.105,0,0,0,300.883,84Zm-1.105,28.169H272.451V86.211h27.326Z" transform="translate(-262.078 -84)" fill="#413b32"/>
        <path id="Trazado_1021444" data-name="Trazado 1021444" d="M436.225,85.105v8.541a1.105,1.105,0,0,1-1.439,1.054l-3.673-1.163L427.442,94.7A1.105,1.105,0,0,1,426,93.646V85.105a1.105,1.105,0,1,1,2.211,0v7.031l2.568-.813a1.1,1.1,0,0,1,.667,0l2.568.813V85.105a1.105,1.105,0,1,1,2.211,0Z" transform="translate(-407.076 -84)" fill="#413b32"/>
        <path id="Trazado_1021445" data-name="Trazado 1021445" d="M381.827,299.615a1.105,1.105,0,0,1-1.105,1.105H363.985a1.105,1.105,0,1,1,0-2.211h16.736A1.105,1.105,0,0,1,381.827,299.615Z" transform="translate(-348.317 -283.69)" fill="#413b32"/>
        <path id="Trazado_1021446" data-name="Trazado 1021446" d="M381.827,390.5a1.105,1.105,0,0,1-1.105,1.105H363.985a1.105,1.105,0,0,1,0-2.211h16.736A1.105,1.105,0,0,1,381.827,390.5Z" transform="translate(-348.317 -368.291)" fill="#413b32"/>
        <path id="Trazado_1021447" data-name="Trazado 1021447" d="M553.594,487.622a3.5,3.5,0,0,0-2.3-1.336c-1.488-.138-3.157.588-3.428,2.037l-1.875,6.885c-.054.2-.1.393-.138.58l-.024.106a2.171,2.171,0,0,1-.429.875l-2.27,2.781a.829.829,0,0,1-.89-.161,1.211,1.211,0,0,1-.276-.366l2-2.453a3.264,3.264,0,1,0-5-4.2L537.8,493.7a21.907,21.907,0,0,0-5.329,13.549q-.017.484-.014.971a1.105,1.105,0,0,0,.923,1.081l9.861,1.65a1.088,1.088,0,0,0,.182.015,1.105,1.105,0,0,0,1.1-1.016l.059-.719.093-1.135a1.589,1.589,0,0,1,.283-.785l3.777-4.113c.331-.361.65-.732.948-1.081.179-.207.376-.418.585-.638a5.861,5.861,0,0,0,1.8-2.9v-.013c.01-.052.019-.1.027-.138l2.111-8.654c.008-.036.016-.073.021-.109A2.711,2.711,0,0,0,553.594,487.622Zm-3.636,10.287c-.024.1-.04.184-.054.26v.012a4.141,4.141,0,0,1-1.23,1.78c-.22.231-.447.47-.664.724-.285.334-.589.688-.9,1.021l-3.819,4.159a.892.892,0,0,0-.069.085,3.8,3.8,0,0,0-.746,1.97l-.053.655-7.738-1.295a19.7,19.7,0,0,1,4.791-12.129l1.152-1.333a1.054,1.054,0,0,1,1.611,1.354l-2.073,2.547a2.393,2.393,0,0,0,.547,3.276,3.02,3.02,0,0,0,3.3.578,2.037,2.037,0,0,0,.771-.562l2.322-2.845a4.382,4.382,0,0,0,.87-1.774l.026-.109c.04-.174.077-.338.12-.495l1.888-6.935c.009-.032.016-.066.022-.1a1.549,1.549,0,0,1,1.057-.268,1.385,1.385,0,0,1,.951.854Z" transform="translate(-506.182 -458.477)" fill="#413b32"/>
        <path id="Trazado_1021448" data-name="Trazado 1021448" d="M521.067,790.055a2.1,2.1,0,0,0-1.374-.859l-9.921-1.658a2.118,2.118,0,0,0-2.437,1.739l-.5,2.985a2.118,2.118,0,0,0,1.74,2.437l9.921,1.658a2.2,2.2,0,0,0,.354.029,2.116,2.116,0,0,0,2.084-1.769l.5-2.984A2.1,2.1,0,0,0,521.067,790.055Zm-2.3,4.106-9.737-1.627.468-2.8,9.737,1.628Z" transform="translate(-482.3 -738.904)" fill="#413b32"/>
        <path id="Trazado_1021449" data-name="Trazado 1021449" d="M173.875,507.264a21.907,21.907,0,0,0-5.329-13.549l-1.152-1.332a3.264,3.264,0,1,0-5,4.2l2,2.453a1.211,1.211,0,0,1-.276.366.829.829,0,0,1-.89.161l-2.272-2.781a2.171,2.171,0,0,1-.429-.875l-.024-.106c-.044-.187-.088-.381-.142-.58l-1.875-6.884c-.272-1.451-1.941-2.174-3.428-2.037a3.5,3.5,0,0,0-2.3,1.336,2.72,2.72,0,0,0-.64,2.048c0,.037.012.073.021.109l2.109,8.654c.008.035.017.084.027.138v.013a5.84,5.84,0,0,0,1.8,2.9c.207.22.406.428.585.638.3.345.617.72.948,1.081l3.777,4.113a1.59,1.59,0,0,1,.283.784l.094,1.133.059.719a1.105,1.105,0,0,0,1.1,1.016,1.088,1.088,0,0,0,.182-.015l9.861-1.65a1.105,1.105,0,0,0,.924-1.083Q173.893,507.748,173.875,507.264Zm-14.637-5.547c-.306-.334-.61-.691-.895-1.021-.217-.254-.444-.493-.664-.724a4.146,4.146,0,0,1-1.23-1.78v-.012c-.014-.077-.03-.164-.053-.26l-2.088-8.567a1.391,1.391,0,0,1,.951-.854,1.551,1.551,0,0,1,1.057.268.974.974,0,0,0,.022.1l1.886,6.93c.043.158.08.321.12.5l.026.109a4.383,4.383,0,0,0,.87,1.774l2.322,2.845a2.039,2.039,0,0,0,.77.562,3.022,3.022,0,0,0,3.3-.578,2.392,2.392,0,0,0,.546-3.276l-2.073-2.546a1.054,1.054,0,1,1,1.614-1.354l1.152,1.336a19.7,19.7,0,0,1,4.79,12.129l-7.738,1.295-.053-.655a3.8,3.8,0,0,0-.746-1.97c-.022-.029-.046-.058-.069-.085Z" transform="translate(-152.096 -458.487)" fill="#413b32"/>
        <path id="Trazado_1021450" data-name="Trazado 1021450" d="M295.7,792.261l-.5-2.985a2.118,2.118,0,0,0-2.437-1.739l-9.921,1.658a2.118,2.118,0,0,0-1.739,2.438l.5,2.984a2.116,2.116,0,0,0,2.084,1.769,2.2,2.2,0,0,0,.354-.029l9.921-1.658A2.117,2.117,0,0,0,295.7,792.261Zm-11.932,1.9-.468-2.8,9.737-1.628.469,2.8Z" transform="translate(-272.165 -738.903)" fill="#413b32"/>
      </g>
    </g>
  </g>
</svg>
