<svg xmlns="http://www.w3.org/2000/svg" xmlns:xlink="http://www.w3.org/1999/xlink" width="292" height="163" viewBox="0 0 292 163">
  <defs>
    <clipPath id="clip-path">
      <rect id="Rectángulo_457078" data-name="Rectángulo 457078" width="210.976" height="140.707" fill="none"/>
    </clipPath>
  </defs>
  <g id="Grupo_1180798" data-name="Grupo 1180798" transform="translate(-185.84 -323)">
    <rect id="Rectángulo_456590" data-name="Rectángulo 456590" width="292" height="163" rx="10" transform="translate(185.84 323)" fill="#a2cbcf"/>
    <g id="Grupo_1180797" data-name="Grupo 1180797" transform="translate(226.84 334)">
      <g id="Grupo_1180796" data-name="Grupo 1180796" clip-path="url(#clip-path)">
        <path id="Trazado_1024070" data-name="Trazado 1024070" d="M672.958,181.665h-88.2a1.924,1.924,0,0,1-1.924-1.924V66.407a1.924,1.924,0,0,1,1.924-1.924h88.2a1.924,1.924,0,0,1,1.924,1.924V179.74a1.924,1.924,0,0,1-1.924,1.924" transform="translate(-538.02 -59.525)" fill="#fff"/>
        <path id="Trazado_1024071" data-name="Trazado 1024071" d="M670.926,179.8h-88.2a2.1,2.1,0,0,1-2.094-2.094V64.375a2.1,2.1,0,0,1,2.094-2.094h88.2a2.1,2.1,0,0,1,2.094,2.094V177.708a2.1,2.1,0,0,1-2.094,2.094M582.726,62.62a1.757,1.757,0,0,0-1.755,1.755V177.708a1.757,1.757,0,0,0,1.755,1.755h88.2a1.757,1.757,0,0,0,1.755-1.755V64.375a1.757,1.757,0,0,0-1.755-1.755Z" transform="translate(-535.988 -57.492)"/>
        <path id="Trazado_1024072" data-name="Trazado 1024072" d="M725.517,232.467H643.039a.169.169,0,0,1-.169-.169V124.686a.169.169,0,0,1,.169-.169h82.478a.169.169,0,0,1,.169.169V232.3a.169.169,0,0,1-.169.169m-82.309-.339h82.139V124.856H643.209Z" transform="translate(-593.44 -114.943)"/>
        <path id="Trazado_1024073" data-name="Trazado 1024073" d="M900.641,14.326H863.277a6.261,6.261,0,0,1-6.261-6.261V0H906.9V8.066a6.261,6.261,0,0,1-6.261,6.261" transform="translate(-791.121)" fill="#e2eaff"/>
        <rect id="Rectángulo_457070" data-name="Rectángulo 457070" width="33.128" height="12.474" transform="translate(77.222 23.05)" fill="#fff"/>
        <path id="Trazado_1024074" data-name="Trazado 1024074" d="M1035.419,310.4h-33.128a.169.169,0,0,1-.169-.169V297.752a.169.169,0,0,1,.169-.169h33.128a.169.169,0,0,1,.169.169v12.474a.169.169,0,0,1-.169.169m-32.958-.339h32.789V297.922h-32.789Z" transform="translate(-925.07 -274.702)"/>
        <rect id="Rectángulo_457071" data-name="Rectángulo 457071" width="13.714" height="12.474" transform="translate(110.349 23.05)" fill="#fff"/>
        <path id="Trazado_1024075" data-name="Trazado 1024075" d="M1446.852,310.4h-13.714a.169.169,0,0,1-.169-.169V297.752a.169.169,0,0,1,.169-.169h13.714a.169.169,0,0,1,.169.169v12.474a.169.169,0,0,1-.169.169m-13.545-.339h13.375V297.922h-13.375Z" transform="translate(-1322.789 -274.702)"/>
        <rect id="Rectángulo_457072" data-name="Rectángulo 457072" width="17.333" height="12.474" transform="translate(57.613 23.05)" fill="#e2eaff"/>
        <rect id="Rectángulo_457073" data-name="Rectángulo 457073" width="66.45" height="8.366" transform="translate(57.613 41.082)" fill="#fff"/>
        <path id="Trazado_1024076" data-name="Trazado 1024076" d="M813.716,540.8h-66.45a.169.169,0,0,1-.169-.169v-8.366a.169.169,0,0,1,.169-.169h66.45a.169.169,0,0,1,.169.169v8.366a.169.169,0,0,1-.169.169m-66.281-.339h66.112v-8.028H747.435Z" transform="translate(-689.652 -491.185)"/>
        <path id="Trazado_1024077" data-name="Trazado 1024077" d="M1016.636,542.666v0Z" transform="translate(-938.468 -493.218)" fill="#fff"/>
        <path id="Trazado_1024078" data-name="Trazado 1024078" d="M1014.6,540.8a.169.169,0,0,1-.169-.169v-8.366a.169.169,0,0,1,.339,0v8.366a.169.169,0,0,1-.169.169" transform="translate(-936.435 -491.185)"/>
        <rect id="Rectángulo_457074" data-name="Rectángulo 457074" width="66.45" height="8.366" transform="translate(57.613 55.844)" fill="#fff"/>
        <path id="Trazado_1024079" data-name="Trazado 1024079" d="M813.716,732.8h-66.45a.169.169,0,0,1-.169-.169v-8.366a.169.169,0,0,1,.169-.169h66.45a.169.169,0,0,1,.169.169v8.366a.169.169,0,0,1-.169.169m-66.281-.339h66.112v-8.027H747.435Z" transform="translate(-689.652 -668.418)"/>
        <path id="Trazado_1024080" data-name="Trazado 1024080" d="M1016.636,734.661v0Z" transform="translate(-938.468 -670.451)" fill="#fff"/>
        <path id="Trazado_1024081" data-name="Trazado 1024081" d="M1014.6,732.8a.169.169,0,0,1-.169-.169v-8.366a.169.169,0,1,1,.339,0v8.366a.169.169,0,0,1-.169.169" transform="translate(-936.435 -668.418)"/>
        <rect id="Rectángulo_457075" data-name="Rectángulo 457075" width="66.45" height="8.366" transform="translate(57.613 70.607)" fill="#fff"/>
        <path id="Trazado_1024082" data-name="Trazado 1024082" d="M813.716,924.794h-66.45a.169.169,0,0,1-.169-.169v-8.366a.169.169,0,0,1,.169-.169h66.45a.169.169,0,0,1,.169.169v8.366a.169.169,0,0,1-.169.169m-66.281-.339h66.112v-8.027H747.435Z" transform="translate(-689.652 -845.652)"/>
        <path id="Trazado_1024083" data-name="Trazado 1024083" d="M1016.636,926.657v0Z" transform="translate(-938.468 -847.684)" fill="#fff"/>
        <path id="Trazado_1024084" data-name="Trazado 1024084" d="M1014.6,924.793a.169.169,0,0,1-.169-.169v-8.366a.169.169,0,1,1,.339,0v8.366a.169.169,0,0,1-.169.169" transform="translate(-936.435 -845.651)"/>
        <rect id="Rectángulo_457076" data-name="Rectángulo 457076" width="66.45" height="8.366" transform="translate(57.613 85.369)" fill="#fff"/>
        <path id="Trazado_1024085" data-name="Trazado 1024085" d="M813.716,1116.789h-66.45a.169.169,0,0,1-.169-.169v-8.366a.169.169,0,0,1,.169-.169h66.45a.169.169,0,0,1,.169.169v8.366a.169.169,0,0,1-.169.169m-66.281-.339h66.112v-8.027H747.435Z" transform="translate(-689.652 -1022.884)"/>
        <path id="Trazado_1024086" data-name="Trazado 1024086" d="M1016.636,1118.652v0Z" transform="translate(-938.468 -1024.917)" fill="#fff"/>
        <path id="Trazado_1024087" data-name="Trazado 1024087" d="M1014.6,1116.79a.169.169,0,0,1-.169-.169v-8.366a.169.169,0,0,1,.339,0v8.366a.169.169,0,0,1-.169.169" transform="translate(-936.435 -1022.885)"/>
        <path id="Trazado_1024088" data-name="Trazado 1024088" d="M1474.592,403.3c.963,2.576,3.817,23.478,3.817,23.478l.922-1.086s8.535,5.094,12.064,11.158a18.823,18.823,0,0,1-15.673,7.8c-17.136.018-12.658-35.7-12.658-35.7a2.809,2.809,0,0,1-2.617-1.993c-.723-2.051-.622-3.578,1.429-3.384,0,0-.995-3.221,1.776-3.352,0,0,.181-4,4.068-.885,0,0-5.033-7.395-2.034-8.211.824-.224,1.242-.628,2.427,1.439s5.515,8.154,6.478,10.73" transform="translate(-1347.778 -360.879)" fill="#fff"/>
        <path id="Trazado_1024089" data-name="Trazado 1024089" d="M1473.651,442.807a9.991,9.991,0,0,1-7.787-3.5c-4.118-4.661-5.264-13.225-5.5-19.588a90.324,90.324,0,0,1,.452-12.616,3,3,0,0,1-2.588-2.1c-.525-1.49-.557-2.5-.1-3.088a1.678,1.678,0,0,1,1.464-.536,3.36,3.36,0,0,1,.279-2.52,2.021,2.021,0,0,1,1.563-.808,2.431,2.431,0,0,1,1.119-1.952,2.644,2.644,0,0,1,2.468.553c-.985-1.58-3.024-5.162-2.4-6.847a1.337,1.337,0,0,1,.96-.854c.082-.022.159-.046.234-.069.8-.248,1.306-.3,2.385,1.588.383.668,1.1,1.761,1.926,3.026a56.131,56.131,0,0,1,4.564,7.729c.9,2.4,3.374,20.221,3.775,23.139l.677-.8a.169.169,0,0,1,.258.219l-.922,1.086a.169.169,0,0,1-.3-.087c-.028-.209-2.863-20.912-3.808-23.441a56.088,56.088,0,0,0-4.531-7.662c-.831-1.27-1.548-2.366-1.936-3.043-1-1.74-1.371-1.624-1.991-1.432-.078.024-.159.049-.245.073a1,1,0,0,0-.732.645c-.734,1.988,2.825,7.254,2.861,7.307a.169.169,0,0,1-.246.227c-1.222-.98-2.211-1.343-2.859-1.05-.857.387-.934,1.8-.934,1.811a.169.169,0,0,1-.161.161,1.764,1.764,0,0,0-1.45.673,3.344,3.344,0,0,0-.172,2.46.169.169,0,0,1-.178.218,1.511,1.511,0,0,0-1.4.392c-.377.482-.326,1.413.151,2.767a2.623,2.623,0,0,0,2.452,1.88.169.169,0,0,1,.173.19c-.029.232-2.821,23.328,4.945,32.119a9.666,9.666,0,0,0,7.533,3.388h.012a18.791,18.791,0,0,0,15.529-7.723.169.169,0,0,1,.288.179,16.468,16.468,0,0,1-3.819,3.943,19.614,19.614,0,0,1-12,3.94Z" transform="translate(-1345.719 -358.869)"/>
        <path id="Trazado_1024090" data-name="Trazado 1024090" d="M1546.446,536.979a3.332,3.332,0,0,1-2.782-1.521,6.559,6.559,0,0,1-.48-1.008,2.644,2.644,0,0,0-1.665-1.9c-.132-.063-.264-.127-.391-.2a1.788,1.788,0,0,1-1.014-1.152,1.505,1.505,0,0,1,.639-1.449,3.237,3.237,0,0,1,1.457-.521,9.728,9.728,0,0,1,5.34.7.169.169,0,1,1-.136.31,9.383,9.383,0,0,0-5.152-.675,2.934,2.934,0,0,0-1.307.459,1.174,1.174,0,0,0-.509,1.109,1.546,1.546,0,0,0,.843.922c.123.067.25.128.377.189a2.959,2.959,0,0,1,1.832,2.081,6.312,6.312,0,0,0,.453.957,2.972,2.972,0,0,0,2.93,1.327.169.169,0,0,1,.055.334,3.036,3.036,0,0,1-.49.039" transform="translate(-1421.675 -488.433)"/>
        <path id="Trazado_1024091" data-name="Trazado 1024091" d="M1510.943,520.285a1.8,1.8,0,0,1-.8-.194,3.382,3.382,0,0,1-1.083-.96,8.7,8.7,0,0,1-1.875-5.311.169.169,0,0,1,.168-.171.166.166,0,0,1,.171.168,8.358,8.358,0,0,0,1.8,5.1,3.075,3.075,0,0,0,.969.868,1.266,1.266,0,0,0,1.17.03.78.78,0,0,0,.348-.959.169.169,0,0,1,.3-.155,1.1,1.1,0,0,1-.481,1.408,1.391,1.391,0,0,1-.69.173" transform="translate(-1391.298 -474.155)"/>
        <path id="Trazado_1024092" data-name="Trazado 1024092" d="M1488.051,560.56a2.052,2.052,0,0,1-.455-.051,3.117,3.117,0,0,1-1.98-1.668,8.919,8.919,0,0,1-.744-2.454.169.169,0,0,1,.332-.066,8.667,8.667,0,0,0,.712,2.363,2.782,2.782,0,0,0,1.755,1.5,1.639,1.639,0,0,0,1.89-.892.169.169,0,0,1,.317.118,1.937,1.937,0,0,1-1.828,1.155" transform="translate(-1370.699 -513.42)"/>
        <path id="Trazado_1024093" data-name="Trazado 1024093" d="M1499.284,609.313a.169.169,0,0,1-.009-.338.972.972,0,0,0,.87-.793.169.169,0,0,1,.335.05,1.308,1.308,0,0,1-1.187,1.081h-.01" transform="translate(-1383.849 -561.286)"/>
        <path id="Trazado_1024094" data-name="Trazado 1024094" d="M1889.442,878.1a.171.171,0,0,1-.035,0,.169.169,0,0,1-.131-.2l1.966-9.412a.169.169,0,0,1,.332.069l-1.966,9.412a.17.17,0,0,1-.166.135" transform="translate(-1744.007 -801.586)" fill="#fff"/>
        <path id="Trazado_1024095" data-name="Trazado 1024095" d="M2256.036,972.382a.17.17,0,0,1-.163-.122c-.646-2.229-1.4-4.458-2.23-6.625a.169.169,0,0,1,.316-.122c.837,2.175,1.59,4.414,2.239,6.652a.169.169,0,0,1-.115.21.174.174,0,0,1-.047.007" transform="translate(-2080.353 -891.176)" fill="#fff"/>
        <path id="Trazado_1024096" data-name="Trazado 1024096" d="M1725.812,714.8l-1.366-17.621-13.5-12.483s6.017-9.481,10.716-10.942,27.409-2.661,33.31-2.087c9.357.91,13.319,13.322,14.4,14.23l2.869,4.718-13.688,9.179.521,14.2Z" transform="translate(-1579.394 -619.889)" fill="#fff"/>
        <path id="Trazado_1024097" data-name="Trazado 1024097" d="M1723.778,712.9a.169.169,0,0,1-.169-.156l-1.362-17.555L1708.8,682.754a.169.169,0,0,1-.028-.215c.247-.389,6.1-9.551,10.809-11.013,4.636-1.441,27.313-2.684,33.376-2.094,7.5.729,11.522,8.65,13.457,12.457a9.548,9.548,0,0,0,1.035,1.812.163.163,0,0,1,.036.042l2.869,4.718a.169.169,0,0,1-.05.229l-13.61,9.126.517,14.1a.169.169,0,0,1-.165.175l-33.264.81h0m-14.644-30.3,13.393,12.386a.17.17,0,0,1,.054.111l1.354,17.461,32.932-.8-.514-14.025a.169.169,0,0,1,.075-.147l13.553-9.089-2.771-4.558a9.277,9.277,0,0,1-1.1-1.9c-1.908-3.753-5.878-11.562-13.188-12.273-6.042-.588-28.63.647-33.243,2.081-4.3,1.338-9.834,9.656-10.547,10.752" transform="translate(-1577.361 -617.822)"/>
        <path id="Trazado_1024098" data-name="Trazado 1024098" d="M2379.127,609.546H2360a.826.826,0,0,1-.785-1.084l8.8-26.765a.826.826,0,0,1,.785-.568h19.132a.827.827,0,0,1,.785,1.084l-8.8,26.765a.826.826,0,0,1-.785.568" transform="translate(-2177.774 -536.446)"/>
        <path id="Trazado_1024099" data-name="Trazado 1024099" d="M2339.331,852.44s-3.351-3.475-2.688-4.128,3.157,1.815,3.157,1.815-3.295-4.022-2.345-4.911,4.631,3.1,4.631,3.1-2.978-3.8-2.286-4.429,3.783,1.9,5.233,4.279c0,0-3.42-4.734-2.571-5.455s8.753,8.37,8.753,8.37-2.147,10.463-9.432,15.547a6.265,6.265,0,0,1-9.237-2.579,66.192,66.192,0,0,1-2.44-6.264l7.962-5.339.629.62Z" transform="translate(-2150.945 -777.874)" fill="#fff"/>
        <path id="Trazado_1024100" data-name="Trazado 1024100" d="M2336.243,865.709a6.489,6.489,0,0,1-5.884-3.779,66.781,66.781,0,0,1-2.446-6.281.169.169,0,0,1,.066-.2l7.962-5.339a.169.169,0,0,1,.213.02l.511.5.4-.387c-.918-.963-3.263-3.561-2.569-4.245.428-.422,1.341.1,2.123.7-.93-1.32-2-3.151-1.308-3.8a.682.682,0,0,1,.513-.174c.742.027,1.935.961,2.886,1.826-.789-1.186-1.524-2.556-1.052-2.986a.649.649,0,0,1,.553-.132,6.927,6.927,0,0,1,2.923,1.966c-.729-1.281-1.293-2.6-.809-3.014.211-.18.652-.555,4.927,3.926,2.061,2.16,4.044,4.438,4.063,4.461a.169.169,0,0,1,.038.145c-.021.105-2.245,10.588-9.5,15.652a6.289,6.289,0,0,1-3.6,1.131m-7.968-10.045c.808,2.369,1.613,4.429,2.391,6.125a6.137,6.137,0,0,0,3.979,3.367,5.98,5.98,0,0,0,5.007-.856c6.808-4.751,9.124-14.376,9.345-15.361-.331-.378-2.079-2.37-3.909-4.293-3.823-4.018-4.465-4.031-4.553-3.993-.383.326.623,2.3,1.925,4.25a10.986,10.986,0,0,1,.684.986.169.169,0,0,1-.281.187c-.135-.187-.393-.55-.7-1.006-1.325-1.709-3.163-3.173-4.007-3.294a.338.338,0,0,0-.277.046c-.355.324.92,2.433,2.306,4.2a.169.169,0,0,1-.258.219c-.8-.869-3.11-3.133-4.122-3.17a.354.354,0,0,0-.27.083c-.608.569,1.125,3.172,2.36,4.68a.169.169,0,0,1-.25.228c-.958-.948-2.548-2.18-2.919-1.815-.325.32,1.129,2.27,2.691,3.89a.169.169,0,0,1,0,.239l-.634.621a.17.17,0,0,1-.238,0l-.531-.523Z" transform="translate(-2148.913 -775.69)"/>
        <path id="Trazado_1024101" data-name="Trazado 1024101" d="M2375.258,974.239a.169.169,0,0,1-.13-.278c.238-.283.494-.593.766-.919a60.83,60.83,0,0,1,4.848-5.407.169.169,0,1,1,.228.25,60.751,60.751,0,0,0-4.815,5.373c-.271.327-.529.637-.767.92a.169.169,0,0,1-.13.061" transform="translate(-2192.47 -893.194)"/>
        <path id="Trazado_1024102" data-name="Trazado 1024102" d="M2452.823,971.85a.169.169,0,0,1-.116-.046l-.979-.928a.169.169,0,1,1,.233-.246l.979.928a.169.169,0,0,1-.116.292" transform="translate(-2263.167 -895.956)"/>
        <path id="Trazado_1024103" data-name="Trazado 1024103" d="M2458,941.667a.168.168,0,0,1-.129-.06l-1.064-1.252a.169.169,0,1,1,.258-.219l1.064,1.252a.169.169,0,0,1-.129.279" transform="translate(-2267.871 -867.794)"/>
        <path id="Trazado_1024104" data-name="Trazado 1024104" d="M2488.323,917.631a.168.168,0,0,1-.121-.051l-.968-.99a.169.169,0,0,1,.242-.237l.968.99a.169.169,0,0,1-.121.288" transform="translate(-2295.948 -845.849)"/>
        <path id="Trazado_1024105" data-name="Trazado 1024105" d="M1698.358,863.856a.169.169,0,0,1-.164-.126l-1.315-4.99a.169.169,0,0,1,.327-.086l1.315,4.991a.169.169,0,0,1-.164.213" transform="translate(-1566.403 -792.515)"/>
        <path id="Trazado_1024106" data-name="Trazado 1024106" d="M1983.918,544.49l2.612,6.3-2.306,1.056s-.109,3.9,6.094,3.727a13.19,13.19,0,0,0,9.4-4l-4.561-1.86-3.455-8.977Z" transform="translate(-1831.376 -499.156)" fill="#fff"/>
        <path id="Trazado_1024107" data-name="Trazado 1024107" d="M1987.878,553.714a6.579,6.579,0,0,1-4.8-1.527,3.478,3.478,0,0,1-1.06-2.381.169.169,0,0,1,.1-.149l2.158-.988-2.55-6.147a.169.169,0,0,1,.083-.217l7.782-3.758a.169.169,0,0,1,.232.092l3.429,8.909,4.494,1.832a.17.17,0,0,1,.066.265,13.488,13.488,0,0,1-9.524,4.064q-.209.006-.412.006m-5.513-3.8a3.257,3.257,0,0,0,.963,2.035c1.01,1,2.677,1.481,4.953,1.416a13.337,13.337,0,0,0,9.115-3.769l-4.336-1.768a.169.169,0,0,1-.094-.1l-3.39-8.805-7.473,3.609,2.551,6.15a.169.169,0,0,1-.086.219Z" transform="translate(-1829.343 -497.122)"/>
        <path id="Trazado_1024108" data-name="Trazado 1024108" d="M2018.778,675.1a.169.169,0,0,1-.154-.1l-.866-1.9a.169.169,0,0,1,.308-.14l.866,1.9a.169.169,0,0,1-.154.24" transform="translate(-1862.6 -621.122)"/>
        <path id="Trazado_1024109" data-name="Trazado 1024109" d="M1952.952,318.177c-.638-.957-1.966-1.322-2.491-2.346a4.768,4.768,0,0,1-.131-2.619,9.823,9.823,0,0,0-1.854-6.658,7.9,7.9,0,0,0-2.366-2.159c-.051.076-.1.153-.154.228a13.57,13.57,0,0,1-2.066,2.417l.184.027c.234.035.175.421-.055.408-.2-.011-.406-.026-.609-.041a6.623,6.623,0,0,1-1.12.691,4.5,4.5,0,0,1-2.254.482,4.87,4.87,0,0,1-1.187-.23,8.464,8.464,0,0,1-1.113-.516,4.736,4.736,0,0,0-1.74,1.417,6.632,6.632,0,0,0-1.3,3.729,9.148,9.148,0,0,0,.5,3.307,12.927,12.927,0,0,0,6.144,5.211,19.428,19.428,0,0,0,6.175,1.28,9.378,9.378,0,0,0,2.952-.2,4.066,4.066,0,0,0,2.406-1.626,2.626,2.626,0,0,0,.078-2.806" transform="translate(-1785.933 -280.991)"/>
        <path id="Trazado_1024110" data-name="Trazado 1024110" d="M1931.516,424.908a6.831,6.831,0,0,0,.247,3.857,4.95,4.95,0,0,0,4.958,2.623,8.137,8.137,0,0,0,5.116-2.836,2.989,2.989,0,0,1,1.064-.893,4.376,4.376,0,0,1,1.766,0,3.473,3.473,0,0,0,3.2-1.863,2.211,2.211,0,0,0,0-2.193,2.164,2.164,0,0,0-1.954-.809,6.381,6.381,0,0,0-2.1.657,1.574,1.574,0,0,0,.266-1.357,2.8,2.8,0,0,0-.713-1.226,9.059,9.059,0,0,0-4.221-2.2c-3.434-1-3.872-2.295-4.249-2.236s-.8,1.144-.972,1.453a21.885,21.885,0,0,0-2.4,7.02" transform="translate(-1782.858 -384.414)" fill="#fff"/>
        <path id="Trazado_1024111" data-name="Trazado 1024111" d="M1934.2,429.543a5.071,5.071,0,0,1-4.63-2.745,7.055,7.055,0,0,1-.259-3.953,21.943,21.943,0,0,1,2.421-7.074c.033-.06.076-.151.126-.257.317-.668.609-1.225.969-1.281.193-.03.341.1.583.317a8.591,8.591,0,0,0,3.739,1.924,9.223,9.223,0,0,1,4.3,2.243,2.95,2.95,0,0,1,.754,1.3,1.862,1.862,0,0,1-.042,1.042,5.408,5.408,0,0,1,1.7-.471,2.339,2.339,0,0,1,2.106.883,2.383,2.383,0,0,1,.011,2.364,3.661,3.661,0,0,1-3.356,1.956c-.172-.008-.346-.029-.514-.049a2.5,2.5,0,0,0-1.184.039,2.58,2.58,0,0,0-.918.759l-.081.09a8.266,8.266,0,0,1-5.226,2.892q-.249.023-.5.023m-1.323-14.977c-.211.033-.576.8-.714,1.092-.054.114-.1.21-.135.274a21.611,21.611,0,0,0-2.384,6.966,6.753,6.753,0,0,0,.234,3.761,4.785,4.785,0,0,0,4.788,2.523,7.932,7.932,0,0,0,5.006-2.781l.08-.089a2.822,2.822,0,0,1,1.05-.849,2.783,2.783,0,0,1,1.345-.058c.162.019.33.039.49.047a3.311,3.311,0,0,0,3.037-1.77,2.048,2.048,0,0,0,.011-2.021,2,2,0,0,0-1.8-.735,6.227,6.227,0,0,0-2.045.643.169.169,0,0,1-.2-.263,1.412,1.412,0,0,0,.232-1.21,2.615,2.615,0,0,0-.672-1.15,8.933,8.933,0,0,0-4.144-2.149,9.011,9.011,0,0,1-3.87-2,1.238,1.238,0,0,0-.307-.235m-3.4,8.305h0Z" transform="translate(-1780.824 -382.377)"/>
        <path id="Trazado_1024112" data-name="Trazado 1024112" d="M2088.923,530.78a.169.169,0,0,1-.137-.269,2.625,2.625,0,0,1,2.41-1.05.169.169,0,0,1-.041.336,2.311,2.311,0,0,0-2.095.913.17.17,0,0,1-.137.07" transform="translate(-1928.151 -488.735)"/>
        <path id="Trazado_1024113" data-name="Trazado 1024113" d="M1932.074,318.733l-18.337-11.892a.8.8,0,1,1,.882-1.341l18.981,12.652a1.011,1.011,0,0,1-1.526.582" transform="translate(-1766.253 -281.886)" fill="#5479f7"/>
        <path id="Trazado_1024114" data-name="Trazado 1024114" d="M1990.333,292.9l-1.557-1.383s5.158-8.912,13.076-3.811c8.535,5.5,1.355,12.689,1.355,12.689Z" transform="translate(-1835.86 -264.132)" fill="#5479f7"/>
        <path id="Trazado_1024115" data-name="Trazado 1024115" d="M1874.1,664.651l-7.318,15.076-5.251-14.513-11.209,1.466,1.348,22.832V719.3H1890.3l-3.619-30.027-1.191-24.376Z" transform="translate(-1708.052 -613.546)" fill="#5479f7"/>
        <path id="Trazado_1024116" data-name="Trazado 1024116" d="M1908.654,986.127H1875.09a.169.169,0,1,1,0-.339h33.563a.169.169,0,0,1,0,.339" transform="translate(-1730.76 -909.992)" fill="#fff"/>
        <path id="Trazado_1024117" data-name="Trazado 1024117" d="M2210.3,693.991a.169.169,0,0,1-.169-.169V669.488a.169.169,0,1,1,.338,0v24.333a.169.169,0,0,1-.169.169" transform="translate(-2040.199 -617.856)" fill="#fff"/>
        <path id="Trazado_1024118" data-name="Trazado 1024118" d="M1919.944,709.453a.169.169,0,0,1-.169-.167l-.35-22.784a.169.169,0,0,1,.167-.172.175.175,0,0,1,.172.167l.35,22.784a.169.169,0,0,1-.167.172Z" transform="translate(-1771.842 -633.56)" fill="#fff"/>
        <path id="Trazado_1024119" data-name="Trazado 1024119" d="M19.817,267.85A17.615,17.615,0,0,0,2.2,285.465c0,16.966,17.615,34.831,17.615,34.831s17.615-18.028,17.615-34.831A17.615,17.615,0,0,0,19.817,267.85m0,26.223a8.208,8.208,0,1,1,8.208-8.208,8.208,8.208,0,0,1-8.208,8.208" transform="translate(-2.033 -247.255)" fill="#fff"/>
        <path id="Trazado_1024120" data-name="Trazado 1024120" d="M17.785,318.434a.17.17,0,0,1-.121-.05,84.246,84.246,0,0,1-8.828-11.078C4.805,301.276,0,292.24,0,283.434a17.784,17.784,0,1,1,35.569,0c0,8.722-4.8,17.763-8.836,23.81a85.955,85.955,0,0,1-8.827,11.139.17.17,0,0,1-.121.051Zm0-52.446A17.466,17.466,0,0,0,.339,283.434c0,8.72,4.772,17.689,8.776,23.678a85.021,85.021,0,0,0,8.67,10.909,86.746,86.746,0,0,0,8.671-10.969c4-6.008,8.776-14.982,8.776-23.617a17.466,17.466,0,0,0-17.446-17.446m0,26.223a8.377,8.377,0,1,1,8.377-8.377,8.387,8.387,0,0,1-8.377,8.377m0-16.416a8.039,8.039,0,1,0,8.039,8.039,8.048,8.048,0,0,0-8.039-8.039" transform="translate(0 -245.223)"/>
        <rect id="Rectángulo_457077" data-name="Rectángulo 457077" width="94.498" height="41.037" transform="translate(17.763 89.226)" fill="#5479f7"/>
        <path id="Trazado_1024121" data-name="Trazado 1024121" d="M368.668,1734.035H228.992a.169.169,0,1,1,0-.339H368.668a.169.169,0,1,1,0,.339" transform="translate(-211.229 -1600.393)"/>
        <path id="Trazado_1024122" data-name="Trazado 1024122" d="M505.066,1651.063A7.066,7.066,0,1,1,498,1644a7.066,7.066,0,0,1,7.066,7.066" transform="translate(-453.186 -1517.591)" fill="#fff"/>
        <path id="Trazado_1024123" data-name="Trazado 1024123" d="M495.966,1656.266a7.235,7.235,0,1,1,7.236-7.236,7.244,7.244,0,0,1-7.236,7.236m0-14.132a6.9,6.9,0,1,0,6.9,6.9,6.9,6.9,0,0,0-6.9-6.9" transform="translate(-451.153 -1515.559)"/>
        <path id="Trazado_1024124" data-name="Trazado 1024124" d="M551.386,1701.592a2.857,2.857,0,1,1-2.857-2.857,2.857,2.857,0,0,1,2.857,2.857" transform="translate(-503.715 -1568.12)" fill="#fff"/>
        <path id="Trazado_1024125" data-name="Trazado 1024125" d="M546.5,1702.586a3.027,3.027,0,1,1,3.027-3.027,3.03,3.03,0,0,1-3.027,3.027m0-5.715a2.688,2.688,0,1,0,2.688,2.688,2.691,2.691,0,0,0-2.688-2.688" transform="translate(-501.682 -1566.088)"/>
        <path id="Trazado_1024126" data-name="Trazado 1024126" d="M300.342,1651.063a7.066,7.066,0,1,1-7.066-7.066,7.066,7.066,0,0,1,7.066,7.066" transform="translate(-264.204 -1517.591)" fill="#fff"/>
        <path id="Trazado_1024127" data-name="Trazado 1024127" d="M291.243,1656.266a7.235,7.235,0,1,1,7.235-7.236,7.244,7.244,0,0,1-7.235,7.236m0-14.132a6.9,6.9,0,1,0,6.9,6.9,6.9,6.9,0,0,0-6.9-6.9" transform="translate(-262.171 -1515.559)"/>
        <path id="Trazado_1024128" data-name="Trazado 1024128" d="M346.663,1701.592a2.857,2.857,0,1,1-2.857-2.857,2.857,2.857,0,0,1,2.857,2.857" transform="translate(-314.733 -1568.12)" fill="#fff"/>
        <path id="Trazado_1024129" data-name="Trazado 1024129" d="M341.772,1702.586a3.027,3.027,0,1,1,3.027-3.027,3.03,3.03,0,0,1-3.027,3.027m0-5.715a2.688,2.688,0,1,0,2.688,2.688,2.691,2.691,0,0,0-2.688-2.688" transform="translate(-312.699 -1566.088)"/>
        <path id="Trazado_1024130" data-name="Trazado 1024130" d="M1514.7,1367.611h40.975v-8.591l-10.133-2.65-3.889-5.965-1.132-1.736c-7.671-4.554-15.186-7.127-25.822-8.257Z" transform="translate(-1398.231 -1237.349)" fill="#fff"/>
        <path id="Trazado_1024131" data-name="Trazado 1024131" d="M1553.638,1365.748h-40.975a.169.169,0,0,1-.169-.169v-27.2a.169.169,0,0,1,.187-.168c10.333,1.1,17.833,3.5,25.89,8.279a.169.169,0,0,1,.055.053l4.985,7.647,10.07,2.634a.169.169,0,0,1,.126.164v8.591a.169.169,0,0,1-.169.169m-40.806-.339h40.637v-8.291l-10.007-2.617a.169.169,0,0,1-.1-.071l-5-7.669c-7.95-4.714-15.363-7.094-25.532-8.194Z" transform="translate(-1396.199 -1235.316)"/>
        <path id="Trazado_1024132" data-name="Trazado 1024132" d="M1566.6,1447.8h0Z" transform="translate(-1424.315 -1336.476)" fill="#fff"/>
        <path id="Trazado_1024133" data-name="Trazado 1024133" d="M1564.567,1445.933h-23.649a.169.169,0,1,1,0-.339h23.649a.169.169,0,0,1,0,.339" transform="translate(-1422.282 -1334.443)"/>
        <path id="Trazado_1024134" data-name="Trazado 1024134" d="M2024.394,1595.625a.169.169,0,0,1-.169-.169V1587.4a.169.169,0,0,1,.339,0v8.052a.169.169,0,0,1-.169.169" transform="translate(-1868.584 -1465.193)"/>
        <path id="Trazado_1024135" data-name="Trazado 1024135" d="M1732.071,1474.428h-13.443a.169.169,0,0,1-.169-.169v-5.915a.169.169,0,0,1,.339,0v5.746h13.273a.169.169,0,1,1,0,.339" transform="translate(-1586.328 -1355.288)"/>
        <path id="Trazado_1024136" data-name="Trazado 1024136" d="M1545.576,1474.428h-4.657a.169.169,0,0,1-.169-.169v-5.915a.169.169,0,0,1,.169-.169h4.657a.169.169,0,0,1,.169.169v5.915a.169.169,0,0,1-.169.169m-4.488-.339h4.319v-5.576h-4.319Z" transform="translate(-1422.282 -1355.288)"/>
        <path id="Trazado_1024137" data-name="Trazado 1024137" d="M1769.62,1651.063a7.066,7.066,0,1,1-7.066-7.066,7.066,7.066,0,0,1,7.066,7.066" transform="translate(-1620.51 -1517.591)" fill="#fff"/>
        <path id="Trazado_1024138" data-name="Trazado 1024138" d="M1760.521,1656.266a7.235,7.235,0,1,1,7.235-7.236,7.244,7.244,0,0,1-7.235,7.236m0-14.132a6.9,6.9,0,1,0,6.9,6.9,6.9,6.9,0,0,0-6.9-6.9" transform="translate(-1618.477 -1515.559)"/>
        <path id="Trazado_1024139" data-name="Trazado 1024139" d="M1815.941,1701.592a2.857,2.857,0,1,1-2.858-2.857,2.857,2.857,0,0,1,2.858,2.857" transform="translate(-1671.039 -1568.12)" fill="#fff"/>
        <path id="Trazado_1024140" data-name="Trazado 1024140" d="M1811.05,1702.586a3.027,3.027,0,1,1,3.027-3.027,3.03,3.03,0,0,1-3.027,3.027m0-5.715a2.688,2.688,0,1,0,2.688,2.688,2.691,2.691,0,0,0-2.688-2.688" transform="translate(-1669.005 -1566.088)"/>
        <path id="Trazado_1024141" data-name="Trazado 1024141" d="M1289.92,1651.063a7.066,7.066,0,1,1-7.066-7.066,7.066,7.066,0,0,1,7.066,7.066" transform="translate(-1177.694 -1517.591)" fill="#fff"/>
        <path id="Trazado_1024142" data-name="Trazado 1024142" d="M1280.822,1656.266a7.235,7.235,0,1,1,7.235-7.236,7.244,7.244,0,0,1-7.235,7.236m0-14.132a6.9,6.9,0,1,0,6.9,6.9,6.9,6.9,0,0,0-6.9-6.9" transform="translate(-1175.661 -1515.559)"/>
        <path id="Trazado_1024143" data-name="Trazado 1024143" d="M1336.241,1701.592a2.857,2.857,0,1,1-2.858-2.857,2.857,2.857,0,0,1,2.858,2.857" transform="translate(-1228.223 -1568.12)" fill="#fff"/>
        <path id="Trazado_1024144" data-name="Trazado 1024144" d="M1331.351,1702.586a3.027,3.027,0,1,1,3.027-3.027,3.03,3.03,0,0,1-3.027,3.027m0-5.715a2.688,2.688,0,1,0,2.688,2.688,2.691,2.691,0,0,0-2.688-2.688" transform="translate(-1226.19 -1566.088)"/>
        <path id="Trazado_1024145" data-name="Trazado 1024145" d="M1085.2,1651.063a7.066,7.066,0,1,1-7.066-7.066,7.066,7.066,0,0,1,7.066,7.066" transform="translate(-988.712 -1517.591)" fill="#fff"/>
        <path id="Trazado_1024146" data-name="Trazado 1024146" d="M1076.1,1656.266a7.235,7.235,0,1,1,7.235-7.236,7.244,7.244,0,0,1-7.235,7.236m0-14.132a6.9,6.9,0,1,0,6.9,6.9,6.9,6.9,0,0,0-6.9-6.9" transform="translate(-986.679 -1515.559)"/>
        <path id="Trazado_1024147" data-name="Trazado 1024147" d="M1131.517,1701.592a2.857,2.857,0,1,1-2.858-2.857,2.857,2.857,0,0,1,2.858,2.857" transform="translate(-1039.24 -1568.12)" fill="#fff"/>
        <path id="Trazado_1024148" data-name="Trazado 1024148" d="M1126.627,1702.586a3.027,3.027,0,1,1,3.027-3.027,3.03,3.03,0,0,1-3.027,3.027m0-5.715a2.688,2.688,0,1,0,2.688,2.688,2.691,2.691,0,0,0-2.688-2.688" transform="translate(-1037.207 -1566.088)"/>
        <path id="Trazado_1024149" data-name="Trazado 1024149" d="M16.543,1038.182H2.1a.169.169,0,0,1-.169-.169V997.158a.169.169,0,0,1,.169-.169H19.712a.169.169,0,0,1,0,.339H2.267v40.516H16.543a.169.169,0,0,1,0,.339" transform="translate(-1.78 -920.331)"/>
        <path id="Trazado_1024150" data-name="Trazado 1024150" d="M1863.782,1400.353h-43.571a.169.169,0,1,1,0-.339h43.4v-27.363H1798.44a.169.169,0,1,1,0-.339h65.342a.169.169,0,0,1,.169.169v27.7a.169.169,0,0,1-.169.169" transform="translate(-1660.003 -1266.796)"/>
        <path id="Trazado_1024151" data-name="Trazado 1024151" d="M2467.629,97.216a9.758,9.758,0,0,0-9.758,9.758c0,9.4,9.758,19.294,9.758,19.294s9.758-9.986,9.758-19.294a9.758,9.758,0,0,0-9.758-9.758m0,14.526a4.547,4.547,0,1,1,4.547-4.547,4.547,4.547,0,0,1-4.547,4.547" transform="translate(-2268.887 -89.741)" fill="#e2eaff"/>
      </g>
    </g>
  </g>
</svg>
