<svg xmlns="http://www.w3.org/2000/svg" width="84" height="84" viewBox="0 0 84 84">
  <g id="Grupo_1180400" data-name="Grupo 1180400" transform="translate(-319.711 -2644)">
    <rect id="Rectángulo_456540" data-name="Rectángulo 456540" width="84" height="84" transform="translate(319.711 2644)" fill="#f2a4ab"/>
    <g id="Grupo_1180399" data-name="Grupo 1180399" transform="translate(250.172 2575.625)">
      <path id="Trazado_1021451" data-name="Trazado 1021451" d="M343.086,150.508c-1.719-1.731-7.541,1.254-12.987,6.65l0,0-.036.035c-2.035,2.024-4.818,4.926-7.739,8.177-2.308,2.569-4.707,5.356-6.9,8.1-1.441,1.8-2.675,3.441-3.693,4.9-.016.025-.032.049-.05.071l-.005.007q-1.035,1.488-1.766,2.717a12.154,12.154,0,0,0-1.462,3.166.038.038,0,0,1,0,.012c0,.022-.009.044-.015.065v0a1.444,1.444,0,0,0-.038.542,1.461,1.461,0,0,0,.553-.036h.006c.022-.005.044-.01.065-.014h.005a12.256,12.256,0,0,0,3.17-1.438q1.242-.724,2.755-1.763l.047-.032c1.466-1.008,3.115-2.233,4.932-3.664,2.762-2.176,5.564-4.554,8.152-6.844,3.276-2.9,6.2-5.662,8.237-7.686l.028-.028c5.438-5.409,8.465-11.212,6.744-12.944Zm-18.128,19.458-.952.952a1.035,1.035,0,1,1-1.464-1.464l.952-.952a1.035,1.035,0,0,1,1.464,1.464Zm4.147-4.147-.952.953a1.035,1.035,0,1,1-1.464-1.464l.952-.952a1.035,1.035,0,1,1,1.464,1.464Zm4.147-4.147-.952.952a1.035,1.035,0,1,1-1.464-1.464l.952-.952a1.035,1.035,0,1,1,1.464,1.464Zm5.694-2.138a1.036,1.036,0,1,1-2.006-.518,2.761,2.761,0,0,0-2.4-2.421,1.035,1.035,0,0,1-.5-2.006,4.59,4.59,0,0,1,4.912,4.944Z" transform="translate(-209.238 -61.783)" fill="#b3e5fc"/>
      <path id="Trazado_1021452" data-name="Trazado 1021452" d="M351.854,686.093l-1.909,1.689-4.485-7.144a18.149,18.149,0,0,0,1.841-.9q1.06-.582,2.324-1.407Z" transform="translate(-243.92 -555.916)" fill="#ff3d00"/>
      <path id="Trazado_1021453" data-name="Trazado 1021453" d="M184.446,555.893q-.831,1.257-1.423,2.314a18.419,18.419,0,0,0-.915,1.834L175,555.506l1.7-1.9Z" transform="translate(-84.489 -439.265)" fill="#ff3d00"/>
      <path id="Trazado_1021454" data-name="Trazado 1021454" d="M796.279,430.666a.176.176,0,0,1-.054.129l-1.722,1.71-1-2.9.776-.773a.184.184,0,0,1,.259,0l1.692,1.7A.176.176,0,0,1,796.279,430.666Z" transform="translate(-662.972 -322.511)" fill="#757575"/>
      <path id="Trazado_1021455" data-name="Trazado 1021455" d="M657.719,417.082l-2.373,2.36L644.8,404.4c2.449-2.187,4.679-4.274,6.47-6.01l.983,2.856L654,406.319l1.278,3.7c0,.012.008.024.012.036Z" transform="translate(-523.893 -294.087)" fill="#ff3d00"/>
      <path id="Trazado_1021456" data-name="Trazado 1021456" d="M843.206,566.646a.177.177,0,0,1-.054.129l-1.722,1.708-1-2.9.776-.77a.184.184,0,0,1,.259,0l1.692,1.7A.179.179,0,0,1,843.206,566.646Z" transform="translate(-706.866 -449.693)" fill="#757575"/>
      <path id="Trazado_1021457" data-name="Trazado 1021457" d="M519.563,165.74a.176.176,0,0,1-.054.129l-.776.772-2.893-1.022,1.724-1.711a.182.182,0,0,1,.259,0l1.689,1.7A.181.181,0,0,1,519.563,165.74Z" transform="translate(-403.277 -74.725)" fill="#757575"/>
      <path id="Trazado_1021458" data-name="Trazado 1021458" d="M299.423,160.786c-1.747,1.775-3.852,3.991-6.056,6.425L278.4,156.556l2.377-2.356,1.966.694,5.042,1.781.034.012,3.7,1.306,5.041,1.78.034.012Z" transform="translate(-181.199 -65.696)" fill="#ff3d00"/>
      <path id="Trazado_1021459" data-name="Trazado 1021459" d="M383.923,117.9a.175.175,0,0,1-.054.129l-.776.771-2.893-1.022,1.722-1.71a.184.184,0,0,1,.129-.052.177.177,0,0,1,.129.054l1.692,1.7A.173.173,0,0,1,383.923,117.9Z" transform="translate(-276.412 -29.986)" fill="#757575"/>
      <g id="Grupo_1180397" data-name="Grupo 1180397" transform="translate(89.864 86.681)" opacity="0.51">
        <path id="Trazado_1021460" data-name="Trazado 1021460" d="M333.086,160.508c-1.719-1.731-7.541,1.254-12.987,6.65l0,0-.036.035c-2.035,2.024-4.818,4.926-7.739,8.177-2.308,2.569-4.707,5.356-6.9,8.1-1.441,1.8-2.675,3.441-3.693,4.9-.016.025-.032.049-.05.071l-.005.007q-1.035,1.488-1.766,2.717a12.155,12.155,0,0,0-1.462,3.166.038.038,0,0,1,0,.012.661.661,0,0,1-.015.065v0a1.444,1.444,0,0,0-.038.542,1.461,1.461,0,0,0,.553-.036h.006c.022-.005.044-.01.065-.014h.005a12.258,12.258,0,0,0,3.17-1.438q1.242-.724,2.755-1.763l.047-.032c1.466-1.008,3.115-2.233,4.932-3.664,2.762-2.176,5.564-4.554,8.152-6.844,3.276-2.9,6.2-5.662,8.237-7.686l.028-.028c5.438-5.409,8.465-11.212,6.744-12.944Zm-18.128,19.458-.952.952a1.035,1.035,0,1,1-1.464-1.464l.952-.952a1.035,1.035,0,0,1,1.464,1.464Zm4.147-4.147-.952.953a1.035,1.035,0,1,1-1.464-1.464l.952-.952a1.035,1.035,0,1,1,1.464,1.464Zm4.147-4.147-.952.952a1.035,1.035,0,1,1-1.464-1.464l.952-.952a1.035,1.035,0,1,1,1.464,1.464Zm5.694-2.138a1.036,1.036,0,1,1-2.006-.518,2.761,2.761,0,0,0-2.4-2.421,1.035,1.035,0,0,1-.5-2.006,4.59,4.59,0,0,1,4.912,4.944Z" transform="translate(-289.75 -157.817)" fill="#fff"/>
        <path id="Trazado_1021461" data-name="Trazado 1021461" d="M341.854,696.093l-1.909,1.689-4.485-7.144a18.148,18.148,0,0,0,1.841-.9q1.06-.582,2.324-1.407Z" transform="translate(-324.431 -651.949)" fill="#fff"/>
        <path id="Trazado_1021462" data-name="Trazado 1021462" d="M174.446,565.893q-.831,1.257-1.423,2.314a18.414,18.414,0,0,0-.915,1.834L165,565.506l1.7-1.9Z" transform="translate(-165 -535.298)" fill="#fff"/>
        <path id="Trazado_1021463" data-name="Trazado 1021463" d="M786.279,440.666a.176.176,0,0,1-.054.129l-1.722,1.71-1-2.9.776-.772a.184.184,0,0,1,.259,0l1.692,1.7A.176.176,0,0,1,786.279,440.666Z" transform="translate(-743.484 -418.544)" fill="#fff"/>
        <path id="Trazado_1021464" data-name="Trazado 1021464" d="M647.719,427.082l-2.373,2.36L634.8,414.4c2.449-2.187,4.679-4.274,6.47-6.01l.983,2.856L644,416.319l1.278,3.7c0,.012.008.024.012.036Z" transform="translate(-604.404 -390.121)" fill="#fff"/>
        <path id="Trazado_1021465" data-name="Trazado 1021465" d="M833.206,576.646a.177.177,0,0,1-.054.129l-1.722,1.708-1-2.9.776-.77a.178.178,0,0,1,.129-.053.18.18,0,0,1,.129.054l1.692,1.7A.179.179,0,0,1,833.206,576.646Z" transform="translate(-787.377 -545.727)" fill="#fff"/>
        <path id="Trazado_1021466" data-name="Trazado 1021466" d="M509.563,175.74a.176.176,0,0,1-.054.129l-.776.772-2.893-1.022,1.724-1.711a.182.182,0,0,1,.259,0l1.689,1.7A.18.18,0,0,1,509.563,175.74Z" transform="translate(-483.788 -170.759)" fill="#fff"/>
        <path id="Trazado_1021467" data-name="Trazado 1021467" d="M289.423,170.786c-1.747,1.775-3.852,3.991-6.056,6.425L268.4,166.556l2.377-2.356,1.966.694,5.042,1.781.034.012,3.7,1.306,5.041,1.78.034.012Z" transform="translate(-261.71 -161.73)" fill="#fff"/>
        <path id="Trazado_1021468" data-name="Trazado 1021468" d="M373.923,127.9a.175.175,0,0,1-.054.129l-.776.771-2.893-1.022,1.722-1.71a.184.184,0,0,1,.129-.052.177.177,0,0,1,.129.054l1.692,1.7A.173.173,0,0,1,373.923,127.9Z" transform="translate(-356.924 -126.02)" fill="#fff"/>
      </g>
      <g id="Grupo_1180398" data-name="Grupo 1180398" transform="translate(84.667 83.959)">
        <path id="Trazado_1021469" data-name="Trazado 1021469" d="M298.98,127.588l-1.544-.543c-1.747,1.775-3.852,3.991-6.057,6.425l.752.535a1.035,1.035,0,0,1,.243,1.443,1.117,1.117,0,0,1-.081.1c2.921-3.253,5.7-6.154,7.739-8.18a1.035,1.035,0,0,1-1.051.22Zm-14.456,25.418a1.035,1.035,0,0,1,.391-1.126q-1.509,1.035-2.755,1.763a12.185,12.185,0,0,1-3.17,1.438,1.035,1.035,0,0,1,1.053.47l.708,1.126a18.143,18.143,0,0,0,1.841-.9q1.06-.582,2.324-1.407Zm-3.993-4.022-1.362-.4q-.831,1.257-1.423,2.314a18.422,18.422,0,0,0-.915,1.834l1.124.717a.988.988,0,0,1,.151.118,1.035,1.035,0,0,1,.31.944,12.108,12.108,0,0,1,1.462-3.166q.727-1.229,1.766-2.717A1.035,1.035,0,0,1,280.53,148.984Zm34-29.762c-1.088-1.1-3.293-1.927-7.622.331a36.171,36.171,0,0,0-7.843,5.869c-.16.153-.319.309-.477.466-.362.36-.747.746-1.15,1.156-1.747,1.775-3.852,3.991-6.056,6.425q-.691.762-1.392,1.553c-2.242,2.523-4.535,5.215-6.627,7.859q-1.668,2.1-2.956,3.907-.672.943-1.235,1.794-.831,1.257-1.423,2.314a18.421,18.421,0,0,0-.915,1.834,6.492,6.492,0,0,0-.551,2.1,2.233,2.233,0,0,0,.6,1.768,2.183,2.183,0,0,0,1.617.617h.144a6.431,6.431,0,0,0,2.107-.537,18.162,18.162,0,0,0,1.841-.9q1.06-.582,2.324-1.407.856-.557,1.8-1.223,1.808-1.271,3.933-2.928c2.659-2.07,5.37-4.347,7.9-6.571q.793-.7,1.561-1.382c2.449-2.187,4.679-4.274,6.47-6.01q.618-.6,1.165-1.143.237-.235.469-.473a36.191,36.191,0,0,0,5.925-7.8c2.292-4.315,1.473-6.527.384-7.622Zm-8.217,14.4-.028.028c-2.039,2.024-4.962,4.784-8.237,7.686-2.588,2.29-5.388,4.668-8.152,6.844-1.817,1.431-3.466,2.653-4.932,3.664l-.047.032q-1.509,1.035-2.755,1.763a12.186,12.186,0,0,1-3.17,1.438h-.005l-.065.014h-.006a1.476,1.476,0,0,1-.553.036,1.444,1.444,0,0,1,.038-.542v0c0-.021.01-.043.015-.065a.038.038,0,0,0,0-.012,12.109,12.109,0,0,1,1.462-3.166q.727-1.229,1.766-2.717l.005-.007.05-.071c1.018-1.456,2.252-3.094,3.693-4.9,2.2-2.746,4.594-5.534,6.9-8.1,2.924-3.255,5.706-6.156,7.742-8.182l.036-.035,0,0c5.446-5.4,11.268-8.38,12.987-6.649s-1.306,7.536-6.748,12.946Z" transform="translate(-263.878 -115.913)" fill="#413b32"/>
        <path id="Trazado_1021470" data-name="Trazado 1021470" d="M315.824,648.425l-3.312,2.932a1.035,1.035,0,0,1-1.562-.224l-5.488-8.739-.344-.547a1.035,1.035,0,0,1,.613-1.573h.006l.065-.014h.005a1.035,1.035,0,0,1,1.053.47l.71,1.123,4.485,7.141,1.909-1.689-2.229-7.757-.392-1.365a1.035,1.035,0,0,1,.391-1.126l.047-.032a1.06,1.06,0,0,1,.271-.122,1.035,1.035,0,0,1,1.28.712l.205.712,2.6,9.039A1.035,1.035,0,0,1,315.824,648.425Z" transform="translate(-290.696 -601.09)" fill="#413b32"/>
        <path id="Trazado_1021471" data-name="Trazado 1021471" d="M149.2,523.6a1.031,1.031,0,0,1-.118.259l-.05.071-.005.007a1.035,1.035,0,0,1-1.112.361l-1.362-.4-7.744-2.283-1.7,1.9,7.108,4.534,1.124.717a.988.988,0,0,1,.151.118,1.035,1.035,0,0,1,.31.944.038.038,0,0,1,0,.012l-.015.065v0a1.035,1.035,0,0,1-1.576.589l-.542-.346-8.7-5.548a1.035,1.035,0,0,1-.214-1.564l2.955-3.291a1.035,1.035,0,0,1,1.063-.3l9.02,2.66.712.21A1.035,1.035,0,0,1,149.2,523.6Z" transform="translate(-131.257 -491.232)" fill="#413b32"/>
        <path id="Trazado_1021472" data-name="Trazado 1021472" d="M624.768,375.855l-3.706,3.688a1.035,1.035,0,0,1-.73.3q-.046,0-.091,0a1.035,1.035,0,0,1-.756-.437l-11.118-15.858-.664-.947a1.035,1.035,0,0,1,.152-1.359,1.049,1.049,0,0,1,.1-.081,1.035,1.035,0,0,1,1.442.254l.529.754,10.546,15.043,2.373-2.36-2.424-7.028c0-.012-.008-.023-.012-.036l-1.278-3.7-1.751-5.073-.986-2.856-.534-1.548a1.035,1.035,0,0,1,.232-1.055l.028-.029a1.021,1.021,0,0,1,.381-.233,1.035,1.035,0,0,1,1.316.641l.21.609.771,2.237.75,2.173,1,2.9.749,2.176.535,1.549.75,2.173,1,2.9.75,2.173.679,1.968A1.035,1.035,0,0,1,624.768,375.855Z" transform="translate(-573.688 -335.81)" fill="#413b32"/>
        <path id="Trazado_1021473" data-name="Trazado 1021473" d="M264.156,128.492a1.035,1.035,0,0,1-.23.373l0,0-.036.035a1.035,1.035,0,0,1-1.051.219l-1.544-.543-2.831-1-.034-.012-5.041-1.78-3.7-1.308-.034-.012-5.042-1.781-1.967-.694-2.377,2.356L255.234,135l.752.535a1.035,1.035,0,0,1,.243,1.443,1.118,1.118,0,0,1-.081.1,1.035,1.035,0,0,1-1.363.143l-.943-.672-15.777-11.229a1.035,1.035,0,0,1-.129-1.579l3.712-3.679a1.035,1.035,0,0,1,1.073-.241l1.965.694,2.167.765,2.894,1.02,2.167.765,1.546.545,2.167.765,2.893,1.022,2.165.768,2.228.787.607.214a1.035,1.035,0,0,1,.635,1.321Z" transform="translate(-227.732 -117.449)" fill="#413b32"/>
        <path id="Trazado_1021474" data-name="Trazado 1021474" d="M699.137,224.611a1.036,1.036,0,0,1-2.006-.518,2.761,2.761,0,0,0-2.4-2.421,1.035,1.035,0,0,1-.5-2.006,4.593,4.593,0,0,1,4.914,4.944Z" transform="translate(-654.099 -210.819)" fill="#413b32"/>
        <path id="Trazado_1021475" data-name="Trazado 1021475" d="M766.15,400.788a2.238,2.238,0,0,1-.665,1.59l-2.433,2.421-.461.453a1.035,1.035,0,1,1-1.459-1.469l1.17-1.165,1.724-1.711a.182.182,0,0,0,0-.259l-1.692-1.7a.184.184,0,0,0-.259,0l-.776.773-.461.457a1.035,1.035,0,1,1-1.459-1.469l1.172-1.152.069-.069a2.237,2.237,0,0,1,1.586-.654h.008a2.241,2.241,0,0,1,1.59.665l1.691,1.7A2.234,2.234,0,0,1,766.15,400.788Z" transform="translate(-715.44 -376.588)" fill="#413b32"/>
        <path id="Trazado_1021476" data-name="Trazado 1021476" d="M813.028,536.666a2.236,2.236,0,0,1-.665,1.59l-2.43,2.414-.461.46a1.035,1.035,0,1,1-1.459-1.469l1.17-1.165,1.722-1.709a.181.181,0,0,0,0-.259l-1.692-1.7a.18.18,0,0,0-.129-.054.178.178,0,0,0-.129.053l-.776.77-.461.458a1.035,1.035,0,0,1-1.7-.377c0-.012-.008-.023-.012-.036a1.035,1.035,0,0,1,.255-1.056l1.17-1.165.065-.065a2.237,2.237,0,0,1,1.586-.654h.008a2.236,2.236,0,0,1,1.59.665l1.691,1.7A2.237,2.237,0,0,1,813.028,536.666Z" transform="translate(-759.284 -503.667)" fill="#413b32"/>
        <path id="Trazado_1021477" data-name="Trazado 1021477" d="M479.146,135.87a2.238,2.238,0,0,1-.665,1.59l-.069.069-1.168,1.161a1.035,1.035,0,0,1-1.06.247l-.034-.012a1.035,1.035,0,0,1-.368-1.7l.461-.458.776-.772a.176.176,0,0,0,.054-.129.181.181,0,0,0-.052-.129l-1.692-1.7a.182.182,0,0,0-.259,0l-1.724,1.711-1.17,1.165a1.035,1.035,0,1,1-1.459-1.469l.461-.458,2.436-2.415a2.255,2.255,0,0,1,3.185.011l1.691,1.7A2.236,2.236,0,0,1,479.146,135.87Z" transform="translate(-445.456 -128.808)" fill="#413b32"/>
        <path id="Trazado_1021478" data-name="Trazado 1021478" d="M343.543,87.925a2.234,2.234,0,0,1-.665,1.59l-.065.065-1.17,1.165a1.035,1.035,0,0,1-1.06.247l-.034-.012a1.035,1.035,0,0,1-.367-1.7l.461-.458.776-.771a.181.181,0,0,0,0-.259l-1.692-1.7a.177.177,0,0,0-.129-.054.184.184,0,0,0-.129.052l-1.722,1.71-1.17,1.161a1.035,1.035,0,1,1-1.459-1.469l.461-.457,2.43-2.413a2.252,2.252,0,0,1,3.184.011l1.691,1.7A2.234,2.234,0,0,1,343.543,87.925Z" transform="translate(-318.629 -83.959)" fill="#413b32"/>
        <path id="Trazado_1021479" data-name="Trazado 1021479" d="M85.7,656.84a1.035,1.035,0,0,1-.729-1.77l4.89-4.852a1.035,1.035,0,0,1,1.458,1.469l-4.89,4.852A1.035,1.035,0,0,1,85.7,656.84Z" transform="translate(-84.667 -613.318)" fill="#413b32"/>
        <path id="Trazado_1021480" data-name="Trazado 1021480" d="M101.222,718.944a1.035,1.035,0,0,1-.729-1.77l6.816-6.768a1.035,1.035,0,1,1,1.458,1.469l-6.816,6.768A1.03,1.03,0,0,1,101.222,718.944Z" transform="translate(-99.182 -669.594)" fill="#413b32"/>
        <path id="Trazado_1021481" data-name="Trazado 1021481" d="M153.972,772.061a1.035,1.035,0,0,1-.729-1.77l6.815-6.768a1.035,1.035,0,0,1,1.459,1.469l-6.816,6.768A1.035,1.035,0,0,1,153.972,772.061Z" transform="translate(-148.52 -719.275)" fill="#413b32"/>
        <path id="Trazado_1021482" data-name="Trazado 1021482" d="M243.922,815.926a1.035,1.035,0,0,1-.729-1.769l4.89-4.852a1.035,1.035,0,0,1,1.459,1.469l-4.89,4.852A1.035,1.035,0,0,1,243.922,815.926Z" transform="translate(-232.65 -762.093)" fill="#413b32"/>
        <path id="Trazado_1021483" data-name="Trazado 1021483" d="M653.5,304.631l-.952.952a1.035,1.035,0,0,1-1.464-1.464l.952-.952a1.035,1.035,0,1,1,1.464,1.464Z" transform="translate(-614.156 -288.7)" fill="#413b32"/>
        <path id="Trazado_1021484" data-name="Trazado 1021484" d="M589.409,368.736l-.952.953a1.035,1.035,0,1,1-1.464-1.464l.952-.952a1.035,1.035,0,1,1,1.464,1.464Z" transform="translate(-554.21 -348.66)" fill="#413b32"/>
        <path id="Trazado_1021485" data-name="Trazado 1021485" d="M525.314,432.821l-.952.952a1.035,1.035,0,1,1-1.464-1.464l.952-.952a1.035,1.035,0,0,1,1.464,1.464Z" transform="translate(-494.261 -408.597)" fill="#413b32"/>
      </g>
    </g>
  </g>
</svg>
