<svg xmlns="http://www.w3.org/2000/svg" width="84" height="84" viewBox="0 0 84 84">
  <g id="Grupo_1180366" data-name="Grupo 1180366" transform="translate(-497.711 -1064)">
    <g id="Grupo_1180365" data-name="Grupo 1180365">
      <rect id="Rectángulo_456476" data-name="Rectángulo 456476" width="84" height="84" transform="translate(497.711 1064)" fill="#fee7bd"/>
      <g id="Grupo_1180364" data-name="Grupo 1180364" transform="translate(379.31 991.927)">
        <path id="Trazado_1021183" data-name="Trazado 1021183" d="M535.493,659.77v2.88l-1.127-.357a1.162,1.162,0,0,0-.7,0l-1.128.357v-2.88Z" transform="translate(-369.729 -534.147)" fill="#f57f17"/>
        <path id="Trazado_1021184" data-name="Trazado 1021184" d="M446.975,659.77v4.46a1.157,1.157,0,0,1-1.506,1.1l-2.284-.723-2.284.723a1.157,1.157,0,0,1-1.506-1.1v-4.46H434.63v16.21h17.109V659.77Zm1.713,13.874h-11a1.157,1.157,0,1,1,0-2.313h11a1.157,1.157,0,1,1,0,2.313Zm0-4.129h-11a1.157,1.157,0,0,1,0-2.313h11a1.157,1.157,0,0,1,0,2.313Z" transform="translate(-278.897 -534.147)" fill="#fcb64d"/>
        <path id="Trazado_1021185" data-name="Trazado 1021185" d="M266.823,659.77v2.88l-1.127-.357a1.162,1.162,0,0,0-.7,0l-1.128.357v-2.88Z" transform="translate(-120.481 -534.147)" fill="#f57f17"/>
        <path id="Trazado_1021186" data-name="Trazado 1021186" d="M178.342,659.77v4.46a1.157,1.157,0,0,1-1.506,1.1l-2.284-.723-2.284.723a1.157,1.157,0,0,1-1.506-1.1v-4.46H166v16.21h17.106V659.77Zm1.713,13.874h-11a1.157,1.157,0,1,1,0-2.313h11a1.157,1.157,0,1,1,0,2.313Zm0-4.129h-11a1.157,1.157,0,0,1,0-2.313h11a1.157,1.157,0,0,1,0,2.313Z" transform="translate(-29.687 -534.147)" fill="#fcb64d"/>
        <path id="Trazado_1021187" data-name="Trazado 1021187" d="M0,0H4.041V1.931H0Z" transform="translate(172.339 113.393) rotate(-45)" fill="#616161"/>
        <path id="Trazado_1021188" data-name="Trazado 1021188" d="M714.664,501.226a2.024,2.024,0,0,1-2.858,0L706,495.418l2.858-2.858,5.808,5.808A2.024,2.024,0,0,1,714.664,501.226Z" transform="translate(-530.649 -379.024)" fill="#616161"/>
        <path id="Trazado_1021189" data-name="Trazado 1021189" d="M629.578,414.667l-1.491,1.491-1.807-1.807a14.375,14.375,0,0,0,1.491-1.491Z" transform="translate(-456.692 -305.086)" fill="#78909c"/>
        <path id="Trazado_1021190" data-name="Trazado 1021190" d="M341.488,116a12.068,12.068,0,1,0,12.068,12.068A12.082,12.082,0,0,0,341.488,116Zm0,22.219a10.151,10.151,0,1,1,10.15-10.15A10.163,10.163,0,0,1,341.488,138.219Z" transform="translate(-181.293 -29.687)" fill="#78909c"/>
        <path id="Trazado_1021191" data-name="Trazado 1021191" d="M395.769,174.52a7.838,7.838,0,1,0,7.837,7.838A7.838,7.838,0,0,0,395.769,174.52Zm4.91,5.885-5.54,5.54a1.157,1.157,0,0,1-1.635,0l-2.645-2.643a1.157,1.157,0,1,1,1.636-1.636l1.827,1.827,4.721-4.721a1.157,1.157,0,1,1,1.636,1.635Z" transform="translate(-235.573 -83.976)" fill="#b3e5fc"/>
        <path id="Trazado_1021192" data-name="Trazado 1021192" d="M314.473,409.2a14.369,14.369,0,0,1-11.431-5.662H300.3v16.21h17.111V408.9A14.389,14.389,0,0,1,314.473,409.2Zm-.116,8.212h-11a1.157,1.157,0,0,1,0-2.313h11a1.157,1.157,0,0,1,0,2.313Zm0-4.129h-11a1.157,1.157,0,0,1,0-2.313h11a1.157,1.157,0,0,1,0,2.313Z" transform="translate(-154.278 -296.44)" fill="#fcb64d"/>
        <g id="Grupo_1180362" data-name="Grupo 1180362" transform="translate(135.59 87.036)" opacity="0.5">
          <path id="Trazado_1021193" data-name="Trazado 1021193" d="M525.493,669.77v2.88l-1.127-.357a1.162,1.162,0,0,0-.7,0l-1.128.357v-2.88Z" transform="translate(-496.042 -630.46)" fill="#fff"/>
          <path id="Trazado_1021194" data-name="Trazado 1021194" d="M436.975,669.77v4.46a1.157,1.157,0,0,1-1.506,1.1l-2.284-.723-2.284.723a1.157,1.157,0,0,1-1.506-1.1v-4.46H424.63v16.21h17.109V669.77Zm1.713,13.874h-11a1.157,1.157,0,0,1,0-2.313h11a1.157,1.157,0,1,1,0,2.313Zm0-4.129h-11a1.157,1.157,0,1,1,0-2.313h11a1.157,1.157,0,1,1,0,2.313Z" transform="translate(-405.21 -630.46)" fill="#fff"/>
          <path id="Trazado_1021195" data-name="Trazado 1021195" d="M256.823,669.77v2.88l-1.127-.357a1.162,1.162,0,0,0-.7,0l-1.128.357v-2.88Z" transform="translate(-246.795 -630.46)" fill="#fff"/>
          <path id="Trazado_1021196" data-name="Trazado 1021196" d="M168.342,669.77v4.46a1.157,1.157,0,0,1-1.506,1.1l-2.284-.723-2.284.723a1.157,1.157,0,0,1-1.506-1.1v-4.46H156v16.21h17.106V669.77Zm1.713,13.874h-11a1.157,1.157,0,0,1,0-2.313h11a1.157,1.157,0,0,1,0,2.313Zm0-4.129h-11a1.157,1.157,0,1,1,0-2.313h11a1.157,1.157,0,1,1,0,2.313Z" transform="translate(-156 -630.46)" fill="#fff"/>
          <path id="Trazado_1021197" data-name="Trazado 1021197" d="M0,0H4.041V1.931H0Z" transform="translate(36.025 27.08) rotate(-45)" fill="#fff"/>
          <path id="Trazado_1021198" data-name="Trazado 1021198" d="M704.664,511.226a2.024,2.024,0,0,1-2.858,0L696,505.418l2.858-2.858,5.808,5.808a2.024,2.024,0,0,1,0,2.858Z" transform="translate(-656.962 -475.338)" fill="#fff"/>
          <path id="Trazado_1021199" data-name="Trazado 1021199" d="M619.578,424.667l-1.491,1.491-1.807-1.807a14.362,14.362,0,0,0,1.491-1.491Z" transform="translate(-583.006 -401.399)" fill="#fff"/>
          <path id="Trazado_1021200" data-name="Trazado 1021200" d="M331.488,126a12.068,12.068,0,1,0,12.068,12.068A12.082,12.082,0,0,0,331.488,126Zm0,22.219a10.151,10.151,0,1,1,10.15-10.15A10.163,10.163,0,0,1,331.488,148.219Z" transform="translate(-307.606 -126)" fill="#fff"/>
          <path id="Trazado_1021201" data-name="Trazado 1021201" d="M385.769,184.52a7.838,7.838,0,1,0,7.837,7.838A7.838,7.838,0,0,0,385.769,184.52Zm4.91,5.885-5.54,5.54a1.157,1.157,0,0,1-1.635,0l-2.645-2.643a1.157,1.157,0,0,1,1.636-1.636l1.827,1.827,4.721-4.721a1.157,1.157,0,1,1,1.636,1.635Z" transform="translate(-361.886 -180.289)" fill="#fff"/>
          <path id="Trazado_1021202" data-name="Trazado 1021202" d="M304.473,419.2a14.369,14.369,0,0,1-11.431-5.662H290.3v16.21h17.111V418.9a14.391,14.391,0,0,1-2.938.3Zm-.116,8.212h-11a1.157,1.157,0,0,1,0-2.313h11a1.157,1.157,0,0,1,0,2.313Zm0-4.129h-11a1.157,1.157,0,0,1,0-2.313h11a1.157,1.157,0,0,1,0,2.313Z" transform="translate(-280.591 -392.753)" fill="#fff"/>
        </g>
        <g id="Grupo_1180363" data-name="Grupo 1180363" transform="translate(134 84)">
          <path id="Trazado_1021203" data-name="Trazado 1021203" d="M423.209,627.77H403.787a1.157,1.157,0,0,0-1.157,1.157V647.45a1.157,1.157,0,0,0,1.157,1.157h19.423a1.157,1.157,0,0,0,1.157-1.157V628.927A1.157,1.157,0,0,0,423.209,627.77Zm-1.157,18.523H404.943v-16.21h17.109Z" transform="translate(-383.21 -588.46)" fill="#413b32"/>
          <path id="Trazado_1021204" data-name="Trazado 1021204" d="M508.12,628.937v5.616a1.157,1.157,0,0,1-1.506,1.1l-2.284-.723-2.284.723a1.157,1.157,0,0,1-1.506-1.1v-5.616a1.157,1.157,0,1,1,2.313,0v4.036l1.128-.357a1.161,1.161,0,0,1,.7,0l1.127.357v-4.036a1.157,1.157,0,0,1,2.313,0Z" transform="translate(-474.042 -588.469)" fill="#413b32"/>
          <path id="Trazado_1021205" data-name="Trazado 1021205" d="M474.168,763.737a1.157,1.157,0,0,1-1.157,1.157h-11a1.157,1.157,0,0,1,0-2.313h11A1.157,1.157,0,0,1,474.168,763.737Z" transform="translate(-437.221 -713.524)" fill="#413b32"/>
          <path id="Trazado_1021206" data-name="Trazado 1021206" d="M474.168,820.847A1.157,1.157,0,0,1,473.012,822h-11a1.157,1.157,0,1,1,0-2.313h11A1.157,1.157,0,0,1,474.168,820.847Z" transform="translate(-437.221 -766.506)" fill="#413b32"/>
          <path id="Trazado_1021207" data-name="Trazado 1021207" d="M154.576,627.77h-19.42A1.157,1.157,0,0,0,134,628.927V647.45a1.157,1.157,0,0,0,1.157,1.157h19.42a1.157,1.157,0,0,0,1.157-1.157V628.927A1.157,1.157,0,0,0,154.576,627.77Zm-1.157,18.523H136.313v-16.21H153.42Z" transform="translate(-134 -588.46)" fill="#413b32"/>
          <path id="Trazado_1021208" data-name="Trazado 1021208" d="M239.45,628.937v5.616a1.157,1.157,0,0,1-1.506,1.1l-2.284-.723-2.284.723a1.157,1.157,0,0,1-1.506-1.1v-5.616a1.157,1.157,0,1,1,2.313,0v4.036l1.128-.357a1.161,1.161,0,0,1,.7,0l1.127.357v-4.036a1.157,1.157,0,1,1,2.313,0Z" transform="translate(-224.795 -588.469)" fill="#413b32"/>
          <path id="Trazado_1021209" data-name="Trazado 1021209" d="M205.5,763.737a1.157,1.157,0,0,1-1.157,1.157h-11a1.157,1.157,0,0,1,0-2.313h11A1.157,1.157,0,0,1,205.5,763.737Z" transform="translate(-187.974 -713.524)" fill="#413b32"/>
          <path id="Trazado_1021210" data-name="Trazado 1021210" d="M205.5,820.847A1.157,1.157,0,0,1,204.342,822h-11a1.157,1.157,0,1,1,0-2.313h11A1.157,1.157,0,0,1,205.5,820.847Z" transform="translate(-187.974 -766.506)" fill="#413b32"/>
          <path id="Trazado_1021211" data-name="Trazado 1021211" d="M290.038,377.713V391.22a1.157,1.157,0,0,1-1.157,1.157H269.457a1.157,1.157,0,0,1-1.157-1.157V372.7a1.157,1.157,0,0,1,1.157-1.157h4.478a1.157,1.157,0,0,1,0,2.313h-3.321v16.21h17.111v-12.35a1.157,1.157,0,1,1,2.313,0Z" transform="translate(-258.591 -350.753)" fill="#413b32"/>
          <path id="Trazado_1021212" data-name="Trazado 1021212" d="M339.838,507.507a1.157,1.157,0,0,1-1.157,1.157h-11a1.157,1.157,0,0,1,0-2.313h11A1.157,1.157,0,0,1,339.838,507.507Z" transform="translate(-312.602 -475.818)" fill="#413b32"/>
          <path id="Trazado_1021213" data-name="Trazado 1021213" d="M339.838,564.617a1.157,1.157,0,0,1-1.157,1.157h-11a1.157,1.157,0,1,1,0-2.313h11A1.157,1.157,0,0,1,339.838,564.617Z" transform="translate(-312.602 -528.799)" fill="#413b32"/>
          <path id="Trazado_1021214" data-name="Trazado 1021214" d="M596.1,378.385a1.157,1.157,0,0,1-.338.818l-.134.132-2.858,2.858-.134.134a1.157,1.157,0,0,1-1.636,0l-.668-.668-2.211-2.212-.6-.6a1.157,1.157,0,1,1,1.635-1.636l.852.852,1.807,1.807,1.491-1.491-1.807-1.807-.853-.849a1.157,1.157,0,1,1,1.636-1.635l.6.6,2.213,2.212.667.667a1.157,1.157,0,0,1,.338.818Z" transform="translate(-554.419 -352.803)" fill="#413b32"/>
          <path id="Trazado_1021215" data-name="Trazado 1021215" d="M638.826,419.28l-2.53-2.534a1.82,1.82,0,0,0-1.819-.452,1.8,1.8,0,0,0-.753.452l-3.56,3.557a1.819,1.819,0,0,0,0,2.572l2.53,2.53a1.157,1.157,0,0,0,1.636,0l.822-.815,2.858-2.858.818-.818A1.157,1.157,0,0,0,638.826,419.28Zm-5.311,3.675-1.366-1.366,2.858-2.861,1.366,1.366Z" transform="translate(-593.802 -392.199)" fill="#413b32"/>
          <path id="Trazado_1021216" data-name="Trazado 1021216" d="M680.409,460.9l-6.626-6.626a1.157,1.157,0,0,0-1.636,0l-.818.818-2.858,2.858-.82.818a1.157,1.157,0,0,0,0,1.636l6.626,6.626a4.337,4.337,0,0,0,6.13-6.13Zm-1.636,4.494a2.024,2.024,0,0,1-2.858,0l-5.806-5.808,2.858-2.858,5.808,5.808A2.024,2.024,0,0,1,678.773,465.39Z" transform="translate(-628.758 -427.189)" fill="#413b32"/>
          <path id="Trazado_1021217" data-name="Trazado 1021217" d="M366.1,142.52a10.151,10.151,0,1,0,10.15,10.151A10.163,10.163,0,0,0,366.1,142.52Zm0,17.988a7.838,7.838,0,1,1,7.837-7.837A7.838,7.838,0,0,1,366.1,160.508Z" transform="translate(-339.905 -138.289)" fill="#413b32"/>
          <path id="Trazado_1021218" data-name="Trazado 1021218" d="M311.8,84a14.382,14.382,0,1,0,14.381,14.382A14.4,14.4,0,0,0,311.8,84Zm0,26.449a12.068,12.068,0,1,1,12.068-12.068A12.082,12.082,0,0,1,311.8,110.449Z" transform="translate(-285.606 -84)" fill="#413b32"/>
          <path id="Trazado_1021219" data-name="Trazado 1021219" d="M433.912,230.613l-5.54,5.54a1.157,1.157,0,0,1-1.635,0l-2.645-2.643a1.157,1.157,0,1,1,1.636-1.636l1.827,1.827,4.721-4.721a1.157,1.157,0,1,1,1.636,1.635Z" transform="translate(-402.806 -218.184)" fill="#413b32"/>
          <path id="Trazado_1021220" data-name="Trazado 1021220" d="M423.209,627.77H403.787a1.157,1.157,0,0,0-1.157,1.157V647.45a1.157,1.157,0,0,0,1.157,1.157h19.423a1.157,1.157,0,0,0,1.157-1.157V628.927A1.157,1.157,0,0,0,423.209,627.77Zm-1.157,18.523H404.943v-16.21h17.109Z" transform="translate(-383.21 -588.46)" fill="#413b32"/>
          <path id="Trazado_1021221" data-name="Trazado 1021221" d="M508.12,628.937v5.616a1.157,1.157,0,0,1-1.506,1.1l-2.284-.723-2.284.723a1.157,1.157,0,0,1-1.506-1.1v-5.616a1.157,1.157,0,1,1,2.313,0v4.036l1.128-.357a1.161,1.161,0,0,1,.7,0l1.127.357v-4.036a1.157,1.157,0,0,1,2.313,0Z" transform="translate(-474.042 -588.469)" fill="#413b32"/>
          <path id="Trazado_1021222" data-name="Trazado 1021222" d="M474.168,763.737a1.157,1.157,0,0,1-1.157,1.157h-11a1.157,1.157,0,0,1,0-2.313h11A1.157,1.157,0,0,1,474.168,763.737Z" transform="translate(-437.221 -713.524)" fill="#413b32"/>
          <path id="Trazado_1021223" data-name="Trazado 1021223" d="M474.168,820.847A1.157,1.157,0,0,1,473.012,822h-11a1.157,1.157,0,1,1,0-2.313h11A1.157,1.157,0,0,1,474.168,820.847Z" transform="translate(-437.221 -766.506)" fill="#413b32"/>
          <path id="Trazado_1021224" data-name="Trazado 1021224" d="M154.576,627.77h-19.42A1.157,1.157,0,0,0,134,628.927V647.45a1.157,1.157,0,0,0,1.157,1.157h19.42a1.157,1.157,0,0,0,1.157-1.157V628.927A1.157,1.157,0,0,0,154.576,627.77Zm-1.157,18.523H136.313v-16.21H153.42Z" transform="translate(-134 -588.46)" fill="#413b32"/>
          <path id="Trazado_1021225" data-name="Trazado 1021225" d="M239.45,628.937v5.616a1.157,1.157,0,0,1-1.506,1.1l-2.284-.723-2.284.723a1.157,1.157,0,0,1-1.506-1.1v-5.616a1.157,1.157,0,1,1,2.313,0v4.036l1.128-.357a1.161,1.161,0,0,1,.7,0l1.127.357v-4.036a1.157,1.157,0,1,1,2.313,0Z" transform="translate(-224.795 -588.469)" fill="#413b32"/>
          <path id="Trazado_1021226" data-name="Trazado 1021226" d="M205.5,763.737a1.157,1.157,0,0,1-1.157,1.157h-11a1.157,1.157,0,0,1,0-2.313h11A1.157,1.157,0,0,1,205.5,763.737Z" transform="translate(-187.974 -713.524)" fill="#413b32"/>
          <path id="Trazado_1021227" data-name="Trazado 1021227" d="M205.5,820.847A1.157,1.157,0,0,1,204.342,822h-11a1.157,1.157,0,1,1,0-2.313h11A1.157,1.157,0,0,1,205.5,820.847Z" transform="translate(-187.974 -766.506)" fill="#413b32"/>
          <path id="Trazado_1021228" data-name="Trazado 1021228" d="M290.038,377.713V391.22a1.157,1.157,0,0,1-1.157,1.157H269.457a1.157,1.157,0,0,1-1.157-1.157V372.7a1.157,1.157,0,0,1,1.157-1.157h4.478a1.157,1.157,0,0,1,0,2.313h-3.321v16.21h17.111v-12.35a1.157,1.157,0,1,1,2.313,0Z" transform="translate(-258.591 -350.753)" fill="#413b32"/>
          <path id="Trazado_1021229" data-name="Trazado 1021229" d="M339.838,507.507a1.157,1.157,0,0,1-1.157,1.157h-11a1.157,1.157,0,0,1,0-2.313h11A1.157,1.157,0,0,1,339.838,507.507Z" transform="translate(-312.602 -475.818)" fill="#413b32"/>
          <path id="Trazado_1021230" data-name="Trazado 1021230" d="M339.838,564.617a1.157,1.157,0,0,1-1.157,1.157h-11a1.157,1.157,0,1,1,0-2.313h11A1.157,1.157,0,0,1,339.838,564.617Z" transform="translate(-312.602 -528.799)" fill="#413b32"/>
          <path id="Trazado_1021231" data-name="Trazado 1021231" d="M596.1,378.385a1.157,1.157,0,0,1-.338.818l-.134.132-2.858,2.858-.134.134a1.157,1.157,0,0,1-1.636,0l-.668-.668-2.211-2.212-.6-.6a1.157,1.157,0,1,1,1.635-1.636l.852.852,1.807,1.807,1.491-1.491-1.807-1.807-.853-.849a1.157,1.157,0,1,1,1.636-1.635l.6.6,2.213,2.212.667.667a1.157,1.157,0,0,1,.338.818Z" transform="translate(-554.419 -352.803)" fill="#413b32"/>
          <path id="Trazado_1021232" data-name="Trazado 1021232" d="M638.826,419.28l-2.53-2.534a1.82,1.82,0,0,0-1.819-.452,1.8,1.8,0,0,0-.753.452l-3.56,3.557a1.819,1.819,0,0,0,0,2.572l2.53,2.53a1.157,1.157,0,0,0,1.636,0l.822-.815,2.858-2.858.818-.818A1.157,1.157,0,0,0,638.826,419.28Zm-5.311,3.675-1.366-1.366,2.858-2.861,1.366,1.366Z" transform="translate(-593.802 -392.199)" fill="#413b32"/>
          <path id="Trazado_1021233" data-name="Trazado 1021233" d="M680.409,460.9l-6.626-6.626a1.157,1.157,0,0,0-1.636,0l-.818.818-2.858,2.858-.82.818a1.157,1.157,0,0,0,0,1.636l6.626,6.626a4.337,4.337,0,0,0,6.13-6.13Zm-1.636,4.494a2.024,2.024,0,0,1-2.858,0l-5.806-5.808,2.858-2.858,5.808,5.808A2.024,2.024,0,0,1,678.773,465.39Z" transform="translate(-628.758 -427.189)" fill="#413b32"/>
          <path id="Trazado_1021234" data-name="Trazado 1021234" d="M366.1,142.52a10.151,10.151,0,1,0,10.15,10.151A10.163,10.163,0,0,0,366.1,142.52Zm0,17.988a7.838,7.838,0,1,1,7.837-7.837A7.838,7.838,0,0,1,366.1,160.508Z" transform="translate(-339.905 -138.289)" fill="#413b32"/>
          <path id="Trazado_1021235" data-name="Trazado 1021235" d="M311.8,84a14.382,14.382,0,1,0,14.381,14.382A14.4,14.4,0,0,0,311.8,84Zm0,26.449a12.068,12.068,0,1,1,12.068-12.068A12.082,12.082,0,0,1,311.8,110.449Z" transform="translate(-285.606 -84)" fill="#413b32"/>
          <path id="Trazado_1021236" data-name="Trazado 1021236" d="M433.912,230.613l-5.54,5.54a1.157,1.157,0,0,1-1.635,0l-2.645-2.643a1.157,1.157,0,1,1,1.636-1.636l1.827,1.827,4.721-4.721a1.157,1.157,0,1,1,1.636,1.635Z" transform="translate(-402.806 -218.184)" fill="#413b32"/>
        </g>
      </g>
    </g>
  </g>
</svg>
