<svg xmlns="http://www.w3.org/2000/svg" xmlns:xlink="http://www.w3.org/1999/xlink" width="396" height="188" viewBox="0 0 396 188">
  <defs>
    <clipPath id="clip-path">
      <rect id="Rectángulo_457069" data-name="Rectángulo 457069" width="256.688" height="170.959" fill="none"/>
    </clipPath>
  </defs>
  <g id="Grupo_1185916" data-name="Grupo 1185916" transform="translate(-186 -4995)">
    <rect id="Rectángulo_456603" data-name="Rectángulo 456603" width="396" height="188" transform="translate(186 4995)" fill="#a2cbcf"/>
    <g id="Grupo_1180794" data-name="Grupo 1180794" transform="translate(255.656 5003.521)">
      <rect id="Rectángulo_457045" data-name="Rectángulo 457045" width="86.997" height="40.113" transform="translate(99.13 120.55)" fill="#e2eaff"/>
      <g id="Grupo_1180793" data-name="Grupo 1180793">
        <g id="Grupo_1180792" data-name="Grupo 1180792" clip-path="url(#clip-path)">
          <path id="Trazado_1023970" data-name="Trazado 1023970" d="M1171.611,1751.567h-112.49a.206.206,0,1,1,0-.412h112.49a.206.206,0,0,1,0,.412" transform="translate(-959.991 -1587.561)"/>
          <path id="Trazado_1023971" data-name="Trazado 1023971" d="M2055.4,1476.092h-21.624V1450.98h17.354l4.27,13.389Z" transform="translate(-1843.778 -1315.429)" fill="#fff"/>
          <path id="Trazado_1023972" data-name="Trazado 1023972" d="M2053.4,1474.3h-21.624a.206.206,0,0,1-.206-.206V1448.98a.206.206,0,0,1,.206-.206h17.354a.206.206,0,0,1,.2.144l4.27,13.389a.218.218,0,0,1,.01.063v11.722a.206.206,0,0,1-.206.206m-21.418-.412h21.212V1462.4l-4.215-13.215h-17Z" transform="translate(-1841.778 -1313.429)"/>
          <path id="Trazado_1023973" data-name="Trazado 1023973" d="M2116.537,1473.759h-13.879a.206.206,0,0,1-.206-.206v-12.048a.206.206,0,1,1,.412,0v11.842h13.673a.206.206,0,1,1,0,.412" transform="translate(-1906.04 -1324.784)"/>
          <path id="Trazado_1023974" data-name="Trazado 1023974" d="M2048.746,1401.673a.206.206,0,0,1-.167-.084l-1.65-2.257-15.174-1.452a.206.206,0,0,1-.185-.225.2.2,0,0,1,.225-.185l15.266,1.46a.206.206,0,0,1,.147.083l1.7,2.331a.206.206,0,0,1-.166.328" transform="translate(-1841.779 -1266.917)"/>
          <path id="Trazado_1023975" data-name="Trazado 1023975" d="M2089.556,1686.331a6.91,6.91,0,1,1-6.91-6.907,6.909,6.909,0,0,1,6.91,6.907" transform="translate(-1881.82 -1522.531)" fill="#fff"/>
          <path id="Trazado_1023976" data-name="Trazado 1023976" d="M2080.645,1691.445a7.113,7.113,0,1,1,7.116-7.113,7.123,7.123,0,0,1-7.116,7.113m0-13.814a6.7,6.7,0,1,0,6.7,6.7,6.71,6.71,0,0,0-6.7-6.7" transform="translate(-1879.819 -1520.532)"/>
          <path id="Trazado_1023977" data-name="Trazado 1023977" d="M2125.381,1726.255a2.794,2.794,0,1,1-2.794-2.793,2.794,2.794,0,0,1,2.794,2.793" transform="translate(-1921.76 -1562.455)" fill="#fff"/>
          <path id="Trazado_1023978" data-name="Trazado 1023978" d="M2120.587,1727.255a3,3,0,1,1,3-3,3,3,0,0,1-3,3m0-5.586a2.587,2.587,0,1,0,2.588,2.587,2.591,2.591,0,0,0-2.588-2.587" transform="translate(-1919.761 -1560.456)"/>
          <path id="Trazado_1023979" data-name="Trazado 1023979" d="M1284.135,1686.331a6.91,6.91,0,1,1-6.91-6.907,6.909,6.909,0,0,1,6.91,6.907" transform="translate(-1151.641 -1522.531)" fill="#fff"/>
          <path id="Trazado_1023980" data-name="Trazado 1023980" d="M1275.224,1691.445a7.113,7.113,0,1,1,7.116-7.113,7.123,7.123,0,0,1-7.116,7.113m0-13.814a6.7,6.7,0,1,0,6.7,6.7,6.71,6.71,0,0,0-6.7-6.7" transform="translate(-1149.641 -1520.532)"/>
          <path id="Trazado_1023981" data-name="Trazado 1023981" d="M1319.961,1726.255a2.794,2.794,0,1,1-2.794-2.793,2.794,2.794,0,0,1,2.794,2.793" transform="translate(-1191.583 -1562.455)" fill="#fff"/>
          <path id="Trazado_1023982" data-name="Trazado 1023982" d="M1315.166,1727.255a3,3,0,1,1,3-3,3,3,0,0,1-3,3m0-5.586a2.587,2.587,0,1,0,2.588,2.587,2.591,2.591,0,0,0-2.588-2.587" transform="translate(-1189.582 -1560.456)"/>
          <path id="Trazado_1023983" data-name="Trazado 1023983" d="M1119.358,1686.331a6.91,6.91,0,1,1-6.91-6.907,6.909,6.909,0,0,1,6.91,6.907" transform="translate(-1002.258 -1522.531)" fill="#fff"/>
          <path id="Trazado_1023984" data-name="Trazado 1023984" d="M1110.447,1691.445a7.113,7.113,0,1,1,7.116-7.113,7.123,7.123,0,0,1-7.116,7.113m0-13.814a6.7,6.7,0,1,0,6.7,6.7,6.71,6.71,0,0,0-6.7-6.7" transform="translate(-1000.257 -1520.532)"/>
          <path id="Trazado_1023985" data-name="Trazado 1023985" d="M1155.183,1726.255a2.794,2.794,0,1,1-2.794-2.793,2.794,2.794,0,0,1,2.794,2.793" transform="translate(-1042.198 -1562.455)" fill="#fff"/>
          <path id="Trazado_1023986" data-name="Trazado 1023986" d="M1150.388,1727.255a3,3,0,1,1,3-3,3,3,0,0,1-3,3m0-5.586a2.587,2.587,0,1,0,2.588,2.587,2.591,2.591,0,0,0-2.588-2.587" transform="translate(-1040.198 -1560.456)"/>
          <rect id="Rectángulo_457046" data-name="Rectángulo 457046" width="12.912" height="10.874" transform="translate(145.685 86.021)" fill="#fff"/>
          <path id="Trazado_1023987" data-name="Trazado 1023987" d="M1570.371,929.877h-12.912a.206.206,0,0,1-.206-.206V918.8a.206.206,0,0,1,.206-.206h12.912a.206.206,0,0,1,.206.206v10.874a.206.206,0,0,1-.206.206m-12.706-.412h12.5V919h-12.5Z" transform="translate(-1411.774 -832.776)"/>
          <rect id="Rectángulo_457047" data-name="Rectángulo 457047" width="12.912" height="10.874" transform="translate(194.628 86.021)" fill="#fff"/>
          <path id="Trazado_1023988" data-name="Trazado 1023988" d="M2094.264,929.877h-12.912a.206.206,0,0,1-.206-.206V918.8a.206.206,0,0,1,.206-.206h12.912a.206.206,0,0,1,.206.206v10.874a.206.206,0,0,1-.206.206m-12.706-.412h12.5V919h-12.5Z" transform="translate(-1886.724 -832.776)"/>
          <rect id="Rectángulo_457048" data-name="Rectángulo 457048" width="12.912" height="10.874" transform="translate(243.57 86.021)" fill="#fff"/>
          <path id="Trazado_1023989" data-name="Trazado 1023989" d="M2618.156,929.877h-12.912a.206.206,0,0,1-.206-.206V918.8a.206.206,0,0,1,.206-.206h12.912a.206.206,0,0,1,.206.206v10.874a.206.206,0,0,1-.206.206m-12.706-.412h12.5V919h-12.5Z" transform="translate(-2361.674 -832.776)"/>
          <rect id="Rectángulo_457049" data-name="Rectángulo 457049" width="110.797" height="6.742" transform="translate(145.685 79.279)" fill="#fff"/>
          <path id="Trazado_1023990" data-name="Trazado 1023990" d="M1668.256,853.575h-110.8a.206.206,0,0,1-.206-.206v-6.742a.206.206,0,0,1,.206-.206h110.8a.206.206,0,0,1,.206.206v6.742a.206.206,0,0,1-.206.206m-110.591-.412H1668.05v-6.33H1557.665Z" transform="translate(-1411.774 -767.348)"/>
          <rect id="Rectángulo_457050" data-name="Rectángulo 457050" width="55.398" height="25.44" transform="translate(145.685 51.166)" fill="#fff"/>
          <path id="Trazado_1023991" data-name="Trazado 1023991" d="M1612.858,571.347h-55.4a.206.206,0,0,1-.206-.206V545.7a.206.206,0,0,1,.206-.206h55.4a.206.206,0,0,1,.206.206v25.44a.206.206,0,0,1-.206.206m-55.193-.412h54.986V545.907h-54.986Z" transform="translate(-1411.774 -494.535)"/>
          <path id="Trazado_1023992" data-name="Trazado 1023992" d="M1611.515,587.908h-9.54a2.207,2.207,0,0,0,0,4.41h9.54a2.207,2.207,0,0,0,0-4.41" transform="translate(-1450.404 -532.985)" fill="#e2eaff"/>
          <path id="Trazado_1023993" data-name="Trazado 1023993" d="M1793.951,587.908h-9.54a2.207,2.207,0,0,0,0,4.41h9.54a2.207,2.207,0,0,0,0-4.41" transform="translate(-1615.797 -532.985)" fill="#e2eaff"/>
          <path id="Trazado_1023994" data-name="Trazado 1023994" d="M1976.386,587.908h-9.54a2.207,2.207,0,0,0,0,4.41h9.54a2.207,2.207,0,0,0,0-4.41" transform="translate(-1781.188 -532.985)" fill="#e2eaff"/>
          <rect id="Rectángulo_457051" data-name="Rectángulo 457051" width="55.398" height="25.44" transform="translate(201.084 51.166)" fill="#fff"/>
          <path id="Trazado_1023995" data-name="Trazado 1023995" d="M2205.859,571.347h-55.4a.206.206,0,0,1-.206-.206V545.7a.206.206,0,0,1,.206-.206h55.4a.206.206,0,0,1,.206.206v25.44a.206.206,0,0,1-.206.206m-55.192-.412h54.986V545.907h-54.986Z" transform="translate(-1949.377 -494.535)"/>
          <path id="Trazado_1023996" data-name="Trazado 1023996" d="M2204.517,587.908h-9.54a2.207,2.207,0,0,0,0,4.41h9.54a2.207,2.207,0,0,0,0-4.41" transform="translate(-1988.007 -532.985)" fill="#e2eaff"/>
          <path id="Trazado_1023997" data-name="Trazado 1023997" d="M2386.952,587.908h-9.54a2.207,2.207,0,0,0,0,4.41h9.54a2.207,2.207,0,0,0,0-4.41" transform="translate(-2153.399 -532.985)" fill="#e2eaff"/>
          <path id="Trazado_1023998" data-name="Trazado 1023998" d="M2569.387,587.908h-9.54a2.207,2.207,0,0,0,0,4.41h9.54a2.207,2.207,0,0,0,0-4.41" transform="translate(-2318.791 -532.985)" fill="#e2eaff"/>
          <rect id="Rectángulo_457052" data-name="Rectángulo 457052" width="55.398" height="25.44" transform="translate(145.685 25.726)" fill="#fff"/>
          <path id="Trazado_1023999" data-name="Trazado 1023999" d="M1612.858,299.028h-55.4a.206.206,0,0,1-.206-.206v-25.44a.206.206,0,0,1,.206-.206h55.4a.206.206,0,0,1,.206.206v25.44a.206.206,0,0,1-.206.206m-55.193-.412h54.986V273.588h-54.986Z" transform="translate(-1411.774 -247.656)"/>
          <path id="Trazado_1024000" data-name="Trazado 1024000" d="M1611.515,315.589h-9.54a2.207,2.207,0,0,0,0,4.41h9.54a2.207,2.207,0,0,0,0-4.41" transform="translate(-1450.404 -286.107)" fill="#e2eaff"/>
          <path id="Trazado_1024001" data-name="Trazado 1024001" d="M1793.951,315.589h-9.54a2.207,2.207,0,0,0,0,4.41h9.54a2.207,2.207,0,0,0,0-4.41" transform="translate(-1615.797 -286.107)" fill="#e2eaff"/>
          <path id="Trazado_1024002" data-name="Trazado 1024002" d="M1976.386,315.589h-9.54a2.207,2.207,0,0,0,0,4.41h9.54a2.207,2.207,0,0,0,0-4.41" transform="translate(-1781.188 -286.107)" fill="#e2eaff"/>
          <rect id="Rectángulo_457053" data-name="Rectángulo 457053" width="55.398" height="25.44" transform="translate(201.084 25.726)" fill="#fff"/>
          <path id="Trazado_1024003" data-name="Trazado 1024003" d="M2205.859,299.028h-55.4a.206.206,0,0,1-.206-.206v-25.44a.206.206,0,0,1,.206-.206h55.4a.206.206,0,0,1,.206.206v25.44a.206.206,0,0,1-.206.206m-55.192-.412h54.986V273.588h-54.986Z" transform="translate(-1949.377 -247.656)"/>
          <path id="Trazado_1024004" data-name="Trazado 1024004" d="M2204.517,315.589h-9.54a2.207,2.207,0,0,0,0,4.41h9.54a2.207,2.207,0,0,0,0-4.41" transform="translate(-1988.007 -286.107)" fill="#e2eaff"/>
          <path id="Trazado_1024005" data-name="Trazado 1024005" d="M2386.952,315.589h-9.54a2.207,2.207,0,0,0,0,4.41h9.54a2.207,2.207,0,0,0,0-4.41" transform="translate(-2153.399 -286.107)" fill="#e2eaff"/>
          <path id="Trazado_1024006" data-name="Trazado 1024006" d="M2569.387,315.589h-9.54a2.207,2.207,0,0,0,0,4.41h9.54a2.207,2.207,0,0,0,0-4.41" transform="translate(-2318.791 -286.107)" fill="#e2eaff"/>
          <rect id="Rectángulo_457054" data-name="Rectángulo 457054" width="55.398" height="25.44" transform="translate(145.685 0.286)" fill="#fff"/>
          <path id="Trazado_1024007" data-name="Trazado 1024007" d="M1612.858,26.709h-55.4a.206.206,0,0,1-.206-.206V1.063a.206.206,0,0,1,.206-.206h55.4a.206.206,0,0,1,.206.206V26.5a.206.206,0,0,1-.206.206m-55.193-.412h54.986V1.269h-54.986Z" transform="translate(-1411.774 -0.777)"/>
          <path id="Trazado_1024008" data-name="Trazado 1024008" d="M1611.515,43.271h-9.54a2.207,2.207,0,0,0,0,4.41h9.54a2.207,2.207,0,0,0,0-4.41" transform="translate(-1450.404 -39.229)" fill="#e2eaff"/>
          <path id="Trazado_1024009" data-name="Trazado 1024009" d="M1793.951,43.271h-9.54a2.207,2.207,0,0,0,0,4.41h9.54a2.207,2.207,0,0,0,0-4.41" transform="translate(-1615.797 -39.229)" fill="#e2eaff"/>
          <path id="Trazado_1024010" data-name="Trazado 1024010" d="M1976.386,43.271h-9.54a2.207,2.207,0,0,0,0,4.41h9.54a2.207,2.207,0,0,0,0-4.41" transform="translate(-1781.188 -39.229)" fill="#e2eaff"/>
          <rect id="Rectángulo_457055" data-name="Rectángulo 457055" width="55.398" height="25.44" transform="translate(201.084 0.286)" fill="#fff"/>
          <path id="Trazado_1024011" data-name="Trazado 1024011" d="M2205.859,26.709h-55.4a.206.206,0,0,1-.206-.206V1.063a.206.206,0,0,1,.206-.206h55.4a.206.206,0,0,1,.206.206V26.5a.206.206,0,0,1-.206.206m-55.192-.412h54.986V1.269h-54.986Z" transform="translate(-1949.377 -0.777)"/>
          <path id="Trazado_1024012" data-name="Trazado 1024012" d="M2204.517,43.271h-9.54a2.207,2.207,0,0,0,0,4.41h9.54a2.207,2.207,0,0,0,0-4.41" transform="translate(-1988.007 -39.229)" fill="#e2eaff"/>
          <path id="Trazado_1024013" data-name="Trazado 1024013" d="M2386.952,43.271h-9.54a2.207,2.207,0,0,0,0,4.41h9.54a2.207,2.207,0,0,0,0-4.41" transform="translate(-2153.399 -39.229)" fill="#e2eaff"/>
          <path id="Trazado_1024014" data-name="Trazado 1024014" d="M2569.387,43.271h-9.54a2.207,2.207,0,0,0,0,4.41h9.54a2.207,2.207,0,0,0,0-4.41" transform="translate(-2318.791 -39.229)" fill="#e2eaff"/>
          <path id="Trazado_1024015" data-name="Trazado 1024015" d="M2374.858,950.882A16.117,16.117,0,0,0,2358.737,967c0,15.52,16.121,31.862,16.121,31.862s16.121-16.491,16.121-31.862a16.117,16.117,0,0,0-16.121-16.114m0,23.988a7.508,7.508,0,1,1,7.512-7.508,7.51,7.51,0,0,1-7.512,7.508" transform="translate(-2138.383 -862.05)" fill="#5479f7"/>
          <path id="Trazado_1024016" data-name="Trazado 1024016" d="M880.659,1553.235H710.647a.206.206,0,0,1,0-.412H880.453v-27.85a.206.206,0,1,1,.412,0v28.056a.206.206,0,0,1-.206.206" transform="translate(-644.071 -1382.322)"/>
          <rect id="Rectángulo_457056" data-name="Rectángulo 457056" width="35.016" height="41.898" transform="translate(60.783 64.662)" fill="#fff"/>
          <path id="Trazado_1024017" data-name="Trazado 1024017" d="M683.655,732.262H648.639a.206.206,0,0,1-.206-.206v-41.9a.206.206,0,0,1,.206-.206h35.016a.206.206,0,0,1,.206.206v41.9a.206.206,0,0,1-.206.206m-34.81-.412h34.6V690.364h-34.6Z" transform="translate(-587.856 -625.496)"/>
          <rect id="Rectángulo_457057" data-name="Rectángulo 457057" width="7.287" height="4.001" transform="translate(88.512 83.592)" fill="#fff"/>
          <path id="Trazado_1024018" data-name="Trazado 1024018" d="M952.742,897h-7.287a.206.206,0,0,1-.206-.206v-4a.206.206,0,0,1,.206-.206h7.287a.206.206,0,0,1,.206.206v4a.206.206,0,0,1-.206.206m-7.081-.412h6.875V893h-6.875Z" transform="translate(-856.943 -809.198)"/>
          <path id="Trazado_1024019" data-name="Trazado 1024019" d="M809.081,746.259a.206.206,0,0,1-.206-.206V707.371a.206.206,0,0,1,.412,0v38.682a.206.206,0,0,1-.206.206" transform="translate(-733.31 -641.101)"/>
          <path id="Trazado_1024020" data-name="Trazado 1024020" d="M914.311,702.09a.206.206,0,0,1-.206-.206V690.157a.206.206,0,1,1,.412,0v11.727a.206.206,0,0,1-.206.206" transform="translate(-828.709 -625.495)"/>
          <rect id="Rectángulo_457058" data-name="Rectángulo 457058" width="36.39" height="28.54" transform="translate(44.087 78.02)" fill="#fff"/>
          <path id="Trazado_1024021" data-name="Trazado 1024021" d="M506.309,861.9h-36.39a.206.206,0,0,1-.206-.206v-28.54a.206.206,0,0,1,.206-.206h36.39a.206.206,0,0,1,.206.206v28.54a.206.206,0,0,1-.206.206m-36.184-.412H506.1V833.358H470.125Z" transform="translate(-425.832 -755.132)"/>
          <rect id="Rectángulo_457059" data-name="Rectángulo 457059" width="7.573" height="4.128" transform="translate(72.903 90.915)" fill="#fff"/>
          <path id="Trazado_1024022" data-name="Trazado 1024022" d="M785.953,975.512H778.38a.206.206,0,0,1-.206-.206v-4.128a.206.206,0,0,1,.206-.206h7.573a.206.206,0,0,1,.206.206v4.128a.206.206,0,0,1-.206.206m-7.367-.412h7.161v-3.716h-7.161Z" transform="translate(-705.477 -880.263)"/>
          <path id="Trazado_1024023" data-name="Trazado 1024023" d="M636.657,871.432a.206.206,0,0,1-.206-.206V844.877a.206.206,0,0,1,.412,0v26.349a.206.206,0,0,1-.206.206" transform="translate(-576.993 -765.761)"/>
          <path id="Trazado_1024024" data-name="Trazado 1024024" d="M746.016,841.346a.206.206,0,0,1-.206-.206v-7.988a.206.206,0,1,1,.412,0v7.988a.206.206,0,0,1-.206.206" transform="translate(-676.136 -755.132)"/>
          <path id="Trazado_1024025" data-name="Trazado 1024025" d="M1309.192,103.834a.206.206,0,0,1-.206-.206V.206a.206.206,0,1,1,.412,0V103.628a.206.206,0,0,1-.206.206" transform="translate(-1186.7)"/>
          <path id="Trazado_1024026" data-name="Trazado 1024026" d="M122.492,499.664H.206a.206.206,0,0,1,0-.412H122.492a.206.206,0,0,1,0,.412" transform="translate(0 -452.612)"/>
          <rect id="Rectángulo_457060" data-name="Rectángulo 457060" width="36.39" height="15.057" transform="translate(52.332 31.789)" fill="#fff"/>
          <path id="Trazado_1024027" data-name="Trazado 1024027" d="M594.565,353.542h-36.39a.206.206,0,0,1-.206-.206V338.279a.206.206,0,0,1,.206-.206h36.39a.206.206,0,0,1,.206.206v15.057a.206.206,0,0,1-.206.206m-36.184-.412h35.978V338.485H558.381Z" transform="translate(-505.843 -306.49)"/>
          <rect id="Rectángulo_457061" data-name="Rectángulo 457061" width="7.573" height="4.237" transform="translate(81.148 38.592)" fill="#fff"/>
          <path id="Trazado_1024028" data-name="Trazado 1024028" d="M874.209,415.544h-7.573a.206.206,0,0,1-.206-.206V411.1a.206.206,0,0,1,.206-.206h7.573a.206.206,0,0,1,.206.206v4.237a.206.206,0,0,1-.206.206m-7.367-.412H874v-3.825h-7.161Z" transform="translate(-785.488 -372.509)"/>
          <path id="Trazado_1024029" data-name="Trazado 1024029" d="M724.914,358.574a.206.206,0,0,1-.206-.206v-13.9a.206.206,0,1,1,.412,0v13.9a.206.206,0,0,1-.206.206" transform="translate(-657.005 -312.099)"/>
          <path id="Trazado_1024030" data-name="Trazado 1024030" d="M834.273,342.7a.206.206,0,0,1-.206-.206V338.28a.206.206,0,0,1,.412,0v4.214a.206.206,0,0,1-.206.206" transform="translate(-756.148 -306.491)"/>
          <rect id="Rectángulo_457062" data-name="Rectángulo 457062" width="36.39" height="15.057" transform="translate(62.638 16.758)" fill="#fff"/>
          <path id="Trazado_1024031" data-name="Trazado 1024031" d="M704.886,192.643H668.5a.206.206,0,0,1-.206-.206V177.38a.206.206,0,0,1,.206-.206h36.39a.206.206,0,0,1,.206.206v15.057a.206.206,0,0,1-.206.206m-36.184-.412H704.68V177.586H668.7Z" transform="translate(-605.858 -160.622)"/>
          <rect id="Rectángulo_457063" data-name="Rectángulo 457063" width="7.573" height="4.237" transform="translate(91.455 23.561)" fill="#fff"/>
          <path id="Trazado_1024032" data-name="Trazado 1024032" d="M984.531,254.645h-7.573a.206.206,0,0,1-.206-.206V250.2a.206.206,0,0,1,.206-.206h7.573a.206.206,0,0,1,.206.206v4.237a.206.206,0,0,1-.206.206m-7.367-.412h7.161v-3.825h-7.161Z" transform="translate(-885.503 -226.641)"/>
          <path id="Trazado_1024033" data-name="Trazado 1024033" d="M835.235,197.673a.206.206,0,0,1-.206-.206v-13.9a.206.206,0,1,1,.412,0v13.9a.206.206,0,0,1-.206.206" transform="translate(-757.02 -166.23)"/>
          <path id="Trazado_1024034" data-name="Trazado 1024034" d="M944.594,181.8a.206.206,0,0,1-.206-.206V177.38a.206.206,0,0,1,.412,0v4.214a.206.206,0,0,1-.206.206" transform="translate(-856.163 -160.622)"/>
          <rect id="Rectángulo_457064" data-name="Rectángulo 457064" width="35.016" height="41.898" transform="translate(19.558 4.948)" fill="#fff"/>
          <path id="Trazado_1024035" data-name="Trazado 1024035" d="M242.372,93.072H207.356a.206.206,0,0,1-.206-.206v-41.9a.206.206,0,0,1,.206-.206h35.016a.206.206,0,0,1,.206.206v41.9a.206.206,0,0,1-.206.206m-34.81-.412h34.6V51.174h-34.6Z" transform="translate(-187.798 -46.02)"/>
          <rect id="Rectángulo_457065" data-name="Rectángulo 457065" width="7.287" height="4.001" transform="translate(47.287 23.878)" fill="#fff"/>
          <path id="Trazado_1024036" data-name="Trazado 1024036" d="M511.459,257.807h-7.287a.206.206,0,0,1-.206-.206v-4a.206.206,0,0,1,.206-.206h7.287a.206.206,0,0,1,.206.206v4a.206.206,0,0,1-.206.206m-7.081-.412h6.875v-3.589h-6.875Z" transform="translate(-456.885 -229.722)"/>
          <path id="Trazado_1024037" data-name="Trazado 1024037" d="M367.8,107.068a.206.206,0,0,1-.206-.206V68.18a.206.206,0,0,1,.412,0v38.682a.206.206,0,0,1-.206.206" transform="translate(-333.252 -61.624)"/>
          <path id="Trazado_1024038" data-name="Trazado 1024038" d="M473.028,62.9a.206.206,0,0,1-.206-.206V50.967a.206.206,0,1,1,.412,0V62.694a.206.206,0,0,1-.206.206" transform="translate(-428.651 -46.019)"/>
          <rect id="Rectángulo_457066" data-name="Rectángulo 457066" width="36.39" height="28.54" transform="translate(2.862 18.307)" fill="#fff"/>
          <path id="Trazado_1024039" data-name="Trazado 1024039" d="M65.026,222.707H28.636a.206.206,0,0,1-.206-.206v-28.54a.206.206,0,0,1,.206-.206h36.39a.206.206,0,0,1,.206.206V222.5a.206.206,0,0,1-.206.206m-36.184-.412H64.82V194.167H28.842Z" transform="translate(-25.774 -175.654)"/>
          <rect id="Rectángulo_457067" data-name="Rectángulo 457067" width="7.573" height="4.128" transform="translate(31.679 31.201)" fill="#fff"/>
          <path id="Trazado_1024040" data-name="Trazado 1024040" d="M344.67,336.321H337.1a.206.206,0,0,1-.206-.206v-4.128a.206.206,0,0,1,.206-.206h7.573a.206.206,0,0,1,.206.206v4.128a.206.206,0,0,1-.206.206m-7.367-.412h7.161v-3.716H337.3Z" transform="translate(-305.418 -300.786)"/>
          <path id="Trazado_1024041" data-name="Trazado 1024041" d="M195.375,232.241a.206.206,0,0,1-.206-.206V205.686a.206.206,0,0,1,.412,0v26.349a.206.206,0,0,1-.206.206" transform="translate(-176.936 -186.284)"/>
          <path id="Trazado_1024042" data-name="Trazado 1024042" d="M304.733,202.155a.206.206,0,0,1-.206-.206v-7.988a.206.206,0,1,1,.412,0v7.988a.206.206,0,0,1-.206.206" transform="translate(-276.078 -175.654)"/>
          <path id="Trazado_1024043" data-name="Trazado 1024043" d="M100.173,1094.616s-6.015-10.868-13.184-18.589a21.5,21.5,0,0,0-16.076-6.876l-35.364.527c-6.425.1-12.821,5.594-12.981,12.011l-.173,54.393,54.369-27.911Z" transform="translate(-20.303 -969.268)" fill="#fff"/>
          <path id="Trazado_1024044" data-name="Trazado 1024044" d="M20.4,1134.288a.206.206,0,0,1-.206-.207l.173-54.393c.157-6.3,6.441-12.116,13.184-12.216l35.364-.527a21.753,21.753,0,0,1,16.23,6.942c7.1,7.65,13.153,18.52,13.213,18.629a.206.206,0,0,1-.077.278l-23.408,13.554-54.378,27.917a.207.207,0,0,1-.094.023m48.836-66.933-.315,0-35.364.527c-6.536.1-12.627,5.726-12.779,11.81l-.172,54.05,54.068-27.757,23.223-13.447c-.811-1.435-6.483-11.293-13.055-18.372a21.334,21.334,0,0,0-15.607-6.813" transform="translate(-18.303 -967.268)"/>
          <path id="Trazado_1024045" data-name="Trazado 1024045" d="M27.028,1069.669s12.907,7.712,14.713,31.368l19.076-4.592s-.621-20.24-11.033-27.271h3.5s10.441.161,14.1,28.052l-.711,43.025H2.947v-18.39l31-6.28s4.518-30.638-11.932-45.911Z" transform="translate(-2.672 -969.29)" fill="#5479f7"/>
          <path id="Trazado_1024046" data-name="Trazado 1024046" d="M870.786,1067.259c-2.677,1.725-19.792,19.148-19.792,19.148l-.105-1.645s-11.454-1.173-18.928,2.015a21.771,21.771,0,0,0,9.16,18.075c15.907,11.862,36.46-24.375,36.46-24.375a3.257,3.257,0,0,0,3.81-.04c2.091-1.4,3.054-2.89,1.014-4.128,0,0,3.153-2.3.67-4.339,0,0,2.6-3.838-3.167-3.634,0,0,9.792-3.383,7.571-6.213-.611-.778-.72-1.441-3.25-.342s-10.766,3.754-13.443,5.479" transform="translate(-754.22 -962.062)" fill="#fff"/>
          <path id="Trazado_1024047" data-name="Trazado 1024047" d="M846.086,1105.418a11.583,11.583,0,0,1-7.051-2.425,22.163,22.163,0,0,1-9.242-18.257.206.206,0,0,1,.411.034,21.745,21.745,0,0,0,9.078,17.893,11.2,11.2,0,0,0,9.349,2.07c13.293-2.792,26.675-26.146,26.809-26.382a.206.206,0,0,1,.14-.1.2.2,0,0,1,.167.041,3.03,3.03,0,0,0,3.567-.05c1.377-.925,2.067-1.75,2.051-2.455-.011-.473-.357-.919-1.028-1.326a.206.206,0,0,1-.015-.343,3.859,3.859,0,0,0,1.538-2.394,2.031,2.031,0,0,0-.877-1.619.206.206,0,0,1-.04-.275c.009-.013.91-1.369.385-2.315-.4-.716-1.562-1.062-3.374-1a.206.206,0,0,1-.074-.4c.07-.024,7.017-2.449,7.708-4.8a1.149,1.149,0,0,0-.232-1.094c-.063-.081-.121-.16-.177-.237-.455-.623-.705-.965-2.828-.043-.829.36-2.254.882-3.9,1.486-3.44,1.259-7.722,2.826-9.509,3.978-2.628,1.693-19.586,18.945-19.757,19.119a.206.206,0,0,1-.353-.131l-.105-1.646a.206.206,0,0,1,.411-.026l.076,1.186c2.439-2.478,17.011-17.242,19.5-18.849,1.826-1.176,6.131-2.752,9.591-4.018,1.644-.6,3.065-1.122,3.882-1.477,2.312-1,2.751-.609,3.326.178.053.073.108.149.169.225a1.555,1.555,0,0,1,.3,1.465c-.584,1.984-4.905,3.888-6.933,4.684,1.366.1,2.252.5,2.639,1.2a2.816,2.816,0,0,1-.308,2.588,2.343,2.343,0,0,1,.89,1.832,3.885,3.885,0,0,1-1.478,2.53,1.944,1.944,0,0,1,.983,1.51c.02.866-.71,1.784-2.233,2.806a3.492,3.492,0,0,1-3.856.162,104.544,104.544,0,0,1-8.3,12.011c-4.623,5.742-11.615,12.9-18.668,14.38a12.77,12.77,0,0,1-2.629.282" transform="translate(-752.258 -960.039)"/>
          <path id="Trazado_1024048" data-name="Trazado 1024048" d="M1220.191,1131.766a3.851,3.851,0,0,1-2.746-1.134.206.206,0,1,1,.3-.286,3.434,3.434,0,0,0,3.629.791,7.309,7.309,0,0,0,1.082-.574,3.441,3.441,0,0,1,3.149-.667c.16.031.32.062.481.085a1.783,1.783,0,0,0,1.413-.271,1.347,1.347,0,0,0,.292-1.37,3.388,3.388,0,0,0-.895-1.325,10.861,10.861,0,0,0-5.248-2.932.206.206,0,1,1,.092-.4,11.276,11.276,0,0,1,5.45,3.044,3.755,3.755,0,0,1,1,1.495,1.751,1.751,0,0,1-.412,1.8,2.08,2.08,0,0,1-1.747.371c-.167-.024-.334-.056-.5-.089a3.055,3.055,0,0,0-2.857.615,7.631,7.631,0,0,1-1.145.6,3.657,3.657,0,0,1-1.328.245" transform="translate(-1103.658 -1018.703)"/>
          <path id="Trazado_1024049" data-name="Trazado 1024049" d="M1286.66,1180.257a2.709,2.709,0,0,1-.477-.041,1.87,1.87,0,0,1-1.406-1.015,1.286,1.286,0,0,1,.532-1.653.206.206,0,0,1,.182.37.891.891,0,0,0-.336,1.117,1.456,1.456,0,0,0,1.1.775,3.563,3.563,0,0,0,1.5-.135,9.671,9.671,0,0,0,5.2-3.487.206.206,0,0,1,.328.249,10.085,10.085,0,0,1-5.423,3.636,4.7,4.7,0,0,1-1.2.183" transform="translate(-1164.651 -1066.235)"/>
          <path id="Trazado_1024050" data-name="Trazado 1024050" d="M1299.024,1219.381a3,3,0,0,1-1.222-.247,2.308,2.308,0,0,1-1.361-2.615.206.206,0,0,1,.4.116,1.886,1.886,0,0,0,1.133,2.122,3.216,3.216,0,0,0,2.657-.174,10.036,10.036,0,0,0,2.294-1.7.206.206,0,0,1,.276.306,10.348,10.348,0,0,1-2.392,1.765,4.162,4.162,0,0,1-1.779.426" transform="translate(-1175.262 -1102.737)"/>
          <path id="Trazado_1024051" data-name="Trazado 1024051" d="M1314.245,1247.173a.206.206,0,0,1-.132-.048,1.523,1.523,0,0,1-.357-1.836.206.206,0,1,1,.363.195,1.114,1.114,0,0,0,.258,1.325.206.206,0,0,1-.132.364" transform="translate(-1190.875 -1128.855)"/>
          <path id="Trazado_1024052" data-name="Trazado 1024052" d="M507.32,973.911h43.956l27.791-58.679H535.111Z" transform="translate(-459.926 -829.731)"/>
          <path id="Trazado_1024053" data-name="Trazado 1024053" d="M122.286,1196.461s-5.109.734-7.223,7.615c0,0-14.23,8.032-22.424,10.97l-5.307-8.629L65.68,1219.383s9.271,18.8,20.669,21.473,41.085-21.473,41.085-21.473,15.749.525,15.921-2.675-6.956-2.191-6.956-2.191,9.688-1.4,10.163-4.112-10.007,0-10.007,0,11.135-2.235,10.6-5.141-5.119-1.228-5.119-1.228.2-3.129-3.776-2.687c-1.921.214-5.765.722-9.225,1.19a5.951,5.951,0,0,1-6.75-6.076" transform="translate(-59.544 -1084.687)" fill="#fff"/>
          <path id="Trazado_1024054" data-name="Trazado 1024054" d="M430.118,1227a.206.206,0,0,1-.116-.376c7.123-4.842,12.683-9.353,12.738-9.4a.2.2,0,0,1,.137-.046c4.324.144,15.576-.021,15.708-2.48a1.43,1.43,0,0,0-.478-1.2c-1.552-1.422-6.2-.785-6.243-.779a.206.206,0,0,1-.058-.408c2.654-.384,9.621-1.842,9.99-3.944a.54.54,0,0,0-.163-.534c-.9-.828-4.62-.3-7.363.26-1.1.278-1.948.453-2.237.511a.206.206,0,0,1-.092-.4c.257-.066,1.118-.284,2.24-.517,3.547-.91,8.538-2.6,8.21-4.388a1.657,1.657,0,0,0-.819-1.22c-1.4-.8-4,.138-4.026.148a.206.206,0,0,1-.277-.207,2.536,2.536,0,0,0-.711-1.815,3.437,3.437,0,0,0-2.836-.654c-1.6.178-4.7.578-9.22,1.189a6.157,6.157,0,0,1-6.986-6.026c-1.018.252-5.029,1.6-6.817,7.421a.207.207,0,0,1-.1.119c-.089.05-8.956,5.063-16.689,8.585a.206.206,0,1,1-.171-.375c7.349-3.347,15.729-8.046,16.585-8.528,2.142-6.854,7.314-7.672,7.366-7.68a.206.206,0,0,1,.235.21,5.745,5.745,0,0,0,6.516,5.866c4.52-.612,7.625-1.012,9.23-1.191a3.808,3.808,0,0,1,3.17.769,2.846,2.846,0,0,1,.829,1.839c.74-.231,2.809-.767,4.1-.029a2.073,2.073,0,0,1,1.021,1.5c.294,1.6-2.409,2.944-5.192,3.894,1.87-.213,3.638-.207,4.309.412a.955.955,0,0,1,.29.908c-.323,1.841-4.449,3.077-7.392,3.729a5.912,5.912,0,0,1,3.576,1.026,1.843,1.843,0,0,1,.612,1.524c-.174,3.26-14.1,2.934-16.056,2.873-.622.5-5.967,4.789-12.707,9.37a.207.207,0,0,1-.116.036" transform="translate(-374.98 -1082.688)"/>
          <path id="Trazado_1024055" data-name="Trazado 1024055" d="M73.838,1328.841a.205.205,0,0,1-.149-.064A68.011,68.011,0,0,1,63.5,1314.1a.206.206,0,0,1,.079-.268l21.653-12.966a.206.206,0,0,1,.281.069l3.234,5.259a.206.206,0,0,1-.351.216l-3.128-5.085-21.314,12.762a67.358,67.358,0,0,0,10.036,14.408.206.206,0,0,1-.149.348" transform="translate(-57.546 -1179.311)"/>
          <path id="Trazado_1024056" data-name="Trazado 1024056" d="M17.246,1074.54s10.02,13.318,14.559,22.941c0,0-11.852,12.6-23.669,16.45,0,0-6.678-6.1-5.861-22.9.872-17.943,14.971-16.488,14.971-16.488" transform="translate(-1.999 -974.13)" fill="#fff"/>
          <path id="Trazado_1024057" data-name="Trazado 1024057" d="M6.146,1112.169a.206.206,0,0,1-.139-.054,15.992,15.992,0,0,1-3.287-5.22c-1.439-3.328-3.065-9.125-2.641-17.845.3-6.091,2.134-10.628,5.462-13.487a14.156,14.156,0,0,1,9.736-3.2.206.206,0,0,1-.042.41,13.726,13.726,0,0,0-9.43,3.1C2.57,1078.662.781,1083.1.491,1089.07c-.753,15.492,4.945,21.876,5.71,22.658,11.035-3.652,22.214-15.056,23.367-16.255a97.433,97.433,0,0,0-5.62-9.919.206.206,0,0,1,.348-.22A96.928,96.928,0,0,1,30,1095.426a.206.206,0,0,1-.036.229c-.119.126-12.023,12.681-23.755,16.5a.205.205,0,0,1-.064.01" transform="translate(-0.01 -972.163)"/>
          <path id="Trazado_1024058" data-name="Trazado 1024058" d="M785.4,1282.881a.206.206,0,0,1-.036-.409,42.636,42.636,0,0,0,8.282-2.351.206.206,0,0,1,.152.383,43.061,43.061,0,0,1-8.363,2.373.214.214,0,0,1-.036,0" transform="translate(-711.838 -1160.519)"/>
          <path id="Trazado_1024059" data-name="Trazado 1024059" d="M320.962,946.166l-3.145,7.574,3.03-.181s-.123,6.147-7.59,5.934a15.061,15.061,0,0,1-11.316-5.6l5.491-1.451,4.16-10.8Z" transform="translate(-273.734 -853.677)" fill="#fff"/>
          <path id="Trazado_1024060" data-name="Trazado 1024060" d="M311.634,957.706q-.189,0-.382-.005a15.4,15.4,0,0,1-11.478-5.686.206.206,0,0,1,.115-.319l5.39-1.424,4.122-10.7a.206.206,0,0,1,.282-.112l9.369,4.52a.206.206,0,0,1,.1.265l-3.019,7.27,2.7-.161a.2.2,0,0,1,.155.057.207.207,0,0,1,.063.153,6.552,6.552,0,0,1-1.945,4.271,7.647,7.647,0,0,1-5.474,1.871M300.3,952.013a15.045,15.045,0,0,0,10.966,5.275,7.456,7.456,0,0,0,5.557-1.748,6.236,6.236,0,0,0,1.8-3.761l-2.794.167a.206.206,0,0,1-.2-.285l3.07-7.394-8.992-4.339-4.08,10.588a.207.207,0,0,1-.14.125Z" transform="translate(-271.734 -851.678)"/>
          <path id="Trazado_1024061" data-name="Trazado 1024061" d="M456.685,1075.1a.206.206,0,0,1-.187-.292l1.043-2.286a.206.206,0,0,1,.375.171l-1.043,2.286a.206.206,0,0,1-.188.12" transform="translate(-413.835 -972.22)"/>
          <path id="Trazado_1024062" data-name="Trazado 1024062" d="M314.653,724.285c.768-1.151,2.367-1.59,3-2.822a5.726,5.726,0,0,0,.158-3.149,11.806,11.806,0,0,1,2.232-8.007,9.5,9.5,0,0,1,2.848-2.6c.062.091.122.184.185.275a16.32,16.32,0,0,0,2.488,2.906l-.221.032c-.281.042-.21.506.067.491.244-.014.489-.031.733-.05a7.978,7.978,0,0,0,1.348.831,5.425,5.425,0,0,0,2.714.58,5.869,5.869,0,0,0,1.429-.276,10.22,10.22,0,0,0,1.341-.621,5.7,5.7,0,0,1,2.1,1.7,7.97,7.97,0,0,1,1.562,4.485,10.989,10.989,0,0,1-.6,3.977,15.559,15.559,0,0,1-7.4,6.267,23.41,23.41,0,0,1-7.435,1.539,11.3,11.3,0,0,1-3.554-.236,4.9,4.9,0,0,1-2.9-1.956,3.155,3.155,0,0,1-.094-3.375" transform="translate(-284.853 -641.596)"/>
          <path id="Trazado_1024063" data-name="Trazado 1024063" d="M361.2,828.8a8.208,8.208,0,0,1-.3,4.639,5.962,5.962,0,0,1-5.969,3.154,9.8,9.8,0,0,1-6.159-3.411,3.6,3.6,0,0,0-1.282-1.074,5.271,5.271,0,0,0-2.127,0,4.182,4.182,0,0,1-3.848-2.241,2.658,2.658,0,0,1,0-2.637,2.607,2.607,0,0,1,2.352-.973,7.689,7.689,0,0,1,2.531.791,1.891,1.891,0,0,1-.321-1.632,3.362,3.362,0,0,1,.859-1.474,10.911,10.911,0,0,1,5.081-2.641c4.134-1.206,4.662-2.76,5.116-2.689s.968,1.376,1.171,1.747A26.3,26.3,0,0,1,361.2,828.8" transform="translate(-309.294 -742.137)" fill="#fff"/>
          <path id="Trazado_1024064" data-name="Trazado 1024064" d="M353.5,834.828q-.3,0-.6-.028a9.957,9.957,0,0,1-6.293-3.478l-.1-.109a3.1,3.1,0,0,0-1.1-.911,3.007,3.007,0,0,0-1.425-.046c-.2.024-.411.049-.619.059a4.413,4.413,0,0,1-4.042-2.354,2.867,2.867,0,0,1,.014-2.846,2.82,2.82,0,0,1,2.537-1.062,6.509,6.509,0,0,1,2.044.565,2.239,2.239,0,0,1-.049-1.249,3.549,3.549,0,0,1,.908-1.567,11.114,11.114,0,0,1,5.174-2.7,10.345,10.345,0,0,0,4.5-2.313c.283-.252.469-.418.7-.382.434.068.785.738,1.167,1.542.061.128.113.237.152.31a26.372,26.372,0,0,1,2.915,8.509,8.478,8.478,0,0,1-.312,4.755,6.109,6.109,0,0,1-5.577,3.3m-8.761-5.045a2.263,2.263,0,0,1,.813.134,3.4,3.4,0,0,1,1.264,1.021l.1.108a9.55,9.55,0,0,0,6.025,3.344,5.76,5.76,0,0,0,5.761-3.033,8.109,8.109,0,0,0,.282-4.522,25.973,25.973,0,0,0-2.87-8.376c-.042-.077-.1-.193-.163-.33-.166-.348-.605-1.272-.859-1.312a1.529,1.529,0,0,0-.367.282,10.856,10.856,0,0,1-4.659,2.4,10.759,10.759,0,0,0-4.988,2.584,3.144,3.144,0,0,0-.809,1.382,1.694,1.694,0,0,0,.279,1.453.206.206,0,0,1-.242.32,7.509,7.509,0,0,0-2.462-.773,2.4,2.4,0,0,0-2.167.883,2.458,2.458,0,0,0,.014,2.429,3.973,3.973,0,0,0,3.654,2.127c.193-.01.395-.034.59-.057a6.834,6.834,0,0,1,.807-.064" transform="translate(-307.282 -740.135)"/>
          <path id="Trazado_1024065" data-name="Trazado 1024065" d="M371.167,932.059a.206.206,0,0,1-.167-.085,2.784,2.784,0,0,0-2.52-1.1.206.206,0,0,1-.05-.409,3.164,3.164,0,0,1,2.9,1.264.206.206,0,0,1-.167.327" transform="translate(-333.847 -843.523)"/>
          <path id="Trazado_1024066" data-name="Trazado 1024066" d="M316.593,724.747l22.076-14.3a.966.966,0,1,0-1.062-1.613l-22.852,15.216a1.218,1.218,0,0,0,1.837.7" transform="translate(-285.351 -642.465)" fill="#5479f7"/>
          <path id="Trazado_1024067" data-name="Trazado 1024067" d="M297.256,697.776l1.875-1.664s-6.209-10.718-15.743-4.583c-10.275,6.612-1.631,15.26-1.631,15.26Z" transform="translate(-252.353 -625.208)" fill="#5479f7"/>
          <rect id="Rectángulo_457068" data-name="Rectángulo 457068" width="26.379" height="26.376" transform="translate(135.523 65.797)" fill="#fff"/>
          <path id="Trazado_1024068" data-name="Trazado 1024068" d="M1475.061,728.889h-26.379a.206.206,0,0,1-.206-.206V702.307a.206.206,0,0,1,.206-.206h24.868a.206.206,0,0,1,0,.412h-24.662v25.964h25.967V709.393a.206.206,0,1,1,.412,0v19.29a.206.206,0,0,1-.206.206" transform="translate(-1313.159 -636.51)" fill="#5479f7"/>
          <path id="Trazado_1024069" data-name="Trazado 1024069" d="M1489.573,692.844a.207.207,0,0,1-.168-.086l-10.335-14.467a.206.206,0,0,1,.335-.239l10.167,14.233,17.845-24.862a.206.206,0,1,1,.335.24l-18.012,25.1a.206.206,0,0,1-.167.086" transform="translate(-1340.86 -604.993)" fill="#5479f7"/>
        </g>
      </g>
    </g>
  </g>
</svg>
