<svg xmlns="http://www.w3.org/2000/svg" width="84" height="84" viewBox="0 0 84 84">
  <g id="Grupo_1180414" data-name="Grupo 1180414" transform="translate(-527.711 -5323)">
    <rect id="Rectángulo_456547" data-name="Rectángulo 456547" width="84" height="84" transform="translate(527.711 5323)" fill="#f2a4ab"/>
    <g id="Grupo_1180413" data-name="Grupo 1180413" transform="translate(451.146 5258.071)">
      <path id="Trazado_1021591" data-name="Trazado 1021591" d="M243.528,116v2.806l-1.142-.362a.906.906,0,0,0-.544,0l-1.142.362V116Z" transform="translate(-136.739 -30.198)" fill="#f57f17"/>
      <path id="Trazado_1021592" data-name="Trazado 1021592" d="M173.61,116v4.036a.9.9,0,0,1-1.173.859l-2.043-.647-2.043.647a.9.9,0,0,1-1.173-.859V116H164.7v10.777h11.388V116Zm-.043,8.758h-6.347a.9.9,0,0,1,0-1.8h6.347a.9.9,0,1,1,0,1.8Z" transform="translate(-65.02 -30.198)" fill="#fcb64d"/>
      <path id="Trazado_1021593" data-name="Trazado 1021593" d="M407.8,116v4.036a.9.9,0,0,1-1.173.859l-2.043-.647-2.043.647a.9.9,0,0,1-1.173-.859V116H398.89v10.777h11.389V116Zm-.043,8.758h-6.347a.9.9,0,0,1,0-1.8h6.347a.9.9,0,1,1,0,1.8Z" transform="translate(-286.02 -30.198)" fill="#fcb64d"/>
      <path id="Trazado_1021594" data-name="Trazado 1021594" d="M477.718,116v2.806l-1.142-.362a.906.906,0,0,0-.544,0l-1.142.362V116Z" transform="translate(-357.74 -30.198)" fill="#f57f17"/>
      <path id="Trazado_1021595" data-name="Trazado 1021595" d="M711.9,116v2.806l-1.143-.362a.906.906,0,0,0-.544,0l-1.142.362V116Z" transform="translate(-578.73 -30.198)" fill="#f57f17"/>
      <path id="Trazado_1021596" data-name="Trazado 1021596" d="M642,116v4.036a.9.9,0,0,1-1.173.859l-2.043-.647-2.043.647a.9.9,0,0,1-1.173-.859V116H633.09v10.777h11.388V116Zm-.043,8.758h-6.347a.9.9,0,0,1,0-1.8h6.347a.9.9,0,0,1,0,1.8Z" transform="translate(-507.029 -30.198)" fill="#fcb64d"/>
      <path id="Trazado_1021597" data-name="Trazado 1021597" d="M173.61,339.35v4.035a.9.9,0,0,1-1.173.859l-2.043-.647-2.043.647a.9.9,0,0,1-1.173-.859V339.35H164.7v10.777h11.388V339.35Zm-.043,8.759h-6.347a.9.9,0,0,1,0-1.8h6.347a.9.9,0,1,1,0,1.8Z" transform="translate(-65.02 -240.969)" fill="#fcb64d"/>
      <path id="Trazado_1021598" data-name="Trazado 1021598" d="M243.528,339.35v2.806l-1.142-.362a.9.9,0,0,0-.544,0l-1.142.362V339.35Z" transform="translate(-136.739 -240.969)" fill="#f57f17"/>
      <path id="Trazado_1021599" data-name="Trazado 1021599" d="M407.8,339.35v4.035a.9.9,0,0,1-1.173.859l-2.043-.645-2.043.647a.9.9,0,0,1-1.173-.861V339.35H398.89v10.777h11.389V339.35Zm-.043,8.759h-6.347a.9.9,0,0,1,0-1.8h6.347a.9.9,0,1,1,0,1.8Z" transform="translate(-286.02 -240.969)" fill="#fcb64d"/>
      <path id="Trazado_1021600" data-name="Trazado 1021600" d="M477.718,339.35v2.806l-1.142-.362a.9.9,0,0,0-.544,0l-1.142.362V339.35Z" transform="translate(-357.74 -240.969)" fill="#f57f17"/>
      <path id="Trazado_1021601" data-name="Trazado 1021601" d="M711.9,339.35v2.806l-1.143-.362a.9.9,0,0,0-.544,0l-1.142.362V339.35Z" transform="translate(-578.73 -240.969)" fill="#f57f17"/>
      <path id="Trazado_1021602" data-name="Trazado 1021602" d="M642,339.35v4.035a.9.9,0,0,1-1.173.859l-2.043-.647-2.043.647a.9.9,0,0,1-1.173-.859V339.35H633.09v10.777h11.388V339.35Zm-.043,8.759h-6.347a.9.9,0,0,1,0-1.8h6.347a.9.9,0,0,1,0,1.8Z" transform="translate(-507.029 -240.969)" fill="#fcb64d"/>
      <path id="Trazado_1021603" data-name="Trazado 1021603" d="M243.528,562.71v2.806l-1.142-.362a.9.9,0,0,0-.544,0l-1.142.362V562.71Z" transform="translate(-136.739 -451.749)" fill="#f57f17"/>
      <path id="Trazado_1021604" data-name="Trazado 1021604" d="M173.61,562.71v4.036a.9.9,0,0,1-1.173.859l-2.043-.647-2.043.647a.9.9,0,0,1-1.173-.859V562.71H164.7v10.777h11.388V562.71Zm-.043,8.759h-6.347a.9.9,0,1,1,0-1.8h6.347a.9.9,0,1,1,0,1.8Z" transform="translate(-65.02 -451.749)" fill="#fcb64d"/>
      <path id="Trazado_1021605" data-name="Trazado 1021605" d="M477.718,562.71v2.806l-1.142-.362a.9.9,0,0,0-.544,0l-1.142.362V562.71Z" transform="translate(-357.74 -451.749)" fill="#f57f17"/>
      <path id="Trazado_1021606" data-name="Trazado 1021606" d="M407.8,562.71v4.036a.9.9,0,0,1-1.173.859l-2.043-.647-2.043.647a.9.9,0,0,1-1.173-.859V562.71H398.89v10.777h11.389V562.71Zm-.043,8.759h-6.347a.9.9,0,1,1,0-1.8h6.347a.9.9,0,1,1,0,1.8Z" transform="translate(-286.02 -451.749)" fill="#fcb64d"/>
      <path id="Trazado_1021607" data-name="Trazado 1021607" d="M642,562.71v4.036a.9.9,0,0,1-1.173.859l-2.043-.647-2.043.647a.9.9,0,0,1-1.173-.859V562.71H633.09v10.777h11.388V562.71Zm-.043,8.759h-6.347a.9.9,0,0,1,0-1.8h6.347a.9.9,0,1,1,0,1.8Z" transform="translate(-507.029 -451.749)" fill="#fcb64d"/>
      <path id="Trazado_1021608" data-name="Trazado 1021608" d="M711.9,562.71v2.806l-1.143-.362a.9.9,0,0,0-.544,0l-1.142.362V562.71Z" transform="translate(-578.73 -451.749)" fill="#f57f17"/>
      <path id="Trazado_1021609" data-name="Trazado 1021609" d="M127.8,786.06h41.925v1.664H127.8Z" transform="translate(-30.198 -662.52)" fill="#8d6e63"/>
      <path id="Trazado_1021610" data-name="Trazado 1021610" d="M849.66,847.6h1.269v2.05H849.66Z" transform="translate(-711.402 -720.594)" fill="#8d6e63"/>
      <path id="Trazado_1021611" data-name="Trazado 1021611" d="M488.73,847.6H490v2.05H488.73Z" transform="translate(-370.8 -720.594)" fill="#8d6e63"/>
      <path id="Trazado_1021612" data-name="Trazado 1021612" d="M127.8,847.6h1.269v2.05H127.8Z" transform="translate(-30.198 -720.594)" fill="#8d6e63"/>
      <g id="Grupo_1180411" data-name="Grupo 1180411" transform="translate(97.039 86.365)" opacity="0.5">
        <path id="Trazado_1021613" data-name="Trazado 1021613" d="M233.528,126v2.806l-1.142-.362a.906.906,0,0,0-.544,0l-1.142.362V126Z" transform="translate(-224.341 -126)" fill="#fff"/>
        <path id="Trazado_1021614" data-name="Trazado 1021614" d="M163.61,126v4.036a.9.9,0,0,1-1.173.859l-2.043-.647-2.043.647a.9.9,0,0,1-1.173-.859V126H154.7v10.777h11.388V126Zm-.043,8.758h-6.347a.9.9,0,1,1,0-1.8h6.347a.9.9,0,0,1,0,1.8Z" transform="translate(-152.622 -126)" fill="#fff"/>
        <path id="Trazado_1021615" data-name="Trazado 1021615" d="M397.8,126v4.036a.9.9,0,0,1-1.173.859l-2.043-.647-2.043.647a.9.9,0,0,1-1.173-.859V126H388.89v10.777h11.389V126Zm-.043,8.758h-6.347a.9.9,0,0,1,0-1.8h6.347a.9.9,0,0,1,0,1.8Z" transform="translate(-373.622 -126)" fill="#fff"/>
        <path id="Trazado_1021616" data-name="Trazado 1021616" d="M467.718,126v2.806l-1.142-.362a.906.906,0,0,0-.544,0l-1.142.362V126Z" transform="translate(-445.342 -126)" fill="#fff"/>
        <path id="Trazado_1021617" data-name="Trazado 1021617" d="M701.9,126v2.806l-1.143-.362a.905.905,0,0,0-.544,0l-1.142.362V126Z" transform="translate(-666.333 -126)" fill="#fff"/>
        <path id="Trazado_1021618" data-name="Trazado 1021618" d="M632,126v4.036a.9.9,0,0,1-1.173.859l-2.043-.647-2.043.647a.9.9,0,0,1-1.173-.859V126H623.09v10.777h11.388V126Zm-.043,8.758h-6.347a.9.9,0,0,1,0-1.8h6.347a.9.9,0,1,1,0,1.8Z" transform="translate(-594.632 -126)" fill="#fff"/>
        <path id="Trazado_1021619" data-name="Trazado 1021619" d="M163.61,349.35v4.035a.9.9,0,0,1-1.173.859l-2.043-.647-2.043.647a.9.9,0,0,1-1.173-.859V349.35H154.7v10.778h11.388V349.35Zm-.043,8.759h-6.347a.9.9,0,1,1,0-1.8h6.347a.9.9,0,0,1,0,1.8Z" transform="translate(-152.622 -336.771)" fill="#fff"/>
        <path id="Trazado_1021620" data-name="Trazado 1021620" d="M233.528,349.35v2.807l-1.142-.362a.9.9,0,0,0-.544,0l-1.142.362V349.35Z" transform="translate(-224.341 -336.771)" fill="#fff"/>
        <path id="Trazado_1021621" data-name="Trazado 1021621" d="M397.8,349.35v4.035a.9.9,0,0,1-1.173.859l-2.043-.645-2.043.647a.9.9,0,0,1-1.173-.861V349.35H388.89v10.778h11.389V349.35Zm-.043,8.759h-6.347a.9.9,0,0,1,0-1.8h6.347a.9.9,0,0,1,0,1.8Z" transform="translate(-373.622 -336.771)" fill="#fff"/>
        <path id="Trazado_1021622" data-name="Trazado 1021622" d="M467.718,349.35v2.807l-1.142-.362a.9.9,0,0,0-.544,0l-1.142.362V349.35Z" transform="translate(-445.342 -336.771)" fill="#fff"/>
        <path id="Trazado_1021623" data-name="Trazado 1021623" d="M701.9,349.35v2.807l-1.143-.362a.9.9,0,0,0-.544,0l-1.142.362V349.35Z" transform="translate(-666.333 -336.771)" fill="#fff"/>
        <path id="Trazado_1021624" data-name="Trazado 1021624" d="M632,349.35v4.035a.9.9,0,0,1-1.173.859l-2.043-.647-2.043.647a.9.9,0,0,1-1.173-.859V349.35H623.09v10.778h11.388V349.35Zm-.043,8.759h-6.347a.9.9,0,0,1,0-1.8h6.347a.9.9,0,1,1,0,1.8Z" transform="translate(-594.632 -336.771)" fill="#fff"/>
        <path id="Trazado_1021625" data-name="Trazado 1021625" d="M233.528,572.71v2.806l-1.142-.362a.9.9,0,0,0-.544,0l-1.142.362V572.71Z" transform="translate(-224.341 -547.551)" fill="#fff"/>
        <path id="Trazado_1021626" data-name="Trazado 1021626" d="M163.61,572.71v4.036a.9.9,0,0,1-1.173.859l-2.043-.647-2.043.647a.9.9,0,0,1-1.173-.859V572.71H154.7v10.777h11.388V572.71Zm-.043,8.758h-6.347a.9.9,0,1,1,0-1.8h6.347a.9.9,0,1,1,0,1.8Z" transform="translate(-152.622 -547.551)" fill="#fff"/>
        <path id="Trazado_1021627" data-name="Trazado 1021627" d="M467.718,572.71v2.806l-1.142-.362a.9.9,0,0,0-.544,0l-1.142.362V572.71Z" transform="translate(-445.342 -547.551)" fill="#fff"/>
        <path id="Trazado_1021628" data-name="Trazado 1021628" d="M397.8,572.71v4.036a.9.9,0,0,1-1.173.859l-2.043-.647-2.043.647a.9.9,0,0,1-1.173-.859V572.71H388.89v10.777h11.389V572.71Zm-.043,8.758h-6.347a.9.9,0,0,1,0-1.8h6.347a.9.9,0,0,1,0,1.8Z" transform="translate(-373.622 -547.551)" fill="#fff"/>
        <path id="Trazado_1021629" data-name="Trazado 1021629" d="M632,572.71v4.036a.9.9,0,0,1-1.173.859l-2.043-.647-2.043.647a.9.9,0,0,1-1.173-.859V572.71H623.09v10.777h11.388V572.71Zm-.043,8.758h-6.347a.9.9,0,0,1,0-1.8h6.347a.9.9,0,1,1,0,1.8Z" transform="translate(-594.632 -547.551)" fill="#fff"/>
        <path id="Trazado_1021630" data-name="Trazado 1021630" d="M701.9,572.71v2.806l-1.143-.362a.9.9,0,0,0-.544,0l-1.142.362V572.71Z" transform="translate(-666.333 -547.551)" fill="#fff"/>
        <path id="Trazado_1021631" data-name="Trazado 1021631" d="M117.8,796.06h41.925v1.664H117.8Z" transform="translate(-117.8 -758.322)" fill="#fff"/>
        <path id="Trazado_1021632" data-name="Trazado 1021632" d="M839.66,857.6h1.27v2.05h-1.27Z" transform="translate(-799.005 -816.396)" fill="#fff"/>
        <path id="Trazado_1021633" data-name="Trazado 1021633" d="M478.73,857.6H480v2.05h-1.27Z" transform="translate(-458.402 -816.396)" fill="#fff"/>
        <path id="Trazado_1021634" data-name="Trazado 1021634" d="M117.8,857.6h1.269v2.05H117.8Z" transform="translate(-117.8 -816.396)" fill="#fff"/>
      </g>
      <g id="Grupo_1180412" data-name="Grupo 1180412" transform="translate(95.8 84)">
        <path id="Trazado_1021635" data-name="Trazado 1021635" d="M137.891,96.579a.9.9,0,0,1,.9.9v.9h2.828v-.9a.9.9,0,0,1,.9-.9Zm0,0a.9.9,0,0,1,.9.9v.9h2.828v-.9a.9.9,0,0,1,.9-.9ZM146.8,84h-13.19a.9.9,0,0,0-.9.9V97.48a.9.9,0,0,0,.9.9H146.8a.9.9,0,0,0,.9-.9V84.9A.9.9,0,0,0,146.8,84ZM134.512,96.579V85.8H145.9V96.579Zm3.379,0a.9.9,0,0,1,.9.9v.9h2.828v-.9a.9.9,0,0,1,.9-.9Z" transform="translate(-130.631 -84)" fill="#413b32"/>
        <path id="Trazado_1021636" data-name="Trazado 1021636" d="M215.132,84.9v4.938a.9.9,0,0,1-1.173.859l-2.043-.647-2.043.647a.9.9,0,0,1-1.173-.859V84.9a.9.9,0,1,1,1.8,0v3.707l1.143-.362a.906.906,0,0,1,.544,0l1.142.362V84.9a.9.9,0,0,1,1.8,0Z" transform="translate(-202.341 -84)" fill="#413b32"/>
        <path id="Trazado_1021637" data-name="Trazado 1021637" d="M201.609,240.411a.9.9,0,0,1-.9.9h-6.347a.9.9,0,1,1,0-1.8h6.347A.9.9,0,0,1,201.609,240.411Z" transform="translate(-187.96 -230.752)" fill="#413b32"/>
        <path id="Trazado_1021638" data-name="Trazado 1021638" d="M368.7,96.579v.9a.9.9,0,0,1-.9.9h8.009v-.9a.9.9,0,0,1,.9-.9Zm0,0v.9a.9.9,0,0,1-.9.9h8.009v-.9a.9.9,0,0,1,.9-.9ZM380.991,84H367.8a.9.9,0,0,0-.9.9V97.48a.9.9,0,0,0,.9.9h13.19a.9.9,0,0,0,.9-.9V84.9A.9.9,0,0,0,380.991,84ZM368.7,96.579V85.8H380.09V96.579Zm0,0v.9a.9.9,0,0,1-.9.9h8.009v-.9a.9.9,0,0,1,.9-.9Zm0,0v.9a.9.9,0,0,1-.9.9h8.009v-.9a.9.9,0,0,1,.9-.9Zm0,0v.9a.9.9,0,0,1-.9.9h8.009v-.9a.9.9,0,0,1,.9-.9Z" transform="translate(-351.632 -84)" fill="#413b32"/>
        <path id="Trazado_1021639" data-name="Trazado 1021639" d="M449.323,84.9v4.938a.9.9,0,0,1-1.173.859l-2.043-.647-2.043.647a.9.9,0,0,1-1.173-.859V84.9a.9.9,0,0,1,1.8,0v3.707l1.142-.362a.906.906,0,0,1,.544,0l1.142.362V84.9a.9.9,0,1,1,1.8,0Z" transform="translate(-423.342 -84)" fill="#413b32"/>
        <path id="Trazado_1021640" data-name="Trazado 1021640" d="M435.8,240.411a.9.9,0,0,1-.9.9h-6.347a.9.9,0,0,1,0-1.8H434.9A.9.9,0,0,1,435.8,240.411Z" transform="translate(-408.96 -230.752)" fill="#413b32"/>
        <path id="Trazado_1021641" data-name="Trazado 1021641" d="M602.9,96.579v.9a.9.9,0,0,1-.9.9h3.379v-.9a.9.9,0,0,1,.9-.9ZM615.191,84H602a.9.9,0,0,0-.9.9V97.48a.9.9,0,0,0,.9.9h13.19a.9.9,0,0,0,.9-.9V84.9A.9.9,0,0,0,615.191,84ZM602.9,96.579V85.8H614.29V96.579Zm0,0v.9a.9.9,0,0,1-.9.9h3.379v-.9a.9.9,0,0,1,.9-.9Z" transform="translate(-572.641 -84)" fill="#413b32"/>
        <path id="Trazado_1021642" data-name="Trazado 1021642" d="M683.522,84.9v4.938a.9.9,0,0,1-1.173.859l-2.043-.647-2.043.647a.9.9,0,0,1-1.173-.859V84.9a.9.9,0,0,1,1.8,0v3.707l1.142-.362a.905.905,0,0,1,.544,0l1.142.362V84.9a.9.9,0,0,1,1.8,0Z" transform="translate(-644.351 -84)" fill="#413b32"/>
        <path id="Trazado_1021643" data-name="Trazado 1021643" d="M670,240.411a.9.9,0,0,1-.9.9h-6.347a.9.9,0,0,1,0-1.8H669.1A.9.9,0,0,1,670,240.411Z" transform="translate(-629.97 -230.752)" fill="#413b32"/>
        <path id="Trazado_1021644" data-name="Trazado 1021644" d="M145.9,309.152V319.93h-8.009a.9.9,0,0,1,.9.9v.9H146.8a.9.9,0,0,0,.9-.9V309.152Zm0,0V319.93h-8.009a.9.9,0,0,1,.9.9v.9H146.8a.9.9,0,0,0,.9-.9V309.152Zm0,11.679v-.9H142.52a.9.9,0,0,1,.9.9v.9H146.8A.9.9,0,0,1,145.9,320.831Zm.9-13.481h-13.19a.9.9,0,0,0-.9.9v12.58a.9.9,0,0,0,.9.9H146.8a.9.9,0,0,0,.9-.9v-12.58A.9.9,0,0,0,146.8,307.35Zm-12.289,12.58V309.152H145.9V319.93ZM145.9,309.152V319.93h-8.009a.9.9,0,0,1,.9.9v.9H146.8a.9.9,0,0,0,.9-.9V309.152Zm0,0V319.93h-8.009a.9.9,0,0,1,.9.9v.9H146.8a.9.9,0,0,0,.9-.9V309.152Zm0,0V319.93h-8.009a.9.9,0,0,1,.9.9v.9H146.8a.9.9,0,0,0,.9-.9V309.152Z" transform="translate(-130.631 -294.771)" fill="#413b32"/>
        <path id="Trazado_1021645" data-name="Trazado 1021645" d="M215.132,308.251v4.936a.9.9,0,0,1-1.173.859l-2.043-.647-2.043.647a.9.9,0,0,1-1.173-.859v-4.936a.9.9,0,1,1,1.8,0v3.708l1.143-.362a.9.9,0,0,1,.544,0l1.142.362v-3.708a.9.9,0,1,1,1.8,0Z" transform="translate(-202.341 -294.771)" fill="#413b32"/>
        <path id="Trazado_1021646" data-name="Trazado 1021646" d="M201.609,463.771a.9.9,0,0,1-.9.9h-6.347a.9.9,0,1,1,0-1.8h6.347A.9.9,0,0,1,201.609,463.771Z" transform="translate(-187.96 -441.532)" fill="#413b32"/>
        <path id="Trazado_1021647" data-name="Trazado 1021647" d="M368.7,319.93v1.8h2.478v-.9a.9.9,0,0,1,.9-.9Zm12.289-12.58H367.8a.9.9,0,0,0-.9.9v12.58a.9.9,0,0,0,.9.9h13.19a.9.9,0,0,0,.9-.9v-12.58A.9.9,0,0,0,380.991,307.35ZM368.7,319.93V309.152H380.09V319.93Zm0,0v1.8h2.478v-.9a.9.9,0,0,1,.9-.9Zm0,0v1.8h2.478v-.9a.9.9,0,0,1,.9-.9Z" transform="translate(-351.632 -294.771)" fill="#413b32"/>
        <path id="Trazado_1021648" data-name="Trazado 1021648" d="M449.323,308.251v4.936a.9.9,0,0,1-1.173.859l-2.043-.645-2.043.647a.9.9,0,0,1-1.173-.861v-4.936a.9.9,0,1,1,1.8,0v3.708l1.142-.362a.9.9,0,0,1,.544,0l1.142.362v-3.708a.9.9,0,1,1,1.8,0Z" transform="translate(-423.342 -294.771)" fill="#413b32"/>
        <path id="Trazado_1021649" data-name="Trazado 1021649" d="M435.8,463.771a.9.9,0,0,1-.9.9h-6.347a.9.9,0,0,1,0-1.8H434.9A.9.9,0,0,1,435.8,463.771Z" transform="translate(-408.96 -441.532)" fill="#413b32"/>
        <path id="Trazado_1021650" data-name="Trazado 1021650" d="M606.271,307.35h-3.379v.9a.9.9,0,0,1-1.8,0v12.58a.9.9,0,0,1,.9-.9h.9V309.152h4.28v-.9A.9.9,0,0,0,606.271,307.35Zm-5.182,1.8V319.93h1.8V309.152Zm0,0V319.93h1.8V309.152Zm14.091-1.8H601.992a.9.9,0,0,0-.9.9v12.58a.9.9,0,0,0,.9.9h13.19a.9.9,0,0,0,.9-.9v-12.58a.9.9,0,0,0-.9-.9Zm-12.288,12.58V309.152H614.28V319.93Zm-1.8-10.777V319.93h1.8V309.152Zm6.083,0v-.9a.9.9,0,0,0-.9-.9h-3.379v.9a.9.9,0,0,1-1.8,0v12.58a.9.9,0,0,1,1.8,0v.9h2.478v-.9a.9.9,0,0,1,.9-.9h-3.379V309.152Zm-.9-1.8h-3.379v.9a.9.9,0,0,1-1.8,0v12.58a.9.9,0,0,1,.9-.9h.9V309.152h4.28v-.9a.9.9,0,0,0-.9-.9Z" transform="translate(-572.632 -294.771)" fill="#413b32"/>
        <path id="Trazado_1021651" data-name="Trazado 1021651" d="M683.522,308.251v4.936a.9.9,0,0,1-1.173.859l-2.043-.647-2.043.647a.9.9,0,0,1-1.173-.859v-4.936a.9.9,0,1,1,1.8,0v3.708l1.142-.362a.9.9,0,0,1,.544,0l1.142.362v-3.708a.9.9,0,1,1,1.8,0Z" transform="translate(-644.351 -294.771)" fill="#413b32"/>
        <path id="Trazado_1021652" data-name="Trazado 1021652" d="M670,463.771a.9.9,0,0,1-.9.9h-6.347a.9.9,0,0,1,0-1.8H669.1A.9.9,0,0,1,670,463.771Z" transform="translate(-629.97 -441.532)" fill="#413b32"/>
        <path id="Trazado_1021653" data-name="Trazado 1021653" d="M146.8,532.512h-.9v10.777h1.8V531.611a.9.9,0,0,1-.9.9Zm0-1.8h-13.19a.9.9,0,0,0-.9.9V544.19a.9.9,0,0,0,.9.9H146.8a.9.9,0,0,0,.9-.9V531.611A.9.9,0,0,0,146.8,530.71Zm-12.289,12.579V532.512H145.9v10.777Z" transform="translate(-130.631 -505.551)" fill="#413b32"/>
        <path id="Trazado_1021654" data-name="Trazado 1021654" d="M215.132,531.611v4.938a.9.9,0,0,1-1.173.859l-2.043-.647-2.043.647a.9.9,0,0,1-1.173-.859v-4.938a.9.9,0,1,1,1.8,0v3.707l1.143-.362a.9.9,0,0,1,.544,0l1.142.362v-3.707a.9.9,0,0,1,1.8,0Z" transform="translate(-202.341 -505.551)" fill="#413b32"/>
        <path id="Trazado_1021655" data-name="Trazado 1021655" d="M201.609,687.121a.9.9,0,0,1-.9.9h-6.347a.9.9,0,1,1,0-1.8h6.347A.9.9,0,0,1,201.609,687.121Z" transform="translate(-187.96 -652.303)" fill="#413b32"/>
        <path id="Trazado_1021656" data-name="Trazado 1021656" d="M372.081,530.71H368.7v1.8h4.28v-.9A.9.9,0,0,0,372.081,530.71Zm8.911,0H367.8a.9.9,0,0,0-.9.9V544.19a.9.9,0,0,0,.9.9h13.19a.9.9,0,0,0,.9-.9V531.611A.9.9,0,0,0,380.991,530.71ZM368.7,543.289V532.512H380.09v10.777Z" transform="translate(-351.632 -505.551)" fill="#413b32"/>
        <path id="Trazado_1021657" data-name="Trazado 1021657" d="M449.323,562.71v4.036a.9.9,0,0,1-1.173.859l-2.043-.647-2.043.647a.9.9,0,0,1-1.173-.859V562.71h1.8v2.806l1.142-.362a.9.9,0,0,1,.544,0l1.142.362V562.71Z" transform="translate(-423.342 -535.749)" fill="#413b32"/>
        <path id="Trazado_1021658" data-name="Trazado 1021658" d="M444.692,531.611v.9h-1.8v-.9a.9.9,0,0,1,1.8,0Z" transform="translate(-423.342 -505.551)" fill="#413b32"/>
        <path id="Trazado_1021659" data-name="Trazado 1021659" d="M526.912,531.611v.9h-1.8v-.9a.9.9,0,0,1,1.8,0Z" transform="translate(-500.931 -505.551)" fill="#413b32"/>
        <path id="Trazado_1021660" data-name="Trazado 1021660" d="M435.8,687.121a.9.9,0,0,1-.9.9h-6.347a.9.9,0,0,1,0-1.8H434.9A.9.9,0,0,1,435.8,687.121Z" transform="translate(-408.96 -652.303)" fill="#413b32"/>
        <path id="Trazado_1021661" data-name="Trazado 1021661" d="M606.281,530.71H602a.9.9,0,0,1,.9.9v.9h4.28v-.9A.9.9,0,0,0,606.281,530.71Zm0,0H602a.9.9,0,0,1,.9.9v.9h4.28v-.9A.9.9,0,0,0,606.281,530.71Zm8.91,0H602a.9.9,0,0,0-.9.9V544.19a.9.9,0,0,0,.9.9h13.19a.9.9,0,0,0,.9-.9V531.611A.9.9,0,0,0,615.191,530.71ZM602.9,543.289V532.512H614.29v10.777Zm3.379-12.579H602a.9.9,0,0,1,.9.9v.9h4.28v-.9a.9.9,0,0,0-.9-.9Z" transform="translate(-572.641 -505.551)" fill="#413b32"/>
        <path id="Trazado_1021662" data-name="Trazado 1021662" d="M683.522,531.611v4.938a.9.9,0,0,1-1.173.859l-2.043-.647-2.043.647a.9.9,0,0,1-1.173-.859v-4.938a.9.9,0,0,1,1.8,0v3.707l1.142-.362a.9.9,0,0,1,.544,0l1.142.362v-3.707a.9.9,0,0,1,1.8,0Z" transform="translate(-644.351 -505.551)" fill="#413b32"/>
        <path id="Trazado_1021663" data-name="Trazado 1021663" d="M670,687.121a.9.9,0,0,1-.9.9h-6.347a.9.9,0,0,1,0-1.8H669.1A.9.9,0,0,1,670,687.121Z" transform="translate(-629.97 -652.303)" fill="#413b32"/>
        <path id="Trazado_1021664" data-name="Trazado 1021664" d="M124.259,754.961v-.9H112.871v.9a.9.9,0,0,1-.9.9h13.19A.9.9,0,0,1,124.259,754.961Zm0,0v-.9H112.871v.9a.9.9,0,0,1-.9.9h13.19A.9.9,0,0,1,124.259,754.961Zm16.17-.9H96.7a.9.9,0,0,0-.9.9v3.466a.9.9,0,0,0,.9.9h43.727a.9.9,0,0,0,.9-.9v-3.466A.9.9,0,0,0,140.428,754.06ZM97.6,757.526v-1.664h41.925v1.664Zm26.657-2.565v-.9H112.871v.9a.9.9,0,0,1-.9.9h13.19A.9.9,0,0,1,124.259,754.961Zm0,0v-.9H112.871v.9a.9.9,0,0,1-.9.9h13.19A.9.9,0,0,1,124.259,754.961Z" transform="translate(-95.8 -716.322)" fill="#413b32"/>
        <path id="Trazado_1021665" data-name="Trazado 1021665" d="M821.633,815.6h-3.072a.9.9,0,0,0-.9.9v3.852a.9.9,0,0,0,.9.9h3.072a.9.9,0,0,0,.9-.9V816.5A.9.9,0,0,0,821.633,815.6Zm-.9,3.852h-1.27V817.4h1.27Z" transform="translate(-777.004 -774.396)" fill="#413b32"/>
        <path id="Trazado_1021666" data-name="Trazado 1021666" d="M460.7,815.6h-3.072a.9.9,0,0,0-.9.9v3.852a.9.9,0,0,0,.9.9H460.7a.9.9,0,0,0,.9-.9V816.5A.9.9,0,0,0,460.7,815.6Zm-.9,3.852h-1.269V817.4H459.8Z" transform="translate(-436.402 -774.396)" fill="#413b32"/>
        <path id="Trazado_1021667" data-name="Trazado 1021667" d="M99.773,815.6H96.7a.9.9,0,0,0-.9.9v3.852a.9.9,0,0,0,.9.9h3.072a.9.9,0,0,0,.9-.9V816.5A.9.9,0,0,0,99.773,815.6Zm-.9,3.852H97.6V817.4h1.269Z" transform="translate(-95.8 -774.396)" fill="#413b32"/>
      </g>
    </g>
  </g>
</svg>
