<svg xmlns="http://www.w3.org/2000/svg" width="70" height="70" viewBox="0 0 70 70">
  <g id="Grupo_1180392" data-name="Grupo 1180392" transform="translate(-522 -496)">
    <rect id="Rectángulo_456474" data-name="Rectángulo 456474" width="70" height="70" rx="10" transform="translate(522 496)" fill="#fee7bd"/>
    <g id="Grupo_1180391" data-name="Grupo 1180391" transform="translate(451.259 309.554)">
      <path id="Trazado_1021386" data-name="Trazado 1021386" d="M300.76,406.59h3.556v2.772H300.76Z" transform="translate(-205.603 -189.611)" fill="#fcb64d"/>
      <path id="Trazado_1021387" data-name="Trazado 1021387" d="M399.63,406.59h3.556v2.772H399.63Z" transform="translate(-299.215 -189.611)" fill="#fcb64d"/>
      <path id="Trazado_1021388" data-name="Trazado 1021388" d="M498.51,406.59h3.556v2.772H498.51Z" transform="translate(-392.837 -189.611)" fill="#fcb64d"/>
      <path id="Trazado_1021389" data-name="Trazado 1021389" d="M597.39,406.59h3.556v2.772H597.39Z" transform="translate(-486.459 -189.611)" fill="#fcb64d"/>
      <path id="Trazado_1021390" data-name="Trazado 1021390" d="M350.2,322.46h3.556v2.772H350.2Z" transform="translate(-252.414 -109.955)" fill="#fcb64d"/>
      <path id="Trazado_1021391" data-name="Trazado 1021391" d="M449.07,322.46h3.556v2.772H449.07Z" transform="translate(-346.026 -109.955)" fill="#fcb64d"/>
      <path id="Trazado_1021392" data-name="Trazado 1021392" d="M547.95,322.46h3.556v2.772H547.95Z" transform="translate(-439.648 -109.955)" fill="#fcb64d"/>
      <path id="Trazado_1021393" data-name="Trazado 1021393" d="M399.63,238.33h3.556V241.1H399.63Z" transform="translate(-299.215 -30.298)" fill="#fcb64d"/>
      <path id="Trazado_1021394" data-name="Trazado 1021394" d="M498.51,238.33h3.556V241.1H498.51Z" transform="translate(-392.837 -30.298)" fill="#fcb64d"/>
      <path id="Trazado_1021395" data-name="Trazado 1021395" d="M174.827,431.42a.574.574,0,0,0-.475.251l-1.723,2.531a.851.851,0,0,1-.7.372H148.132a.851.851,0,0,1-.755-.459l-.757-1.457a.593.593,0,0,0-.532-.319H142l2.267,7.132a2.3,2.3,0,0,0,1.383,1.453c.349.032.744.053,1.207.053a9.91,9.91,0,0,0,3.3-.491,13.073,13.073,0,0,1,7.574,0,11.359,11.359,0,0,0,6.606,0,13.073,13.073,0,0,1,7.574,0,9.829,9.829,0,0,0,3.143.49,2.292,2.292,0,0,0,1.4-1.17l4.222-8.385Zm-26.193,7.251h-1.6a.851.851,0,0,1,0-1.7h1.6a.851.851,0,0,1,0,1.7Zm4.964,0H152a.851.851,0,0,1,0-1.7h1.6a.851.851,0,0,1,0,1.7Zm4.964,0h-1.6a.851.851,0,0,1,0-1.7h1.6a.851.851,0,0,1,0,1.7Zm4.965,0h-1.6a.851.851,0,0,1,0-1.7h1.6a.851.851,0,0,1,0,1.7Zm4.964,0h-1.6a.851.851,0,0,1,0-1.7h1.6a.851.851,0,0,1,0,1.7Zm4.964,0h-1.6a.851.851,0,0,1,0-1.7h1.6a.851.851,0,0,1,0,1.7Z" transform="translate(-55.285 -213.121)" fill="#ff3d00"/>
      <path id="Trazado_1021396" data-name="Trazado 1021396" d="M156.47,623.324v2.3a11.211,11.211,0,0,0-2.936.539,11.362,11.362,0,0,1-6.607,0,13.073,13.073,0,0,0-7.574,0,11.36,11.36,0,0,1-6.606,0,13.073,13.073,0,0,0-7.574,0,11.362,11.362,0,0,1-6.607,0,11.2,11.2,0,0,0-2.957-.54v-2.3a9.671,9.671,0,0,1,2.473.467,13.061,13.061,0,0,0,7.573,0,11.373,11.373,0,0,1,6.607,0,13.062,13.062,0,0,0,7.574,0,11.373,11.373,0,0,1,6.607,0,11.443,11.443,0,0,0,3.74.56h.047a11.486,11.486,0,0,0,3.787-.561A9.706,9.706,0,0,1,156.47,623.324Z" transform="translate(-30.298 -394.797)" fill="#4fc3f7"/>
      <path id="Trazado_1021397" data-name="Trazado 1021397" d="M156.47,698.6v2.3a11.206,11.206,0,0,0-2.936.539,11.361,11.361,0,0,1-6.607,0,13.075,13.075,0,0,0-7.574,0,11.359,11.359,0,0,1-6.606,0,13.075,13.075,0,0,0-7.574,0,11.361,11.361,0,0,1-6.607,0,11.2,11.2,0,0,0-2.957-.54v-2.3a9.669,9.669,0,0,1,2.473.467,13.062,13.062,0,0,0,7.573,0,11.373,11.373,0,0,1,6.607,0,13.064,13.064,0,0,0,7.574,0,11.373,11.373,0,0,1,6.607,0,13.064,13.064,0,0,0,7.574,0A9.808,9.808,0,0,1,156.47,698.6Z" transform="translate(-30.298 -466.065)" fill="#4fc3f7"/>
      <g id="Grupo_1180389" data-name="Grupo 1180389" transform="translate(84.78 208.563)" opacity="0.5">
        <path id="Trazado_1021398" data-name="Trazado 1021398" d="M290.76,416.59h3.556v2.772H290.76Z" transform="translate(-280.915 -407.643)" fill="#fff"/>
        <path id="Trazado_1021399" data-name="Trazado 1021399" d="M389.63,416.59h3.556v2.772H389.63Z" transform="translate(-374.527 -407.643)" fill="#fff"/>
        <path id="Trazado_1021400" data-name="Trazado 1021400" d="M488.51,416.59h3.556v2.772H488.51Z" transform="translate(-468.149 -407.643)" fill="#fff"/>
        <path id="Trazado_1021401" data-name="Trazado 1021401" d="M587.39,416.59h3.556v2.772H587.39Z" transform="translate(-561.771 -407.643)" fill="#fff"/>
        <path id="Trazado_1021402" data-name="Trazado 1021402" d="M340.2,332.46h3.556v2.772H340.2Z" transform="translate(-327.725 -327.986)" fill="#fff"/>
        <path id="Trazado_1021403" data-name="Trazado 1021403" d="M439.07,332.46h3.556v2.772H439.07Z" transform="translate(-421.338 -327.986)" fill="#fff"/>
        <path id="Trazado_1021404" data-name="Trazado 1021404" d="M537.95,332.46h3.556v2.772H537.95Z" transform="translate(-514.96 -327.986)" fill="#fff"/>
        <path id="Trazado_1021405" data-name="Trazado 1021405" d="M389.63,248.33h3.556V251.1H389.63Z" transform="translate(-374.527 -248.33)" fill="#fff"/>
        <path id="Trazado_1021406" data-name="Trazado 1021406" d="M488.51,248.33h3.556V251.1H488.51Z" transform="translate(-468.149 -248.33)" fill="#fff"/>
        <path id="Trazado_1021407" data-name="Trazado 1021407" d="M164.827,441.42a.574.574,0,0,0-.475.251l-1.723,2.531a.851.851,0,0,1-.7.372H138.132a.851.851,0,0,1-.755-.459l-.757-1.457a.593.593,0,0,0-.532-.319H132l2.267,7.132a2.3,2.3,0,0,0,1.383,1.453c.349.032.744.053,1.207.053a9.912,9.912,0,0,0,3.3-.491,13.073,13.073,0,0,1,7.574,0,11.36,11.36,0,0,0,6.606,0,13.073,13.073,0,0,1,7.574,0,9.829,9.829,0,0,0,3.143.49,2.292,2.292,0,0,0,1.4-1.17l4.222-8.385Zm-26.193,7.251h-1.6a.851.851,0,1,1,0-1.7h1.6a.851.851,0,1,1,0,1.7Zm4.964,0H142a.851.851,0,0,1,0-1.7h1.6a.851.851,0,1,1,0,1.7Zm4.964,0h-1.6a.851.851,0,0,1,0-1.7h1.6a.851.851,0,1,1,0,1.7Zm4.965,0h-1.6a.851.851,0,0,1,0-1.7h1.6a.851.851,0,0,1,0,1.7Zm4.964,0h-1.6a.851.851,0,0,1,0-1.7h1.6a.851.851,0,1,1,0,1.7Zm4.964,0h-1.6a.851.851,0,1,1,0-1.7h1.6a.851.851,0,0,1,0,1.7Z" transform="translate(-130.597 -431.152)" fill="#fff"/>
        <path id="Trazado_1021408" data-name="Trazado 1021408" d="M146.47,633.324v2.3a11.211,11.211,0,0,0-2.936.539,11.361,11.361,0,0,1-6.607,0,13.075,13.075,0,0,0-7.574,0,11.359,11.359,0,0,1-6.606,0,13.075,13.075,0,0,0-7.574,0,11.361,11.361,0,0,1-6.607,0,11.2,11.2,0,0,0-2.957-.54v-2.3a9.674,9.674,0,0,1,2.473.467,13.059,13.059,0,0,0,7.573,0,11.374,11.374,0,0,1,6.607,0,13.061,13.061,0,0,0,7.574,0,11.374,11.374,0,0,1,6.607,0,11.444,11.444,0,0,0,3.74.56h.047a11.486,11.486,0,0,0,3.787-.561A9.7,9.7,0,0,1,146.47,633.324Z" transform="translate(-105.61 -612.829)" fill="#fff"/>
        <path id="Trazado_1021409" data-name="Trazado 1021409" d="M146.47,708.6v2.3a11.209,11.209,0,0,0-2.936.539,11.361,11.361,0,0,1-6.607,0,13.075,13.075,0,0,0-7.574,0,11.359,11.359,0,0,1-6.606,0,13.075,13.075,0,0,0-7.574,0,11.361,11.361,0,0,1-6.607,0,11.2,11.2,0,0,0-2.957-.54v-2.3a9.669,9.669,0,0,1,2.473.467,13.059,13.059,0,0,0,7.573,0,11.373,11.373,0,0,1,6.607,0,13.061,13.061,0,0,0,7.574,0,11.373,11.373,0,0,1,6.607,0,13.061,13.061,0,0,0,7.574,0A9.805,9.805,0,0,1,146.47,708.6Z" transform="translate(-105.61 -684.096)" fill="#fff"/>
      </g>
      <g id="Grupo_1180390" data-name="Grupo 1180390" transform="translate(83.61 206.33)">
        <path id="Trazado_1021410" data-name="Trazado 1021410" d="M149.75,401.348l-4.494,8.924-.042.08a3.988,3.988,0,0,1-2.558,2,.869.869,0,0,1-.206.025.851.851,0,0,1-.188-1.681l.074-.021a2.292,2.292,0,0,0,1.4-1.17l4.222-8.385h-5.849a.574.574,0,0,0-.475.251l-1.725,2.533a.851.851,0,0,1-.7.372H115.412a.851.851,0,0,1-.755-.459l-.757-1.457a.593.593,0,0,0-.532-.319H109.28l2.267,7.132a2.3,2.3,0,0,0,1.383,1.453c.027.01.053.02.082.029a.851.851,0,1,1-.532,1.616,4,4,0,0,1-2.455-2.314c-.036-.089-.068-.179-.1-.271l-2.423-7.618a1.329,1.329,0,0,1,1.267-1.731h4.6a2.29,2.29,0,0,1,2.039,1.241l.517,1h22.827l1.475-2.159a2.274,2.274,0,0,1,1.881-.994h6.456a1.329,1.329,0,0,1,1.187,1.928Z" transform="translate(-106.175 -389.152)" fill="#413b32"/>
        <path id="Trazado_1021411" data-name="Trazado 1021411" d="M274.868,374.59h-5.257a.851.851,0,0,0-.851.851v4.474a.851.851,0,0,0,.851.851h5.257a.851.851,0,0,0,.851-.851v-4.474A.851.851,0,0,0,274.868,374.59Zm-.851,4.474h-3.556v-2.772h3.556Z" transform="translate(-258.915 -365.643)" fill="#413b32"/>
        <path id="Trazado_1021412" data-name="Trazado 1021412" d="M373.739,374.59h-5.258a.851.851,0,0,0-.851.851v4.474a.851.851,0,0,0,.851.851h5.258a.851.851,0,0,0,.851-.851v-4.474A.851.851,0,0,0,373.739,374.59Zm-.851,4.474h-3.556v-2.772h3.556Z" transform="translate(-352.527 -365.643)" fill="#413b32"/>
        <path id="Trazado_1021413" data-name="Trazado 1021413" d="M472.619,374.59h-5.258a.851.851,0,0,0-.851.851v4.474a.851.851,0,0,0,.851.851h5.258a.851.851,0,0,0,.851-.851v-4.474A.851.851,0,0,0,472.619,374.59Zm-.851,4.474h-3.556v-2.772h3.556Z" transform="translate(-446.149 -365.643)" fill="#413b32"/>
        <path id="Trazado_1021414" data-name="Trazado 1021414" d="M571.5,374.59h-5.257a.851.851,0,0,0-.851.851v4.474a.851.851,0,0,0,.851.851H571.5a.851.851,0,0,0,.851-.851v-4.474A.851.851,0,0,0,571.5,374.59Zm-4.407,4.474v-2.772h3.556v2.772Z" transform="translate(-539.771 -365.643)" fill="#413b32"/>
        <path id="Trazado_1021415" data-name="Trazado 1021415" d="M324.308,296.635a.851.851,0,0,1-.851-.851v-.851h-1.778a.851.851,0,0,1,.851.851v.851Zm0,0a.851.851,0,0,1-.851-.851v-.851h-1.778a.851.851,0,0,1,.851.851v.851Zm0-6.175h-5.258a.851.851,0,0,0-.851.851v4.474a.851.851,0,0,0,.851.851h5.258a.851.851,0,0,0,.851-.851v-4.474A.851.851,0,0,0,324.308,290.46Zm-.851,4.474H319.9v-2.772h3.556Zm.851,1.7a.851.851,0,0,1-.851-.851v-.851h-1.778a.851.851,0,0,1,.851.851v.851Z" transform="translate(-305.725 -285.986)" fill="#413b32"/>
        <path id="Trazado_1021416" data-name="Trazado 1021416" d="M423.182,290.46h-5.261a.851.851,0,0,0-.851.851v4.474a.851.851,0,0,0,.851.851h5.261a.851.851,0,0,0,.851-.851v-4.474A.851.851,0,0,0,423.182,290.46Zm-.851,4.474h-3.559v-2.772h3.559Z" transform="translate(-399.338 -285.986)" fill="#413b32"/>
        <path id="Trazado_1021417" data-name="Trazado 1021417" d="M516,292.162v2.772h1.7v-2.772Zm0,0v2.772h1.7v-2.772Zm6.109-1.7h-5.258a.851.851,0,0,0-.851.851v4.474a.851.851,0,0,0,.851.851h5.258a.851.851,0,0,0,.851-.851v-4.474a.851.851,0,0,0-.853-.851Zm-4.407,4.474v-2.772h3.556v2.772Zm-1.7-2.772v2.772h1.7v-2.772Zm0,0v2.772h1.7v-2.772Z" transform="translate(-493.007 -285.986)" fill="#413b32"/>
        <path id="Trazado_1021418" data-name="Trazado 1021418" d="M373.739,206.33h-5.258a.851.851,0,0,0-.851.851v4.474a.851.851,0,0,0,.851.851h5.258a.851.851,0,0,0,.851-.851v-4.474A.851.851,0,0,0,373.739,206.33Zm-4.407,4.474v-2.772h3.556V210.8Z" transform="translate(-352.527 -206.33)" fill="#413b32"/>
        <path id="Trazado_1021419" data-name="Trazado 1021419" d="M472.619,206.33h-5.258a.851.851,0,0,0-.851.851v4.474a.851.851,0,0,0,.851.851h5.258a.851.851,0,0,0,.851-.851v-4.474A.851.851,0,0,0,472.619,206.33Zm-4.407,4.474v-2.772h3.556V210.8Z" transform="translate(-446.149 -206.33)" fill="#413b32"/>
        <path id="Trazado_1021420" data-name="Trazado 1021420" d="M224.047,536.621a.851.851,0,0,1-.851.851h-1.6a.851.851,0,0,1,0-1.7h1.6A.851.851,0,0,1,224.047,536.621Z" transform="translate(-213.457 -518.252)" fill="#413b32"/>
        <path id="Trazado_1021421" data-name="Trazado 1021421" d="M317.407,536.621a.851.851,0,0,1-.851.851h-1.6a.851.851,0,0,1,0-1.7h1.6A.851.851,0,0,1,317.407,536.621Z" transform="translate(-301.853 -518.252)" fill="#413b32"/>
        <path id="Trazado_1021422" data-name="Trazado 1021422" d="M410.767,536.621a.851.851,0,0,1-.851.851h-1.6a.851.851,0,0,1,0-1.7h1.6A.851.851,0,0,1,410.767,536.621Z" transform="translate(-390.249 -518.252)" fill="#413b32"/>
        <path id="Trazado_1021423" data-name="Trazado 1021423" d="M504.137,536.621a.851.851,0,0,1-.851.851h-1.6a.851.851,0,1,1,0-1.7h1.6A.851.851,0,0,1,504.137,536.621Z" transform="translate(-478.654 -518.252)" fill="#413b32"/>
        <path id="Trazado_1021424" data-name="Trazado 1021424" d="M597.5,536.621a.851.851,0,0,1-.851.851h-1.6a.851.851,0,0,1,0-1.7h1.6A.851.851,0,0,1,597.5,536.621Z" transform="translate(-567.049 -518.252)" fill="#413b32"/>
        <path id="Trazado_1021425" data-name="Trazado 1021425" d="M690.857,536.621a.851.851,0,0,1-.851.851h-1.6a.851.851,0,0,1,0-1.7h1.6A.851.851,0,0,1,690.857,536.621Z" transform="translate(-655.444 -518.252)" fill="#413b32"/>
        <path id="Trazado_1021426" data-name="Trazado 1021426" d="M128.057,592.159a.851.851,0,0,1-.851.851c-.312,0-.593.008-.851.024a9.679,9.679,0,0,0-2.452.466,11.488,11.488,0,0,1-3.787.561h-.047a11.442,11.442,0,0,1-3.74-.56,11.373,11.373,0,0,0-6.607,0,13.061,13.061,0,0,1-7.574,0,11.373,11.373,0,0,0-6.607,0,13.059,13.059,0,0,1-7.573,0,9.676,9.676,0,0,0-2.473-.467c-.252-.015-.526-.023-.83-.023h-.021a.851.851,0,1,1,.021-1.7h.083a11.391,11.391,0,0,1,2.893.332c.286.072.549.151.81.228a9.846,9.846,0,0,0,2.1.44c.349.032.744.053,1.207.053a9.911,9.911,0,0,0,3.3-.491,13.073,13.073,0,0,1,7.574,0,11.36,11.36,0,0,0,6.606,0,13.073,13.073,0,0,1,7.574,0,9.828,9.828,0,0,0,3.143.49h.16a9.813,9.813,0,0,0,2.717-.322c.2-.053.392-.111.585-.169a11.427,11.427,0,0,1,3.706-.56h.083a.845.845,0,0,1,.306.057l.026.01.038.017a.7.7,0,0,1,.106.061l.03.021a.848.848,0,0,1,.266.33l.012.026A.847.847,0,0,1,128.057,592.159Z" transform="translate(-83.794 -570.837)" fill="#413b32"/>
        <path id="Trazado_1021427" data-name="Trazado 1021427" d="M127.873,667.451a.851.851,0,0,1-.851.851c-.312,0-.593.008-.851.024a9.679,9.679,0,0,0-2.452.466,13.061,13.061,0,0,1-7.574,0,11.373,11.373,0,0,0-6.607,0,13.059,13.059,0,0,1-7.573,0,11.373,11.373,0,0,0-6.607,0,13.061,13.061,0,0,1-7.574,0,9.676,9.676,0,0,0-2.473-.467c-.252-.015-.526-.023-.83-.023h-.021a.851.851,0,1,1,0-1.7h.021c.3,0,.574.007.83.02a11.2,11.2,0,0,1,2.957.54,11.361,11.361,0,0,0,6.607,0,13.075,13.075,0,0,1,7.574,0,11.359,11.359,0,0,0,6.606,0,13.075,13.075,0,0,1,7.574,0,11.361,11.361,0,0,0,6.607,0,11.211,11.211,0,0,1,2.936-.539c.262-.014.544-.021.851-.021A.851.851,0,0,1,127.873,667.451Z" transform="translate(-83.61 -642.125)" fill="#413b32"/>
        <path id="Trazado_1021428" data-name="Trazado 1021428" d="M128.056,742.745v.044a.851.851,0,0,1-.851.813,9.929,9.929,0,0,0-3.3.49,13.062,13.062,0,0,1-7.574,0,11.373,11.373,0,0,0-6.607,0,13.062,13.062,0,0,1-7.574,0,11.373,11.373,0,0,0-6.607,0,13.061,13.061,0,0,1-7.573,0,9.9,9.9,0,0,0-3.261-.49h-.043a.851.851,0,1,1-.021-1.7h.021c.3,0,.574.007.83.02a11.2,11.2,0,0,1,2.957.54,11.361,11.361,0,0,0,6.607,0,13.073,13.073,0,0,1,7.574,0,11.359,11.359,0,0,0,6.606,0,13.073,13.073,0,0,1,7.574,0,11.361,11.361,0,0,0,6.607,0,11.2,11.2,0,0,1,2.936-.539c.262-.014.544-.021.851-.021A.851.851,0,0,1,128.056,742.745Z" transform="translate(-83.794 -713.421)" fill="#413b32"/>
        <path id="Trazado_1021429" data-name="Trazado 1021429" d="M885.7,592.023v8.184a.851.851,0,1,1-1.7-.044v-8.141a.72.72,0,0,1,.77-.713h.081a.925.925,0,0,1,.271.045l.035.012.026.01.038.017a.707.707,0,0,1,.106.061l.03.021a.862.862,0,0,1,.076.064l.028.028a.9.9,0,0,1,.16.236l.012.026A1.124,1.124,0,0,1,885.7,592.023Z" transform="translate(-841.434 -570.838)" fill="#413b32"/>
        <path id="Trazado_1021430" data-name="Trazado 1021430" d="M85.349,591.992v8.144a.851.851,0,0,1-.788.845.584.584,0,0,1-.061,0,.851.851,0,0,1-.851-.851v-8.141a1.041,1.041,0,0,1,.187-.375l.022-.028a.894.894,0,0,1,.663-.319h.083A.711.711,0,0,1,85.349,591.992Z" transform="translate(-83.648 -570.8)" fill="#413b32"/>
      </g>
    </g>
  </g>
</svg>
