<svg xmlns="http://www.w3.org/2000/svg" xmlns:xlink="http://www.w3.org/1999/xlink" width="160" height="160" viewBox="0 0 160 160">
  <defs>
    <clipPath id="clip-path">
      <rect id="Rectángulo_456277" data-name="Rectángulo 456277" width="160" height="160" transform="translate(0 0)" fill="#d35560"/>
    </clipPath>
  </defs>
  <g id="Grupo_1180085" data-name="Grupo 1180085" transform="translate(-413.059 -9435)">
    <g id="Grupo_1180081" data-name="Grupo 1180081" transform="translate(13849.059 22116)">
      <g id="Grupo_1179924" data-name="Grupo 1179924" transform="translate(-13436 -12681)">
        <g id="Grupo_1179923" data-name="Grupo 1179923" transform="translate(0 0)" clip-path="url(#clip-path)">
          <path id="Trazado_1004716" data-name="Trazado 1004716" d="M79.417,158.835c-2.579,0-4.992-2.947-7.508-3.193-2.562-.251-5.5,2.169-7.985,1.676-2.52-.5-4.311-3.862-6.739-4.6-2.454-.746-5.812,1.049-8.158.074-2.365-.983-3.462-4.631-5.7-5.834s-5.9-.107-8.015-1.525-2.488-5.215-4.457-6.834-5.763-1.247-7.567-3.051-1.428-5.594-3.05-7.567-5.411-2.334-6.834-4.457-.315-5.76-1.524-8.014-4.851-3.338-5.835-5.7c-.975-2.346.82-5.7.074-8.158-.738-2.427-4.1-4.218-4.6-6.738-.493-2.484,1.926-5.423,1.675-7.985C2.947,84.41,0,82,0,79.417s2.947-4.992,3.193-7.508c.251-2.562-2.169-5.5-1.675-7.985.5-2.52,3.862-4.311,4.6-6.738.746-2.455-1.049-5.813-.074-8.159.984-2.365,4.631-3.461,5.835-5.7s.107-5.9,1.525-8.015,5.214-2.488,6.833-4.457,1.247-5.763,3.051-7.567,5.594-1.428,7.567-3.05,2.334-5.411,4.457-6.834,5.76-.315,8.015-1.524,3.337-4.851,5.7-5.835c2.347-.975,5.7.819,8.159.074,2.427-.737,4.217-4.1,6.738-4.6,2.484-.493,5.423,1.926,7.985,1.676C74.425,2.947,76.838,0,79.417,0s4.992,2.947,7.508,3.193c2.562.251,5.5-2.169,7.985-1.676,2.52.5,4.311,3.862,6.739,4.6,2.454.746,5.812-1.049,8.158-.074,2.365.983,3.462,4.631,5.7,5.835s5.9.107,8.015,1.525,2.488,5.214,4.457,6.833,5.763,1.247,7.567,3.051,1.428,5.594,3.05,7.567,5.411,2.334,6.834,4.457.315,5.76,1.524,8.015,4.851,3.338,5.834,5.7c.976,2.346-.819,5.7-.074,8.158.738,2.427,4.1,4.218,4.6,6.738.493,2.484-1.926,5.423-1.676,7.985.246,2.516,3.193,4.929,3.193,7.508s-2.947,4.992-3.193,7.508c-.25,2.562,2.169,5.5,1.676,7.985-.5,2.52-3.862,4.311-4.6,6.739-.746,2.454,1.049,5.812.074,8.158-.984,2.366-4.631,3.462-5.835,5.7s-.107,5.9-1.525,8.015-5.214,2.488-6.833,4.457-1.247,5.762-3.051,7.567-5.594,1.428-7.567,3.051-2.334,5.41-4.457,6.833-5.76.315-8.015,1.524-3.337,4.851-5.7,5.835c-2.346.975-5.7-.819-8.158-.074-2.427.737-4.217,4.1-6.738,4.6-2.484.493-5.423-1.926-7.985-1.676-2.516.246-4.929,3.193-7.508,3.193" transform="translate(0.582 0.582)" fill="#d35560"/>
          <path id="Trazado_1004717" data-name="Trazado 1004717" d="M14,85.9A71.9,71.9,0,1,1,85.9,157.81,71.905,71.905,0,0,1,14,85.9" transform="translate(-5.905 -5.906)" fill="#4d787e"/>
          <path id="Trazado_1004718" data-name="Trazado 1004718" d="M132.52,270.6c-.191-.808-.37-1.643-.541-2.461l-2.512-.32q1.125-.6,2.206-1.2-.239-1.231-.451-2.459c.575.565,1.164,1.146,1.77,1.7q1.058-.658,2.071-1.319-.449,1.161-.927,2.319c.627.538,1.269,1.085,1.925,1.619l-2.525-.189q-.494,1.157-1.016,2.311" transform="translate(-59.412 -121.829)" fill="#ffffc5"/>
          <path id="Trazado_1004719" data-name="Trazado 1004719" d="M113.947,267.161c-.069-.825-.12-1.679-.167-2.513l-2.436-.694q1.2-.423,2.362-.858-.052-1.253-.077-2.5c.484.643.978,1.309,1.494,1.947q1.145-.491,2.244-.992-.617,1.079-1.262,2.153c.539.624,1.09,1.27,1.662,1.886-.826-.172-1.646-.376-2.469-.562q-.662,1.07-1.351,2.132" transform="translate(-51.014 -120.178)" fill="#ffffc5"/>
          <path id="Trazado_1004720" data-name="Trazado 1004720" d="M96.139,261.041c.062-.84.135-1.681.215-2.516l-2.306-1.047c.833-.156,1.657-.325,2.465-.5q.137-1.245.3-2.48c.382.711.775,1.43,1.185,2.152q1.206-.315,2.369-.648-.773.975-1.572,1.94c.439.7.89,1.411,1.36,2.116l-2.357-.927q-.815.959-1.656,1.906" transform="translate(-42.999 -117.353)" fill="#ffffc5"/>
          <path id="Trazado_1004721" data-name="Trazado 1004721" d="M79.507,252.376q.282-1.234.587-2.453c-.706-.462-1.431-.9-2.122-1.382.833-.009,1.686-.073,2.509-.12q.32-1.21.663-2.4.409,1.137.855,2.3c.815-.07,1.639-.182,2.438-.283q-.911.85-1.846,1.686.5,1.135,1.03,2.292l-2.2-1.264c-.633.55-1.278,1.1-1.918,1.63" transform="translate(-35.55 -113.421)" fill="#ffffc5"/>
          <path id="Trazado_1004722" data-name="Trazado 1004722" d="M64.411,241.389q.46-1.177.942-2.336c-.632-.56-1.293-1.087-1.892-1.684.819.122,1.668.188,2.494.258q.494-1.148,1.009-2.277.24,1.181.512,2.392c.8.068,1.643.069,2.449.087q-1.028.707-2.078,1.4.324,1.192.685,2.411l-1.991-1.566c-.712.457-1.413.884-2.13,1.318" transform="translate(-28.825 -108.478)" fill="#ffffc5"/>
          <path id="Trazado_1004723" data-name="Trazado 1004723" d="M51.17,228.334q.627-1.095,1.273-2.168l-.829-.957c-.275-.32-.526-.66-.789-.99l1.2.337,1.223.29q.657-1.061,1.331-2.1.067,1.2.162,2.434l1.193.249,1.211.2q-1.123.549-2.265,1.077.149,1.223.329,2.478c-.58-.613-1.172-1.216-1.741-1.839q-1.14.5-2.3.986" transform="translate(-22.969 -102.638)" fill="#ffffc5"/>
          <path id="Trazado_1004724" data-name="Trazado 1004724" d="M39.841,213.5q.781-.988,1.577-1.954c-.225-.357-.463-.707-.678-1.07l-.632-1.1c.771.343,1.508.688,2.3.983.539-.635,1.072-1.256,1.631-1.881-.084.8-.14,1.606-.2,2.429.769.287,1.517.569,2.306.807-.795.251-1.6.5-2.4.73-.024.822-.031,1.651-.034,2.5-.48-.694-1-1.361-1.447-2.078q-1.2.33-2.422.636" transform="translate(-17.88 -96.026)" fill="#ffffc5"/>
          <path id="Trazado_1004725" data-name="Trazado 1004725" d="M30.615,197.195q.918-.86,1.848-1.7c-.365-.762-.654-1.557-.968-2.34.714.452,1.394.9,2.121,1.317.62-.544,1.258-1.086,1.9-1.62-.225.79-.379,1.567-.563,2.373.727.394,1.413.79,2.154,1.143-.828.132-1.654.253-2.473.36-.17.82-.279,1.628-.411,2.464-.381-.753-.787-1.494-1.119-2.271q-1.24.147-2.493.269" transform="translate(-13.604 -88.787)" fill="#ffffc5"/>
          <path id="Trazado_1004726" data-name="Trazado 1004726" d="M24.019,179.524q1.036-.712,2.079-1.4c-.251-.807-.4-1.64-.6-2.459.636.555,1.252,1.1,1.9,1.622.693-.444,1.419-.888,2.13-1.317-.347.749-.616,1.494-.915,2.262.657.5,1.291.99,1.954,1.455-.842.008-1.658,0-2.491-.017-.3.789-.524,1.57-.778,2.376-.276-.8-.548-1.6-.764-2.415q-1.25-.04-2.508-.107" transform="translate(-10.548 -80.821)" fill="#ffffc5"/>
          <path id="Trazado_1004727" data-name="Trazado 1004727" d="M20.215,160.883q1.131-.549,2.265-1.071c-.127-.835-.152-1.681-.228-2.522.546.644,1.071,1.276,1.631,1.888.751-.335,1.535-.665,2.3-.984-.457.689-.831,1.385-1.244,2.1.574.592,1.131,1.171,1.712,1.732-.832-.119-1.637-.252-2.459-.392-.417.735-.757,1.474-1.127,2.232l-.223-1.247c-.07-.416-.111-.837-.168-1.255q-1.23-.228-2.463-.482" transform="translate(-8.785 -72.306)" fill="#ffffc5"/>
          <path id="Trazado_1004728" data-name="Trazado 1004728" d="M19.269,141.961q1.2-.375,2.4-.723c0-.845.078-1.686.143-2.528.449.718.852,1.419,1.34,2.109.8-.221,1.6-.432,2.413-.633-.535.615-1.021,1.248-1.535,1.894.482.671.929,1.327,1.44,1.968q-1.207-.362-2.381-.752c-.515.665-.958,1.345-1.441,2.039-.019-.844-.058-1.688-.019-2.532q-1.181-.406-2.362-.841" transform="translate(-8.347 -63.696)" fill="#ffffc5"/>
          <path id="Trazado_1004729" data-name="Trazado 1004729" d="M21.174,123.171q1.244-.192,2.484-.357c.078-.415.14-.833.232-1.245l.285-1.234c.332.776.633,1.53,1.013,2.285.829-.1,1.638-.189,2.476-.266-.611.53-1.194,1.081-1.8,1.643.376.735.715,1.448,1.137,2.159-.751-.357-1.518-.725-2.251-1.1-.589.584-1.147,1.188-1.724,1.8.118-.836.186-1.679.354-2.507q-1.106-.578-2.208-1.184" transform="translate(-9.23 -55.18)" fill="#ffffc5"/>
          <path id="Trazado_1004730" data-name="Trazado 1004730" d="M25.928,104.933q1.259,0,2.509.019c.255-.805.574-1.587.885-2.372.216.819.394,1.608.656,2.411.83.027,1.652.06,2.492.111-.692.429-1.345.888-2.027,1.353.263.783.489,1.539.8,2.305-.691-.466-1.389-.944-2.059-1.424-.674.488-1.313,1-1.977,1.524.24-.81.438-1.632.728-2.426q-1.008-.737-2.006-1.5" transform="translate(-11.433 -46.953)" fill="#ffffc5"/>
          <path id="Trazado_1004731" data-name="Trazado 1004731" d="M33.429,87.667q1.244.184,2.475.394c.369-.76.819-1.476,1.233-2.212.089.84.165,1.658.284,2.48.81.148,1.639.316,2.455.487-.765.312-1.465.676-2.211,1.032.142.814.265,1.6.441,2.4-.62-.568-1.22-1.136-1.815-1.712-.755.373-1.449.793-2.187,1.208.348-.769.685-1.544,1.086-2.288q-.887-.881-1.761-1.787" transform="translate(-14.908 -39.2)" fill="#ffffc5"/>
          <path id="Trazado_1004732" data-name="Trazado 1004732" d="M43.489,71.756q1.2.367,2.386.756c.491-.687,1.035-1.334,1.55-2q-.058,1.264-.089,2.494,1.19.415,2.362.851c-.8.2-1.568.437-2.345.689q.025,1.236.075,2.435-.775-.969-1.531-1.958c-.8.257-1.566.558-2.347.866l.684-1.066.733-1.032q-.747-1-1.478-2.031" transform="translate(-19.57 -32.092)" fill="#ffffc5"/>
          <path id="Trazado_1004733" data-name="Trazado 1004733" d="M55.389,57.539q1.133.538,2.245,1.1l1.831-1.749q-.241,1.246-.449,2.462,1.114.584,2.208,1.187c-.808.089-1.629.187-2.425.331q-.155,1.229-.28,2.426-.623-1.073-1.227-2.165l-1.236.229c-.409.084-.809.181-1.218.275.54-.649,1.133-1.251,1.715-1.863q-.592-1.105-1.165-2.23" transform="translate(-24.83 -25.78)" fill="#ffffc5"/>
          <path id="Trazado_1004734" data-name="Trazado 1004734" d="M69.287,45.321c.692.465,1.377.936,2.065,1.426l2.064-1.469q-.419,1.2-.8,2.378,1.013.741,2.005,1.5c-.8-.019-1.644-.062-2.452-.037q-.332,1.2-.628,2.366-.459-1.154-.9-2.326c-.824.034-1.684.048-2.506.131.63-.563,1.318-1.055,1.974-1.586q-.423-1.182-.825-2.381" transform="translate(-30.992 -20.4)" fill="#ffffc5"/>
          <path id="Trazado_1004735" data-name="Trazado 1004735" d="M84.936,34.886c.615.562,1.233,1.148,1.836,1.728l2.254-1.156q-.591,1.13-1.142,2.24.892.881,1.758,1.775c-.793-.141-1.606-.287-2.421-.406q-.5,1.139-.967,2.256-.283-1.211-.543-2.436c-.82-.089-1.663-.187-2.5-.247.721-.439,1.461-.847,2.19-1.273q-.245-1.233-.464-2.481" transform="translate(-37.977 -15.584)" fill="#ffffc5"/>
          <path id="Trazado_1004736" data-name="Trazado 1004736" d="M102.006,26.946q.792.988,1.558,1.987c.8-.268,1.6-.55,2.4-.805-.507.673-.991,1.367-1.465,2.043q.749,1,1.471,2.016-1.145-.389-2.333-.764c-.448.693-.875,1.4-1.292,2.088q-.1-1.241-.173-2.493-1.2-.318-2.437-.62l2.356-.931c-.038-.836-.07-1.685-.086-2.52" transform="translate(-45.635 -11.905)" fill="#ffffc5"/>
          <path id="Trazado_1004737" data-name="Trazado 1004737" d="M120.118,21.733q.634,1.1,1.241,2.2c.832-.144,1.661-.308,2.5-.436-.6.585-1.185,1.2-1.756,1.8q.59,1.1,1.152,2.214-1.073-.555-2.191-1.1c-.549.608-1.075,1.251-1.591,1.868q.087-1.243.2-2.492-1.135-.493-2.315-.976l2.468-.571c.089-.832.184-1.68.294-2.5" transform="translate(-53.8 -9.489)" fill="#ffffc5"/>
          <path id="Trazado_1004738" data-name="Trazado 1004738" d="M138.852,19.35q.464,1.18.9,2.359l2.532-.063q-1.024.761-2,1.523.419,1.182.81,2.363-.98-.711-2-1.423c-.633.53-1.251,1.078-1.853,1.613q.273-1.215.574-2.433-1.05-.659-2.143-1.314l2.525-.192c.212-.81.433-1.631.664-2.434" transform="translate(-62.283 -8.385)" fill="#ffffc5"/>
          <path id="Trazado_1004739" data-name="Trazado 1004739" d="M157.783,19.831c.191.808.37,1.643.541,2.461l2.512.32q-1.125.6-2.206,1.2.239,1.231.45,2.459c-.575-.565-1.163-1.146-1.77-1.7q-1.058.658-2.071,1.319.449-1.161.926-2.319c-.627-.538-1.268-1.086-1.925-1.619l2.526.189q.494-1.157,1.016-2.311" transform="translate(-70.892 -8.608)" fill="#ffffc5"/>
          <path id="Trazado_1004740" data-name="Trazado 1004740" d="M176.5,23.17c.069.825.12,1.679.167,2.513l2.436.694q-1.2.423-2.362.858.052,1.253.077,2.5c-.484-.643-.978-1.309-1.494-1.947q-1.145.491-2.244.992.617-1.079,1.262-2.153c-.539-.624-1.09-1.27-1.662-1.886.826.171,1.646.375,2.469.561q.662-1.07,1.351-2.132" transform="translate(-79.439 -10.155)" fill="#ffffc5"/>
          <path id="Trazado_1004741" data-name="Trazado 1004741" d="M194.4,29.313c-.062.84-.135,1.681-.215,2.516l2.306,1.047c-.833.156-1.657.326-2.465.5q-.137,1.245-.3,2.48c-.382-.71-.775-1.43-1.185-2.152q-1.206.316-2.369.648.773-.976,1.572-1.94c-.439-.7-.89-1.411-1.359-2.116l2.357.927q.815-.959,1.657-1.906" transform="translate(-87.545 -13.002)" fill="#ffffc5"/>
          <path id="Trazado_1004742" data-name="Trazado 1004742" d="M210.909,38.133q-.282,1.234-.587,2.453c.706.462,1.431.9,2.122,1.382-.833.009-1.686.073-2.509.12q-.32,1.21-.663,2.4-.409-1.136-.855-2.3c-.815.07-1.639.182-2.438.283q.911-.85,1.846-1.686-.5-1.135-1.03-2.292l2.2,1.264c.633-.55,1.278-1.1,1.918-1.63" transform="translate(-94.868 -17.089)" fill="#ffffc5"/>
          <path id="Trazado_1004743" data-name="Trazado 1004743" d="M226.005,49.183q-.46,1.177-.942,2.336c.632.56,1.293,1.087,1.892,1.684-.819-.122-1.668-.188-2.494-.258q-.494,1.148-1.009,2.277-.24-1.181-.512-2.392c-.8-.068-1.643-.069-2.449-.087q1.029-.707,2.079-1.4-.324-1.192-.685-2.411l1.991,1.565c.712-.457,1.412-.884,2.13-1.318" transform="translate(-101.592 -22.095)" fill="#ffffc5"/>
          <path id="Trazado_1004744" data-name="Trazado 1004744" d="M239.371,62.1q-.627,1.095-1.273,2.168l.829.957c.275.32.525.66.79.99l-1.2-.337-1.223-.29q-.657,1.061-1.331,2.1-.067-1.2-.162-2.434l-1.193-.25-1.211-.2q1.123-.549,2.265-1.077-.149-1.223-.329-2.478c.58.613,1.172,1.216,1.741,1.839q1.14-.5,2.3-.986" transform="translate(-107.572 -27.801)" fill="#ffffc5"/>
          <path id="Trazado_1004745" data-name="Trazado 1004745" d="M250.714,76.925q-.781.988-1.577,1.954c.225.357.462.707.677,1.07l.632,1.1c-.771-.343-1.508-.688-2.3-.983-.539.635-1.072,1.256-1.631,1.881.084-.8.14-1.606.2-2.429-.77-.287-1.517-.569-2.306-.807.795-.251,1.6-.5,2.4-.731.024-.822.032-1.651.034-2.495.48.694,1,1.361,1.447,2.078q1.2-.33,2.422-.636" transform="translate(-112.676 -34.397)" fill="#ffffc5"/>
          <path id="Trazado_1004746" data-name="Trazado 1004746" d="M259.775,93.331q-.918.86-1.848,1.7c.365.762.654,1.557.968,2.34-.714-.452-1.394-.9-2.121-1.317-.62.544-1.258,1.086-1.9,1.62.225-.79.379-1.567.563-2.373-.727-.394-1.413-.79-2.155-1.143.828-.132,1.654-.253,2.473-.36.17-.82.278-1.628.41-2.464.381.753.787,1.495,1.119,2.272q1.24-.147,2.493-.269" transform="translate(-116.786 -41.739)" fill="#ffffc5"/>
          <path id="Trazado_1004747" data-name="Trazado 1004747" d="M266.333,110.967q-1.036.713-2.079,1.4c.251.807.4,1.64.6,2.459-.636-.555-1.252-1.1-1.9-1.622-.693.444-1.419.888-2.131,1.317.348-.749.617-1.493.916-2.262-.657-.5-1.291-.99-1.954-1.455.842-.008,1.658,0,2.491.017.3-.789.524-1.57.778-2.376.276.8.548,1.6.764,2.415q1.25.04,2.508.107" transform="translate(-119.804 -49.671)" fill="#ffffc5"/>
          <path id="Trazado_1004748" data-name="Trazado 1004748" d="M270.223,129.439q-1.131.549-2.265,1.071c.127.835.152,1.681.228,2.522-.546-.644-1.071-1.275-1.631-1.888-.751.335-1.535.665-2.3.984.457-.689.831-1.385,1.244-2.1-.574-.592-1.131-1.171-1.712-1.732.832.119,1.637.252,2.459.391.417-.735.757-1.473,1.127-2.231l.223,1.247c.07.416.112.837.169,1.255q1.23.228,2.463.482" transform="translate(-121.653 -58.017)" fill="#ffffc5"/>
          <path id="Trazado_1004749" data-name="Trazado 1004749" d="M271.292,148.318q-1.2.375-2.4.723c0,.845-.078,1.686-.143,2.528-.449-.718-.852-1.419-1.34-2.109-.8.221-1.6.432-2.413.633.535-.615,1.021-1.248,1.535-1.894-.482-.671-.929-1.327-1.44-1.968q1.207.362,2.381.752c.515-.665.958-1.345,1.441-2.039.019.844.058,1.688.019,2.532q1.181.407,2.362.841" transform="translate(-122.215 -66.585)" fill="#ffffc5"/>
          <path id="Trazado_1004750" data-name="Trazado 1004750" d="M269.22,167.193q-1.245.192-2.485.357c-.078.415-.14.833-.232,1.245l-.285,1.234c-.332-.776-.633-1.53-1.013-2.285-.829.1-1.638.189-2.476.266.611-.53,1.2-1.081,1.8-1.643-.376-.735-.715-1.448-1.137-2.159.751.357,1.518.725,2.251,1.1.589-.584,1.147-1.188,1.724-1.8-.118.836-.186,1.679-.354,2.508q1.106.577,2.209,1.183" transform="translate(-121.165 -75.184)" fill="#ffffc5"/>
          <path id="Trazado_1004751" data-name="Trazado 1004751" d="M264.421,185.643q-1.259,0-2.509-.019c-.255.805-.574,1.587-.885,2.372-.216-.819-.394-1.608-.656-2.411-.83-.027-1.652-.06-2.492-.111.692-.429,1.345-.888,2.027-1.353-.263-.783-.489-1.539-.8-2.3.691.466,1.389.944,2.059,1.423.674-.488,1.313-1,1.977-1.524-.24.809-.438,1.631-.728,2.425q1.008.737,2.006,1.5" transform="translate(-118.918 -83.625)" fill="#ffffc5"/>
          <path id="Trazado_1004752" data-name="Trazado 1004752" d="M257,202.809q-1.244-.184-2.475-.394c-.369.76-.819,1.476-1.233,2.212-.089-.84-.165-1.658-.284-2.48-.81-.148-1.639-.316-2.455-.487.765-.312,1.465-.676,2.211-1.032-.142-.814-.264-1.6-.441-2.4.62.568,1.22,1.136,1.815,1.712.755-.373,1.449-.793,2.187-1.208-.348.769-.685,1.544-1.086,2.288q.886.881,1.761,1.787" transform="translate(-115.524 -91.277)" fill="#ffffc5"/>
          <path id="Trazado_1004753" data-name="Trazado 1004753" d="M247.148,218.659q-1.2-.366-2.386-.756c-.491.687-1.035,1.334-1.55,2q.058-1.264.089-2.494-1.19-.414-2.362-.851c.8-.2,1.568-.437,2.345-.689q-.025-1.236-.075-2.435.775.969,1.531,1.958c.8-.257,1.566-.558,2.347-.866L246.4,215.6l-.733,1.032q.747,1,1.478,2.031" transform="translate(-111.067 -98.324)" fill="#ffffc5"/>
          <path id="Trazado_1004754" data-name="Trazado 1004754" d="M235.1,232.93q-1.133-.539-2.245-1.1l-1.831,1.749q.241-1.246.449-2.462-1.114-.584-2.208-1.187c.808-.089,1.629-.187,2.425-.331q.155-1.229.28-2.426.623,1.072,1.227,2.165l1.236-.229c.409-.084.809-.181,1.218-.275-.54.649-1.133,1.251-1.715,1.863q.592,1.105,1.165,2.23" transform="translate(-105.656 -104.691)" fill="#ffffc5"/>
          <path id="Trazado_1004755" data-name="Trazado 1004755" d="M221.115,245.321c-.692-.465-1.377-.936-2.065-1.426l-2.063,1.469q.419-1.2.8-2.378-1.013-.741-2.005-1.5c.8.019,1.644.062,2.452.037q.332-1.2.628-2.366.459,1.154.9,2.326c.824-.034,1.683-.048,2.505-.132-.629.563-1.318,1.055-1.974,1.586q.423,1.182.825,2.381" transform="translate(-99.411 -110.243)" fill="#ffffc5"/>
          <path id="Trazado_1004756" data-name="Trazado 1004756" d="M205.509,255.555c-.615-.562-1.233-1.148-1.836-1.727l-2.254,1.156q.591-1.13,1.142-2.24-.892-.882-1.758-1.776c.793.141,1.606.287,2.421.406q.5-1.138.967-2.256.283,1.212.543,2.437c.82.088,1.663.187,2.5.246-.721.439-1.46.848-2.19,1.273q.245,1.232.464,2.48" transform="translate(-92.469 -114.858)" fill="#ffffc5"/>
          <path id="Trazado_1004757" data-name="Trazado 1004757" d="M188.609,263.386q-.792-.988-1.558-1.987c-.8.268-1.6.55-2.4.805.507-.673.991-1.367,1.465-2.043q-.749-1-1.471-2.016,1.145.389,2.333.764c.448-.693.875-1.4,1.292-2.088q.1,1.241.173,2.493,1.2.318,2.437.62l-2.356.931c.038.836.07,1.685.086,2.52" transform="translate(-84.98 -118.428)" fill="#ffffc5"/>
          <path id="Trazado_1004758" data-name="Trazado 1004758" d="M170.269,268.62q-.634-1.1-1.241-2.2c-.832.144-1.661.308-2.5.436.6-.585,1.185-1.2,1.756-1.8q-.59-1.1-1.152-2.214,1.073.555,2.191,1.1c.549-.608,1.075-1.251,1.592-1.869q-.088,1.243-.2,2.492,1.135.493,2.315.976l-2.468.571c-.089.832-.184,1.68-.294,2.5" transform="translate(-76.588 -120.865)" fill="#ffffc5"/>
          <path id="Trazado_1004759" data-name="Trazado 1004759" d="M151.431,271.148q-.464-1.179-.9-2.359l-2.532.064q1.024-.761,2-1.523-.419-1.181-.81-2.362.98.711,2,1.422c.633-.53,1.251-1.077,1.853-1.613q-.273,1.215-.574,2.433,1.05.658,2.143,1.313l-2.525.193c-.212.81-.433,1.631-.664,2.433" transform="translate(-68 -122.114)" fill="#ffffc5"/>
          <path id="Trazado_1004760" data-name="Trazado 1004760" d="M95.741,156.256a60.516,60.516,0,1,1,60.516-60.516,60.584,60.584,0,0,1-60.516,60.516" transform="translate(-15.741 -15.741)" fill="#d35560"/>
        </g>
      </g>
      <g id="Grupo_1180053" data-name="Grupo 1180053" transform="translate(-13393.817 -12639.272)">
        <rect id="Rectángulo_401104" data-name="Rectángulo 401104" width="75.635" height="76.546" transform="translate(0)" fill="#d35560"/>
      </g>
    </g>
    <g id="filled_outline" data-name="filled outline" transform="translate(388.305 9465.244)">
      <path id="Trazado_1022161" data-name="Trazado 1022161" d="M88,24h47.258V89.261H88Z" transform="translate(-6.875 -6.875)" fill="#eae9e4"/>
      <path id="Trazado_1022162" data-name="Trazado 1022162" d="M216,72h11.252V83.252H216Z" transform="translate(-116.872 -48.124)" fill="#ea9d2d"/>
      <path id="Trazado_1022163" data-name="Trazado 1022163" d="M128.383,16H81.125A1.125,1.125,0,0,0,80,17.125V82.386a1.125,1.125,0,0,0,1.125,1.125h47.258a1.125,1.125,0,0,0,1.125-1.125V17.125A1.125,1.125,0,0,0,128.383,16Zm-1.125,65.261H82.25V18.25h45.007Z"/>
      <path id="Trazado_1022164" data-name="Trazado 1022164" d="M209.125,77.5h11.252a1.125,1.125,0,0,0,1.125-1.125V65.125A1.125,1.125,0,0,0,220.377,64H209.125A1.125,1.125,0,0,0,208,65.125V76.377A1.125,1.125,0,0,0,209.125,77.5ZM210.25,66.25h3.376v1.125a1.125,1.125,0,1,0,2.25,0V66.25h3.376v9h-9Z" transform="translate(-109.997 -41.249)"/>
      <path id="Trazado_1022165" data-name="Trazado 1022165" d="M129.125,200.754h33.756a1.125,1.125,0,0,0,1.125-1.125v-22.5A1.125,1.125,0,0,0,162.881,176H129.125A1.125,1.125,0,0,0,128,177.125v22.5A1.125,1.125,0,0,0,129.125,200.754Zm1.125-18h9V198.5h-9Zm31.505,6.751H155v-2.25h6.751Zm-9,0H141.5v-2.25h11.252Zm-11.252,2.25h11.252V194H141.5Zm13.5,0h6.751V194H155ZM161.756,185H155v-2.25h6.751Zm-9,0H141.5v-2.25h11.252ZM141.5,180.5v-2.25h11.252v2.25Zm0,15.753h11.252v2.25H141.5Zm20.253,2.25H155v-2.25h6.751Zm0-18H155v-2.25h6.751Zm-31.505-2.25h9v2.25h-9Z" transform="translate(-41.249 -137.496)"/>
      <path id="Trazado_1022166" data-name="Trazado 1022166" d="M286.627,432h-13.5a1.125,1.125,0,1,0,0,2.25h13.5a1.125,1.125,0,0,0,0-2.25Z" transform="translate(-164.995 -357.49)"/>
      <path id="Trazado_1022167" data-name="Trazado 1022167" d="M138.127,432h-9a1.125,1.125,0,1,0,0,2.25h9a1.125,1.125,0,0,0,0-2.25Z" transform="translate(-41.249 -357.49)"/>
      <path id="Trazado_1022168" data-name="Trazado 1022168" d="M288.017,369.617A2.91,2.91,0,0,0,285.4,368a2.94,2.94,0,0,0-2.34,1.17l-2.835,3.781a1.125,1.125,0,1,0,1.8,1.35l2.836-3.781a.675.675,0,0,1,1.08.81,2.138,2.138,0,0,0,1.71,3.42,6.105,6.105,0,0,0,4.861-2.43l1.89-2.52a1.125,1.125,0,0,0-1.8-1.35l-1.89,2.52a3.846,3.846,0,0,1-2.841,1.524A2.908,2.908,0,0,0,288.017,369.617Z" transform="translate(-171.87 -302.491)"/>
      <path id="Trazado_1022169" data-name="Trazado 1022169" d="M129.125,381.626a1.122,1.122,0,0,0,.8-.33l2.91-2.909a.466.466,0,1,1,.659.659l-.659.659a1.125,1.125,0,0,0,.8,1.921h4.5a1.125,1.125,0,1,0,0-2.25H135.8a2.718,2.718,0,0,0-4.558-2.58l-2.909,2.91a1.125,1.125,0,0,0,.8,1.921Z" transform="translate(-41.248 -309.367)"/>
      <path id="Trazado_1022170" data-name="Trazado 1022170" d="M237.626,112h-4.5a1.125,1.125,0,1,0,0,2.25h4.5a1.125,1.125,0,1,0,0-2.25Z" transform="translate(-130.621 -82.498)"/>
    </g>
  </g>
</svg>
