<svg xmlns="http://www.w3.org/2000/svg" xmlns:xlink="http://www.w3.org/1999/xlink" width="98" height="98" viewBox="0 0 98 98">
  <defs>
    <clipPath id="clip-path">
      <rect id="Rectángulo_456277" data-name="Rectángulo 456277" width="98" height="98" transform="translate(0.31 0.309)" fill="#d35560"/>
    </clipPath>
  </defs>
  <g id="Grupo_1180342" data-name="Grupo 1180342" transform="translate(13435.691 12680.69)">
    <g id="Grupo_1179924" data-name="Grupo 1179924" transform="translate(-13436.001 -12681)">
      <g id="Grupo_1179923" data-name="Grupo 1179923" transform="translate(0 0)" clip-path="url(#clip-path)">
        <path id="Trazado_1004716" data-name="Trazado 1004716" d="M48.95,97.9c-1.59,0-3.077-1.816-4.627-1.968-1.579-.154-3.391,1.337-4.922,1.033-1.554-.309-2.657-2.381-4.153-2.835-1.513-.46-3.582.647-5.028.045s-2.134-2.855-3.515-3.6-3.636-.066-4.94-.94-1.533-3.214-2.747-4.212-3.552-.768-4.664-1.88-.88-3.448-1.88-4.664-3.335-1.438-4.212-2.747-.194-3.55-.94-4.94-2.99-2.057-3.6-3.515.505-3.515.046-5.028c-.455-1.5-2.527-2.6-2.835-4.153-.3-1.531,1.187-3.343,1.033-4.921C1.816,52.028,0,50.54,0,48.95s1.816-3.077,1.968-4.627C2.122,42.744.631,40.932.935,39.4c.308-1.554,2.38-2.657,2.835-4.153.46-1.513-.646-3.583-.045-5.029s2.855-2.133,3.6-3.515.066-3.636.94-4.94,3.214-1.533,4.212-2.747.768-3.552,1.881-4.664,3.448-.88,4.664-1.88,1.438-3.335,2.747-4.212,3.55-.194,4.94-.94,2.057-2.99,3.515-3.6,3.515.505,5.029.045c1.5-.454,2.6-2.527,4.153-2.835,1.531-.3,3.343,1.187,4.921,1.033C45.873,1.816,47.36,0,48.95,0s3.077,1.816,4.627,1.968C55.157,2.122,56.969.631,58.5.935c1.554.309,2.657,2.381,4.154,2.835,1.513.46,3.582-.647,5.028-.045s2.134,2.855,3.515,3.6,3.636.066,4.94.94,1.533,3.214,2.747,4.212,3.552.768,4.664,1.881.88,3.448,1.88,4.664,3.335,1.438,4.212,2.747.194,3.55.94,4.94,2.99,2.057,3.6,3.515-.505,3.515-.045,5.028c.455,1.5,2.527,2.6,2.835,4.153.3,1.531-1.187,3.343-1.033,4.922.152,1.551,1.968,3.038,1.968,4.627s-1.816,3.077-1.968,4.628c-.154,1.579,1.337,3.39,1.033,4.921-.308,1.554-2.38,2.657-2.835,4.154-.46,1.513.646,3.582.045,5.028s-2.855,2.134-3.6,3.515-.066,3.636-.94,4.94-3.214,1.533-4.212,2.747-.768,3.552-1.881,4.664-3.448.88-4.664,1.88-1.438,3.335-2.747,4.212-3.55.194-4.94.94-2.057,2.99-3.515,3.6-3.515-.505-5.028-.045c-1.5.454-2.6,2.527-4.153,2.835-1.531.3-3.343-1.187-4.921-1.033-1.551.151-3.038,1.968-4.628,1.968" transform="translate(0.359 0.359)" fill="#d35560"/>
        <path id="Trazado_1004717" data-name="Trazado 1004717" d="M14,58.32a44.32,44.32,0,1,1,44.32,44.32A44.32,44.32,0,0,1,14,58.32" transform="translate(-9.01 -9.011)" fill="#a2cbcf"/>
        <path id="Trazado_1021102" data-name="Trazado 1021102" d="M14,55.014A41.014,41.014,0,1,1,55.014,96.029,41.015,41.015,0,0,1,14,55.014" transform="translate(-5.706 -5.705)" fill="#952d36"/>
      </g>
    </g>
    <g id="Grupo_1180053" data-name="Grupo 1180053" transform="translate(-13413.503 -12658.826)">
      <rect id="Rectángulo_401104" data-name="Rectángulo 401104" width="53.625" height="54.271" transform="translate(0 0)" fill="none"/>
    </g>
    <g id="Grupo_1180498" data-name="Grupo 1180498" transform="translate(-13431.978 -12655.777)">
      <g id="Grupo_1180488" data-name="Grupo 1180488" transform="translate(56.164 29.582)">
        <path id="Trazado_1022130" data-name="Trazado 1022130" d="M372.009,317.721l4.52-3.32H371.6Z" transform="translate(-371.605 -314.401)" fill="#fff"/>
      </g>
      <g id="Grupo_1180497" data-name="Grupo 1180497" transform="translate(23.401 0)">
        <path id="Trazado_1022138" data-name="Trazado 1022138" d="M236.219,170.765a.705.705,0,0,0,.705-.705v-4.586a.705.705,0,0,0-1.41,0v4.586A.705.705,0,0,0,236.219,170.765Z" transform="translate(-215.556 -149.266)" fill="#fff"/>
        <path id="Trazado_1022139" data-name="Trazado 1022139" d="M235.132,244.9a.818.818,0,1,0,.818.818A.818.818,0,0,0,235.132,244.9Z" transform="translate(-214.469 -221.856)" fill="#fff"/>
        <path id="Trazado_1022140" data-name="Trazado 1022140" d="M159.065,127.109a1.558,1.558,0,0,0,0-1.574l-8.128-14.078a1.574,1.574,0,0,0-2.727,0l-8.128,14.078a1.574,1.574,0,0,0,1.363,2.361H157.7A1.558,1.558,0,0,0,159.065,127.109ZM141.3,126.4a.156.156,0,0,1,0-.164l8.128-14.078a.164.164,0,0,1,.284,0l8.128,14.078a.164.164,0,0,1-.142.246H141.446A.156.156,0,0,1,141.3,126.4Z" transform="translate(-128.91 -100.257)" fill="#fff"/>
        <path id="Trazado_1022141" data-name="Trazado 1022141" d="M140.127,33.987h11.122a.705.705,0,0,0,0-1.41H140.127a.705.705,0,1,0,0,1.41Z" transform="translate(-128.505 -29.512)" fill="#fff"/>
        <path id="Trazado_1022142" data-name="Trazado 1022142" d="M140.127,65.972h11.122a.705.705,0,0,0,0-1.41H140.127a.705.705,0,1,0,0,1.41Z" transform="translate(-128.505 -58.487)" fill="#fff"/>
        <path id="Trazado_1022143" data-name="Trazado 1022143" d="M140.127,97.958h3.715a.705.705,0,1,0,0-1.41h-3.715a.705.705,0,1,0,0,1.41Z" transform="translate(-128.505 -87.464)" fill="#fff"/>
        <path id="Trazado_1022144" data-name="Trazado 1022144" d="M140.127,129.943h3.715a.705.705,0,0,0,0-1.41h-3.715a.705.705,0,0,0,0,1.41Z" transform="translate(-128.505 -116.439)" fill="#fff"/>
        <path id="Trazado_1022145" data-name="Trazado 1022145" d="M291.593,33.987h3.694a.705.705,0,1,0,0-1.41h-3.694a.705.705,0,0,0,0,1.41Z" transform="translate(-265.72 -29.512)" fill="#fff"/>
        <path id="Trazado_1022146" data-name="Trazado 1022146" d="M291.593,97.958h3.694a.705.705,0,1,0,0-1.41h-3.694a.705.705,0,0,0,0,1.41Z" transform="translate(-265.72 -87.464)" fill="#fff"/>
        <path id="Trazado_1022147" data-name="Trazado 1022147" d="M67.172,28.344a2.117,2.117,0,0,0-1.1-1.853l-8.61-5.95V1.645A1.647,1.647,0,0,0,55.82,0H32.308a1.647,1.647,0,0,0-1.645,1.645V22.23L24.5,26.491a2.117,2.117,0,0,0-1.1,1.854V46.059a2.118,2.118,0,0,0,2.116,2.116H49.05a.705.705,0,1,0,0-1.41H31.493l13.607-9.4a.331.331,0,0,1,.374,0l13.607,9.4H52.435a.705.705,0,0,0,0,1.41H65.056a2.118,2.118,0,0,0,2.116-2.116Zm-3.957-2.116H60.244a.705.705,0,1,0,0,1.41h4.813a.715.715,0,0,1,.705.705v.432l-3.028,2.093v-.347a1.647,1.647,0,0,0-1.645-1.645H57.465V22.255Zm-5.75,4.059h1.472l-1.472,1.081ZM35.931,36.462l-3.59-2.481h3.59Zm-11.12-8.117a.715.715,0,0,1,.705-.705h5.146v4.7a1.635,1.635,0,0,0,.1.553l-5.949-4.112Zm5.852-2.116H27.358l3.305-2.284ZM25.517,46.764a.706.706,0,0,1-.705-.705V30.491l13.874,9.588-9.673,6.685ZM44.3,36.2l-4.372,3.022-2.584-1.786V33.955a.7.7,0,0,0-.185-1.385H32.308a.235.235,0,0,1-.235-.235V1.645a.235.235,0,0,1,.235-.235H55.82a.235.235,0,0,1,.235.235V32.335a.235.235,0,0,1-.235.235H40.678a.705.705,0,1,0,0,1.41H55.82a1.64,1.64,0,0,0,1.231-.558l4.19-3.077a.233.233,0,0,1,.082.177v1.321L50.648,39.222,46.276,36.2A1.748,1.748,0,0,0,44.3,36.2ZM65.056,46.764h-3.5l-9.673-6.685,13.874-9.588V46.059a.706.706,0,0,1-.705.705Z" transform="translate(-23.401 0)" fill="#fff"/>
        <path id="Trazado_1022148" data-name="Trazado 1022148" d="M55.005,401.6h3.649a.705.705,0,1,0,0-1.41H55.005a.705.705,0,1,0,0,1.41Z" transform="translate(-51.393 -362.531)" fill="#fff"/>
        <path id="Trazado_1022149" data-name="Trazado 1022149" d="M58.655,430.976H55.005a.705.705,0,0,0,0,1.41h3.649a.705.705,0,0,0,0-1.41Z" transform="translate(-51.393 -390.425)" fill="#fff"/>
      </g>
    </g>
  </g>
</svg>
