<svg xmlns="http://www.w3.org/2000/svg" width="84" height="84" viewBox="0 0 84 84">
  <g id="Grupo_1180439" data-name="Grupo 1180439" transform="translate(-213.711 -7437)">
    <rect id="Rectángulo_456622" data-name="Rectángulo 456622" width="84" height="84" transform="translate(213.711 7437)" fill="#f2a4ab"/>
    <g id="Grupo_1180438" data-name="Grupo 1180438" transform="translate(97.348 7369.409)">
      <path id="Trazado_1021844" data-name="Trazado 1021844" d="M607.741,213.44v3.289l-1.353-.431a.98.98,0,0,0-.594,0l-1.353.431V213.44Z" transform="translate(-441.113 -121.477)" fill="#f57f17"/>
      <path id="Trazado_1021845" data-name="Trazado 1021845" d="M501.757,213.44v4.633a.984.984,0,0,1-1.281.938l-2.338-.738-2.338.738a.984.984,0,0,1-1.281-.938V213.44H489.41V230h17.456V213.44Zm1.885,13.877H492.635a.984.984,0,0,1,0-1.969h11.007a.984.984,0,0,1,0,1.969Zm0-4.13H492.635a.984.984,0,0,1,0-1.969h11.007a.984.984,0,0,1,0,1.969Z" transform="translate(-333.16 -121.477)" fill="#fcb64d"/>
      <path id="Trazado_1021846" data-name="Trazado 1021846" d="M607.741,514.58v3.286l-1.353-.431a.989.989,0,0,0-.594,0l-1.353.431V514.58Z" transform="translate(-441.113 -404.09)" fill="#f57f17"/>
      <path id="Trazado_1021847" data-name="Trazado 1021847" d="M501.757,514.58v4.633a.984.984,0,0,1-.984.984.968.968,0,0,1-.3-.046l-2.338-.738-2.338.738a.984.984,0,0,1-1.281-.938V514.58H489.41v16.556h17.456V514.58Zm1.885,13.876H492.635a.984.984,0,0,1,0-1.969h11.007a.984.984,0,0,1,0,1.969Zm0-4.13H492.635a.984.984,0,0,1,0-1.969h11.007a.984.984,0,0,1,0,1.969Z" transform="translate(-333.16 -404.09)" fill="#fcb64d"/>
      <circle id="Elipse_13688" data-name="Elipse 13688" cx="3.326" cy="3.326" r="3.326" transform="translate(144.083 132.987) rotate(-85.927)" fill="#757575"/>
      <path id="Trazado_1021848" data-name="Trazado 1021848" d="M459.137,815.7v1.751H434.59a5.314,5.314,0,0,0,0-1.751Z" transform="translate(-281.713 -686.685)" fill="#ff3d00"/>
      <path id="Trazado_1021849" data-name="Trazado 1021849" d="M178.39,119.5v35.176a5.375,5.375,0,0,0-.7-.046,5.253,5.253,0,0,0-.7.046V119.5a2.1,2.1,0,0,0-2.1-2.1H166.5a.093.093,0,0,1-.093-.094v-1.214A.094.094,0,0,1,166.5,116h8.39A3.5,3.5,0,0,1,178.39,119.5Z" transform="translate(-30.031 -30.031)" fill="#757575"/>
      <g id="Grupo_1180436" data-name="Grupo 1180436" transform="translate(135.763 86.584)" opacity="0.5">
        <path id="Trazado_1021850" data-name="Trazado 1021850" d="M597.741,223.44v3.289l-1.353-.431a.98.98,0,0,0-.594,0l-1.353.431V223.44Z" transform="translate(-567.492 -217.445)" fill="#fff"/>
        <path id="Trazado_1021851" data-name="Trazado 1021851" d="M491.757,223.44v4.633a.984.984,0,0,1-1.281.938l-2.338-.738-2.338.738a.984.984,0,0,1-1.281-.938V223.44H479.41V240h17.456V223.44Zm1.885,13.877H482.635a.984.984,0,0,1,0-1.969h11.007a.984.984,0,0,1,0,1.969Zm0-4.13H482.635a.984.984,0,0,1,0-1.969h11.007a.984.984,0,0,1,0,1.969Z" transform="translate(-459.539 -217.445)" fill="#fff"/>
        <path id="Trazado_1021852" data-name="Trazado 1021852" d="M597.741,524.58v3.286l-1.353-.431a.989.989,0,0,0-.594,0l-1.353.431V524.58Z" transform="translate(-567.492 -500.059)" fill="#fff"/>
        <path id="Trazado_1021853" data-name="Trazado 1021853" d="M491.757,524.58v4.633a.984.984,0,0,1-.984.984.965.965,0,0,1-.3-.046l-2.338-.738-2.338.738a.984.984,0,0,1-1.281-.938V524.58H479.41v16.556h17.456V524.58Zm1.885,13.876H482.635a.984.984,0,0,1,0-1.969h11.007a.984.984,0,0,1,0,1.969Zm0-4.13H482.635a.984.984,0,0,1,0-1.969h11.007a.984.984,0,0,1,0,1.969Z" transform="translate(-459.539 -500.059)" fill="#fff"/>
        <circle id="Elipse_13689" data-name="Elipse 13689" cx="3.326" cy="3.326" r="3.326" transform="translate(7.704 47.017) rotate(-85.927)" fill="#fff"/>
        <path id="Trazado_1021854" data-name="Trazado 1021854" d="M449.137,825.7v1.751H424.59a5.314,5.314,0,0,0,0-1.751Z" transform="translate(-408.091 -782.654)" fill="#fff"/>
        <path id="Trazado_1021855" data-name="Trazado 1021855" d="M168.39,129.5v35.176a5.372,5.372,0,0,0-.7-.046,5.253,5.253,0,0,0-.7.046V129.5a2.1,2.1,0,0,0-2.1-2.1H156.5a.094.094,0,0,1-.093-.094v-1.214A.094.094,0,0,1,156.5,126h8.39A3.5,3.5,0,0,1,168.39,129.5Z" transform="translate(-156.41 -126)" fill="#fff"/>
      </g>
      <g id="Grupo_1180437" data-name="Grupo 1180437" transform="translate(134.41 84)">
        <path id="Trazado_1021856" data-name="Trazado 1021856" d="M477.819,181.44H458.394a.984.984,0,0,0-.984.984v18.526a.984.984,0,0,0,.984.984h19.425a.984.984,0,0,0,.984-.984V182.424A.984.984,0,0,0,477.819,181.44Zm-18.441,18.526V183.409h17.457v16.558Z" transform="translate(-437.539 -175.445)" fill="#413b32"/>
        <path id="Trazado_1021857" data-name="Trazado 1021857" d="M579.678,182.434v5.617a.984.984,0,0,1-1.281.938l-2.338-.738-2.338.738a.984.984,0,0,1-1.281-.938v-5.617a.984.984,0,1,1,1.969,0v4.273l1.354-.431a.98.98,0,0,1,.594,0l1.353.431v-4.273a.984.984,0,0,1,1.969,0Z" transform="translate(-545.492 -175.455)" fill="#413b32"/>
        <path id="Trazado_1021858" data-name="Trazado 1021858" d="M538.805,340.854a.984.984,0,0,1-.984.984H526.814a.984.984,0,1,1,0-1.969h11.007A.984.984,0,0,1,538.805,340.854Z" transform="translate(-501.75 -324.129)" fill="#413b32"/>
        <path id="Trazado_1021859" data-name="Trazado 1021859" d="M538.805,407.984a.984.984,0,0,1-.984.984H526.814a.984.984,0,1,1,0-1.969h11.007A.984.984,0,0,1,538.805,407.984Z" transform="translate(-501.75 -387.129)" fill="#413b32"/>
        <path id="Trazado_1021860" data-name="Trazado 1021860" d="M477.819,482.58H458.394a.984.984,0,0,0-.984.984v17.541h1.969V484.549h17.457v16.556H478.8V483.564A.984.984,0,0,0,477.819,482.58Z" transform="translate(-437.539 -458.059)" fill="#413b32"/>
        <path id="Trazado_1021861" data-name="Trazado 1021861" d="M579.688,483.564v5.617a.984.984,0,0,1-.984.984.964.964,0,0,1-.3-.046l-2.338-.738-2.338.738a.984.984,0,0,1-1.281-.938v-5.617a.984.984,0,0,1,1.969,0v4.271l1.353-.431a.989.989,0,0,1,.594,0l1.353.431v-4.271a.984.984,0,0,1,1.969,0Z" transform="translate(-545.501 -458.059)" fill="#413b32"/>
        <path id="Trazado_1021862" data-name="Trazado 1021862" d="M538.805,641.984a.984.984,0,0,1-.984.984H526.814a.984.984,0,1,1,0-1.969h11.007A.984.984,0,0,1,538.805,641.984Z" transform="translate(-501.75 -606.733)" fill="#413b32"/>
        <path id="Trazado_1021863" data-name="Trazado 1021863" d="M538.805,709.114a.984.984,0,0,1-.984.984H526.814a.984.984,0,1,1,0-1.969h11.007A.984.984,0,0,1,538.805,709.114Z" transform="translate(-501.75 -669.733)" fill="#413b32"/>
        <path id="Trazado_1021864" data-name="Trazado 1021864" d="M478.8,783.7v.984a.984.984,0,0,1-.959.984H458.369a.984.984,0,0,1-.959-.984V783.7Z" transform="translate(-437.539 -740.654)" fill="#413b32"/>
        <path id="Trazado_1021865" data-name="Trazado 1021865" d="M401.676,785.669h-3.691a.984.984,0,1,1,0-1.969h2.733v.984A.984.984,0,0,0,401.676,785.669Z" transform="translate(-380.845 -740.654)" fill="#413b32"/>
        <path id="Trazado_1021866" data-name="Trazado 1021866" d="M489.41,783.7h0Z" transform="translate(-467.57 -740.654)" fill="#413b32"/>
        <path id="Trazado_1021867" data-name="Trazado 1021867" d="M425.828,784.684v3.72a.984.984,0,0,1-.984.984H397.984a.984.984,0,1,1,0-1.969h25.875v-1.751h-2.707a.984.984,0,0,0,.959-.984V783.7h2.733A.984.984,0,0,1,425.828,784.684Z" transform="translate(-380.845 -740.654)" fill="#413b32"/>
        <path id="Trazado_1021868" data-name="Trazado 1021868" d="M312.949,748.984h1.333a5.26,5.26,0,0,0-.758-1.969h-.575a.984.984,0,0,0,0,1.969Zm-.984,2.735a.984.984,0,0,0,.984.984h.575a5.258,5.258,0,0,0,.758-1.969h-1.333A.984.984,0,0,0,311.964,751.719Zm-2.2-5.828a.984.984,0,0,0,1.969,0v-.6a5.251,5.251,0,0,0-1.969-.677Zm-3.37,0a.984.984,0,0,0,1.969,0v-1.28a5.25,5.25,0,0,0-1.969.677Z" transform="translate(-295.81 -703.969)" fill="#413b32"/>
        <path id="Trazado_1021869" data-name="Trazado 1021869" d="M272.96,750.03h1.333a5.316,5.316,0,0,0,0-1.751H272.96a.984.984,0,1,1,0-1.969h.575a5.328,5.328,0,0,0-1.8-1.727v.6a.984.984,0,0,1-1.969,0v-1.28a5.369,5.369,0,0,0-.7-.046,5.255,5.255,0,0,0-.7.046v1.28a.984.984,0,0,1-1.969,0v-.6A5.294,5.294,0,1,0,273.537,752h-.578a.984.984,0,1,1,0-1.969Zm-3.891,2.451a3.326,3.326,0,1,1,3.326-3.326A3.326,3.326,0,0,1,269.069,752.481Z" transform="translate(-255.821 -703.265)" fill="#413b32"/>
        <path id="Trazado_1021870" data-name="Trazado 1021870" d="M150.327,89.465v36.457a.984.984,0,0,1-1.969,0V89.465a3.5,3.5,0,0,0-3.5-3.5h-8.39a.094.094,0,0,0-.093.093v1.214a.094.094,0,0,0,.093.094h8.39a2.1,2.1,0,0,1,2.1,2.1v36.457a.984.984,0,0,1-1.969,0V89.465a.127.127,0,0,0-.127-.127h-8.39a2.064,2.064,0,0,1-2.062-2.062V86.062A2.063,2.063,0,0,1,136.472,84h8.39A5.471,5.471,0,0,1,150.327,89.465Z" transform="translate(-134.41 -84)" fill="#413b32"/>
      </g>
    </g>
  </g>
</svg>
