<svg xmlns="http://www.w3.org/2000/svg" width="400" height="1079.014" viewBox="0 0 400 1079.014">
  <g id="Grupo_1186004" data-name="Grupo 1186004" transform="translate(5293 5167.744)">
    <rect id="Rectángulo_458519" data-name="Rectángulo 458519" width="400" height="1079.014" rx="10" transform="translate(-4893 -4088.73) rotate(180)" fill="#fff7e8"/>
    <rect id="Rectángulo_456560" data-name="Rectángulo 456560" width="300" height="70" rx="10" transform="translate(-5243 -4971)" fill="#a2cbcf"/>
    <path id="Trazado_1028152" data-name="Trazado 1028152" d="M27.887,19l-.554-2.32H23.572l-.6,2.32h-4.1L23.211,6.4h4.711L32.009,19ZM25.5,9.139h-.088a6.123,6.123,0,0,1-.123.694q-.105.483-1.063,4.148H26.63l-.879-3.428A10.84,10.84,0,0,1,25.5,9.139Zm.466-3.911H23.317l2.628-2.821h3.146ZM44.815,19V13.814a1.654,1.654,0,0,0-.233-.971.876.876,0,0,0-.76-.321.949.949,0,0,0-.809.391A1.79,1.79,0,0,0,42.723,14v5H38.979V13.9q0-1.38-.94-1.38a1,1,0,0,0-.861.4,1.933,1.933,0,0,0-.29,1.147V19H33.143V10h3.744v1.424h.035a2.9,2.9,0,0,1,.672-.769,3.946,3.946,0,0,1,1.042-.633,3.235,3.235,0,0,1,1.257-.242,3.181,3.181,0,0,1,1.613.378,2.931,2.931,0,0,1,1.094,1.2,3.207,3.207,0,0,1,1.266-1.165,3.772,3.772,0,0,1,1.758-.409,2.645,2.645,0,0,1,2.171.923,4.109,4.109,0,0,1,.756,2.663V19ZM60.4,14.228a6.586,6.586,0,0,1-.488,2.615A3.975,3.975,0,0,1,58.526,18.6a3.486,3.486,0,0,1-2.03.62,3.2,3.2,0,0,1-1.49-.321,2.683,2.683,0,0,1-.98-.831h-.035V19H50.247V5.676h3.744v5.546h.035a3.083,3.083,0,0,1,1.191-1.055,3.567,3.567,0,0,1,1.657-.387,3.157,3.157,0,0,1,2.615,1.134A5.2,5.2,0,0,1,60.4,14.228Zm-3.8.114a2.234,2.234,0,0,0-.347-1.362A1.25,1.25,0,0,0,54.3,13a1.933,1.933,0,0,0-.382,1.244v.545a2,2,0,0,0,.343,1.23,1.094,1.094,0,0,0,.923.457,1.182,1.182,0,0,0,1.046-.558A2.849,2.849,0,0,0,56.6,14.342Zm9.167-6.768a1.608,1.608,0,0,1-.576,1.283,2.252,2.252,0,0,1-1.516.492,2.2,2.2,0,0,1-1.5-.51,1.612,1.612,0,0,1-.584-1.266,1.561,1.561,0,0,1,.567-1.252,2.639,2.639,0,0,1,3.032,0A1.551,1.551,0,0,1,65.768,7.574ZM61.8,19V10h3.744v9Zm11.883-.123a3.648,3.648,0,0,1-.835.233,7.634,7.634,0,0,1-1.4.11,3.357,3.357,0,0,1-2.448-.861,3.269,3.269,0,0,1-.883-2.452V12.593H66.708V10h1.415V8.233l3.691-1.02V10h1.872v2.593H71.815v2.7q0,1.187.94,1.187a2.551,2.551,0,0,0,.932-.193Zm11.18-4.535a4.687,4.687,0,0,1-1.375,3.577,6.355,6.355,0,0,1-7.664.031,4.546,4.546,0,0,1-1.367-3.5A4.692,4.692,0,0,1,75.1,11.96a4.172,4.172,0,0,1,1.828-1.617,6.311,6.311,0,0,1,2.733-.562,6.113,6.113,0,0,1,2.773.589A4.286,4.286,0,0,1,84.238,12,4.452,4.452,0,0,1,84.867,14.342Zm-3.8.018q0-1.837-1.406-1.837t-1.406,1.925q0,2.03,1.424,2.03Q81.07,16.478,81.07,14.359Zm12.507,1.652a2.749,2.749,0,0,1-1.165,2.369,5.474,5.474,0,0,1-3.248.839,11.291,11.291,0,0,1-1.5-.123,9.257,9.257,0,0,1-1.455-.3V16.17a7.162,7.162,0,0,0,2.777.738q1.1,0,1.1-.571a.451.451,0,0,0-.255-.391,9.009,9.009,0,0,0-1.336-.514,3.773,3.773,0,0,1-1.74-1,2.382,2.382,0,0,1-.545-1.626,2.594,2.594,0,0,1,1.112-2.21,5.216,5.216,0,0,1,3.125-.813,9.931,9.931,0,0,1,2.5.343v2.522a7.549,7.549,0,0,0-1.213-.4,4.9,4.9,0,0,0-1.107-.158,1.205,1.205,0,0,0-.589.123.379.379,0,0,0-.22.343.478.478,0,0,0,.237.413,4.2,4.2,0,0,0,.949.378,4.4,4.4,0,0,1,1.978,1.037A2.272,2.272,0,0,1,93.577,16.012ZM105.969,19V17.954h-.035a3.089,3.089,0,0,1-1.169.927,3.331,3.331,0,0,1-1.424.338,3.663,3.663,0,0,1-2.03-.567A3.443,3.443,0,0,1,100,17.066a6.106,6.106,0,0,1-.435-2.408,5.925,5.925,0,0,1,.519-2.54A4.059,4.059,0,0,1,101.54,10.4a3.769,3.769,0,0,1,2.109-.615,3.193,3.193,0,0,1,1.024.158,2.77,2.77,0,0,1,.817.426,1.273,1.273,0,0,1,.444.532h.035V5.676h3.744V19Zm.079-4.772a1.974,1.974,0,0,0-.356-1.257,1.2,1.2,0,0,0-1.951.11,2.593,2.593,0,0,0-.382,1.49q0,1.907,1.318,1.907a1.173,1.173,0,0,0,1-.514,2.531,2.531,0,0,0,.374-1.5Zm8.692,1.336a1.265,1.265,0,0,0,.668.91,3.012,3.012,0,0,0,1.512.33,6.226,6.226,0,0,0,2.479-.5v2.373a8.908,8.908,0,0,1-3.3.545,5.214,5.214,0,0,1-3.665-1.2,4.277,4.277,0,0,1-1.31-3.313,5.467,5.467,0,0,1,.576-2.558,4.142,4.142,0,0,1,1.705-1.736,5.038,5.038,0,0,1,2.492-.628,4.9,4.9,0,0,1,2.391.545,3.63,3.63,0,0,1,1.507,1.529,4.906,4.906,0,0,1,.514,2.3v1.406Zm2.25-1.96q0-1.556-1.116-1.556a.944.944,0,0,0-.782.426,2.127,2.127,0,0,0-.369,1.129Zm19.758.624a6.4,6.4,0,0,1-.5,2.61,4.046,4.046,0,0,1-1.415,1.758,3.564,3.564,0,0,1-2.057.624,2.755,2.755,0,0,1-2.4-1.151h-.035V23.14H126.6V10h3.744v1.222h.035a3.171,3.171,0,0,1,1.16-1.059,3.364,3.364,0,0,1,1.617-.382,3.215,3.215,0,0,1,2.667,1.16A5.147,5.147,0,0,1,136.749,14.228Zm-3.8.114a2.346,2.346,0,0,0-.33-1.336,1.237,1.237,0,0,0-1.982.026,2.341,2.341,0,0,0-.369,1.4v.176a2.562,2.562,0,0,0,.316,1.362,1.044,1.044,0,0,0,.949.51,1.182,1.182,0,0,0,1.046-.558A2.849,2.849,0,0,0,132.952,14.342Zm11.971-1.134a3.6,3.6,0,0,0-1.169-.255q-1.854,0-1.854,2.145V19h-3.744V10H141.9v1.582h.035a2.81,2.81,0,0,1,.976-1.3,2.506,2.506,0,0,1,1.477-.444,1.269,1.269,0,0,1,.536.105Zm11.092,1.134a4.687,4.687,0,0,1-1.375,3.577,6.355,6.355,0,0,1-7.664.031,4.546,4.546,0,0,1-1.367-3.5,4.692,4.692,0,0,1,.642-2.487,4.172,4.172,0,0,1,1.828-1.617,6.311,6.311,0,0,1,2.733-.562,6.113,6.113,0,0,1,2.773.589,4.286,4.286,0,0,1,1.8,1.635A4.452,4.452,0,0,1,156.014,14.342Zm-3.8.018q0-1.837-1.406-1.837T149.4,14.447q0,2.03,1.424,2.03Q152.217,16.478,152.217,14.359Zm11.531,4.518a3.648,3.648,0,0,1-.835.233,7.634,7.634,0,0,1-1.4.11,3.357,3.357,0,0,1-2.448-.861,3.269,3.269,0,0,1-.883-2.452V12.593H156.77V10h1.415V8.233l3.691-1.02V10h1.872v2.593h-1.872v2.7q0,1.187.94,1.187a2.551,2.551,0,0,0,.932-.193Zm4.395-3.313a1.265,1.265,0,0,0,.668.91,3.012,3.012,0,0,0,1.512.33,6.226,6.226,0,0,0,2.479-.5v2.373a8.908,8.908,0,0,1-3.3.545,5.214,5.214,0,0,1-3.665-1.2,4.277,4.277,0,0,1-1.31-3.313,5.467,5.467,0,0,1,.576-2.558,4.142,4.142,0,0,1,1.705-1.736,5.038,5.038,0,0,1,2.492-.628,4.9,4.9,0,0,1,2.391.545,3.63,3.63,0,0,1,1.507,1.529,4.906,4.906,0,0,1,.514,2.3v1.406Zm2.25-1.96q0-1.556-1.116-1.556a.944.944,0,0,0-.782.426,2.127,2.127,0,0,0-.369,1.129Zm12.023,5.142a3.529,3.529,0,0,1-1.134.343,10.719,10.719,0,0,1-1.784.132,5.488,5.488,0,0,1-2.544-.576,4.2,4.2,0,0,1-1.736-1.613A4.478,4.478,0,0,1,174.6,14.7a5.1,5.1,0,0,1,.655-2.65,4.268,4.268,0,0,1,1.868-1.687,6.407,6.407,0,0,1,2.813-.584,9.839,9.839,0,0,1,1.578.114,2.411,2.411,0,0,1,.9.264v2.918a2.6,2.6,0,0,0-.809-.387,3.248,3.248,0,0,0-.976-.167,2.375,2.375,0,0,0-1.666.523,1.9,1.9,0,0,0-.567,1.472,1.868,1.868,0,0,0,.558,1.446,2.177,2.177,0,0,0,1.534.514,3.82,3.82,0,0,0,1.925-.5Zm8.912,0a3.529,3.529,0,0,1-1.134.343,10.719,10.719,0,0,1-1.784.132,5.488,5.488,0,0,1-2.544-.576,4.2,4.2,0,0,1-1.736-1.613,4.478,4.478,0,0,1-.615-2.329,5.1,5.1,0,0,1,.655-2.65,4.268,4.268,0,0,1,1.868-1.687,6.407,6.407,0,0,1,2.813-.584,9.839,9.839,0,0,1,1.578.114,2.411,2.411,0,0,1,.9.264v2.918a2.6,2.6,0,0,0-.809-.387,3.248,3.248,0,0,0-.976-.167,2.375,2.375,0,0,0-1.666.523,1.9,1.9,0,0,0-.567,1.472,1.868,1.868,0,0,0,.558,1.446,2.177,2.177,0,0,0,1.534.514,3.82,3.82,0,0,0,1.925-.5Zm5.458-11.171a1.608,1.608,0,0,1-.576,1.283,2.252,2.252,0,0,1-1.516.492,2.2,2.2,0,0,1-1.5-.51,1.612,1.612,0,0,1-.584-1.266,1.561,1.561,0,0,1,.567-1.252,2.639,2.639,0,0,1,3.032,0A1.551,1.551,0,0,1,196.787,7.574ZM192.823,19V10h3.744v9Zm15.557-4.658A4.687,4.687,0,0,1,207,17.919a6.355,6.355,0,0,1-7.664.031,4.546,4.546,0,0,1-1.367-3.5,4.692,4.692,0,0,1,.642-2.487,4.172,4.172,0,0,1,1.828-1.617,6.311,6.311,0,0,1,2.733-.562,6.113,6.113,0,0,1,2.773.589,4.286,4.286,0,0,1,1.8,1.635A4.452,4.452,0,0,1,208.379,14.342Zm-3.8.018q0-1.837-1.406-1.837t-1.406,1.925q0,2.03,1.424,2.03Q204.583,16.478,204.583,14.359Zm-.94-5.783H201l2.628-2.821h3.146ZM215.613,19V14.087a2.184,2.184,0,0,0-.25-1.2.915.915,0,0,0-.813-.365.88.88,0,0,0-.756.378,1.613,1.613,0,0,0-.272.967V19h-3.744V10h3.744v1.406h.035a3.177,3.177,0,0,1,1.2-1.2A3.29,3.29,0,0,1,216.4,9.78q2.953,0,2.953,3.727V19Zm16.444,0V17.954h-.035a3.089,3.089,0,0,1-1.169.927,3.331,3.331,0,0,1-1.424.338,3.663,3.663,0,0,1-2.03-.567,3.443,3.443,0,0,1-1.314-1.586,6.106,6.106,0,0,1-.435-2.408,5.925,5.925,0,0,1,.519-2.54,4.059,4.059,0,0,1,1.459-1.723,3.769,3.769,0,0,1,2.109-.615,3.193,3.193,0,0,1,1.024.158,2.77,2.77,0,0,1,.817.426,1.273,1.273,0,0,1,.444.532h.035V5.676H235.8V19Zm.079-4.772a1.974,1.974,0,0,0-.356-1.257,1.2,1.2,0,0,0-1.951.11,2.593,2.593,0,0,0-.382,1.49q0,1.907,1.318,1.907a1.173,1.173,0,0,0,1-.514,2.531,2.531,0,0,0,.374-1.5Zm8.692,1.336a1.265,1.265,0,0,0,.668.91,3.012,3.012,0,0,0,1.512.33,6.226,6.226,0,0,0,2.479-.5v2.373a8.908,8.908,0,0,1-3.3.545,5.214,5.214,0,0,1-3.665-1.2,4.277,4.277,0,0,1-1.31-3.313,5.467,5.467,0,0,1,.576-2.558,4.142,4.142,0,0,1,1.705-1.736,5.038,5.038,0,0,1,2.492-.628,4.9,4.9,0,0,1,2.391.545,3.63,3.63,0,0,1,1.507,1.529,4.906,4.906,0,0,1,.514,2.3v1.406Zm2.25-1.96q0-1.556-1.116-1.556a.944.944,0,0,0-.782.426,2.127,2.127,0,0,0-.369,1.129Zm9.606,5.4V5.676h3.744V19Zm10.538,0V17.629h-.035a2.944,2.944,0,0,1-2.742,1.591,2.625,2.625,0,0,1-2-.756,2.808,2.808,0,0,1-.721-2.021q0-2.654,3.261-3.076l2.232-.29a.851.851,0,0,0-.4-.721,1.8,1.8,0,0,0-1.063-.281,7,7,0,0,0-3.19.861V10.5a8.535,8.535,0,0,1,1.828-.519,10.639,10.639,0,0,1,1.881-.2,4.722,4.722,0,0,1,3.327.98,4.368,4.368,0,0,1,1.033,3.274V19Zm-2.215-3.059a.83.83,0,0,0,.233.606.888.888,0,0,0,.664.237,1.18,1.18,0,0,0,.954-.439,1.7,1.7,0,0,0,.365-1.125v-.343l-1.266.176Q261.008,15.212,261.008,15.941ZM15.042,37.228a6.4,6.4,0,0,1-.5,2.61A4.046,4.046,0,0,1,13.126,41.6a3.564,3.564,0,0,1-2.057.624,2.755,2.755,0,0,1-2.4-1.151H8.635V46.14H4.891V33H8.635v1.222H8.67a3.171,3.171,0,0,1,1.16-1.059,3.364,3.364,0,0,1,1.617-.382,3.215,3.215,0,0,1,2.667,1.16A5.147,5.147,0,0,1,15.042,37.228Zm-3.8.114a2.346,2.346,0,0,0-.33-1.336,1.237,1.237,0,0,0-1.982.026,2.341,2.341,0,0,0-.369,1.4v.176a2.562,2.562,0,0,0,.316,1.362,1.044,1.044,0,0,0,.949.51,1.182,1.182,0,0,0,1.046-.558A2.849,2.849,0,0,0,11.245,37.342Zm11.971-1.134a3.6,3.6,0,0,0-1.169-.255q-1.854,0-1.854,2.145V42H16.448V33h3.744v1.582h.035a2.81,2.81,0,0,1,.976-1.3,2.506,2.506,0,0,1,1.477-.444,1.269,1.269,0,0,1,.536.105Zm11.092,1.134a4.687,4.687,0,0,1-1.375,3.577,5.375,5.375,0,0,1-3.845,1.3,5.4,5.4,0,0,1-3.819-1.27,4.546,4.546,0,0,1-1.367-3.5,4.692,4.692,0,0,1,.642-2.487,4.172,4.172,0,0,1,1.828-1.617A6.311,6.311,0,0,1,29.1,32.78a6.113,6.113,0,0,1,2.773.589A4.286,4.286,0,0,1,33.679,35,4.452,4.452,0,0,1,34.308,37.342Zm-3.8.018q0-1.837-1.406-1.837T27.7,37.447q0,2.03,1.424,2.03Q30.511,39.478,30.511,37.359Zm15.346-.132a6.4,6.4,0,0,1-.5,2.61A4.046,4.046,0,0,1,43.94,41.6a3.564,3.564,0,0,1-2.057.624,2.755,2.755,0,0,1-2.4-1.151h-.035V46.14H35.705V33h3.744v1.222h.035a3.171,3.171,0,0,1,1.16-1.059,3.364,3.364,0,0,1,1.617-.382,3.215,3.215,0,0,1,2.667,1.16A5.147,5.147,0,0,1,45.856,37.228Zm-3.8.114a2.346,2.346,0,0,0-.33-1.336,1.237,1.237,0,0,0-1.982.026,2.341,2.341,0,0,0-.369,1.4v.176a2.562,2.562,0,0,0,.316,1.362,1.044,1.044,0,0,0,.949.51,1.182,1.182,0,0,0,1.046-.558A2.849,2.849,0,0,0,42.06,37.342Zm9.167-6.768a1.608,1.608,0,0,1-.576,1.283,2.252,2.252,0,0,1-1.516.492,2.2,2.2,0,0,1-1.5-.51,1.612,1.612,0,0,1-.584-1.266,1.561,1.561,0,0,1,.567-1.252,2.639,2.639,0,0,1,3.032,0A1.551,1.551,0,0,1,51.227,30.574ZM47.263,42V33h3.744v9Zm8.771-3.437a1.265,1.265,0,0,0,.668.91,3.012,3.012,0,0,0,1.512.33,6.226,6.226,0,0,0,2.479-.5v2.373a8.908,8.908,0,0,1-3.3.545,5.214,5.214,0,0,1-3.665-1.2,4.277,4.277,0,0,1-1.31-3.313,5.467,5.467,0,0,1,.576-2.558,4.142,4.142,0,0,1,1.705-1.736,5.038,5.038,0,0,1,2.492-.628,4.9,4.9,0,0,1,2.391.545,3.63,3.63,0,0,1,1.507,1.529,4.906,4.906,0,0,1,.514,2.3v1.406Zm2.25-1.96q0-1.556-1.116-1.556a.944.944,0,0,0-.782.426,2.127,2.127,0,0,0-.369,1.129ZM68.9,42V40.954h-.035a3.089,3.089,0,0,1-1.169.927,3.331,3.331,0,0,1-1.424.338,3.663,3.663,0,0,1-2.03-.567,3.443,3.443,0,0,1-1.314-1.586,6.106,6.106,0,0,1-.435-2.408,5.925,5.925,0,0,1,.519-2.54A4.059,4.059,0,0,1,64.472,33.4a3.769,3.769,0,0,1,2.109-.615,3.193,3.193,0,0,1,1.024.158,2.77,2.77,0,0,1,.817.426,1.273,1.273,0,0,1,.444.532H68.9V28.676h3.744V42Zm.079-4.772a1.974,1.974,0,0,0-.356-1.257,1.2,1.2,0,0,0-1.951.11,2.593,2.593,0,0,0-.382,1.49q0,1.907,1.318,1.907a1.173,1.173,0,0,0,1-.514,2.531,2.531,0,0,0,.374-1.5ZM79.439,42V40.629H79.4a2.944,2.944,0,0,1-2.742,1.591,2.625,2.625,0,0,1-2-.756,2.808,2.808,0,0,1-.721-2.021q0-2.654,3.261-3.076l2.232-.29a.851.851,0,0,0-.4-.721,1.8,1.8,0,0,0-1.063-.281,7,7,0,0,0-3.19.861V33.5a8.535,8.535,0,0,1,1.828-.519,10.639,10.639,0,0,1,1.881-.2,4.722,4.722,0,0,1,3.327.98,4.368,4.368,0,0,1,1.033,3.274V42Zm-2.215-3.059a.83.83,0,0,0,.233.606.888.888,0,0,0,.664.237,1.18,1.18,0,0,0,.954-.439,1.7,1.7,0,0,0,.365-1.125v-.343l-1.266.176Q77.225,38.212,77.225,38.941ZM90.558,42V40.954h-.035a3.089,3.089,0,0,1-1.169.927,3.331,3.331,0,0,1-1.424.338,3.663,3.663,0,0,1-2.03-.567,3.443,3.443,0,0,1-1.314-1.586,6.106,6.106,0,0,1-.435-2.408,5.925,5.925,0,0,1,.519-2.54A4.059,4.059,0,0,1,86.128,33.4a3.769,3.769,0,0,1,2.109-.615,3.193,3.193,0,0,1,1.024.158,2.77,2.77,0,0,1,.817.426,1.273,1.273,0,0,1,.444.532h.035V28.676H94.3V42Zm.079-4.772a1.974,1.974,0,0,0-.356-1.257,1.2,1.2,0,0,0-1.951.11,2.593,2.593,0,0,0-.382,1.49q0,1.907,1.318,1.907a1.173,1.173,0,0,0,1-.514,2.531,2.531,0,0,0,.374-1.5Zm14.432-6.653a1.608,1.608,0,0,1-.576,1.283,2.252,2.252,0,0,1-1.516.492,2.2,2.2,0,0,1-1.5-.51,1.612,1.612,0,0,1-.584-1.266,1.561,1.561,0,0,1,.567-1.252,2.639,2.639,0,0,1,3.032,0A1.551,1.551,0,0,1,105.068,30.574ZM101.1,42V33h3.744v9Zm11.382,0V37.087a2.184,2.184,0,0,0-.25-1.2.915.915,0,0,0-.813-.365.88.88,0,0,0-.756.378,1.613,1.613,0,0,0-.272.967V42H106.65V33h3.744v1.406h.035a3.177,3.177,0,0,1,1.2-1.2,3.29,3.29,0,0,1,1.644-.426q2.953,0,2.953,3.727V42Zm11.769-.123a3.648,3.648,0,0,1-.835.233,7.634,7.634,0,0,1-1.4.11,3.357,3.357,0,0,1-2.448-.861,3.269,3.269,0,0,1-.883-2.452V35.593h-1.415V33h1.415V31.233l3.691-1.02V33h1.872v2.593h-1.872v2.7q0,1.187.94,1.187a2.551,2.551,0,0,0,.932-.193Zm4.395-3.313a1.265,1.265,0,0,0,.668.91,3.012,3.012,0,0,0,1.512.33,6.226,6.226,0,0,0,2.479-.5v2.373a8.908,8.908,0,0,1-3.3.545,5.214,5.214,0,0,1-3.665-1.2,4.277,4.277,0,0,1-1.31-3.313,5.467,5.467,0,0,1,.576-2.558,4.142,4.142,0,0,1,1.705-1.736,5.038,5.038,0,0,1,2.492-.628,4.9,4.9,0,0,1,2.391.545,3.63,3.63,0,0,1,1.507,1.529,4.906,4.906,0,0,1,.514,2.3v1.406Zm2.25-1.96q0-1.556-1.116-1.556a.944.944,0,0,0-.782.426,2.127,2.127,0,0,0-.369,1.129ZM135.5,42V28.676h3.744V42Zm8.771-3.437a1.265,1.265,0,0,0,.668.91,3.012,3.012,0,0,0,1.512.33,6.226,6.226,0,0,0,2.479-.5v2.373a8.908,8.908,0,0,1-3.3.545,5.214,5.214,0,0,1-3.665-1.2,4.277,4.277,0,0,1-1.31-3.313,5.467,5.467,0,0,1,.576-2.558,4.142,4.142,0,0,1,1.705-1.736,5.038,5.038,0,0,1,2.492-.628,4.9,4.9,0,0,1,2.391.545,3.63,3.63,0,0,1,1.507,1.529,4.906,4.906,0,0,1,.514,2.3v1.406Zm2.25-1.96q0-1.556-1.116-1.556a.944.944,0,0,0-.782.426,2.127,2.127,0,0,0-.369,1.129Zm12.023,5.142a3.529,3.529,0,0,1-1.134.343,10.719,10.719,0,0,1-1.784.132,5.488,5.488,0,0,1-2.544-.576,4.2,4.2,0,0,1-1.736-1.613,4.478,4.478,0,0,1-.615-2.329,5.1,5.1,0,0,1,.655-2.65,4.268,4.268,0,0,1,1.868-1.687,6.407,6.407,0,0,1,2.813-.584,9.839,9.839,0,0,1,1.578.114,2.41,2.41,0,0,1,.9.264v2.918a2.6,2.6,0,0,0-.809-.387,3.248,3.248,0,0,0-.976-.167,2.375,2.375,0,0,0-1.666.523,1.9,1.9,0,0,0-.567,1.472,1.868,1.868,0,0,0,.558,1.446,2.177,2.177,0,0,0,1.534.514,3.82,3.82,0,0,0,1.925-.5Zm7.831.132a3.648,3.648,0,0,1-.835.233,7.634,7.634,0,0,1-1.4.11,3.357,3.357,0,0,1-2.448-.861,3.269,3.269,0,0,1-.883-2.452V35.593H159.4V33h1.415V31.233l3.691-1.02V33h1.872v2.593h-1.872v2.7q0,1.187.94,1.187a2.551,2.551,0,0,0,.932-.193Zm6.9.123V40.611h-.035a4.926,4.926,0,0,1-.839.94,3.23,3.23,0,0,1-.844.483,2.983,2.983,0,0,1-1.094.185,2.722,2.722,0,0,1-2.25-.958,4.429,4.429,0,0,1-.773-2.83V33h3.744v5.15q0,1.327.993,1.327a.972.972,0,0,0,.822-.36,1.642,1.642,0,0,0,.277-1.02V33h3.744v9Zm10.529,0V40.629h-.035a2.944,2.944,0,0,1-2.742,1.591,2.625,2.625,0,0,1-2-.756,2.808,2.808,0,0,1-.721-2.021q0-2.654,3.261-3.076l2.232-.29a.851.851,0,0,0-.4-.721,1.8,1.8,0,0,0-1.063-.281,7,7,0,0,0-3.19.861V33.5a8.535,8.535,0,0,1,1.828-.519,10.639,10.639,0,0,1,1.881-.2,4.722,4.722,0,0,1,3.327.98,4.368,4.368,0,0,1,1.033,3.274V42Zm-2.215-3.059a.83.83,0,0,0,.233.606.888.888,0,0,0,.664.237,1.18,1.18,0,0,0,.954-.439,1.7,1.7,0,0,0,.365-1.125v-.343l-1.266.176Q181.595,38.212,181.595,38.941ZM188.916,42V28.676h3.744V42Zm13.772-3.437a1.265,1.265,0,0,0,.668.91,3.012,3.012,0,0,0,1.512.33,6.226,6.226,0,0,0,2.479-.5v2.373a8.908,8.908,0,0,1-3.3.545,5.214,5.214,0,0,1-3.665-1.2,4.277,4.277,0,0,1-1.31-3.313,5.467,5.467,0,0,1,.576-2.558,4.142,4.142,0,0,1,1.705-1.736,5.038,5.038,0,0,1,2.492-.628,4.9,4.9,0,0,1,2.391.545,3.63,3.63,0,0,1,1.507,1.529,4.906,4.906,0,0,1,.514,2.3v1.406Zm2.25-1.96q0-1.556-1.116-1.556a.944.944,0,0,0-.782.426,2.127,2.127,0,0,0-.369,1.129ZM215.38,42V37.087a2.184,2.184,0,0,0-.25-1.2.915.915,0,0,0-.813-.365.88.88,0,0,0-.756.378,1.613,1.613,0,0,0-.272.967V42h-3.744V33h3.744v1.406h.035a3.177,3.177,0,0,1,1.2-1.2,3.29,3.29,0,0,1,1.644-.426q2.953,0,2.953,3.727V42Zm13.658-3.437a1.265,1.265,0,0,0,.668.91,3.012,3.012,0,0,0,1.512.33,6.226,6.226,0,0,0,2.479-.5v2.373a8.908,8.908,0,0,1-3.3.545,5.214,5.214,0,0,1-3.665-1.2,4.277,4.277,0,0,1-1.31-3.313,5.467,5.467,0,0,1,.576-2.558,4.142,4.142,0,0,1,1.705-1.736,5.038,5.038,0,0,1,2.492-.628,4.9,4.9,0,0,1,2.391.545,3.63,3.63,0,0,1,1.507,1.529,4.906,4.906,0,0,1,.514,2.3v1.406Zm2.25-1.96q0-1.556-1.116-1.556a.944.944,0,0,0-.782.426,2.127,2.127,0,0,0-.369,1.129Zm4.605,5.4V28.676h3.744V42Zm18.791,0-.554-2.32h-3.762l-.6,2.32h-4.1l4.342-12.6h4.711L258.807,42Zm-2.391-9.861h-.088a6.123,6.123,0,0,1-.123.694q-.105.483-1.063,4.148h2.408l-.879-3.428A10.84,10.84,0,0,1,252.294,32.139Zm18.29,1.415a4.1,4.1,0,0,1-.655,2.294,4.267,4.267,0,0,1-1.868,1.551,6.78,6.78,0,0,1-2.821.549h-1.16V42h-3.8V29.4h5.168a6.119,6.119,0,0,1,3.9,1.011A3.83,3.83,0,0,1,270.584,33.554Zm-4.017.132a1.477,1.477,0,0,0-.448-1.169,1.937,1.937,0,0,0-1.318-.4h-.721v3.111h.853Q266.567,35.232,266.567,33.686Zm14.9,7.972a10.653,10.653,0,0,1-3.612.563,7.351,7.351,0,0,1-3.472-.769,5.265,5.265,0,0,1-2.228-2.188,6.765,6.765,0,0,1-.769-3.274,7.207,7.207,0,0,1,.861-3.551,5.957,5.957,0,0,1,2.435-2.4,7.512,7.512,0,0,1,3.621-.848,12.586,12.586,0,0,1,3.164.4v3.507a4.465,4.465,0,0,0-1.257-.492,6.281,6.281,0,0,0-1.477-.176,3.305,3.305,0,0,0-2.439.888,3.245,3.245,0,0,0-.892,2.408,3.189,3.189,0,0,0,.892,2.386,3.261,3.261,0,0,0,2.386.875,6.191,6.191,0,0,0,2.786-.7Z" transform="translate(-5236 -4958)" fill="#12263f"/>
    <g id="_19962555_6205233" data-name="19962555_6205233" transform="translate(-5294.832 -5248.078)">
      <g id="OBJECTS" transform="translate(46.832 100.334)">
        <g id="Grupo_1185958" data-name="Grupo 1185958" transform="translate(0 44.519)">
          <g id="Grupo_1185924" data-name="Grupo 1185924" transform="translate(17.91)">
            <g id="Grupo_1185923" data-name="Grupo 1185923" transform="translate(0.301 0.475)">
              <path id="Trazado_1028056" data-name="Trazado 1028056" d="M104.422,220.079,93.79,215.66v12.567l10.632,4.415,10.637-4.415V215.66Z" transform="translate(-89.782 -206.086)" fill="#f2c96d"/>
              <path id="Trazado_1028057" data-name="Trazado 1028057" d="M115.059,237.83v2.077l-10.637,4.415L93.79,239.907V237.83l10.632,4.415Z" transform="translate(-89.782 -217.766)" fill="#efa760"/>
              <path id="Trazado_1028058" data-name="Trazado 1028058" d="M115.059,210.739l-4.188,1.741-6.449,2.678-6.449-2.678-4.183-1.741,10.632-4.419Z" transform="translate(-89.782 -201.166)" fill="#ea8c63"/>
              <path id="Trazado_1028059" data-name="Trazado 1028059" d="M115.529,216.353l-6.449,2.678-6.449-2.678,6.449-2.683Z" transform="translate(-94.439 -205.038)" fill="#d86d48"/>
              <path id="Trazado_1028060" data-name="Trazado 1028060" d="M99.96,220.079l-4.008,5.153-8.3-3.449-2.333-.97,4.008-5.153,1.571.653Z" transform="translate(-85.32 -206.086)" fill="#efa760"/>
              <path id="Trazado_1028061" data-name="Trazado 1028061" d="M90.9,216.313a2.6,2.6,0,0,1-.464,1.429,22.57,22.57,0,0,1-1.874,2.8c-.3.388-.591.823-.908,1.24l-2.333-.97,4.008-5.153Z" transform="translate(-85.32 -206.086)" fill="#fff" opacity="0.25"/>
              <path id="Trazado_1028062" data-name="Trazado 1028062" d="M130.9,220.815,126.9,215.66l-10.634,4.418,4.006,5.155Z" transform="translate(-101.621 -206.086)" fill="#efa760"/>
              <path id="Trazado_1028063" data-name="Trazado 1028063" d="M99.96,200.583,89.328,205l-2.446-3.147-1.561-2.011,10.632-4.415,1.5,1.926Z" transform="translate(-85.32 -195.429)" fill="#efa760"/>
              <path id="Trazado_1028064" data-name="Trazado 1028064" d="M97.447,197.356c-1.24.6-2.593,1.031-3.833,1.585-1.973.885-3.932,1.77-5.919,2.607-.232.1-.511.2-.814.308l-1.561-2.011,10.632-4.415Z" transform="translate(-85.32 -195.429)" fill="#fff" opacity="0.25"/>
              <path id="Trazado_1028065" data-name="Trazado 1028065" d="M130.9,199.845,126.9,205l-10.634-4.419,4.006-5.155Z" transform="translate(-101.621 -195.427)" fill="#efa760"/>
            </g>
            <path id="Trazado_1028066" data-name="Trazado 1028066" d="M110.859,204.471l1.89-2.432c.449-.577,1.757-1.7,1.89-2.432.234-1.275-4.383-2.469-5.328-2.861l-3.837-1.594c-.451-.188-1.43-.849-1.965-.711-.721.186-1.538,1.821-1.95,2.352l-1.935,2.489L96.9,195.777c-.728-.936-.869-1.417-2-1.092a65,65,0,0,0-9.373,3.895c-1.164.551-1,.916-.23,1.907l1.675,2.155c.3.386,1.292,1.247,1.348,1.734.183,1.609-5.127,4.43-3.171,5.83.843.6,2.894.683,3.374,1.54.248.444,0,1.691,0,2.191a17.174,17.174,0,0,0,0,2.693c.17,1.018.737,1.031,1.69,1.426l5.176,2.149c1.921.8,3.5,2.07,5.461,1.254l5-2.076a29.885,29.885,0,0,0,4.215-1.749c1.087-.672.673-2.079.673-3.312,0-.552-.285-2.109,0-2.578.236-.388,1.035-.569,1.51-.766.491-.2,1.839-.493,2.182-.907.517-.624.046-.95-.378-1.5Zm-20.634,0,4.7-1.953,3.163-1.314a5.51,5.51,0,0,1,1.537-.639c1.294,0,3.34,1.388,4.52,1.878l4.881,2.028-4.7,1.953-3.163,1.314a5.5,5.5,0,0,1-1.537.639,5.767,5.767,0,0,1-1.579-.656l-3.285-1.365Zm13.559-9,9.728,4.042-2.729,3.512c-.837,1.076-.805.814-2.063.291l-8.341-3.465Zm-8.317,0,3.4,4.38-8.341,3.465c-1.163.483-1.2.8-1.969-.171-.955-1.2-1.882-2.422-2.823-3.633Zm-6.324,9.574,9.728,4.043a40.464,40.464,0,0,1-2.917,3.753c-.412.415-.274.508-.719.53-.536.027-1.524-.633-2.016-.837l-7.481-3.109ZM89.466,212l2.807,1.166c.763.317,2.258,1.307,3.1,1.287,1.379-.034,2.946-3.107,3.782-4.183v10.474l-7.891-3.276c-.79-.328-1.5-.435-1.795-1.095C89.022,215.381,89.466,213.115,89.466,212Zm20.323,4.722-9.691,4.022V210.269c.818,1.052,2.424,4.188,3.784,4.185.88,0,2.3-.954,3.1-1.287L109.788,212Zm.293-5.87c-.812.333-1.622.674-2.433,1.011-.9.373-2.662,1.559-3.633,1.509-1.088-.055-2.867-3.295-3.636-4.284l8.341-3.465c1.162-.483,1.2-.8,1.969.171.955,1.2,1.882,2.422,2.823,3.633Z" transform="translate(-84.684 -194.422)"/>
          </g>
          <g id="Grupo_1185935" data-name="Grupo 1185935" transform="translate(58.402 39.921)">
            <g id="Grupo_1185933" data-name="Grupo 1185933" transform="translate(0.617 0.496)">
              <g id="Grupo_1185932" data-name="Grupo 1185932">
                <g id="Grupo_1185931" data-name="Grupo 1185931">
                  <path id="Trazado_1028068" data-name="Trazado 1028068" d="M197.5,280.971v19.8H172.8a1.238,1.238,0,0,1-1.24-1.24V280.971a1.127,1.127,0,0,1,1.126-1.131h23.682A1.131,1.131,0,0,1,197.5,280.971Z" transform="translate(-171.563 -279.84)" fill="#c4c6c6"/>
                  <path id="Trazado_1028069" data-name="Trazado 1028069" d="M195.7,287.182H181.3a2.532,2.532,0,0,0-2.532,2.532v5.446a2.532,2.532,0,0,0,2.532,2.532H195.7a2.532,2.532,0,0,0,2.532-2.532v-5.446A2.532,2.532,0,0,0,195.7,287.182Z" transform="translate(-175.361 -283.708)" fill="#fff" opacity="0.25"/>
                  <path id="Trazado_1028070" data-name="Trazado 1028070" d="M197.5,280.971V282.1H171.563v-1.131a1.127,1.127,0,0,1,1.126-1.131h23.682A1.131,1.131,0,0,1,197.5,280.971Z" transform="translate(-171.563 -279.84)" fill="#fff" opacity="0.25"/>
                  <path id="Trazado_1028071" data-name="Trazado 1028071" d="M243.166,298.056v6.038a1.591,1.591,0,0,1-1.595,1.59h-15.2V289.17h6.861c2.5,0,4.557,6.094,4.557,6.094S243.166,296.9,243.166,298.056Z" transform="translate(-200.439 -284.755)" fill="#9fdafe"/>
                  <path id="Trazado_1028072" data-name="Trazado 1028072" d="M214.29,320.41v.142a1.591,1.591,0,0,1-1.595,1.59H172.8a1.238,1.238,0,0,1-1.24-1.24v-.492Z" transform="translate(-171.563 -301.214)" fill="#6b6b6b"/>
                  <path id="Trazado_1028073" data-name="Trazado 1028073" d="M258.522,313.938h-2.329a.67.67,0,0,1-.67-.67v-1.216a.67.67,0,0,1,.67-.67h2.329Z" transform="translate(-215.796 -296.457)" fill="#fff"/>
                  <g id="Grupo_1185927" data-name="Grupo 1185927" transform="translate(29.116 16.499)">
                    <circle id="Elipse_13727" data-name="Elipse 13727" cx="4.092" cy="4.092" r="4.092" fill="#424242"/>
                    <circle id="Elipse_13728" data-name="Elipse 13728" cx="1.278" cy="1.278" r="1.278" transform="translate(2.814 2.814)"/>
                  </g>
                  <g id="Grupo_1185928" data-name="Grupo 1185928" transform="translate(31.93 19.313)">
                    <circle id="Elipse_13729" data-name="Elipse 13729" cx="1.278" cy="1.278" r="1.278" fill="#fff"/>
                  </g>
                  <g id="Grupo_1185929" data-name="Grupo 1185929" transform="translate(3.721 16.485)">
                    <circle id="Elipse_13730" data-name="Elipse 13730" cx="4.099" cy="4.099" r="4.099" fill="#424242"/>
                    <circle id="Elipse_13731" data-name="Elipse 13731" cx="1.28" cy="1.28" r="1.28" transform="translate(2.819 2.819)" fill="#fff"/>
                  </g>
                  <g id="Grupo_1185930" data-name="Grupo 1185930" transform="translate(12.037 16.485)">
                    <circle id="Elipse_13732" data-name="Elipse 13732" cx="4.099" cy="4.099" r="4.099" fill="#424242"/>
                    <circle id="Elipse_13733" data-name="Elipse 13733" cx="1.28" cy="1.28" r="1.28" transform="translate(2.819 2.819)" fill="#fff"/>
                  </g>
                </g>
                <path id="Trazado_1028074" data-name="Trazado 1028074" d="M240.852,295.267h-7.345a1.321,1.321,0,0,1-1.325-1.32v-4.772h4.112C238.79,289.175,240.852,295.267,240.852,295.267Z" transform="translate(-203.499 -284.758)" fill="#fff"/>
                <path id="Trazado_1028075" data-name="Trazado 1028075" d="M234.614,293.961l2.059-2.212c.274-.3.47-.7.216-.931s-.5-.159-.911.29l-2.01,2.178C233.513,293.777,234.021,294.6,234.614,293.961Z" transform="translate(-204.347 -285.555)" fill="#9fdafe"/>
                <path id="Trazado_1028076" data-name="Trazado 1028076" d="M237.875,296.1l1.143-1.182c.274-.3.47-.7.216-.931s-.5-.159-.911.29-.642.658-1.095,1.148S237.283,296.743,237.875,296.1Z" transform="translate(-206.066 -287.225)" fill="#9fdafe"/>
                <path id="Trazado_1028077" data-name="Trazado 1028077" d="M242.6,298.289h-.443a.7.7,0,0,0-.7.7v2.153a.7.7,0,0,0,.7.7h.443a.7.7,0,0,0,.7-.7v-2.153A.7.7,0,0,0,242.6,298.289Z" transform="translate(-208.383 -289.559)" fill="#c4c6c6"/>
              </g>
            </g>
            <g id="Grupo_1185934" data-name="Grupo 1185934">
              <path id="Trazado_1028078" data-name="Trazado 1028078" d="M208.6,289.416c-.917-2.56-2.39-6.164-5.525-6.183-1.476-.009-2.952,0-4.428,0-.223,0-1.134.146-1.3,0-.194-.167-.054-1.105-.054-1.408,0-1.337.117-2.843-1.636-3.01-.563-.053-1.156,0-1.72,0H172.977a3.281,3.281,0,0,0-1.87.274c-1.318.889-.706,4.307-.706,5.6v9.664c0,1.767-.826,6.077,1.736,6.334.478.048,1.646-.264,2.023,0,.237.165.484,1.323.683,1.634a4.566,4.566,0,0,0,8.011-.563,4.562,4.562,0,0,0,8.405-.217c.371-.942.162-.854,1.125-.854h5.078c.425,0,1.761-.243,2.1,0,.162.115.352,1.066.494,1.333a4.549,4.549,0,0,0,7.34.983c.515-.547.91-2.1,1.383-2.316a6.7,6.7,0,0,1,2.02,0,5.27,5.27,0,0,0,2.01-.168c1.544-.652,1.264-2.42,1.264-3.786a35.169,35.169,0,0,0,0-3.977C213.838,290.735,210.2,289.913,208.6,289.416Zm4.532,6.878c-.385,0-1.563.215-1.856,0a1.5,1.5,0,0,1-.07-1.58,4.734,4.734,0,0,1,1.882-.029C213.281,294.829,213.129,295.993,213.129,296.295Zm-5.742-7.4a.315.315,0,0,1-.293.431h-.8c-.29,0-.018-1.082-.373-1.436a1.73,1.73,0,0,0-1.588-.3c-.911.293-.763.762-.763,1.438,0,.3-.074.3-.773.3-.539,0-1.112.054-1.649,0-1.166-.119-1.118-.807-1.118-1.779v-1.854c0-.314-.152-1.074,0-1.342.21-.369,1.449-.171,1.949-.171a4.479,4.479,0,0,1,2.606.356C205.931,285.433,206.789,287.369,207.387,288.9Zm-2.969,1.377c.384,0,1.435-.068.872.685C204.8,291.607,204.348,290.786,204.418,290.272Zm0-.946c-.045-.5.342-1.343.872-.685C205.882,289.376,204.781,289.326,204.418,289.326Zm-5.332-5.146c0,1.539-.7,5.191,1.1,5.951a3.479,3.479,0,0,0,1.369.141c.354,0,1.5-.2,1.793,0,.246.166.068.7.228,1.057a1.439,1.439,0,0,0,1.675.7c.873-.2.79-.674,1.022-1.355.193-.568.176-.406.944-.406a10.809,10.809,0,0,1,4.956,1.587c.366.2.805.4.959.794.132.338.058.971-.162,1.085-1.047.547-2.585-.748-2.837,1.176-.16,1.225.105,2.278,1.482,2.325.285.01,1.272-.176,1.474,0a1.234,1.234,0,0,1,.025.729c-.357.335-2.579,0-3.082,0a5.78,5.78,0,0,1-1.531,0c-.535-.174-.657-.75-1.088-1.211a4.6,4.6,0,0,0-5.167-1.056,5.181,5.181,0,0,0-2.035,1.783c-.447.585-.43.484-1.225.484-.529,0-1.49.21-1.7-.193a6.941,6.941,0,0,1,0-2.213v-8.341c0-.686-.29-2.145,0-2.779C197.523,283.928,198.42,284.18,199.087,284.18Zm-7.6,14.737h2.946c.56,0,2.181-.388,1.912.536-.126.435-.071.249-.6.292s-1.1,0-1.648,0a9.974,9.974,0,0,1-1.913,0C191.405,299.581,191.7,299.916,191.482,298.917Zm5.8,0h2.337c-.147.681.075.647-.4.827a4.354,4.354,0,0,1-1.2,0C197.191,299.743,197.286,299.76,197.286,298.917ZM172,279.762h22.343c.909,0,1.809-.23,1.995.87a29.8,29.8,0,0,1,0,4.732v10.521a5.91,5.91,0,0,1,0,1.84c-.2.417-.507.246-1.118.246a16.912,16.912,0,0,1-3.674,0c-.583-.144-.532-.4-.961-.94a4.565,4.565,0,0,0-7.733.95,4.609,4.609,0,0,0-4.354-2.673,4.54,4.54,0,0,0-2.45.844,4.613,4.613,0,0,0-.929.879c-.146.183-.417.838-.6.94a7.634,7.634,0,0,1-2.956,0c-.3-.152-.214-.172-.214-.644V284.209C171.347,283.576,170.851,279.762,172,279.762Zm-.655,19.214c.6-.327,2.108-.059,2.878-.059-.1.474.028.665-.327.828a3.426,3.426,0,0,1-1.024,0C172.29,299.744,171.347,299.831,171.347,298.975ZM178.7,303.5c-4.681,0-4.664-7.252,0-7.252S183.376,303.5,178.7,303.5Zm8.316,0c-4.681,0-4.664-7.252,0-7.252S191.692,303.5,187.012,303.5Zm17.072,0c-4.666,0-4.666-7.237,0-7.237S208.75,303.5,204.084,303.5Zm7.927-3.754h-1.937a3.768,3.768,0,0,1-1.082,0c-.524-.2-.266.015-.448-.827h4.541A1.126,1.126,0,0,1,212.011,299.743Z" transform="translate(-170.258 -278.792)"/>
              <path id="Trazado_1028079" data-name="Trazado 1028079" d="M232.543,308.18c.364,0,1.245.171,1.464-.234.427-.789-.693-.662-1.063-.712a1.679,1.679,0,0,1-.511-.046c-.246-.11-.033-.584-.519-.584C230.9,306.6,231.733,308.18,232.543,308.18Z" transform="translate(-202.493 -293.444)"/>
              <path id="Trazado_1028080" data-name="Trazado 1028080" d="M239.859,319.657a1.752,1.752,0,0,0,0,3.5A1.752,1.752,0,0,0,239.859,319.657Zm0,2.556a.805.805,0,0,1,0-1.609A.805.805,0,0,1,239.859,322.213Z" transform="translate(-206.034 -300.321)"/>
              <path id="Trazado_1028081" data-name="Trazado 1028081" d="M186.2,319.637a1.754,1.754,0,0,0,0,3.507A1.754,1.754,0,0,0,186.2,319.637Zm0,2.56a.807.807,0,0,1,0-1.614A.807.807,0,0,1,186.2,322.2Z" transform="translate(-177.764 -300.31)"/>
              <path id="Trazado_1028082" data-name="Trazado 1028082" d="M203.777,319.637a1.754,1.754,0,0,0,0,3.507A1.754,1.754,0,0,0,203.777,319.637Zm0,2.56a.807.807,0,0,1,0-1.614A.807.807,0,0,1,203.777,322.2Z" transform="translate(-187.024 -300.31)"/>
              <path id="Trazado_1028083" data-name="Trazado 1028083" d="M181.264,304.117h14.987c.4,0,1.954.225,1.719-.592-.165-.577-1.435-.354-1.873-.354H182.543a5.015,5.015,0,0,0-1.143,0C180.932,303.294,180.39,304.117,181.264,304.117Z" transform="translate(-175.812 -291.613)"/>
              <path id="Trazado_1028084" data-name="Trazado 1028084" d="M181.264,298.188h14.987c.4,0,1.954.225,1.719-.592-.165-.577-1.435-.354-1.873-.354H182.543a5.015,5.015,0,0,0-1.143,0C180.932,297.365,180.39,298.188,181.264,298.188Z" transform="translate(-175.812 -288.49)"/>
              <path id="Trazado_1028085" data-name="Trazado 1028085" d="M181.264,292.125h14.987c.4,0,1.954.225,1.719-.592-.165-.577-1.435-.354-1.873-.354H182.543a5.015,5.015,0,0,0-1.143,0C180.932,291.3,180.39,292.125,181.264,292.125Z" transform="translate(-175.812 -285.295)"/>
            </g>
          </g>
          <g id="Grupo_1185945" data-name="Grupo 1185945" transform="translate(207.672 43.722)">
            <path id="Trazado_1028087" data-name="Trazado 1028087" d="M518.406,298.043V301.6H502.1V289.97a2.018,2.018,0,0,1,2.016-2.02h7.755a1.61,1.61,0,0,1,1.008.35,16.044,16.044,0,0,1,4.528,5.943A13.161,13.161,0,0,1,518.406,298.043Z" transform="translate(-494.354 -287.418)" fill="#efa760"/>
            <path id="Trazado_1028088" data-name="Trazado 1028088" d="M514.829,290.188H502.1v-.218a2.018,2.018,0,0,1,2.016-2.02h7.755a1.61,1.61,0,0,1,1.008.35A15.228,15.228,0,0,1,514.829,290.188Z" transform="translate(-494.354 -287.418)" fill="#fff" opacity="0.25"/>
            <circle id="Elipse_13734" data-name="Elipse 13734" cx="5.774" cy="5.774" r="5.774" transform="translate(1.657 9.02)" fill="#424242"/>
            <circle id="Elipse_13735" data-name="Elipse 13735" cx="2.112" cy="2.112" r="2.112" transform="translate(5.319 12.682)" fill="#fff"/>
            <g id="Grupo_1185943" data-name="Grupo 1185943" transform="translate(0.608 0.532)">
              <g id="Grupo_1185942" data-name="Grupo 1185942">
                <g id="Grupo_1185941" data-name="Grupo 1185941">
                  <g id="Grupo_1185940" data-name="Grupo 1185940">
                    <path id="Trazado_1028089" data-name="Trazado 1028089" d="M520.566,320.959h-9.515a5.729,5.729,0,0,0,1.225-3.553,5.31,5.31,0,0,0-.033-.615h6.307l1.017,2.106Z" transform="translate(-499.677 -303.144)" fill="#f2c96d"/>
                    <path id="Trazado_1028090" data-name="Trazado 1028090" d="M520.566,323.3h-9.515a5.721,5.721,0,0,0,1.031-2.063h7.486Z" transform="translate(-499.677 -305.488)" fill="#efa760"/>
                    <path id="Trazado_1028091" data-name="Trazado 1028091" d="M523.319,294.243h-10V287.95h4.462a1.61,1.61,0,0,1,1.008.35A15.839,15.839,0,0,1,523.319,294.243Z" transform="translate(-500.873 -287.95)" fill="#fff"/>
                    <path id="Trazado_1028092" data-name="Trazado 1028092" d="M516.588,293.734l2.059-2.212c.274-.3.47-.7.216-.931s-.5-.159-.911.29l-2.011,2.178C515.487,293.55,516,294.376,516.588,293.734Z" transform="translate(-502.161 -289.273)" fill="#f2c96d"/>
                    <path id="Trazado_1028093" data-name="Trazado 1028093" d="M519.851,295.875l1.143-1.182c.274-.3.47-.7.216-.931s-.5-.159-.911.29-.642.658-1.095,1.148S519.258,296.516,519.851,295.875Z" transform="translate(-503.88 -290.943)" fill="#f2c96d"/>
                    <g id="Grupo_1185939" data-name="Grupo 1185939" transform="translate(26.557 0.001)">
                      <g id="Grupo_1185938" data-name="Grupo 1185938">
                        <path id="Trazado_1028094" data-name="Trazado 1028094" d="M543.139,300.71V289.167a1.214,1.214,0,1,1,2.428,0v11.941h13.827a1.214,1.214,0,0,1,0,2.428H544.927" transform="translate(-543.139 -287.952)" fill="#6b6b6b"/>
                      </g>
                    </g>
                    <rect id="Rectángulo_458515" data-name="Rectángulo 458515" width="10.533" height="8.761" transform="translate(30.653 4.4)" fill="#f2c96d"/>
                    <path id="Trazado_1028095" data-name="Trazado 1028095" d="M551.795,297.25h10.533l-2.4,2.936a.859.859,0,0,1-.707.314l-4.4-.362a.857.857,0,0,1-.584-.272Z" transform="translate(-521.142 -292.85)" fill="#efa760"/>
                    <path id="Trazado_1028096" data-name="Trazado 1028096" d="M554.434,302.971c1.087,1.146,3.1.453,4.353-.036a2.739,2.739,0,0,0,1.64-1.2,2.331,2.331,0,0,0,0-1.861C559.146,297.327,552.748,301.195,554.434,302.971Z" transform="translate(-522.385 -293.788)" fill="#fff" opacity="0.25"/>
                    <path id="Trazado_1028097" data-name="Trazado 1028097" d="M528.35,316.915h-2.527V315.18a6.064,6.064,0,0,1,2.058-4.551c.1-.086.194-.166.295-.245a6.117,6.117,0,0,1,1.086-.674,6.034,6.034,0,0,1,1.642-.518,6.185,6.185,0,0,1,.988-.08v2.125" transform="translate(-507.459 -299.098)" fill="#6b6b6b"/>
                    <path id="Trazado_1028098" data-name="Trazado 1028098" d="M500.462,306.923l-.171.079-.53.245-.678.313c-.05-.106-.1-.21-.158-.313-.044-.083-.091-.165-.139-.245a5.749,5.749,0,0,0-4.635-2.78c-.1-.005-.2-.008-.3-.008a5.766,5.766,0,0,0-5.412,3.774l-1.423-.524a7.273,7.273,0,0,1,8.836-4.488c.171.05.343.1.513.168A7.269,7.269,0,0,1,500.462,306.923Z" transform="translate(-487.013 -295.717)" fill="#6b6b6b"/>
                    <path id="Trazado_1028099" data-name="Trazado 1028099" d="M538.2,317.546a3.949,3.949,0,1,1-.837-2.428,3.9,3.9,0,0,1,.8,1.931A3.809,3.809,0,0,1,538.2,317.546Z" transform="translate(-509.824 -301.464)" fill="#424242"/>
                    <circle id="Elipse_13736" data-name="Elipse 13736" cx="1.453" cy="1.453" r="1.453" transform="translate(22.98 14.629)" fill="#fff"/>
                  </g>
                </g>
              </g>
            </g>
            <g id="Grupo_1185944" data-name="Grupo 1185944">
              <path id="Trazado_1028100" data-name="Trazado 1028100" d="M529.148,300.041c-1.046,0-1.153.214-1.153-.795V295.5c0-1.11.1-2.269,0-3.375-.041-.472.021-.656-.482-.844a7.18,7.18,0,0,0-2.049,0h-7.543c-.388,0-1.049-.136-1.321.218-.251.327-.084,1.136-.084,1.5v3.942c0,.6.334,2.45,0,2.962a.5.5,0,0,1-.646.133,23.68,23.68,0,0,1-.075-3.291v-4.14c0-1.39.64-4.885-1.031-5.591-3.056-1.291-2.343,4.258-2.343,5.652v6.682c-.9-.364-1.177-.017-1.177-1.008,0-.3.133-1.279-.062-1.447-.156-.134-.687.113-.852.018-.276-.159-.34-1.065-.446-1.475a14.356,14.356,0,0,0-1.22-3.134c-1.086-2.046-3.227-5.37-5.81-5.42-2.355-.045-4.73-.054-7.085,0-3.287.075-2.768,3.408-2.768,5.74,0,.2.138,1.1,0,1.242a9.247,9.247,0,0,1-1.674.22,7.755,7.755,0,0,0-1.558.557,8.093,8.093,0,0,0-4.041,4.74,4.2,4.2,0,0,1,1.152.424c.309.277.159-.012.172.514.012.484-.149.982-.135,1.479a6.236,6.236,0,0,0,8.735,5.54c.845-.372,1.387-1.149,2.146-1.553a4.654,4.654,0,0,1,2-.141h4.959c.516,0,1.053-.047,1.566,0,.7.065.575.037,1.078.638a4.445,4.445,0,0,0,7.784-2.87h9.048c1.507,0,3.018.033,4.524,0a2.122,2.122,0,0,0,1.458-.391A1.7,1.7,0,0,0,529.148,300.041Zm-2.625-7.81c-.477.583-1.1,1.761-1.751,2.139s-1.693.052-2.4-.006a6.794,6.794,0,0,1-2.595-.314,9.889,9.889,0,0,1-1.7-1.819Zm-9.061.727a10.02,10.02,0,0,0,1.885,1.956,7.745,7.745,0,0,0,2.962.394,5.932,5.932,0,0,0,2.709.032c.83-.389,1.465-1.566,2.031-2.258V298.2c0,.3.207,1.614,0,1.837-.138.149-1.161.007-1.354.007h-6.377c-.294,0-1.58.2-1.8,0-.179-.165-.06-.979-.06-1.256Q517.462,295.872,517.462,292.958Zm-13.5-4.88a15.079,15.079,0,0,1,4.095,5.1h-4.924c-.687,0-3.531.358-3.871-.141-.3-.442,0-2.13,0-2.663,0-.447-.283-2.14,0-2.481.195-.235,1.522-.064,1.865-.064C501.856,287.832,503.328,287.571,503.958,288.078Zm-8.467-.247h1.928c.722,0,.729-.167.892.331a7.807,7.807,0,0,1,0,2.037v2.74c0,1.181-.2,1.187.958,1.187h7.309a5.723,5.723,0,0,1,1.679,0c.561.218.7,1.442.832,2.053.1.49.235.684-.066.958a5.882,5.882,0,0,1-1.091.405,13.229,13.229,0,0,1-1.4.872,6.357,6.357,0,0,1-1.589,0h-2.817a5.891,5.891,0,0,1-1.761,0c-.505-.2-1.192-1.763-1.656-2.235a7.8,7.8,0,0,0-3.4-2.017c-.438-.125-1.2-.057-1.356-.428a3.909,3.909,0,0,1,0-1.085C493.947,291.3,493.322,287.832,495.491,287.832Zm9.428,12.7h-3.459c-.505,0-2.1.044-2.155,0a1.279,1.279,0,0,1-.117-1.172c.124-.1.823,0,.964,0h5.516A6.563,6.563,0,0,0,504.92,300.533Zm-17.961-1.7a6.873,6.873,0,0,1,12.184-.49c-.691.617-1.141-.719-1.607-1.175a6.244,6.244,0,0,0-9.5.892C487.712,298.524,487.616,299.3,486.959,298.829Zm6.2,8.091a5.3,5.3,0,1,1,5.281-5.758A5.347,5.347,0,0,1,493.16,306.92Zm5.427-2.219a6.216,6.216,0,0,0,.813-3.223h5.129a7.479,7.479,0,0,0-.3,2.086c-.005.2.123.943,0,1.083-.157.178-1.033.054-1.308.054Zm6.587-1.262a5.653,5.653,0,0,1,5.122-5.575c0,.232.143,1.009,0,1.185a7.865,7.865,0,0,1-1.226.318,4.4,4.4,0,0,0-2.529,5.335c-.259,0-1.187.155-1.368,0C505.045,304.591,505.173,303.637,505.173,303.439Zm5.6,3.472c-4.379,0-4.541-6.711-.177-6.934C515.2,299.742,515.345,306.911,510.769,306.911Zm18.379-4.442H516.707c-.317,0-1.351.183-1.631,0a7.082,7.082,0,0,1-.4-1.094,4.538,4.538,0,0,0-.839-1.1c-.484-.484-.371-.268-.467-.755a15.351,15.351,0,0,1,0-2.763v-4.075c0-.61-.52-5.446,1.029-4.79.627.265.453,1.239.453,1.779v10.517c0,.849-.122.8.8.8q.929,0,1.857.005c2.655.012,5.309,0,7.964,0,.694,0,1.39,0,2.083-.005a9.338,9.338,0,0,1,1.5,0C529.919,301.134,530.266,302.469,529.148,302.469Z" transform="translate(-485.728 -286.826)"/>
              <path id="Trazado_1028101" data-name="Trazado 1028101" d="M536.579,317.866c-2.487,0-2.472,3.853,0,3.853S539.065,317.866,536.579,317.866Zm0,2.907a.981.981,0,0,1,0-1.96A.981.981,0,0,1,536.579,320.773Z" transform="translate(-511.538 -303.179)"/>
              <path id="Trazado_1028102" data-name="Trazado 1028102" d="M498.652,312.627c-3.329,0-3.333,5.171,0,5.171S501.986,312.627,498.652,312.627Zm0,4.224a1.64,1.64,0,0,1,0-3.278A1.64,1.64,0,0,1,498.652,316.851Z" transform="translate(-491.22 -300.419)"/>
            </g>
          </g>
          <g id="Grupo_1185956" data-name="Grupo 1185956" transform="translate(269.617 6.358)">
            <g id="Grupo_1185952" data-name="Grupo 1185952" transform="translate(0.183 0.474)">
              <g id="Grupo_1185948" data-name="Grupo 1185948" transform="translate(0)">
                <path id="Trazado_1028104" data-name="Trazado 1028104" d="M624.937,208.86a7.906,7.906,0,0,0-7.907,7.907c0,4.367,7.907,13.892,7.907,13.892s7.907-9.525,7.907-13.892A7.906,7.906,0,0,0,624.937,208.86Zm0,10.722a3.156,3.156,0,1,1,3.156-3.156A3.158,3.158,0,0,1,624.937,219.582Z" transform="translate(-617.03 -208.86)" fill="#f46c7a"/>
              </g>
              <path id="Trazado_1028105" data-name="Trazado 1028105" d="M623.821,215.105c-.947.311-3.173,3.882-1.441,4.1.911.115,1.792-.8,2.344-1.411a2.977,2.977,0,0,0,1.014-2.131C625.644,214.646,624.71,214.614,623.821,215.105Z" transform="translate(-619.511 -211.987)" fill="#fff" opacity="0.15"/>
              <g id="Grupo_1185950" data-name="Grupo 1185950" transform="translate(0 7.083)">
                <g id="Grupo_1185949" data-name="Grupo 1185949">
                  <path id="Trazado_1028106" data-name="Trazado 1028106" d="M632.8,223.83c-1.268,3.087-4.224,6.986-6.128,9.327a2.235,2.235,0,0,1-3.471,0c-1.905-2.341-4.861-6.24-6.129-9.327a7.846,7.846,0,0,0-.043.823c0,4.367,7.907,13.892,7.907,13.892s7.907-9.525,7.907-13.892A7.846,7.846,0,0,0,632.8,223.83Z" transform="translate(-617.03 -223.83)" fill="#cc5068"/>
                </g>
              </g>
              <g id="Grupo_1185951" data-name="Grupo 1185951" transform="translate(0)" opacity="0.2">
                <path id="Trazado_1028107" data-name="Trazado 1028107" d="M624.937,208.86a7.906,7.906,0,0,0-7.907,7.907,4.419,4.419,0,0,0,.076.8,7.907,7.907,0,0,1,15.662,0,4.424,4.424,0,0,0,.076-.8A7.906,7.906,0,0,0,624.937,208.86Z" transform="translate(-617.03 -208.86)" fill="#fff"/>
              </g>
            </g>
            <g id="Grupo_1185955" data-name="Grupo 1185955">
              <g id="Grupo_1185953" data-name="Grupo 1185953">
                <path id="Trazado_1028108" data-name="Trazado 1028108" d="M624.732,230.605c-2.131,0-6.43-8.694-7.173-10.312-2.552-5.56.352-12.434,7.173-12.434s9.725,6.874,7.173,12.434C631.162,221.912,626.862,230.605,624.732,230.605Zm0-21.8a7.343,7.343,0,0,0-6.879,9.826c1.331,3.911,4.324,7.557,6.879,10.749,2.568-3.208,5.523-6.827,6.879-10.749A7.336,7.336,0,0,0,624.732,208.805Z" transform="translate(-616.643 -207.859)"/>
              </g>
              <g id="Grupo_1185954" data-name="Grupo 1185954" transform="translate(4.601 4.412)">
                <path id="Trazado_1028109" data-name="Trazado 1028109" d="M629.854,224.441c-4.651,0-4.651-7.257,0-7.257C634.48,217.184,634.552,224.441,629.854,224.441Zm0-6.31c-3.459,0-3.458,5.364,0,5.364S633.313,218.13,629.854,218.13Z" transform="translate(-626.366 -217.184)"/>
              </g>
            </g>
          </g>
          <g id="Grupo_1185957" data-name="Grupo 1185957" transform="translate(0 29.396)">
            <line id="Línea_3242" data-name="Línea 3242" x2="302.495" transform="translate(4.032 2.016)" fill="none" stroke="#000" stroke-linecap="round" stroke-linejoin="round" stroke-miterlimit="10" stroke-width="2.589"/>
            <circle id="Elipse_13737" data-name="Elipse 13737" cx="2.016" cy="2.016" r="2.016" transform="translate(306.526)" fill="none" stroke="#000" stroke-linecap="round" stroke-linejoin="round" stroke-miterlimit="10" stroke-width="2.589"/>
            <circle id="Elipse_13738" data-name="Elipse 13738" cx="2.016" cy="2.016" r="2.016" fill="none" stroke="#000" stroke-linecap="round" stroke-linejoin="round" stroke-miterlimit="10" stroke-width="2.589"/>
          </g>
        </g>
        <g id="Grupo_1185971" data-name="Grupo 1185971" transform="translate(106.297)">
          <g id="Grupo_1185963" data-name="Grupo 1185963" transform="translate(0 26.566)">
            <g id="Grupo_1185961" data-name="Grupo 1185961">
              <path id="Trazado_1028110" data-name="Trazado 1028110" d="M370.043,211.331c0,.388,0,.771-.014,1.155a43.712,43.712,0,0,1-87.409-1.155c0-.757.019-1.514.057-2.262a43.694,43.694,0,0,1,21.316-35.313,43.73,43.73,0,0,1,42.765-1.074,43.71,43.71,0,0,1,8.844,6.189h0A43.626,43.626,0,0,1,370.043,211.331Z" transform="translate(-277.349 -162.349)" fill="#9fdafe"/>
              <g id="Grupo_1185960" data-name="Grupo 1185960" opacity="0.2">
                <g id="Grupo_1185959" data-name="Grupo 1185959">
                  <path id="Trazado_1028111" data-name="Trazado 1028111" d="M320.493,254.446h-.071c-1.239,0-2.514-.049-3.769-.146a.473.473,0,0,1,.073-.943c1.238.1,2.495.143,3.738.143a.487.487,0,0,1,.488.474A.461.461,0,0,1,320.493,254.446Zm3.8-.15a.473.473,0,0,1-.036-.945c1.247-.1,2.506-.246,3.744-.441a.474.474,0,0,1,.148.935c-1.263.2-2.548.35-3.818.449Zm-11.39-.435a.485.485,0,0,1-.074-.006c-1.261-.2-2.531-.448-3.773-.744a.473.473,0,1,1,.22-.92c1.218.291,2.462.536,3.7.729a.473.473,0,0,1-.072.941Zm18.905-.75a.473.473,0,0,1-.11-.934c1.219-.293,2.441-.637,3.629-1.024a.473.473,0,1,1,.293.9c-1.212.394-2.457.745-3.7,1.044A.492.492,0,0,1,331.812,253.11ZM305.5,252.1a.473.473,0,0,1-.146-.023c-1.211-.392-2.426-.839-3.612-1.33a.473.473,0,1,1,.362-.874c1.163.48,2.354.918,3.542,1.3a.473.473,0,0,1-.146.924Zm33.543-1.339a.473.473,0,0,1-.181-.91c1.154-.478,2.3-1.01,3.42-1.58a.473.473,0,1,1,.431.843c-1.137.582-2.311,1.124-3.488,1.612A.48.48,0,0,1,339.047,250.757Zm-40.58-1.574a.472.472,0,0,1-.214-.052c-1.137-.58-2.266-1.212-3.356-1.88a.473.473,0,0,1,.494-.807c1.069.655,2.177,1.276,3.292,1.844a.473.473,0,0,1-.216.895Zm47.354-1.886a.473.473,0,0,1-.248-.877c1.065-.654,2.119-1.36,3.132-2.1a.473.473,0,1,1,.557.765c-1.034.752-2.108,1.472-3.194,2.139A.464.464,0,0,1,345.821,247.3ZM291.976,245.2a.474.474,0,0,1-.278-.09c-1.031-.749-2.047-1.55-3.02-2.381a.473.473,0,0,1,.615-.72c.954.815,1.951,1.6,2.962,2.336a.473.473,0,0,1-.279.855Zm60-2.385a.473.473,0,0,1-.308-.833c.952-.814,1.883-1.675,2.768-2.561a.473.473,0,0,1,.669.669c-.9.9-1.852,1.781-2.822,2.611A.471.471,0,0,1,351.972,242.818Zm-65.785-2.557a.474.474,0,0,1-.335-.138c-.9-.9-1.783-1.852-2.613-2.821a.473.473,0,1,1,.719-.616c.814.951,1.676,1.881,2.563,2.767a.473.473,0,0,1-.334.808Zm71.166-2.824a.473.473,0,0,1-.359-.78c.813-.952,1.6-1.948,2.336-2.961a.473.473,0,1,1,.765.556c-.752,1.034-1.553,2.049-2.383,3.019A.471.471,0,0,1,357.352,237.437Zm-76.114-2.957a.473.473,0,0,1-.383-.194c-.752-1.032-1.473-2.106-2.141-3.192a.473.473,0,0,1,.806-.5c.656,1.066,1.362,2.119,2.1,3.131a.473.473,0,0,1-.1.661A.467.467,0,0,1,281.238,234.48Zm80.593-3.2a.473.473,0,0,1-.4-.72c.657-1.071,1.278-2.178,1.846-3.291a.473.473,0,0,1,.843.431c-.58,1.134-1.213,2.263-1.882,3.355A.473.473,0,0,1,361.831,231.281ZM277.252,228a.472.472,0,0,1-.422-.258c-.58-1.134-1.123-2.306-1.614-3.486a.473.473,0,0,1,.874-.363c.482,1.157,1.014,2.307,1.583,3.419a.473.473,0,0,1-.421.688Zm88.042-3.5a.473.473,0,0,1-.437-.654c.48-1.158.919-2.35,1.306-3.54a.473.473,0,0,1,.9.292c-.394,1.215-.842,2.43-1.331,3.611A.474.474,0,0,1,365.293,224.5Zm-90.962-3.518a.474.474,0,0,1-.45-.326c-.4-1.213-.747-2.457-1.046-3.7a.473.473,0,1,1,.92-.221c.293,1.218.638,2.439,1.025,3.628a.474.474,0,0,1-.3.6A.491.491,0,0,1,274.332,220.98Zm93.312-3.722a.49.49,0,0,1-.11-.013.473.473,0,0,1-.35-.57c.291-1.214.537-2.459.732-3.7a.473.473,0,0,1,.935.147c-.2,1.264-.45,2.533-.746,3.772A.475.475,0,0,1,367.644,217.258Zm-95.092-3.676a.474.474,0,0,1-.467-.4c-.2-1.258-.351-2.542-.452-3.817a.473.473,0,1,1,.943-.075c.1,1.252.248,2.511.443,3.744a.473.473,0,0,1-.394.541A.494.494,0,0,1,272.552,213.582Zm96.273-3.842h-.037a.473.473,0,0,1-.435-.508c.1-1.243.146-2.511.146-3.768v-.12a.473.473,0,0,1,.946,0v.12c0,1.281-.05,2.574-.148,3.841A.474.474,0,0,1,368.826,209.74ZM271.953,206a.473.473,0,0,1-.473-.473v-.054c0-1.265.049-2.537.144-3.786a.473.473,0,1,1,.944.072c-.094,1.225-.141,2.473-.141,3.708v.06A.473.473,0,0,1,271.953,206Zm96.862-3.984a.473.473,0,0,1-.471-.435c-.1-1.246-.25-2.505-.447-3.744a.473.473,0,1,1,.935-.149c.2,1.262.355,2.547.457,3.818a.473.473,0,0,1-.434.51Zm-96.281-3.6a.484.484,0,0,1-.073-.006.473.473,0,0,1-.395-.54c.2-1.261.446-2.531.741-3.773a.473.473,0,1,1,.921.219c-.29,1.218-.534,2.463-.726,3.7A.474.474,0,0,1,272.534,198.409Zm95.081-3.911a.473.473,0,0,1-.459-.362c-.295-1.218-.641-2.438-1.031-3.627a.473.473,0,0,1,.9-.294c.4,1.212.75,2.457,1.051,3.7a.473.473,0,0,1-.348.571A.482.482,0,0,1,367.615,194.5Zm-93.32-3.492a.474.474,0,0,1-.45-.619c.393-1.216.839-2.431,1.328-3.613a.473.473,0,1,1,.874.361c-.479,1.159-.917,2.351-1.3,3.542A.473.473,0,0,1,274.294,191.006Zm90.955-3.737a.473.473,0,0,1-.437-.291c-.481-1.153-1.015-2.3-1.587-3.418a.473.473,0,0,1,.842-.432c.583,1.137,1.128,2.309,1.619,3.485a.474.474,0,0,1-.437.656Zm-88.048-3.3a.474.474,0,0,1-.422-.688c.579-1.138,1.211-2.268,1.878-3.358a.473.473,0,0,1,.807.494c-.654,1.068-1.274,2.177-1.843,3.292A.47.47,0,0,1,277.2,183.967Zm84.576-3.464a.473.473,0,0,1-.4-.225c-.656-1.064-1.364-2.117-2.1-3.128a.473.473,0,0,1,.764-.558c.754,1.032,1.475,2.105,2.145,3.19a.472.472,0,0,1-.4.721Zm-80.6-3.029a.473.473,0,0,1-.382-.751c.749-1.032,1.55-2.049,2.379-3.022a.473.473,0,1,1,.72.614c-.813.954-1.6,1.951-2.333,2.963A.474.474,0,0,1,281.177,177.474Zm76.11-3.114a.472.472,0,0,1-.359-.165c-.815-.95-1.679-1.879-2.566-2.763a.473.473,0,1,1,.668-.67c.9.9,1.784,1.849,2.616,2.818a.473.473,0,0,1-.359.781Zm-71.171-2.678a.473.473,0,0,1-.335-.807c.9-.9,1.85-1.783,2.819-2.614a.473.473,0,0,1,.616.718c-.951.815-1.881,1.678-2.765,2.564A.471.471,0,0,1,286.116,171.681Zm65.779-2.693a.473.473,0,0,1-.307-.113c-.953-.811-1.95-1.6-2.965-2.331a.473.473,0,1,1,.555-.766c1.035.749,2.052,1.55,3.024,2.377a.473.473,0,0,1-.307.833Zm-60-2.26a.473.473,0,0,1-.28-.855c1.031-.752,2.1-1.473,3.191-2.143a.473.473,0,0,1,.5.806c-1.066.657-2.119,1.364-3.129,2.1A.472.472,0,0,1,291.895,166.728Zm53.836-2.207a.469.469,0,0,1-.246-.07c-1.068-.653-2.176-1.272-3.294-1.84a.473.473,0,0,1,.429-.844c1.139.579,2.27,1.211,3.359,1.877a.473.473,0,0,1-.247.877Zm-47.359-1.782a.473.473,0,0,1-.216-.894c1.136-.582,2.309-1.127,3.486-1.617a.473.473,0,1,1,.364.874c-1.154.481-2.3,1.014-3.418,1.585A.48.48,0,0,1,298.372,162.738Zm40.571-1.667a.464.464,0,0,1-.18-.036c-1.158-.478-2.351-.915-3.543-1.3a.473.473,0,1,1,.29-.9c1.216.392,2.432.838,3.613,1.325a.474.474,0,0,1-.18.911Zm-33.552-1.257a.473.473,0,0,1-.147-.923c1.214-.4,2.459-.749,3.7-1.049a.473.473,0,0,1,.222.92c-1.217.293-2.437.639-3.628,1.028A.481.481,0,0,1,305.39,159.814Zm26.307-1.081a.482.482,0,0,1-.109-.013c-1.219-.289-2.465-.532-3.7-.724a.473.473,0,1,1,.145-.935c1.26.2,2.53.444,3.773.739a.473.473,0,0,1-.109.934Zm-18.911-.7a.473.473,0,0,1-.073-.941c1.26-.2,2.544-.353,3.818-.454a.473.473,0,0,1,.075.943c-1.249.1-2.509.249-3.744.445A.449.449,0,0,1,312.786,158.03Zm11.392-.464h-.036c-1.217-.092-2.455-.139-3.679-.139h-.089a.473.473,0,1,1,0-.946h.086c1.252,0,2.514.048,3.754.141a.473.473,0,0,1-.036.945Z" transform="translate(-271.48 -156.48)"/>
                </g>
              </g>
              <path id="Trazado_1028112" data-name="Trazado 1028112" d="M370.043,256.918c0,.388,0,.771-.014,1.155a43.712,43.712,0,0,1-87.409-1.155c0-.757.019-1.514.057-2.262.009-.17.019-.336.028-.506a43.71,43.71,0,0,0,87.248.033C370.014,255.087,370.043,256,370.043,256.918Z" transform="translate(-277.349 -207.936)" fill="#86c9ea"/>
              <path id="Trazado_1028113" data-name="Trazado 1028113" d="M421.685,226.126c-.2,1.183,1.367,1.774,2.56,1.869s2.768.577,2.688,1.77a2.044,2.044,0,0,1-.681,1.2c-1.443,1.448-3.421,2.314-4.7,3.913a15.141,15.141,0,0,0-1.836,3.606,34.422,34.422,0,0,1-7.1,10.67c-.5.506-1.164,1.036-1.836.828a1.877,1.877,0,0,1-1.027-1.263c-.951-2.574-.97-5.389-1.571-8.063a19.067,19.067,0,0,0-7.448-11.247,18.05,18.05,0,0,1-3.833-3.033,6.324,6.324,0,0,1,1.221-8.758c1.363-.975,3.27-1.552,3.747-3.161a18.966,18.966,0,0,0,.137-2.654c.492-3.194,5.356-3.937,6.322-7.017.733-2.337-1.15-4.911-.379-7.235a5.987,5.987,0,0,1,1.916-2.5,28.076,28.076,0,0,1,5.29-3.653h0A43.626,43.626,0,0,1,429.6,223.859c0,.388,0,.771-.014,1.155,0,0-5.394-1.391-7.32.213A1.571,1.571,0,0,0,421.685,226.126Z" transform="translate(-336.902 -174.877)" fill="#b3d887"/>
              <path id="Trazado_1028114" data-name="Trazado 1028114" d="M386.638,172.683a5.151,5.151,0,0,1-.45.558,7.683,7.683,0,0,1-2.569,1.836c-.956.416-1.992.639-2.924,1.107-1.623.814-2.815,2.323-4.429,3.147-1.457.738-3.236.913-4.41,2.044a11.343,11.343,0,0,0-1.614,2.479,3.306,3.306,0,0,1-2.252,1.77,2.629,2.629,0,0,1-2.2-1.022,6.763,6.763,0,0,1-1.126-2.243c-.842-2.446-1.481-5.072-3.189-7.012a12.689,12.689,0,0,1-2.934-4.49,5.193,5.193,0,0,1-.118-2.541,43.795,43.795,0,0,1,28.215,4.367Z" transform="translate(-317.229 -162.349)" fill="#b3d887"/>
              <path id="Trazado_1028115" data-name="Trazado 1028115" d="M395.013,194.864a2.453,2.453,0,0,0-.6.815.84.84,0,0,0,.186.937,1.492,1.492,0,0,0,.832.206,1.652,1.652,0,0,1,1.474.893,1.5,1.5,0,0,1-.208,1.27,9.344,9.344,0,0,1-.842,1.031,5.631,5.631,0,0,0-1.084,2.061,1.767,1.767,0,0,0-.061.946,1.388,1.388,0,0,0,1.189.908,3.449,3.449,0,0,0,1.55-.256,14.612,14.612,0,0,0,1.816-.776,4.724,4.724,0,0,0,1.705-1.294,2.042,2.042,0,0,0,.311-2.032c-.419-.886-1.587-1.234-1.98-2.132a2.465,2.465,0,0,1,.326-2.154,11.326,11.326,0,0,0,1.113-1.962,1.624,1.624,0,0,0-.108-1.438C399.12,189.756,395.906,193.951,395.013,194.864Z" transform="translate(-336.211 -174.82)" fill="#b3d887"/>
              <path id="Trazado_1028116" data-name="Trazado 1028116" d="M329.943,228.9a23.082,23.082,0,0,1-2.91,11.015c-1.254,2.262-2.9,4.325-3.733,6.766a13.318,13.318,0,0,0-.554,5.725,1.5,1.5,0,0,1-.147,1.1,1.186,1.186,0,0,1-1.046.35c-1.978-.133-3.326-2.148-3.7-4.1-.634-3.35.828-8.7-3.218-10.377a13.64,13.64,0,0,1-2.6-.979,2.8,2.8,0,0,1-1.207-2.276,6.64,6.64,0,0,0,.028-1.7,4.026,4.026,0,0,0-.795-1.268,6.146,6.146,0,0,1-.6-6.222,2.087,2.087,0,0,0,.369-1.382c-.2-.762-1.216-.9-2-.8-2.224.274-4.684,1.117-6.549-.123-1.836-1.221-2.044-3.79-3.019-5.768a7.52,7.52,0,0,0-7.154-4.055c-2.834.222-5.654,2.068-8.337,1.117-.014,0-.024-.009-.038-.009l0,0a43.694,43.694,0,0,1,21.316-35.313,8.994,8.994,0,0,1,3.019,1.7c2.077,1.826,2.957,5.214,1.3,7.424-1.017,1.358-2.905,2.333-2.886,4.031.024,1.718,2.276,2.692,3.875,2.058s2.55-2.271,3.2-3.861a6,6,0,0,1,1.6-2.688c.842-.644,2.328-.535,2.678.459.312.908-.473,1.954-.09,2.834s1.533.937,2.437,1.221a4.748,4.748,0,0,1,2.929,5.21,7.322,7.322,0,0,1-3.785,5.025c-1.708.975-3.762,1.5-5.03,3-2.011,2.389-1.453,6.6-4.15,8.181a11.756,11.756,0,0,0-2.006,1.065c-1.14,1.032-.743,3.1.525,3.979a4.429,4.429,0,0,0,4.391.043c1.438-.705,3.028-1.954,4.434-1.192.752.407,1.169,1.311,1.964,1.623a7.385,7.385,0,0,0,1.893.142c2.475.256,3.525,3.525,5.863,4.382.965.35,2.125.279,2.9.956A3.487,3.487,0,0,1,329.943,228.9Z" transform="translate(-277.412 -169.182)" fill="#b3d887"/>
              <path id="Trazado_1028117" data-name="Trazado 1028117" d="M348.117,194.888a11.562,11.562,0,0,0-11.3-1.9c-8.7,3.122-17.558,11.477-21.891,18.248-5.582,8.722-5.579,23,7.679,23.783C340.616,236.079,362.862,207.149,348.117,194.888Z" transform="translate(-292.507 -175.345)" fill="#fff" opacity="0.25"/>
              <path id="Trazado_1028118" data-name="Trazado 1028118" d="M326.774,184.281a3.853,3.853,0,0,0-3.767-.633,16.444,16.444,0,0,0-7.3,6.081c-1.86,2.907-1.859,7.666,2.559,7.926C324.275,198.008,331.688,188.367,326.774,184.281Z" transform="translate(-294.163 -170.67)" fill="#fff" opacity="0.25"/>
            </g>
            <g id="Grupo_1185962" data-name="Grupo 1185962" transform="translate(4.841 4.799)">
              <path id="Trazado_1028119" data-name="Trazado 1028119" d="M395.422,203.911a7.614,7.614,0,0,0,4.942-1.91c1.8-1.664,1.018-2.781-.19-4.337-1.672-2.152.012-2.411.6-4.678.4-1.533-.5-2.867-2.161-2.587-1.616.272-3.433,2.351-4.354,3.644-1.106,1.552-.9,1.966.607,2.752,1.588.828,1.222.878.209,2.429C394.209,200.548,392.617,203.553,395.422,203.911Zm-.613-2.2c.381-1.348,2.078-2.471,2.2-3.835.157-1.772-1.182-1.256-2.073-2.029s.879-2.191,1.757-3.03c.617-.59,2.087-2.139,2.965-1.309,1.033.976-.792,2.679-1.129,3.605-.642,1.766.35,2.257,1.31,3.5,1.19,1.541.314,2.548-1.2,3.373C397.94,202.365,394.145,204.074,394.809,201.716Z" transform="translate(-340.635 -179.129)"/>
              <path id="Trazado_1028120" data-name="Trazado 1028120" d="M355.51,178.083c-1.227-1.769-4.039-3.317-5.832-4.469a44.185,44.185,0,0,0-65.991,50.4,44.175,44.175,0,1,0,71.822-45.931Zm13.58,32.723q0,.361-.009.722c-2.21.1-5.256-1.48-7.154.284-2.679,2.488,1.623,3.238,3.123,3.758,2.8.97.159,2.616-1.208,3.638-2.614,1.956-3.632,3.968-4.954,6.865a34.3,34.3,0,0,1-3.975,6.61c-1.063,1.388-3.259,5.21-4.751,2.819-1.189-1.9-.975-5.059-1.391-7.217a19.81,19.81,0,0,0-2.931-7.243,20.112,20.112,0,0,0-4.863-5.072c-2.112-1.557-4.491-2.768-4.836-5.65a5.907,5.907,0,0,1,2.5-5.554c2.208-1.613,3.479-1.922,3.774-4.873.5-5.045,7.243-5.055,6.35-10.915-.433-2.844-.949-4.528,1.378-6.622a24.847,24.847,0,0,1,3.058-2.31c1.709-1.114,1.814-1.195,3.277.276A43.443,43.443,0,0,1,369.09,210.806Zm-23.546-38.487c-1.8,2.022-4.5,2.176-6.627,3.681a21.671,21.671,0,0,1-4.012,2.723c-1.29.545-2.683.784-3.737,1.786-1.416,1.346-2.512,5.71-5.14,3.486-1.873-1.585-2.069-5.3-3.173-7.413-1.265-2.421-3.96-4.2-4.367-7.046-.28-1.957,1.612-1.61,3.176-1.762a43.238,43.238,0,0,1,23.878,4.545Zm-41.968,1.444c3.427,1.271,6.209,5.251,3.62,8.613-1.065,1.383-3.222,2.531-2.633,4.629.508,1.808,2.821,2.48,4.435,1.882,1.638-.606,2.59-2.239,3.288-3.73.516-1.1,1.043-3.39,2.642-3.143,1.9.293.12,2.738,1.231,3.924,1.313,1.4,3.311.754,4.418,2.717,2.549,4.519-2.666,7.216-5.793,8.934a7.569,7.569,0,0,0-3.884,4.88c-.58,1.809-.844,3.809-2.528,4.954-1.7,1.156-3.7,1.817-2.628,4.4.835,2.006,3.125,2.438,5.041,1.878,1.823-.532,3.452-2.452,5.339-1.265.909.572,1.177,1.284,2.328,1.5.942.18,1.681-.03,2.578.511,1.611.972,2.4,2.871,4.147,3.7,1.909.91,3.522.474,3.742,3.065.4,4.693-1.74,9.391-4.141,13.256a19.79,19.79,0,0,0-2.8,5.877c-.269,1.155.2,5.189-.618,5.588-1.555.763-3.087-1.914-3.421-2.987-.558-1.8-.286-3.774-.415-5.626a7.438,7.438,0,0,0-1.386-4.393c-1.267-1.5-3.4-1.236-4.642-2.537-1.188-1.246-.528-3.164-1.416-4.655-1.014-1.7-1.6-3.258-1.007-5.26.454-1.531,1.351-3.143-.912-3.554-2.01-.365-4.052.972-6.092.376-1.932-.564-2.488-2.222-3.115-3.959a9.368,9.368,0,0,0-3.31-4.947,8.3,8.3,0,0,0-6.745-1.16c-1.175.258-2.3.727-3.49.934a5.376,5.376,0,0,1-1.822.159c-1.114-.374-.705-.125-.8-1.352-.327-4.217,1.732-9.532,3.379-13.331A43.684,43.684,0,0,1,303.576,173.763Zm22.277,80.279c-24.174,0-44.106-20.73-43.2-44.875,3.722.843,7.114-2.243,10.873-.829,3.666,1.38,3.75,4.584,5.423,7.538a4.683,4.683,0,0,0,4.18,2.51c1.425.057,3.538-.979,4.872-.539,1.465.483.4,1.51.106,2.629a6.729,6.729,0,0,0,.612,4.946,13.806,13.806,0,0,1,.936,1.334c.317.811.041,1.578.211,2.4.376,1.825,1.5,2.386,3.1,2.99,3.082,1.16,3.568,3.344,3.66,6.436.084,2.819.021,6.66,3.086,8.06,4.123,1.885,2.736-4.9,3.493-7.166,1.192-3.566,3.9-6.425,5.211-9.972.946-2.562,2.657-7.93.914-10.509-.9-1.335-2.543-1.1-3.833-1.745-1.527-.763-2.317-2.413-3.673-3.4-1.286-.933-2.683-.476-3.967-1.1-1.648-.8-1.935-2.2-4.145-1.478-1.788.581-3.252,2.136-5.281,1.618-1.618-.413-2.671-2.191-1.508-3.65.954-1.2,2.674-1.236,3.563-2.738.816-1.38,1-3.017,1.555-4.5,1.426-3.8,5.322-3.8,7.928-6.424,2.266-2.281,3.048-6.1.551-8.547-.994-.975-3.489-1.014-3.907-2.294-.479-1.469,1.026-3.773-1.826-3.719-3.326.062-3.133,5.627-5.894,6.86-1.164.52-3.058.252-3.4-1.195-.437-1.863,2.319-3.174,3.094-4.637,1.846-3.483-.777-7.444-3.98-8.893a43.045,43.045,0,0,1,12.895-4.779c-.179,2.291,1.128,4.188,2.5,5.877a18.2,18.2,0,0,1,3.317,6.114c.58,1.721,1.044,4.02,2.844,4.9,2.156,1.049,3.542-.809,4.545-2.442,1.316-2.143,2.765-2.406,4.973-3.412,2.344-1.068,3.975-3.019,6.43-3.939a10.891,10.891,0,0,0,3.133-1.589c1.3-1.032,1.09-1.2,2.678-.247a43.721,43.721,0,0,1,6.375,4.635,26.686,26.686,0,0,0-4.779,3.37c-2.165,1.959-2.44,3.792-1.885,6.6.392,1.976.574,3.539-.943,5.052-1.358,1.355-3.321,2.05-4.44,3.662-1.057,1.523-.289,3.078-1,4.589-.726,1.549-2.817,1.989-4.01,3.1a6.823,6.823,0,0,0,.345,10.085c2.881,2.509,5.832,4.1,7.883,7.509,2.108,3.5,2.34,7.186,3.121,11.088.244,1.217.548,3.624,2.008,4.062,1.633.489,3.226-1.877,4.068-2.881,2.733-3.259,4.36-6.842,6.192-10.618,1.154-2.378,3.08-3.354,5-5.009,1.358-1.17,2.264-2.8.308-3.918-.944-.539-4.683-.34-3.89-2.156.826-1.893,5.364-.274,6.774-.326C368.181,235.357,348.744,254.042,325.853,254.042Z" transform="translate(-281.712 -166.622)"/>
            </g>
          </g>
          <g id="Grupo_1185967" data-name="Grupo 1185967" transform="translate(27.318)">
            <g id="Grupo_1185964" data-name="Grupo 1185964" transform="translate(0.381 0.698)">
              <path id="Trazado_1028121" data-name="Trazado 1028121" d="M372.586,121.953a3.269,3.269,0,0,1-.066.582c-.4,1.746-2.451,2.522-3.856,2.853a8.908,8.908,0,0,1-2.125.222c-1.467-.019-4.77-.052-7.542-.095-2.314,3.606-6.752,10.613-7.892,12.813a5.4,5.4,0,0,1-4.6,2.967l-3.033-.047,6.88-15.861-.289,0c-4.765-.066-13.414-2-13.414-2l-3.019,4.069-3.61-.052.544-2.039,1.065-4.008-1.429-6.09,3.61.052,2.9,4.154s8.706-1.68,13.466-1.609l.289,0-6.411-16.055,3.038.043a5.382,5.382,0,0,1,4.5,3.1c1.074,2.233,5.309,9.364,7.519,13.041,2.707.038,5.915.076,7.429.09a8.985,8.985,0,0,1,2.508.369C370.575,118.915,372.615,119.913,372.586,121.953Z" transform="translate(-330.02 -101.81)" fill="#fff"/>
              <path id="Trazado_1028122" data-name="Trazado 1028122" d="M372.52,144.747c-.4,1.746-2.451,2.522-3.856,2.853a8.907,8.907,0,0,1-2.125.222c-1.467-.019-4.77-.052-7.542-.095-2.314,3.606-6.752,10.613-7.892,12.813a5.4,5.4,0,0,1-4.6,2.967l-3.033-.047,6.88-15.861-.289,0c-4.765-.066-13.414-2-13.414-2l-3.019,4.069-3.61-.052.544-2.039a2.539,2.539,0,0,0,.426.009c1.386-.071,2.025-1.093,3.024-1.983a6.987,6.987,0,0,1,5.314-1.614c2.186.1,4.282,1.112,6.407,1.6,1.656.383,3.525-.114,5.11.416,1.926.644.326,4.434-.118,5.6-.686,1.812-1.789,3.378-2.583,5.129-.483,1.074-2.162,2.711-1.121,3.809.814.856,1.826.341,2.456-.459a13.376,13.376,0,0,0,1.774-2.919c.563-1.344,1.358-2.579,1.888-3.927.89-2.248,1.746-5.527,4.027-6.781a10.875,10.875,0,0,1,3.9-1.032,19.508,19.508,0,0,1,4.036.08,22.455,22.455,0,0,0,5.134-.2A15.728,15.728,0,0,0,372.52,144.747Z" transform="translate(-330.02 -124.022)" fill="#efefef"/>
              <path id="Trazado_1028123" data-name="Trazado 1028123" d="M410.777,140.81c.671,0,2.474.767,2.461,1.66-.014.972-1.863,1.621-2.461,1.621Z" transform="translate(-372.565 -122.356)" fill="#424242"/>
            </g>
            <g id="Grupo_1185965" data-name="Grupo 1185965">
              <path id="Trazado_1028124" data-name="Trazado 1028124" d="M346.094,140.991c-1.22,0-3.329.516-3.4-.884-.064-1.222,1.515-3.494,1.986-4.58l4.534-10.456a63.056,63.056,0,0,1-9.542-1.279c-.713-.135-2.275-.785-2.978-.6-.568.149-.822.685-1.242,1.251-1.025,1.382-1.419,2.575-3.123,2.691a7.325,7.325,0,0,1-2.539-.037c-.844-.411-.514-.437-.492-1.191.052-1.726,1.274-3.408,1.364-5.134a16.476,16.476,0,0,0-.876-4.171c-.394-1.682-.9-2.525,1.082-2.574,1.781-.043,2.528-.187,3.573,1.2.493.652,1.185,2.329,1.9,2.731.569.318,1.464-.023,2.2-.147a67.317,67.317,0,0,1,10.793-1.2L344.584,104.7c-.386-.966-1.981-3.416-.949-4.144.858-.605,4.269.162,5.193.606,2.9,1.394,4.351,5.769,5.882,8.4q1.651,2.843,3.341,5.664c.862,1.444,1.022,1.516,2.709,1.537q1.9.025,3.807.046c2.817.032,9.551.931,7.876,5.426-1.368,3.671-6.886,3.059-9.926,3.022-1.225-.015-3.043-.384-3.92.321-.856.688-1.562,2.45-2.153,3.385-1.294,2.049-2.585,4.1-3.833,6.179C351.054,137.738,349.62,140.991,346.094,140.991Zm-2.328-.98a9.19,9.19,0,0,0,4.165-.406c2.139-1,3.109-3.7,4.274-5.617,1.468-2.418,2.981-4.81,4.5-7.2.366-.575.9-1.934,1.473-2.307,1.159-.752,4.078-.168,5.454-.152,2.324.027,5.944.4,7.531-1.767,2.407-3.286-3.113-4.7-5.3-4.788-2.39-.1-6.613.891-8.072-1.139-1.534-2.133-2.745-4.6-4.063-6.878-1.241-2.141-2.372-5.492-4.3-7.09-1.521-1.261-3.251-1.128-5.094-1.155l3.368,8.435c.5,1.247,3.6,6.8,2.261,7.61-.516.313-2.458.064-3.049.108-1.525.115-3.044.3-4.558.511-1.5.208-4.328,1.284-5.8.944-1.217-.281-1.9-1.945-2.61-2.963-1.048-1.5-1.709-1.166-3.566-1.194.406,1.734,1.314,3.841,1.288,5.615s-.995,3.853-1.452,5.575c1.732.026,2.414.379,3.466-.908.8-.977,1.542-2.852,2.831-3.066,1.569-.26,4.2.848,5.774,1.113,1.395.235,2.795.45,4.2.608.66.074,2.859-.1,3.382.235,1.323.856-1.949,6.309-2.484,7.54Z" transform="translate(-329.215 -100.334)"/>
            </g>
            <path id="Trazado_1028125" data-name="Trazado 1028125" d="M348.933,143.355l4.23.075c.4,0,1.071-.136,1.071-.48s-.787-.466-1.225-.466c0,0-3.6-.075-3.941-.075C348.16,142.409,348.06,143.355,348.933,143.355Z" transform="translate(-339.285 -122.501)"/>
            <g id="Grupo_1185966" data-name="Grupo 1185966" transform="translate(37.985 18.602)">
              <path id="Trazado_1028126" data-name="Trazado 1028126" d="M410.1,143.953c-.8,0-.82-3.9,0-4.228,1.235-.489,3.19,1.486,2.833,2.624C412.627,143.327,411.029,143.953,410.1,143.953Zm.473-3.187v2.155C412.291,142.424,412.428,141.344,410.574,140.766Z" transform="translate(-409.494 -139.648)"/>
            </g>
          </g>
          <g id="Grupo_1185970" data-name="Grupo 1185970" transform="translate(14.523 104.979)">
            <g id="Grupo_1185968" data-name="Grupo 1185968" transform="translate(0.528 0.466)">
              <rect id="Rectángulo_458517" data-name="Rectángulo 458517" width="12.973" height="7.318" transform="translate(22.32 18.412)" fill="#f2c96d"/>
              <rect id="Rectángulo_458518" data-name="Rectángulo 458518" width="12.973" height="7.135" transform="translate(22.32 11.277)" fill="#efa760"/>
              <path id="Trazado_1028127" data-name="Trazado 1028127" d="M402.313,353.953H385.96l1.864-19.906.123-1.3h11.134l.218,1.438Z" transform="translate(-346.843 -328.224)" fill="#fff"/>
              <path id="Trazado_1028128" data-name="Trazado 1028128" d="M401.374,334.188a9.62,9.62,0,0,1-1.121.426,20.367,20.367,0,0,1-3.941.8,9.165,9.165,0,0,1-3.506-.4,15.972,15.972,0,0,1-2.905-.965l.123-1.3h11.134Z" transform="translate(-348.919 -328.224)" fill="#efefef"/>
              <path id="Trazado_1028129" data-name="Trazado 1028129" d="M390.16,330.469v-2.045h11.133v2.045" transform="translate(-349.056 -325.945)" fill="#efa760"/>
              <path id="Trazado_1028130" data-name="Trazado 1028130" d="M399.659,323.184h0a1.7,1.7,0,0,0-1.618,1.181l-.416,1.3h4.069l-.416-1.3A1.7,1.7,0,0,0,399.659,323.184Z" transform="translate(-352.988 -323.184)" fill="#f46c7a"/>
              <path id="Trazado_1028131" data-name="Trazado 1028131" d="M371.072,361.838l-.625,1.561-3.889,9.7-.757,1.893v2.7H308.845v-3.96a1.7,1.7,0,0,0-.118-.634c-.691-1.808-4.33-2.143-5.233-6.975a13.187,13.187,0,0,1-.2-2.385h24.259c1.888,0,2.593,1.2,3.473,2.385a4.869,4.869,0,0,0,4.415,2.347h9.681c1.467,0,2.65-2.759,4.58-5.068a7.372,7.372,0,0,1,5.725-3.1h14.607A1.12,1.12,0,0,1,371.072,361.838Z" transform="translate(-303.29 -342.738)" fill="#424242"/>
              <path id="Trazado_1028132" data-name="Trazado 1028132" d="M331.359,377.482H314.264c-.579,0-.755-.562-.755-.979s.378-.94.755-.94H331.39c.66,0,1.212.2,1.212.962S331.946,377.482,331.359,377.482Z" transform="translate(-308.674 -350.779)" fill="#fff" opacity="0.2"/>
              <path id="Trazado_1028133" data-name="Trazado 1028133" d="M422.743,361.838l-.625,1.561H401.37a7.372,7.372,0,0,1,5.725-3.1H421.7A1.12,1.12,0,0,1,422.743,361.838Z" transform="translate(-354.962 -342.738)" fill="#fff" opacity="0.2"/>
              <path id="Trazado_1028134" data-name="Trazado 1028134" d="M331.022,369.945H303.493a13.187,13.187,0,0,1-.2-2.385h24.259C329.437,367.56,330.142,368.757,331.022,369.945Z" transform="translate(-303.29 -346.563)" fill="#fff" opacity="0.2"/>
              <path id="Trazado_1028135" data-name="Trazado 1028135" d="M372.611,387.34l-.757,1.893v2.7H314.9v-3.96a1.7,1.7,0,0,0-.118-.634Z" transform="translate(-309.343 -356.983)" fill="#f46c7a"/>
              <path id="Trazado_1028136" data-name="Trazado 1028136" d="M371.985,392.19v2.3H315.03v-2.3Z" transform="translate(-309.475 -359.538)" fill="#cc5068"/>
              <path id="Trazado_1028137" data-name="Trazado 1028137" d="M326.343,350.575H322.07l.45-5.919.237-3.17.331-4.377.132-1.789h1.973l.151,2.016.312,4.15.241,3.17Z" transform="translate(-313.184 -329.578)" fill="#fff"/>
              <path id="Trazado_1028138" data-name="Trazado 1028138" d="M326.477,337.336a1.956,1.956,0,0,1-.3.066,3.791,3.791,0,0,1-1.959-.293l.133-1.789h1.973Z" transform="translate(-314.317 -329.578)" fill="#efefef"/>
              <path id="Trazado_1028139" data-name="Trazado 1028139" d="M323.841,332.083h0a2.467,2.467,0,0,1-2.467-2.467v-.828h4.933v.828A2.467,2.467,0,0,1,323.841,332.083Z" transform="translate(-312.817 -326.136)" fill="#f46c7a"/>
              <path id="Trazado_1028140" data-name="Trazado 1028140" d="M425.612,342.655h-2.9L421.715,351h4.891Z" transform="translate(-365.68 -333.442)" fill="#fff"/>
              <path id="Trazado_1028141" data-name="Trazado 1028141" d="M426.411,340.664h-2.9l-.265-1.129a.551.551,0,0,1,.541-.66h2.354a.552.552,0,0,1,.541.66Z" transform="translate(-366.478 -331.451)" fill="#efa760"/>
            </g>
            <g id="Grupo_1185969" data-name="Grupo 1185969">
              <path id="Trazado_1028142" data-name="Trazado 1028142" d="M370.763,340.454c-.72-1.064-2.664-.7-3.758-.7-.538,0-2.6.3-2.963-.045-.123-.118-.106-.889-.123-1.039q-.131-1.094-.261-2.188c-.16-1.35-.386-2.708-.484-4.065-.064-.888.635-2.179-.382-2.691-.695-.35-3.051-.366-3.58.267-.507.607.053,1.787-.041,2.569l-.5,4.176c-.061.513.027,2.637-.358,3.01a2.132,2.132,0,0,1-.992-.039c-.118-.113-.107-.706-.132-.865q-.639-4.192-1.278-8.385c-.155-1.017-.361-2.041-.467-3.064-.07-.676.264-1.918-.037-2.465-.194-.352-.12-.258-.725-.258h-2.209c-.715,0-.592.091-.881-.485-.434-.867-.606-1.657-1.709-1.926a2.19,2.19,0,0,0-2.451,1.117c-.258.476-.165,1.294-.647,1.294a19.2,19.2,0,0,0-3.24.174c-.3.323-.2,1.881-.221,2.359-.029.583-.109,1.168-.164,1.75q-.782,8.345-1.563,16.691a6.614,6.614,0,0,1-.2,2.125c-.259.388-1.79.177-2.325.153-.481-.022-.449.087-.609-.207a5.375,5.375,0,0,1,0-1.72V335.881c0-.394.234-2.18-.043-2.412-.311-.261-2,0-2.385,0h-8.855c-.478,0-2.165-.29-2.556,0-.286.212-.081,1.757-.081,2.166v6.491c0,.546.129.858-.219,1.062-.415.243-1.671,0-2.161,0-.878,0-.853.136-1.052-.64l-3.993-15.512a7.145,7.145,0,0,0-.462-1.8c-.33-.527-.745-.4-1.344-.4-1.175,0-2.857-.326-3.987,0-.445.128-.461.258-.606.647a66.258,66.258,0,0,0-1.688,6.558l-2.216,8.61a8.059,8.059,0,0,1-.593,2.305c-.347.469-1.39.225-2.029.225-.381,0-1.453-.2-1.787,0-.436.256-.15,1.691-.08,2.249a8.34,8.34,0,0,0,2.232,4.927c1,1.014,3.018,1.791,3.222,3.289a27.094,27.094,0,0,1,0,3.539c0,1.191.168.9,1.278.9h55.507c.434,0,.7.055,1.049-.238.292-.246.068-1.6.068-2.045a3.482,3.482,0,0,1,.318-1.593l3.123-7.789L370.5,343C370.824,342.189,371.337,341.3,370.763,340.454Zm-10.819-9.862c.18-.22,1.448-.029,1.728-.029.418,0,1.192-.052.628.667-.258.329-1.114.193-1.6.174-.175-.007-.494.06-.608-.039A1.96,1.96,0,0,1,359.945,330.592Zm.2,1.759c.415,0,1.822-.2,2.07.046.267.268.214,1.8.255,2.146q.31,2.6.62,5.209H359.27ZM348.2,323.99a1.227,1.227,0,0,1,1.885-.609,2.286,2.286,0,0,1,.668,1.291h-2.771Zm-3.926,1.688c.264-.3,1.927-.061,2.41-.061h6.571c.163,0,1.06-.121,1.187,0a2.979,2.979,0,0,1,.017,1.038c-.139.157-.792.061-1.044.061h-2.874a49.028,49.028,0,0,1-5.741,0c-.087-.01-.453.062-.519,0A3.287,3.287,0,0,1,344.279,325.678Zm-.042,1.984h9.649c.259,0,.524-.06.659.089.222.245.2,1.293.246,1.61q.458,3.005.916,6.01l.668,4.381a11.125,11.125,0,0,0-3.785.379,9.589,9.589,0,0,0-4.16,3.282c-1.018,1.281-1.9,3.456-3.326,4.284a5.776,5.776,0,0,1-2.765.223Q343.288,337.792,344.237,327.662Zm-6.829,20.26c-.276.2-1.476,0-1.826,0a5.233,5.233,0,0,1-4.047-1.282c.24.048.484-.1.478-.549l-.028-3.022c-.005-.4-.139-.829-.484-.824s-.47.227-.462.837.031,2.3.04,2.964a.622.622,0,0,0,.024.125,11.381,11.381,0,0,0-2.317-2.453l-.006-.646c0-.407-.137-.833-.483-.828s-.468.227-.464.837c0,.066,0,.147,0,.236a4.18,4.18,0,0,0-.876-.127c-.276-.012-1.28.171-1.465,0s0-1.369,0-1.639h9.794c.379,0,1.9-.246,2.2,0,.236.189.03,1.851.03,2.169a19.171,19.171,0,0,1,0,3.754C337.458,347.771,337.584,347.791,337.407,347.922Zm-11.913-9.156v-4.35h10a12.636,12.636,0,0,1,2.028.055c.2.234,0,1.477,0,1.783v2.512c0,.316.2,1.5,0,1.75-.228.284-1.61.089-2.028.089h-9.314c-.133,0-.59.072-.685-.014C325.319,340.429,325.495,338.979,325.495,338.765Zm-9.207-11.183,4.017,15.607h-4l-.586-7.778q-.188-2.49-.375-4.979a6.1,6.1,0,0,1-.11-1.459C315.352,328.363,315.938,328.2,316.287,327.582Zm-.937,15.607H312.1q.534-7.079,1.068-14.159a2.9,2.9,0,0,0,.558.054,2.941,2.941,0,0,0,.558-.054Zm-1.5-17.4c.292,0,1.695-.168,1.864.046.206.261-.138,1.085-.273,1.314a2.022,2.022,0,0,1-1.721.988,2.089,2.089,0,0,1-1.993-2.349Zm-2.692,1.792c.228.4.96.807,1.077,1.154.046.137-.045.382-.04.526a20.959,20.959,0,0,1-.178,2.356q-.255,3.382-.51,6.764-.111,1.483-.224,2.965c-.025.332.077,1.407-.127,1.69-.394.545-3.2.151-4.017.151Q309.155,335.385,311.163,327.582Zm53.576,27.242c0,.392.236,2.088-.021,2.318-.08.071-.545,0-.648,0H313.406a31.511,31.511,0,0,1-4.158,0c-.128-.017-.438.055-.518-.025-.205-.206,0-1.676,0-1.98,0-.546.021-1.1-.015-1.64H365.27Q365.006,354.16,364.739,354.824Zm5.306-13.233-3.015,7.52-.782,1.949a4.807,4.807,0,0,1-.527,1.315c-.226.224-.1.1-.475.174a23.348,23.348,0,0,1-4.285,0H310.5a8.047,8.047,0,0,1-1.757,0c-.086-.021-.225.038-.3,0-.248-.118-.614-.743-.855-.957-.41-.365-.878-.662-1.313-1a7.965,7.965,0,0,1-3.093-6.46h11.89c3.945,0,7.949-.2,11.89,0,2.034.106,2.614,1.85,3.867,3.134a5.625,5.625,0,0,0,4.168,1.6c2.4.043,4.812,0,7.216,0a21.3,21.3,0,0,0,2.312,0c1.962-.219,3.016-2.643,4.051-4.075a9.548,9.548,0,0,1,4.42-3.8,12.747,12.747,0,0,1,4.024-.295h9.651C367.193,340.7,370.568,340.281,370.045,341.591Z" transform="translate(-302.173 -322.199)"/>
              <path id="Trazado_1028143" data-name="Trazado 1028143" d="M357.378,353.747l-.028-3.022c-.005-.4-.139-.829-.484-.824s-.47.227-.462.837.031,2.3.04,2.964S357.39,354.62,357.378,353.747Z" transform="translate(-330.744 -336.793)"/>
              <path id="Trazado_1028144" data-name="Trazado 1028144" d="M364.149,353.747l-.028-3.022c-.005-.4-.139-.829-.484-.824s-.47.227-.462.837.031,2.3.04,2.964S364.161,354.62,364.149,353.747Z" transform="translate(-334.311 -336.793)"/>
              <path id="Trazado_1028145" data-name="Trazado 1028145" d="M370.921,353.747l-.028-3.022c-.005-.4-.139-.829-.484-.824s-.47.227-.462.837.031,2.3.04,2.964S370.933,354.62,370.921,353.747Z" transform="translate(-337.878 -336.793)"/>
              <path id="Trazado_1028146" data-name="Trazado 1028146" d="M370.408,364.563c-.345,0-.47.227-.462.837s.031,2.3.04,2.964.946.918.935.045l-.028-3.022C370.887,364.984,370.754,364.558,370.408,364.563Z" transform="translate(-337.878 -344.517)"/>
            </g>
          </g>
        </g>
      </g>
    </g>
    <rect id="Rectángulo_456560-2" data-name="Rectángulo 456560" width="260" height="27" rx="6" transform="translate(-5265 -4869)" fill="#f2a4ab"/>
    <rect id="Rectángulo_458520" data-name="Rectángulo 458520" width="174" height="27" rx="6" transform="translate(-5265 -4678)" fill="#f2a4ab"/>
    <rect id="Rectángulo_458521" data-name="Rectángulo 458521" width="210" height="27" rx="6" transform="translate(-5265 -4556)" fill="#f2a4ab"/>
    <rect id="Rectángulo_458522" data-name="Rectángulo 458522" width="152" height="27" rx="6" transform="translate(-5265 -4390)" fill="#f2a4ab"/>
    <rect id="Rectángulo_458523" data-name="Rectángulo 458523" width="142" height="27" rx="6" transform="translate(-5265 -4245)" fill="#f2a4ab"/>
    <text id="Protección_de_marca_y_reputación:_impide_que_terceros_en_el_extranjero_reproduzcan_sin_autorización_el_nombre_el_logotipo_o_el_empaque_de_un_producto._Sin_el_registro_de_marca_en_el_país_de_destino_el_exportador_carece_de_respaldo_legal_frente_a_falsif" data-name="Protección de marca y reputación:   impide que terceros en el extranjero reproduzcan sin autorización el nombre, el logotipo o el empaque de un producto. Sin el registro de marca en el país de destino, el exportador carece de respaldo legal frente a falsif" transform="translate(-5258.711 -4865.158)" fill="#12263f" font-size="16" font-family="SegoeUI-Bold, Segoe UI" letter-spacing="0.003em" font-weight="700"><tspan x="0" y="17">Protección de marca y reputación:</tspan><tspan y="17" xml:space="preserve" font-family="SegoeUI, Segoe UI" font-weight="400">   impide </tspan><tspan x="0" y="41" font-family="SegoeUI, Segoe UI" font-weight="400">que terceros en el extranjero reproduzcan sin </tspan><tspan x="0" y="65" font-family="SegoeUI, Segoe UI" font-weight="400">autorización el nombre, el logotipo o el </tspan><tspan x="0" y="89" font-family="SegoeUI, Segoe UI" font-weight="400">empaque de un producto. Sin el registro de </tspan><tspan x="0" y="113" font-family="SegoeUI, Segoe UI" font-weight="400">marca en el país de destino, el exportador </tspan><tspan x="0" y="137" font-family="SegoeUI, Segoe UI" font-weight="400">carece de respaldo legal frente a falsificaciones.</tspan><tspan font-family="SegoeUI, Segoe UI" font-weight="400"><tspan x="0" y="161"></tspan></tspan><tspan x="0" y="185">Patentes y tecnología:</tspan><tspan y="185" xml:space="preserve" font-family="SegoeUI, Segoe UI" font-weight="400">   protege las </tspan><tspan x="0" y="209" font-family="SegoeUI, Segoe UI" font-weight="400">invenciones técnicas mediante estándares </tspan><tspan x="0" y="233" font-family="SegoeUI, Segoe UI" font-weight="400">elevados que impiden la copia o la imitación </tspan><tspan x="0" y="257" font-family="SegoeUI, Segoe UI" font-weight="400">ilegal de tecnología exportada.</tspan><tspan font-family="SegoeUI, Segoe UI" font-weight="400"><tspan x="0" y="281"></tspan></tspan><tspan x="0" y="305" xml:space="preserve">Denominaciones de origen:   </tspan><tspan y="305" font-family="SegoeUI, Segoe UI" font-weight="400">ampara los </tspan><tspan x="0" y="329" font-family="SegoeUI, Segoe UI" font-weight="400">productos cuya calidad se asocia a su </tspan><tspan x="0" y="353" font-family="SegoeUI, Segoe UI" font-weight="400">procedencia geográfica como el café de </tspan><tspan x="0" y="377" font-family="SegoeUI, Segoe UI" font-weight="400">Colombia e impide que otros productores </tspan><tspan x="0" y="401" font-family="SegoeUI, Segoe UI" font-weight="400">empleen esa denominación sin cumplir los </tspan><tspan x="0" y="425" font-family="SegoeUI, Segoe UI" font-weight="400">requisitos establecidos.</tspan><tspan font-family="SegoeUI, Segoe UI" font-weight="400"><tspan x="0" y="449"></tspan></tspan><tspan x="0" y="473" xml:space="preserve">Derechos de autor:   </tspan><tspan y="473" font-family="SegoeUI, Segoe UI" font-weight="400">resultan fundamentales </tspan><tspan x="0" y="497" font-family="SegoeUI, Segoe UI" font-weight="400">para la exportación de </tspan><tspan y="497" font-family="SegoeUI-Italic, Segoe UI" font-weight="400" font-style="italic">software</tspan><tspan y="497" font-family="SegoeUI, Segoe UI" font-weight="400">, música, </tspan><tspan x="0" y="521" font-family="SegoeUI, Segoe UI" font-weight="400">contenidos audiovisuales y publicaciones, ya </tspan><tspan x="0" y="545" font-family="SegoeUI, Segoe UI" font-weight="400">que aseguran el pago de regalías y el respeto a </tspan><tspan x="0" y="569" font-family="SegoeUI, Segoe UI" font-weight="400">la autoría.</tspan><tspan x="0" y="593"></tspan><tspan x="0" y="617" xml:space="preserve">Control aduanero:   </tspan><tspan y="617" font-family="SegoeUI, Segoe UI" font-weight="400">las autoridades aduaneras </tspan><tspan x="0" y="641" font-family="SegoeUI, Segoe UI" font-weight="400">están facultadas para retener e incautar </tspan><tspan x="0" y="665" font-family="SegoeUI, Segoe UI" font-weight="400">mercancías que vulneren derechos de </tspan><tspan x="0" y="689" font-family="SegoeUI, Segoe UI" font-weight="400">propiedad intelectual en el punto de ingreso al </tspan><tspan x="0" y="713" font-family="SegoeUI, Segoe UI" font-weight="400">territorio de destino. </tspan></text>
  </g>
</svg>
