<svg xmlns="http://www.w3.org/2000/svg" xmlns:xlink="http://www.w3.org/1999/xlink" width="150" height="150" viewBox="0 0 150 150">
  <defs>
    <clipPath id="clip-path">
      <rect id="Rectángulo_456277" data-name="Rectángulo 456277" width="150" height="150" transform="translate(-0.059 -0.059)" fill="#d35560"/>
    </clipPath>
  </defs>
  <g id="Grupo_1180099" data-name="Grupo 1180099" transform="translate(-413.192 -9435.133)">
    <g id="Grupo_1180081" data-name="Grupo 1180081" transform="translate(413.25 9435.191)">
      <g id="Grupo_1179924" data-name="Grupo 1179924" transform="translate(0 0)">
        <g id="Grupo_1179923" data-name="Grupo 1179923" transform="translate(0 0)" clip-path="url(#clip-path)">
          <path id="Trazado_1004716" data-name="Trazado 1004716" d="M74.59,149.181c-2.423,0-4.689-2.768-7.051-3-2.407-.235-5.167,2.037-7.5,1.574-2.367-.47-4.049-3.628-6.329-4.321-2.305-.7-5.459.985-7.662.069-2.222-.923-3.251-4.35-5.356-5.479s-5.541-.1-7.528-1.432-2.336-4.9-4.186-6.418-5.412-1.171-7.107-2.865-1.342-5.254-2.865-7.107-5.082-2.192-6.418-4.186-.3-5.41-1.432-7.527-4.556-3.135-5.48-5.356c-.916-2.2.77-5.357.07-7.662-.693-2.28-3.85-3.961-4.32-6.329C.962,86.809,3.234,84.048,3,81.642c-.231-2.363-3-4.629-3-7.052S2.768,69.9,3,67.539c.235-2.407-2.037-5.166-1.573-7.5.47-2.367,3.627-4.049,4.32-6.329.7-2.306-.985-5.459-.069-7.663.924-2.222,4.35-3.251,5.48-5.356s.1-5.54,1.432-7.528,4.9-2.336,6.418-4.186,1.171-5.412,2.866-7.107,5.254-1.342,7.107-2.865,2.192-5.082,4.186-6.418,5.41-.3,7.528-1.432,3.134-4.556,5.356-5.48c2.2-.916,5.357.77,7.663.069,2.28-.692,3.961-3.85,6.328-4.32C62.372.962,65.133,3.234,67.539,3c2.363-.231,4.629-3,7.052-3s4.689,2.768,7.051,3c2.407.235,5.167-2.037,7.5-1.574,2.367.47,4.049,3.628,6.329,4.321,2.305.7,5.459-.985,7.662-.069,2.222.923,3.251,4.35,5.356,5.48s5.541.1,7.528,1.432,2.337,4.9,4.186,6.418,5.412,1.171,7.107,2.866,1.342,5.254,2.865,7.107,5.082,2.192,6.418,4.186.3,5.41,1.432,7.528,4.556,3.135,5.479,5.356c.916,2.2-.77,5.357-.069,7.662.693,2.28,3.85,3.961,4.32,6.328.463,2.333-1.809,5.093-1.574,7.5.231,2.363,3,4.629,3,7.051s-2.768,4.689-3,7.052c-.235,2.406,2.037,5.166,1.574,7.5-.47,2.367-3.627,4.049-4.32,6.329-.7,2.305.985,5.459.069,7.662-.924,2.222-4.35,3.251-5.48,5.357s-.1,5.54-1.432,7.528-4.9,2.336-6.418,4.186-1.171,5.412-2.866,7.107-5.254,1.342-7.107,2.865-2.192,5.081-4.186,6.418-5.41.3-7.528,1.432-3.134,4.557-5.356,5.48c-2.2.916-5.357-.77-7.662-.069-2.28.692-3.961,3.85-6.328,4.32-2.333.463-5.093-1.809-7.5-1.574-2.363.231-4.629,3-7.052,3" transform="translate(0.35 0.35)" fill="#d35560"/>
          <path id="Trazado_1004717" data-name="Trazado 1004717" d="M14,81.535a67.535,67.535,0,1,1,67.535,67.535A67.535,67.535,0,0,1,14,81.535" transform="translate(-6.594 -6.594)" fill="#4d787e"/>
          <path id="Trazado_1004718" data-name="Trazado 1004718" d="M132.334,270.213c-.179-.759-.348-1.543-.509-2.312l-2.36-.3q1.057-.562,2.072-1.13-.225-1.156-.423-2.309c.54.53,1.093,1.077,1.663,1.6q.994-.618,1.945-1.239-.422,1.09-.87,2.178c.589.505,1.191,1.019,1.808,1.521l-2.372-.177q-.464,1.087-.955,2.171" transform="translate(-63.866 -130.676)" fill="#ffffc5"/>
          <path id="Trazado_1004719" data-name="Trazado 1004719" d="M113.789,266.762c-.064-.775-.113-1.577-.157-2.361l-2.288-.652q1.129-.4,2.219-.806-.049-1.177-.072-2.347c.455.6.919,1.229,1.4,1.829q1.075-.461,2.108-.932-.58,1.014-1.185,2.022c.507.586,1.024,1.192,1.561,1.772-.776-.161-1.546-.353-2.319-.528q-.621,1-1.269,2" transform="translate(-54.878 -128.909)" fill="#ffffc5"/>
          <path id="Trazado_1004720" data-name="Trazado 1004720" d="M96.012,260.643c.058-.789.127-1.579.2-2.363l-2.166-.983c.783-.146,1.556-.305,2.315-.467q.129-1.169.28-2.329c.358.667.728,1.343,1.113,2.021q1.132-.3,2.225-.608-.726.916-1.477,1.822c.413.657.836,1.325,1.277,1.987l-2.214-.87q-.766.9-1.556,1.79" transform="translate(-46.299 -125.885)" fill="#ffffc5"/>
          <path id="Trazado_1004721" data-name="Trazado 1004721" d="M79.414,251.99q.265-1.159.551-2.3c-.663-.434-1.344-.843-1.993-1.3.783-.008,1.584-.069,2.356-.112q.3-1.136.623-2.258.384,1.067.8,2.159c.766-.066,1.54-.171,2.29-.266q-.856.8-1.734,1.584.466,1.066.968,2.153l-2.062-1.187c-.594.517-1.2,1.036-1.8,1.531" transform="translate(-38.325 -121.677)" fill="#ffffc5"/>
          <path id="Trazado_1004722" data-name="Trazado 1004722" d="M64.353,241.022q.432-1.105.885-2.194c-.593-.526-1.215-1.021-1.777-1.582.769.115,1.567.177,2.343.242q.464-1.078.948-2.139.225,1.109.481,2.247c.755.064,1.543.065,2.3.082q-.965.664-1.952,1.311.3,1.12.643,2.265l-1.87-1.471c-.669.429-1.327.83-2,1.238" transform="translate(-31.127 -116.386)" fill="#ffffc5"/>
          <path id="Trazado_1004723" data-name="Trazado 1004723" d="M51.149,227.995q.589-1.028,1.2-2.037l-.779-.9c-.258-.3-.494-.62-.741-.929l1.128.317,1.149.273q.617-1,1.25-1.973.063,1.127.152,2.286l1.121.234,1.138.191q-1.055.516-2.127,1.012.14,1.148.309,2.327c-.545-.576-1.1-1.142-1.635-1.727q-1.07.473-2.159.926" transform="translate(-24.859 -110.134)" fill="#ffffc5"/>
          <path id="Trazado_1004724" data-name="Trazado 1004724" d="M39.841,213.191q.733-.928,1.481-1.835c-.212-.336-.434-.664-.637-1l-.594-1.031c.724.322,1.417.646,2.16.923.507-.6,1.006-1.179,1.532-1.767-.079.754-.131,1.508-.186,2.282.723.269,1.425.535,2.166.758-.746.236-1.5.467-2.255.686-.022.772-.029,1.551-.032,2.344-.451-.652-.939-1.279-1.359-1.952q-1.13.31-2.275.6" transform="translate(-19.411 -103.056)" fill="#ffffc5"/>
          <path id="Trazado_1004725" data-name="Trazado 1004725" d="M30.615,196.931q.862-.808,1.735-1.593c-.343-.716-.614-1.462-.909-2.2.671.425,1.309.848,1.992,1.237.582-.511,1.181-1.02,1.787-1.522-.212.742-.356,1.472-.529,2.229.683.37,1.327.742,2.024,1.074-.778.124-1.554.238-2.322.338-.159.771-.262,1.529-.386,2.314-.358-.707-.739-1.4-1.051-2.133q-1.165.138-2.342.253" transform="translate(-14.835 -95.309)" fill="#ffffc5"/>
          <path id="Trazado_1004726" data-name="Trazado 1004726" d="M24.019,179.289q.973-.669,1.952-1.313c-.235-.758-.377-1.54-.566-2.31.6.522,1.176,1.033,1.781,1.524.651-.417,1.333-.834,2-1.237-.326.7-.579,1.4-.86,2.124.617.469,1.213.929,1.836,1.366-.791.008-1.557,0-2.34-.016-.284.741-.492,1.474-.731,2.231-.259-.75-.515-1.5-.717-2.268q-1.174-.038-2.355-.1" transform="translate(-11.564 -86.782)" fill="#ffffc5"/>
          <path id="Trazado_1004727" data-name="Trazado 1004727" d="M20.215,160.664q1.062-.516,2.127-1.005c-.119-.785-.143-1.579-.214-2.369.513.605,1.005,1.2,1.532,1.774.706-.315,1.441-.624,2.164-.924-.429.647-.781,1.3-1.168,1.972.539.556,1.062,1.1,1.608,1.627-.781-.112-1.537-.237-2.309-.368-.392.69-.711,1.384-1.058,2.1l-.21-1.171c-.066-.391-.1-.786-.158-1.179q-1.155-.214-2.313-.453" transform="translate(-9.677 -77.667)" fill="#ffffc5"/>
          <path id="Trazado_1004728" data-name="Trazado 1004728" d="M19.269,141.764q1.128-.352,2.255-.679c0-.793.074-1.584.135-2.374.421.674.8,1.333,1.259,1.981.751-.207,1.5-.406,2.266-.595-.5.578-.959,1.172-1.441,1.779.453.63.873,1.246,1.353,1.848q-1.134-.34-2.237-.706c-.483.624-.9,1.263-1.353,1.915-.018-.792-.055-1.585-.018-2.378q-1.109-.382-2.218-.79" transform="translate(-9.207 -68.451)" fill="#ffffc5"/>
          <path id="Trazado_1004729" data-name="Trazado 1004729" d="M21.174,123q1.169-.181,2.333-.336c.074-.39.132-.783.218-1.169l.268-1.159c.312.729.595,1.437.951,2.146.778-.092,1.538-.178,2.325-.25-.574.5-1.122,1.015-1.688,1.543.353.69.672,1.36,1.067,2.028-.706-.335-1.426-.681-2.114-1.031-.553.548-1.077,1.115-1.619,1.694.111-.785.174-1.577.333-2.355q-1.039-.543-2.074-1.112" transform="translate(-10.152 -59.337)" fill="#ffffc5"/>
          <path id="Trazado_1004730" data-name="Trazado 1004730" d="M25.928,104.79q1.182,0,2.357.018c.239-.757.539-1.491.832-2.228.2.769.37,1.51.616,2.264.779.025,1.552.056,2.341.1-.65.4-1.263.834-1.9,1.271.247.736.46,1.445.75,2.165-.649-.438-1.3-.887-1.934-1.337-.633.458-1.233.941-1.857,1.432.226-.761.412-1.533.684-2.279q-.946-.692-1.884-1.411" transform="translate(-12.51 -50.53)" fill="#ffffc5"/>
          <path id="Trazado_1004731" data-name="Trazado 1004731" d="M33.429,87.557q1.169.173,2.325.37c.346-.714.77-1.386,1.158-2.077.083.789.155,1.557.267,2.329.761.139,1.54.3,2.306.457-.718.293-1.376.634-2.077.969.134.765.248,1.5.414,2.252-.582-.533-1.146-1.067-1.705-1.608-.709.35-1.361.744-2.054,1.134.327-.722.644-1.45,1.02-2.149q-.833-.827-1.654-1.678" transform="translate(-16.231 -42.232)" fill="#ffffc5"/>
          <path id="Trazado_1004732" data-name="Trazado 1004732" d="M43.489,71.68q1.128.345,2.241.71c.461-.645.972-1.253,1.456-1.881q-.054,1.188-.083,2.343,1.117.389,2.219.8c-.749.187-1.473.41-2.2.647q.023,1.16.07,2.287-.728-.91-1.438-1.839c-.753.241-1.471.524-2.2.813l.643-1,.688-.97q-.7-.943-1.388-1.908" transform="translate(-21.221 -34.623)" fill="#ffffc5"/>
          <path id="Trazado_1004733" data-name="Trazado 1004733" d="M55.356,57.5q1.064.506,2.109,1.031l1.72-1.643q-.226,1.17-.421,2.312,1.046.548,2.073,1.115c-.759.084-1.53.176-2.278.31Q58.413,61.78,58.3,62.9q-.585-1.008-1.152-2.034l-1.161.215c-.384.079-.76.17-1.144.259.508-.61,1.064-1.175,1.611-1.75q-.556-1.038-1.094-2.095" transform="translate(-26.851 -27.867)" fill="#ffffc5"/>
          <path id="Trazado_1004734" data-name="Trazado 1004734" d="M69.217,45.319c.65.436,1.293.879,1.939,1.34l1.938-1.379q-.394,1.129-.753,2.233.952.7,1.883,1.406c-.754-.018-1.544-.058-2.3-.035q-.311,1.124-.59,2.223-.431-1.084-.841-2.184c-.774.032-1.582.045-2.354.123.592-.529,1.238-.991,1.854-1.49q-.4-1.111-.775-2.237" transform="translate(-33.447 -22.109)" fill="#ffffc5"/>
          <path id="Trazado_1004735" data-name="Trazado 1004735" d="M84.831,34.886c.578.528,1.158,1.078,1.724,1.623l2.117-1.086q-.555,1.061-1.073,2.1.838.828,1.652,1.667c-.745-.133-1.508-.269-2.274-.382q-.473,1.07-.908,2.119-.266-1.138-.51-2.288c-.77-.084-1.562-.176-2.349-.232.677-.412,1.372-.8,2.057-1.2q-.23-1.158-.436-2.33" transform="translate(-40.923 -16.954)" fill="#ffffc5"/>
          <path id="Trazado_1004736" data-name="Trazado 1004736" d="M101.868,26.946q.744.928,1.463,1.866c.752-.251,1.5-.517,2.255-.756-.476.632-.93,1.284-1.376,1.919q.7.943,1.382,1.893-1.075-.365-2.191-.718c-.421.651-.822,1.313-1.214,1.961q-.094-1.166-.163-2.342-1.124-.3-2.289-.582l2.213-.874c-.035-.785-.066-1.583-.081-2.367" transform="translate(-49.12 -13.015)" fill="#ffffc5"/>
          <path id="Trazado_1004737" data-name="Trazado 1004737" d="M119.95,21.733q.6,1.029,1.166,2.064c.781-.136,1.56-.289,2.344-.41-.566.55-1.113,1.13-1.649,1.69q.554,1.037,1.082,2.079-1.008-.522-2.058-1.037c-.516.571-1.01,1.175-1.494,1.755q.082-1.167.19-2.341-1.066-.463-2.174-.916l2.318-.536c.083-.782.173-1.578.276-2.349" transform="translate(-57.86 -10.43)" fill="#ffffc5"/>
          <path id="Trazado_1004738" data-name="Trazado 1004738" d="M138.658,19.35q.436,1.108.845,2.216l2.378-.059q-.962.715-1.882,1.43.394,1.11.761,2.219-.92-.668-1.882-1.336c-.595.5-1.175,1.012-1.741,1.515q.256-1.142.539-2.285-.986-.619-2.013-1.234l2.372-.18c.2-.761.407-1.532.623-2.286" transform="translate(-66.94 -9.248)" fill="#ffffc5"/>
          <path id="Trazado_1004739" data-name="Trazado 1004739" d="M157.568,19.831c.179.759.348,1.543.509,2.312l2.36.3q-1.057.562-2.072,1.13.224,1.156.423,2.309c-.54-.53-1.093-1.077-1.662-1.6q-.994.618-1.945,1.239.422-1.09.87-2.178c-.589-.505-1.191-1.02-1.808-1.521l2.372.177q.464-1.087.955-2.171" transform="translate(-76.155 -9.486)" fill="#ffffc5"/>
          <path id="Trazado_1004740" data-name="Trazado 1004740" d="M176.272,23.17c.064.775.113,1.577.157,2.361l2.288.652q-1.129.4-2.219.806.049,1.177.072,2.347c-.455-.6-.918-1.229-1.4-1.829q-1.075.461-2.108.932.58-1.014,1.185-2.022c-.506-.586-1.024-1.192-1.561-1.771.776.161,1.546.352,2.319.527q.622-1,1.269-2" transform="translate(-85.303 -11.142)" fill="#ffffc5"/>
          <path id="Trazado_1004741" data-name="Trazado 1004741" d="M194.147,29.313c-.058.789-.126,1.578-.2,2.363l2.166.983c-.783.147-1.556.306-2.315.467q-.128,1.169-.28,2.329c-.358-.667-.728-1.343-1.113-2.021q-1.132.3-2.225.608.726-.916,1.476-1.822c-.412-.657-.836-1.325-1.277-1.987l2.214.87q.766-.9,1.556-1.79" transform="translate(-93.98 -14.189)" fill="#ffffc5"/>
          <path id="Trazado_1004742" data-name="Trazado 1004742" d="M210.61,38.133q-.265,1.159-.551,2.3c.663.434,1.344.843,1.993,1.3-.783.008-1.584.069-2.356.112q-.3,1.136-.623,2.258-.384-1.067-.8-2.159c-.766.066-1.54.171-2.29.266q.856-.8,1.734-1.584-.466-1.066-.968-2.153l2.062,1.187c.594-.517,1.2-1.036,1.8-1.531" transform="translate(-101.818 -18.564)" fill="#ffffc5"/>
          <path id="Trazado_1004743" data-name="Trazado 1004743" d="M225.67,49.168q-.432,1.105-.884,2.194c.593.526,1.215,1.021,1.777,1.582-.769-.115-1.567-.177-2.343-.242q-.464,1.078-.948,2.139-.225-1.109-.481-2.246c-.755-.064-1.543-.065-2.3-.082q.966-.664,1.952-1.311-.3-1.12-.643-2.264l1.87,1.47c.669-.429,1.326-.83,2-1.238" transform="translate(-109.015 -23.922)" fill="#ffffc5"/>
          <path id="Trazado_1004744" data-name="Trazado 1004744" d="M239.007,62.051q-.589,1.028-1.2,2.037l.779.9c.258.3.493.62.742.929L238.2,65.6l-1.149-.273q-.617,1-1.25,1.973-.063-1.127-.152-2.286l-1.121-.234-1.137-.191q1.055-.516,2.127-1.012-.14-1.148-.309-2.327c.545.576,1.1,1.142,1.635,1.727q1.071-.473,2.159-.926" transform="translate(-115.416 -30.03)" fill="#ffffc5"/>
          <path id="Trazado_1004745" data-name="Trazado 1004745" d="M250.33,76.837q-.733.928-1.481,1.835c.211.335.434.664.636,1l.594,1.031c-.724-.322-1.417-.646-2.16-.923-.507.6-1.006,1.179-1.532,1.767.079-.754.131-1.508.186-2.282-.723-.269-1.425-.535-2.166-.757.746-.236,1.5-.467,2.255-.686.022-.772.03-1.55.032-2.343.451.652.939,1.279,1.359,1.952q1.13-.31,2.275-.6" transform="translate(-120.879 -37.09)" fill="#ffffc5"/>
          <path id="Trazado_1004746" data-name="Trazado 1004746" d="M259.38,93.209q-.862.808-1.735,1.593c.343.716.614,1.462.909,2.2-.671-.425-1.309-.848-1.992-1.237-.582.511-1.181,1.02-1.787,1.522.212-.742.356-1.472.529-2.229-.683-.37-1.327-.742-2.024-1.074.778-.124,1.554-.238,2.322-.338.159-.771.262-1.529.385-2.314.358.708.739,1.4,1.051,2.134q1.165-.138,2.342-.253" transform="translate(-125.279 -44.949)" fill="#ffffc5"/>
          <path id="Trazado_1004747" data-name="Trazado 1004747" d="M265.935,110.814q-.973.67-1.952,1.313c.235.758.377,1.54.566,2.31-.6-.521-1.176-1.033-1.781-1.524-.651.417-1.333.834-2,1.237.327-.7.579-1.4.86-2.124-.617-.469-1.213-.929-1.836-1.366.791-.007,1.557,0,2.34.016.284-.741.492-1.474.731-2.231.259.75.515,1.5.717,2.268q1.174.038,2.355.1" transform="translate(-128.509 -53.44)" fill="#ffffc5"/>
          <path id="Trazado_1004748" data-name="Trazado 1004748" d="M269.832,129.258q-1.062.516-2.127,1.005c.119.785.143,1.579.214,2.369-.513-.605-1.005-1.2-1.532-1.774-.706.315-1.441.624-2.164.924.429-.647.781-1.3,1.168-1.972-.539-.556-1.062-1.1-1.608-1.627.781.112,1.537.237,2.309.367.392-.69.711-1.383,1.058-2.1l.21,1.171c.066.391.1.786.158,1.179q1.155.214,2.313.453" transform="translate(-130.489 -62.373)" fill="#ffffc5"/>
          <path id="Trazado_1004749" data-name="Trazado 1004749" d="M270.909,148.113q-1.128.352-2.255.679c0,.793-.074,1.584-.135,2.374-.421-.674-.8-1.333-1.259-1.981-.751.207-1.5.406-2.266.595.5-.578.959-1.172,1.441-1.779-.453-.63-.873-1.246-1.353-1.848q1.134.34,2.237.706c.483-.624.9-1.263,1.353-1.915.018.793.055,1.585.018,2.378q1.109.383,2.218.79" transform="translate(-131.09 -71.544)" fill="#ffffc5"/>
          <path id="Trazado_1004750" data-name="Trazado 1004750" d="M268.826,166.968q-1.17.181-2.334.336c-.074.39-.132.783-.218,1.169l-.268,1.159c-.312-.729-.595-1.437-.951-2.146-.778.092-1.538.178-2.326.25.574-.5,1.122-1.015,1.689-1.543-.353-.69-.672-1.36-1.067-2.028.706.335,1.426.681,2.114,1.031.553-.548,1.077-1.115,1.619-1.694-.111.785-.174,1.577-.333,2.355q1.039.542,2.074,1.111" transform="translate(-129.966 -80.748)" fill="#ffffc5"/>
          <path id="Trazado_1004751" data-name="Trazado 1004751" d="M264.024,185.4q-1.182,0-2.357-.018c-.24.757-.539,1.491-.832,2.228-.2-.769-.37-1.51-.616-2.264-.779-.025-1.552-.056-2.341-.1.65-.4,1.263-.834,1.9-1.271-.247-.735-.46-1.445-.75-2.165.649.437,1.3.886,1.934,1.337.633-.458,1.233-.941,1.857-1.431-.226.76-.412,1.532-.684,2.278q.946.692,1.884,1.411" transform="translate(-127.56 -89.783)" fill="#ffffc5"/>
          <path id="Trazado_1004752" data-name="Trazado 1004752" d="M256.61,202.53q-1.169-.173-2.325-.37c-.346.714-.77,1.386-1.158,2.077-.083-.789-.155-1.557-.267-2.329-.761-.139-1.54-.3-2.306-.457.718-.293,1.376-.635,2.077-.969-.134-.765-.248-1.5-.414-2.252.583.533,1.146,1.067,1.705,1.608.71-.35,1.361-.744,2.054-1.135-.327.722-.644,1.45-1.02,2.149q.832.827,1.654,1.678" transform="translate(-123.928 -97.974)" fill="#ffffc5"/>
          <path id="Trazado_1004753" data-name="Trazado 1004753" d="M246.77,218.341q-1.128-.344-2.241-.71c-.461.645-.972,1.253-1.456,1.881q.054-1.188.083-2.343-1.117-.389-2.219-.8c.749-.187,1.473-.41,2.2-.647q-.023-1.16-.07-2.287.728.91,1.438,1.839c.753-.241,1.471-.524,2.2-.813l-.643,1-.688.97q.7.943,1.388,1.908" transform="translate(-119.158 -105.517)" fill="#ffffc5"/>
          <path id="Trazado_1004754" data-name="Trazado 1004754" d="M234.741,232.58q-1.064-.506-2.109-1.031l-1.72,1.643q.226-1.17.421-2.312-1.046-.548-2.073-1.115c.759-.084,1.53-.176,2.278-.31q.146-1.154.263-2.279.585,1.007,1.152,2.034l1.161-.215c.384-.079.76-.17,1.144-.259-.508.61-1.064,1.175-1.611,1.75q.556,1.038,1.094,2.095" transform="translate(-113.365 -112.331)" fill="#ffffc5"/>
          <path id="Trazado_1004755" data-name="Trazado 1004755" d="M220.791,244.946c-.65-.436-1.293-.879-1.939-1.34l-1.938,1.379q.393-1.129.753-2.233-.952-.7-1.883-1.406c.754.018,1.544.058,2.3.035q.311-1.125.59-2.223.431,1.084.842,2.184c.774-.032,1.581-.045,2.353-.124-.591.529-1.238.991-1.854,1.49q.4,1.111.775,2.237" transform="translate(-106.68 -118.275)" fill="#ffffc5"/>
          <path id="Trazado_1004756" data-name="Trazado 1004756" d="M205.223,255.164c-.578-.528-1.158-1.078-1.724-1.622l-2.117,1.086q.555-1.061,1.072-2.1-.838-.829-1.652-1.668c.745.133,1.508.269,2.274.382q.472-1.069.908-2.119.266,1.139.51,2.289c.77.083,1.562.175,2.349.231-.677.413-1.371.8-2.057,1.2q.23,1.157.436,2.329" transform="translate(-99.25 -123.215)" fill="#ffffc5"/>
          <path id="Trazado_1004757" data-name="Trazado 1004757" d="M188.367,262.987q-.744-.928-1.463-1.866c-.752.251-1.5.517-2.255.756.476-.632.931-1.284,1.376-1.919q-.7-.943-1.382-1.894,1.075.365,2.191.718c.421-.651.822-1.313,1.214-1.961q.094,1.166.163,2.342,1.124.3,2.289.582l-2.213.874c.035.785.066,1.583.081,2.367" transform="translate(-91.235 -127.036)" fill="#ffffc5"/>
          <path id="Trazado_1004758" data-name="Trazado 1004758" d="M170.042,268.223q-.6-1.029-1.166-2.064c-.781.136-1.56.289-2.344.41.566-.55,1.113-1.13,1.649-1.69q-.554-1.037-1.082-2.079,1.008.522,2.058,1.037c.516-.571,1.01-1.175,1.495-1.755q-.082,1.167-.191,2.341,1.066.463,2.174.916l-2.318.536c-.083.782-.172,1.578-.276,2.349" transform="translate(-82.252 -129.645)" fill="#ffffc5"/>
          <path id="Trazado_1004759" data-name="Trazado 1004759" d="M151.223,270.76q-.435-1.108-.845-2.216L148,268.6q.962-.715,1.882-1.431-.394-1.109-.761-2.219.92.668,1.882,1.336c.595-.5,1.175-1.012,1.741-1.515q-.256,1.142-.539,2.285.986.618,2.013,1.233l-2.372.181c-.2.76-.407,1.532-.623,2.285" transform="translate(-73.059 -130.981)" fill="#ffffc5"/>
          <path id="Trazado_1004760" data-name="Trazado 1004760" d="M92.062,148.9A56.837,56.837,0,1,1,148.9,92.062,56.9,56.9,0,0,1,92.062,148.9" transform="translate(-17.122 -17.122)" fill="#d35560"/>
        </g>
      </g>
      <g id="Grupo_1180053" data-name="Grupo 1180053" transform="translate(39.422 38.995)">
        <rect id="Rectángulo_401104" data-name="Rectángulo 401104" width="71.038" height="71.894" transform="translate(0)" fill="#d35560"/>
      </g>
    </g>
    <g id="Grupo_1180449" data-name="Grupo 1180449" transform="translate(365.832 9379.802)">
      <path id="Trazado_1021976" data-name="Trazado 1021976" d="M186.82,125.871v.019a1.091,1.091,0,0,1-1.091,1.09H117.091A1.091,1.091,0,0,1,116,125.89v-.019a1.092,1.092,0,0,1,1.091-1.091H185.73A1.092,1.092,0,0,1,186.82,125.871Z" transform="translate(-29.054 -29.049)" fill="#616161"/>
      <path id="Trazado_1021977" data-name="Trazado 1021977" d="M727.79,180.64v3.618a1.1,1.1,0,0,1-2.19,0V180.64Z" transform="translate(-582.44 -79.758)" fill="#616161"/>
      <path id="Trazado_1021978" data-name="Trazado 1021978" d="M252.84,180.64v3.618a1.1,1.1,0,0,1-2.19,0V180.64Z" transform="translate(-151.287 -79.758)" fill="#616161"/>
      <path id="Trazado_1021979" data-name="Trazado 1021979" d="M628.24,520.45v14.371h20.146V520.45Zm13.666,11H634.72a1.475,1.475,0,1,1,0-2.951h7.186a1.475,1.475,0,1,1,0,2.951Zm0-4.673H634.72a1.475,1.475,0,1,1,0-2.951h7.186a1.475,1.475,0,1,1,0,2.951Z" transform="translate(-494.058 -388.233)" fill="#ff3d00"/>
      <path id="Trazado_1021980" data-name="Trazado 1021980" d="M153.29,520.45v14.371h20.146V520.45Zm13.666,11H159.77a1.475,1.475,0,0,1,0-2.951h7.186a1.475,1.475,0,1,1,0,2.951Zm0-4.673H159.77a1.475,1.475,0,1,1,0-2.951h7.186a1.475,1.475,0,1,1,0,2.951Z" transform="translate(-62.905 -388.233)" fill="#388e3c"/>
      <path id="Trazado_1021981" data-name="Trazado 1021981" d="M423,826.98H405.59l.44-1.874,1.9-3.026H420.66l1.9,3.026Z" transform="translate(-291.939 -662.048)" fill="#616161"/>
      <path id="Trazado_1021982" data-name="Trazado 1021982" d="M487.905,447.09v31.629H485.17V447.09A6.373,6.373,0,0,0,487.905,447.09Z" transform="translate(-364.181 -321.638)" fill="#6d4c41"/>
      <path id="Trazado_1021983" data-name="Trazado 1021983" d="M469.946,346.388a3.4,3.4,0,1,1-3.4-3.4A3.4,3.4,0,0,1,469.946,346.388Z" transform="translate(-344.191 -227.137)" fill="#ffc400"/>
      <path id="Trazado_1021984" data-name="Trazado 1021984" d="M487.905,180.64v12.172a6.373,6.373,0,0,0-2.735,0V180.64Z" transform="translate(-364.181 -79.758)" fill="#6d4c41"/>
      <g id="Grupo_1180447" data-name="Grupo 1180447" transform="translate(86.024 96.653)" opacity="0.5">
        <path id="Trazado_1021985" data-name="Trazado 1021985" d="M176.82,135.871v.019a1.091,1.091,0,0,1-1.091,1.09H107.091A1.091,1.091,0,0,1,106,135.89v-.019a1.092,1.092,0,0,1,1.091-1.091H175.73A1.092,1.092,0,0,1,176.82,135.871Z" transform="translate(-106 -134.78)" fill="#fff"/>
        <path id="Trazado_1021986" data-name="Trazado 1021986" d="M717.79,190.64v3.618a1.1,1.1,0,0,1-2.19,0V190.64Z" transform="translate(-659.386 -185.489)" fill="#fff"/>
        <path id="Trazado_1021987" data-name="Trazado 1021987" d="M242.84,190.64v3.618a1.1,1.1,0,0,1-2.19,0V190.64Z" transform="translate(-228.233 -185.489)" fill="#fff"/>
        <path id="Trazado_1021988" data-name="Trazado 1021988" d="M618.24,530.45v14.371h20.146V530.45Zm13.666,11H624.72a1.475,1.475,0,0,1,0-2.951h7.186a1.475,1.475,0,1,1,0,2.951Zm0-4.673H624.72a1.475,1.475,0,0,1,0-2.951h7.186a1.475,1.475,0,1,1,0,2.951Z" transform="translate(-571.004 -493.964)" fill="#fff"/>
        <path id="Trazado_1021989" data-name="Trazado 1021989" d="M143.29,530.45v14.371h20.146V530.45Zm13.666,11H149.77a1.475,1.475,0,1,1,0-2.951h7.186a1.475,1.475,0,1,1,0,2.951Zm0-4.673H149.77a1.475,1.475,0,1,1,0-2.951h7.186a1.475,1.475,0,1,1,0,2.951Z" transform="translate(-139.851 -493.964)" fill="#fff"/>
        <path id="Trazado_1021990" data-name="Trazado 1021990" d="M413,836.98H395.59l.44-1.874,1.9-3.026H410.66l1.9,3.026Z" transform="translate(-368.886 -767.779)" fill="#fff"/>
        <path id="Trazado_1021991" data-name="Trazado 1021991" d="M477.905,457.09v31.629H475.17V457.09A6.373,6.373,0,0,0,477.905,457.09Z" transform="translate(-441.127 -427.368)" fill="#fff"/>
        <path id="Trazado_1021992" data-name="Trazado 1021992" d="M459.946,356.388a3.4,3.4,0,1,1-3.4-3.4A3.4,3.4,0,0,1,459.946,356.388Z" transform="translate(-421.138 -332.868)" fill="#fff"/>
        <path id="Trazado_1021993" data-name="Trazado 1021993" d="M477.905,190.64v12.172a6.373,6.373,0,0,0-2.735,0V190.64Z" transform="translate(-441.127 -185.489)" fill="#fff"/>
      </g>
      <g id="Grupo_1180448" data-name="Grupo 1180448" transform="translate(83.995 92.78)">
        <path id="Trazado_1021994" data-name="Trazado 1021994" d="M103.033,97.931h.085a.465.465,0,0,1,.085.007c.029.007.056.007.084.012a1.459,1.459,0,0,1,.326.1c.022.009.042.018.064.03l.025.012c.022.011.044.022.065.035l.074.045.072.05c.024.018.046.035.068.054s.043.037.065.057.041.04.061.062c.006,0,.009.01.014.015s.034.038.051.058.037.046.054.07l.031.043,1.676,2.3H138.79l1.676-2.3.031-.043c.018-.024.036-.048.054-.07s.033-.04.051-.058a.247.247,0,0,1,.026-.028c.014-.015.029-.029.042-.042l.008-.009c.02-.018.04-.036.061-.053s.043-.036.065-.053l.018-.012.026-.018.031-.021c.024-.016.049-.031.074-.045s.037-.021.056-.03l.022-.011.016-.008.037-.017.029-.013.074-.029.013,0,.044-.015.024-.007c.025-.007.05-.015.075-.02h.008l.083-.017c.028-.006.056-.009.084-.012s.057-.006.085-.007h.085Zm53.647-5.151H88.042A4.046,4.046,0,0,0,84,96.822v.019a4.045,4.045,0,0,0,4.042,4.041h68.639a4.045,4.045,0,0,0,4.042-4.041v-.019A4.046,4.046,0,0,0,156.681,92.78Zm1.091,4.057a1.091,1.091,0,0,1-1.091,1.09H88.042a1.091,1.091,0,0,1-1.091-1.086v-.019a1.092,1.092,0,0,1,1.091-1.091h68.639a1.092,1.092,0,0,1,1.091,1.091Zm-54.738,1.094h.085a.465.465,0,0,1,.085.007c.029.007.056.007.084.012a1.459,1.459,0,0,1,.326.1c.022.009.042.018.064.03l.025.012c.022.011.044.022.065.035l.074.045.072.05c.024.018.046.035.068.054s.043.037.065.057.041.04.061.062c.006,0,.009.01.014.015s.034.038.051.058.037.046.054.07l.031.043,1.676,2.3H138.79l1.676-2.3.031-.043c.018-.024.036-.048.054-.07s.033-.04.051-.058a.247.247,0,0,1,.026-.028c.014-.015.029-.029.042-.042l.008-.009c.02-.018.04-.036.061-.053s.043-.036.065-.053l.018-.012.026-.018.031-.021c.024-.016.049-.031.074-.045s.037-.021.056-.03l.022-.011.012-.006.037-.017.029-.013.074-.029.013,0L141.24,98l.024-.007.075-.02h.008l.083-.017c.028-.006.056-.009.084-.012s.057-.006.085-.007h.085Z" transform="translate(-84 -92.78)" fill="#413b32"/>
        <path id="Trazado_1021995" data-name="Trazado 1021995" d="M700.234,148.64h-5.226a.33.33,0,0,0-.085.007c-.029.007-.056.007-.084.012l-.083.017h-.008l-.075.02-.024.007-.044.015-.013,0-.074.029-.029.013-.037.017-.016.008-.022.011c-.019.009-.038.019-.056.03l-.074.045-.031.021-.026.018-.018.012c-.022.017-.044.034-.065.053l-.061.053-.008.009c-.014.013-.029.027-.042.042a.248.248,0,0,0-.026.028c-.017.018-.034.038-.051.058s-.037.046-.054.07l-.031.043a1.476,1.476,0,0,0-.252.825V155.2a4.046,4.046,0,1,0,8.092,0v-5.087a1.475,1.475,0,0,0-1.477-1.475Zm-1.475,6.569a1.1,1.1,0,0,1-2.19,0v-3.618h2.19Z" transform="translate(-637.404 -143.489)" fill="#413b32"/>
        <path id="Trazado_1021996" data-name="Trazado 1021996" d="M693.055,244.309a4.509,4.509,0,0,1-1.475-8.771v-2.312a1.475,1.475,0,1,1,2.951,0v3.54a1.475,1.475,0,0,1-1.475,1.475,1.558,1.558,0,1,0,1.558,1.558,1.475,1.475,0,1,1,2.951,0A4.518,4.518,0,0,1,693.055,244.309Z" transform="translate(-632.794 -218.935)" fill="#413b32"/>
        <path id="Trazado_1021997" data-name="Trazado 1021997" d="M226.49,149.313l-.031-.043c-.018-.024-.036-.048-.054-.07s-.033-.04-.051-.058-.008-.01-.014-.015c-.02-.022-.041-.042-.061-.062s-.042-.039-.065-.057l-.068-.054q-.035-.026-.072-.05l-.074-.045c-.025-.015-.043-.024-.065-.035l-.025-.012c-.021-.011-.042-.02-.064-.03a1.459,1.459,0,0,0-.326-.1c-.028,0-.056-.009-.084-.012s-.057-.006-.085-.007h-5.226a1.475,1.475,0,0,0-1.475,1.475v5.094a4.046,4.046,0,1,0,8.092,0v-5.1A1.475,1.475,0,0,0,226.49,149.313Zm-4.887,5.919v-3.618h2.188v3.618a1.1,1.1,0,0,1-2.19,0Z" transform="translate(-206.233 -143.512)" fill="#413b32"/>
        <path id="Trazado_1021998" data-name="Trazado 1021998" d="M218.129,244.309a4.519,4.519,0,0,1-4.509-4.509,1.475,1.475,0,0,1,2.951,0,1.559,1.559,0,1,0,1.559-1.558,1.475,1.475,0,0,1-1.476-1.476v-3.54a1.475,1.475,0,1,1,2.951,0v2.312a4.509,4.509,0,0,1-1.475,8.771Z" transform="translate(-201.667 -218.935)" fill="#413b32"/>
        <path id="Trazado_1021999" data-name="Trazado 1021999" d="M620.812,488.45h-23.1a1.475,1.475,0,0,0-1.475,1.475v17.322a1.475,1.475,0,0,0,1.475,1.475h23.1a1.475,1.475,0,0,0,1.475-1.475V489.925a1.475,1.475,0,0,0-1.475-1.475Zm-1.475,17.322H599.191V491.4h20.146Z" transform="translate(-549.004 -451.964)" fill="#413b32"/>
        <path id="Trazado_1022000" data-name="Trazado 1022000" d="M591.41,350.4l-13.263-12.441-1.729-1.623a1.475,1.475,0,0,0-2.019,0l-1.729,1.622L559.411,350.4a1.475,1.475,0,0,0,1.014,2.552H590.4a1.475,1.475,0,0,0,1.014-2.552Zm-27.256-.4,11.259-10.565L586.667,350Z" transform="translate(-515.148 -313.518)" fill="#413b32"/>
        <path id="Trazado_1022001" data-name="Trazado 1022001" d="M591.92,677.765a1.475,1.475,0,0,1-1.475,1.475h-29.97a1.475,1.475,0,0,1,0-2.951h29.97A1.475,1.475,0,0,1,591.92,677.765Z" transform="translate(-515.198 -622.482)" fill="#413b32"/>
        <path id="Trazado_1022002" data-name="Trazado 1022002" d="M145.862,488.45h-23.1a1.475,1.475,0,0,0-1.475,1.475v17.322a1.475,1.475,0,0,0,1.475,1.475h23.1a1.475,1.475,0,0,0,1.475-1.475V489.925A1.475,1.475,0,0,0,145.862,488.45Zm-1.475,17.322H124.241V491.4h20.146Z" transform="translate(-117.851 -451.964)" fill="#413b32"/>
        <path id="Trazado_1022003" data-name="Trazado 1022003" d="M116.455,350.4,103.2,337.962l-1.729-1.622a1.475,1.475,0,0,0-2.019,0l-1.729,1.623L84.461,350.4a1.475,1.475,0,0,0,1.014,2.552h29.97a1.475,1.475,0,0,0,1.01-2.552ZM89.2,350l11.258-10.565L111.717,350Z" transform="translate(-83.995 -313.518)" fill="#413b32"/>
        <path id="Trazado_1022004" data-name="Trazado 1022004" d="M116.925,677.765a1.475,1.475,0,0,1-1.475,1.475H85.475a1.475,1.475,0,0,1,0-2.951H115.45A1.475,1.475,0,0,1,116.925,677.765Z" transform="translate(-84 -622.482)" fill="#413b32"/>
        <path id="Trazado_1022005" data-name="Trazado 1022005" d="M461.807,150.115V166a1.475,1.475,0,1,1-2.951,0v-14.41h-2.735V166a1.475,1.475,0,1,1-2.951,0V150.115a1.475,1.475,0,0,1,1.475-1.475h5.686A1.475,1.475,0,0,1,461.807,150.115Z" transform="translate(-419.127 -143.489)" fill="#413b32"/>
        <path id="Trazado_1022006" data-name="Trazado 1022006" d="M461.807,408.255V443.6a1.475,1.475,0,0,1-1.475,1.475h-5.686a1.475,1.475,0,0,1-1.475-1.475V408.255a1.475,1.475,0,0,1,2.951,0v33.87h2.735v-33.87a1.475,1.475,0,0,1,2.951,0Z" transform="translate(-419.127 -377.825)" fill="#413b32"/>
        <path id="Trazado_1022007" data-name="Trazado 1022007" d="M393.471,799.069l-.922-3.926a1.482,1.482,0,0,0-.184-.447l-2.469-3.926a1.475,1.475,0,0,0-1.249-.691h-14.36a1.475,1.475,0,0,0-1.249.691l-2.467,3.926a1.482,1.482,0,0,0-.184.447l-.922,3.926a1.475,1.475,0,0,0,1.437,1.813h21.133a1.475,1.475,0,0,0,1.437-1.813Zm-20.71-1.138.44-1.874,1.9-3.026h12.726l1.9,3.026.44,1.874Z" transform="translate(-343.105 -725.779)" fill="#413b32"/>
        <path id="Trazado_1022008" data-name="Trazado 1022008" d="M692.647,558.475a1.475,1.475,0,0,1-1.475,1.475h-7.186a1.475,1.475,0,0,1,0-2.951h7.186A1.475,1.475,0,0,1,692.647,558.475Z" transform="translate(-627.318 -514.192)" fill="#413b32"/>
        <path id="Trazado_1022009" data-name="Trazado 1022009" d="M692.647,609.185a1.475,1.475,0,0,1-1.475,1.475h-7.186a1.475,1.475,0,0,1,0-2.951h7.186A1.475,1.475,0,0,1,692.647,609.185Z" transform="translate(-627.318 -560.226)" fill="#413b32"/>
        <path id="Trazado_1022010" data-name="Trazado 1022010" d="M217.7,558.475a1.475,1.475,0,0,1-1.475,1.475h-7.186a1.475,1.475,0,1,1,0-2.951h7.186A1.475,1.475,0,0,1,217.7,558.475Z" transform="translate(-196.166 -514.192)" fill="#413b32"/>
        <path id="Trazado_1022011" data-name="Trazado 1022011" d="M217.7,609.185a1.475,1.475,0,0,1-1.475,1.475h-7.186a1.475,1.475,0,1,1,0-2.951h7.186A1.475,1.475,0,0,1,217.7,609.185Z" transform="translate(-196.166 -560.226)" fill="#413b32"/>
        <path id="Trazado_1022012" data-name="Trazado 1022012" d="M442.985,314.123A6.349,6.349,0,0,0,431.2,317.4q0,.257.02.509a6.35,6.35,0,0,0,12.657,0c.014-.168.02-.337.02-.509A6.314,6.314,0,0,0,442.985,314.123Zm-5.441,6.676a3.4,3.4,0,1,1,3.4-3.4,3.4,3.4,0,0,1-3.4,3.4Z" transform="translate(-399.183 -290.929)" fill="#413b32"/>
        <path id="Trazado_1022013" data-name="Trazado 1022013" d="M291.772,169.951a1.475,1.475,0,0,1-2.669.869l-.262-.36-11.527-15.822-2.227-3.057-.442-.607a1.475,1.475,0,0,1,1.192-2.344h.085a.465.465,0,0,1,.085.007c.029.007.056.007.084.012a1.459,1.459,0,0,1,.326.1c.022.009.042.018.064.03l.025.012c.022.011.044.022.065.035l.074.045.072.05c.024.018.046.035.068.054s.043.037.065.057.041.04.061.062c.006,0,.009.01.014.015s.034.038.051.058.037.046.054.07l.031.043,1.676,2.3,11,15.1,1.752,2.41A1.469,1.469,0,0,1,291.772,169.951Z" transform="translate(-256.808 -143.48)" fill="#413b32"/>
        <path id="Trazado_1022014" data-name="Trazado 1022014" d="M553.946,151.044l-.442.607-2.227,3.057L539.75,170.529l-.262.36a1.475,1.475,0,1,1-2.386-1.736l1.752-2.41,11-15.093,1.676-2.3.031-.043c.018-.024.036-.048.054-.07s.033-.04.051-.058a.249.249,0,0,1,.026-.028c.014-.015.029-.029.042-.042l.008-.009c.02-.018.04-.036.061-.053s.043-.036.065-.053l.018-.012.026-.018.031-.021c.024-.016.049-.031.074-.045s.037-.021.056-.03l.022-.011.012-.006a.325.325,0,0,1,.041-.019l.029-.013.074-.029.013,0,.044-.015.024-.007.075-.02h.008l.083-.017c.028,0,.056-.009.084-.012s.057-.006.085-.007h.085a1.475,1.475,0,0,1,1.192,2.344Z" transform="translate(-495.063 -143.548)" fill="#413b32"/>
      </g>
    </g>
  </g>
</svg>
