<svg xmlns="http://www.w3.org/2000/svg" xmlns:xlink="http://www.w3.org/1999/xlink" width="150" height="150" viewBox="0 0 150 150">
  <defs>
    <clipPath id="clip-path">
      <rect id="Rectángulo_456277" data-name="Rectángulo 456277" width="150" height="150" transform="translate(-0.059 -0.059)" fill="#d35560"/>
    </clipPath>
  </defs>
  <g id="Grupo_1180100" data-name="Grupo 1180100" transform="translate(-413.192 -9435.133)">
    <g id="Grupo_1180081" data-name="Grupo 1180081" transform="translate(413.25 9435.191)">
      <g id="Grupo_1179924" data-name="Grupo 1179924" transform="translate(0 0)">
        <g id="Grupo_1179923" data-name="Grupo 1179923" transform="translate(0 0)" clip-path="url(#clip-path)">
          <path id="Trazado_1004716" data-name="Trazado 1004716" d="M74.59,149.181c-2.423,0-4.689-2.768-7.051-3-2.407-.235-5.167,2.037-7.5,1.574-2.367-.47-4.049-3.628-6.329-4.321-2.305-.7-5.459.985-7.662.069-2.222-.923-3.251-4.35-5.356-5.479s-5.541-.1-7.528-1.432-2.336-4.9-4.186-6.418-5.412-1.171-7.107-2.865-1.342-5.254-2.865-7.107-5.082-2.192-6.418-4.186-.3-5.41-1.432-7.527-4.556-3.135-5.48-5.356c-.916-2.2.77-5.357.07-7.662-.693-2.28-3.85-3.961-4.32-6.329C.962,86.809,3.234,84.048,3,81.642c-.231-2.363-3-4.629-3-7.052S2.768,69.9,3,67.539c.235-2.407-2.037-5.166-1.573-7.5.47-2.367,3.627-4.049,4.32-6.329.7-2.306-.985-5.459-.069-7.663.924-2.222,4.35-3.251,5.48-5.356s.1-5.54,1.432-7.528,4.9-2.336,6.418-4.186,1.171-5.412,2.866-7.107,5.254-1.342,7.107-2.865,2.192-5.082,4.186-6.418,5.41-.3,7.528-1.432,3.134-4.556,5.356-5.48c2.2-.916,5.357.77,7.663.069,2.28-.692,3.961-3.85,6.328-4.32C62.372.962,65.133,3.234,67.539,3c2.363-.231,4.629-3,7.052-3s4.689,2.768,7.051,3c2.407.235,5.167-2.037,7.5-1.574,2.367.47,4.049,3.628,6.329,4.321,2.305.7,5.459-.985,7.662-.069,2.222.923,3.251,4.35,5.356,5.48s5.541.1,7.528,1.432,2.337,4.9,4.186,6.418,5.412,1.171,7.107,2.866,1.342,5.254,2.865,7.107,5.082,2.192,6.418,4.186.3,5.41,1.432,7.528,4.556,3.135,5.479,5.356c.916,2.2-.77,5.357-.069,7.662.693,2.28,3.85,3.961,4.32,6.328.463,2.333-1.809,5.093-1.574,7.5.231,2.363,3,4.629,3,7.051s-2.768,4.689-3,7.052c-.235,2.406,2.037,5.166,1.574,7.5-.47,2.367-3.627,4.049-4.32,6.329-.7,2.305.985,5.459.069,7.662-.924,2.222-4.35,3.251-5.48,5.357s-.1,5.54-1.432,7.528-4.9,2.336-6.418,4.186-1.171,5.412-2.866,7.107-5.254,1.342-7.107,2.865-2.192,5.081-4.186,6.418-5.41.3-7.528,1.432-3.134,4.557-5.356,5.48c-2.2.916-5.357-.77-7.662-.069-2.28.692-3.961,3.85-6.328,4.32-2.333.463-5.093-1.809-7.5-1.574-2.363.231-4.629,3-7.052,3" transform="translate(0.35 0.35)" fill="#d35560"/>
          <path id="Trazado_1004717" data-name="Trazado 1004717" d="M14,81.535a67.535,67.535,0,1,1,67.535,67.535A67.535,67.535,0,0,1,14,81.535" transform="translate(-6.594 -6.594)" fill="#4d787e"/>
          <path id="Trazado_1004718" data-name="Trazado 1004718" d="M132.334,270.213c-.179-.759-.348-1.543-.509-2.312l-2.36-.3q1.057-.562,2.072-1.13-.225-1.156-.423-2.309c.54.53,1.093,1.077,1.663,1.6q.994-.618,1.945-1.239-.422,1.09-.87,2.178c.589.505,1.191,1.019,1.808,1.521l-2.372-.177q-.464,1.087-.955,2.171" transform="translate(-63.866 -130.676)" fill="#ffffc5"/>
          <path id="Trazado_1004719" data-name="Trazado 1004719" d="M113.789,266.762c-.064-.775-.113-1.577-.157-2.361l-2.288-.652q1.129-.4,2.219-.806-.049-1.177-.072-2.347c.455.6.919,1.229,1.4,1.829q1.075-.461,2.108-.932-.58,1.014-1.185,2.022c.507.586,1.024,1.192,1.561,1.772-.776-.161-1.546-.353-2.319-.528q-.621,1-1.269,2" transform="translate(-54.878 -128.909)" fill="#ffffc5"/>
          <path id="Trazado_1004720" data-name="Trazado 1004720" d="M96.012,260.643c.058-.789.127-1.579.2-2.363l-2.166-.983c.783-.146,1.556-.305,2.315-.467q.129-1.169.28-2.329c.358.667.728,1.343,1.113,2.021q1.132-.3,2.225-.608-.726.916-1.477,1.822c.413.657.836,1.325,1.277,1.987l-2.214-.87q-.766.9-1.556,1.79" transform="translate(-46.299 -125.885)" fill="#ffffc5"/>
          <path id="Trazado_1004721" data-name="Trazado 1004721" d="M79.414,251.99q.265-1.159.551-2.3c-.663-.434-1.344-.843-1.993-1.3.783-.008,1.584-.069,2.356-.112q.3-1.136.623-2.258.384,1.067.8,2.159c.766-.066,1.54-.171,2.29-.266q-.856.8-1.734,1.584.466,1.066.968,2.153l-2.062-1.187c-.594.517-1.2,1.036-1.8,1.531" transform="translate(-38.325 -121.677)" fill="#ffffc5"/>
          <path id="Trazado_1004722" data-name="Trazado 1004722" d="M64.353,241.022q.432-1.105.885-2.194c-.593-.526-1.215-1.021-1.777-1.582.769.115,1.567.177,2.343.242q.464-1.078.948-2.139.225,1.109.481,2.247c.755.064,1.543.065,2.3.082q-.965.664-1.952,1.311.3,1.12.643,2.265l-1.87-1.471c-.669.429-1.327.83-2,1.238" transform="translate(-31.127 -116.386)" fill="#ffffc5"/>
          <path id="Trazado_1004723" data-name="Trazado 1004723" d="M51.149,227.995q.589-1.028,1.2-2.037l-.779-.9c-.258-.3-.494-.62-.741-.929l1.128.317,1.149.273q.617-1,1.25-1.973.063,1.127.152,2.286l1.121.234,1.138.191q-1.055.516-2.127,1.012.14,1.148.309,2.327c-.545-.576-1.1-1.142-1.635-1.727q-1.07.473-2.159.926" transform="translate(-24.859 -110.134)" fill="#ffffc5"/>
          <path id="Trazado_1004724" data-name="Trazado 1004724" d="M39.841,213.191q.733-.928,1.481-1.835c-.212-.336-.434-.664-.637-1l-.594-1.031c.724.322,1.417.646,2.16.923.507-.6,1.006-1.179,1.532-1.767-.079.754-.131,1.508-.186,2.282.723.269,1.425.535,2.166.758-.746.236-1.5.467-2.255.686-.022.772-.029,1.551-.032,2.344-.451-.652-.939-1.279-1.359-1.952q-1.13.31-2.275.6" transform="translate(-19.411 -103.056)" fill="#ffffc5"/>
          <path id="Trazado_1004725" data-name="Trazado 1004725" d="M30.615,196.931q.862-.808,1.735-1.593c-.343-.716-.614-1.462-.909-2.2.671.425,1.309.848,1.992,1.237.582-.511,1.181-1.02,1.787-1.522-.212.742-.356,1.472-.529,2.229.683.37,1.327.742,2.024,1.074-.778.124-1.554.238-2.322.338-.159.771-.262,1.529-.386,2.314-.358-.707-.739-1.4-1.051-2.133q-1.165.138-2.342.253" transform="translate(-14.835 -95.309)" fill="#ffffc5"/>
          <path id="Trazado_1004726" data-name="Trazado 1004726" d="M24.019,179.289q.973-.669,1.952-1.313c-.235-.758-.377-1.54-.566-2.31.6.522,1.176,1.033,1.781,1.524.651-.417,1.333-.834,2-1.237-.326.7-.579,1.4-.86,2.124.617.469,1.213.929,1.836,1.366-.791.008-1.557,0-2.34-.016-.284.741-.492,1.474-.731,2.231-.259-.75-.515-1.5-.717-2.268q-1.174-.038-2.355-.1" transform="translate(-11.564 -86.782)" fill="#ffffc5"/>
          <path id="Trazado_1004727" data-name="Trazado 1004727" d="M20.215,160.664q1.062-.516,2.127-1.005c-.119-.785-.143-1.579-.214-2.369.513.605,1.005,1.2,1.532,1.774.706-.315,1.441-.624,2.164-.924-.429.647-.781,1.3-1.168,1.972.539.556,1.062,1.1,1.608,1.627-.781-.112-1.537-.237-2.309-.368-.392.69-.711,1.384-1.058,2.1l-.21-1.171c-.066-.391-.1-.786-.158-1.179q-1.155-.214-2.313-.453" transform="translate(-9.677 -77.667)" fill="#ffffc5"/>
          <path id="Trazado_1004728" data-name="Trazado 1004728" d="M19.269,141.764q1.128-.352,2.255-.679c0-.793.074-1.584.135-2.374.421.674.8,1.333,1.259,1.981.751-.207,1.5-.406,2.266-.595-.5.578-.959,1.172-1.441,1.779.453.63.873,1.246,1.353,1.848q-1.134-.34-2.237-.706c-.483.624-.9,1.263-1.353,1.915-.018-.792-.055-1.585-.018-2.378q-1.109-.382-2.218-.79" transform="translate(-9.207 -68.451)" fill="#ffffc5"/>
          <path id="Trazado_1004729" data-name="Trazado 1004729" d="M21.174,123q1.169-.181,2.333-.336c.074-.39.132-.783.218-1.169l.268-1.159c.312.729.595,1.437.951,2.146.778-.092,1.538-.178,2.325-.25-.574.5-1.122,1.015-1.688,1.543.353.69.672,1.36,1.067,2.028-.706-.335-1.426-.681-2.114-1.031-.553.548-1.077,1.115-1.619,1.694.111-.785.174-1.577.333-2.355q-1.039-.543-2.074-1.112" transform="translate(-10.152 -59.337)" fill="#ffffc5"/>
          <path id="Trazado_1004730" data-name="Trazado 1004730" d="M25.928,104.79q1.182,0,2.357.018c.239-.757.539-1.491.832-2.228.2.769.37,1.51.616,2.264.779.025,1.552.056,2.341.1-.65.4-1.263.834-1.9,1.271.247.736.46,1.445.75,2.165-.649-.438-1.3-.887-1.934-1.337-.633.458-1.233.941-1.857,1.432.226-.761.412-1.533.684-2.279q-.946-.692-1.884-1.411" transform="translate(-12.51 -50.53)" fill="#ffffc5"/>
          <path id="Trazado_1004731" data-name="Trazado 1004731" d="M33.429,87.557q1.169.173,2.325.37c.346-.714.77-1.386,1.158-2.077.083.789.155,1.557.267,2.329.761.139,1.54.3,2.306.457-.718.293-1.376.634-2.077.969.134.765.248,1.5.414,2.252-.582-.533-1.146-1.067-1.705-1.608-.709.35-1.361.744-2.054,1.134.327-.722.644-1.45,1.02-2.149q-.833-.827-1.654-1.678" transform="translate(-16.231 -42.232)" fill="#ffffc5"/>
          <path id="Trazado_1004732" data-name="Trazado 1004732" d="M43.489,71.68q1.128.345,2.241.71c.461-.645.972-1.253,1.456-1.881q-.054,1.188-.083,2.343,1.117.389,2.219.8c-.749.187-1.473.41-2.2.647q.023,1.16.07,2.287-.728-.91-1.438-1.839c-.753.241-1.471.524-2.2.813l.643-1,.688-.97q-.7-.943-1.388-1.908" transform="translate(-21.221 -34.623)" fill="#ffffc5"/>
          <path id="Trazado_1004733" data-name="Trazado 1004733" d="M55.356,57.5q1.064.506,2.109,1.031l1.72-1.643q-.226,1.17-.421,2.312,1.046.548,2.073,1.115c-.759.084-1.53.176-2.278.31Q58.413,61.78,58.3,62.9q-.585-1.008-1.152-2.034l-1.161.215c-.384.079-.76.17-1.144.259.508-.61,1.064-1.175,1.611-1.75q-.556-1.038-1.094-2.095" transform="translate(-26.851 -27.867)" fill="#ffffc5"/>
          <path id="Trazado_1004734" data-name="Trazado 1004734" d="M69.217,45.319c.65.436,1.293.879,1.939,1.34l1.938-1.379q-.394,1.129-.753,2.233.952.7,1.883,1.406c-.754-.018-1.544-.058-2.3-.035q-.311,1.124-.59,2.223-.431-1.084-.841-2.184c-.774.032-1.582.045-2.354.123.592-.529,1.238-.991,1.854-1.49q-.4-1.111-.775-2.237" transform="translate(-33.447 -22.109)" fill="#ffffc5"/>
          <path id="Trazado_1004735" data-name="Trazado 1004735" d="M84.831,34.886c.578.528,1.158,1.078,1.724,1.623l2.117-1.086q-.555,1.061-1.073,2.1.838.828,1.652,1.667c-.745-.133-1.508-.269-2.274-.382q-.473,1.07-.908,2.119-.266-1.138-.51-2.288c-.77-.084-1.562-.176-2.349-.232.677-.412,1.372-.8,2.057-1.2q-.23-1.158-.436-2.33" transform="translate(-40.923 -16.954)" fill="#ffffc5"/>
          <path id="Trazado_1004736" data-name="Trazado 1004736" d="M101.868,26.946q.744.928,1.463,1.866c.752-.251,1.5-.517,2.255-.756-.476.632-.93,1.284-1.376,1.919q.7.943,1.382,1.893-1.075-.365-2.191-.718c-.421.651-.822,1.313-1.214,1.961q-.094-1.166-.163-2.342-1.124-.3-2.289-.582l2.213-.874c-.035-.785-.066-1.583-.081-2.367" transform="translate(-49.12 -13.015)" fill="#ffffc5"/>
          <path id="Trazado_1004737" data-name="Trazado 1004737" d="M119.95,21.733q.6,1.029,1.166,2.064c.781-.136,1.56-.289,2.344-.41-.566.55-1.113,1.13-1.649,1.69q.554,1.037,1.082,2.079-1.008-.522-2.058-1.037c-.516.571-1.01,1.175-1.494,1.755q.082-1.167.19-2.341-1.066-.463-2.174-.916l2.318-.536c.083-.782.173-1.578.276-2.349" transform="translate(-57.86 -10.43)" fill="#ffffc5"/>
          <path id="Trazado_1004738" data-name="Trazado 1004738" d="M138.658,19.35q.436,1.108.845,2.216l2.378-.059q-.962.715-1.882,1.43.394,1.11.761,2.219-.92-.668-1.882-1.336c-.595.5-1.175,1.012-1.741,1.515q.256-1.142.539-2.285-.986-.619-2.013-1.234l2.372-.18c.2-.761.407-1.532.623-2.286" transform="translate(-66.94 -9.248)" fill="#ffffc5"/>
          <path id="Trazado_1004739" data-name="Trazado 1004739" d="M157.568,19.831c.179.759.348,1.543.509,2.312l2.36.3q-1.057.562-2.072,1.13.224,1.156.423,2.309c-.54-.53-1.093-1.077-1.662-1.6q-.994.618-1.945,1.239.422-1.09.87-2.178c-.589-.505-1.191-1.02-1.808-1.521l2.372.177q.464-1.087.955-2.171" transform="translate(-76.155 -9.486)" fill="#ffffc5"/>
          <path id="Trazado_1004740" data-name="Trazado 1004740" d="M176.272,23.17c.064.775.113,1.577.157,2.361l2.288.652q-1.129.4-2.219.806.049,1.177.072,2.347c-.455-.6-.918-1.229-1.4-1.829q-1.075.461-2.108.932.58-1.014,1.185-2.022c-.506-.586-1.024-1.192-1.561-1.771.776.161,1.546.352,2.319.527q.622-1,1.269-2" transform="translate(-85.303 -11.142)" fill="#ffffc5"/>
          <path id="Trazado_1004741" data-name="Trazado 1004741" d="M194.147,29.313c-.058.789-.126,1.578-.2,2.363l2.166.983c-.783.147-1.556.306-2.315.467q-.128,1.169-.28,2.329c-.358-.667-.728-1.343-1.113-2.021q-1.132.3-2.225.608.726-.916,1.476-1.822c-.412-.657-.836-1.325-1.277-1.987l2.214.87q.766-.9,1.556-1.79" transform="translate(-93.98 -14.189)" fill="#ffffc5"/>
          <path id="Trazado_1004742" data-name="Trazado 1004742" d="M210.61,38.133q-.265,1.159-.551,2.3c.663.434,1.344.843,1.993,1.3-.783.008-1.584.069-2.356.112q-.3,1.136-.623,2.258-.384-1.067-.8-2.159c-.766.066-1.54.171-2.29.266q.856-.8,1.734-1.584-.466-1.066-.968-2.153l2.062,1.187c.594-.517,1.2-1.036,1.8-1.531" transform="translate(-101.818 -18.564)" fill="#ffffc5"/>
          <path id="Trazado_1004743" data-name="Trazado 1004743" d="M225.67,49.168q-.432,1.105-.884,2.194c.593.526,1.215,1.021,1.777,1.582-.769-.115-1.567-.177-2.343-.242q-.464,1.078-.948,2.139-.225-1.109-.481-2.246c-.755-.064-1.543-.065-2.3-.082q.966-.664,1.952-1.311-.3-1.12-.643-2.264l1.87,1.47c.669-.429,1.326-.83,2-1.238" transform="translate(-109.015 -23.922)" fill="#ffffc5"/>
          <path id="Trazado_1004744" data-name="Trazado 1004744" d="M239.007,62.051q-.589,1.028-1.2,2.037l.779.9c.258.3.493.62.742.929L238.2,65.6l-1.149-.273q-.617,1-1.25,1.973-.063-1.127-.152-2.286l-1.121-.234-1.137-.191q1.055-.516,2.127-1.012-.14-1.148-.309-2.327c.545.576,1.1,1.142,1.635,1.727q1.071-.473,2.159-.926" transform="translate(-115.416 -30.03)" fill="#ffffc5"/>
          <path id="Trazado_1004745" data-name="Trazado 1004745" d="M250.33,76.837q-.733.928-1.481,1.835c.211.335.434.664.636,1l.594,1.031c-.724-.322-1.417-.646-2.16-.923-.507.6-1.006,1.179-1.532,1.767.079-.754.131-1.508.186-2.282-.723-.269-1.425-.535-2.166-.757.746-.236,1.5-.467,2.255-.686.022-.772.03-1.55.032-2.343.451.652.939,1.279,1.359,1.952q1.13-.31,2.275-.6" transform="translate(-120.879 -37.09)" fill="#ffffc5"/>
          <path id="Trazado_1004746" data-name="Trazado 1004746" d="M259.38,93.209q-.862.808-1.735,1.593c.343.716.614,1.462.909,2.2-.671-.425-1.309-.848-1.992-1.237-.582.511-1.181,1.02-1.787,1.522.212-.742.356-1.472.529-2.229-.683-.37-1.327-.742-2.024-1.074.778-.124,1.554-.238,2.322-.338.159-.771.262-1.529.385-2.314.358.708.739,1.4,1.051,2.134q1.165-.138,2.342-.253" transform="translate(-125.279 -44.949)" fill="#ffffc5"/>
          <path id="Trazado_1004747" data-name="Trazado 1004747" d="M265.935,110.814q-.973.67-1.952,1.313c.235.758.377,1.54.566,2.31-.6-.521-1.176-1.033-1.781-1.524-.651.417-1.333.834-2,1.237.327-.7.579-1.4.86-2.124-.617-.469-1.213-.929-1.836-1.366.791-.007,1.557,0,2.34.016.284-.741.492-1.474.731-2.231.259.75.515,1.5.717,2.268q1.174.038,2.355.1" transform="translate(-128.509 -53.44)" fill="#ffffc5"/>
          <path id="Trazado_1004748" data-name="Trazado 1004748" d="M269.832,129.258q-1.062.516-2.127,1.005c.119.785.143,1.579.214,2.369-.513-.605-1.005-1.2-1.532-1.774-.706.315-1.441.624-2.164.924.429-.647.781-1.3,1.168-1.972-.539-.556-1.062-1.1-1.608-1.627.781.112,1.537.237,2.309.367.392-.69.711-1.383,1.058-2.1l.21,1.171c.066.391.1.786.158,1.179q1.155.214,2.313.453" transform="translate(-130.489 -62.373)" fill="#ffffc5"/>
          <path id="Trazado_1004749" data-name="Trazado 1004749" d="M270.909,148.113q-1.128.352-2.255.679c0,.793-.074,1.584-.135,2.374-.421-.674-.8-1.333-1.259-1.981-.751.207-1.5.406-2.266.595.5-.578.959-1.172,1.441-1.779-.453-.63-.873-1.246-1.353-1.848q1.134.34,2.237.706c.483-.624.9-1.263,1.353-1.915.018.793.055,1.585.018,2.378q1.109.383,2.218.79" transform="translate(-131.09 -71.544)" fill="#ffffc5"/>
          <path id="Trazado_1004750" data-name="Trazado 1004750" d="M268.826,166.968q-1.17.181-2.334.336c-.074.39-.132.783-.218,1.169l-.268,1.159c-.312-.729-.595-1.437-.951-2.146-.778.092-1.538.178-2.326.25.574-.5,1.122-1.015,1.689-1.543-.353-.69-.672-1.36-1.067-2.028.706.335,1.426.681,2.114,1.031.553-.548,1.077-1.115,1.619-1.694-.111.785-.174,1.577-.333,2.355q1.039.542,2.074,1.111" transform="translate(-129.966 -80.748)" fill="#ffffc5"/>
          <path id="Trazado_1004751" data-name="Trazado 1004751" d="M264.024,185.4q-1.182,0-2.357-.018c-.24.757-.539,1.491-.832,2.228-.2-.769-.37-1.51-.616-2.264-.779-.025-1.552-.056-2.341-.1.65-.4,1.263-.834,1.9-1.271-.247-.735-.46-1.445-.75-2.165.649.437,1.3.886,1.934,1.337.633-.458,1.233-.941,1.857-1.431-.226.76-.412,1.532-.684,2.278q.946.692,1.884,1.411" transform="translate(-127.56 -89.783)" fill="#ffffc5"/>
          <path id="Trazado_1004752" data-name="Trazado 1004752" d="M256.61,202.53q-1.169-.173-2.325-.37c-.346.714-.77,1.386-1.158,2.077-.083-.789-.155-1.557-.267-2.329-.761-.139-1.54-.3-2.306-.457.718-.293,1.376-.635,2.077-.969-.134-.765-.248-1.5-.414-2.252.583.533,1.146,1.067,1.705,1.608.71-.35,1.361-.744,2.054-1.135-.327.722-.644,1.45-1.02,2.149q.832.827,1.654,1.678" transform="translate(-123.928 -97.974)" fill="#ffffc5"/>
          <path id="Trazado_1004753" data-name="Trazado 1004753" d="M246.77,218.341q-1.128-.344-2.241-.71c-.461.645-.972,1.253-1.456,1.881q.054-1.188.083-2.343-1.117-.389-2.219-.8c.749-.187,1.473-.41,2.2-.647q-.023-1.16-.07-2.287.728.91,1.438,1.839c.753-.241,1.471-.524,2.2-.813l-.643,1-.688.97q.7.943,1.388,1.908" transform="translate(-119.158 -105.517)" fill="#ffffc5"/>
          <path id="Trazado_1004754" data-name="Trazado 1004754" d="M234.741,232.58q-1.064-.506-2.109-1.031l-1.72,1.643q.226-1.17.421-2.312-1.046-.548-2.073-1.115c.759-.084,1.53-.176,2.278-.31q.146-1.154.263-2.279.585,1.007,1.152,2.034l1.161-.215c.384-.079.76-.17,1.144-.259-.508.61-1.064,1.175-1.611,1.75q.556,1.038,1.094,2.095" transform="translate(-113.365 -112.331)" fill="#ffffc5"/>
          <path id="Trazado_1004755" data-name="Trazado 1004755" d="M220.791,244.946c-.65-.436-1.293-.879-1.939-1.34l-1.938,1.379q.393-1.129.753-2.233-.952-.7-1.883-1.406c.754.018,1.544.058,2.3.035q.311-1.125.59-2.223.431,1.084.842,2.184c.774-.032,1.581-.045,2.353-.124-.591.529-1.238.991-1.854,1.49q.4,1.111.775,2.237" transform="translate(-106.68 -118.275)" fill="#ffffc5"/>
          <path id="Trazado_1004756" data-name="Trazado 1004756" d="M205.223,255.164c-.578-.528-1.158-1.078-1.724-1.622l-2.117,1.086q.555-1.061,1.072-2.1-.838-.829-1.652-1.668c.745.133,1.508.269,2.274.382q.472-1.069.908-2.119.266,1.139.51,2.289c.77.083,1.562.175,2.349.231-.677.413-1.371.8-2.057,1.2q.23,1.157.436,2.329" transform="translate(-99.25 -123.215)" fill="#ffffc5"/>
          <path id="Trazado_1004757" data-name="Trazado 1004757" d="M188.367,262.987q-.744-.928-1.463-1.866c-.752.251-1.5.517-2.255.756.476-.632.931-1.284,1.376-1.919q-.7-.943-1.382-1.894,1.075.365,2.191.718c.421-.651.822-1.313,1.214-1.961q.094,1.166.163,2.342,1.124.3,2.289.582l-2.213.874c.035.785.066,1.583.081,2.367" transform="translate(-91.235 -127.036)" fill="#ffffc5"/>
          <path id="Trazado_1004758" data-name="Trazado 1004758" d="M170.042,268.223q-.6-1.029-1.166-2.064c-.781.136-1.56.289-2.344.41.566-.55,1.113-1.13,1.649-1.69q-.554-1.037-1.082-2.079,1.008.522,2.058,1.037c.516-.571,1.01-1.175,1.495-1.755q-.082,1.167-.191,2.341,1.066.463,2.174.916l-2.318.536c-.083.782-.172,1.578-.276,2.349" transform="translate(-82.252 -129.645)" fill="#ffffc5"/>
          <path id="Trazado_1004759" data-name="Trazado 1004759" d="M151.223,270.76q-.435-1.108-.845-2.216L148,268.6q.962-.715,1.882-1.431-.394-1.109-.761-2.219.92.668,1.882,1.336c.595-.5,1.175-1.012,1.741-1.515q-.256,1.142-.539,2.285.986.618,2.013,1.233l-2.372.181c-.2.76-.407,1.532-.623,2.285" transform="translate(-73.059 -130.981)" fill="#ffffc5"/>
          <path id="Trazado_1004760" data-name="Trazado 1004760" d="M92.062,148.9A56.837,56.837,0,1,1,148.9,92.062,56.9,56.9,0,0,1,92.062,148.9" transform="translate(-17.122 -17.122)" fill="#d35560"/>
        </g>
      </g>
      <g id="Grupo_1180053" data-name="Grupo 1180053" transform="translate(39.422 38.995)">
        <rect id="Rectángulo_401104" data-name="Rectángulo 401104" width="71.038" height="71.894" transform="translate(0)" fill="#d35560"/>
      </g>
    </g>
    <g id="Grupo_1180452" data-name="Grupo 1180452" transform="translate(368.922 9374.264)">
      <path id="Trazado_1022015" data-name="Trazado 1022015" d="M704.78,702.05h8.339v13.889H704.78Z" transform="translate(-568.15 -549.054)" fill="#6d4c41"/>
      <path id="Trazado_1022016" data-name="Trazado 1022016" d="M623.92,372.6v41.82h4.142V399.175a1.357,1.357,0,0,1,1.357-1.357h11.052a1.357,1.357,0,0,1,1.357,1.357V414.42h4.142V372.6Zm10.336,20.705a1.356,1.356,0,0,1-1.357,1.356h-6.344a1.356,1.356,0,0,1-1.356-1.356V388.24a1.357,1.357,0,0,1,1.356-1.357H632.9a1.357,1.357,0,0,1,1.356,1.357Zm0-10.957A1.357,1.357,0,0,1,632.9,383.7h-6.344a1.356,1.356,0,0,1-1.356-1.357v-5.066a1.356,1.356,0,0,1,1.356-1.357H632.9a1.357,1.357,0,0,1,1.356,1.357ZM644.7,393.305a1.357,1.357,0,0,1-1.357,1.356h-6.35a1.356,1.356,0,0,1-1.357-1.356V388.24a1.357,1.357,0,0,1,1.357-1.357h6.35a1.357,1.357,0,0,1,1.357,1.357Zm0-10.957a1.357,1.357,0,0,1-1.357,1.357h-6.35a1.357,1.357,0,0,1-1.357-1.357v-5.066a1.356,1.356,0,0,1,1.357-1.357h6.35a1.357,1.357,0,0,1,1.357,1.357Z" transform="translate(-494.145 -247.535)" fill="#ff3d00"/>
      <path id="Trazado_1022017" data-name="Trazado 1022017" d="M153.643,512.532l-.073.021-14.9,4.465c-.031.01-.062.02-.094.028l-.027.008-5.073,1.52-.061.019-.526.158a.907.907,0,0,0-.636.717l-.715,4.114a3.561,3.561,0,0,1-3.519,2.961H116.285a.286.286,0,0,0-.285.285v14.921h40.349V511.72Zm-17.116,8.544a1.357,1.357,0,0,1,.913-1.279l4.9-1.7a1.356,1.356,0,0,1,1.8,1.282v6.6a1.357,1.357,0,0,1-1.357,1.357h-4.9a1.357,1.357,0,0,1-1.356-1.357Zm14.8,17.314h-30.3a1.357,1.357,0,0,1,0-2.713h30.3a1.357,1.357,0,0,1,0,2.713Zm0-5.282h-30.3a1.357,1.357,0,0,1,0-2.713h30.3a1.357,1.357,0,0,1,0,2.713Zm2.744-9.9a1.357,1.357,0,0,1-1.356,1.357h-4.9a1.357,1.357,0,0,1-1.357-1.357v-4.9a1.357,1.357,0,0,1,.911-1.282l4.9-1.7a1.357,1.357,0,0,1,1.8,1.282Z" transform="translate(-29.287 -374.86)" fill="#ff3d00"/>
      <path id="Trazado_1022018" data-name="Trazado 1022018" d="M670.96,443.83h3.635v2.353H670.96Z" transform="translate(-537.197 -312.726)" fill="#b3e5fc"/>
      <path id="Trazado_1022019" data-name="Trazado 1022019" d="M794.1,443.83h3.634v2.353H794.1Z" transform="translate(-649.897 -312.726)" fill="#b3e5fc"/>
      <path id="Trazado_1022020" data-name="Trazado 1022020" d="M670.96,573.07h3.635v2.353H670.96Z" transform="translate(-537.197 -431.009)" fill="#b3e5fc"/>
      <path id="Trazado_1022021" data-name="Trazado 1022021" d="M794.1,573.07h3.634v2.353H794.1Z" transform="translate(-649.897 -431.009)" fill="#b3e5fc"/>
      <path id="Trazado_1022022" data-name="Trazado 1022022" d="M509.436,591.91v3.334H507.25v-2.577Z" transform="translate(-387.366 -448.251)" fill="#b3e5fc"/>
      <path id="Trazado_1022023" data-name="Trazado 1022023" d="M392.3,624.55v3.334H390.11v-2.577Z" transform="translate(-280.158 -478.124)" fill="#b3e5fc"/>
      <path id="Trazado_1022024" data-name="Trazado 1022024" d="M407.863,344.269l-12.073,3.618,1.3-17.527h9.737Z" transform="translate(-285.356 -208.876)" fill="#455a64"/>
      <path id="Trazado_1022025" data-name="Trazado 1022025" d="M422.834,256.388H413.5l.288-3.888h8.755Z" transform="translate(-301.565 -137.617)" fill="#455a64"/>
      <path id="Trazado_1022026" data-name="Trazado 1022026" d="M184.239,354.508h-9.4l.315-3.888h8.757Z" transform="translate(-83.138 -227.418)" fill="#455a64"/>
      <path id="Trazado_1022027" data-name="Trazado 1022027" d="M166.378,440.164a3.6,3.6,0,0,0-2.024,2.658l-.714,4.114a.858.858,0,0,1-.848.712H154l1.55-19.167h9.844Z" transform="translate(-64.065 -298.677)" fill="#455a64"/>
      <path id="Trazado_1022028" data-name="Trazado 1022028" d="M389.033,140.108a2.075,2.075,0,0,1-1.34,1.935,1.357,1.357,0,0,0-1.151-.639H375.285a1.356,1.356,0,0,0-1.152.639,2.071,2.071,0,1,1,1.877-3.664,1.356,1.356,0,0,0,2.1-1.245c-.008-.093-.012-.17-.012-.242a2.811,2.811,0,1,1,5.622,0c0,.076,0,.155-.011.242a1.357,1.357,0,0,0,2.1,1.245,2.072,2.072,0,0,1,3.217,1.726Z" transform="translate(-264.312 -29.237)" fill="#757575"/>
      <path id="Trazado_1022029" data-name="Trazado 1022029" d="M150.725,240.145a2.073,2.073,0,0,1-1.272,1.909,1.356,1.356,0,0,0-1.223-.77H136.973a1.356,1.356,0,0,0-1.223.77,2.071,2.071,0,1,1,1.95-3.635,1.356,1.356,0,0,0,2.1-1.245c-.008-.093-.012-.17-.012-.242a2.811,2.811,0,1,1,5.622,0c0,.076,0,.155-.011.242a1.356,1.356,0,0,0,2.1,1.245,2.072,2.072,0,0,1,3.222,1.726Z" transform="translate(-46.208 -120.795)" fill="#757575"/>
      <g id="Grupo_1180450" data-name="Grupo 1180450" transform="translate(85.865 105.691)" opacity="0.5">
        <path id="Trazado_1022030" data-name="Trazado 1022030" d="M694.78,712.05h8.339v13.889H694.78Z" transform="translate(-644.863 -663.897)" fill="#fff"/>
        <path id="Trazado_1022031" data-name="Trazado 1022031" d="M613.92,382.6v41.82h4.142V409.175a1.357,1.357,0,0,1,1.356-1.357h11.052a1.356,1.356,0,0,1,1.356,1.357V424.42h4.142V382.6Zm10.336,20.705a1.357,1.357,0,0,1-1.357,1.356h-6.344a1.357,1.357,0,0,1-1.357-1.356V398.24a1.357,1.357,0,0,1,1.357-1.357H622.9a1.357,1.357,0,0,1,1.357,1.357Zm0-10.957A1.357,1.357,0,0,1,622.9,393.7h-6.344a1.357,1.357,0,0,1-1.357-1.356v-5.066a1.357,1.357,0,0,1,1.357-1.357H622.9a1.357,1.357,0,0,1,1.357,1.357ZM634.7,403.305a1.357,1.357,0,0,1-1.357,1.356h-6.35a1.357,1.357,0,0,1-1.356-1.356V398.24a1.357,1.357,0,0,1,1.356-1.357h6.35a1.357,1.357,0,0,1,1.357,1.357Zm0-10.957a1.357,1.357,0,0,1-1.357,1.356h-6.35a1.357,1.357,0,0,1-1.356-1.356v-5.066a1.357,1.357,0,0,1,1.356-1.357h6.35a1.357,1.357,0,0,1,1.357,1.357Z" transform="translate(-570.858 -362.378)" fill="#fff"/>
        <path id="Trazado_1022032" data-name="Trazado 1022032" d="M143.643,522.532l-.073.021-14.9,4.465c-.031.01-.062.02-.094.028l-.027.008-5.073,1.52-.061.019-.526.158a.907.907,0,0,0-.636.717l-.715,4.114a3.561,3.561,0,0,1-3.519,2.961H106.285a.286.286,0,0,0-.285.285v14.921h40.349V521.72Zm-17.116,8.544a1.356,1.356,0,0,1,.913-1.278l4.9-1.7a1.357,1.357,0,0,1,1.8,1.282v6.6a1.357,1.357,0,0,1-1.356,1.357h-4.9a1.357,1.357,0,0,1-1.356-1.357Zm14.8,17.314h-30.3a1.356,1.356,0,1,1,0-2.713h30.3a1.356,1.356,0,1,1,0,2.713Zm0-5.282h-30.3a1.357,1.357,0,0,1,0-2.713h30.3a1.357,1.357,0,0,1,0,2.713Zm2.744-9.9a1.356,1.356,0,0,1-1.356,1.356h-4.9a1.356,1.356,0,0,1-1.357-1.356v-4.9a1.357,1.357,0,0,1,.911-1.282l4.9-1.7a1.357,1.357,0,0,1,1.8,1.282Z" transform="translate(-106 -489.703)" fill="#fff"/>
        <path id="Trazado_1022033" data-name="Trazado 1022033" d="M660.96,453.83h3.635v2.353H660.96Z" transform="translate(-613.91 -427.569)" fill="#fff"/>
        <path id="Trazado_1022034" data-name="Trazado 1022034" d="M784.1,453.83h3.634v2.353H784.1Z" transform="translate(-726.61 -427.569)" fill="#fff"/>
        <path id="Trazado_1022035" data-name="Trazado 1022035" d="M660.96,583.07h3.635v2.353H660.96Z" transform="translate(-613.91 -545.852)" fill="#fff"/>
        <path id="Trazado_1022036" data-name="Trazado 1022036" d="M784.1,583.07h3.634v2.353H784.1Z" transform="translate(-726.61 -545.852)" fill="#fff"/>
        <path id="Trazado_1022037" data-name="Trazado 1022037" d="M499.436,601.91v3.334H497.25v-2.576Z" transform="translate(-464.079 -563.095)" fill="#fff"/>
        <path id="Trazado_1022038" data-name="Trazado 1022038" d="M382.3,634.55v3.334H380.11v-2.576Z" transform="translate(-356.871 -592.967)" fill="#fff"/>
        <path id="Trazado_1022039" data-name="Trazado 1022039" d="M397.863,354.269l-12.073,3.618,1.3-17.527h9.737Z" transform="translate(-362.069 -323.719)" fill="#fff"/>
        <path id="Trazado_1022040" data-name="Trazado 1022040" d="M412.834,266.388H403.5l.288-3.888h8.755Z" transform="translate(-378.278 -252.46)" fill="#fff"/>
        <path id="Trazado_1022041" data-name="Trazado 1022041" d="M174.239,364.508h-9.4l.315-3.888h8.757Z" transform="translate(-159.851 -342.262)" fill="#fff"/>
        <path id="Trazado_1022042" data-name="Trazado 1022042" d="M156.378,450.164a3.6,3.6,0,0,0-2.024,2.658l-.714,4.114a.858.858,0,0,1-.848.712H144l1.55-19.167h9.844Z" transform="translate(-140.778 -413.52)" fill="#fff"/>
        <path id="Trazado_1022043" data-name="Trazado 1022043" d="M379.033,150.108a2.075,2.075,0,0,1-1.34,1.935,1.356,1.356,0,0,0-1.151-.639H365.285a1.356,1.356,0,0,0-1.152.639,2.071,2.071,0,1,1,1.877-3.664,1.357,1.357,0,0,0,2.1-1.245c-.009-.093-.012-.17-.012-.242a2.811,2.811,0,1,1,5.622,0c0,.076,0,.155-.011.242a1.356,1.356,0,0,0,2.1,1.245,2.072,2.072,0,0,1,3.217,1.726Z" transform="translate(-341.025 -144.08)" fill="#fff"/>
        <path id="Trazado_1022044" data-name="Trazado 1022044" d="M140.725,250.145a2.073,2.073,0,0,1-1.272,1.909,1.356,1.356,0,0,0-1.223-.77H126.973a1.357,1.357,0,0,0-1.223.77,2.071,2.071,0,1,1,1.95-3.635,1.357,1.357,0,0,0,2.1-1.245c-.008-.093-.012-.17-.012-.242a2.811,2.811,0,1,1,5.622,0c0,.076,0,.155-.011.242a1.356,1.356,0,0,0,2.1,1.245,2.072,2.072,0,0,1,3.222,1.726Z" transform="translate(-122.921 -235.638)" fill="#fff"/>
      </g>
      <g id="Grupo_1180451" data-name="Grupo 1180451" transform="translate(84 102.135)">
        <path id="Trazado_1022045" data-name="Trazado 1022045" d="M618.039,340.6H593.276a1.356,1.356,0,0,0-1.356,1.357V386.49a1.356,1.356,0,0,0,1.356,1.356h24.763a1.357,1.357,0,0,0,1.357-1.356V341.956A1.357,1.357,0,0,0,618.039,340.6Zm-1.357,44.533h-22.05v-41.82h22.05Z" transform="translate(-548.858 -320.383)" fill="#413b32"/>
        <path id="Trazado_1022046" data-name="Trazado 1022046" d="M124.214,478.208l-.043.008-.058.008c-.023,0-.045.005-.068.007s-.07,0-.105,0a1.356,1.356,0,0,1-1.356-1.272l-.08-1.071-12.073,3.618-.146,1.965a.586.586,0,0,1-.007.066c0,.022-.005.041-.008.06-.008.045-.017.085-.029.132-.006.021-.012.042-.019.062s-.014.041-.021.06-.015.04-.024.059l-.027.058c-.008.019-.019.037-.029.055s-.02.036-.031.054a.034.034,0,0,0,0,.008,1.332,1.332,0,0,1-.1.137c-.015.02-.031.038-.048.057s-.042.046-.065.067l-.005.005c-.022.022-.046.042-.07.062s-.046.037-.07.054l-.021.015c-.021.015-.043.029-.065.043h-.005c-.026.016-.053.031-.081.046l-.009.005-.071.034-.019.008a.8.8,0,0,1-.075.029h-.006l14.9-4.455Zm-20.347,6.072a1.356,1.356,0,0,1-1.469-1.238l-.085-1.056a3.6,3.6,0,0,0-2.024,2.658l-.714,4.114a.858.858,0,0,1-.848.712H89.935l-.119,1.466a1.357,1.357,0,0,1-1.351,1.247H98.727a3.561,3.561,0,0,0,3.519-2.961l.715-4.114a.907.907,0,0,1,.636-.717l.526-.158a1.345,1.345,0,0,1-.257.047Zm25.362-9.835a1.356,1.356,0,0,0-1.2-.211l-.967.29-1.9.571-2.66.8-12.073,3.618-2.78.835-2.688.805-2.145.643a3.65,3.65,0,0,0-.509.194,3.6,3.6,0,0,0-2.024,2.658l-.714,4.114a.858.858,0,0,1-.848.712H87a3,3,0,0,0-3,3v16.278a1.357,1.357,0,0,0,1.357,1.357h43.062a1.357,1.357,0,0,0,1.356-1.357V475.537a1.356,1.356,0,0,0-.547-1.088ZM86.713,492.468a.286.286,0,0,1,.285-.285H98.727a3.561,3.561,0,0,0,3.519-2.961l.715-4.114a.907.907,0,0,1,.636-.717l.526-.158.061-.019,5.073-1.52.027-.008.094-.028,14.9-4.465.073-.021,2.713-.812v30.025H86.713Zm17.153-8.188a1.357,1.357,0,0,1-1.468-1.238l-.085-1.056a3.6,3.6,0,0,0-2.024,2.658l-.714,4.114a.858.858,0,0,1-.848.712H89.935l-.119,1.466a1.357,1.357,0,0,1-1.351,1.247H98.727a3.561,3.561,0,0,0,3.519-2.961l.715-4.114a.907.907,0,0,1,.636-.717l.526-.158a1.345,1.345,0,0,1-.257.047Zm20.347-6.072-.043.008-.058.008c-.023,0-.045.005-.068.007s-.07,0-.105,0a1.356,1.356,0,0,1-1.356-1.272l-.08-1.071-12.073,3.618-.146,1.965a.583.583,0,0,1-.007.066c0,.022-.005.041-.008.06-.008.045-.017.085-.029.132-.006.021-.012.042-.019.062s-.014.041-.021.06-.015.04-.024.059l-.027.058c-.008.019-.019.037-.029.055s-.02.036-.031.054a.034.034,0,0,0,0,.008,1.331,1.331,0,0,1-.1.137c-.015.02-.031.038-.048.057s-.042.046-.065.067l-.005.005c-.022.022-.046.042-.07.062s-.046.037-.07.054l-.021.015c-.021.015-.043.029-.065.043h-.005c-.026.016-.053.031-.081.046l-.009.005-.071.034-.019.008a.8.8,0,0,1-.075.029h-.006l14.9-4.455Z" transform="translate(-84 -442.635)" fill="#413b32"/>
        <path id="Trazado_1022047" data-name="Trazado 1022047" d="M646.7,411.83h-6.344A1.356,1.356,0,0,0,639,413.186v5.066a1.356,1.356,0,0,0,1.356,1.357H646.7a1.357,1.357,0,0,0,1.357-1.357v-5.066a1.356,1.356,0,0,0-1.36-1.357Zm-1.356,5.066h-3.631v-2.353h3.635Z" transform="translate(-591.946 -385.574)" fill="#413b32"/>
        <path id="Trazado_1022048" data-name="Trazado 1022048" d="M769.807,411.83h-6.35a1.357,1.357,0,0,0-1.357,1.356v5.066a1.357,1.357,0,0,0,1.357,1.356h6.35a1.357,1.357,0,0,0,1.357-1.356v-5.066A1.357,1.357,0,0,0,769.807,411.83ZM768.45,416.9h-3.637v-2.353h3.637Z" transform="translate(-704.61 -385.574)" fill="#413b32"/>
        <path id="Trazado_1022049" data-name="Trazado 1022049" d="M646.7,541.07h-6.344A1.356,1.356,0,0,0,639,542.426v5.066a1.356,1.356,0,0,0,1.356,1.357H646.7a1.356,1.356,0,0,0,1.357-1.357v-5.066a1.357,1.357,0,0,0-1.36-1.357Zm-1.356,5.066h-3.631v-2.353h3.635Z" transform="translate(-591.946 -503.857)" fill="#413b32"/>
        <path id="Trazado_1022050" data-name="Trazado 1022050" d="M769.807,541.07h-6.35a1.357,1.357,0,0,0-1.357,1.357v5.066a1.357,1.357,0,0,0,1.357,1.357h6.35a1.357,1.357,0,0,0,1.357-1.357v-5.066A1.357,1.357,0,0,0,769.807,541.07Zm-1.357,5.066h-3.637v-2.353h3.637Z" transform="translate(-704.61 -503.857)" fill="#413b32"/>
        <path id="Trazado_1022051" data-name="Trazado 1022051" d="M685.189,670.05H674.136a1.356,1.356,0,0,0-1.356,1.357v16.6a1.357,1.357,0,0,0,1.356,1.357h11.052a1.357,1.357,0,0,0,1.356-1.357v-16.6A1.356,1.356,0,0,0,685.189,670.05Zm-9.7,16.6V672.763h8.339v13.889Z" transform="translate(-622.863 -621.901)" fill="#413b32"/>
        <path id="Trazado_1022052" data-name="Trazado 1022052" d="M482.292,553.7a1.356,1.356,0,0,0-1.23-.176l-4.9,1.7a1.357,1.357,0,0,0-.912,1.282v4.9a1.356,1.356,0,0,0,1.357,1.356h4.9a1.356,1.356,0,0,0,1.357-1.356v-6.594A1.356,1.356,0,0,0,482.292,553.7Zm-2.146,6.343h-2.183v-2.576l2.183-.757Z" transform="translate(-442.079 -515.186)" fill="#413b32"/>
        <path id="Trazado_1022053" data-name="Trazado 1022053" d="M365.153,586.358a1.357,1.357,0,0,0-1.23-.174l-4.9,1.7a1.357,1.357,0,0,0-.913,1.282v4.9a1.357,1.357,0,0,0,1.357,1.357h4.9a1.357,1.357,0,0,0,1.357-1.357v-6.6a1.357,1.357,0,0,0-.569-1.1Zm-2.143,6.343h-2.187v-2.576l2.187-.757Z" transform="translate(-334.871 -545.077)" fill="#413b32"/>
        <path id="Trazado_1022054" data-name="Trazado 1022054" d="M192.3,733.356a1.357,1.357,0,0,1-1.357,1.357h-30.3a1.357,1.357,0,1,1,0-2.713h30.3A1.356,1.356,0,0,1,192.3,733.356Z" transform="translate(-152.907 -678.599)" fill="#413b32"/>
        <path id="Trazado_1022055" data-name="Trazado 1022055" d="M192.3,795.656a1.356,1.356,0,0,1-1.357,1.357h-30.3a1.356,1.356,0,1,1,0-2.713h30.3A1.356,1.356,0,0,1,192.3,795.656Z" transform="translate(-152.907 -735.617)" fill="#413b32"/>
        <path id="Trazado_1022056" data-name="Trazado 1022056" d="M137.724,341.892l-.061.019a1.357,1.357,0,0,1-1.722-1.187l-.088-1.06-.983-11.684-.228-2.713-.327-3.888h-8.758l-.315,3.888-.219,2.713-1.548,19.167-.119,1.466a1.357,1.357,0,0,1-1.351,1.247h-.111a1.357,1.357,0,0,1-1.243-1.462l.1-1.247,2.019-24.968.183-2.266a1.325,1.325,0,0,1,.13-.477,1.357,1.357,0,0,1,1.223-.77H135.56a1.357,1.357,0,0,1,1.352,1.243l.191,2.261,1.4,16.649.14,1.665A1.357,1.357,0,0,1,137.724,341.892Z" transform="translate(-117.54 -300.312)" fill="#413b32"/>
        <path id="Trazado_1022057" data-name="Trazado 1022057" d="M379.907,244.627a1.357,1.357,0,0,1-.941,1.293l-.073.021-.065.014-.043.008-.058.008c-.023,0-.045.005-.068.007s-.069,0-.105,0a1.357,1.357,0,0,1-1.357-1.272l-.08-1.071-1.034-13.9-.2-2.713-.29-3.888h-8.758l-.288,3.888-.2,2.713-1.3,17.527-.146,1.965a.584.584,0,0,1-.007.066c0,.022-.005.041-.008.06-.008.045-.017.085-.029.132-.006.021-.012.042-.019.062s-.014.041-.021.06-.015.04-.024.059l-.027.058c-.008.019-.019.037-.029.055s-.02.036-.031.054a.04.04,0,0,0,0,.008,1.343,1.343,0,0,1-.1.137c-.015.02-.031.038-.048.057s-.042.046-.065.067l-.005.005c-.022.022-.046.042-.07.062s-.046.037-.07.054l-.021.015c-.021.015-.043.029-.065.043h-.005c-.026.016-.053.031-.081.046l-.009.005-.071.034-.019.008q-.037.016-.075.029h-.006l-.094.028-.027.008a1.379,1.379,0,0,1-.32.038.836.836,0,0,1-.1,0,1.357,1.357,0,0,1-1.252-1.453l.069-.933,1.8-24.316.1-1.349V222.4l.064-.754a1.357,1.357,0,0,1,1.352-1.24h11.25a1.357,1.357,0,0,1,1.351,1.238l.065.754a.124.124,0,0,1,0,.018l.1,1.348,1.422,19.075.125,1.682C379.9,244.559,379.907,244.593,379.907,244.627Z" transform="translate(-338.61 -210.383)" fill="#413b32"/>
        <path id="Trazado_1022058" data-name="Trazado 1022058" d="M395.452,299.716a1.357,1.357,0,0,1-1.357,1.356H381.887a1.356,1.356,0,0,1,0-2.713H394.1A1.357,1.357,0,0,1,395.452,299.716Z" transform="translate(-355.39 -281.724)" fill="#413b32"/>
        <path id="Trazado_1022059" data-name="Trazado 1022059" d="M157.1,397.837a1.357,1.357,0,0,1-1.357,1.357H143.536a1.357,1.357,0,0,1,0-2.713h12.208A1.357,1.357,0,0,1,157.1,397.837Z" transform="translate(-137.247 -371.525)" fill="#413b32"/>
        <path id="Trazado_1022060" data-name="Trazado 1022060" d="M362.37,110.871a4.792,4.792,0,0,1-3.686,4.656,4.734,4.734,0,0,1-1.1.128,4.63,4.63,0,0,1-.5-.027,1.356,1.356,0,1,1,.294-2.7,1.8,1.8,0,0,0,.208.011,2.071,2.071,0,1,0-1.145-3.8,1.356,1.356,0,0,1-2.1-1.245c.007-.085.011-.165.011-.242a2.811,2.811,0,1,0-5.622,0,1.911,1.911,0,0,0,.012.242,1.356,1.356,0,0,1-2.1,1.245,2.072,2.072,0,1,0-1.146,3.8,2.038,2.038,0,0,0,.209-.011,1.356,1.356,0,1,1,.294,2.7,4.654,4.654,0,0,1-.5.027,4.784,4.784,0,1,1,0-9.568,4.839,4.839,0,0,1,.736.056,5.525,5.525,0,0,1,10.626,0,4.79,4.79,0,0,1,5.52,4.728Z" transform="translate(-318.937 -102.135)" fill="#413b32"/>
        <path id="Trazado_1022061" data-name="Trazado 1022061" d="M124.061,210.871a4.784,4.784,0,0,1-4.785,4.784c-.155,0-.307-.008-.46-.023a1.356,1.356,0,0,1,.107-2.709.961.961,0,0,1,.109,0h.043a1.769,1.769,0,0,0,.2.011,2.071,2.071,0,1,0-1.15-3.794,1.357,1.357,0,0,1-2.1-1.245c.007-.085.011-.165.011-.242a2.811,2.811,0,1,0-5.622,0,1.9,1.9,0,0,0,.012.242,1.357,1.357,0,0,1-2.1,1.245,2.071,2.071,0,1,0-1.146,3.8,1.811,1.811,0,0,0,.206-.011,1.357,1.357,0,0,1,.283,2.7,4.665,4.665,0,0,1-.489.025,4.784,4.784,0,1,1,0-9.568,4.84,4.84,0,0,1,.736.056,5.525,5.525,0,0,1,10.626,0,4.79,4.79,0,0,1,5.525,4.728Z" transform="translate(-100.831 -193.657)" fill="#413b32"/>
      </g>
    </g>
  </g>
</svg>
