<svg xmlns="http://www.w3.org/2000/svg" xmlns:xlink="http://www.w3.org/1999/xlink" width="128" height="128" viewBox="0 0 128 128">
  <defs>
    <clipPath id="clip-path">
      <rect id="Rectángulo_456277" data-name="Rectángulo 456277" width="128" height="128" transform="translate(0 0)" fill="#d35560"/>
    </clipPath>
  </defs>
  <g id="Grupo_1180069" data-name="Grupo 1180069" transform="translate(13436 12681)">
    <g id="Grupo_1179924" data-name="Grupo 1179924" transform="translate(-13436 -12681)">
      <g id="Grupo_1179923" data-name="Grupo 1179923" transform="translate(0 0)" clip-path="url(#clip-path)">
        <path id="Trazado_1004716" data-name="Trazado 1004716" d="M63.534,127.068c-2.064,0-3.994-2.358-6.006-2.554-2.05-.2-4.4,1.735-6.388,1.341-2.016-.4-3.449-3.09-5.391-3.68-1.964-.6-4.65.839-6.526.059-1.892-.786-2.769-3.705-4.562-4.667s-4.72-.086-6.412-1.22-1.99-4.172-3.566-5.467-4.61-1-6.054-2.44-1.143-4.475-2.44-6.054-4.328-1.867-5.467-3.566-.252-4.608-1.22-6.411-3.881-2.67-4.668-4.562c-.78-1.877.656-4.563.059-6.526-.59-1.942-3.28-3.374-3.68-5.391-.395-1.987,1.541-4.338,1.34-6.388C2.358,67.528,0,65.6,0,63.534s2.358-3.994,2.554-6.006c.2-2.05-1.735-4.4-1.34-6.388.4-2.016,3.09-3.449,3.68-5.391.6-1.964-.839-4.65-.059-6.527C5.622,37.33,8.54,36.453,9.5,34.66s.085-4.719,1.22-6.412,4.171-1.99,5.466-3.566,1-4.61,2.441-6.054,4.475-1.143,6.053-2.44,1.867-4.328,3.566-5.467,4.608-.252,6.412-1.22,2.67-3.881,4.562-4.668c1.877-.78,4.563.656,6.527.059,1.942-.59,3.374-3.279,5.39-3.68,1.987-.395,4.338,1.541,6.388,1.341C59.54,2.358,61.47,0,63.534,0s3.994,2.358,6.006,2.554c2.05.2,4.4-1.735,6.388-1.341,2.016.4,3.449,3.09,5.391,3.68,1.964.6,4.65-.839,6.526-.059,1.892.786,2.769,3.705,4.562,4.668s4.72.085,6.412,1.22,1.99,4.171,3.566,5.466,4.61,1,6.054,2.441,1.143,4.475,2.44,6.053,4.328,1.867,5.467,3.566.252,4.608,1.22,6.412,3.881,2.67,4.667,4.562c.78,1.877-.656,4.563-.059,6.526.59,1.942,3.28,3.374,3.68,5.39.395,1.987-1.541,4.338-1.341,6.388.2,2.012,2.555,3.943,2.555,6.006s-2.358,3.994-2.555,6.007c-.2,2.049,1.735,4.4,1.341,6.388-.4,2.016-3.09,3.449-3.68,5.391-.6,1.964.839,4.65.059,6.526-.787,1.893-3.705,2.769-4.668,4.563s-.085,4.719-1.22,6.412-4.171,1.99-5.466,3.566-1,4.61-2.441,6.053-4.475,1.143-6.053,2.44-1.867,4.328-3.566,5.466-4.608.252-6.412,1.22-2.67,3.881-4.562,4.668c-1.877.78-4.563-.656-6.526-.059-1.942.59-3.374,3.279-5.39,3.68-1.987.395-4.338-1.541-6.388-1.341-2.013.2-3.943,2.554-6.007,2.554" transform="translate(0.466 0.466)" fill="#d35560"/>
        <path id="Trazado_1004717" data-name="Trazado 1004717" d="M14,71.524a57.524,57.524,0,1,1,57.524,57.524A57.524,57.524,0,0,1,14,71.524" transform="translate(-7.524 -7.524)" fill="#4d787e"/>
        <path id="Trazado_1004718" data-name="Trazado 1004718" d="M131.909,269.316c-.153-.646-.3-1.314-.433-1.969l-2.01-.256q.9-.478,1.765-.962-.191-.985-.361-1.967c.46.452.931.917,1.416,1.362q.847-.526,1.657-1.055-.359.929-.741,1.855c.5.431,1.015.868,1.54,1.3l-2.02-.151q-.4.926-.813,1.849" transform="translate(-73.422 -150.295)" fill="#ffffc5"/>
        <path id="Trazado_1004719" data-name="Trazado 1004719" d="M113.426,265.848c-.055-.66-.1-1.343-.133-2.011l-1.949-.555q.962-.338,1.89-.686-.042-1-.061-2c.387.515.783,1.047,1.2,1.558q.916-.393,1.8-.794-.494.863-1.01,1.722c.431.5.872,1.016,1.329,1.509-.661-.137-1.317-.3-1.976-.449q-.529.856-1.081,1.706" transform="translate(-63.08 -148.261)" fill="#ffffc5"/>
        <path id="Trazado_1004720" data-name="Trazado 1004720" d="M95.721,259.733c.05-.672.108-1.345.172-2.013l-1.845-.838c.667-.124,1.326-.26,1.972-.4q.109-1,.239-1.984c.305.568.62,1.144.948,1.721q.965-.252,1.9-.518-.618.78-1.258,1.552c.352.559.712,1.129,1.088,1.693l-1.886-.741q-.652.767-1.325,1.525" transform="translate(-53.209 -144.782)" fill="#ffffc5"/>
        <path id="Trazado_1004721" data-name="Trazado 1004721" d="M79.2,251.1q.225-.987.47-1.963c-.565-.37-1.144-.718-1.7-1.105.667-.007,1.349-.058,2.007-.1q.256-.968.531-1.924.327.909.684,1.839c.652-.056,1.311-.146,1.95-.226q-.729.68-1.477,1.349.4.908.824,1.833L80.734,249.8c-.506.44-1.023.883-1.534,1.3" transform="translate(-44.034 -139.94)" fill="#ffffc5"/>
        <path id="Trazado_1004722" data-name="Trazado 1004722" d="M64.221,240.181q.368-.941.753-1.869c-.505-.448-1.035-.87-1.513-1.347.655.1,1.335.151,2,.207q.4-.918.807-1.822.192.945.41,1.914c.643.054,1.314.055,1.959.07q-.822.565-1.663,1.117.26.954.548,1.929l-1.593-1.253c-.57.365-1.13.707-1.7,1.054" transform="translate(-35.752 -133.852)" fill="#ffffc5"/>
        <path id="Trazado_1004723" data-name="Trazado 1004723" d="M51.1,227.217q.5-.876,1.018-1.735l-.663-.766c-.22-.256-.421-.528-.631-.792l.961.27.978.232q.525-.849,1.065-1.68.053.96.129,1.947l.955.2.969.162q-.9.439-1.812.862.119.978.263,1.982c-.464-.491-.938-.973-1.393-1.471q-.912.4-1.839.789" transform="translate(-28.54 -126.659)" fill="#ffffc5"/>
        <path id="Trazado_1004724" data-name="Trazado 1004724" d="M39.841,212.493q.625-.791,1.262-1.563c-.18-.286-.37-.565-.542-.856l-.506-.878c.616.274,1.207.55,1.839.786.431-.508.857-1,1.3-1.505-.067.643-.112,1.285-.159,1.943.616.229,1.214.456,1.845.645-.636.2-1.279.4-1.921.584-.019.658-.025,1.321-.027,2-.384-.555-.8-1.089-1.158-1.663q-.963.264-1.938.509" transform="translate(-22.272 -118.515)" fill="#ffffc5"/>
        <path id="Trazado_1004725" data-name="Trazado 1004725" d="M30.615,196.327q.734-.688,1.478-1.357c-.292-.61-.523-1.245-.774-1.872.571.362,1.115.723,1.7,1.054.5-.435,1.006-.868,1.522-1.3-.18.632-.3,1.253-.45,1.9.582.315,1.13.632,1.724.915-.662.106-1.323.2-1.978.288-.136.656-.223,1.3-.328,1.971-.3-.6-.629-1.2-.9-1.817q-.992.118-1.994.216" transform="translate(-17.006 -109.601)" fill="#ffffc5"/>
        <path id="Trazado_1004726" data-name="Trazado 1004726" d="M24.019,178.752q.829-.57,1.663-1.119c-.2-.646-.321-1.312-.483-1.967.509.444,1,.88,1.517,1.3.554-.355,1.135-.71,1.7-1.054-.278.6-.493,1.2-.732,1.809.526.4,1.033.792,1.563,1.164-.674.006-1.326,0-1.993-.014-.242.632-.419,1.256-.622,1.9-.221-.639-.438-1.278-.611-1.932q-1-.032-2.006-.086" transform="translate(-13.242 -99.79)" fill="#ffffc5"/>
        <path id="Trazado_1004727" data-name="Trazado 1004727" d="M20.215,160.164q.9-.439,1.812-.856c-.1-.668-.122-1.345-.182-2.018.437.516.856,1.02,1.3,1.511.6-.268,1.228-.532,1.843-.787-.365.551-.665,1.108-1,1.68.459.473.9.937,1.37,1.386-.665-.1-1.309-.2-1.967-.313-.334.588-.606,1.179-.9,1.785l-.179-1c-.056-.333-.089-.67-.135-1q-.984-.182-1.97-.386" transform="translate(-11.071 -89.302)" fill="#ffffc5"/>
        <path id="Trazado_1004728" data-name="Trazado 1004728" d="M19.269,141.311q.961-.3,1.921-.579c0-.676.063-1.349.115-2.022.359.574.682,1.135,1.072,1.687.64-.176,1.276-.346,1.93-.507-.428.492-.816,1-1.228,1.515.386.537.744,1.062,1.152,1.574q-.966-.29-1.905-.6c-.412.532-.767,1.076-1.153,1.631-.015-.675-.047-1.35-.015-2.025q-.945-.325-1.889-.673" transform="translate(-10.531 -78.698)" fill="#ffffc5"/>
        <path id="Trazado_1004729" data-name="Trazado 1004729" d="M21.174,122.6q1-.154,1.988-.286c.063-.332.112-.667.186-1l.228-.987c.266.621.507,1.224.81,1.828.663-.078,1.31-.152,1.981-.213-.489.424-.956.865-1.438,1.314.3.588.572,1.159.909,1.727-.6-.285-1.214-.58-1.8-.878-.471.467-.917.95-1.379,1.443.094-.668.149-1.343.283-2.006q-.885-.462-1.767-.947" transform="translate(-11.618 -68.211)" fill="#ffffc5"/>
        <path id="Trazado_1004730" data-name="Trazado 1004730" d="M25.928,104.462q1.007,0,2.007.015c.2-.644.459-1.27.708-1.9.173.655.316,1.286.525,1.929.664.021,1.322.048,1.994.088-.554.343-1.076.71-1.622,1.083.211.627.392,1.231.639,1.844-.553-.373-1.111-.756-1.647-1.139-.539.39-1.05.8-1.581,1.22.192-.648.351-1.305.583-1.941q-.806-.59-1.605-1.2" transform="translate(-14.331 -58.078)" fill="#ffffc5"/>
        <path id="Trazado_1004731" data-name="Trazado 1004731" d="M33.429,87.3q1,.147,1.98.315c.295-.608.656-1.181.986-1.77.071.672.132,1.326.228,1.984.648.118,1.311.252,1.964.389-.612.249-1.172.54-1.769.826.114.651.212,1.281.353,1.918-.5-.454-.976-.909-1.452-1.37-.6.3-1.159.634-1.749.966.279-.615.548-1.235.869-1.83q-.71-.7-1.409-1.43" transform="translate(-18.612 -48.53)" fill="#ffffc5"/>
        <path id="Trazado_1004732" data-name="Trazado 1004732" d="M43.489,71.506q.961.294,1.909.6c.393-.549.828-1.067,1.24-1.6q-.046,1.012-.071,2,.952.332,1.89.68c-.638.159-1.255.349-1.876.551q.02.988.06,1.948-.62-.775-1.225-1.566c-.642.206-1.253.446-1.878.692l.547-.853.586-.826q-.6-.8-1.183-1.625" transform="translate(-24.354 -39.775)" fill="#ffffc5"/>
        <path id="Trazado_1004733" data-name="Trazado 1004733" d="M55.279,57.409q.906.431,1.8.878l1.465-1.4q-.193,1-.359,1.97.891.467,1.766.95c-.646.071-1.3.15-1.94.264q-.124.983-.224,1.941-.5-.858-.981-1.732l-.989.183c-.327.067-.647.145-.974.22.432-.519.906-1,1.372-1.49q-.474-.884-.932-1.784" transform="translate(-30.831 -32.001)" fill="#ffffc5"/>
        <path id="Trazado_1004734" data-name="Trazado 1004734" d="M69.057,45.313c.553.372,1.1.749,1.652,1.141l1.651-1.175q-.335.961-.641,1.9.811.592,1.6,1.2c-.643-.015-1.315-.05-1.961-.03q-.265.958-.5,1.893-.367-.923-.716-1.861c-.659.027-1.347.038-2,.105.5-.451,1.054-.844,1.579-1.269q-.339-.946-.66-1.905" transform="translate(-38.421 -25.376)" fill="#ffffc5"/>
        <path id="Trazado_1004735" data-name="Trazado 1004735" d="M84.591,34.886c.492.45.986.918,1.469,1.382l1.8-.925q-.473.9-.914,1.792.713.705,1.407,1.42c-.634-.113-1.284-.229-1.937-.325q-.4.911-.774,1.8-.227-.969-.434-1.949c-.656-.071-1.331-.15-2-.2.577-.351,1.169-.678,1.752-1.018q-.2-.986-.371-1.985" transform="translate(-47.023 -19.444)" fill="#ffffc5"/>
        <path id="Trazado_1004736" data-name="Trazado 1004736" d="M101.552,26.946q.634.791,1.246,1.589c.64-.214,1.278-.44,1.921-.644-.405.538-.792,1.094-1.172,1.634q.6.8,1.177,1.613-.916-.311-1.866-.611c-.358.554-.7,1.119-1.034,1.67q-.08-.993-.139-1.994-.958-.254-1.949-.5l1.885-.745c-.03-.669-.056-1.348-.069-2.016" transform="translate(-56.455 -14.913)" fill="#ffffc5"/>
        <path id="Trazado_1004737" data-name="Trazado 1004737" d="M119.566,21.733q.507.876.993,1.758c.665-.115,1.329-.246,2-.349-.482.468-.948.962-1.4,1.439q.472.883.922,1.771-.858-.444-1.753-.883c-.439.486-.86,1-1.273,1.495q.07-.994.162-1.994-.908-.394-1.852-.78l1.974-.457c.071-.666.147-1.344.235-2" transform="translate(-66.511 -11.938)" fill="#ffffc5"/>
        <path id="Trazado_1004738" data-name="Trazado 1004738" d="M138.214,19.35q.371.944.72,1.888l2.025-.051q-.819.609-1.6,1.218.335.945.648,1.89-.784-.569-1.6-1.138c-.507.424-1,.862-1.483,1.29q.218-.972.459-1.946-.84-.527-1.715-1.051l2.02-.154c.17-.648.346-1.305.531-1.947" transform="translate(-76.959 -10.578)" fill="#ffffc5"/>
        <path id="Trazado_1004739" data-name="Trazado 1004739" d="M157.075,19.831c.153.647.3,1.314.433,1.969l2.01.256q-.9.478-1.765.962.191.985.36,1.967c-.46-.452-.931-.917-1.416-1.362q-.847.526-1.657,1.055.359-.929.741-1.855c-.5-.431-1.014-.868-1.54-1.3l2.021.151q.4-.926.813-1.849" transform="translate(-87.562 -10.852)" fill="#ffffc5"/>
        <path id="Trazado_1004740" data-name="Trazado 1004740" d="M175.741,23.17c.055.66.1,1.343.134,2.011l1.949.555q-.962.338-1.89.686.042,1,.061,2c-.387-.515-.782-1.047-1.2-1.558q-.916.393-1.8.794.494-.864,1.01-1.722c-.431-.5-.872-1.016-1.329-1.509.661.137,1.317.3,1.976.449q.53-.856,1.081-1.706" transform="translate(-98.088 -12.758)" fill="#ffffc5"/>
        <path id="Trazado_1004741" data-name="Trazado 1004741" d="M193.559,29.313c-.05.672-.108,1.345-.172,2.012l1.845.838c-.667.125-1.326.261-1.972.4q-.109,1-.239,1.984c-.305-.568-.62-1.144-.948-1.721q-.965.252-1.9.518.618-.78,1.257-1.552c-.351-.559-.712-1.129-1.087-1.693l1.886.741q.652-.767,1.325-1.525" transform="translate(-108.072 -16.264)" fill="#ffffc5"/>
        <path id="Trazado_1004742" data-name="Trazado 1004742" d="M209.923,38.133q-.225.987-.47,1.963c.565.37,1.144.718,1.7,1.105-.667.007-1.349.058-2.007.1q-.256.968-.531,1.924-.327-.909-.684-1.839c-.652.056-1.311.146-1.95.226q.729-.68,1.477-1.349-.4-.908-.824-1.833l1.756,1.011c.506-.44,1.022-.883,1.534-1.3" transform="translate(-117.09 -21.297)" fill="#ffffc5"/>
        <path id="Trazado_1004743" data-name="Trazado 1004743" d="M224.9,49.134q-.368.941-.753,1.869c.505.448,1.035.87,1.513,1.347-.655-.1-1.335-.151-2-.206q-.4.918-.807,1.822-.192-.945-.41-1.913c-.643-.055-1.314-.055-1.959-.07q.823-.565,1.663-1.117-.26-.954-.548-1.929l1.593,1.252c.57-.365,1.13-.707,1.7-1.054" transform="translate(-125.371 -27.463)" fill="#ffffc5"/>
        <path id="Trazado_1004744" data-name="Trazado 1004744" d="M238.176,61.933q-.5.876-1.018,1.735l.663.766c.22.256.42.528.632.792l-.961-.27-.978-.232q-.525.849-1.065,1.68-.053-.96-.129-1.947l-.955-.2-.969-.162q.9-.439,1.812-.862-.119-.978-.263-1.982c.464.491.938.973,1.393,1.471q.912-.4,1.839-.789" transform="translate(-132.736 -34.491)" fill="#ffffc5"/>
        <path id="Trazado_1004745" data-name="Trazado 1004745" d="M249.453,76.636q-.625.791-1.261,1.563c.18.285.37.565.542.856l.506.878c-.616-.274-1.207-.55-1.839-.786-.431.508-.857,1-1.3,1.505.067-.643.112-1.285.159-1.943-.616-.229-1.214-.455-1.845-.645.636-.2,1.279-.4,1.921-.585.019-.657.025-1.32.027-2,.384.555.8,1.089,1.158,1.663q.963-.264,1.938-.509" transform="translate(-139.022 -42.614)" fill="#ffffc5"/>
        <path id="Trazado_1004746" data-name="Trazado 1004746" d="M258.476,92.93q-.734.688-1.478,1.357c.292.61.523,1.245.774,1.872-.571-.362-1.115-.722-1.7-1.054-.5.435-1.006.868-1.522,1.3.18-.632.3-1.253.45-1.9-.582-.315-1.13-.632-1.724-.915.662-.106,1.324-.2,1.978-.288.136-.656.223-1.3.328-1.971.3.6.629,1.2.9,1.818q.992-.118,1.994-.215" transform="translate(-144.085 -51.657)" fill="#ffffc5"/>
        <path id="Trazado_1004747" data-name="Trazado 1004747" d="M265.025,110.463q-.829.571-1.663,1.119c.2.646.321,1.312.483,1.967-.509-.444-1-.88-1.517-1.3-.554.355-1.135.71-1.7,1.054.278-.6.493-1.195.733-1.809-.526-.4-1.033-.792-1.563-1.164.674-.006,1.326,0,1.993.014.242-.631.419-1.256.622-1.9.221.639.438,1.278.611,1.932q1,.032,2.006.086" transform="translate(-147.801 -61.426)" fill="#ffffc5"/>
        <path id="Trazado_1004748" data-name="Trazado 1004748" d="M268.935,128.842q-.9.439-1.812.856c.1.668.122,1.345.182,2.018-.437-.516-.856-1.02-1.3-1.511-.6.268-1.228.532-1.843.787.365-.551.665-1.108,1-1.68-.459-.473-.9-.937-1.37-1.386.665.1,1.309.2,1.967.313.334-.588.606-1.178.9-1.785l.179,1c.056.333.089.67.135,1q.984.182,1.97.386" transform="translate(-150.079 -71.704)" fill="#ffffc5"/>
        <path id="Trazado_1004749" data-name="Trazado 1004749" d="M270.032,147.643q-.961.3-1.921.579c0,.676-.063,1.349-.115,2.022-.359-.574-.682-1.135-1.072-1.687-.64.176-1.276.346-1.93.507.428-.492.816-1,1.228-1.515-.386-.537-.744-1.062-1.152-1.574q.966.29,1.905.6c.412-.532.767-1.076,1.153-1.631.015.675.047,1.35.015,2.025q.945.326,1.889.673" transform="translate(-150.77 -82.257)" fill="#ffffc5"/>
        <path id="Trazado_1004750" data-name="Trazado 1004750" d="M267.922,166.455q-1,.154-1.988.286c-.063.332-.112.667-.186,1l-.228.987c-.266-.621-.507-1.224-.81-1.828-.663.078-1.31.152-1.981.213.489-.424.956-.865,1.439-1.314-.3-.588-.572-1.159-.909-1.727.6.285,1.214.58,1.8.878.471-.467.917-.95,1.379-1.443-.094.668-.149,1.343-.283,2.006q.885.462,1.767.947" transform="translate(-149.478 -92.847)" fill="#ffffc5"/>
        <path id="Trazado_1004751" data-name="Trazado 1004751" d="M263.113,184.858q-1.007,0-2.007-.015c-.2.644-.459,1.27-.708,1.9-.173-.655-.315-1.287-.525-1.929-.664-.021-1.322-.048-1.994-.088.554-.343,1.076-.71,1.622-1.083-.211-.626-.391-1.231-.639-1.844.553.373,1.111.755,1.647,1.138.539-.39,1.05-.8,1.581-1.219-.192.647-.351,1.305-.583,1.94q.806.59,1.605,1.2" transform="translate(-146.71 -103.243)" fill="#ffffc5"/>
        <path id="Trazado_1004752" data-name="Trazado 1004752" d="M255.713,201.893q-1-.147-1.98-.315c-.295.608-.656,1.181-.986,1.769-.071-.672-.132-1.326-.228-1.984-.648-.118-1.311-.252-1.964-.389.612-.249,1.172-.54,1.769-.826-.114-.651-.211-1.281-.353-1.918.5.454.976.909,1.452,1.37.6-.3,1.159-.634,1.749-.966-.279.615-.548,1.235-.868,1.83q.709.7,1.408,1.429" transform="translate(-142.53 -112.667)" fill="#ffffc5"/>
        <path id="Trazado_1004753" data-name="Trazado 1004753" d="M245.906,217.614q-.961-.293-1.909-.6c-.393.549-.828,1.067-1.24,1.6q.046-1.012.071-2-.952-.332-1.89-.68c.638-.159,1.255-.349,1.876-.551q-.02-.988-.06-1.948.62.775,1.225,1.566c.642-.206,1.253-.446,1.878-.692l-.547.853-.586.826q.6.8,1.183,1.625" transform="translate(-137.041 -121.346)" fill="#ffffc5"/>
        <path id="Trazado_1004754" data-name="Trazado 1004754" d="M233.928,231.779q-.906-.431-1.8-.878l-1.465,1.4q.193-1,.359-1.97-.891-.467-1.766-.95c.646-.071,1.3-.15,1.94-.264q.124-.983.224-1.941.5.858.981,1.732l.989-.183c.327-.067.647-.145.974-.22-.432.519-.906,1-1.372,1.49q.474.884.932,1.784" transform="translate(-130.376 -129.187)" fill="#ffffc5"/>
        <path id="Trazado_1004755" data-name="Trazado 1004755" d="M220.049,244.088c-.553-.372-1.1-.749-1.652-1.141l-1.651,1.175q.335-.961.641-1.9-.811-.592-1.6-1.2c.643.015,1.315.05,1.961.03q.265-.958.5-1.893.367.923.717,1.861c.659-.027,1.347-.038,2-.105-.5.451-1.054.844-1.579,1.269q.339.946.66,1.905" transform="translate(-122.685 -136.026)" fill="#ffffc5"/>
        <path id="Trazado_1004756" data-name="Trazado 1004756" d="M204.568,254.268c-.492-.449-.986-.918-1.469-1.382l-1.8.925q.473-.9.914-1.792-.713-.706-1.407-1.421c.634.113,1.284.229,1.937.325q.4-.91.774-1.8.227.97.434,1.95c.656.071,1.33.149,2,.2-.577.352-1.168.678-1.752,1.019q.2.986.371,1.984" transform="translate(-114.135 -141.71)" fill="#ffffc5"/>
        <path id="Trazado_1004757" data-name="Trazado 1004757" d="M187.815,262.073q-.634-.791-1.246-1.589c-.64.214-1.278.44-1.921.644.405-.538.793-1.094,1.172-1.634q-.6-.8-1.177-1.613.916.311,1.866.611c.358-.554.7-1.119,1.034-1.67q.08.993.139,1.995.958.254,1.949.5l-1.885.745c.03.669.056,1.348.069,2.016" transform="translate(-104.913 -146.107)" fill="#ffffc5"/>
        <path id="Trazado_1004758" data-name="Trazado 1004758" d="M169.522,267.312q-.507-.876-.993-1.758c-.665.116-1.329.246-2,.349.482-.468.948-.963,1.4-1.439q-.472-.883-.922-1.771.858.444,1.753.883c.439-.486.86-1,1.273-1.495q-.07.994-.162,1.994.908.394,1.852.78l-1.974.457c-.071.666-.147,1.344-.235,2" transform="translate(-94.577 -149.108)" fill="#ffffc5"/>
        <path id="Trazado_1004759" data-name="Trazado 1004759" d="M150.745,269.873q-.371-.943-.719-1.888l-2.025.051q.819-.609,1.6-1.219-.336-.945-.648-1.89.784.569,1.6,1.138c.507-.424,1-.862,1.483-1.29q-.218.972-.459,1.946.84.527,1.715,1.05l-2.02.154c-.17.648-.346,1.305-.531,1.946" transform="translate(-84 -150.646)" fill="#ffffc5"/>
        <path id="Trazado_1004760" data-name="Trazado 1004760" d="M83.637,132.05A48.412,48.412,0,1,1,132.05,83.637,48.467,48.467,0,0,1,83.637,132.05" transform="translate(-19.637 -19.638)" fill="#fff7e8"/>
      </g>
    </g>
    <g id="Grupo_1180053" data-name="Grupo 1180053" transform="translate(-13402.254 -12647.618)">
      <rect id="Rectángulo_401104" data-name="Rectángulo 401104" width="60.508" height="61.237" transform="translate(0)" fill="none"/>
    </g>
    <g id="Funding_Deal" data-name="Funding Deal" transform="translate(-13407.632 -12652.679)">
      <path id="Trazado_1022369" data-name="Trazado 1022369" d="M66.646,42.625,57.555,26.071a2.225,2.225,0,0,0-3.023-.879L51.893,26.64a2.2,2.2,0,0,0-.979,2.791,5.214,5.214,0,0,1-1.014.338,6.633,6.633,0,0,1-3.987-.557c-3.371-1.378-8.754-1.457-16.456-.241a3.705,3.705,0,0,0-2.409,1.48l-.931,1.287c-1.086-.289-2.183-.559-3.282-.79A9.288,9.288,0,0,1,20.118,29.9l.132-.241a2.23,2.23,0,0,0-.879-3.023l-2.639-1.449a2.225,2.225,0,0,0-3.023.879L4.618,42.625A2.226,2.226,0,0,0,5.5,45.648L8.137,47.1a2.223,2.223,0,0,0,2.449-.2q.979,1.216,2.016,2.362a3.308,3.308,0,0,0,2.827,5.033,3.347,3.347,0,0,0,.555-.06,3.263,3.263,0,0,0,1.111,3.348h0a3.269,3.269,0,0,0,3.73.3,3.294,3.294,0,0,0,5.168,2.478,3.3,3.3,0,0,0,1.2,2.564h0a3.293,3.293,0,0,0,4.276-.079,18.4,18.4,0,0,0,6.952,1.759,5.878,5.878,0,0,0,3.889-1.24,5.066,5.066,0,0,0,1.167-1.438c.078,0,.157.025.234.025a4.526,4.526,0,0,0,3.725-1.916,4.284,4.284,0,0,0,.687-1.666,4.308,4.308,0,0,0,3.257-2.3,4.194,4.194,0,0,0,.4-2.527,3.829,3.829,0,0,0,1.177-.521,3.888,3.888,0,0,0,1.885-3.7,43.023,43.023,0,0,0,5.093-3.409l.165.3a2.222,2.222,0,0,0,3.023.881l2.639-1.449a2.226,2.226,0,0,0,.879-3.023ZM6.619,43.683l9.023-16.508,2.625,1.4L9.229,45.108l-.006,0Zm8.141,8.106a1.058,1.058,0,0,1-.147-1.489l1.833-2.237a1.053,1.053,0,0,1,.714-.382q.053,0,.106,0a1.058,1.058,0,0,1,.817,1.73L16.25,51.642a1.063,1.063,0,0,1-1.49.147Zm3.767,4.039a1.059,1.059,0,0,1-.147-1.489l4.163-5.081A1.058,1.058,0,1,1,24.181,50.6L20.018,55.68a1.062,1.062,0,0,1-1.49.147Zm4.929,2.623a1.06,1.06,0,0,1-.148-1.49l2.776-3.387a1.059,1.059,0,1,1,1.638,1.342L24.946,58.3a1.062,1.062,0,0,1-1.49.148Zm5.169,2.724a1.059,1.059,0,0,1-.147-1.49l1.151-1.4a1.059,1.059,0,1,1,1.638,1.342l-1.151,1.4a1.061,1.061,0,0,1-1.49.148ZM51.7,51.146a2.806,2.806,0,0,1-2.75-.263L40.7,46.049A1.131,1.131,0,1,0,39.553,48l8.253,4.834a6.356,6.356,0,0,0,1.663.682,2.086,2.086,0,0,1-.106,1.528,2.058,2.058,0,0,1-1.6,1.092L39.714,51.83a1.131,1.131,0,0,0-1.068,1.994l7.292,3.9a2.063,2.063,0,0,1-.356,1.013,2.3,2.3,0,0,1-2.3.913L37.13,56.918a1.131,1.131,0,0,0-.919,2.067l5.017,2.231a2.691,2.691,0,0,1-.367.413c-1.349,1.125-4.109.905-7.834-.586A3.305,3.305,0,0,0,29.881,55.7a3.307,3.307,0,0,0-3.364-4.743,3.318,3.318,0,0,0-5.723-3.129l-.275.335a3.31,3.31,0,0,0-5.824-1.529l-.672.821q-1.1-1.239-2.135-2.558l7.142-13.006a11.518,11.518,0,0,0,3.34,1.275c.777.164,1.553.348,2.325.542l-3.533,4.882a2.2,2.2,0,0,0-.223,2.224,2.243,2.243,0,0,0,1.836,1.3,11.51,11.51,0,0,0,4.125-.359,10.552,10.552,0,0,0,6.08-3.937,7.083,7.083,0,0,0,3.09.033l.078-.017c1.278.657,6.072,3.257,6.612,3.579A67.951,67.951,0,0,1,48.626,45.4l.48.356a9.305,9.305,0,0,1,3.432,3.566c.373.953-.633,1.689-.838,1.827Zm2.263-3.925a14.231,14.231,0,0,0-3.512-3.288l-.468-.347a70.216,70.216,0,0,0-6.065-4.118c-2.506-1.494-6.734-3.913-7.85-3.913H36.04l0-.013-.437.093a4.833,4.833,0,0,1-2.708-.205,1.155,1.155,0,0,0-1.378.493A8.02,8.02,0,0,1,26.3,39.569a10.58,10.58,0,0,1-3.3.342l4.515-6.238h0l1.372-1.9a1.429,1.429,0,0,1,.928-.571c7.182-1.133,12.312-1.1,15.335.137a8.712,8.712,0,0,0,5.233.639,7.5,7.5,0,0,0,1.6-.554l6.852,12.478a40.8,40.8,0,0,1-4.872,3.315Zm8.125-2.092L53.469,29.506a1.086,1.086,0,0,0-.1-.247c-.021-.031-.054-.048-.077-.077l-.308-.559,2.59-1.463,9.073,16.523Z" transform="translate(0 2.746)" fill="#4d787e"/>
      <path id="Trazado_1022370" data-name="Trazado 1022370" d="M33.314,26.643A11.321,11.321,0,1,1,44.635,15.321,11.321,11.321,0,0,1,33.314,26.643Zm0-20.38a9.059,9.059,0,1,0,9.059,9.059,9.059,9.059,0,0,0-9.059-9.059Z" transform="translate(2.318)" fill="#4d787e"/>
      <path id="Trazado_1022371" data-name="Trazado 1022371" d="M36.5,17.218a3.482,3.482,0,0,0-2.184-3.1,5.239,5.239,0,0,0-1.773-.4,3.379,3.379,0,0,1-1.067-.212,1.225,1.225,0,0,1-.778-1c0-.665.81-1.226,1.769-1.226a1.941,1.941,0,0,1,1.616.739,1.131,1.131,0,1,0,1.891-1.241A3.979,3.979,0,0,0,33.6,9.164V8.636a1.131,1.131,0,0,0-2.263,0v.538a3.6,3.6,0,0,0-2.9,3.331,3.447,3.447,0,0,0,2.036,3.025,5.131,5.131,0,0,0,1.843.436,3.477,3.477,0,0,1,1.037.2c.208.1.885.463.885,1.051,0,.664-.81,1.225-1.769,1.225a1.917,1.917,0,0,1-1.628-.76,1.132,1.132,0,0,0-1.92,1.2,3.955,3.955,0,0,0,2.417,1.683v.523a1.131,1.131,0,1,0,2.263,0v-.538a3.6,3.6,0,0,0,2.9-3.331Z" transform="translate(3.164 0.46)" fill="#4d787e"/>
    </g>
  </g>
</svg>
