<svg xmlns="http://www.w3.org/2000/svg" xmlns:xlink="http://www.w3.org/1999/xlink" width="150" height="150" viewBox="0 0 150 150">
  <defs>
    <clipPath id="clip-path">
      <rect id="Rectángulo_456277" data-name="Rectángulo 456277" width="150" height="150" transform="translate(-0.002 -0.001)" fill="#d35560"/>
    </clipPath>
  </defs>
  <g id="Grupo_1180089" data-name="Grupo 1180089" transform="translate(-413.589 -9435.531)">
    <g id="Grupo_1180081" data-name="Grupo 1180081" transform="translate(413.591 9435.532)">
      <g id="Grupo_1179924" data-name="Grupo 1179924" transform="translate(0 0)">
        <g id="Grupo_1179923" data-name="Grupo 1179923" transform="translate(0 0)" clip-path="url(#clip-path)">
          <path id="Trazado_1004716" data-name="Trazado 1004716" d="M74.987,149.974c-2.436,0-4.714-2.783-7.089-3.015-2.419-.237-5.194,2.048-7.54,1.582-2.38-.473-4.071-3.647-6.363-4.344-2.318-.7-5.488.991-7.7.069-2.233-.928-3.269-4.373-5.385-5.509s-5.57-.1-7.568-1.44-2.349-4.924-4.208-6.452-5.441-1.177-7.145-2.88-1.349-5.282-2.88-7.145-5.109-2.2-6.452-4.208-.3-5.439-1.439-7.567-4.58-3.151-5.509-5.385c-.921-2.215.774-5.385.07-7.7-.7-2.292-3.871-3.982-4.343-6.362C.967,87.27,3.251,84.5,3.015,82.076,2.783,79.7,0,77.423,0,74.987S2.783,70.274,3.015,67.9c.237-2.419-2.048-5.194-1.582-7.54.472-2.38,3.647-4.071,4.343-6.362.7-2.318-.99-5.488-.069-7.7.929-2.233,4.373-3.268,5.509-5.385s.1-5.57,1.44-7.568,4.923-2.349,6.452-4.208,1.177-5.441,2.881-7.145,5.282-1.349,7.145-2.88,2.2-5.109,4.208-6.452,5.439-.3,7.568-1.439,3.151-4.58,5.384-5.509c2.216-.921,5.385.774,7.7.069,2.292-.7,3.982-3.87,6.362-4.343C62.7.967,65.479,3.251,67.9,3.015,70.274,2.783,72.552,0,74.987,0S79.7,2.783,82.076,3.015c2.419.237,5.194-2.048,7.54-1.582,2.38.473,4.071,3.647,6.363,4.344,2.318.7,5.488-.991,7.7-.069,2.233.928,3.269,4.373,5.385,5.509s5.57.1,7.568,1.44,2.349,4.923,4.208,6.452,5.441,1.177,7.145,2.881,1.349,5.282,2.88,7.145,5.109,2.2,6.452,4.208.3,5.439,1.439,7.568,4.58,3.151,5.509,5.385c.921,2.215-.774,5.385-.069,7.7.7,2.292,3.871,3.982,4.343,6.362.466,2.345-1.818,5.12-1.582,7.54.233,2.375,3.015,4.654,3.015,7.089s-2.783,4.714-3.015,7.089c-.236,2.419,2.048,5.194,1.582,7.539-.472,2.38-3.647,4.071-4.343,6.363-.7,2.318.99,5.488.069,7.7-.929,2.234-4.373,3.269-5.509,5.385s-.1,5.57-1.44,7.568-4.923,2.349-6.452,4.208-1.177,5.441-2.881,7.145-5.282,1.349-7.145,2.88-2.2,5.108-4.208,6.452-5.439.3-7.568,1.439-3.151,4.581-5.385,5.509c-2.215.921-5.385-.774-7.7-.069-2.292.7-3.982,3.87-6.362,4.343-2.345.466-5.12-1.819-7.539-1.582-2.376.232-4.654,3.015-7.089,3.015" transform="translate(0.011 0.01)" fill="#d35560"/>
          <path id="Trazado_1004717" data-name="Trazado 1004717" d="M14,81.894a67.894,67.894,0,1,1,67.894,67.894A67.894,67.894,0,0,1,14,81.894" transform="translate(-6.896 -6.896)" fill="#4d787e"/>
          <path id="Trazado_1004718" data-name="Trazado 1004718" d="M132.349,270.245c-.18-.763-.35-1.551-.511-2.324l-2.372-.3q1.063-.565,2.083-1.136-.226-1.162-.426-2.322c.543.533,1.1,1.082,1.672,1.607q1-.621,1.956-1.245-.424,1.1-.875,2.189c.592.508,1.2,1.025,1.818,1.529l-2.384-.178q-.467,1.093-.96,2.182" transform="translate(-63.859 -130.308)" fill="#ffffc5"/>
          <path id="Trazado_1004719" data-name="Trazado 1004719" d="M113.8,266.8c-.065-.779-.113-1.585-.158-2.373l-2.3-.655q1.135-.4,2.23-.81-.049-1.183-.072-2.36c.457.608.924,1.236,1.411,1.839q1.081-.464,2.119-.937-.583,1.019-1.192,2.033c.509.589,1.029,1.2,1.569,1.781-.78-.162-1.554-.355-2.332-.531q-.625,1.01-1.276,2.013" transform="translate(-54.918 -128.55)" fill="#ffffc5"/>
          <path id="Trazado_1004720" data-name="Trazado 1004720" d="M96.022,260.676c.059-.793.127-1.587.2-2.375l-2.178-.989c.787-.147,1.565-.307,2.328-.47q.129-1.176.282-2.341c.36.671.732,1.35,1.119,2.032q1.138-.3,2.237-.612-.73.921-1.485,1.832c.415.66.841,1.333,1.284,2l-2.226-.875q-.77.905-1.564,1.8" transform="translate(-46.386 -125.543)" fill="#ffffc5"/>
          <path id="Trazado_1004721" data-name="Trazado 1004721" d="M79.422,252.022q.266-1.165.554-2.316c-.667-.436-1.351-.848-2-1.3.787-.008,1.592-.069,2.369-.113q.3-1.142.626-2.27.386,1.073.807,2.17c.77-.066,1.548-.172,2.3-.267q-.86.8-1.743,1.592.468,1.072.973,2.164l-2.073-1.193c-.6.519-1.207,1.042-1.811,1.539" transform="translate(-38.455 -121.357)" fill="#ffffc5"/>
          <path id="Trazado_1004722" data-name="Trazado 1004722" d="M64.358,241.052q.435-1.111.889-2.206c-.6-.529-1.221-1.026-1.786-1.59.773.116,1.575.178,2.355.244q.467-1.084.953-2.15.226,1.115.484,2.259c.759.064,1.551.065,2.312.082q-.971.667-1.962,1.318.306,1.125.647,2.277l-1.88-1.479c-.672.431-1.334.835-2.011,1.244" transform="translate(-31.296 -116.095)" fill="#ffffc5"/>
          <path id="Trazado_1004723" data-name="Trazado 1004723" d="M51.15,228.022q.592-1.034,1.2-2.047l-.783-.9c-.259-.3-.5-.623-.745-.934l1.134.318,1.155.274q.62-1,1.257-1.983.063,1.133.153,2.3l1.127.235,1.144.192q-1.06.518-2.139,1.017.141,1.154.311,2.34c-.548-.579-1.107-1.148-1.644-1.736q-1.076.475-2.17.931" transform="translate(-25.062 -109.877)" fill="#ffffc5"/>
          <path id="Trazado_1004724" data-name="Trazado 1004724" d="M39.841,213.216q.737-.933,1.489-1.845c-.213-.337-.437-.667-.64-1.01l-.6-1.036c.728.324,1.424.65,2.171.928.509-.6,1.012-1.186,1.54-1.776-.08.758-.132,1.516-.187,2.294.727.271,1.432.538,2.177.762-.75.237-1.509.469-2.267.69-.022.776-.029,1.559-.032,2.356-.453-.656-.944-1.285-1.366-1.962q-1.136.312-2.287.6" transform="translate(-19.644 -102.838)" fill="#ffffc5"/>
          <path id="Trazado_1004725" data-name="Trazado 1004725" d="M30.615,196.953q.866-.812,1.744-1.6c-.345-.719-.617-1.47-.914-2.209.674.427,1.316.853,2,1.244.585-.514,1.188-1.025,1.8-1.53-.213.746-.358,1.479-.531,2.241.687.372,1.334.746,2.034,1.08-.782.125-1.562.239-2.335.34-.16.775-.263,1.537-.388,2.326-.36-.711-.743-1.411-1.056-2.145q-1.171.139-2.354.254" transform="translate(-15.092 -95.132)" fill="#ffffc5"/>
          <path id="Trazado_1004726" data-name="Trazado 1004726" d="M24.019,179.308q.978-.673,1.963-1.32c-.237-.762-.379-1.548-.569-2.322.6.524,1.183,1.039,1.79,1.532.654-.42,1.34-.838,2.011-1.244-.328.707-.582,1.411-.864,2.136.621.471,1.219.934,1.845,1.374-.8.008-1.566,0-2.352-.016-.285.745-.5,1.482-.735,2.243-.26-.754-.517-1.508-.721-2.28q-1.18-.038-2.368-.1" transform="translate(-11.838 -86.651)" fill="#ffffc5"/>
          <path id="Trazado_1004727" data-name="Trazado 1004727" d="M20.215,160.682q1.068-.518,2.139-1.011c-.12-.789-.144-1.587-.215-2.381.515.609,1.011,1.2,1.54,1.783.709-.317,1.449-.628,2.175-.929-.431.651-.785,1.308-1.174,1.983.542.559,1.068,1.106,1.617,1.635-.785-.112-1.545-.238-2.322-.37-.394.694-.715,1.391-1.064,2.107l-.211-1.177c-.066-.393-.1-.79-.159-1.185q-1.161-.215-2.326-.455" transform="translate(-9.962 -77.586)" fill="#ffffc5"/>
          <path id="Trazado_1004728" data-name="Trazado 1004728" d="M19.269,141.78q1.134-.354,2.267-.683c0-.8.074-1.592.135-2.387.424.678.8,1.34,1.266,1.991.755-.208,1.506-.408,2.278-.6-.505.581-.964,1.178-1.449,1.788.455.633.878,1.253,1.36,1.858q-1.14-.342-2.249-.71c-.486.628-.9,1.27-1.36,1.925-.018-.8-.055-1.594-.018-2.39q-1.115-.384-2.23-.794" transform="translate(-9.495 -68.42)" fill="#ffffc5"/>
          <path id="Trazado_1004729" data-name="Trazado 1004729" d="M21.174,123.012q1.175-.182,2.346-.337c.074-.392.132-.787.219-1.176l.269-1.165c.314.733.6,1.445.956,2.158.782-.092,1.546-.179,2.338-.251-.577.5-1.128,1.02-1.7,1.551.355.694.675,1.367,1.073,2.039-.709-.337-1.433-.685-2.125-1.037-.556.551-1.083,1.121-1.628,1.7.111-.789.175-1.585.334-2.367q-1.044-.546-2.085-1.118" transform="translate(-10.435 -59.354)" fill="#ffffc5"/>
          <path id="Trazado_1004730" data-name="Trazado 1004730" d="M25.928,104.8q1.189,0,2.369.018c.241-.761.542-1.5.836-2.24.2.773.372,1.518.619,2.276.783.025,1.56.057,2.353.1-.654.4-1.27.839-1.914,1.278.249.74.462,1.453.754,2.177-.653-.44-1.312-.892-1.944-1.344-.636.461-1.239.946-1.867,1.439.227-.765.414-1.541.688-2.291q-.952-.7-1.894-1.418" transform="translate(-12.78 -50.596)" fill="#ffffc5"/>
          <path id="Trazado_1004731" data-name="Trazado 1004731" d="M33.429,87.566q1.175.174,2.337.372c.348-.718.774-1.393,1.164-2.089.084.793.156,1.565.269,2.342.765.139,1.548.3,2.318.46-.722.294-1.384.638-2.088.974.134.769.25,1.512.416,2.264-.585-.536-1.152-1.073-1.714-1.617-.713.352-1.369.748-2.065,1.141.329-.726.647-1.458,1.025-2.16q-.838-.831-1.663-1.687" transform="translate(-16.481 -42.342)" fill="#ffffc5"/>
          <path id="Trazado_1004732" data-name="Trazado 1004732" d="M43.489,71.686q1.134.347,2.253.714c.464-.649.977-1.26,1.463-1.891q-.055,1.194-.084,2.355,1.123.391,2.23.8c-.753.188-1.481.412-2.214.651q.024,1.167.07,2.3-.732-.915-1.446-1.849c-.757.243-1.479.527-2.216.817l.646-1.006.692-.975q-.705-.948-1.4-1.918" transform="translate(-21.443 -34.774)" fill="#ffffc5"/>
          <path id="Trazado_1004733" data-name="Trazado 1004733" d="M55.358,57.5q1.069.508,2.12,1.036l1.729-1.651q-.227,1.176-.424,2.325,1.052.551,2.084,1.121c-.763.084-1.538.177-2.29.312q-.147,1.161-.264,2.291-.588-1.013-1.158-2.044l-1.167.216c-.386.079-.764.171-1.15.26.51-.613,1.07-1.182,1.619-1.759q-.559-1.043-1.1-2.106" transform="translate(-27.043 -28.054)" fill="#ffffc5"/>
          <path id="Trazado_1004734" data-name="Trazado 1004734" d="M69.223,45.319c.653.439,1.3.884,1.95,1.347l1.949-1.387q-.4,1.135-.757,2.245.957.7,1.893,1.414c-.758-.018-1.552-.059-2.315-.035q-.313,1.13-.593,2.234-.433-1.09-.846-2.2c-.778.032-1.59.045-2.366.124.595-.532,1.244-1,1.864-1.5q-.4-1.116-.779-2.249" transform="translate(-33.604 -22.327)" fill="#ffffc5"/>
          <path id="Trazado_1004735" data-name="Trazado 1004735" d="M84.839,34.886c.581.531,1.164,1.084,1.733,1.631L88.7,35.426q-.558,1.067-1.078,2.115.842.832,1.66,1.676c-.749-.133-1.516-.271-2.286-.384q-.475,1.075-.913,2.13-.268-1.144-.512-2.3C84.8,38.58,84,38.487,83.21,38.43c.68-.414,1.379-.8,2.068-1.2q-.231-1.164-.438-2.342" transform="translate(-41.039 -17.2)" fill="#ffffc5"/>
          <path id="Trazado_1004736" data-name="Trazado 1004736" d="M101.88,26.946q.748.933,1.471,1.876c.756-.253,1.508-.519,2.267-.761-.478.635-.935,1.291-1.383,1.929q.707.948,1.389,1.9-1.081-.367-2.2-.721c-.423.654-.826,1.32-1.22,1.971q-.094-1.172-.164-2.354-1.13-.3-2.3-.585l2.224-.879c-.035-.789-.066-1.591-.082-2.379" transform="translate(-49.192 -13.283)" fill="#ffffc5"/>
          <path id="Trazado_1004737" data-name="Trazado 1004737" d="M119.964,21.733q.6,1.034,1.172,2.075c.785-.136,1.568-.291,2.356-.412-.569.553-1.119,1.136-1.658,1.7q.557,1.043,1.088,2.091-1.013-.524-2.069-1.042c-.518.574-1.015,1.181-1.5,1.764q.082-1.173.191-2.353-1.072-.465-2.186-.921l2.33-.539c.084-.786.174-1.586.278-2.361" transform="translate(-57.884 -10.711)" fill="#ffffc5"/>
          <path id="Trazado_1004738" data-name="Trazado 1004738" d="M138.674,19.35q.438,1.114.849,2.228l2.39-.06q-.967.719-1.892,1.438.4,1.116.765,2.231-.925-.671-1.892-1.343c-.6.5-1.181,1.017-1.75,1.523q.258-1.148.542-2.3-.991-.622-2.024-1.24l2.384-.181c.2-.765.409-1.54.627-2.3" transform="translate(-66.916 -9.536)" fill="#ffffc5"/>
          <path id="Trazado_1004739" data-name="Trazado 1004739" d="M157.586,19.831c.18.763.35,1.551.511,2.324l2.372.3q-1.062.565-2.083,1.136.226,1.162.425,2.322c-.543-.533-1.1-1.082-1.671-1.607q-1,.621-1.956,1.245.424-1.1.875-2.189c-.592-.508-1.2-1.025-1.818-1.529l2.385.178q.467-1.093.96-2.182" transform="translate(-76.081 -9.773)" fill="#ffffc5"/>
          <path id="Trazado_1004740" data-name="Trazado 1004740" d="M176.291,23.17c.065.779.114,1.585.158,2.373l2.3.655q-1.135.4-2.23.81.049,1.183.072,2.36c-.457-.607-.923-1.236-1.411-1.839q-1.081.464-2.119.937.583-1.019,1.192-2.033c-.509-.589-1.029-1.2-1.569-1.78.78.162,1.554.354,2.332.53q.625-1.01,1.276-2.013" transform="translate(-85.179 -11.42)" fill="#ffffc5"/>
          <path id="Trazado_1004741" data-name="Trazado 1004741" d="M194.169,29.313c-.059.793-.127,1.587-.2,2.375l2.178.989c-.787.147-1.565.308-2.328.47q-.129,1.176-.282,2.341c-.36-.671-.732-1.35-1.119-2.032q-1.138.3-2.237.612.73-.921,1.484-1.832c-.414-.66-.84-1.333-1.283-2l2.226.875q.77-.905,1.564-1.8" transform="translate(-93.81 -14.451)" fill="#ffffc5"/>
          <path id="Trazado_1004742" data-name="Trazado 1004742" d="M210.634,38.133q-.266,1.165-.554,2.317c.667.436,1.351.848,2,1.3-.787.008-1.592.069-2.369.113q-.3,1.142-.626,2.27-.386-1.072-.807-2.17c-.77.066-1.548.172-2.3.267q.86-.8,1.743-1.592-.468-1.072-.973-2.164l2.073,1.193c.6-.519,1.206-1.042,1.811-1.539" transform="translate(-101.605 -18.802)" fill="#ffffc5"/>
          <path id="Trazado_1004743" data-name="Trazado 1004743" d="M225.7,49.17q-.435,1.111-.889,2.206c.6.529,1.221,1.027,1.786,1.59-.773-.116-1.575-.178-2.355-.244q-.467,1.084-.953,2.15-.226-1.115-.484-2.258c-.759-.064-1.551-.065-2.312-.083q.971-.667,1.963-1.318-.306-1.126-.647-2.276l1.88,1.478c.672-.431,1.333-.834,2.011-1.244" transform="translate(-108.763 -24.131)" fill="#ffffc5"/>
          <path id="Trazado_1004744" data-name="Trazado 1004744" d="M239.037,62.056q-.592,1.034-1.2,2.047l.783.9c.259.3.5.623.746.934l-1.134-.318-1.155-.274q-.62,1-1.257,1.983-.063-1.133-.153-2.3l-1.127-.236-1.144-.192q1.06-.518,2.139-1.017-.141-1.154-.311-2.34c.548.579,1.107,1.148,1.644,1.736q1.076-.475,2.17-.931" transform="translate(-115.13 -30.206)" fill="#ffffc5"/>
          <path id="Trazado_1004745" data-name="Trazado 1004745" d="M250.362,76.844q-.737.933-1.489,1.845c.212.337.436.667.639,1.01l.6,1.036c-.728-.324-1.424-.65-2.171-.928-.509.6-1.012,1.186-1.54,1.776.08-.758.132-1.516.188-2.294-.727-.271-1.432-.538-2.177-.761.75-.237,1.509-.47,2.267-.69.022-.776.03-1.559.032-2.356.453.656.944,1.285,1.366,1.962q1.136-.312,2.287-.6" transform="translate(-120.563 -37.228)" fill="#ffffc5"/>
          <path id="Trazado_1004746" data-name="Trazado 1004746" d="M259.413,93.219q-.866.812-1.744,1.6c.345.719.617,1.47.914,2.209-.674-.427-1.316-.853-2-1.244-.585.514-1.188,1.025-1.8,1.53.213-.746.358-1.479.532-2.24-.687-.372-1.334-.746-2.034-1.08.782-.125,1.562-.239,2.335-.34.16-.775.263-1.537.388-2.327.36.711.743,1.412,1.056,2.145q1.171-.139,2.354-.254" transform="translate(-124.94 -45.045)" fill="#ffffc5"/>
          <path id="Trazado_1004747" data-name="Trazado 1004747" d="M265.968,110.826q-.978.673-1.963,1.32c.237.762.379,1.548.569,2.322-.6-.524-1.183-1.039-1.79-1.532-.654.42-1.34.838-2.012,1.244.328-.707.582-1.41.865-2.136-.621-.471-1.219-.934-1.845-1.374.8-.007,1.566,0,2.352.016.285-.745.5-1.482.735-2.243.26.754.517,1.509.721,2.28q1.18.038,2.368.1" transform="translate(-128.152 -53.489)" fill="#ffffc5"/>
          <path id="Trazado_1004748" data-name="Trazado 1004748" d="M269.864,129.273q-1.068.518-2.139,1.011c.12.789.144,1.587.215,2.381-.515-.608-1.011-1.2-1.54-1.783-.709.317-1.449.628-2.175.929.431-.651.785-1.308,1.174-1.983-.542-.559-1.068-1.106-1.617-1.636.785.112,1.545.238,2.322.369.394-.694.715-1.391,1.064-2.107l.211,1.177c.066.393.105.79.159,1.185q1.161.215,2.326.456" transform="translate(-130.121 -62.374)" fill="#ffffc5"/>
          <path id="Trazado_1004749" data-name="Trazado 1004749" d="M270.94,148.13q-1.134.354-2.267.683c0,.8-.074,1.592-.135,2.387-.424-.678-.8-1.34-1.266-1.991-.755.208-1.506.408-2.278.6.505-.581.964-1.178,1.449-1.788-.456-.633-.878-1.253-1.36-1.858q1.14.342,2.249.71c.486-.628.9-1.27,1.36-1.925.018.8.055,1.593.018,2.39q1.115.385,2.23.794" transform="translate(-130.719 -71.496)" fill="#ffffc5"/>
          <path id="Trazado_1004750" data-name="Trazado 1004750" d="M268.858,166.987q-1.176.182-2.346.337c-.074.392-.132.787-.22,1.175l-.269,1.165c-.314-.733-.6-1.445-.956-2.158-.782.092-1.546.179-2.338.251.577-.5,1.128-1.02,1.7-1.551-.355-.694-.675-1.368-1.073-2.039.709.337,1.433.685,2.125,1.037.556-.551,1.083-1.121,1.628-1.7-.112.789-.175,1.585-.334,2.368q1.044.545,2.085,1.117" transform="translate(-129.601 -80.65)" fill="#ffffc5"/>
          <path id="Trazado_1004751" data-name="Trazado 1004751" d="M264.056,185.424q-1.189,0-2.369-.018c-.241.761-.542,1.5-.836,2.24-.2-.773-.372-1.519-.619-2.276-.783-.025-1.56-.057-2.353-.1.654-.4,1.27-.839,1.914-1.278-.249-.739-.462-1.453-.754-2.176.653.44,1.312.891,1.944,1.344.636-.461,1.239-.946,1.867-1.439-.227.764-.414,1.54-.688,2.29q.952.7,1.894,1.418" transform="translate(-127.209 -89.636)" fill="#ffffc5"/>
          <path id="Trazado_1004752" data-name="Trazado 1004752" d="M256.643,202.553q-1.175-.174-2.337-.372c-.348.718-.774,1.393-1.164,2.088-.084-.793-.156-1.565-.269-2.342-.765-.139-1.548-.3-2.318-.46.722-.294,1.384-.638,2.088-.974-.134-.769-.249-1.512-.416-2.264.586.536,1.152,1.073,1.714,1.617.713-.352,1.369-.748,2.065-1.141-.329.726-.647,1.458-1.025,2.16q.837.831,1.662,1.687" transform="translate(-123.595 -97.783)" fill="#ffffc5"/>
          <path id="Trazado_1004753" data-name="Trazado 1004753" d="M246.8,218.367q-1.134-.346-2.253-.714c-.464.649-.977,1.26-1.463,1.891q.055-1.194.084-2.355-1.123-.391-2.23-.8c.753-.188,1.481-.412,2.214-.651q-.024-1.167-.07-2.3.732.915,1.446,1.849c.757-.243,1.479-.527,2.216-.817l-.646,1.006-.692.975q.705.948,1.4,1.918" transform="translate(-118.851 -105.285)" fill="#ffffc5"/>
          <path id="Trazado_1004754" data-name="Trazado 1004754" d="M234.77,232.609q-1.069-.509-2.12-1.037l-1.729,1.652q.227-1.177.424-2.325-1.052-.551-2.084-1.121c.763-.084,1.538-.177,2.29-.312q.147-1.161.264-2.291.588,1.012,1.158,2.044l1.167-.216c.386-.079.764-.171,1.15-.26-.51.613-1.07,1.182-1.619,1.759q.559,1.043,1.1,2.106" transform="translate(-113.09 -112.063)" fill="#ffffc5"/>
          <path id="Trazado_1004755" data-name="Trazado 1004755" d="M220.818,244.977c-.653-.439-1.3-.884-1.95-1.347l-1.948,1.387q.4-1.135.756-2.245-.957-.7-1.893-1.414c.758.018,1.552.059,2.315.035q.313-1.131.593-2.234.433,1.09.846,2.2c.778-.032,1.589-.045,2.366-.124-.594.532-1.244,1-1.864,1.5q.4,1.117.779,2.249" transform="translate(-106.441 -117.974)" fill="#ffffc5"/>
          <path id="Trazado_1004756" data-name="Trazado 1004756" d="M205.246,255.2c-.581-.531-1.164-1.084-1.733-1.631l-2.128,1.091q.558-1.067,1.078-2.115-.842-.833-1.66-1.677c.749.133,1.516.271,2.286.384q.475-1.075.913-2.13.268,1.145.513,2.3c.774.084,1.57.176,2.361.233-.68.415-1.379.8-2.068,1.2q.231,1.164.438,2.342" transform="translate(-99.051 -122.887)" fill="#ffffc5"/>
          <path id="Trazado_1004757" data-name="Trazado 1004757" d="M188.387,263.02q-.748-.933-1.471-1.876c-.756.253-1.508.519-2.267.761.478-.635.936-1.291,1.383-1.929q-.707-.948-1.389-1.9,1.081.367,2.2.721c.423-.654.826-1.32,1.22-1.971q.094,1.172.164,2.354,1.13.3,2.3.585l-2.224.879c.035.789.066,1.591.082,2.379" transform="translate(-91.079 -126.688)" fill="#ffffc5"/>
          <path id="Trazado_1004758" data-name="Trazado 1004758" d="M170.061,268.255q-.6-1.034-1.172-2.075c-.785.136-1.568.291-2.356.412.569-.553,1.119-1.136,1.658-1.7q-.557-1.043-1.088-2.091,1.013.525,2.069,1.042c.518-.574,1.015-1.181,1.5-1.764q-.083,1.174-.192,2.353,1.072.465,2.186.921l-2.33.539c-.084.786-.173,1.586-.278,2.361" transform="translate(-82.145 -129.282)" fill="#ffffc5"/>
          <path id="Trazado_1004759" data-name="Trazado 1004759" d="M151.24,270.792q-.438-1.113-.849-2.228l-2.391.06q.967-.719,1.892-1.438-.4-1.115-.765-2.23.925.671,1.892,1.343c.6-.5,1.181-1.017,1.75-1.523q-.258,1.148-.542,2.3.991.622,2.024,1.24l-2.384.182c-.2.765-.409,1.54-.627,2.3" transform="translate(-73.002 -130.612)" fill="#ffffc5"/>
          <path id="Trazado_1004760" data-name="Trazado 1004760" d="M92.365,149.5a57.14,57.14,0,1,1,57.14-57.14,57.2,57.2,0,0,1-57.14,57.14" transform="translate(-17.367 -17.367)" fill="#d35560"/>
        </g>
      </g>
      <g id="Grupo_1180053" data-name="Grupo 1180053" transform="translate(39.29 38.861)">
        <rect id="Rectángulo_401104" data-name="Rectángulo 401104" width="71.415" height="72.276" transform="translate(0)" fill="#d35560"/>
      </g>
    </g>
    <g id="Grupo_1180545" data-name="Grupo 1180545" transform="translate(455.576 9477.514)">
      <g id="Grupo_1180543" data-name="Grupo 1180543" transform="translate(0.967 0.972)">
        <g id="Grupo_1180536" data-name="Grupo 1180536" transform="translate(0.001)">
          <circle id="Elipse_13696" data-name="Elipse 13696" cx="32.045" cy="32.045" r="32.045" fill="#8993da"/>
          <path id="Trazado_1022308" data-name="Trazado 1022308" d="M46.837,70.762a32.045,32.045,0,1,1,0-62.427,32.055,32.055,0,0,0,0,62.427Z" transform="translate(-7.504 -7.503)" fill="#707dd3"/>
        </g>
        <g id="Grupo_1180542" data-name="Grupo 1180542" transform="translate(0 18.293)">
          <path id="Trazado_1022309" data-name="Trazado 1022309" d="M408.67,149.359h12.358v17.314H408.67Z" transform="translate(-356.936 -149.358)" fill="#365e7d"/>
          <path id="Trazado_1022310" data-name="Trazado 1022310" d="M408.67,246.229h12.358v4.822H408.67Z" transform="translate(-356.936 -233.736)" fill="#2b4d66"/>
          <path id="Trazado_1022311" data-name="Trazado 1022311" d="M7.5,149.359H21.375v17.314H7.5Z" transform="translate(-7.5 -149.358)" fill="#ffd064"/>
          <path id="Trazado_1022312" data-name="Trazado 1022312" d="M7.5,249.821H21.375v4.359H7.5Z" transform="translate(-7.5 -236.865)" fill="#ffc250"/>
          <path id="Trazado_1022313" data-name="Trazado 1022313" d="M77.649,171.4a3.7,3.7,0,0,1-3.7-3.7V149.356h7.4V167.7A3.7,3.7,0,0,1,77.649,171.4Z" transform="translate(-65.378 -149.355)" fill="#ffd064"/>
          <path id="Trazado_1022314" data-name="Trazado 1022314" d="M370.275,171.4a3.7,3.7,0,0,1-3.7-3.7V149.356h7.4V167.7A3.7,3.7,0,0,1,370.275,171.4Z" transform="translate(-320.268 -149.355)" fill="#365e7d"/>
          <path id="Trazado_1022315" data-name="Trazado 1022315" d="M81.354,226.4v8.409a3.7,3.7,0,0,1-7.4,0V226.4a3.7,3.7,0,1,0,7.4,0Z" transform="translate(-65.38 -216.467)" fill="#ffc250"/>
          <path id="Trazado_1022316" data-name="Trazado 1022316" d="M373.981,226.4v8.409a3.7,3.7,0,0,1-7.4,0V226.4a3.7,3.7,0,1,0,7.4,0Z" transform="translate(-320.271 -216.467)" fill="#2b4d66"/>
          <g id="Grupo_1180537" data-name="Grupo 1180537" transform="translate(13.876)">
            <path id="Trazado_1022317" data-name="Trazado 1022317" d="M147.53,149.351V168.7l-3.971,3.97-7.729,7.73a2.776,2.776,0,0,1-3.946-3.906l-1.9,1.9a2.776,2.776,0,0,1-3.941-3.911l-1.35,1.35a2.776,2.776,0,0,1-3.942-3.91l-.915.915a2.776,2.776,0,1,1-3.926-3.926l15.152-15.152-6.622-2.618a6.11,6.11,0,0,1,4.32-1.79H147.53Z" transform="translate(-115.1 -149.351)" fill="#ffece4"/>
          </g>
          <path id="Trazado_1022318" data-name="Trazado 1022318" d="M127.855,208.433l1.519,1.6-11.9,11.9a2.774,2.774,0,0,0-.618,2.984,2.777,2.777,0,0,1-.943-4.545Z" transform="translate(-101.224 -200.814)" fill="#ffddce"/>
          <g id="Grupo_1180538" data-name="Grupo 1180538" transform="translate(32.629 18.708)">
            <path id="Trazado_1022319" data-name="Trazado 1022319" d="M335.345,295.114l.9.9a2.365,2.365,0,0,1-3.344,3.344l-.9-.9a2.365,2.365,0,0,1,3.344-3.344Z" transform="translate(-322.18 -294.421)" fill="#e2a770"/>
            <path id="Trazado_1022320" data-name="Trazado 1022320" d="M300.886,312.521l2,2a2.365,2.365,0,0,1-3.344,3.344l-2-2a2.365,2.365,0,0,1,3.344-3.344Z" transform="translate(-292.164 -309.584)" fill="#e2a770"/>
            <path id="Trazado_1022321" data-name="Trazado 1022321" d="M283.48,346.979l.9.9a2.365,2.365,0,0,1-3.344,3.344l-.9-.9a2.365,2.365,0,0,1,3.344-3.344Z" transform="translate(-277.003 -339.598)" fill="#e2a770"/>
            <path id="Trazado_1022322" data-name="Trazado 1022322" d="M264.556,379.921a2.365,2.365,0,1,1-3.344,0A2.365,2.365,0,0,1,264.556,379.921Z" transform="translate(-260.519 -368.292)" fill="#e2a770"/>
          </g>
          <g id="Grupo_1180539" data-name="Grupo 1180539" transform="translate(32.628 18.925)">
            <path id="Trazado_1022323" data-name="Trazado 1022323" d="M336.726,300.15a2.364,2.364,0,0,1-3.817.677l-.9-.9a2.367,2.367,0,0,1,.679-3.819,2.363,2.363,0,0,0,.474,2.667l.9.9a2.369,2.369,0,0,0,2.665.476Z" transform="translate(-322.183 -296.104)" fill="#d5985c"/>
            <path id="Trazado_1022324" data-name="Trazado 1022324" d="M303.365,318.671a2.365,2.365,0,0,1-3.817.677l-2-2a2.365,2.365,0,0,1,.677-3.817,2.368,2.368,0,0,0,.475,2.666l2,2a2.368,2.368,0,0,0,2.666.475Z" transform="translate(-292.166 -311.28)" fill="#d5985c"/>
            <path id="Trazado_1022325" data-name="Trazado 1022325" d="M284.857,352.014a2.365,2.365,0,0,1-3.817.677l-.9-.9a2.368,2.368,0,0,1,.679-3.82,2.365,2.365,0,0,0,.473,2.667l.9.9a2.367,2.367,0,0,0,2.666.475Z" transform="translate(-277.002 -341.28)" fill="#d5985c"/>
            <path id="Trazado_1022326" data-name="Trazado 1022326" d="M265.03,384.052a2.365,2.365,0,1,1-3.139-3.142,2.366,2.366,0,0,0,3.139,3.142Z" transform="translate(-260.518 -369.974)" fill="#d5985c"/>
          </g>
          <path id="Trazado_1022327" data-name="Trazado 1022327" d="M152.518,162.611a3.6,3.6,0,0,1-5.086,0l-3.642-3.642-2-2L131.1,167.664l.01-5.715.024-12.595H142.7a3.969,3.969,0,0,1,2.806,1.163l7.01,7.009A3.6,3.6,0,0,1,152.518,162.611Z" transform="translate(-115.164 -149.354)" fill="#e2a770"/>
          <path id="Trazado_1022328" data-name="Trazado 1022328" d="M151.512,196.554a3.586,3.586,0,0,1-2.544-1.054l-6.111-6.111a1.742,1.742,0,0,0-2.463,0l-.306.306-4.953,4.953a5.91,5.91,0,0,1-4.023,1.728l-.01,5.715L141.793,191.4l2,2h0l3.641,3.642a3.6,3.6,0,0,0,5.738-.888A3.6,3.6,0,0,1,151.512,196.554Z" transform="translate(-115.163 -183.781)" fill="#d5985c"/>
          <g id="Grupo_1180540" data-name="Grupo 1180540" transform="translate(18.732 17.496)">
            <path id="Trazado_1022329" data-name="Trazado 1022329" d="M158.63,285.027l.249.263a1.9,1.9,0,0,1-.035,2.644l-3.713,3.713a2.774,2.774,0,0,0-.618,2.984,2.777,2.777,0,0,1-.943-4.545Z" transform="translate(-152.757 -285.027)" fill="#ffddce"/>
            <path id="Trazado_1022330" data-name="Trazado 1022330" d="M199.66,304.885l.249.263a1.9,1.9,0,0,1-.035,2.644l-3.713,3.713a2.774,2.774,0,0,0-.618,2.984,2.777,2.777,0,0,1-.943-4.545Z" transform="translate(-188.496 -302.324)" fill="#ffddce"/>
            <path id="Trazado_1022331" data-name="Trazado 1022331" d="M244.963,320.471l.249.263a1.9,1.9,0,0,1-.035,2.644l-3.713,3.713a2.774,2.774,0,0,0-.618,2.984,2.777,2.777,0,0,1-.943-4.545Z" transform="translate(-227.957 -315.9)" fill="#ffddce"/>
          </g>
          <g id="Grupo_1180541" data-name="Grupo 1180541" transform="translate(10.581 2.969)">
            <circle id="Elipse_13697" data-name="Elipse 13697" cx="1.69" cy="1.69" r="1.69" transform="translate(37.772)" fill="#f9f6f9"/>
            <circle id="Elipse_13698" data-name="Elipse 13698" cx="1.69" cy="1.69" r="1.69" fill="#f9f6f9"/>
          </g>
        </g>
      </g>
      <g id="Grupo_1180544" data-name="Grupo 1180544" transform="translate(0 0.005)">
        <path id="Trazado_1022332" data-name="Trazado 1022332" d="M377.612,170.192a2.657,2.657,0,1,0-2.657-2.658A2.661,2.661,0,0,0,377.612,170.192Zm0-3.381a.723.723,0,1,1-.723.723A.724.724,0,0,1,377.612,166.811Z" transform="translate(-326.602 -143.616)"/>
        <path id="Trazado_1022333" data-name="Trazado 1022333" d="M87.366,167.534a2.657,2.657,0,1,0-2.657,2.658A2.66,2.66,0,0,0,87.366,167.534Zm-3.381,0a.723.723,0,1,1,.723.723A.724.724,0,0,1,83.985,167.534Z" transform="translate(-71.47 -143.616)"/>
        <path id="Trazado_1022334" data-name="Trazado 1022334" d="M65.059,35.612H55.643V20.233h9.415a.967.967,0,0,0,0-1.934h-2.49a33.021,33.021,0,0,0-59.112,0H.967a.967.967,0,1,0,0,1.934h7.6V35.612H.967a.967.967,0,0,0-.695,1.639A32.607,32.607,0,0,0,4.925,50.373.967.967,0,1,0,6.57,49.354,30.676,30.676,0,0,1,2.264,37.547h6.3v.063a4.674,4.674,0,0,0,4.669,4.669c.072,0,.144,0,.216-.006A45.39,45.39,0,0,0,15.645,50.3a33.112,33.112,0,0,0-5.251,4.033q-.878-.934-1.688-1.947A.967.967,0,0,0,7.194,53.59,33.015,33.015,0,0,0,65.755,37.25a.966.966,0,0,0-.7-1.637Zm-1.3,1.934A30.981,30.981,0,0,1,55.63,54.329a33.132,33.132,0,0,0-5.25-4.03,45.5,45.5,0,0,0,2.246-8.323,4.677,4.677,0,0,0,3.017-4.366v-.062ZM21.2,42.5l5.06-5.06a.967.967,0,0,0-1.368-1.368l-5.99,5.99a1.809,1.809,0,0,1-2.558-2.558L27.6,28.252l4.954,4.954a4.564,4.564,0,1,0,6.454-6.453l-.551-.549a.967.967,0,1,0-1.366,1.369l.55.549a2.629,2.629,0,1,1-3.72,3.717L28.281,26.2a.967.967,0,0,0-1.354-.013l-.03.031-8.989,8.988V20.233h10.6a2.981,2.981,0,0,1,2.122.879l3.723,3.723a.967.967,0,1,0,1.368-1.368l-3.235-3.235H46.305v17a3.33,3.33,0,0,0-4.435,2.25,3.331,3.331,0,0,0-4.322,4.322,3.326,3.326,0,0,0-2.324,4.22,3.334,3.334,0,0,0-2.348,1.983,1.809,1.809,0,0,1-.559-2.922l4.747-4.747A.967.967,0,1,0,35.7,40.972l-6.651,6.652a1.809,1.809,0,1,1-2.558-2.558l5.029-5.029a.967.967,0,1,0-1.368-1.368l-6.394,6.394A1.809,1.809,0,0,1,21.2,42.5Zm32.513-4.9a2.735,2.735,0,0,1-5.47,0V20.233h5.47ZM43.637,45.573a1.4,1.4,0,0,1-1.976,0l-2-2a1.4,1.4,0,0,1,1.976-1.976l2,2A1.4,1.4,0,0,1,43.637,45.573ZM40.7,47.93a1.4,1.4,0,0,1-2.386.988l-.9-.9a1.4,1.4,0,0,1,1.976-1.977l.9.9a1.389,1.389,0,0,1,.409.988Zm-3.344,3.344a1.4,1.4,0,1,1-.41-.989h0a1.389,1.389,0,0,1,.409.988ZM44.1,41.325a1.4,1.4,0,1,1,1.976-1.976h0l.9.9A1.4,1.4,0,1,1,45,42.229ZM45.347,18.3a32.6,32.6,0,0,0,3.347-1.57q.283.771.54,1.571Zm-7.088,0H33.98V1.982A13.947,13.947,0,0,1,42.8,6.725a28.03,28.03,0,0,1,5.171,8.189A30.8,30.8,0,0,1,38.259,18.3Zm-6.214,0H27.773a30.8,30.8,0,0,1-9.722-3.384,28.023,28.023,0,0,1,5.17-8.19,13.946,13.946,0,0,1,8.824-4.742Zm-11.365,0H16.792q.257-.8.54-1.57A32.542,32.542,0,0,0,20.681,18.3Zm3.978,30.135a3.783,3.783,0,0,0,.46.558A3.744,3.744,0,0,0,30,49.35a3.752,3.752,0,0,0,2.046,2.408V64.051c-3.709-.324-7.222-2.508-10.211-6.37a30.03,30.03,0,0,1-3.774-6.557,30.89,30.89,0,0,1,6.6-2.691Zm9.321,5.519a3.33,3.33,0,0,0,5.31-2.694H39.3a3.331,3.331,0,0,0,3.222-2.478,30.934,30.934,0,0,1,5.438,2.345,30.021,30.021,0,0,1-3.786,6.57c-2.987,3.852-6.495,6.031-10.2,6.355ZM44.438,47.4a3.322,3.322,0,0,0,1.54-2.824h.014a3.324,3.324,0,0,0,3.254-2.625,4.632,4.632,0,0,0,1.362.317,43.479,43.479,0,0,1-1.925,7.053A32.944,32.944,0,0,0,44.438,47.4Zm6.823-29.1q-.4-1.312-.871-2.556A33.146,33.146,0,0,0,55.633,11.7a31.115,31.115,0,0,1,4.757,6.6ZM49.826,6.876a31.277,31.277,0,0,1,4.436,3.462,31.215,31.215,0,0,1-4.61,3.583A29.807,29.807,0,0,0,44.214,5.4,20.454,20.454,0,0,0,41.8,3.2,30.905,30.905,0,0,1,49.826,6.876Zm-33.626,0A30.9,30.9,0,0,1,24.223,3.2a20.459,20.459,0,0,0-2.411,2.2,29.793,29.793,0,0,0-5.437,8.521,31.232,31.232,0,0,1-4.611-3.583A31.277,31.277,0,0,1,16.2,6.876ZM5.636,18.3a31.112,31.112,0,0,1,4.757-6.6,33.144,33.144,0,0,0,5.243,4.039q-.469,1.243-.87,2.555ZM10.5,37.61V20.232h5.47V37.14l-1,1a3.725,3.725,0,0,0-1.057,2.118A2.735,2.735,0,0,1,10.5,37.61Zm5.284,6.442a3.748,3.748,0,0,0,2.987.3,3.749,3.749,0,0,0,2.771,3.064,32.856,32.856,0,0,0-4.2,1.9,42.614,42.614,0,0,1-1.554-5.263ZM11.763,55.7a31.2,31.2,0,0,1,4.62-3.582,31.78,31.78,0,0,0,3.922,6.749,22.105,22.105,0,0,0,3.9,3.967A30.853,30.853,0,0,1,11.763,55.7Zm30.073,7.121a22.108,22.108,0,0,0,3.872-3.937,31.772,31.772,0,0,0,3.934-6.763A31.2,31.2,0,0,1,54.261,55.7c-.149.139-.3.278-.45.415a31.008,31.008,0,0,1-11.976,6.708Z" transform="translate(0 -0.005)"/>
      </g>
    </g>
  </g>
</svg>
