<svg xmlns="http://www.w3.org/2000/svg" xmlns:xlink="http://www.w3.org/1999/xlink" width="83" height="83" viewBox="0 0 83 83">
  <defs>
    <clipPath id="clip-path">
      <rect id="Rectángulo_456277" data-name="Rectángulo 456277" width="83" height="83" transform="translate(0.001 0)" fill="#d35560"/>
    </clipPath>
  </defs>
  <g id="Grupo_1180322" data-name="Grupo 1180322" transform="translate(-413.59 -9435.531)">
    <g id="Grupo_1180081" data-name="Grupo 1180081" transform="translate(413.589 9435.531)">
      <g id="Grupo_1179924" data-name="Grupo 1179924" transform="translate(0 0)">
        <g id="Grupo_1179923" data-name="Grupo 1179923" transform="translate(0 0)" clip-path="url(#clip-path)">
          <path id="Trazado_1004716" data-name="Trazado 1004716" d="M41.621,83.242c-1.352,0-2.616-1.544-3.935-1.673-1.343-.131-2.883,1.137-4.185.878-1.321-.262-2.259-2.024-3.532-2.411s-3.046.55-4.275.039-1.814-2.427-2.989-3.057-3.092-.056-4.2-.8-1.3-2.733-2.336-3.581-3.02-.653-3.966-1.6-.749-2.932-1.6-3.966S7.77,65.849,7.024,64.736s-.165-3.019-.8-4.2-2.542-1.749-3.058-2.989.43-2.989.039-4.275S1.057,51.061.8,49.74c-.258-1.3,1.009-2.842.878-4.185C1.544,44.237,0,42.973,0,41.621S1.544,39,1.673,37.686C1.8,36.343.537,34.8.8,33.5c.262-1.321,2.024-2.259,2.411-3.531s-.55-3.046-.039-4.276,2.427-1.814,3.058-2.989.056-3.091.8-4.2,2.733-1.3,3.581-2.336.653-3.02,1.6-3.966,2.931-.749,3.966-1.6,1.223-2.836,2.336-3.581,3.019-.165,4.2-.8,1.749-2.542,2.989-3.058,2.989.429,4.276.039S32.18,1.057,33.5.8c1.3-.258,2.842,1.01,4.185.878C39,1.544,40.269,0,41.621,0s2.616,1.544,3.935,1.673C46.9,1.8,48.438.537,49.74.8c1.321.262,2.259,2.024,3.532,2.411s3.046-.55,4.275-.039,1.814,2.427,2.989,3.058,3.092.056,4.2.8,1.3,2.733,2.336,3.581,3.02.653,3.966,1.6.749,2.932,1.6,3.966,2.836,1.223,3.581,2.336.165,3.019.8,4.2,2.542,1.749,3.057,2.989-.429,2.989-.039,4.275,2.149,2.21,2.411,3.531c.258,1.3-1.009,2.842-.878,4.185.129,1.318,1.674,2.583,1.674,3.935s-1.544,2.616-1.674,3.935c-.131,1.343,1.137,2.883.878,4.185-.262,1.321-2.024,2.259-2.411,3.532s.55,3.046.039,4.275-2.427,1.814-3.058,2.989-.056,3.091-.8,4.2-2.733,1.3-3.581,2.336-.653,3.02-1.6,3.965-2.932.749-3.965,1.6-1.223,2.835-2.336,3.581-3.019.165-4.2.8-1.749,2.543-2.989,3.058-2.989-.429-4.275-.039-2.21,2.148-3.531,2.411c-1.3.258-2.842-1.01-4.185-.878-1.319.129-2.583,1.673-3.935,1.673" transform="translate(0.007 0.006)" fill="#d35560"/>
          <path id="Trazado_1004717" data-name="Trazado 1004717" d="M14,51.684A37.684,37.684,0,1,1,51.684,89.367,37.684,37.684,0,0,1,14,51.684" transform="translate(-10.056 -10.057)" fill="#4d787e"/>
          <path id="Trazado_1004718" data-name="Trazado 1004718" d="M131.066,267.538c-.1-.423-.194-.861-.284-1.29l-1.317-.168q.59-.313,1.156-.631-.125-.645-.236-1.289c.3.3.61.6.928.892q.555-.345,1.086-.691-.235.608-.486,1.215c.329.282.665.569,1.009.849l-1.323-.1q-.259.607-.533,1.211" transform="translate(-93.05 -189.867)" fill="#ffffc5"/>
          <path id="Trazado_1004719" data-name="Trazado 1004719" d="M112.708,264.037c-.036-.432-.063-.88-.087-1.317l-1.277-.364q.63-.221,1.238-.45-.027-.657-.04-1.31c.254.337.513.686.783,1.021q.6-.257,1.176-.52-.324.566-.661,1.128c.283.327.571.665.871.989-.433-.09-.863-.2-1.294-.294q-.347.561-.708,1.117" transform="translate(-80.024 -187.305)" fill="#ffffc5"/>
          <path id="Trazado_1004720" data-name="Trazado 1004720" d="M95.144,257.928c.033-.44.071-.881.113-1.318l-1.209-.549c.437-.082.868-.17,1.292-.261q.072-.652.156-1.3c.2.372.406.749.621,1.128q.632-.165,1.242-.339-.4.511-.824,1.017c.23.366.467.74.713,1.109l-1.235-.486q-.427.5-.868,1" transform="translate(-67.592 -182.924)" fill="#ffffc5"/>
          <path id="Trazado_1004721" data-name="Trazado 1004721" d="M78.777,249.35q.148-.647.308-1.286c-.37-.242-.75-.47-1.112-.724.437,0,.884-.038,1.315-.063q.168-.634.348-1.26.214.6.448,1.2c.427-.037.859-.1,1.278-.148q-.477.445-.968.884.26.595.54,1.2l-1.15-.662c-.332.288-.67.578-1.005.854" transform="translate(-56.037 -176.825)" fill="#ffffc5"/>
          <path id="Trazado_1004722" data-name="Trazado 1004722" d="M63.959,238.515q.241-.617.494-1.224c-.331-.294-.678-.57-.991-.883.429.064.874.1,1.307.135q.259-.6.529-1.193.126.619.269,1.254c.421.035.861.036,1.283.046q-.539.37-1.089.732.17.625.359,1.264l-1.043-.821c-.373.239-.74.463-1.116.691" transform="translate(-45.607 -169.158)" fill="#ffffc5"/>
          <path id="Trazado_1004723" data-name="Trazado 1004723" d="M51.005,225.675q.329-.574.667-1.136l-.434-.5c-.144-.168-.276-.346-.414-.519l.629.177.641.152q.344-.556.7-1.1.035.629.085,1.276l.625.131.635.106q-.588.288-1.187.564.078.641.172,1.3c-.3-.321-.614-.637-.913-.964q-.6.264-1.2.517" transform="translate(-36.524 -160.099)" fill="#ffffc5"/>
          <path id="Trazado_1004724" data-name="Trazado 1004724" d="M39.841,211.108q.409-.518.827-1.024c-.118-.187-.242-.37-.355-.561l-.331-.575c.4.18.791.361,1.205.515.283-.333.562-.658.855-.986-.044.421-.073.842-.1,1.273.4.15.8.3,1.208.423-.416.132-.838.26-1.258.383-.012.431-.016.865-.018,1.308-.252-.364-.524-.713-.758-1.089q-.631.173-1.269.334" transform="translate(-28.63 -149.843)" fill="#ffffc5"/>
          <path id="Trazado_1004725" data-name="Trazado 1004725" d="M30.615,195.13q.481-.451.968-.889c-.191-.4-.343-.816-.507-1.226.374.237.731.473,1.112.69.325-.285.659-.569,1-.849-.118.414-.2.821-.295,1.244.381.206.74.414,1.129.6-.434.069-.867.133-1.3.189-.089.43-.146.853-.215,1.291-.2-.395-.412-.783-.586-1.19q-.65.077-1.307.141" transform="translate(-21.998 -138.615)" fill="#ffffc5"/>
          <path id="Trazado_1004726" data-name="Trazado 1004726" d="M24.019,177.688q.543-.373,1.089-.733c-.131-.423-.21-.859-.316-1.289.334.291.656.576.994.85.363-.233.744-.465,1.116-.69-.182.393-.323.783-.48,1.185.344.262.677.519,1.024.762-.442,0-.869,0-1.306-.009-.158.414-.275.823-.408,1.245-.145-.418-.287-.837-.4-1.265q-.655-.021-1.314-.056" transform="translate(-17.257 -126.259)" fill="#ffffc5"/>
          <path id="Trazado_1004727" data-name="Trazado 1004727" d="M20.215,159.173q.593-.288,1.187-.561c-.066-.438-.08-.881-.119-1.322.286.338.561.668.855.99.394-.176.8-.348,1.207-.515-.239.361-.436.726-.652,1.1.3.31.593.614.9.908-.436-.062-.858-.132-1.289-.205-.219.385-.4.772-.591,1.17l-.117-.653c-.037-.218-.058-.439-.088-.658q-.645-.119-1.291-.253" transform="translate(-14.523 -113.05)" fill="#ffffc5"/>
          <path id="Trazado_1004728" data-name="Trazado 1004728" d="M19.269,140.414q.629-.2,1.258-.379c0-.443.041-.884.075-1.325.235.376.447.744.7,1.105.419-.116.836-.226,1.264-.332-.28.322-.535.654-.8.992.253.352.487.7.755,1.031q-.633-.19-1.248-.394c-.27.348-.5.7-.755,1.069-.01-.442-.031-.884-.01-1.327q-.619-.213-1.238-.441" transform="translate(-13.843 -99.696)" fill="#ffffc5"/>
          <path id="Trazado_1004729" data-name="Trazado 1004729" d="M21.174,121.821q.652-.1,1.3-.187c.041-.217.073-.437.122-.652l.149-.647c.174.407.332.8.531,1.2.434-.051.858-.1,1.3-.139-.32.278-.626.566-.942.861.2.385.375.759.6,1.132-.394-.187-.8-.38-1.18-.575-.309.306-.6.622-.9.945.062-.438.1-.88.186-1.314q-.58-.3-1.157-.62" transform="translate(-15.212 -86.487)" fill="#ffffc5"/>
          <path id="Trazado_1004730" data-name="Trazado 1004730" d="M25.928,103.813q.66,0,1.315.01c.134-.422.3-.832.464-1.243.113.429.207.843.344,1.264.435.014.866.032,1.306.058-.363.225-.7.465-1.062.709.138.411.256.807.419,1.208-.362-.244-.728-.495-1.079-.746-.353.256-.688.525-1.036.8.126-.424.23-.855.382-1.271q-.528-.386-1.051-.787" transform="translate(-18.629 -73.726)" fill="#ffffc5"/>
          <path id="Trazado_1004731" data-name="Trazado 1004731" d="M33.429,86.8q.652.1,1.3.206c.193-.4.429-.773.646-1.159.046.44.087.869.149,1.3.425.077.859.165,1.287.255-.4.163-.768.354-1.159.541.075.427.139.839.231,1.257-.325-.3-.64-.6-.951-.9-.4.2-.76.415-1.146.633.183-.4.359-.809.569-1.2q-.465-.461-.923-.936" transform="translate(-24.021 -61.7)" fill="#ffffc5"/>
          <path id="Trazado_1004732" data-name="Trazado 1004732" d="M43.489,71.162q.629.192,1.251.4c.257-.36.542-.7.812-1.05q-.03.663-.046,1.307.623.217,1.238.446c-.418.1-.822.229-1.229.361q.013.648.039,1.276-.406-.508-.8-1.026c-.42.135-.821.292-1.23.454l.359-.559.384-.541q-.391-.526-.775-1.064" transform="translate(-31.252 -50.674)" fill="#ffffc5"/>
          <path id="Trazado_1004733" data-name="Trazado 1004733" d="M55.127,57.229q.594.282,1.177.575l.96-.917q-.126.653-.235,1.29.584.306,1.157.622c-.424.047-.854.1-1.271.173q-.081.644-.147,1.271-.326-.562-.643-1.135l-.648.12c-.214.044-.424.095-.638.144.283-.34.594-.656.9-.976q-.31-.579-.611-1.169" transform="translate(-39.41 -40.884)" fill="#ffffc5"/>
          <path id="Trazado_1004734" data-name="Trazado 1004734" d="M68.74,45.3c.362.244.722.49,1.082.747l1.082-.77q-.22.63-.42,1.246.531.388,1.051.785c-.421-.01-.861-.033-1.285-.019q-.174.627-.329,1.24-.24-.6-.469-1.219c-.432.018-.882.025-1.313.069.33-.3.691-.553,1.034-.831q-.222-.62-.432-1.248" transform="translate(-48.969 -32.539)" fill="#ffffc5"/>
          <path id="Trazado_1004735" data-name="Trazado 1004735" d="M84.114,34.886c.322.295.646.6.962.906l1.181-.606q-.31.592-.6,1.174.467.462.922.93c-.416-.074-.841-.15-1.269-.213q-.264.6-.507,1.182-.148-.635-.284-1.277c-.43-.047-.872-.1-1.311-.13.378-.23.765-.444,1.148-.667q-.128-.646-.243-1.3" transform="translate(-59.802 -25.069)" fill="#ffffc5"/>
          <path id="Trazado_1004736" data-name="Trazado 1004736" d="M100.926,26.946q.415.518.816,1.041c.42-.14.837-.288,1.258-.422-.265.353-.519.717-.768,1.071q.392.526.771,1.057-.6-.2-1.222-.4c-.235.363-.459.733-.677,1.094q-.052-.65-.091-1.307-.627-.167-1.277-.325l1.235-.488c-.02-.438-.037-.883-.045-1.321" transform="translate(-71.682 -19.362)" fill="#ffffc5"/>
          <path id="Trazado_1004737" data-name="Trazado 1004737" d="M118.8,21.733q.332.574.65,1.152c.436-.076.87-.161,1.308-.229-.316.307-.621.63-.92.943q.309.579.6,1.16-.562-.291-1.148-.578c-.288.319-.564.656-.834.979q.046-.651.106-1.306-.595-.258-1.213-.511l1.293-.3c.046-.436.1-.881.154-1.31" transform="translate(-84.346 -15.615)" fill="#ffffc5"/>
          <path id="Trazado_1004738" data-name="Trazado 1004738" d="M137.334,19.35q.243.618.471,1.237l1.327-.033q-.537.4-1.05.8.22.619.425,1.238-.513-.372-1.05-.746c-.332.278-.656.565-.971.845q.143-.637.3-1.275-.55-.345-1.123-.688l1.323-.1c.111-.424.227-.855.348-1.275" transform="translate(-97.504 -13.902)" fill="#ffffc5"/>
          <path id="Trazado_1004739" data-name="Trazado 1004739" d="M156.1,19.831c.1.424.194.861.284,1.29l1.317.168q-.59.313-1.156.631.125.645.236,1.289c-.3-.3-.61-.6-.927-.892q-.555.345-1.086.691.235-.608.485-1.215c-.328-.282-.665-.569-1.009-.849l1.324.1q.259-.607.533-1.211" transform="translate(-110.858 -14.248)" fill="#ffffc5"/>
          <path id="Trazado_1004740" data-name="Trazado 1004740" d="M174.686,23.17c.036.433.063.88.087,1.317l1.277.364q-.63.221-1.238.45.027.657.04,1.31c-.254-.337-.512-.686-.783-1.021q-.6.257-1.176.52.324-.566.661-1.128c-.283-.327-.571-.665-.871-.988.433.09.863.2,1.294.294q.347-.561.708-1.117" transform="translate(-124.114 -16.648)" fill="#ffffc5"/>
          <path id="Trazado_1004741" data-name="Trazado 1004741" d="M192.393,29.313c-.033.44-.071.881-.113,1.318l1.209.549c-.437.082-.868.171-1.292.261q-.072.653-.156,1.3c-.2-.372-.406-.749-.621-1.128q-.632.165-1.242.339.4-.511.824-1.017c-.23-.366-.466-.74-.712-1.109l1.235.486q.427-.5.868-1" transform="translate(-136.689 -21.063)" fill="#ffffc5"/>
          <path id="Trazado_1004742" data-name="Trazado 1004742" d="M208.563,38.133q-.148.647-.308,1.286c.37.242.75.47,1.112.724-.437,0-.884.038-1.315.063q-.168.634-.348,1.26-.214-.6-.448-1.2c-.427.037-.859.1-1.278.148q.478-.445.968-.884-.26-.595-.54-1.2l1.15.662c.332-.288.67-.578,1.005-.854" transform="translate(-148.047 -27.403)" fill="#ffffc5"/>
          <path id="Trazado_1004743" data-name="Trazado 1004743" d="M223.38,49.066q-.241.617-.493,1.224c.331.294.678.57.991.882-.429-.064-.874-.1-1.307-.135q-.259.6-.529,1.194-.126-.619-.269-1.253c-.421-.036-.861-.036-1.284-.046q.539-.37,1.089-.732-.17-.625-.359-1.264l1.043.82c.373-.239.74-.463,1.116-.691" transform="translate(-158.476 -35.168)" fill="#ffffc5"/>
          <path id="Trazado_1004744" data-name="Trazado 1004744" d="M236.527,61.7q-.329.574-.667,1.136l.434.5c.144.168.275.346.414.519l-.63-.177-.641-.152q-.344.556-.7,1.1-.035-.629-.085-1.276l-.625-.131-.635-.106q.588-.288,1.187-.564-.078-.641-.172-1.3c.3.321.614.637.913.964q.6-.264,1.2-.517" transform="translate(-167.752 -44.019)" fill="#ffffc5"/>
          <path id="Trazado_1004745" data-name="Trazado 1004745" d="M247.713,76.239q-.409.518-.826,1.024c.118.187.242.37.355.561l.331.575c-.4-.18-.791-.361-1.205-.515-.283.333-.562.658-.855.986.044-.421.073-.842.1-1.273-.4-.15-.8-.3-1.208-.423.416-.132.838-.261,1.258-.383.012-.431.017-.865.018-1.307.252.364.524.713.758,1.089q.631-.173,1.269-.334" transform="translate(-175.669 -54.249)" fill="#ffffc5"/>
          <path id="Trazado_1004746" data-name="Trazado 1004746" d="M256.684,92.378q-.481.451-.968.889c.191.4.343.816.507,1.226-.374-.237-.731-.473-1.112-.69-.325.285-.659.569-1,.849.118-.414.2-.821.3-1.244-.381-.206-.74-.414-1.129-.6.434-.069.867-.133,1.3-.189.089-.43.146-.853.215-1.291.2.395.412.783.586,1.191q.65-.077,1.307-.141" transform="translate(-182.045 -65.638)" fill="#ffffc5"/>
          <path id="Trazado_1004747" data-name="Trazado 1004747" d="M263.22,109.767q-.543.374-1.089.733c.131.423.21.859.316,1.289-.334-.291-.656-.577-.994-.85-.363.233-.744.465-1.117.69.182-.393.323-.783.48-1.185-.344-.262-.677-.519-1.024-.762.441,0,.869,0,1.306.009.158-.414.275-.823.408-1.245.145.418.287.837.4,1.265q.655.021,1.314.056" transform="translate(-186.726 -77.942)" fill="#ffffc5"/>
          <path id="Trazado_1004748" data-name="Trazado 1004748" d="M267.158,128.019q-.593.288-1.187.561c.066.438.08.881.119,1.322-.286-.338-.561-.668-.855-.99-.394.176-.8.348-1.207.515.239-.361.436-.726.652-1.1-.3-.31-.593-.614-.9-.908.436.062.858.132,1.289.205.219-.385.4-.772.591-1.169l.117.653c.037.218.058.439.088.658q.645.119,1.291.253" transform="translate(-189.594 -90.887)" fill="#ffffc5"/>
          <path id="Trazado_1004749" data-name="Trazado 1004749" d="M268.294,146.713q-.629.2-1.258.379c0,.443-.041.884-.075,1.325-.235-.376-.447-.744-.7-1.105-.419.116-.836.226-1.264.332.28-.322.535-.654.8-.992-.253-.352-.487-.7-.755-1.031q.633.19,1.248.394c.27-.348.5-.7.755-1.069.01.442.031.884.01,1.327q.619.213,1.238.441" transform="translate(-190.465 -104.177)" fill="#ffffc5"/>
          <path id="Trazado_1004750" data-name="Trazado 1004750" d="M266.131,165.436q-.653.1-1.3.187c-.041.217-.073.437-.122.652l-.149.647c-.174-.407-.332-.8-.531-1.2-.434.051-.858.1-1.3.139.32-.278.626-.566.942-.861-.2-.385-.375-.759-.6-1.132.394.187.8.38,1.18.575.309-.306.6-.622.9-.945-.062.438-.1.88-.186,1.314q.58.3,1.158.62" transform="translate(-188.837 -117.515)" fill="#ffffc5"/>
          <path id="Trazado_1004751" data-name="Trazado 1004751" d="M261.308,183.774q-.66,0-1.315-.01c-.134.422-.3.832-.464,1.243-.113-.429-.207-.843-.344-1.264-.435-.014-.866-.031-1.306-.058.363-.225.7-.465,1.062-.709-.138-.41-.256-.807-.419-1.208.362.244.728.495,1.079.746.353-.256.688-.525,1.036-.8-.126.424-.23.855-.382,1.271q.528.386,1.051.787" transform="translate(-185.351 -130.607)" fill="#ffffc5"/>
          <path id="Trazado_1004752" data-name="Trazado 1004752" d="M253.934,200.63q-.652-.1-1.3-.206c-.193.4-.429.773-.646,1.159-.046-.44-.086-.869-.149-1.3-.425-.077-.859-.165-1.287-.255.4-.163.768-.354,1.159-.541-.075-.427-.138-.839-.231-1.257.325.3.639.6.951.9.4-.2.76-.415,1.146-.633-.183.4-.359.809-.569,1.2q.464.461.923.936" transform="translate(-180.086 -142.477)" fill="#ffffc5"/>
          <path id="Trazado_1004753" data-name="Trazado 1004753" d="M244.192,216.174q-.629-.192-1.251-.4c-.257.36-.542.7-.812,1.05q.03-.663.046-1.307-.623-.217-1.238-.446c.418-.1.822-.229,1.229-.361q-.013-.647-.039-1.276.406.508.8,1.026c.42-.135.821-.292,1.23-.454l-.359.559-.384.541q.391.526.775,1.064" transform="translate(-173.174 -153.408)" fill="#ffffc5"/>
          <path id="Trazado_1004754" data-name="Trazado 1004754" d="M232.318,230.192q-.594-.283-1.177-.575l-.96.917q.126-.653.235-1.29-.584-.306-1.157-.622c.423-.047.854-.1,1.271-.173q.081-.644.147-1.271.326.562.643,1.135l.648-.12c.214-.044.424-.095.638-.144-.283.34-.594.656-.9.976q.31.579.611,1.169" transform="translate(-164.78 -163.283)" fill="#ffffc5"/>
          <path id="Trazado_1004755" data-name="Trazado 1004755" d="M218.578,242.388c-.363-.244-.722-.49-1.082-.747l-1.081.77q.219-.63.42-1.246-.531-.388-1.051-.785c.421.01.861.033,1.285.019q.174-.628.329-1.24.24.6.47,1.219c.432-.018.882-.025,1.313-.069-.33.3-.691.553-1.034.831q.222.62.432,1.248" transform="translate(-155.093 -171.896)" fill="#ffffc5"/>
          <path id="Trazado_1004756" data-name="Trazado 1004756" d="M203.269,252.492c-.322-.294-.646-.6-.962-.905l-1.181.606q.31-.592.6-1.174-.467-.462-.922-.931c.416.074.841.15,1.269.213q.264-.6.507-1.182.148.635.285,1.277c.43.046.871.1,1.31.129-.378.23-.765.444-1.148.667q.128.646.243,1.3" transform="translate(-144.326 -179.054)" fill="#ffffc5"/>
          <path id="Trazado_1004757" data-name="Trazado 1004757" d="M186.721,260.262q-.415-.518-.816-1.041c-.42.14-.837.288-1.258.422.266-.353.519-.717.768-1.071q-.392-.526-.771-1.057.6.2,1.222.4c.235-.363.459-.733.677-1.094q.052.65.091,1.307.627.167,1.277.325l-1.235.488c.02.438.037.883.045,1.321" transform="translate(-132.71 -184.592)" fill="#ffffc5"/>
          <path id="Trazado_1004758" data-name="Trazado 1004758" d="M168.491,265.508q-.332-.574-.65-1.152c-.436.076-.87.161-1.308.229.316-.307.621-.631.92-.943q-.309-.579-.6-1.16.562.291,1.148.578c.288-.319.564-.656.834-.979q-.046.651-.106,1.306.595.258,1.213.511l-1.293.3c-.046.436-.1.88-.154,1.31" transform="translate(-119.693 -188.372)" fill="#ffffc5"/>
          <path id="Trazado_1004759" data-name="Trazado 1004759" d="M149.8,268.115q-.243-.618-.471-1.237l-1.327.033q.537-.4,1.05-.8-.22-.619-.425-1.238.513.372,1.05.745c.332-.278.656-.565.971-.845q-.143.637-.3,1.275.55.345,1.123.688l-1.323.1c-.111.424-.227.855-.348,1.275" transform="translate(-106.372 -190.309)" fill="#ffffc5"/>
          <path id="Trazado_1004760" data-name="Trazado 1004760" d="M66.94,98.654A31.715,31.715,0,1,1,98.654,66.94,31.75,31.75,0,0,1,66.94,98.654" transform="translate(-25.312 -25.313)" fill="#d35560"/>
        </g>
      </g>
      <g id="Grupo_1180053" data-name="Grupo 1180053" transform="translate(21.809 21.57)">
        <rect id="Rectángulo_401104" data-name="Rectángulo 401104" width="39.638" height="40.116" transform="translate(0)" fill="#d35560"/>
      </g>
    </g>
    <g id="Grupo_1180421" data-name="Grupo 1180421" transform="translate(352.678 9280.613)">
      <path id="Trazado_1021697" data-name="Trazado 1021697" d="M116,214.36v3.165h33.991V214.36Zm15.133,2.291H117.917a.708.708,0,0,1,0-1.416h13.216a.708.708,0,1,1,0,1.416Zm10.312,0h-.624a.708.708,0,1,1,0-1.416h.623a.708.708,0,0,1,0,1.416Zm3.315,0h-.624a.708.708,0,0,1,0-1.416h.623a.708.708,0,1,1,0,1.416Zm3.315,0h-.624a.708.708,0,1,1,0-1.416h.623a.708.708,0,1,1,0,1.416Z" transform="translate(-30.584 -30.584)" fill="#29b6f6"/>
      <path id="Trazado_1021698" data-name="Trazado 1021698" d="M116,317.88v20.7h33.991v-20.7Zm3.245,4.109h8.763a.708.708,0,1,1,0,1.416h-8.763a.708.708,0,1,1,0-1.416Zm0,3.69h10.091a.708.708,0,1,1,0,1.416H119.245a.708.708,0,0,1,0-1.416Zm11.419,8.8H119.245a.708.708,0,1,1,0-1.416h11.419a.708.708,0,1,1,0,1.416Zm0-3.69H119.245a.708.708,0,0,1,0-1.416h11.419a.708.708,0,1,1,0,1.416Zm16.11.333a.647.647,0,0,1-.044.089,6.494,6.494,0,0,1-4.679,3.411h-.006l-.044.007a6.512,6.512,0,0,1-2.042,0l-.044-.007h-.006a6.493,6.493,0,0,1-4.676-3.405.687.687,0,0,1-.05-.1v0a6.469,6.469,0,0,1,0-5.762.658.658,0,0,1,.049-.095,6.492,6.492,0,0,1,4.691-3.41l.026,0a6.5,6.5,0,0,1,2.068,0l.024,0a6.493,6.493,0,0,1,4.691,3.41.658.658,0,0,1,.049.095,6.47,6.47,0,0,1,0,5.77Z" transform="translate(-30.584 -129.522)" fill="#b3e5fc"/>
      <path id="Trazado_1021699" data-name="Trazado 1021699" d="M591.063,447.17a15.312,15.312,0,0,0-.337,1.863,15.132,15.132,0,0,1-1.666-.272A5.081,5.081,0,0,1,591.063,447.17Z" transform="translate(-482.707 -253.09)" fill="#1976d2"/>
      <path id="Trazado_1021700" data-name="Trazado 1021700" d="M568.612,513.97c0,.458.012.912.037,1.355a15.391,15.391,0,0,0-2.246.4,5.06,5.06,0,0,1,0-3.5,15.442,15.442,0,0,0,2.246.4C568.624,513.058,568.612,513.512,568.612,513.97Z" transform="translate(-460.754 -315.261)" fill="#1976d2"/>
      <path id="Trazado_1021701" data-name="Trazado 1021701" d="M591.054,616.132a5.087,5.087,0,0,1-2-1.591,15.251,15.251,0,0,1,1.667-.272,15.317,15.317,0,0,0,.337,1.862Z" transform="translate(-482.697 -412.794)" fill="#1976d2"/>
      <path id="Trazado_1021702" data-name="Trazado 1021702" d="M660.583,611.45a11.389,11.389,0,0,1-.524,2.379q-.216.019-.438.019t-.438-.019a11.5,11.5,0,0,1-.524-2.379c.316-.013.638-.02.962-.02S660.268,611.437,660.583,611.45Z" transform="translate(-549.226 -410.08)" fill="#1976d2"/>
      <path id="Trazado_1021703" data-name="Trazado 1021703" d="M728.453,614.589a5.083,5.083,0,0,1-2,1.593,15.31,15.31,0,0,0,.337-1.863A15.162,15.162,0,0,1,728.453,614.589Z" transform="translate(-614.016 -412.842)" fill="#1976d2"/>
      <path id="Trazado_1021704" data-name="Trazado 1021704" d="M728.453,448.751a15.128,15.128,0,0,1-1.666.272,15.307,15.307,0,0,0-.337-1.863A5.083,5.083,0,0,1,728.453,448.751Z" transform="translate(-614.016 -253.08)" fill="#1976d2"/>
      <path id="Trazado_1021705" data-name="Trazado 1021705" d="M739.429,513.874a5.036,5.036,0,0,1-.313,1.752,15.386,15.386,0,0,0-2.246-.4c.025-.443.038-.9.038-1.355s-.012-.911-.038-1.355a15.454,15.454,0,0,0,2.246-.4A5.037,5.037,0,0,1,739.429,513.874Z" transform="translate(-623.975 -315.165)" fill="#1976d2"/>
      <path id="Trazado_1021706" data-name="Trazado 1021706" d="M657.3,524.8c0,.422-.011.841-.034,1.249-.358-.016-.721-.024-1.087-.024s-.73.008-1.087.024c-.023-.409-.034-.826-.034-1.249s.011-.841.034-1.249c.358.016.721.024,1.087.024s.73-.008,1.087-.024C657.291,523.958,657.3,524.376,657.3,524.8Z" transform="translate(-545.786 -326.089)" fill="#1976d2"/>
      <path id="Trazado_1021707" data-name="Trazado 1021707" d="M660.583,439.858c-.316.013-.637.02-.961.02s-.645-.007-.962-.02a11.357,11.357,0,0,1,.524-2.379q.216-.019.438-.019t.437.019A11.385,11.385,0,0,1,660.583,439.858Z" transform="translate(-549.226 -243.81)" fill="#1976d2"/>
      <g id="Grupo_1180419" data-name="Grupo 1180419" transform="translate(84.974 184.219)" opacity="0.5">
        <path id="Trazado_1021708" data-name="Trazado 1021708" d="M106,224.36v3.165h33.991V224.36Zm15.133,2.291H107.917a.708.708,0,0,1,0-1.416h13.216a.708.708,0,1,1,0,1.416Zm10.312,0h-.624a.708.708,0,0,1,0-1.416h.623a.708.708,0,1,1,0,1.416Zm3.315,0h-.624a.708.708,0,0,1,0-1.416h.623a.708.708,0,0,1,0,1.416Zm3.315,0h-.624a.708.708,0,1,1,0-1.416h.623a.708.708,0,1,1,0,1.416Z" transform="translate(-106 -224.36)" fill="#fff"/>
        <path id="Trazado_1021709" data-name="Trazado 1021709" d="M106,327.88v20.7h33.991v-20.7Zm3.245,4.109h8.763a.708.708,0,1,1,0,1.416h-8.763a.708.708,0,1,1,0-1.416Zm0,3.69h10.091a.708.708,0,1,1,0,1.416H109.245a.708.708,0,1,1,0-1.416Zm11.419,8.8H109.245a.708.708,0,0,1,0-1.416h11.419a.708.708,0,0,1,0,1.416Zm0-3.69H109.245a.708.708,0,1,1,0-1.416h11.419a.708.708,0,1,1,0,1.416Zm16.11.333a.646.646,0,0,1-.044.089,6.494,6.494,0,0,1-4.679,3.411h-.006l-.044.007a6.512,6.512,0,0,1-2.042,0l-.044-.007h-.006a6.493,6.493,0,0,1-4.676-3.405.685.685,0,0,1-.05-.1v0a6.469,6.469,0,0,1,0-5.762.659.659,0,0,1,.049-.095,6.492,6.492,0,0,1,4.691-3.41l.026,0a6.5,6.5,0,0,1,2.068,0l.024,0a6.493,6.493,0,0,1,4.691,3.41.659.659,0,0,1,.049.095,6.47,6.47,0,0,1,0,5.77Z" transform="translate(-106 -323.298)" fill="#fff"/>
        <path id="Trazado_1021710" data-name="Trazado 1021710" d="M581.063,457.17a15.3,15.3,0,0,0-.337,1.863,15.132,15.132,0,0,1-1.666-.272A5.081,5.081,0,0,1,581.063,457.17Z" transform="translate(-558.123 -446.866)" fill="#fff"/>
        <path id="Trazado_1021711" data-name="Trazado 1021711" d="M558.612,523.97c0,.458.012.912.037,1.355a15.391,15.391,0,0,0-2.246.4,5.06,5.06,0,0,1,0-3.5,15.45,15.45,0,0,0,2.246.4C558.624,523.058,558.612,523.512,558.612,523.97Z" transform="translate(-536.17 -509.037)" fill="#fff"/>
        <path id="Trazado_1021712" data-name="Trazado 1021712" d="M581.054,626.132a5.086,5.086,0,0,1-2-1.591,15.234,15.234,0,0,1,1.667-.272,15.306,15.306,0,0,0,.337,1.862Z" transform="translate(-558.113 -606.571)" fill="#fff"/>
        <path id="Trazado_1021713" data-name="Trazado 1021713" d="M650.583,621.45a11.393,11.393,0,0,1-.524,2.379q-.216.019-.438.019t-.438-.019a11.5,11.5,0,0,1-.524-2.379c.316-.013.638-.02.962-.02S650.268,621.437,650.583,621.45Z" transform="translate(-624.642 -603.856)" fill="#fff"/>
        <path id="Trazado_1021714" data-name="Trazado 1021714" d="M718.453,624.589a5.083,5.083,0,0,1-2,1.593,15.309,15.309,0,0,0,.337-1.863A15.161,15.161,0,0,1,718.453,624.589Z" transform="translate(-689.432 -606.618)" fill="#fff"/>
        <path id="Trazado_1021715" data-name="Trazado 1021715" d="M718.453,458.751a15.126,15.126,0,0,1-1.666.272,15.307,15.307,0,0,0-.337-1.863A5.083,5.083,0,0,1,718.453,458.751Z" transform="translate(-689.432 -446.856)" fill="#fff"/>
        <path id="Trazado_1021716" data-name="Trazado 1021716" d="M729.429,523.874a5.037,5.037,0,0,1-.313,1.752,15.378,15.378,0,0,0-2.246-.4c.025-.443.038-.9.038-1.355s-.012-.911-.038-1.355a15.446,15.446,0,0,0,2.246-.4A5.037,5.037,0,0,1,729.429,523.874Z" transform="translate(-699.391 -508.942)" fill="#fff"/>
        <path id="Trazado_1021717" data-name="Trazado 1021717" d="M647.3,534.8c0,.422-.011.841-.034,1.249-.358-.016-.721-.024-1.087-.024s-.73.008-1.087.024c-.023-.409-.034-.826-.034-1.249s.011-.841.034-1.248c.358.016.721.024,1.087.024s.73-.008,1.087-.024C647.291,533.958,647.3,534.376,647.3,534.8Z" transform="translate(-621.202 -519.866)" fill="#fff"/>
        <path id="Trazado_1021718" data-name="Trazado 1021718" d="M650.583,449.858c-.316.013-.637.02-.961.02s-.645-.007-.962-.02a11.357,11.357,0,0,1,.524-2.379q.216-.019.438-.019t.437.019A11.381,11.381,0,0,1,650.583,449.858Z" transform="translate(-624.643 -437.586)" fill="#fff"/>
      </g>
      <g id="Grupo_1180420" data-name="Grupo 1180420" transform="translate(84 182.36)">
        <path id="Trazado_1021719" data-name="Trazado 1021719" d="M120.115,182.36H84.708a.708.708,0,0,0-.708.708v26.7a.708.708,0,0,0,.708.708h35.407a.708.708,0,0,0,.708-.708v-26.7A.708.708,0,0,0,120.115,182.36Zm-.708,26.7H85.416V183.776h33.991Z" transform="translate(-84 -182.36)" fill="#413b32"/>
        <path id="Trazado_1021720" data-name="Trazado 1021720" d="M120.823,286.588a.708.708,0,0,1-.708.708H84.708a.708.708,0,1,1,0-1.416h35.407A.708.708,0,0,1,120.823,286.588Z" transform="translate(-84 -281.298)" fill="#413b32"/>
        <path id="Trazado_1021721" data-name="Trazado 1021721" d="M183.529,411.418a.708.708,0,0,1-.708.708h-8.763a.708.708,0,0,1,0-1.416h8.763A.708.708,0,0,1,183.529,411.418Z" transform="translate(-169.395 -400.603)" fill="#413b32"/>
        <path id="Trazado_1021722" data-name="Trazado 1021722" d="M184.857,494.788a.708.708,0,0,1-.708.708H174.058a.708.708,0,0,1,0-1.416h10.091A.708.708,0,0,1,184.857,494.788Z" transform="translate(-169.395 -480.284)" fill="#413b32"/>
        <path id="Trazado_1021723" data-name="Trazado 1021723" d="M186.185,578.158a.708.708,0,0,1-.708.708H174.058a.708.708,0,0,1,0-1.416h11.419A.708.708,0,0,1,186.185,578.158Z" transform="translate(-169.395 -559.964)" fill="#413b32"/>
        <path id="Trazado_1021724" data-name="Trazado 1021724" d="M186.185,661.528a.708.708,0,0,1-.708.708H174.058a.708.708,0,0,1,0-1.416h11.419A.708.708,0,0,1,186.185,661.528Z" transform="translate(-169.395 -639.644)" fill="#413b32"/>
        <path id="Trazado_1021725" data-name="Trazado 1021725" d="M546.3,409.052c-.016-.031-.032-.063-.049-.095a6.493,6.493,0,0,0-4.691-3.41l-.024,0a6.5,6.5,0,0,0-2.068,0l-.026,0a6.492,6.492,0,0,0-4.691,3.41c-.017.031-.033.063-.049.095a6.469,6.469,0,0,0,0,5.762v0l.05.1a6.493,6.493,0,0,0,4.676,3.405h.006l.044.007a6.514,6.514,0,0,0,2.042,0l.044-.007h.006a6.494,6.494,0,0,0,4.682-3.409c.016-.03.031-.059.044-.089a6.47,6.47,0,0,0,0-5.77Zm-3.759,7.513a5,5,0,0,1-1.6.41q-.216.019-.438.019t-.438-.019a4.992,4.992,0,0,1-1.6-.411,5.059,5.059,0,0,1,1.6-9.669q.216-.019.438-.019c.147,0,.293.006.437.019a5,5,0,0,1,1.6.41,5.06,5.06,0,0,1,0,9.259Z" transform="translate(-514.108 -395.586)" fill="#413b32"/>
        <path id="Trazado_1021726" data-name="Trazado 1021726" d="M559.416,478.182q-.294.1-.626.187a15.448,15.448,0,0,1-2.246.4c-.229.025-.463.044-.7.064s-.47.032-.708.042c-.357.016-.721.024-1.087.024s-.73-.008-1.087-.024c-.24-.01-.477-.024-.71-.042s-.474-.039-.7-.065a15.439,15.439,0,0,1-2.246-.4q-.332-.088-.626-.188a.708.708,0,0,1-.443-.9c.005-.016.011-.031.017-.044a.664.664,0,0,1,.049-.095.708.708,0,0,1,.832-.3,8.565,8.565,0,0,0,.874.242,15.145,15.145,0,0,0,1.666.272c.221.025.452.044.685.063s.482.032.729.042c.316.013.638.02.962.02s.645-.007.961-.02q.371-.015.729-.042t.685-.063a15.136,15.136,0,0,0,1.666-.272,8.565,8.565,0,0,0,.874-.242.708.708,0,0,1,.833.3.657.657,0,0,1,.049.095l.017.044a.708.708,0,0,1-.444.9Z" transform="translate(-527.649 -463.773)" fill="#413b32"/>
        <path id="Trazado_1021727" data-name="Trazado 1021727" d="M559.913,580.967c-.005.016-.011.032-.018.048a.658.658,0,0,1-.044.089.708.708,0,0,1-.834.3,8.721,8.721,0,0,0-.873-.242,15.165,15.165,0,0,0-1.666-.272c-.221-.025-.452-.044-.685-.063s-.483-.032-.73-.044c-.316-.013-.637-.02-.961-.02s-.646.007-.962.02q-.37.015-.729.044c-.233.017-.462.039-.685.063a15.233,15.233,0,0,0-1.667.272,8.716,8.716,0,0,0-.873.242.708.708,0,0,1-.831-.3.686.686,0,0,1-.05-.1v0l-.015-.04a.708.708,0,0,1,.443-.9c.2-.067.405-.129.626-.188a15.393,15.393,0,0,1,2.246-.4q.344-.037.7-.064c.233-.018.47-.032.708-.044.357-.016.721-.024,1.087-.024s.73.008,1.087.024c.24.011.477.025.708.044s.473.039.7.064a15.4,15.4,0,0,1,2.246.4q.332.089.626.187A.708.708,0,0,1,559.913,580.967Z" transform="translate(-527.704 -561.78)" fill="#413b32"/>
        <path id="Trazado_1021728" data-name="Trazado 1021728" d="M625.295,418.983a.708.708,0,0,1-.642,1.006.7.7,0,0,1-.086-.005l-.044-.007h-.006a.708.708,0,0,1-.507-.4,7.825,7.825,0,0,1-.461-1.36,15.328,15.328,0,0,1-.337-1.862q-.044-.346-.074-.708-.031-.347-.05-.7c-.025-.443-.037-.9-.037-1.355s.012-.912.037-1.355c.013-.238.03-.473.05-.7s.046-.477.074-.708a15.311,15.311,0,0,1,.337-1.863,7.818,7.818,0,0,1,.461-1.36.708.708,0,0,1,.519-.4l.026,0a.708.708,0,0,1,.74,1q-.075.161-.145.354a11.5,11.5,0,0,0-.524,2.379q-.044.354-.077.725-.03.338-.049.687c-.023.409-.034.826-.034,1.249s.011.841.034,1.249c.012.232.029.461.049.686.022.248.047.49.077.726a11.362,11.362,0,0,0,.524,2.379Q625.22,418.822,625.295,418.983Z" transform="translate(-599.192 -397.24)" fill="#413b32"/>
        <path id="Trazado_1021729" data-name="Trazado 1021729" d="M687.822,413.563c0,.458-.012.912-.038,1.355-.013.238-.03.473-.05.7s-.044.478-.074.708a15.289,15.289,0,0,1-.337,1.863,7.789,7.789,0,0,1-.46,1.36.708.708,0,0,1-.507.4h-.006l-.044.007a.689.689,0,0,1-.086.005.708.708,0,0,1-.642-1.006q.075-.162.145-.354a11.514,11.514,0,0,0,.524-2.379q.044-.354.077-.725.03-.338.049-.687c.022-.409.034-.826.034-1.249s-.012-.841-.034-1.249c-.013-.232-.029-.461-.049-.686-.022-.248-.047-.49-.077-.726a11.359,11.359,0,0,0-.524-2.379,3.775,3.775,0,0,0-.144-.354.708.708,0,0,1,.741-1l.024,0a.708.708,0,0,1,.52.4,7.769,7.769,0,0,1,.46,1.359,15.318,15.318,0,0,1,.337,1.863q.042.345.074.708c.02.231.037.466.05.7.026.445.038.9.038,1.356Z" transform="translate(-658.889 -397.214)" fill="#413b32"/>
        <path id="Trazado_1021730" data-name="Trazado 1021730" d="M812.649,234.828a.708.708,0,0,1-.708.708h-.623a.708.708,0,0,1,0-1.416h.623A.708.708,0,0,1,812.649,234.828Z" transform="translate(-778.451 -231.829)" fill="#413b32"/>
        <path id="Trazado_1021731" data-name="Trazado 1021731" d="M737.759,234.828a.708.708,0,0,1-.708.708h-.623a.708.708,0,0,1,0-1.416h.623A.708.708,0,0,1,737.759,234.828Z" transform="translate(-706.876 -231.829)" fill="#413b32"/>
        <path id="Trazado_1021732" data-name="Trazado 1021732" d="M662.869,234.828a.708.708,0,0,1-.708.708h-.623a.708.708,0,0,1,0-1.416h.623A.708.708,0,0,1,662.869,234.828Z" transform="translate(-635.3 -231.829)" fill="#413b32"/>
        <path id="Trazado_1021733" data-name="Trazado 1021733" d="M157.942,234.828a.708.708,0,0,1-.708.708H144.018a.708.708,0,0,1,0-1.416h13.216A.708.708,0,0,1,157.942,234.828Z" transform="translate(-140.685 -231.829)" fill="#413b32"/>
      </g>
    </g>
  </g>
</svg>
