<svg xmlns="http://www.w3.org/2000/svg" width="84" height="84" viewBox="0 0 84 84">
  <g id="Grupo_1180425" data-name="Grupo 1180425" transform="translate(-186 -11074)">
    <rect id="Rectángulo_456581" data-name="Rectángulo 456581" width="84" height="84" rx="10" transform="translate(186 11074)" fill="#f2a4ab"/>
    <g id="Grupo_1180424" data-name="Grupo 1180424" transform="translate(113.209 10941.396)">
      <path id="Trazado_1021734" data-name="Trazado 1021734" d="M595.273,537.274v-1.724a1.184,1.184,0,0,0-1.184-1.184H582.42v-3.749h11.669a1.184,1.184,0,0,0,1.184-1.184V527.71l8.283,4.783Z" transform="translate(-461.532 -351.057)" fill="#ff3d00"/>
      <path id="Trazado_1021735" data-name="Trazado 1021735" d="M643.9,649.65V661.5a.719.719,0,0,1-.719.719h-1.66V649.65Z" transform="translate(-516.258 -463.972)" fill="#0288d1"/>
      <path id="Trazado_1021736" data-name="Trazado 1021736" d="M156.375,194.24l-.047-.032-18.582-13.335a2.032,2.032,0,0,0-2.165,0l-19.406,13.871-.044.03a.222.222,0,0,0-.1.186v32.166a.719.719,0,0,0,.718.719h1.737V198.426a1.184,1.184,0,0,1,1.184-1.184h34.069a1.184,1.184,0,0,1,1.184,1.184v8.368H157.3v-10.85A2.023,2.023,0,0,0,156.375,194.24Zm-24.953-8.226H141.9a1.184,1.184,0,1,1,0,2.368H131.422a1.184,1.184,0,0,1,0-2.368ZM149.6,194h-25.87a1.184,1.184,0,1,1,0-2.368H149.6a1.184,1.184,0,1,1,0,2.368Z" transform="translate(-29.66 -29.601)" fill="#0288d1"/>
      <path id="Trazado_1021737" data-name="Trazado 1021737" d="M249.79,744.08h5.577v5.577H249.79Z" transform="translate(-153.52 -551.414)" fill="#fcb64d"/>
      <path id="Trazado_1021738" data-name="Trazado 1021738" d="M357.15,744.08h5.577v5.577H357.15Z" transform="translate(-252.934 -551.414)" fill="#fcb64d"/>
      <path id="Trazado_1021739" data-name="Trazado 1021739" d="M464.51,744.08h5.577v5.577H464.51Z" transform="translate(-352.348 -551.414)" fill="#fcb64d"/>
      <path id="Trazado_1021740" data-name="Trazado 1021740" d="M357.15,529.37h5.577v5.577H357.15Z" transform="translate(-252.934 -352.594)" fill="#fcb64d"/>
      <path id="Trazado_1021741" data-name="Trazado 1021741" d="M303.47,636.72h5.577V642.3H303.47Z" transform="translate(-203.227 -451.999)" fill="#fcb64d"/>
      <path id="Trazado_1021742" data-name="Trazado 1021742" d="M410.83,636.72h5.577V642.3H410.83Z" transform="translate(-302.641 -451.999)" fill="#fcb64d"/>
      <path id="Trazado_1021743" data-name="Trazado 1021743" d="M208.5,446.308v6.117a1.184,1.184,0,0,0,1.184,1.184h3.19v12.566h-2.787v-6.762a1.184,1.184,0,0,0-1.184-1.184h-2.788v-6.762a1.184,1.184,0,0,0-1.184-1.184H202.14v-6.761a1.184,1.184,0,0,0-1.184-1.184H193.01a1.184,1.184,0,0,0-1.184,1.184v6.761h-2.789a1.184,1.184,0,0,0-1.184,1.184v6.762h-2.789a1.184,1.184,0,0,0-1.184,1.184v6.762h-2.71V437.94h31.7v7.183h-3.19A1.184,1.184,0,0,0,208.5,446.308Z" transform="translate(-89.978 -267.931)" fill="#bbdefb"/>
      <g id="Grupo_1180422" data-name="Grupo 1180422" transform="translate(85.63 151.7)" opacity="0.5">
        <path id="Trazado_1021744" data-name="Trazado 1021744" d="M585.273,547.274v-1.724a1.184,1.184,0,0,0-1.184-1.184H572.42v-3.749h11.669a1.184,1.184,0,0,0,1.184-1.184V537.71l8.283,4.783Z" transform="translate(-537.902 -512.017)" fill="#fff"/>
        <path id="Trazado_1021745" data-name="Trazado 1021745" d="M633.9,659.65V671.5a.719.719,0,0,1-.719.719h-1.66V659.65Z" transform="translate(-592.628 -624.932)" fill="#fff"/>
        <path id="Trazado_1021746" data-name="Trazado 1021746" d="M146.375,204.24c-.016-.01-.032-.021-.047-.032l-18.582-13.334a2.032,2.032,0,0,0-2.165,0l-19.406,13.871-.044.03a.222.222,0,0,0-.1.186v32.166a.719.719,0,0,0,.718.719h1.737V208.426a1.184,1.184,0,0,1,1.184-1.184h34.069a1.184,1.184,0,0,1,1.184,1.184v8.368H147.3v-10.85A2.023,2.023,0,0,0,146.375,204.24Zm-24.953-8.226H131.9a1.184,1.184,0,1,1,0,2.368H121.422a1.184,1.184,0,1,1,0-2.368ZM139.6,204h-25.87a1.184,1.184,0,1,1,0-2.368H139.6a1.184,1.184,0,0,1,0,2.368Z" transform="translate(-106.03 -190.561)" fill="#fff"/>
        <path id="Trazado_1021747" data-name="Trazado 1021747" d="M239.79,754.08h5.577v5.577H239.79Z" transform="translate(-229.89 -712.374)" fill="#fff"/>
        <path id="Trazado_1021748" data-name="Trazado 1021748" d="M347.15,754.08h5.577v5.577H347.15Z" transform="translate(-329.305 -712.374)" fill="#fff"/>
        <path id="Trazado_1021749" data-name="Trazado 1021749" d="M454.51,754.08h5.577v5.577H454.51Z" transform="translate(-428.719 -712.374)" fill="#fff"/>
        <path id="Trazado_1021750" data-name="Trazado 1021750" d="M347.15,539.37h5.577v5.577H347.15Z" transform="translate(-329.305 -513.554)" fill="#fff"/>
        <path id="Trazado_1021751" data-name="Trazado 1021751" d="M293.47,646.72h5.577V652.3H293.47Z" transform="translate(-279.597 -612.959)" fill="#fff"/>
        <path id="Trazado_1021752" data-name="Trazado 1021752" d="M400.83,646.72h5.577V652.3H400.83Z" transform="translate(-379.012 -612.959)" fill="#fff"/>
        <path id="Trazado_1021753" data-name="Trazado 1021753" d="M198.5,456.308v6.117a1.184,1.184,0,0,0,1.184,1.184h3.19v12.566h-2.787v-6.762a1.184,1.184,0,0,0-1.184-1.184h-2.788v-6.762a1.184,1.184,0,0,0-1.184-1.184H192.14v-6.761a1.184,1.184,0,0,0-1.184-1.184H183.01a1.184,1.184,0,0,0-1.184,1.184v6.761h-2.789a1.184,1.184,0,0,0-1.184,1.184v6.762h-2.789a1.184,1.184,0,0,0-1.184,1.184v6.762h-2.71V447.94h31.7v7.183h-3.19A1.184,1.184,0,0,0,198.5,456.308Z" transform="translate(-166.349 -428.891)" fill="#fff"/>
      </g>
      <g id="Grupo_1180423" data-name="Grupo 1180423" transform="translate(84 148.594)">
        <path id="Trazado_1021754" data-name="Trazado 1021754" d="M560.725,490.14a1.184,1.184,0,0,1-1.184-1.184v-1.184H551.6a1.184,1.184,0,0,0-1.184,1.184v6.117a1.184,1.184,0,0,0,1.184,1.184h3.19v-1.184a1.184,1.184,0,0,1,1.184-1.184h-3.19V490.14Zm16.159.849-11.836-6.833a1.184,1.184,0,0,0-1.776,1.026v2.59H551.6a1.184,1.184,0,0,0-1.184,1.184v6.117a1.184,1.184,0,0,0,1.184,1.184h11.669v2.59a1.184,1.184,0,0,0,1.776,1.025l5.921-3.416,5.921-3.417a1.184,1.184,0,0,0,0-2.051ZM565.641,496.8v-1.724a1.184,1.184,0,0,0-1.184-1.184H552.788v-3.749h11.669a1.184,1.184,0,0,0,1.184-1.184v-1.724l8.283,4.783Zm-4.916-6.657a1.184,1.184,0,0,1-1.184-1.184v-1.184H551.6a1.184,1.184,0,0,0-1.184,1.184v6.117a1.184,1.184,0,0,0,1.184,1.184h3.19v-1.184a1.184,1.184,0,0,1,1.184-1.184h-3.19v-3.749Z" transform="translate(-515.9 -459.173)" fill="#413b32"/>
        <path id="Trazado_1021755" data-name="Trazado 1021755" d="M611.888,618.834v14.935a1.184,1.184,0,0,1-2.368,0V618.834a1.184,1.184,0,0,1,2.368,0Z" transform="translate(-570.626 -582.935)" fill="#413b32"/>
        <path id="Trazado_1021756" data-name="Trazado 1021756" d="M130.009,166.342v12.034a1.184,1.184,0,1,1-2.368,0V166.342a2.023,2.023,0,0,0-.926-1.7l-.047-.032-18.582-13.336a2.032,2.032,0,0,0-2.165,0L86.516,165.143l-.044.03a.222.222,0,0,0-.1.186v32.166a.719.719,0,0,0,.718.719h39.838a.719.719,0,0,0,.719-.719V184.493a1.184,1.184,0,0,1,2.368,0v13.032a3.091,3.091,0,0,1-3.087,3.087H87.086A3.09,3.09,0,0,1,84,197.525V165.359a2.581,2.581,0,0,1,1.156-2.155l19.413-13.875.046-.03a4.4,4.4,0,0,1,4.78,0l.047.032,18.586,13.337A4.383,4.383,0,0,1,130.009,166.342Z" transform="translate(-84 -148.594)" fill="#413b32"/>
        <path id="Trazado_1021757" data-name="Trazado 1021757" d="M185.609,407.124v9.552a1.184,1.184,0,1,1-2.368,0v-8.368h-31.7v29.419a1.184,1.184,0,1,1-2.368,0v-30.6a1.184,1.184,0,0,1,1.184-1.184h34.071A1.184,1.184,0,0,1,185.609,407.124Z" transform="translate(-144.347 -386.894)" fill="#413b32"/>
        <path id="Trazado_1021758" data-name="Trazado 1021758" d="M230.7,407.124a1.184,1.184,0,0,1-1.184,1.184h-25.87a1.184,1.184,0,0,1,0-2.368h25.87A1.184,1.184,0,0,1,230.7,407.124Z" transform="translate(-193.693 -386.894)" fill="#413b32"/>
        <path id="Trazado_1021759" data-name="Trazado 1021759" d="M232.3,331.274a1.184,1.184,0,0,1-1.184,1.184h-25.87a1.184,1.184,0,0,1,0-2.368h25.87A1.184,1.184,0,0,1,232.3,331.274Z" transform="translate(-195.174 -316.657)" fill="#413b32"/>
        <path id="Trazado_1021760" data-name="Trazado 1021760" d="M320.851,255.424a1.184,1.184,0,0,1-1.184,1.184H309.184a1.184,1.184,0,1,1,0-2.368h10.483A1.184,1.184,0,0,1,320.851,255.424Z" transform="translate(-291.422 -246.421)" fill="#413b32"/>
        <path id="Trazado_1021761" data-name="Trazado 1021761" d="M226.92,712.08h-7.946a1.184,1.184,0,0,0-1.184,1.184v7.946a1.184,1.184,0,0,0,1.184,1.184h7.946a1.184,1.184,0,0,0,1.184-1.184v-7.946A1.184,1.184,0,0,0,226.92,712.08Zm-1.184,7.946h-5.577v-5.577h5.577Z" transform="translate(-207.888 -670.376)" fill="#413b32"/>
        <path id="Trazado_1021762" data-name="Trazado 1021762" d="M329.123,712.08v1.184a1.184,1.184,0,0,0,1.184,1.184H333.1v-1.184a1.184,1.184,0,0,1,1.184-1.184Zm0,0v1.184a1.184,1.184,0,0,0,1.184,1.184H333.1v-1.184a1.184,1.184,0,0,1,1.184-1.184Zm5.157,0h-7.946a1.184,1.184,0,0,0-1.184,1.184v7.946a1.184,1.184,0,0,0,1.184,1.184h7.946a1.184,1.184,0,0,0,1.184-1.184v-7.946A1.184,1.184,0,0,0,334.28,712.08Zm-1.184,7.946h-5.577v-5.577H333.1Zm-3.973-7.946v1.184a1.184,1.184,0,0,0,1.184,1.184H333.1v-1.184a1.184,1.184,0,0,1,1.184-1.184Zm0,0v1.184a1.184,1.184,0,0,0,1.184,1.184H333.1v-1.184a1.184,1.184,0,0,1,1.184-1.184Z" transform="translate(-307.302 -670.376)" fill="#413b32"/>
        <path id="Trazado_1021763" data-name="Trazado 1021763" d="M441.639,712.08h-7.945a1.184,1.184,0,0,0-1.184,1.184v7.946a1.184,1.184,0,0,0,1.184,1.184h7.945a1.184,1.184,0,0,0,1.184-1.184v-7.946A1.184,1.184,0,0,0,441.639,712.08Zm-6.761,7.946v-5.577h5.577v5.577Z" transform="translate(-406.717 -670.376)" fill="#413b32"/>
        <path id="Trazado_1021764" data-name="Trazado 1021764" d="M334.28,497.37h-7.946a1.184,1.184,0,0,0-1.184,1.184V506.5a1.184,1.184,0,0,0,1.184,1.184h7.946a1.184,1.184,0,0,0,1.184-1.184v-7.945A1.184,1.184,0,0,0,334.28,497.37Zm-6.762,7.945v-5.577H333.1v5.577Z" transform="translate(-307.302 -471.557)" fill="#413b32"/>
        <path id="Trazado_1021765" data-name="Trazado 1021765" d="M280.6,604.72h-7.946a1.184,1.184,0,0,0-1.184,1.184v7.946a1.184,1.184,0,0,0,1.184,1.184H280.6a1.184,1.184,0,0,0,1.184-1.184V605.9A1.184,1.184,0,0,0,280.6,604.72Zm-1.184,7.946h-5.577v-5.577h5.577Zm1.184,2.368a1.184,1.184,0,0,1-1.184-1.184v-1.184h-2.789a1.184,1.184,0,0,1,1.184,1.184v1.184Z" transform="translate(-257.595 -570.962)" fill="#413b32"/>
        <path id="Trazado_1021766" data-name="Trazado 1021766" d="M378.83,607.088v5.577H381.2v-5.577Zm9.13-2.368h-7.946a1.184,1.184,0,0,0-1.184,1.184v7.946a1.184,1.184,0,0,0,1.184,1.184h7.946a1.184,1.184,0,0,0,1.184-1.184V605.9A1.184,1.184,0,0,0,387.96,604.72Zm-6.762,7.946v-5.577h5.577v5.577Zm-2.368-5.577v5.577H381.2v-5.577Z" transform="translate(-357.009 -570.962)" fill="#413b32"/>
      </g>
    </g>
  </g>
</svg>
