<svg xmlns="http://www.w3.org/2000/svg" xmlns:xlink="http://www.w3.org/1999/xlink" width="292" height="217" viewBox="0 0 292 217">
  <defs>
    <clipPath id="clip-path">
      <rect id="Rectángulo_457022" data-name="Rectángulo 457022" width="255.64" height="170.563" fill="none"/>
    </clipPath>
  </defs>
  <g id="Grupo_1180786" data-name="Grupo 1180786" transform="translate(-185.711 -11474)">
    <rect id="Rectángulo_456582" data-name="Rectángulo 456582" width="292" height="217" rx="10" transform="translate(185.711 11474)" fill="#eeadb6"/>
    <g id="Grupo_1180785" data-name="Grupo 1180785" transform="translate(203.891 11497.219)">
      <rect id="Rectángulo_457011" data-name="Rectángulo 457011" width="4.703" height="49.523" transform="translate(42.44 0.205)" fill="#fff"/>
      <g id="Grupo_1180784" data-name="Grupo 1180784">
        <g id="Grupo_1180783" data-name="Grupo 1180783" clip-path="url(#clip-path)">
          <path id="Trazado_1023719" data-name="Trazado 1023719" d="M458.056,49.934h-4.7a.2.2,0,0,1-.205-.2V.2a.2.2,0,0,1,.205-.2h4.7a.2.2,0,0,1,.205.2V49.729a.2.2,0,0,1-.205.2m-4.5-.41h4.293V.41h-4.293Z" transform="translate(-410.913)"/>
          <rect id="Rectángulo_457012" data-name="Rectángulo 457012" width="4.703" height="75.86" transform="translate(118.261 0.205)" fill="#fff"/>
          <path id="Trazado_1023720" data-name="Trazado 1023720" d="M1271.55,76.27h-4.7a.2.2,0,0,1-.205-.2V.2a.2.2,0,0,1,.205-.2h4.7a.2.2,0,0,1,.2.2v75.86a.2.2,0,0,1-.2.2m-4.5-.41h4.293V.41h-4.293Z" transform="translate(-1148.586)"/>
          <rect id="Rectángulo_457013" data-name="Rectángulo 457013" width="207.75" height="6.116" transform="translate(0.205 0.205)" fill="#fff"/>
          <path id="Trazado_1023721" data-name="Trazado 1023721" d="M207.955,6.527H.2A.2.2,0,0,1,0,6.321V.2A.2.2,0,0,1,.2,0H207.955a.2.2,0,0,1,.2.2V6.321a.2.2,0,0,1-.2.205M.41,6.117H207.75V.41H.41Z"/>
          <rect id="Rectángulo_457014" data-name="Rectángulo 457014" width="4.703" height="75.86" transform="translate(85.384 0.205)" fill="#fff"/>
          <path id="Trazado_1023722" data-name="Trazado 1023722" d="M918.808,76.27h-4.7a.2.2,0,0,1-.205-.2V.2a.2.2,0,0,1,.205-.2h4.7a.2.2,0,0,1,.205.2v75.86a.2.2,0,0,1-.205.2m-4.5-.41H918.6V.41H914.31Z" transform="translate(-828.721)"/>
          <path id="Trazado_1023723" data-name="Trazado 1023723" d="M992.447,90.113H964.561a.2.2,0,1,1,0-.41h27.391L964.416,62.167a.2.2,0,1,1,.29-.29l27.886,27.886a.2.2,0,0,1-.145.35" transform="translate(-874.474 -56.055)"/>
          <rect id="Rectángulo_457015" data-name="Rectángulo 457015" width="4.703" height="49.523" transform="translate(9.563 0.205)" fill="#fff"/>
          <path id="Trazado_1023724" data-name="Trazado 1023724" d="M105.315,49.934h-4.7a.2.2,0,0,1-.2-.2V.2a.2.2,0,0,1,.2-.2h4.7a.2.2,0,0,1,.205.2V49.729a.2.2,0,0,1-.205.2m-4.5-.41h4.293V.41h-4.293Z" transform="translate(-91.049)"/>
          <path id="Trazado_1023725" data-name="Trazado 1023725" d="M178.954,90.113H151.068a.2.2,0,0,1,0-.41h27.391L150.923,62.167a.205.205,0,1,1,.29-.29L179.1,89.763a.2.2,0,0,1-.145.35" transform="translate(-136.802 -56.055)"/>
          <path id="Trazado_1023726" data-name="Trazado 1023726" d="M77.47,643.673H65.553a.2.2,0,0,1-.2-.2V531.55a.2.2,0,0,1,.2-.205h54.035a.205.205,0,0,1,0,.41H65.758V643.263H77.47a.2.2,0,0,1,0,.41" transform="translate(-59.257 -481.821)"/>
          <rect id="Rectángulo_457016" data-name="Rectángulo 457016" width="63.054" height="38.658" transform="translate(113.48 41.499)" fill="#5479f7"/>
          <path id="Trazado_1023727" data-name="Trazado 1023727" d="M1308.291,505.225h-56.252a.2.2,0,0,1-.2-.205V471.656a.2.2,0,0,1,.2-.205h56.252a.2.2,0,0,1,.2.205V505.02a.2.2,0,0,1-.2.205m-56.047-.41h55.842V471.861h-55.842Z" transform="translate(-1135.158 -427.51)"/>
          <path id="Trazado_1023728" data-name="Trazado 1023728" d="M1326.179,547.681a.2.2,0,0,1-.205-.205V523.839a.205.205,0,0,1,.41,0v23.637a.2.2,0,0,1-.2.205" transform="translate(-1202.388 -474.829)"/>
          <path id="Trazado_1023729" data-name="Trazado 1023729" d="M1417.23,547.681a.205.205,0,0,1-.2-.205V523.839a.2.2,0,1,1,.41,0v23.637a.2.2,0,0,1-.2.205" transform="translate(-1284.953 -474.829)"/>
          <path id="Trazado_1023730" data-name="Trazado 1023730" d="M1508.281,547.681a.2.2,0,0,1-.205-.205V523.839a.2.2,0,1,1,.41,0v23.637a.2.2,0,0,1-.2.205" transform="translate(-1367.517 -474.829)"/>
          <path id="Trazado_1023731" data-name="Trazado 1023731" d="M1599.33,547.681a.205.205,0,0,1-.205-.205V523.839a.205.205,0,1,1,.41,0v23.637a.2.2,0,0,1-.2.205" transform="translate(-1450.08 -474.829)"/>
          <path id="Trazado_1023732" data-name="Trazado 1023732" d="M1690.381,547.681a.2.2,0,0,1-.2-.205V523.839a.205.205,0,0,1,.41,0v23.637a.205.205,0,0,1-.205.205" transform="translate(-1532.645 -474.829)"/>
          <path id="Trazado_1023733" data-name="Trazado 1023733" d="M1781.429,547.681a.2.2,0,0,1-.205-.205V523.839a.2.2,0,1,1,.41,0v23.637a.2.2,0,0,1-.2.205" transform="translate(-1615.207 -474.829)"/>
          <rect id="Rectángulo_457017" data-name="Rectángulo 457017" width="63.054" height="38.658" transform="translate(179.286 41.499)" fill="#5479f7"/>
          <path id="Trazado_1023734" data-name="Trazado 1023734" d="M2014.341,505.225h-56.252a.2.2,0,0,1-.2-.205V471.656a.2.2,0,0,1,.2-.205h56.252a.2.2,0,0,1,.2.205V505.02a.2.2,0,0,1-.2.205m-56.047-.41h55.842V471.861h-55.842Z" transform="translate(-1775.401 -427.51)"/>
          <path id="Trazado_1023735" data-name="Trazado 1023735" d="M2032.228,547.681a.2.2,0,0,1-.2-.205V523.839a.205.205,0,1,1,.41,0v23.637a.205.205,0,0,1-.205.205" transform="translate(-1842.63 -474.829)"/>
          <path id="Trazado_1023736" data-name="Trazado 1023736" d="M2123.278,547.681a.2.2,0,0,1-.2-.205V523.839a.205.205,0,0,1,.41,0v23.637a.205.205,0,0,1-.205.205" transform="translate(-1925.194 -474.829)"/>
          <path id="Trazado_1023737" data-name="Trazado 1023737" d="M2214.329,547.681a.2.2,0,0,1-.2-.205V523.839a.205.205,0,0,1,.41,0v23.637a.205.205,0,0,1-.205.205" transform="translate(-2007.759 -474.829)"/>
          <path id="Trazado_1023738" data-name="Trazado 1023738" d="M2305.379,547.681a.2.2,0,0,1-.2-.205V523.839a.2.2,0,1,1,.41,0v23.637a.205.205,0,0,1-.205.205" transform="translate(-2090.323 -474.829)"/>
          <path id="Trazado_1023739" data-name="Trazado 1023739" d="M2396.429,547.681a.205.205,0,0,1-.205-.205V523.839a.205.205,0,0,1,.41,0v23.637a.205.205,0,0,1-.205.205" transform="translate(-2172.886 -474.829)"/>
          <path id="Trazado_1023740" data-name="Trazado 1023740" d="M2487.479,547.681a.205.205,0,0,1-.205-.205V523.839a.2.2,0,1,1,.41,0v23.637a.2.2,0,0,1-.2.205" transform="translate(-2255.45 -474.829)"/>
          <path id="Trazado_1023741" data-name="Trazado 1023741" d="M884.058,628.62h70.4l12.906-25.47,89.731-.464-27.308,61.241H884.058Z" transform="translate(-801.66 -546.513)" fill="#fff"/>
          <path id="Trazado_1023742" data-name="Trazado 1023742" d="M1027.793,662.136H882.064a.205.205,0,0,1-.205-.205V626.625a.2.2,0,0,1,.205-.2h70.274l.931-1.838a.2.2,0,0,1,.365.185l-.988,1.95a.2.2,0,0,1-.183.112H882.269v34.9H1027.66l27.125-60.83-12.841.066h0a.2.2,0,0,1,0-.41l13.158-.068h0a.205.205,0,0,1,.187.289l-27.308,61.241a.2.2,0,0,1-.187.122" transform="translate(-799.666 -544.517)"/>
          <rect id="Rectángulo_457018" data-name="Rectángulo 457018" width="123.826" height="49.668" transform="translate(84.345 108.254)" fill="#5479f7"/>
          <path id="Trazado_1023743" data-name="Trazado 1023743" d="M1010.51,1281.694a.2.2,0,0,1-.205-.205V1248.4a.205.205,0,1,1,.41,0v33.092a.2.2,0,0,1-.205.205" transform="translate(-916.14 -1131.855)"/>
          <path id="Trazado_1023744" data-name="Trazado 1023744" d="M1111.732,1281.694a.2.2,0,0,1-.2-.205V1248.4a.205.205,0,1,1,.41,0v33.092a.2.2,0,0,1-.205.205" transform="translate(-1007.928 -1131.855)"/>
          <path id="Trazado_1023745" data-name="Trazado 1023745" d="M1212.951,1281.694a.205.205,0,0,1-.205-.205V1248.4a.205.205,0,1,1,.41,0v33.092a.2.2,0,0,1-.2.205" transform="translate(-1099.713 -1131.855)"/>
          <path id="Trazado_1023746" data-name="Trazado 1023746" d="M1314.173,1281.694a.2.2,0,0,1-.2-.205V1248.4a.205.205,0,1,1,.41,0v33.092a.2.2,0,0,1-.205.205" transform="translate(-1191.501 -1131.855)"/>
          <path id="Trazado_1023747" data-name="Trazado 1023747" d="M1415.391,1281.694a.2.2,0,0,1-.205-.205V1248.4a.205.205,0,1,1,.41,0v33.092a.2.2,0,0,1-.2.205" transform="translate(-1283.285 -1131.855)"/>
          <path id="Trazado_1023748" data-name="Trazado 1023748" d="M1516.612,1281.694a.2.2,0,0,1-.205-.205V1248.4a.205.205,0,1,1,.41,0v33.092a.2.2,0,0,1-.2.205" transform="translate(-1375.072 -1131.855)"/>
          <path id="Trazado_1023749" data-name="Trazado 1023749" d="M1617.833,1281.694a.2.2,0,0,1-.205-.205V1248.4a.205.205,0,0,1,.41,0v33.092a.2.2,0,0,1-.205.205" transform="translate(-1466.859 -1131.855)"/>
          <path id="Trazado_1023750" data-name="Trazado 1023750" d="M1719.051,1281.694a.2.2,0,0,1-.205-.205V1248.4a.205.205,0,1,1,.41,0v33.092a.2.2,0,0,1-.2.205" transform="translate(-1558.642 -1131.855)"/>
          <path id="Trazado_1023751" data-name="Trazado 1023751" d="M1820.272,1281.694a.2.2,0,0,1-.2-.205V1248.4a.2.2,0,1,1,.41,0v33.092a.2.2,0,0,1-.205.205" transform="translate(-1650.43 -1131.855)"/>
          <path id="Trazado_1023752" data-name="Trazado 1023752" d="M1921.493,1281.694a.2.2,0,0,1-.205-.205V1248.4a.205.205,0,0,1,.41,0v33.092a.2.2,0,0,1-.205.205" transform="translate(-1742.216 -1131.855)"/>
          <path id="Trazado_1023753" data-name="Trazado 1023753" d="M2022.715,1281.694a.2.2,0,0,1-.2-.205V1248.4a.2.2,0,1,1,.41,0v33.092a.2.2,0,0,1-.2.205" transform="translate(-1834.004 -1131.855)"/>
          <path id="Trazado_1023754" data-name="Trazado 1023754" d="M2123.935,1281.694a.2.2,0,0,1-.2-.205V1248.4a.205.205,0,1,1,.41,0v33.092a.205.205,0,0,1-.205.205" transform="translate(-1925.79 -1131.855)"/>
          <path id="Trazado_1023755" data-name="Trazado 1023755" d="M1085.347,1734.252H915.418a.205.205,0,0,1,0-.41h169.929a.205.205,0,1,1,0,.41" transform="translate(-829.911 -1572.241)"/>
          <path id="Trazado_1023756" data-name="Trazado 1023756" d="M2275.934,1374.08h43.309v-10.4l-8.609-3.208-4.706-7.22-1.37-2.1c-9.284-5.512-15.751-8.626-28.623-9.994Z" transform="translate(-2063.808 -1216.158)" fill="#fff"/>
          <path id="Trazado_1023757" data-name="Trazado 1023757" d="M2317.25,1372.29h-43.309a.2.2,0,0,1-.205-.2v-32.92a.205.205,0,0,1,.227-.2c13.4,1.423,20.067,4.892,28.706,10.021a.21.21,0,0,1,.067.064l6.04,9.265,8.546,3.184a.205.205,0,0,1,.133.192v10.4a.2.2,0,0,1-.2.2m-43.1-.41h42.9v-10.051l-8.476-3.158a.206.206,0,0,1-.1-.08l-6.051-9.281c-8.524-5.059-15.125-8.49-28.272-9.917Z" transform="translate(-2061.815 -1214.163)"/>
          <path id="Trazado_1023758" data-name="Trazado 1023758" d="M2302.564,1446.59h-28.623a.205.205,0,1,1,0-.41h28.623a.205.205,0,1,1,0,.41" transform="translate(-2061.815 -1311.39)"/>
          <path id="Trazado_1023759" data-name="Trazado 1023759" d="M2717.456,1597.758a.2.2,0,0,1-.2-.2v-9.746a.2.2,0,1,1,.41,0v9.746a.2.2,0,0,1-.205.2" transform="translate(-2463.992 -1439.631)"/>
          <path id="Trazado_1023760" data-name="Trazado 1023760" d="M2467.648,1476.3h-16.27a.2.2,0,0,1-.2-.2v-7.159a.2.2,0,1,1,.41,0v6.954h16.065a.205.205,0,1,1,0,.41" transform="translate(-2222.714 -1331.836)"/>
          <rect id="Rectángulo_457019" data-name="Rectángulo 457019" width="9.159" height="7.159" transform="translate(214.945 137.096)" fill="#e2eaff"/>
          <path id="Trazado_1023761" data-name="Trazado 1023761" d="M2505.252,1652.833a8.552,8.552,0,1,1-8.552-8.552,8.552,8.552,0,0,1,8.552,8.552" transform="translate(-2256.242 -1491.027)" fill="#fff"/>
          <path id="Trazado_1023762" data-name="Trazado 1023762" d="M2494.705,1659.6a8.757,8.757,0,1,1,8.757-8.757,8.767,8.767,0,0,1-8.757,8.757m0-17.1a8.347,8.347,0,1,0,8.347,8.348,8.357,8.357,0,0,0-8.347-8.348" transform="translate(-2254.248 -1489.032)"/>
          <path id="Trazado_1023763" data-name="Trazado 1023763" d="M2549.718,1702.393a3.458,3.458,0,1,1-3.458-3.458,3.458,3.458,0,0,1,3.458,3.458" transform="translate(-2305.802 -1540.588)" fill="#e2eaff"/>
          <path id="Trazado_1023764" data-name="Trazado 1023764" d="M2067.074,1652.833a8.552,8.552,0,1,1-8.552-8.552,8.552,8.552,0,0,1,8.552,8.552" transform="translate(-1858.904 -1491.027)" fill="#fff"/>
          <path id="Trazado_1023765" data-name="Trazado 1023765" d="M2056.527,1705a8.767,8.767,0,0,1-8.757-8.757,8.666,8.666,0,0,1,.953-3.979.205.205,0,1,1,.365.187,8.253,8.253,0,0,0-.909,3.792,8.347,8.347,0,0,0,16.695,0,8.254,8.254,0,0,0-.909-3.793.2.2,0,1,1,.365-.187,8.663,8.663,0,0,1,.954,3.979,8.767,8.767,0,0,1-8.758,8.757" transform="translate(-1856.91 -1534.433)"/>
          <path id="Trazado_1023766" data-name="Trazado 1023766" d="M2111.539,1702.393a3.458,3.458,0,1,1-3.458-3.458,3.458,3.458,0,0,1,3.458,3.458" transform="translate(-1908.463 -1540.588)" fill="#e2eaff"/>
          <path id="Trazado_1023767" data-name="Trazado 1023767" d="M1862.663,1652.833a8.552,8.552,0,1,1-8.552-8.552,8.552,8.552,0,0,1,8.552,8.552" transform="translate(-1673.545 -1491.027)" fill="#fff"/>
          <path id="Trazado_1023768" data-name="Trazado 1023768" d="M1852.116,1705.007a8.767,8.767,0,0,1-8.757-8.757,8.664,8.664,0,0,1,.954-3.979.205.205,0,0,1,.365.187,8.256,8.256,0,0,0-.909,3.792,8.347,8.347,0,0,0,16.695,0,8.254,8.254,0,0,0-.909-3.792.205.205,0,0,1,.365-.187,8.662,8.662,0,0,1,.954,3.979,8.767,8.767,0,0,1-8.757,8.757" transform="translate(-1671.55 -1534.443)"/>
          <path id="Trazado_1023769" data-name="Trazado 1023769" d="M1907.129,1702.393a3.458,3.458,0,1,1-3.458-3.458,3.458,3.458,0,0,1,3.458,3.458" transform="translate(-1723.105 -1540.588)" fill="#e2eaff"/>
          <path id="Trazado_1023770" data-name="Trazado 1023770" d="M1195.8,1652.833a8.552,8.552,0,1,1-8.552-8.552,8.552,8.552,0,0,1,8.552,8.552" transform="translate(-1068.836 -1491.027)" fill="#fff"/>
          <path id="Trazado_1023771" data-name="Trazado 1023771" d="M1185.253,1705a8.767,8.767,0,0,1-8.757-8.757,8.664,8.664,0,0,1,.954-3.979.205.205,0,1,1,.365.187,8.255,8.255,0,0,0-.909,3.792,8.347,8.347,0,0,0,16.695,0,8.254,8.254,0,0,0-.91-3.793.205.205,0,0,1,.365-.187,8.664,8.664,0,0,1,.954,3.979,8.767,8.767,0,0,1-8.758,8.757" transform="translate(-1066.842 -1534.433)"/>
          <path id="Trazado_1023772" data-name="Trazado 1023772" d="M1240.265,1702.393a3.458,3.458,0,1,1-3.458-3.458,3.458,3.458,0,0,1,3.458,3.458" transform="translate(-1118.395 -1540.588)" fill="#e2eaff"/>
          <path id="Trazado_1023773" data-name="Trazado 1023773" d="M991.39,1652.833a8.552,8.552,0,1,1-8.552-8.552,8.552,8.552,0,0,1,8.552,8.552" transform="translate(-883.478 -1491.027)" fill="#fff"/>
          <path id="Trazado_1023774" data-name="Trazado 1023774" d="M980.842,1705.007a8.767,8.767,0,0,1-8.758-8.757,8.664,8.664,0,0,1,.954-3.979.205.205,0,0,1,.365.187,8.254,8.254,0,0,0-.909,3.792,8.347,8.347,0,0,0,16.695,0,8.257,8.257,0,0,0-.909-3.792.205.205,0,0,1,.365-.187,8.666,8.666,0,0,1,.954,3.979,8.767,8.767,0,0,1-8.757,8.757" transform="translate(-881.482 -1534.443)"/>
          <path id="Trazado_1023775" data-name="Trazado 1023775" d="M1035.856,1702.393a3.458,3.458,0,1,1-3.458-3.458,3.458,3.458,0,0,1,3.458,3.458" transform="translate(-933.038 -1540.588)" fill="#e2eaff"/>
          <rect id="Rectángulo_457020" data-name="Rectángulo 457020" width="73.153" height="29.343" transform="translate(157.445 9.816)" fill="#5479f7"/>
          <path id="Trazado_1023776" data-name="Trazado 1023776" d="M1750.8,175.617a.205.205,0,0,1-.205-.2v-19.55a.205.205,0,0,1,.41,0v19.55a.2.2,0,0,1-.2.2" transform="translate(-1587.435 -141.149)"/>
          <path id="Trazado_1023777" data-name="Trazado 1023777" d="M1810.6,175.617a.2.2,0,0,1-.2-.2v-19.55a.2.2,0,0,1,.41,0v19.55a.2.2,0,0,1-.2.2" transform="translate(-1641.66 -141.149)"/>
          <path id="Trazado_1023778" data-name="Trazado 1023778" d="M1870.4,175.617a.2.2,0,0,1-.2-.2v-19.55a.2.2,0,1,1,.41,0v19.55a.2.2,0,0,1-.2.2" transform="translate(-1695.885 -141.149)"/>
          <path id="Trazado_1023779" data-name="Trazado 1023779" d="M1930.2,175.617a.2.2,0,0,1-.2-.2v-19.55a.205.205,0,0,1,.41,0v19.55a.2.2,0,0,1-.205.2" transform="translate(-1750.11 -141.149)"/>
          <path id="Trazado_1023780" data-name="Trazado 1023780" d="M1990,175.617a.2.2,0,0,1-.2-.2v-19.55a.205.205,0,0,1,.41,0v19.55a.205.205,0,0,1-.205.2" transform="translate(-1804.335 -141.149)"/>
          <path id="Trazado_1023781" data-name="Trazado 1023781" d="M2049.794,175.617a.2.2,0,0,1-.2-.2v-19.55a.2.2,0,1,1,.41,0v19.55a.2.2,0,0,1-.205.2" transform="translate(-1858.559 -141.149)"/>
          <path id="Trazado_1023782" data-name="Trazado 1023782" d="M2109.593,175.617a.2.2,0,0,1-.2-.2v-19.55a.2.2,0,1,1,.41,0v19.55a.2.2,0,0,1-.205.2" transform="translate(-1912.785 -141.149)"/>
          <path id="Trazado_1023783" data-name="Trazado 1023783" d="M2169.391,175.617a.2.2,0,0,1-.205-.2v-19.55a.2.2,0,1,1,.41,0v19.55a.2.2,0,0,1-.2.2" transform="translate(-1967.009 -141.149)"/>
          <path id="Trazado_1023784" data-name="Trazado 1023784" d="M2229.19,175.617a.2.2,0,0,1-.205-.2v-19.55a.2.2,0,1,1,.41,0v19.55a.2.2,0,0,1-.2.2" transform="translate(-2021.235 -141.149)"/>
          <path id="Trazado_1023785" data-name="Trazado 1023785" d="M2288.987,175.617a.2.2,0,0,1-.2-.2v-19.55a.205.205,0,0,1,.41,0v19.55a.205.205,0,0,1-.205.2" transform="translate(-2075.458 -141.149)"/>
          <path id="Trazado_1023786" data-name="Trazado 1023786" d="M2348.785,175.617a.2.2,0,0,1-.205-.2v-19.55a.2.2,0,1,1,.41,0v19.55a.2.2,0,0,1-.2.2" transform="translate(-2129.683 -141.149)"/>
          <path id="Trazado_1023787" data-name="Trazado 1023787" d="M2408.583,175.617a.2.2,0,0,1-.205-.2v-19.55a.2.2,0,1,1,.41,0v19.55a.2.2,0,0,1-.2.2" transform="translate(-2183.907 -141.149)"/>
          <path id="Trazado_1023788" data-name="Trazado 1023788" d="M34.686,816.2S4.273,815.15,4.119,794.082C3.964,772.919,18.09,750.254,36.76,744.9s11.272,28.2,11.272,28.2l-14.724,5.885-6.656,11.8,19.783,8.485Z" transform="translate(-3.734 -674.944)" fill="#fff"/>
          <path id="Trazado_1023789" data-name="Trazado 1023789" d="M32.691,814.434h-.007a54.185,54.185,0,0,1-15.292-3.173,27.859,27.859,0,0,1-10.577-6.667,17.861,17.861,0,0,1-4.9-12.483,56.225,56.225,0,0,1,9.294-30.633c6.2-9.523,14.542-16.182,23.5-18.751,3.868-1.11,6.929-.639,9.1,1.4,2.894,2.718,4.18,8.1,3.824,16a73.487,73.487,0,0,1-1.395,11.042.2.2,0,0,1-.124.146l-14.657,5.858-6.509,11.535,19.574,8.4a.205.205,0,0,1,.087.305L32.859,814.346a.2.2,0,0,1-.168.088m5.788-71.881a13.332,13.332,0,0,0-3.658.568c-18.076,5.187-32.652,27.163-32.493,48.987.063,8.644,5.181,14.959,15.21,18.77a53.851,53.851,0,0,0,15.049,3.141l11.541-16.635L24.575,789a.2.2,0,0,1-.1-.289l6.656-11.8a.206.206,0,0,1,.1-.09l14.622-5.844c.334-1.593,4.119-20.493-2.333-26.553a7.093,7.093,0,0,0-5.047-1.871" transform="translate(-1.738 -672.971)" fill="#5479f7"/>
          <path id="Trazado_1023790" data-name="Trazado 1023790" d="M207.87,1246.5a.2.2,0,0,1-.107-.03.2.2,0,0,1-.067-.282l3.358-5.447a.205.205,0,0,1,.349.215l-3.358,5.447a.205.205,0,0,1-.175.1" transform="translate(-188.31 -1125.01)" fill="#5479f7"/>
          <path id="Trazado_1023791" data-name="Trazado 1023791" d="M103.787,1021.313a.2.2,0,0,1-.129-.046l-17.624-14.339a.2.2,0,0,1,.259-.318l17.624,14.339a.205.205,0,0,1-.13.364" transform="translate(-77.947 -912.748)" fill="#5479f7"/>
          <path id="Trazado_1023792" data-name="Trazado 1023792" d="M72.147,1098.236a.2.2,0,0,1-.129-.046l-17.624-14.339a.2.2,0,0,1,.259-.318l17.624,14.339a.2.2,0,0,1-.13.364" transform="translate(-49.256 -982.502)" fill="#5479f7"/>
          <path id="Trazado_1023793" data-name="Trazado 1023793" d="M278.785,1409.764V1376.4H228l-13.32,33.36Z" transform="translate(-194.668 -1248.118)" fill="#fff"/>
          <path id="Trazado_1023794" data-name="Trazado 1023794" d="M212.68,1407.976a.2.2,0,0,1-.076-.015.2.2,0,0,1-.114-.266l13.32-33.36a.2.2,0,0,1,.19-.129h50.789a.2.2,0,0,1,.205.2v33.36a.205.205,0,0,1-.41,0v-33.155H226.139l-13.268,33.231a.205.205,0,0,1-.19.129" transform="translate(-192.672 -1246.125)" fill="#5479f7"/>
          <path id="Trazado_1023795" data-name="Trazado 1023795" d="M510.667,1639.946a.2.2,0,0,1-.205-.2v-7.867c-1.544-.574-3.809-1.4-4.066-1.448a.2.2,0,0,1,.076-.4c.384.073,3.87,1.369,4.267,1.516a.206.206,0,0,1,.134.192v8.01a.2.2,0,0,1-.205.2" transform="translate(-459.046 -1478.095)" fill="#5479f7"/>
          <path id="Trazado_1023796" data-name="Trazado 1023796" d="M561.158,495.77l4.762-13.384s-2.146-6.1,1.61-9.1,9.872-1.071,9.872-1.071,4.883,7.763,6.009,13.063c.824,3.878-.966,6.406-8.8,6.737l-1.5,3.757Z" transform="translate(-508.856 -427.649)" fill="#fff"/>
          <path id="Trazado_1023797" data-name="Trazado 1023797" d="M571.115,493.887H559.164a.2.2,0,0,1-.193-.274l4.738-13.318c-.225-.7-1.906-6.382,1.7-9.259,3.8-3.031,9.808-1.186,10.062-1.106a.205.205,0,0,1,.112.086c.049.078,4.915,7.855,6.036,13.129a5,5,0,0,1-.657,4.3c-1.244,1.6-3.927,2.48-8.2,2.675l-1.453,3.634a.2.2,0,0,1-.19.129m-11.661-.41h11.522l1.451-3.628a.2.2,0,0,1,.182-.129c4.223-.178,6.849-1,8.028-2.523a4.62,4.62,0,0,0,.58-3.966c-1.052-4.948-5.469-12.169-5.941-12.931-.691-.2-6.2-1.666-9.612,1.056-3.6,2.874-1.565,8.813-1.544,8.873a.205.205,0,0,1,0,.137Z" transform="translate(-506.862 -425.56)"/>
          <path id="Trazado_1023798" data-name="Trazado 1023798" d="M707.167,618.624a.2.2,0,0,1-.2-.267l1.986-6.256a.205.205,0,0,1,.391.124l-1.987,6.256a.2.2,0,0,1-.2.143" transform="translate(-641.07 -554.921)"/>
          <path id="Trazado_1023799" data-name="Trazado 1023799" d="M511.24,376.9c-3.156-2.4-2.691-1.582-6.6-.562a12.39,12.39,0,0,0-8.945,9.708c-.735,3.793,3.9,19.113,14.37,13.264.836-.467,1.607-.938,1.289-1.793-.039-.106-.069-.215-.1-.323a6.239,6.239,0,0,1-1.19-1.368,7.92,7.92,0,0,1-1.253-3.587,3.742,3.742,0,0,1,.949-3.1,2.822,2.822,0,0,1,2.747-.595,3.3,3.3,0,0,1,.864.415c3.148,5.48,1.912-3.036,3.249-3.494,3.618-1.238.1-3.436.155-4.953.009-.254-.042.554-5.531-3.612" transform="translate(-449.425 -340.355)"/>
          <path id="Trazado_1023800" data-name="Trazado 1023800" d="M668.136,601.072a2.293,2.293,0,0,1-1.2-.336.2.2,0,0,1,.215-.349,1.863,1.863,0,0,0,2.8-1.184.2.2,0,0,1,.4.087,2.3,2.3,0,0,1-1.333,1.6,2.263,2.263,0,0,1-.881.176" transform="translate(-604.685 -543.209)"/>
          <path id="Trazado_1023801" data-name="Trazado 1023801" d="M675.285,561.147a.205.205,0,0,1-.177-.1,4.372,4.372,0,0,0-1.844-1.7.2.2,0,0,1,.179-.369,4.785,4.785,0,0,1,2.019,1.864.205.205,0,0,1-.177.309" transform="translate(-610.408 -506.857)"/>
          <path id="Trazado_1023802" data-name="Trazado 1023802" d="M503.562,356.547c-.442-.8-5.491-.747-5.491-.747-2.368-3.306-8.251-7.858-16.6-2.876-11.408,6.811-3.573,17.667-3.573,17.667l21.3-11.373Z" transform="translate(-430.981 -318.029)" fill="#5479f7"/>
          <path id="Trazado_1023803" data-name="Trazado 1023803" d="M536.938,511.783a.205.205,0,0,1-.1-.382l1.863-1.088a14.763,14.763,0,0,0,6.69-8.453l.208-.68a.2.2,0,1,1,.392.12l-.208.68a15.171,15.171,0,0,1-6.875,8.687l-1.863,1.088a.2.2,0,0,1-.1.028" transform="translate(-486.707 -454.336)" fill="#fff"/>
          <path id="Trazado_1023804" data-name="Trazado 1023804" d="M866.626,520.277H851.855l8.124-30H874.75Z" transform="translate(-772.459 -444.583)"/>
          <path id="Trazado_1023805" data-name="Trazado 1023805" d="M936.495,523.856h-10.5l2.758-10.184h10.5Z" transform="translate(-839.686 -465.795)" fill="#5479f7"/>
          <path id="Trazado_1023806" data-name="Trazado 1023806" d="M1065.813,439.2a.2.2,0,0,1-.2-.259l1.223-4.516a.2.2,0,1,1,.4.107l-1.223,4.516a.2.2,0,0,1-.2.151" transform="translate(-966.289 -393.802)"/>
          <path id="Trazado_1023807" data-name="Trazado 1023807" d="M851.978,554.323,848.5,553.1a1.784,1.784,0,0,0-1,3.319l-.672-.056a5.793,5.793,0,0,1-2.351,5.1,1.783,1.783,0,0,0,1.17,1.762,1.735,1.735,0,0,0-1.287,1.694,4.012,4.012,0,0,0,.835,2.44c.539.815,1.8,2.391,1.8,2.391l.489-2.018,2.578.5a1.649,1.649,0,0,0,1.546-1.713,1.781,1.781,0,0,0-.927-1.746l.853.072a5.793,5.793,0,0,1,2.351-5.1,1.785,1.785,0,0,1-.2-3.539c.05-.987-.4-1.376-1.7-1.878" transform="translate(-765.654 -501.544)" fill="#fff"/>
          <path id="Trazado_1023808" data-name="Trazado 1023808" d="M844.993,567.953a.205.205,0,0,1-.16-.077c-.052-.065-1.27-1.592-1.807-2.406l-.028-.042a4.158,4.158,0,0,1-.841-2.524,2.1,2.1,0,0,1,.983-1.714,1.975,1.975,0,0,1-.866-1.739,2,2,0,0,1,1.226-1.739,1.993,1.993,0,0,1,1.339-3.552l.044,0a1.99,1.99,0,0,1,1.627-3.266.208.208,0,0,1,.058.011l3.482,1.226.006,0c1.284.5,1.885.937,1.826,2.079a1.981,1.981,0,0,1-.982,1.616,1.991,1.991,0,0,1-.04,3.661,1.993,1.993,0,0,1-1.339,3.552l-.179-.015a2.173,2.173,0,0,1,.468,1.495,2.206,2.206,0,0,1-.543,1.369,1.539,1.539,0,0,1-1.218.539l-.028,0-2.386-.461-.443,1.827a.205.205,0,0,1-.155.152.208.208,0,0,1-.044,0m-.261-13.386a1.582,1.582,0,0,0-.637,3.028.205.205,0,0,1-.055.39,1.578,1.578,0,0,0-.321,3.045.205.205,0,0,1-.037.395,1.538,1.538,0,0,0-1.117,1.5,3.738,3.738,0,0,0,.774,2.272l.028.042c.379.574,1.129,1.541,1.526,2.047l.39-1.609a.2.2,0,0,1,.238-.153l2.564.5a1.116,1.116,0,0,0,.879-.4,1.8,1.8,0,0,0,.438-1.115,1.576,1.576,0,0,0-.807-1.549.2.2,0,0,1,.1-.391l.853.072a1.584,1.584,0,0,0,1.656-1.5,1.572,1.572,0,0,0-.939-1.524.205.205,0,0,1,.055-.39,1.582,1.582,0,0,0-.121-3.145.2.2,0,0,1-.023-.406,1.575,1.575,0,0,0,1.3-1.474c.043-.832-.279-1.177-1.562-1.675l-3.45-1.215a1.578,1.578,0,0,0-.856,2.939.2.2,0,0,1-.122.38l-.672-.056-.08,0" transform="translate(-763.659 -499.55)"/>
          <path id="Trazado_1023809" data-name="Trazado 1023809" d="M880.249,588.693c.077.021,4.621,1.448,4.621,1.448Z" transform="translate(-798.206 -533.824)" fill="#fff"/>
          <path id="Trazado_1023810" data-name="Trazado 1023810" d="M882.885,588.349a.2.2,0,0,1-.061-.009c-1.555-.489-4.521-1.42-4.615-1.446a.2.2,0,0,1,.109-.4c.078.021,4.164,1.3,4.629,1.45a.205.205,0,0,1-.061.4" transform="translate(-796.221 -531.827)"/>
          <path id="Trazado_1023811" data-name="Trazado 1023811" d="M867.169,626.617l-6.469-1.622Z" transform="translate(-780.479 -566.743)" fill="#fff"/>
          <path id="Trazado_1023812" data-name="Trazado 1023812" d="M865.174,624.83a.205.205,0,0,1-.05-.006l-6.469-1.622a.2.2,0,0,1,.1-.4l6.469,1.622a.2.2,0,0,1-.05.4" transform="translate(-778.484 -564.75)"/>
          <path id="Trazado_1023813" data-name="Trazado 1023813" d="M862.424,663.1c-.073.055-5.116-1.562-5.116-1.562Z" transform="translate(-777.403 -599.88)" fill="#fff"/>
          <path id="Trazado_1023814" data-name="Trazado 1023814" d="M860.453,661.3a45.33,45.33,0,0,1-5.2-1.562.205.205,0,1,1,.125-.391c1.8.577,4.728,1.5,5.045,1.553a.2.2,0,0,1,.171.081.2.2,0,0,1-.039.287.134.134,0,0,1-.1.032" transform="translate(-775.408 -597.887)"/>
          <path id="Trazado_1023815" data-name="Trazado 1023815" d="M996.118,627.829l7.954-7.033-4.38-6.187.2-9.143a3.97,3.97,0,0,0-.3-1.611l-1.49-3.584a1.339,1.339,0,0,0-2.449-.055c-.674,1.44-1.009,3.636.47,6.58,0,0-4.844,8.634-4.958,13.1s4.958,7.931,4.958,7.931" transform="translate(-898.778 -543.576)" fill="#fff"/>
          <path id="Trazado_1023816" data-name="Trazado 1023816" d="M994.122,626.04a.2.2,0,0,1-.115-.036c-.211-.144-5.163-3.578-5.048-8.1.109-4.267,4.376-12.1,4.932-13.1-1.5-3.048-1.061-5.3-.424-6.662a1.524,1.524,0,0,1,1.4-.889h.036a1.526,1.526,0,0,1,1.392.951l1.49,3.584a4.151,4.151,0,0,1,.319,1.694l-.2,9.075,4.341,6.132a.2.2,0,0,1-.032.272l-7.954,7.033a.2.2,0,0,1-.136.051m.74-28.383a1.119,1.119,0,0,0-1.025.652c-.605,1.292-1.015,3.451.468,6.4a.2.2,0,0,1,0,.192c-.048.086-4.821,8.641-4.932,13.006-.1,3.911,3.958,7.089,4.74,7.663l7.693-6.8-4.273-6.037a.2.2,0,0,1-.038-.123l.2-9.143a3.742,3.742,0,0,0-.288-1.528l-1.49-3.584a1.121,1.121,0,0,0-1.022-.7h-.026" transform="translate(-896.782 -541.581)"/>
          <path id="Trazado_1023817" data-name="Trazado 1023817" d="M272.4,718.228a79.27,79.27,0,0,1,25.624-4.364c7.285.085,15.863.077,22.125.052a17.4,17.4,0,0,1,14,6.974l6.392,8.542,7.617-6.624s21.232,29.833,3.036,43.079c0,0-6.191,6.356-19.722-.376l-.406,9.437a6.088,6.088,0,0,1-6.043,5.351H276.554a9.47,9.47,0,0,1-9.421-10.431Z" transform="translate(-242.19 -647.325)" fill="#fff"/>
          <path id="Trazado_1023818" data-name="Trazado 1023818" d="M323.042,778.512H274.571a9.675,9.675,0,0,1-9.625-10.657l3.181-31.168a.208.208,0,0,1,.225-.183.2.2,0,0,1,.183.225L265.354,767.9a9.265,9.265,0,0,0,9.217,10.205h48.471a5.889,5.889,0,0,0,5.84-5.171l.4-9.421a.205.205,0,0,1,.3-.175c13.243,6.589,19.423.479,19.483.417a.23.23,0,0,1,.026-.023c9.3-6.768,7.978-18.021,5.234-26.268a71.331,71.331,0,0,0-8.188-16.34l-7.444,6.475a.2.2,0,0,1-.3-.032L332,719.019a17.266,17.266,0,0,0-13.767-6.892h-.066c-6.017.024-14.74.034-22.128-.052-.236,0-.473,0-.708,0a78.623,78.623,0,0,0-24.843,4.356.205.205,0,0,1-.144-.384,78.977,78.977,0,0,1,25.7-4.377c7.385.086,16.106.076,22.121.052h.068a17.676,17.676,0,0,1,14.1,7.057l6.259,8.366,7.45-6.48a.2.2,0,0,1,.3.036,71.652,71.652,0,0,1,8.369,16.627,33.093,33.093,0,0,1,1.906,14.277,17.458,17.458,0,0,1-7.271,12.451,10.433,10.433,0,0,1-4.875,2.38c-2.949.68-7.894.773-14.79-2.59l-.392,9.123a6.3,6.3,0,0,1-6.248,5.548" transform="translate(-240.207 -645.332)" fill="#5479f7"/>
          <path id="Trazado_1023819" data-name="Trazado 1023819" d="M1066.446,896.8a.2.2,0,0,1-.165-.082l-13.2-17.647a.205.205,0,0,1,.328-.245l13.2,17.647a.2.2,0,0,1-.164.328" transform="translate(-954.891 -796.838)" fill="#5479f7"/>
          <path id="Trazado_1023820" data-name="Trazado 1023820" d="M806.684,1170.642a.2.2,0,0,1-.11-.032l-15.342-9.826a.2.2,0,1,1,.221-.345l15.342,9.826a.2.2,0,0,1-.111.377" transform="translate(-717.4 -1052.252)" fill="#5479f7"/>
          <path id="Trazado_1023821" data-name="Trazado 1023821" d="M731.507,766.4h-.02a.2.2,0,0,1-.184-.224l4.537-46.693a.2.2,0,0,1,.408.04l-4.537,46.693a.205.205,0,0,1-.2.185" transform="translate(-663.141 -652.257)" fill="#5479f7"/>
          <path id="Trazado_1023822" data-name="Trazado 1023822" d="M669.738,766.4h-.02a.2.2,0,0,1-.184-.224l4.537-46.693a.2.2,0,1,1,.408.04l-4.537,46.693a.205.205,0,0,1-.2.185" transform="translate(-607.129 -652.257)" fill="#5479f7"/>
          <path id="Trazado_1023823" data-name="Trazado 1023823" d="M448.946,766.4h-.02a.2.2,0,0,1-.184-.224l4.537-46.693a.2.2,0,0,1,.408.04l-4.537,46.693a.205.205,0,0,1-.2.185" transform="translate(-406.916 -652.257)" fill="#5479f7"/>
          <path id="Trazado_1023824" data-name="Trazado 1023824" d="M387.177,781.622h-.02a.2.2,0,0,1-.184-.224l4.385-45.129a.2.2,0,0,1,.408.04l-4.385,45.129a.205.205,0,0,1-.2.185" transform="translate(-350.904 -667.477)" fill="#5479f7"/>
          <path id="Trazado_1023825" data-name="Trazado 1023825" d="M345.408,1230.584H291.017a.2.2,0,1,1,0-.41h54.391a.2.2,0,1,1,0,.41" transform="translate(-263.707 -1115.517)" fill="#5479f7"/>
          <path id="Trazado_1023826" data-name="Trazado 1023826" d="M344.173,1290.164H284.182a.2.2,0,1,1,0-.41h59.991a.2.2,0,1,1,0,.41" transform="translate(-257.509 -1169.544)" fill="#5479f7"/>
          <path id="Trazado_1023827" data-name="Trazado 1023827" d="M833.781,961.711a.2.2,0,0,1-.141-.354l24.378-23.005a.205.205,0,0,1,.281.3l-24.378,23.006a.205.205,0,0,1-.141.056" transform="translate(-755.883 -850.843)" fill="#5479f7"/>
          <path id="Trazado_1023828" data-name="Trazado 1023828" d="M938.046,1061.131a.205.205,0,0,1-.141-.354l20.742-19.574a.205.205,0,1,1,.282.3l-20.742,19.574a.205.205,0,0,1-.141.056" transform="translate(-850.431 -944.108)" fill="#5479f7"/>
          <rect id="Rectángulo_457021" data-name="Rectángulo 457021" width="42.273" height="41.837" transform="translate(176.369 61.658)" fill="#fff"/>
          <path id="Trazado_1023829" data-name="Trazado 1023829" d="M1932.568,701.585h-42.273a.2.2,0,0,1-.205-.2V659.543a.2.2,0,0,1,.205-.205h42.273a.2.2,0,0,1,.2.205V701.38a.2.2,0,0,1-.2.2m-42.068-.41h41.863V659.748H1890.5Z" transform="translate(-1713.925 -597.885)"/>
          <path id="Trazado_1023830" data-name="Trazado 1023830" d="M1999.641,793.5l-.382,16.165a3.062,3.062,0,0,1-4.418,2.68,7.893,7.893,0,0,1-3.493-3.611l2.248-.417-5.33-3.148.049,6.269,1.5-1.763s.476,5.4,8.445,5.958a2.921,2.921,0,0,1,2.2,1.274h0a2.921,2.921,0,0,1,2.2-1.274c7.969-.557,8.445-5.958,8.445-5.958l1.5,1.763.049-6.269-5.33,3.148,2.248.417a7.9,7.9,0,0,1-3.494,3.611,3.062,3.062,0,0,1-4.418-2.68l-.382-16.165Z" transform="translate(-1802.951 -719.546)" fill="#e2eaff"/>
          <path id="Trazado_1023831" data-name="Trazado 1023831" d="M2080.566,714.666a3.957,3.957,0,1,0,3.958,3.957,3.957,3.957,0,0,0-3.958-3.957m0,6.455a2.5,2.5,0,1,1,2.5-2.5,2.5,2.5,0,0,1-2.5,2.5" transform="translate(-1883.06 -648.056)" fill="#e2eaff"/>
          <path id="Trazado_1023832" data-name="Trazado 1023832" d="M2068.271,828.219H2058.9a1.017,1.017,0,1,1,0-2.033h9.372a1.017,1.017,0,1,1,0,2.033" transform="translate(-1866.079 -749.182)" fill="#e2eaff"/>
        </g>
      </g>
    </g>
  </g>
</svg>
