<svg xmlns="http://www.w3.org/2000/svg" xmlns:xlink="http://www.w3.org/1999/xlink" width="126" height="126" viewBox="0 0 126 126">
  <defs>
    <clipPath id="clip-path">
      <rect id="Rectángulo_456277" data-name="Rectángulo 456277" width="126" height="126" transform="translate(-0.173 -0.173)" fill="#d35560"/>
    </clipPath>
  </defs>
  <g id="Grupo_1186004" data-name="Grupo 1186004" transform="translate(-269.711 -14252.066)">
    <g id="Grupo_1180210" data-name="Grupo 1180210" transform="translate(-625.347 6968.067)">
      <g id="Grupo_1180176" data-name="Grupo 1180176" transform="translate(14330.847 19964.789)">
        <g id="Grupo_1179924" data-name="Grupo 1179924" transform="translate(-13435.616 -12680.616)">
          <g id="Grupo_1179923" data-name="Grupo 1179923" transform="translate(0 0)" clip-path="url(#clip-path)">
            <path id="Trazado_1004716" data-name="Trazado 1004716" d="M62.806,125.612c-2.04,0-3.948-2.331-5.937-2.525-2.026-.2-4.351,1.715-6.315,1.325-1.993-.4-3.409-3.055-5.329-3.638-1.941-.59-4.6.83-6.452.058-1.871-.777-2.738-3.663-4.51-4.614s-4.665-.085-6.338-1.206-1.967-4.124-3.525-5.4-4.557-.986-5.984-2.413-1.13-4.424-2.412-5.984-4.279-1.846-5.4-3.525-.249-4.555-1.206-6.338-3.836-2.64-4.614-4.51c-.771-1.855.648-4.511.059-6.452C4.254,78.467,1.6,77.051,1.2,75.058c-.39-1.964,1.523-4.289,1.325-6.315C2.331,66.754,0,64.846,0,62.806s2.331-3.948,2.525-5.937c.2-2.026-1.715-4.35-1.325-6.315.4-1.993,3.054-3.409,3.638-5.329.59-1.941-.829-4.6-.058-6.452.778-1.871,3.663-2.737,4.614-4.51S9.478,29.6,10.6,27.924,14.723,25.957,16,24.4s.986-4.557,2.413-5.984S22.84,17.286,24.4,16s1.846-4.279,3.525-5.4,4.555-.249,6.338-1.206,2.639-3.836,4.51-4.614,4.511.648,6.452.058C47.145,4.254,48.56,1.6,50.554,1.2c1.964-.39,4.289,1.523,6.315,1.325C58.858,2.331,60.766,0,62.806,0s3.948,2.331,5.937,2.525c2.026.2,4.351-1.715,6.315-1.325,1.993.4,3.409,3.055,5.329,3.638,1.941.59,4.6-.83,6.452-.058,1.871.777,2.738,3.663,4.51,4.614s4.665.084,6.338,1.206,1.967,4.124,3.525,5.4,4.557.986,5.984,2.413,1.13,4.424,2.412,5.984,4.279,1.846,5.4,3.525.249,4.555,1.206,6.338,3.836,2.64,4.614,4.51c.771,1.855-.648,4.511-.058,6.452.583,1.919,3.242,3.335,3.638,5.328.39,1.964-1.523,4.289-1.325,6.315.195,1.989,2.525,3.9,2.525,5.937s-2.331,3.948-2.525,5.938c-.2,2.026,1.715,4.35,1.325,6.315-.4,1.993-3.054,3.409-3.638,5.329-.59,1.941.829,4.6.058,6.452-.778,1.871-3.663,2.738-4.614,4.511s-.084,4.665-1.206,6.338-4.124,1.967-5.4,3.525-.986,4.557-2.413,5.984-4.424,1.13-5.984,2.413-1.846,4.278-3.525,5.4-4.555.249-6.338,1.206-2.639,3.837-4.51,4.614c-1.855.771-4.511-.648-6.452-.058-1.919.583-3.335,3.242-5.328,3.638-1.964.39-4.289-1.523-6.315-1.325-1.99.194-3.9,2.525-5.938,2.525" transform="translate(0.021 0.022)" fill="#3342a4"/>
            <path id="Trazado_1004717" data-name="Trazado 1004717" d="M14,70.865A56.865,56.865,0,1,1,70.865,127.73,56.865,56.865,0,0,1,14,70.865" transform="translate(-8.038 -8.037)" fill="#fff7e8"/>
            <path id="Trazado_1021102" data-name="Trazado 1021102" d="M14,66.624a52.624,52.624,0,1,1,52.624,52.624A52.624,52.624,0,0,1,14,66.624" transform="translate(-3.798 -3.795)" fill="#3342a4"/>
          </g>
        </g>
        <g id="Grupo_1180053" data-name="Grupo 1180053" transform="translate(-13407.189 -12652.604)">
          <rect id="Rectángulo_401104" data-name="Rectángulo 401104" width="68.804" height="69.633" transform="translate(0 0)" fill="none"/>
        </g>
      </g>
    </g>
    <g id="Grupo_1180510" data-name="Grupo 1180510" transform="translate(263.422 14242.127)">
      <g id="Grupo_1180503" data-name="Grupo 1180503" transform="translate(38 46)">
        <path id="Trazado_1022182" data-name="Trazado 1022182" d="M42,88.486V52.2A2.2,2.2,0,0,1,44.2,50h54.98a2.2,2.2,0,0,1,2.2,2.2V88.486a2.2,2.2,0,0,1-2.2,2.2H44.2A2.2,2.2,0,0,1,42,88.486Z" transform="translate(-40.9 -48.9)" fill="#eaeaea"/>
        <path id="Trazado_1022183" data-name="Trazado 1022183" d="M96.278,88.884H41.3a3.3,3.3,0,0,1-3.3-3.3V49.3A3.3,3.3,0,0,1,41.3,46h54.98a3.3,3.3,0,0,1,3.3,3.3V85.585A3.3,3.3,0,0,1,96.278,88.884ZM41.3,48.2a1.1,1.1,0,0,0-1.1,1.1V85.585a1.1,1.1,0,0,0,1.1,1.1h54.98a1.1,1.1,0,0,0,1.1-1.1V49.3a1.1,1.1,0,0,0-1.1-1.1Z" transform="translate(-38 -46)"/>
      </g>
      <g id="Grupo_1180504" data-name="Grupo 1180504" transform="translate(42.398 49.299)">
        <path id="Trazado_1022184" data-name="Trazado 1022184" d="M0,0H34.087V50.581H0Z" transform="translate(51.681 1.1) rotate(90)" fill="#fff"/>
        <path id="Trazado_1022185" data-name="Trazado 1022185" d="M105.681,94.287H55.1a1.1,1.1,0,0,1-1.1-1.1V59.1A1.1,1.1,0,0,1,55.1,58h50.581a1.1,1.1,0,0,1,1.1,1.1V93.187A1.1,1.1,0,0,1,105.681,94.287ZM56.2,92.087h48.382V60.2H56.2Z" transform="translate(-54 -58)"/>
      </g>
      <g id="Grupo_1180505" data-name="Grupo 1180505" transform="translate(75.386 80.087)">
        <path id="Trazado_1022186" data-name="Trazado 1022186" d="M186.8,191.593l-4.4-3.3-4.4,3.3V174h8.8Z" transform="translate(-176.9 -172.9)" fill="#e66353"/>
        <path id="Trazado_1022187" data-name="Trazado 1022187" d="M183.9,189.793a1.1,1.1,0,0,1-.66-.22l-3.739-2.8-3.739,2.8a1.1,1.1,0,0,1-1.759-.879V171.1a1.1,1.1,0,0,1,1.1-1.1h8.8a1.1,1.1,0,0,1,1.1,1.1v17.593a1.1,1.1,0,0,1-1.1,1.1Zm-4.4-5.5a1.1,1.1,0,0,1,.66.22l2.639,1.979V172.2h-6.6v14.295l2.639-1.979A1.1,1.1,0,0,1,179.5,184.295Z" transform="translate(-174 -170)"/>
      </g>
      <g id="Grupo_1180506" data-name="Grupo 1180506" transform="translate(69.888 65.793)">
        <path id="Trazado_1022188" data-name="Trazado 1022188" d="M167.9,122l2.375,1.034,2.574.291,1.539,2.083,2.083,1.539.291,2.574,1.034,2.375-1.034,2.375-.291,2.574-2.083,1.539-1.539,2.083-2.574.291-2.375,1.034-2.375-1.034-2.574-.291-1.539-2.083-2.083-1.539-.291-2.574L158,131.9l1.034-2.375.291-2.574,2.083-1.539,1.539-2.083,2.574-.291Z" transform="translate(-156.9 -120.9)" fill="#ffec95"/>
        <path id="Trazado_1022189" data-name="Trazado 1022189" d="M165,139.992a1.1,1.1,0,0,1-.439-.091l-2.223-.969-2.409-.272a1.1,1.1,0,0,1-.761-.439l-1.441-1.951-1.951-1.441a1.1,1.1,0,0,1-.439-.761l-.272-2.409-.969-2.223a1.1,1.1,0,0,1,0-.878l.969-2.223.272-2.409a1.1,1.1,0,0,1,.439-.761l1.951-1.441,1.441-1.951a1.1,1.1,0,0,1,.761-.439l2.409-.272,2.223-.969a1.106,1.106,0,0,1,.878,0l2.223.969,2.409.272a1.1,1.1,0,0,1,.761.439l1.441,1.951,1.951,1.441a1.1,1.1,0,0,1,.439.761l.272,2.409.969,2.223a1.1,1.1,0,0,1,0,.878l-.969,2.223-.272,2.409a1.1,1.1,0,0,1-.439.761l-1.951,1.441-1.441,1.951a1.1,1.1,0,0,1-.761.439l-2.409.272-2.223.969A1.1,1.1,0,0,1,165,139.992Zm-4.348-3.464,2.1.237a1.1,1.1,0,0,1,.316.084l1.936.843,1.936-.843a1.111,1.111,0,0,1,.316-.084l2.1-.237,1.255-1.7a1.094,1.094,0,0,1,.231-.231l1.7-1.255.237-2.1a1.1,1.1,0,0,1,.084-.316l.843-1.936-.843-1.936a1.11,1.11,0,0,1-.084-.316l-.237-2.1-1.7-1.255a1.1,1.1,0,0,1-.231-.231l-1.255-1.7-2.1-.237a1.1,1.1,0,0,1-.316-.084L165,120.3l-1.936.843a1.111,1.111,0,0,1-.316.084l-2.1.237-1.255,1.7a1.1,1.1,0,0,1-.231.231l-1.7,1.255-.237,2.1a1.1,1.1,0,0,1-.084.316L156.3,129l.843,1.936a1.111,1.111,0,0,1,.084.316l.237,2.1,1.7,1.255a1.1,1.1,0,0,1,.231.231Zm1.973-16.393h.011Z" transform="translate(-153.999 -118)"/>
      </g>
      <g id="Grupo_1180507" data-name="Grupo 1180507" transform="translate(74.287 70.191)">
        <ellipse id="Elipse_13693" data-name="Elipse 13693" cx="5.387" cy="5.746" rx="5.387" ry="5.746" transform="translate(1.064 0.948)" fill="#ffce56"/>
        <path id="Trazado_1022190" data-name="Trazado 1022190" d="M176.6,147.2a6.6,6.6,0,1,1,6.6-6.6A6.6,6.6,0,0,1,176.6,147.2Zm0-11a4.4,4.4,0,1,0,4.4,4.4A4.4,4.4,0,0,0,176.6,136.2Z" transform="translate(-170 -134)"/>
      </g>
      <g id="Grupo_1180508" data-name="Grupo 1180508" transform="translate(46.797 53.697)">
        <path id="Trazado_1022191" data-name="Trazado 1022191" d="M191.1,215.5a1.1,1.1,0,0,1-1.1-1.1v-3.3a1.1,1.1,0,0,1,2.2,0v3.3A1.1,1.1,0,0,1,191.1,215.5Z" transform="translate(-157.012 -172.614)"/>
        <path id="Trazado_1022192" data-name="Trazado 1022192" d="M141.675,82.8H139.1a1.1,1.1,0,0,1-1.1-1.1V75.1a1.1,1.1,0,0,1,1.1-1.1h2.576a2.926,2.926,0,0,1,2.922,2.922v2.952A2.926,2.926,0,0,1,141.675,82.8ZM140.2,80.6h1.476a.724.724,0,0,0,.723-.723V76.922a.724.724,0,0,0-.723-.723H140.2Z" transform="translate(-119.307 -74)"/>
        <path id="Trazado_1022193" data-name="Trazado 1022193" d="M171.5,82.8a1.1,1.1,0,0,1-1.083-.919l-.947-5.679h-.336l-.946,5.679a1.1,1.1,0,1,1-2.169-.362l1.1-6.6A1.1,1.1,0,0,1,168.2,74h2.2a1.1,1.1,0,0,1,1.084.919l1.1,6.6a1.1,1.1,0,0,1-.9,1.266A1.142,1.142,0,0,1,171.5,82.8Z" transform="translate(-139.609 -74)"/>
        <path id="Trazado_1022194" data-name="Trazado 1022194" d="M171.4,90h3.339v2.2H171.4Z" transform="translate(-143.522 -85.602)"/>
        <path id="Trazado_1022195" data-name="Trazado 1022195" d="M115.1,82.8a1.1,1.1,0,0,1-1.1-1.1V75.1a1.1,1.1,0,0,1,1.1-1.1h3.3a1.1,1.1,0,1,1,0,2.2h-2.2v5.5A1.1,1.1,0,0,1,115.1,82.8Z" transform="translate(-101.904 -74)"/>
        <path id="Trazado_1022196" data-name="Trazado 1022196" d="M118.4,88.2h-3.3a1.1,1.1,0,1,1,0-2.2h3.3a1.1,1.1,0,0,1,0,2.2Z" transform="translate(-101.904 -82.701)"/>
        <path id="Trazado_1022197" data-name="Trazado 1022197" d="M90.892,120.2H71.1a1.1,1.1,0,1,1,0-2.2H90.892a1.1,1.1,0,0,1,0,2.2Z" transform="translate(-70 -105.904)"/>
        <path id="Trazado_1022198" data-name="Trazado 1022198" d="M79.9,132.2H71.1a1.1,1.1,0,0,1,0-2.2h8.8a1.1,1.1,0,0,1,0,2.2Z" transform="translate(-70 -114.606)"/>
        <path id="Trazado_1022199" data-name="Trazado 1022199" d="M79.9,168.2H71.1a1.1,1.1,0,0,1,0-2.2h8.8a1.1,1.1,0,1,1,0,2.2Z" transform="translate(-70 -140.709)"/>
      </g>
      <g id="Grupo_1180509" data-name="Grupo 1180509" transform="translate(46.797 72.39)">
        <path id="Trazado_1022200" data-name="Trazado 1022200" d="M74,146H91.593v3.3H74Z" transform="translate(-72.9 -144.9)" fill="#a9ba5a"/>
        <path id="Trazado_1022201" data-name="Trazado 1022201" d="M88.693,147.5H71.1a1.1,1.1,0,0,1-1.1-1.1v-3.3a1.1,1.1,0,0,1,1.1-1.1H88.693a1.1,1.1,0,0,1,1.1,1.1v3.3A1.1,1.1,0,0,1,88.693,147.5ZM72.2,145.3H87.593v-1.1H72.2Z" transform="translate(-70 -142)"/>
      </g>
    </g>
  </g>
</svg>
