<svg xmlns="http://www.w3.org/2000/svg" xmlns:xlink="http://www.w3.org/1999/xlink" width="126" height="126" viewBox="0 0 126 126">
  <defs>
    <clipPath id="clip-path">
      <rect id="Rectángulo_456277" data-name="Rectángulo 456277" width="126" height="126" transform="translate(-0.173 -0.173)" fill="#d35560"/>
    </clipPath>
  </defs>
  <g id="Grupo_1186005" data-name="Grupo 1186005" transform="translate(-581.711 -14252)">
    <g id="Grupo_1180208" data-name="Grupo 1180208" transform="translate(-313.347 6968)">
      <g id="Grupo_1180176" data-name="Grupo 1180176" transform="translate(14330.847 19964.789)">
        <g id="Grupo_1179924" data-name="Grupo 1179924" transform="translate(-13435.616 -12680.616)">
          <g id="Grupo_1179923" data-name="Grupo 1179923" transform="translate(0 0)" clip-path="url(#clip-path)">
            <path id="Trazado_1004716" data-name="Trazado 1004716" d="M62.806,125.612c-2.04,0-3.948-2.331-5.937-2.525-2.026-.2-4.351,1.715-6.315,1.325-1.993-.4-3.409-3.055-5.329-3.638-1.941-.59-4.6.83-6.452.058-1.871-.777-2.738-3.663-4.51-4.614s-4.665-.085-6.338-1.206-1.967-4.124-3.525-5.4-4.557-.986-5.984-2.413-1.13-4.424-2.412-5.984-4.279-1.846-5.4-3.525-.249-4.555-1.206-6.338-3.836-2.64-4.614-4.51c-.771-1.855.648-4.511.059-6.452C4.254,78.467,1.6,77.051,1.2,75.058c-.39-1.964,1.523-4.289,1.325-6.315C2.331,66.754,0,64.846,0,62.806s2.331-3.948,2.525-5.937c.2-2.026-1.715-4.35-1.325-6.315.4-1.993,3.054-3.409,3.638-5.329.59-1.941-.829-4.6-.058-6.452.778-1.871,3.663-2.737,4.614-4.51S9.478,29.6,10.6,27.924,14.723,25.957,16,24.4s.986-4.557,2.413-5.984S22.84,17.286,24.4,16s1.846-4.279,3.525-5.4,4.555-.249,6.338-1.206,2.639-3.836,4.51-4.614,4.511.648,6.452.058C47.145,4.254,48.56,1.6,50.554,1.2c1.964-.39,4.289,1.523,6.315,1.325C58.858,2.331,60.766,0,62.806,0s3.948,2.331,5.937,2.525c2.026.2,4.351-1.715,6.315-1.325,1.993.4,3.409,3.055,5.329,3.638,1.941.59,4.6-.83,6.452-.058,1.871.777,2.738,3.663,4.51,4.614s4.665.084,6.338,1.206,1.967,4.124,3.525,5.4,4.557.986,5.984,2.413,1.13,4.424,2.412,5.984,4.279,1.846,5.4,3.525.249,4.555,1.206,6.338,3.836,2.64,4.614,4.51c.771,1.855-.648,4.511-.058,6.452.583,1.919,3.242,3.335,3.638,5.328.39,1.964-1.523,4.289-1.325,6.315.195,1.989,2.525,3.9,2.525,5.937s-2.331,3.948-2.525,5.938c-.2,2.026,1.715,4.35,1.325,6.315-.4,1.993-3.054,3.409-3.638,5.329-.59,1.941.829,4.6.058,6.452-.778,1.871-3.663,2.738-4.614,4.511s-.084,4.665-1.206,6.338-4.124,1.967-5.4,3.525-.986,4.557-2.413,5.984-4.424,1.13-5.984,2.413-1.846,4.278-3.525,5.4-4.555.249-6.338,1.206-2.639,3.837-4.51,4.614c-1.855.771-4.511-.648-6.452-.058-1.919.583-3.335,3.242-5.328,3.638-1.964.39-4.289-1.523-6.315-1.325-1.99.194-3.9,2.525-5.938,2.525" transform="translate(0.021 0.022)" fill="#3342a4"/>
            <path id="Trazado_1004717" data-name="Trazado 1004717" d="M14,70.865A56.865,56.865,0,1,1,70.865,127.73,56.865,56.865,0,0,1,14,70.865" transform="translate(-8.038 -8.037)" fill="#fff7e8"/>
            <path id="Trazado_1021102" data-name="Trazado 1021102" d="M14,66.624a52.624,52.624,0,1,1,52.624,52.624A52.624,52.624,0,0,1,14,66.624" transform="translate(-3.798 -3.795)" fill="#3342a4"/>
          </g>
        </g>
        <g id="Grupo_1180053" data-name="Grupo 1180053" transform="translate(-13407.189 -12652.604)">
          <rect id="Rectángulo_401104" data-name="Rectángulo 401104" width="68.804" height="69.633" transform="translate(0 0)" fill="none"/>
        </g>
      </g>
    </g>
    <g id="Grupo_1180518" data-name="Grupo 1180518" transform="translate(612.711 14283)">
      <g id="Grupo_1180516" data-name="Grupo 1180516">
        <g id="Grupo_1180511" data-name="Grupo 1180511">
          <path id="Trazado_1022202" data-name="Trazado 1022202" d="M50.66,10a4,4,0,0,1-2.83-1.17L46,7H43a3.992,3.992,0,0,1-3.87-3H17V54H53V10Z" fill="#e6e9ed"/>
        </g>
        <g id="Grupo_1180512" data-name="Grupo 1180512">
          <path id="Trazado_1022203" data-name="Trazado 1022203" d="M21,8H37V20H21Z" fill="#b4dd7f"/>
        </g>
        <g id="Grupo_1180513" data-name="Grupo 1180513">
          <path id="Trazado_1022204" data-name="Trazado 1022204" d="M33,36H49V50H33Z" fill="#fcd770"/>
        </g>
        <g id="Grupo_1180514" data-name="Grupo 1180514">
          <path id="Trazado_1022205" data-name="Trazado 1022205" d="M30,58a2.015,2.015,0,0,1,2,2,2.006,2.006,0,0,1-2,2H10.89a8.081,8.081,0,0,1-3.58-.84L3,59H2V44H3l3.48-2.32A9.951,9.951,0,0,1,12.03,40H24a1,1,0,0,1,1,1,4,4,0,0,1-4,4H17v9H32a2.006,2.006,0,0,1,2,2,2.015,2.015,0,0,1-2,2Z" fill="#f0d0b4"/>
        </g>
        <g id="Grupo_1180515" data-name="Grupo 1180515">
          <path id="Trazado_1022206" data-name="Trazado 1022206" d="M62,6V20H61l-4.31,2.16a8.081,8.081,0,0,1-3.58.84H53V10H50.66a4,4,0,0,1-2.83-1.17L46,7H43a3.992,3.992,0,0,1-3.87-3A3.657,3.657,0,0,1,39,3a1,1,0,0,1,1-1H51.97a9.951,9.951,0,0,1,5.55,1.68L61,6Z" fill="#f0d0b4"/>
        </g>
      </g>
      <g id="Grupo_1180517" data-name="Grupo 1180517">
        <path id="Trazado_1022207" data-name="Trazado 1022207" d="M61.3,5,58.074,2.848A10.96,10.96,0,0,0,51.973,1H40a2,2,0,0,0-2,2H16V39H12.027a10.964,10.964,0,0,0-6.1,1.848L2.7,43H1V60H2.764l4.1,2.05a9.05,9.05,0,0,0,4.025.95H30a2.99,2.99,0,0,0,2.78-4.116A2.95,2.95,0,0,0,34.816,55H54V23.956a9.058,9.058,0,0,0,3.137-.906l4.1-2.05H63V5ZM33,56a1,1,0,0,1-1,1H20v2H30a1,1,0,0,1,0,2H10.889a7.031,7.031,0,0,1-3.131-.739L3.236,58H3V45h.3l3.732-2.488A8.973,8.973,0,0,1,12.027,41H24a3,3,0,0,1-3,3H16.586l-1.535,1.535A4.97,4.97,0,0,1,11.515,47H11v2h.515A6.946,6.946,0,0,0,16,47.371V55H32A1,1,0,0,1,33,56Zm19-3H18V46h3a5.006,5.006,0,0,0,5-5,2,2,0,0,0-2-2H18V5H38.424A5,5,0,0,0,43,8h2.586l1.535,1.536A4.968,4.968,0,0,0,50.657,11H52Zm9-34h-.236l-4.521,2.261A7.022,7.022,0,0,1,54,21.943V9H50.658a2.982,2.982,0,0,1-2.122-.878L46.414,6H43a3,3,0,0,1-3-3H51.973a8.971,8.971,0,0,1,4.992,1.512L60.7,7H61Z"/>
        <path id="Trazado_1022208" data-name="Trazado 1022208" d="M32,51H50V35H32Zm2-14H48V49H34Z"/>
        <path id="Trazado_1022209" data-name="Trazado 1022209" d="M39,44.586l-1.293-1.293-1.414,1.414L39,47.414l7.707-7.707-1.414-1.414Z"/>
        <path id="Trazado_1022210" data-name="Trazado 1022210" d="M20,49H30v2H20Z"/>
        <path id="Trazado_1022211" data-name="Trazado 1022211" d="M28,45h2v2H28Z"/>
        <path id="Trazado_1022212" data-name="Trazado 1022212" d="M28,41h2v2H28Z"/>
        <path id="Trazado_1022213" data-name="Trazado 1022213" d="M38,7H20V21H38ZM36,19H22V9H36Z"/>
        <path id="Trazado_1022214" data-name="Trazado 1022214" d="M40,19H50v2H40Z"/>
        <path id="Trazado_1022215" data-name="Trazado 1022215" d="M40,15H50v2H40Z"/>
        <path id="Trazado_1022216" data-name="Trazado 1022216" d="M40,11h2v2H40Z"/>
        <path id="Trazado_1022217" data-name="Trazado 1022217" d="M44,11h6v2H44Z"/>
        <path id="Trazado_1022218" data-name="Trazado 1022218" d="M20,23h2v2H20Z"/>
        <path id="Trazado_1022219" data-name="Trazado 1022219" d="M24,23H50v2H24Z"/>
        <path id="Trazado_1022220" data-name="Trazado 1022220" d="M20,27H50v2H20Z"/>
        <path id="Trazado_1022221" data-name="Trazado 1022221" d="M20,31h2v2H20Z"/>
        <path id="Trazado_1022222" data-name="Trazado 1022222" d="M28,31h2v2H28Z"/>
        <path id="Trazado_1022223" data-name="Trazado 1022223" d="M24,31h2v2H24Z"/>
        <path id="Trazado_1022224" data-name="Trazado 1022224" d="M32,31H50v2H32Z"/>
        <path id="Trazado_1022225" data-name="Trazado 1022225" d="M20,35H30v2H20Z"/>
      </g>
    </g>
  </g>
</svg>
