<svg xmlns="http://www.w3.org/2000/svg" xmlns:xlink="http://www.w3.org/1999/xlink" width="126" height="126" viewBox="0 0 126 126">
  <defs>
    <clipPath id="clip-path">
      <rect id="Rectángulo_456277" data-name="Rectángulo 456277" width="126" height="126" transform="translate(-0.173 -0.173)" fill="#d35560"/>
    </clipPath>
  </defs>
  <g id="Grupo_1186006" data-name="Grupo 1186006" transform="translate(-893.711 -14252.066)">
    <g id="Grupo_1180204" data-name="Grupo 1180204" transform="translate(-1.347 6968.067)">
      <g id="Grupo_1180176" data-name="Grupo 1180176" transform="translate(14330.847 19964.789)">
        <g id="Grupo_1179924" data-name="Grupo 1179924" transform="translate(-13435.616 -12680.616)">
          <g id="Grupo_1179923" data-name="Grupo 1179923" transform="translate(0 0)" clip-path="url(#clip-path)">
            <path id="Trazado_1004716" data-name="Trazado 1004716" d="M62.806,125.612c-2.04,0-3.948-2.331-5.937-2.525-2.026-.2-4.351,1.715-6.315,1.325-1.993-.4-3.409-3.055-5.329-3.638-1.941-.59-4.6.83-6.452.058-1.871-.777-2.738-3.663-4.51-4.614s-4.665-.085-6.338-1.206-1.967-4.124-3.525-5.4-4.557-.986-5.984-2.413-1.13-4.424-2.412-5.984-4.279-1.846-5.4-3.525-.249-4.555-1.206-6.338-3.836-2.64-4.614-4.51c-.771-1.855.648-4.511.059-6.452C4.254,78.467,1.6,77.051,1.2,75.058c-.39-1.964,1.523-4.289,1.325-6.315C2.331,66.754,0,64.846,0,62.806s2.331-3.948,2.525-5.937c.2-2.026-1.715-4.35-1.325-6.315.4-1.993,3.054-3.409,3.638-5.329.59-1.941-.829-4.6-.058-6.452.778-1.871,3.663-2.737,4.614-4.51S9.478,29.6,10.6,27.924,14.723,25.957,16,24.4s.986-4.557,2.413-5.984S22.84,17.286,24.4,16s1.846-4.279,3.525-5.4,4.555-.249,6.338-1.206,2.639-3.836,4.51-4.614,4.511.648,6.452.058C47.145,4.254,48.56,1.6,50.554,1.2c1.964-.39,4.289,1.523,6.315,1.325C58.858,2.331,60.766,0,62.806,0s3.948,2.331,5.937,2.525c2.026.2,4.351-1.715,6.315-1.325,1.993.4,3.409,3.055,5.329,3.638,1.941.59,4.6-.83,6.452-.058,1.871.777,2.738,3.663,4.51,4.614s4.665.084,6.338,1.206,1.967,4.124,3.525,5.4,4.557.986,5.984,2.413,1.13,4.424,2.412,5.984,4.279,1.846,5.4,3.525.249,4.555,1.206,6.338,3.836,2.64,4.614,4.51c.771,1.855-.648,4.511-.058,6.452.583,1.919,3.242,3.335,3.638,5.328.39,1.964-1.523,4.289-1.325,6.315.195,1.989,2.525,3.9,2.525,5.937s-2.331,3.948-2.525,5.938c-.2,2.026,1.715,4.35,1.325,6.315-.4,1.993-3.054,3.409-3.638,5.329-.59,1.941.829,4.6.058,6.452-.778,1.871-3.663,2.738-4.614,4.511s-.084,4.665-1.206,6.338-4.124,1.967-5.4,3.525-.986,4.557-2.413,5.984-4.424,1.13-5.984,2.413-1.846,4.278-3.525,5.4-4.555.249-6.338,1.206-2.639,3.837-4.51,4.614c-1.855.771-4.511-.648-6.452-.058-1.919.583-3.335,3.242-5.328,3.638-1.964.39-4.289-1.523-6.315-1.325-1.99.194-3.9,2.525-5.938,2.525" transform="translate(0.021 0.022)" fill="#3342a4"/>
            <path id="Trazado_1004717" data-name="Trazado 1004717" d="M14,70.865A56.865,56.865,0,1,1,70.865,127.73,56.865,56.865,0,0,1,14,70.865" transform="translate(-8.038 -8.037)" fill="#fff7e8"/>
            <path id="Trazado_1021102" data-name="Trazado 1021102" d="M14,66.624a52.624,52.624,0,1,1,52.624,52.624A52.624,52.624,0,0,1,14,66.624" transform="translate(-3.798 -3.795)" fill="#3342a4"/>
          </g>
        </g>
        <g id="Grupo_1180053" data-name="Grupo 1180053" transform="translate(-13407.189 -12652.604)">
          <rect id="Rectángulo_401104" data-name="Rectángulo 401104" width="68.804" height="69.633" transform="translate(0 0)" fill="none"/>
        </g>
      </g>
    </g>
    <g id="Grupo_1180519" data-name="Grupo 1180519" transform="translate(926.336 14292.375)">
      <path id="Trazado_1022226" data-name="Trazado 1022226" d="M20.736,10H15.252a5.252,5.252,0,0,0,0,10.5h5.485Zm0,0" transform="translate(-8.833 -8.833)" fill="#ffc15a"/>
      <path id="Trazado_1022227" data-name="Trazado 1022227" d="M15.252,60.252A5.252,5.252,0,0,1,10,55V84.759a7,7,0,0,0,7,7H67.416V60.252Zm0,0" transform="translate(-8.833 -48.581)" fill="#ffd89e"/>
      <path id="Trazado_1022228" data-name="Trazado 1022228" d="M80.834,155.335h5.835L89,149.5H78.5Zm0,0" transform="translate(-69.339 -132.053)" fill="#81b3e6"/>
      <path id="Trazado_1022229" data-name="Trazado 1022229" d="M199.5,155.335h7l-3.521-5.835Zm0,0" transform="translate(-176.218 -132.053)" fill="#ff765b"/>
      <path id="Trazado_1022230" data-name="Trazado 1022230" d="M308.5,149.5h5.835v5.835H308.5Zm0,0" transform="translate(-272.498 -132.053)" fill="#cff1fb"/>
      <path id="Trazado_1022231" data-name="Trazado 1022231" d="M58.583,10.5H13.07V1.167A1.167,1.167,0,0,0,11.9,0H6.419A6.426,6.426,0,0,0,0,6.419V36.177a8.178,8.178,0,0,0,8.169,8.169H58.583a1.167,1.167,0,0,0,1.167-1.167V11.67A1.167,1.167,0,0,0,58.583,10.5ZM6.419,2.334h4.318V10.5H6.419A4.147,4.147,0,0,1,2.334,6.419,4.089,4.089,0,0,1,6.419,2.334Zm51,39.678H55.082a1.167,1.167,0,1,0-2.334,0H8.169a5.842,5.842,0,0,1-5.835-5.835V11.366l0,0,.015.012a6.445,6.445,0,0,0,4.066,1.456h51Zm0,0"/>
      <path id="Trazado_1022232" data-name="Trazado 1022232" d="M453.167,310a1.167,1.167,0,1,0,1.167,1.167A1.168,1.168,0,0,0,453.167,310Zm0,0" transform="translate(-399.252 -273.823)"/>
      <path id="Trazado_1022233" data-name="Trazado 1022233" d="M453.167,170A1.169,1.169,0,0,0,452,171.167v1.167a1.167,1.167,0,1,0,2.334,0v-1.167A1.169,1.169,0,0,0,453.167,170Zm0,0" transform="translate(-399.252 -150.161)"/>
      <path id="Trazado_1022234" data-name="Trazado 1022234" d="M452,131.167A1.167,1.167,0,1,0,453.167,130,1.169,1.169,0,0,0,452,131.167Zm0,0" transform="translate(-399.252 -114.829)"/>
      <path id="Trazado_1022235" data-name="Trazado 1022235" d="M453.167,220a1.167,1.167,0,1,0,1.167,1.167A1.169,1.169,0,0,0,453.167,220Zm0,0" transform="translate(-399.252 -194.326)"/>
      <path id="Trazado_1022236" data-name="Trazado 1022236" d="M453.167,260A1.169,1.169,0,0,0,452,261.167v1.167a1.167,1.167,0,1,0,2.334,0v-1.167A1.169,1.169,0,0,0,453.167,260Zm0,0" transform="translate(-399.252 -229.658)"/>
      <path id="Trazado_1022237" data-name="Trazado 1022237" d="M414.334,281.167A1.167,1.167,0,1,1,413.167,280,1.167,1.167,0,0,1,414.334,281.167Zm0,0" transform="translate(-363.92 -247.324)"/>
      <path id="Trazado_1022238" data-name="Trazado 1022238" d="M414.334,241.167A1.167,1.167,0,1,1,413.167,240,1.167,1.167,0,0,1,414.334,241.167Zm0,0" transform="translate(-363.92 -211.992)"/>
      <path id="Trazado_1022239" data-name="Trazado 1022239" d="M414.334,321.167A1.167,1.167,0,1,1,413.167,320,1.167,1.167,0,0,1,414.334,321.167Zm0,0" transform="translate(-363.92 -282.656)"/>
      <path id="Trazado_1022240" data-name="Trazado 1022240" d="M80.5,320H71.167a1.167,1.167,0,1,0,0,2.334H80.5a1.167,1.167,0,1,0,0-2.334Zm0,0" transform="translate(-61.831 -282.656)"/>
      <path id="Trazado_1022241" data-name="Trazado 1022241" d="M191.167,320a1.167,1.167,0,1,0,1.167,1.167A1.169,1.169,0,0,0,191.167,320Zm0,0" transform="translate(-167.827 -282.656)"/>
      <path id="Trazado_1022242" data-name="Trazado 1022242" d="M233.5,320h-2.334a1.167,1.167,0,0,0,0,2.334H233.5a1.167,1.167,0,1,0,0-2.334Zm0,0" transform="translate(-203.159 -282.656)"/>
      <path id="Trazado_1022243" data-name="Trazado 1022243" d="M333.734,320h-2.567a1.167,1.167,0,1,0,0,2.334h2.567a1.167,1.167,0,0,0,0-2.334Zm0,0" transform="translate(-291.489 -282.656)"/>
      <path id="Trazado_1022244" data-name="Trazado 1022244" d="M235.835,280h-4.668a1.167,1.167,0,0,0,0,2.334h4.668a1.167,1.167,0,0,0,0-2.334Zm0,0" transform="translate(-203.159 -247.324)"/>
      <path id="Trazado_1022245" data-name="Trazado 1022245" d="M155.835,280h-4.668a1.167,1.167,0,0,0,0,2.334h4.668a1.167,1.167,0,1,0,0-2.334Zm0,0" transform="translate(-132.495 -247.324)"/>
      <path id="Trazado_1022246" data-name="Trazado 1022246" d="M317,281.167A1.167,1.167,0,0,0,315.835,280h-4.668a1.167,1.167,0,1,0,0,2.334h4.668A1.167,1.167,0,0,0,317,281.167Zm0,0" transform="translate(-273.823 -247.324)"/>
      <path id="Trazado_1022247" data-name="Trazado 1022247" d="M71.167,280a1.167,1.167,0,1,0,0,2.334h4.668a1.167,1.167,0,0,0,0-2.334Zm0,0" transform="translate(-61.831 -247.324)"/>
      <path id="Trazado_1022248" data-name="Trazado 1022248" d="M351.167,240a1.167,1.167,0,1,0,1.167,1.167A1.168,1.168,0,0,0,351.167,240Zm0,0" transform="translate(-309.155 -211.992)"/>
      <path id="Trazado_1022249" data-name="Trazado 1022249" d="M191.167,240a1.167,1.167,0,1,0,1.167,1.167A1.169,1.169,0,0,0,191.167,240Zm0,0" transform="translate(-167.827 -211.992)"/>
      <path id="Trazado_1022250" data-name="Trazado 1022250" d="M81.67,241.167A1.169,1.169,0,0,0,80.5,240H71.167a1.167,1.167,0,1,0,0,2.334H80.5A1.169,1.169,0,0,0,81.67,241.167Zm0,0" transform="translate(-61.831 -211.992)"/>
      <path id="Trazado_1022251" data-name="Trazado 1022251" d="M231.167,240a1.167,1.167,0,0,0,0,2.334H240.5a1.167,1.167,0,0,0,0-2.334Zm0,0" transform="translate(-203.159 -211.992)"/>
      <path id="Trazado_1022252" data-name="Trazado 1022252" d="M72,147.669h5.835a1.167,1.167,0,0,0,1.084-.733l2.334-5.835a1.167,1.167,0,0,0-1.084-1.6h-10.5a1.167,1.167,0,0,0-1.084,1.6l2.334,5.835A1.167,1.167,0,0,0,72,147.669Zm6.445-5.835-1.4,3.5H72.792l-1.4-3.5Zm0,0" transform="translate(-60.507 -123.22)"/>
      <path id="Trazado_1022253" data-name="Trazado 1022253" d="M190.666,147.669h7a1.167,1.167,0,0,0,1-1.77l-3.521-5.835a1.166,1.166,0,0,0-1-.564h0a1.167,1.167,0,0,0-1,.569l-3.482,5.835a1.167,1.167,0,0,0,1,1.765Zm3.487-4.734,1.448,2.4h-2.88Zm0,0" transform="translate(-167.384 -123.22)"/>
      <path id="Trazado_1022254" data-name="Trazado 1022254" d="M299.667,147.669H305.5a1.167,1.167,0,0,0,1.167-1.167v-5.835A1.167,1.167,0,0,0,305.5,139.5h-5.835a1.167,1.167,0,0,0-1.167,1.167V146.5A1.167,1.167,0,0,0,299.667,147.669Zm1.167-5.835h3.5v3.5h-3.5Zm0,0" transform="translate(-263.665 -123.22)"/>
    </g>
  </g>
</svg>
